<svg xmlns="http://www.w3.org/2000/svg" viewBox="0 0 100.8 100.8"><path class="st0" d="M58.7 76H38.8l.1-3s.2-.4.4-1.8c.7-5.4 1-11.2.9-17.2 0-2.8-.2-5.7-.4-8.7-.1-.7-.1-1.5-.2-2.2-.2-1.8-.4-3.7-.3-5.6.1-2.4.8-4.5 1.9-6.3 1.7-2.7 4.4-4.4 8-5.1 5.4-1 10.3 1 13.2 5.5.5.7.3 1.6-.4 2.1s-1.6.3-2.1-.4c-2.3-3.5-6-5-10.1-4.2-2.7.5-4.7 1.8-6 3.7-.8 1.3-1.3 2.9-1.4 4.8-.1 1.7.1 3.4.3 5.2.1.8.1 1.5.2 2.3.2 3 .3 6 .4 8.9.1 6.1-.2 12-.9 17.6l-.3 1.5h12.3c2.9 0 6 .1 8.9 0 2.8-.1 4-1.4 4.4-4.7.1-.8.9-1.4 1.7-1.3s1.4.9 1.3 1.7c-.6 4.7-3.1 7.2-7.3 7.4-1.6-.2-3.2-.2-4.7-.2z"/><path class="st0" d="M55.1 51.2H32.9c-.8 0-1.5-.7-1.5-1.5s.7-1.5 1.5-1.5h22.2c.8 0 1.5.7 1.5 1.5s-.7 1.5-1.5 1.5z"/><path class="st0" d="M50.8 98.9c-26.6 0-48.2-21.6-48.2-48.2S24.3 2.5 50.8 2.5 99 24.1 99 50.7 77.4 98.9 50.8 98.9zm0-93.3C26 5.6 5.7 25.8 5.7 50.7S26 95.8 50.8 95.8 96 75.6 96 50.7 75.7 5.6 50.8 5.6z"/></svg>