<svg xmlns="http://www.w3.org/2000/svg" viewBox="0 0 100.8 100.8"><path class="st0" d="M50.8 98.9c-26.6 0-48.2-21.6-48.2-48.2S24.3 2.5 50.8 2.5 99 24.1 99 50.7 77.4 98.9 50.8 98.9zm0-93.3C26 5.6 5.7 25.8 5.7 50.7S26 95.8 50.8 95.8 96 75.6 96 50.7 75.7 5.6 50.8 5.6z"/><path class="st0" d="M51.6 54.5c-9 0-16.3-7.3-16.3-16.3s7.3-16.3 16.3-16.3 16.3 7.3 16.3 16.3-7.3 16.3-16.3 16.3zm0-29.7c-7.3 0-13.3 6-13.3 13.3s6 13.3 13.3 13.3 13.3-6 13.3-13.3-6-13.3-13.3-13.3z"/><path class="st0" d="M75.7 79.7c-.8 0-1.5-.7-1.5-1.5 0-13.1-10.1-23.7-22.6-23.7S29 65.1 29 78.2c0 .8-.7 1.5-1.5 1.5S26 79 26 78.2c0-14.7 11.5-26.7 25.6-26.7s25.6 12 25.6 26.7c0 .8-.7 1.5-1.5 1.5z"/></svg>