<svg xmlns="http://www.w3.org/2000/svg" viewBox="0 0 100.8 100.8"><path class="st0" d="M49.2 64.2c-8 0-14.5-6.5-14.5-14.5s6.5-14.5 14.5-14.5 14.5 6.5 14.5 14.5-6.5 14.5-14.5 14.5zm0-26c-6.3 0-11.5 5.1-11.5 11.5s5.1 11.5 11.5 11.5S60.7 56 60.7 49.7s-5.2-11.5-11.5-11.5z"/><path class="st1" d="M33.3 60.7c-2.2-3.1-3.4-6.9-3.4-11s1.3-7.9 3.4-11"/><path class="st0" d="M32.1 61.6c-2.4-3.5-3.7-7.6-3.7-11.9s1.3-8.4 3.7-11.9l2.5 1.7c-2.1 3-3.2 6.5-3.2 10.2s1.1 7.2 3.2 10.2l-2.5 1.7z"/><path class="st1" d="M64.7 38.1c2.4 3.2 3.8 7.2 3.8 11.6 0 4.3-1.4 8.3-3.8 11.6"/><path class="st0" d="M65.9 62.2l-2.4-1.8c2.3-3.1 3.5-6.8 3.5-10.7s-1.2-7.6-3.5-10.7l2.4-1.8c2.7 3.6 4.1 7.9 4.1 12.5.1 4.5-1.4 8.8-4.1 12.5zM33 80.2c-11.3-6-18.3-17.7-18.3-30.5 0-12.6 6.9-24.2 17.9-30.2l1.5 2.6C24 27.6 17.8 38.2 17.8 49.7c0 11.7 6.4 22.3 16.7 27.8L33 80.2z"/><path class="st0" d="M66.4 80.2L65 77.5C75.3 72 81.7 61.4 81.7 49.7S75.3 27.4 65 21.9l1.4-2.7c11.3 6 18.3 17.7 18.3 30.5s-7 24.4-18.3 30.5z"/><path class="st1" d="M33.3 38.7V7"/><path class="st0" d="M31.8 7h3v31.7h-3z"/><path class="st1" d="M33.3 78.8V61"/><path class="st0" d="M31.8 61h3v17.9h-3z"/><path class="st1" d="M33.3 93.6V78.8"/><path class="st0" d="M31.8 78.8h3v14.7h-3z"/><path class="st1" d="M64.7 61.3V95"/><path class="st0" d="M63.2 61.3h3V95h-3z"/><path class="st1" d="M64.7 5.7v32.4"/><path class="st0" d="M63.2 5.7h3v32.5h-3zM49.2 87.7c-4.6 0-8.3-3.7-8.3-8.3s3.7-8.3 8.3-8.3 8.3 3.7 8.3 8.3c0 4.6-3.7 8.3-8.3 8.3zm0-13.5c-2.9 0-5.3 2.4-5.3 5.3s2.4 5.3 5.3 5.3 5.3-2.4 5.3-5.3c0-3-2.4-5.3-5.3-5.3z"/><path class="st0" d="M50.8 98.9c-26.6 0-48.2-21.6-48.2-48.2S24.3 2.5 50.8 2.5 99 24.1 99 50.7 77.4 98.9 50.8 98.9zm0-93.3C26 5.6 5.7 25.8 5.7 50.7S26 95.8 50.8 95.8 96 75.6 96 50.7 75.7 5.6 50.8 5.6z"/></svg>