<svg xmlns="http://www.w3.org/2000/svg" viewBox="0 0 100.8 100.8"><path class="st0" d="M65.6 80H37c-3.9 0-7.1-3.2-7.1-7.1V30c0-3.9 3.2-7.1 7.1-7.1h28.5c3.9 0 7.1 3.2 7.1 7.1v42.9c0 3.9-3.1 7.1-7 7.1zM37 26c-2.2 0-4 1.8-4 4v42.9c0 2.2 1.8 4 4 4h28.5c2.2 0 4-1.8 4-4V30c0-2.2-1.8-4-4-4H37z"/><path class="st0" d="M64.9 53.5H37.2c-.4 0-.8-.3-.8-.8s.3-.8.8-.8h27.7c.4 0 .8.3.8.8s-.4.8-.8.8zM64.9 59.8H37.2c-.4 0-.8-.3-.8-.8s.3-.8.8-.8h27.7c.4 0 .8.3.8.8s-.4.8-.8.8zM64.9 66.1H37.2c-.4 0-.8-.3-.8-.8s.3-.8.8-.8h27.7c.4 0 .8.3.8.8s-.4.8-.8.8zM60.1 72.4H42c-.4 0-.8-.3-.8-.8s.3-.8.8-.8h18.2c.4 0 .8.3.8.8s-.5.8-.9.8zM51 41.6c-3.3 0-6-2.7-6-6s2.7-6 6-6 6 2.7 6 6-2.7 6-6 6zM51 31c-2.5 0-4.5 2-4.5 4.5s2 4.5 4.5 4.5 4.5-2 4.5-4.5-2-4.5-4.5-4.5z"/><path class="st0" d="M53.4 47.6l-2.6-6.5c-.2-.4 0-.8.4-1s.8 0 1 .4l1.5 3.7.5-.9 1.1.3-1.6-3.6c-.2-.4 0-.8.4-1s.8 0 1 .4l2.7 6.7-3-.9-1.4 2.4z"/><path class="st0" d="M48.2 47.6l-1.5-2.5-3 .9 2.7-6.7c.2-.4.6-.6 1-.4s.6.6.4 1l-1.5 3.7 1.1-.3.5.9 1.5-3.7c.2-.4.6-.6 1-.4s.6.6.4 1l-2.6 6.5z"/><path class="st0" d="M50.8 98.9c-26.6 0-48.2-21.6-48.2-48.2S24.3 2.5 50.8 2.5 99 24.1 99 50.7 77.4 98.9 50.8 98.9zm0-93.3C26 5.6 5.7 25.8 5.7 50.7S26 95.8 50.8 95.8 96 75.6 96 50.7 75.7 5.6 50.8 5.6z"/></svg>