<svg xmlns="http://www.w3.org/2000/svg" viewBox="0 0 150 150"><path d="M68.9 98.7l7.6 14.9 3.4 20.9 7.8-7.8c8.9-8.9 12.4-22 9-34.2l-27.8 6.2" fill="#e6e6e6"/><path d="M79 137l-3.7-23-8.2-16.2 30.5-6.7.3 1.1c3.5 12.5-.1 26.1-9.3 35.4L79 137zm-8.3-37.4l7 13.9 3 18.6 6.2-6.2c8.3-8.3 11.7-20.5 9-31.9 0-.1-25.2 5.6-25.2 5.6z" fill="#333"/><path d="M58.5 54.4c-12.2-3.4-25.3.1-34.2 9l-7.8 7.8 20.9 3.4 15.2 7.7" fill="#e6e6e6"/><path d="M52.6 83.6c-.2 0-.3-.1-.5-.2l-15-7.7L14 72l9.5-9.5c9.2-9.3 22.7-12.8 35.4-9.3.7.2 1 .8.8 1.5-.2.7-.8 1-1.5.8-11.7-3.2-24.4.1-33 8.8L19 70.5l18.9 3.1 15.2 7.7c.6.3.8 1 .5 1.6-.2.4-.6.7-1 .7z" fill="#333"/><path d="M52.2 98.7l-18.5 18.5" fill="none"/><path d="M33.7 118.4c-.3 0-.6-.1-.8-.3-.5-.5-.5-1.3 0-1.7l18.5-18.5c.5-.5 1.3-.5 1.7 0 .5.5.5 1.3 0 1.7l-18.5 18.5c-.3.2-.6.3-.9.3z" fill="#333"/><path d="M60.6 107l-9.3 9.3" fill="none"/><path d="M51.4 117.5c-.3 0-.6-.1-.8-.3-.5-.5-.5-1.3 0-1.7l9.3-9.3c.5-.5 1.3-.5 1.7 0 .4.5.5 1.3 0 1.7l-9.3 9.3c-.3.1-.7.3-.9.3z" fill="#333"/><path d="M43.6 90l-9.3 9.3" fill="none"/><path d="M34.4 100.5c-.3 0-.6-.1-.8-.3-.5-.5-.5-1.3 0-1.7l9.3-9.3c.5-.5 1.3-.5 1.7 0 .5.5.5 1.3 0 1.7l-9.3 9.3c-.3.1-.7.3-.9.3z" fill="#333"/><path d="M58.4 54.2l37.7-37.7 38.8.6v37.3L96.8 92.6l-27.9 6.1-16.3-16.3 5.8-28.2" fill="#8fc043"/><path d="M68.9 99.9c-.3 0-.6-.1-.8-.3L51.7 83.2c-.3-.3-.4-.7-.3-1.1l5.8-28.2c.1-.3.2-.4.3-.6l37.7-37.7c.3-.3.5-.3.8-.3l38.7.7c.7 0 1.2.5 1.2 1.2v37.3c0 .3-.2.6-.3.8L97.5 93.4c-.2.2-.3.3-.6.3L69.1 100c0-.1-.1-.1-.2-.1zM53.8 82l15.5 15.5 26.9-6 37.6-37.6V18.2l-37-.6-37.3 37.2L53.8 82z" fill="#333"/><path d="M90.2 63.2s0-.1 0 0c-5.7 1.2-11.3 2.4-16.9 3.7 1.4 1.5 2.8 2.9 4.1 4.4-2.1 2-4.2 4-6.4 6.1v.1c5.6-1.3 11.2-2.5 16.8-3.8-1.4-1.4-2.8-2.9-4.1-4.3 2.3-2.2 4.4-4.2 6.5-6.2z" fill="#e6e6e6"/><path d="M71.1 78.6c-.4 0-.8-.3-1.1-.7 0-.1-.1-.2-.1-.2-.3-.5-.1-.9.3-1.3l5.5-5.2-3.3-3.5c-.3-.3-.4-.8-.3-1.2.1-.4.5-.8.9-.8L89.9 62c.6-.2 1.2.2 1.3.7.3.5.2 1.1-.3 1.4L88.8 66c-1.2 1.1-2.3 2.2-3.5 3.3l3.3 3.5c.3.3.4.8.3 1.2-.1.4-.4.8-.8.8l-15.7 3.5-1.3.3c.2 0 0 0 0 0zm4.5-10.9l2.7 2.8c.4.5.4 1.3-.1 1.7l-3.4 3.2c3.5-.8 7.2-1.6 10.7-2.4L83 70.1c-.4-.5-.4-1.3 0-1.7 1.1-1.1 2.3-2.2 3.4-3.2l-10.8 2.5z" fill="#333"/><circle cx="104.9" cy="46.4" r="12.4" fill="#e6e6e6"/><path d="M104.9 60c-7.5 0-13.6-6.1-13.6-13.6s6.1-13.6 13.6-13.6 13.6 6.1 13.6 13.6S112.4 60 104.9 60zm0-24.8c-6.1 0-11.2 5.1-11.2 11.2s5.1 11.2 11.2 11.2 11.2-5.1 11.2-11.2-4.9-11.2-11.2-11.2zM130.5 52.7c-.7 0-1.2-.5-1.2-1.2V36.9c0-.7.5-1.2 1.2-1.2s1.2.5 1.2 1.2v14.6c0 .7-.5 1.2-1.2 1.2z" fill="#333"/><path d="M101.3 51.3c-.7 0-1.2-.5-1.2-1.2v-5.8c0-.7.5-1.2 1.2-1.2s1.2.5 1.2 1.2v5.8c0 .6-.5 1.2-1.2 1.2zM105.7 55.6c-.7 0-1.2-.5-1.2-1.2V39.8c0-.7.5-1.2 1.2-1.2s1.2.5 1.2 1.2v14.6c0 .6-.5 1.2-1.2 1.2z" fill="#fff"/><g><path d="M30.2 66.1c-.3 0-.7-.2-.9-.4-.4-.5-.4-1.3.1-1.7 4.5-4 9.9-6.5 15.7-7.4.7-.1 1.3.3 1.3 1 .1.7-.3 1.3-1 1.3-5.3.9-10.4 3.2-14.4 6.8-.2.3-.4.4-.8.4z" fill="#333"/></g><path d="M0 0h150v150H0V0z" fill="none"/></svg>