<?xml version="1.0" encoding="utf-8"?>
<!-- Generator: Adobe Illustrator 21.0.2, SVG Export Plug-In . SVG Version: 6.00 Build 0)  -->
<svg version="1.1" id="Layer_1" xmlns="http://www.w3.org/2000/svg" xmlns:xlink="http://www.w3.org/1999/xlink" x="0px" y="0px"
	 viewBox="0 0 76 75" width="100" height="100" style="enable-background:new 0 0 76 75;" xml:space="preserve">
<path id="Fill-545_27_" style="opacity:0.3;fill:#8CC63F;enable-background:new    ;" d="M57.4,37.2c0,10.6-8.6,19.3-19.3,19.3
	s-19.3-8.6-19.3-19.3c0-10.6,8.6-19.3,19.3-19.3S57.4,26.6,57.4,37.2"/>
<g>
	<path id="Fill-545_26_" style="fill:none;stroke:#8CC63F;stroke-width:5;stroke-linecap:round;stroke-miterlimit:10;" d="M44.4,3.2
		c12.4,2.3,22.4,11.1,26.4,22.7"/>
	<path id="Fill-545_25_" style="fill:none;stroke:#8CC63F;stroke-width:5;stroke-linecap:round;stroke-miterlimit:10;" d="M3.7,39.7
		c-0.1-0.8-0.1-1.6-0.1-2.5c0-13,7.2-24.4,17.9-30.3"/>
	<path id="Fill-545_24_" style="fill:none;stroke:#8CC63F;stroke-width:5;stroke-linecap:round;stroke-miterlimit:10;" d="M9.6,56.7
		c-1.6-2.4-3-4.9-3.9-7.7"/>
	<path id="Fill-545_23_" style="fill:none;stroke:#8CC63F;stroke-width:5;stroke-linecap:round;stroke-miterlimit:10;" d="
		M38.1,71.8c-7.8,0-15.1-2.6-20.9-7"/>
	<path id="Fill-545_22_" style="fill:none;stroke:#8CC63F;stroke-width:5;stroke-linecap:round;stroke-miterlimit:10;" d="
		M71.9,44.8C70.4,51.5,67,57.4,62.3,62"/>
</g>
</svg>
