<?xml version="1.0" encoding="utf-8"?>
<!-- Generator: Adobe Illustrator 21.0.2, SVG Export Plug-In . SVG Version: 6.00 Build 0)  -->
<svg version="1.1" id="Layer_1" xmlns="http://www.w3.org/2000/svg" xmlns:xlink="http://www.w3.org/1999/xlink" x="0px" y="0px"
	 viewBox="0 0 90 90" style="enable-background:new 0 0 90 90;" xml:space="preserve">
<style type="text/css">
	.st0{fill:#E6E6E6;stroke:#333333;stroke-width:1.5;stroke-linecap:round;stroke-linejoin:round;stroke-miterlimit:10;}
	.st1{fill:#8FC043;stroke:#333333;stroke-width:1.5;stroke-linecap:round;stroke-linejoin:round;stroke-miterlimit:10;}
</style>
<polyline class="st0" points="42.3,58.7 50.8,80 54.9,73 63.3,75.7 55.5,56.1 "/>
<polyline class="st0" points="48,57 39,79.8 34.8,72.8 26.4,75.5 34.2,55.9 "/>
<circle class="st1" cx="45.1" cy="34.7" r="25"/>
<circle class="st0" cx="45.1" cy="34.8" r="22"/>
<path class="st1" d="M45.2,21.2l3.9,8l0.1,0.1l8.8,1.3c0.1,0,0.2,0.2,0.1,0.2L51.7,37v0.1l1.5,8.7c0,0.1-0.1,0.2-0.2,0.1l-7.9-4.1
	H45l-7.9,4.1c-0.1,0.1-0.2,0-0.2-0.1l1.6-8.8v-0.1l-6.4-6.2c-0.1-0.1,0-0.2,0.1-0.2l8.8-1.3c0,0,0.1,0,0.1-0.1l3.9-8
	C45,21.1,45.1,21.1,45.2,21.2z"/>
</svg>
