<?xml version="1.0" encoding="utf-8"?>
<!-- Generator: Adobe Illustrator 21.0.2, SVG Export Plug-In . SVG Version: 6.00 Build 0)  -->
<svg version="1.1" id="Layer_1" xmlns="http://www.w3.org/2000/svg" xmlns:xlink="http://www.w3.org/1999/xlink" x="0px" y="0px"
	 viewBox="0 0 90 90" style="enable-background:new 0 0 90 90;" xml:space="preserve">
<style type="text/css">
	.st0{fill:#CCCCCC;stroke:#333333;stroke-width:1.5;stroke-miterlimit:10;}
	.st1{fill:none;stroke:#999999;stroke-width:1.5;stroke-linecap:round;stroke-miterlimit:10;}
	.st2{fill:#333333;}
	.st3{fill:#4D4D4D;}
	.st4{fill:#8CC03F;}
	.st5{fill:#E6E6E6;stroke:#333333;stroke-width:1.5;stroke-linecap:round;stroke-linejoin:round;stroke-miterlimit:10;}
</style>
<g>
	<circle class="st0" cx="45" cy="61.4" r="21.5"/>
	<path class="st1" d="M37.8,74.9c-4.8-2.6-8.1-7.6-8.1-13.4c0-5.7,3.2-10.7,7.9-13.3"/>
	<path class="st1" d="M52.1,48c4.8,2.6,8.1,7.6,8.1,13.4c0,5.8-3.3,10.9-8.1,13.4"/>
	<path class="st2" d="M52.1,80.7v1c-2.5,0.8-4.8,1.2-7.3,1.2c-2.4,0-4.8-0.5-7.1-1.3v-1v-1.8v-6.2v-6.1c-1-1.4-1.6-3.2-1.6-5.1
		c0-1.9,0.6-3.6,1.6-5.1v-0.5V41.1c2.5-0.9,4.7-1.3,7.3-1.3c2.4,0,4.8,0.4,7.1,1.2v14.7V56c1.1,1.5,1.8,3.3,1.8,5.3
		s-0.7,3.8-1.8,5.3v0.7v11.6"/>
	<circle class="st3" cx="45" cy="61.4" r="6"/>
	<circle class="st4" cx="45" cy="75.1" r="1.6"/>
	<path class="st5" d="M56.1,18c1.2,1.9,2.6,3.9,3.6,5.9c0.8,1.6,0.5,3.7-0.6,5.1c-1.1,1.5-3.3,2.1-5,1.1c-2.3-1.4-2.7-4.4-1.4-6.5
		L56.1,18z"/>
	<path class="st5" d="M31.7,22c1.2,1.9,2.6,3.9,3.6,5.9c0.8,1.6,0.5,3.7-0.6,5.1c-1.1,1.5-3.3,2.1-5,1.1c-2.3-1.4-2.7-4.4-1.4-6.5
		L31.7,22z"/>
	<path class="st5" d="M43.5,7.8c1.2,1.9,2.6,3.9,3.6,5.9c0.8,1.6,0.5,3.7-0.6,5.1c-1.1,1.5-3.3,2.1-5,1.1c-2.3-1.4-2.7-4.4-1.4-6.5
		L43.5,7.8z"/>
</g>
</svg>
