<?xml version="1.0" encoding="utf-8"?>
<!-- Generator: Adobe Illustrator 21.0.2, SVG Export Plug-In . SVG Version: 6.00 Build 0)  -->
<svg version="1.1" id="Layer_1" xmlns="http://www.w3.org/2000/svg" xmlns:xlink="http://www.w3.org/1999/xlink" x="0px" y="0px"
	 viewBox="0 0 90 90" style="enable-background:new 0 0 90 90;" xml:space="preserve">
<style type="text/css">
	.st0{fill:none;stroke:#8CC63F;stroke-width:1.5;stroke-linecap:round;stroke-linejoin:round;stroke-miterlimit:10;}
	.st1{fill:#CCCCCC;stroke:#333333;stroke-width:1.5;stroke-miterlimit:10;}
	.st2{fill:none;stroke:#999999;stroke-width:1.5;stroke-linecap:round;stroke-miterlimit:10;}
	.st3{fill:#333333;}
	.st4{fill:#4D4D4D;}
	.st5{fill:#8CC03F;}
</style>
<g>
	<path class="st0" d="M27.8,17.5c9.4-9,24.1-9.3,33.4-0.8"/>
	<path class="st0" d="M30,22.9c8-7.7,20.7-8,28.8-0.8"/>
	<path class="st0" d="M33.3,28.1c6.2-6,15.9-6.2,22.1-0.6"/>
	<circle class="st1" cx="44.8" cy="55.6" r="22.9"/>
	<path class="st2" d="M37.2,69.9c-5.1-2.7-8.6-8.1-8.6-14.3c0-6.1,3.4-11.4,8.4-14.2"/>
	<path class="st2" d="M52.4,41.3C57.5,44,61,49.4,61,55.6s-3.5,11.6-8.6,14.3"/>
	<path class="st3" d="M52.4,76.2v1c-2.7,0.9-5.1,1.3-7.8,1.3c-2.5,0-5.1-0.5-7.6-1.4V76v-1.9v-6.6V61c-1.1-1.5-1.7-3.4-1.7-5.4
		s0.6-3.9,1.7-5.4v-0.5V34.1c2.7-0.9,5.1-1.4,7.8-1.4c2.5,0,5.1,0.4,7.6,1.3v15.6v0.3c1.2,1.6,1.9,3.5,1.9,5.7
		c0,2.1-0.7,4.1-1.9,5.7V62v12.3"/>
	<circle class="st4" cx="44.8" cy="55.6" r="6.4"/>
	<circle class="st5" cx="44.8" cy="70.2" r="1.7"/>
</g>
</svg>
