<?xml version="1.0" encoding="utf-8"?>
<!-- Generator: Adobe Illustrator 21.0.2, SVG Export Plug-In . SVG Version: 6.00 Build 0)  -->
<svg version="1.1" id="Layer_1" xmlns="http://www.w3.org/2000/svg" xmlns:xlink="http://www.w3.org/1999/xlink" x="0px" y="0px"
	 viewBox="0 0 218 219" style="enable-background:new 0 0 218 219;" xml:space="preserve">
<style type="text/css">
	.st0{fill:#F2F2F2;}
	.st1{clip-path:url(#SVGID_2_);}
	.st2{fill:#F2F2F2;stroke:#E6E6E6;stroke-width:3;stroke-linecap:round;stroke-miterlimit:10;}
	.st3{clip-path:url(#SVGID_2_);fill:#ECECEC;stroke:#333333;stroke-width:3;stroke-miterlimit:10;}
	.st4{clip-path:url(#SVGID_2_);fill:none;stroke:#333333;stroke-width:3;}
	.st5{clip-path:url(#SVGID_2_);fill:#FFFFFF;stroke:#333333;stroke-width:3;}
	.st6{clip-path:url(#SVGID_2_);fill:#CCCCCC;stroke:#333333;stroke-width:3;stroke-miterlimit:10;}
	.st7{clip-path:url(#SVGID_2_);fill:none;stroke:#999999;stroke-width:3;stroke-linecap:round;stroke-miterlimit:10;}
	.st8{clip-path:url(#SVGID_2_);fill:#333333;}
	.st9{clip-path:url(#SVGID_2_);fill:#8CC03F;}
	.st10{fill:#8CC63F;stroke:#333333;stroke-width:3;stroke-linecap:round;stroke-linejoin:round;stroke-miterlimit:10;}
	.st11{fill:#E6E6E6;stroke:#333333;stroke-width:3;stroke-linecap:round;stroke-linejoin:round;stroke-miterlimit:10;}
	.st12{fill:#E6E6E6;stroke:#333333;stroke-width:1.5;stroke-linecap:round;stroke-linejoin:round;stroke-miterlimit:10;}
	
		.st13{fill:none;stroke:#333333;stroke-width:3;stroke-linecap:round;stroke-linejoin:round;stroke-miterlimit:10;stroke-dasharray:3,5;}
	
		.st14{clip-path:url(#SVGID_4_);fill:#8CC63F;stroke:#333333;stroke-width:3;stroke-linecap:round;stroke-linejoin:round;stroke-miterlimit:10;}
	.st15{fill:none;stroke:#333333;stroke-width:3;stroke-linecap:round;stroke-linejoin:round;stroke-miterlimit:10;}
</style>
<g>
	<circle class="st0" cx="110.2" cy="108.5" r="103.8"/>
	<g>
		<defs>
			<circle id="SVGID_1_" cx="109" cy="108.5" r="103.8"/>
		</defs>
		<clipPath id="SVGID_2_">
			<use xlink:href="#SVGID_1_"  style="overflow:visible;"/>
		</clipPath>
		<g class="st1">
			<polyline class="st2" points="213.3,220.8 213.3,-6.4 -0.3,-6.8 -0.3,-4.5 -0.3,221 			"/>
			<line class="st2" x1="-0.3" y1="14.8" x2="211.7" y2="14.4"/>
			<line class="st2" x1="-0.3" y1="-7.5" x2="211.7" y2="-7.9"/>
			<line class="st2" x1="4.1" y1="13.9" x2="4.1" y2="-6.5"/>
			<line class="st2" x1="42.7" y1="13.9" x2="42.7" y2="-6.5"/>
			<line class="st2" x1="79.9" y1="13.9" x2="79.9" y2="-6.5"/>
			<line class="st2" x1="118.6" y1="13.9" x2="118.6" y2="-6.5"/>
			<line class="st2" x1="156.3" y1="13.9" x2="156.3" y2="-6.5"/>
			<line class="st2" x1="194.9" y1="13.9" x2="194.9" y2="-6.5"/>
			<line class="st2" x1="-0.3" y1="37.9" x2="211.7" y2="37.4"/>
			<line class="st2" x1="23.5" y1="37" x2="23.5" y2="16.6"/>
			<line class="st2" x1="60.7" y1="37" x2="60.7" y2="16.6"/>
			<line class="st2" x1="99.3" y1="37" x2="99.3" y2="16.6"/>
			<line class="st2" x1="137" y1="37" x2="137" y2="16.6"/>
			<line class="st2" x1="175.7" y1="37" x2="175.7" y2="16.6"/>
			<line class="st2" x1="-0.1" y1="61.1" x2="211.9" y2="60.7"/>
			<line class="st2" x1="4.3" y1="60.3" x2="4.3" y2="39.8"/>
			<line class="st2" x1="43" y1="60.3" x2="43" y2="39.8"/>
			<line class="st2" x1="80.2" y1="60.3" x2="80.2" y2="39.8"/>
			<line class="st2" x1="118.8" y1="60.3" x2="118.8" y2="39.8"/>
			<line class="st2" x1="156.5" y1="60.3" x2="156.5" y2="39.8"/>
			<line class="st2" x1="195.1" y1="60.3" x2="195.1" y2="39.8"/>
			<line class="st2" x1="-0.1" y1="84.2" x2="211.8" y2="83.8"/>
			<line class="st2" x1="23.8" y1="83.4" x2="23.8" y2="63"/>
			<line class="st2" x1="60.9" y1="83.4" x2="60.9" y2="63"/>
			<line class="st2" x1="99.6" y1="83.4" x2="99.6" y2="63"/>
			<line class="st2" x1="137.3" y1="83.4" x2="137.3" y2="63"/>
			<line class="st2" x1="175.9" y1="83.4" x2="175.9" y2="63"/>
			<line class="st2" x1="0.9" y1="106.4" x2="212.8" y2="105.9"/>
			<line class="st2" x1="5.7" y1="105.5" x2="5.7" y2="85.1"/>
			<line class="st2" x1="44.3" y1="105.5" x2="44.3" y2="85.1"/>
			<line class="st2" x1="81.5" y1="105.5" x2="81.5" y2="85.1"/>
			<line class="st2" x1="120.2" y1="105.5" x2="120.2" y2="85.1"/>
			<line class="st2" x1="157.9" y1="105.5" x2="157.9" y2="85.1"/>
			<line class="st2" x1="196.5" y1="105.5" x2="196.5" y2="85.1"/>
			<line class="st2" x1="0.8" y1="129.5" x2="212.8" y2="129"/>
			<line class="st2" x1="25.1" y1="128.6" x2="25.1" y2="108.2"/>
			<line class="st2" x1="62.3" y1="128.6" x2="62.3" y2="108.2"/>
			<line class="st2" x1="101" y1="128.6" x2="101" y2="108.2"/>
			<line class="st2" x1="138.6" y1="128.6" x2="138.6" y2="108.2"/>
			<line class="st2" x1="177.3" y1="128.6" x2="177.3" y2="108.2"/>
			<line class="st2" x1="1" y1="152.7" x2="213" y2="152.3"/>
			<line class="st2" x1="5.9" y1="151.8" x2="5.9" y2="131.4"/>
			<line class="st2" x1="44.6" y1="151.8" x2="44.6" y2="131.4"/>
			<line class="st2" x1="81.8" y1="151.8" x2="81.8" y2="131.4"/>
			<line class="st2" x1="120.4" y1="151.8" x2="120.4" y2="131.4"/>
			<line class="st2" x1="158.1" y1="151.8" x2="158.1" y2="131.4"/>
			<line class="st2" x1="196.8" y1="151.8" x2="196.8" y2="131.4"/>
			<line class="st2" x1="1" y1="175.8" x2="212.9" y2="175.3"/>
			<line class="st2" x1="25.4" y1="174.9" x2="25.4" y2="154.5"/>
			<line class="st2" x1="62.6" y1="174.9" x2="62.6" y2="154.5"/>
			<line class="st2" x1="101.2" y1="174.9" x2="101.2" y2="154.5"/>
			<line class="st2" x1="138.9" y1="174.9" x2="138.9" y2="154.5"/>
			<line class="st2" x1="177.5" y1="174.9" x2="177.5" y2="154.5"/>
			<line class="st2" x1="0.9" y1="196.9" x2="212.8" y2="196.5"/>
			<line class="st2" x1="5.7" y1="196" x2="5.7" y2="175.6"/>
			<line class="st2" x1="44.3" y1="196" x2="44.3" y2="175.6"/>
			<line class="st2" x1="81.5" y1="196" x2="81.5" y2="175.6"/>
			<line class="st2" x1="120.2" y1="196" x2="120.2" y2="175.6"/>
			<line class="st2" x1="157.9" y1="196" x2="157.9" y2="175.6"/>
			<line class="st2" x1="196.5" y1="196" x2="196.5" y2="175.6"/>
			<line class="st2" x1="0.8" y1="220" x2="212.8" y2="219.6"/>
			<line class="st2" x1="25.1" y1="219.2" x2="25.1" y2="198.7"/>
			<line class="st2" x1="62.3" y1="219.2" x2="62.3" y2="198.7"/>
			<line class="st2" x1="101" y1="219.2" x2="101" y2="198.7"/>
			<line class="st2" x1="138.6" y1="219.2" x2="138.6" y2="198.7"/>
			<line class="st2" x1="177.3" y1="219.2" x2="177.3" y2="198.7"/>
			<path class="st2" d="M213.4,83.6"/>
			<path class="st2" d="M116.2,96.2"/>
		</g>
		<path class="st3" d="M-34.1,200.8V67.2c0-24.3,21.4-41.8,45.7-41.8H12c24.3,0,43.7,17.5,43.7,41.8v133.6"/>
		<path class="st4" d="M-21.9,126.3c0,2.1,1.7,3.8,3.8,3.8c2.1,0,3.8-1.7,3.8-3.8c0-2.1-1.7-3.8-3.8-3.8
			C-20.2,122.5-21.9,124.2-21.9,126.3"/>
		<path class="st5" d="M43.2,69c0-3.4-2.8-6.2-6.2-6.2h-52.5c-3.4,0-6.2,2.8-6.2,6.2v35.9c0,3.4,2.8,6.2,6.2,6.2H37
			c3.4,0,6.2-2.8,6.2-6.2V69z"/>
		<circle class="st6" cx="177.7" cy="78.8" r="34.4"/>
		<path class="st7" d="M166.3,100.3c-7.7-4.1-12.9-12.2-12.9-21.5c0-9.2,5.1-17.2,12.6-21.3"/>
		<path class="st7" d="M189.1,57.3c7.7,4.1,12.9,12.2,12.9,21.5c0,9.3-5.2,17.4-12.9,21.5"/>
		<path class="st1" d="M189.1,109.7l0,1.6c-4,1.3-7.6,2-11.7,1.9c-3.8,0-7.7-0.7-11.4-2l0-1.7l0-2.8v-10l0-9.7
			c-1.6-2.3-2.5-5.1-2.5-8.1c0-3,0.9-5.8,2.5-8.1l0-0.8V46.5c4-1.4,7.6-2,11.7-2c3.8,0,7.7,0.7,11.4,1.9v23.5l0,0.4
			c1.8,2.4,2.8,5.3,2.8,8.5c0,3.2-1.1,6.1-2.8,8.5l0,1v18.5"/>
		<circle class="st8" cx="177.7" cy="78.8" r="9.6"/>
		<circle class="st9" cx="177.7" cy="100.7" r="2.5"/>
	</g>
	<path class="st10" d="M148.6,176.3c0,4.5-3.6,8.1-8.1,8.1H81.4c-4.5,0-8.1-3.6-8.1-8.1V42.9c0-4.5,3.6-8.1,8.1-8.1h59.1
		c4.5,0,8.1,3.6,8.1,8.1V176.3z"/>
	<path class="st11" d="M111,157.3c-4.6,0-8.3,3.7-8.3,8.3c0,4.6,3.7,8.3,8.3,8.3c4.6,0,8.3-3.7,8.3-8.3
		C119.3,161,115.5,157.3,111,157.3z"/>
	<path class="st11" d="M140.8,151.2H81.5c-1.3,0-2.4-1.1-2.4-2.4V48.8c0-1.3,1.1-2.4,2.4-2.4h59.3c1.3,0,2.4,1.1,2.4,2.4v100.1
		C143.2,150.1,142.1,151.2,140.8,151.2z"/>
	<g>
		<path class="st10" d="M106.3,120.3c0-5.7-4.6-10.3-10.3-10.3s-10.3,4.6-10.3,10.3c0,2.2,0.7,4.3,2,6.1l7.8,10.5
			c0.1,0.2,0.3,0.3,0.5,0.3c0.2,0,0.4-0.1,0.5-0.3l7.7-10.4l0.4-0.5h0c0.5-0.8,0.9-1.6,1.2-2.4C106.1,122.5,106.3,121.4,106.3,120.3
			z"/>
	</g>
	<g>
		<path class="st10" d="M108.2,65.9c0-5.7-4.6-10.3-10.3-10.3c-5.7,0-10.3,4.6-10.3,10.3c0,2.2,0.7,4.3,2,6.1l7.8,10.5
			c0.1,0.2,0.3,0.3,0.5,0.3c0.2,0,0.4-0.1,0.5-0.3l7.7-10.4l0.4-0.5h0c0.5-0.8,0.9-1.6,1.2-2.4C108.1,68.1,108.2,67,108.2,65.9z"/>
	</g>
	<g>
		<path class="st10" d="M135.4,91.2c0-5.7-4.6-10.3-10.3-10.3s-10.3,4.6-10.3,10.3c0,2.2,0.7,4.3,2,6.1l7.8,10.5
			c0.1,0.2,0.3,0.3,0.5,0.3c0.2,0,0.4-0.1,0.5-0.3l7.7-10.4l0.4-0.5h0c0.5-0.8,0.9-1.6,1.2-2.4C135.2,93.4,135.4,92.3,135.4,91.2z"
			/>
	</g>
	<path class="st12" d="M99.1,60.6C99.1,60.6,99.1,60.6,99.1,60.6c-1.8,2.8-3.6,5.6-5.4,8.4c1.2,0,2.3,0.1,3.5,0.1
		c0,1.7-0.1,3.4-0.1,5.1c0,0,0,0,0,0c1.8-2.8,3.6-5.6,5.4-8.4c-1.2,0-2.3-0.1-3.4-0.1C99,64,99.1,62.3,99.1,60.6z"/>
	<path class="st12" d="M97.2,114.9C97.1,114.9,97.1,114.9,97.2,114.9c-1.8,2.8-3.6,5.6-5.4,8.4c1.2,0,2.3,0.1,3.5,0.1
		c0,1.7-0.1,3.4-0.1,5.1c0,0,0,0,0,0c1.8-2.8,3.6-5.6,5.4-8.4c-1.2,0-2.3-0.1-3.4-0.1C97.1,118.3,97.1,116.6,97.2,114.9z"/>
	<path class="st12" d="M126.3,85.8C126.3,85.8,126.2,85.8,126.3,85.8c-1.8,2.8-3.6,5.6-5.4,8.4c1.2,0,2.3,0.1,3.5,0.1
		c0,1.7-0.1,3.4-0.1,5.1c0,0,0,0,0,0c1.8-2.8,3.6-5.6,5.4-8.4c-1.2,0-2.3-0.1-3.4-0.1C126.2,89.2,126.2,87.5,126.3,85.8z"/>
	<line class="st13" x1="82" y1="90.1" x2="145.1" y2="67.7"/>
	<line class="st13" x1="79.1" y1="102.7" x2="143.2" y2="110.4"/>
	<line class="st13" x1="79.1" y1="141.5" x2="143.2" y2="129.8"/>
	<g>
		<defs>
			<circle id="SVGID_3_" cx="110.2" cy="108.5" r="103.8"/>
		</defs>
		<clipPath id="SVGID_4_">
			<use xlink:href="#SVGID_3_"  style="overflow:visible;"/>
		</clipPath>
		<path class="st14" d="M134.4,171.7l-2,0.8c-9.9,4-8.7,16.8-5.5,25c1.4,3.4,3.3,6.6,5.8,9.4c2.5,2.9,5.6,5.2,8.2,8
			c1,1.1,1.5,2.5,1.6,4c0.3,3.5,3.5,7.7,8.5,7.7h23.1c5,0,9.1-4.1,9.1-9.1c0-2.7,0.9-5.4,2.4-7.6c1.9-2.7,3.9-5.4,4.9-8.6
			c1.4-4.7,1-9.7,1-14.6c0-3,0-6,0-9.1v-1.2c0-3.9-3.2-7.2-7.2-7.2s-7.2,3.2-7.2,7.2v1.2v-7.2v-1.2c0-3.9-3.2-7.2-7.2-7.2
			c-3.9,0-7.2,3.2-7.2,7.2v1.2v-7.2v-1.2c0-3.9-3.2-7.2-7.2-7.2c-3.9,0-7.2,3.2-7.2,7.2v7.2v-37v-1.2c0-3.9-3.2-7.2-7.2-7.2
			c-3.9,0-7.2,3.2-7.2,7.2v1.2v57.2"/>
	</g>
	<circle class="st15" cx="109.2" cy="109.5" r="103.8"/>
</g>
</svg>
