<?xml version="1.0" encoding="utf-8"?>
<!-- Generator: Adobe Illustrator 21.0.2, SVG Export Plug-In . SVG Version: 6.00 Build 0)  -->
<svg version="1.1" id="Layer_1" xmlns="http://www.w3.org/2000/svg" xmlns:xlink="http://www.w3.org/1999/xlink" x="0px" y="0px"
	 viewBox="0 0 218 219" style="enable-background:new 0 0 218 219;" xml:space="preserve">
<style type="text/css">
	.st0{fill:#F2F2F2;}
	.st1{clip-path:url(#SVGID_2_);fill:none;stroke:#E6E6E6;stroke-width:3;stroke-linecap:round;stroke-miterlimit:10;}
	
		.st2{clip-path:url(#SVGID_2_);fill-rule:evenodd;clip-rule:evenodd;fill:#F2F2F2;stroke:#E6E6E6;stroke-width:3;stroke-linecap:round;stroke-miterlimit:10;}
	.st3{clip-path:url(#SVGID_2_);fill:#F2F2F2;stroke:#E6E6E6;stroke-width:3;stroke-linecap:round;stroke-miterlimit:10;}
	.st4{clip-path:url(#SVGID_2_);}
	.st5{fill:#F2F2F2;stroke:#E6E6E6;stroke-width:3;stroke-linecap:round;stroke-miterlimit:10;}
	.st6{fill:none;stroke:#333333;stroke-width:3;stroke-linecap:round;stroke-linejoin:round;stroke-miterlimit:10;}
	.st7{fill:#8CC63F;stroke:#333333;stroke-width:3;stroke-linecap:round;stroke-linejoin:round;stroke-miterlimit:10;}
	.st8{fill:#F2F2F2;stroke:#333333;stroke-width:3;stroke-linecap:round;stroke-linejoin:round;stroke-miterlimit:10;}
	.st9{fill:#8CC63F;stroke:#333333;stroke-width:1.5;stroke-linecap:round;stroke-linejoin:round;stroke-miterlimit:10;}
	.st10{fill:#F2F2F2;stroke:#333333;stroke-width:1.5;stroke-linecap:round;stroke-linejoin:round;stroke-miterlimit:10;}
</style>
<circle class="st0" cx="108.4" cy="109.1" r="104.9"/>
<g>
	<defs>
		<circle id="SVGID_1_" cx="110.4" cy="109.1" r="104.9"/>
	</defs>
	<clipPath id="SVGID_2_">
		<use xlink:href="#SVGID_1_"  style="overflow:visible;"/>
	</clipPath>
	<line class="st1" x1="-22" y1="231.2" x2="291.2" y2="231.2"/>
	<path class="st2" d="M235.2,197.2c-2.2,0.1-30.4,0.9-31.3,0.7c-1-0.1-76.6,0.6-78.5,0.6c-1.8,0-185.4-0.7-186.7-0.7
		c-1.3,0-100.2-4.5-109-4.5c-4.6,0-11.1-4.4-11.1-6.1c0-1.7-0.2-4.1-0.1-5.2c0.1-1.1,0.9-2.3,1.5-2.6c0.7-0.3,4.6-0.7,4.5-2.6
		c0-0.9-0.4-5.1-0.6-6.2c-1.8-21.8-0.5-44.8,0-52.9c0.1-5.5,3.5-46.3,15-75.1c0.8-1.9,0.7-8.7,1.5-9.6c0.9-0.8,9.1-4.6,20.4-5.6
		c3.2-0.2,15-0.7,21.9-0.7c0,0,90.8-1,111.1,0c9,0.4,18,0.7,26.9,1.2c11.7,0.7,23.4,1.6,35,3.4c10.7,1.7,21.6,3.9,31.7,8.3
		c7,3.1,13.8,6.9,20.5,10.7c6.1,3.5,11.9,7.4,17.6,11.6c8.3,6.1,16.2,12.8,23.7,20c1.8,1.7,3.6,3.8,5.7,5.2c1.8,1.4,5.3,3,9.4,4.7
		c4.1,1.7,11,2.5,21.3,4.6c9.1,2,23.1,2,40,10.2c10.4,5.1,24.3,13.3,28.7,30.7c0.1,3.2,1.1,8.6,2.4,11.3c1.3,2.6,3.1,5,3.1,10.7
		c0,5.6-0.5,9.9-0.7,11.8c-0.2,2-3.6,2.4-4.1,3.3c-0.5,0.7-1.5,4.9-1.5,6.3c0,1.5-0.8,5.7,1.5,6.4c2.4,0.7,3.8,2.8,2.4,3.2
		C255.7,191,240.5,197.1,235.2,197.2z"/>
	<path class="st3" d="M137.3,93.4c0,0-114.5,0-114.5,0c0-5.5,0-13.5,0-18.9c0-5.7,0-11.3,0-17c0-2.5,0.1-5,0-7.5
		c-0.1-1.3-0.8-4.1,1.2-4.4c1.6-0.2,3.2-0.1,4.8,0c4.5,0.2,9,0.5,13.5,0.9c2.2,0.2,4.4,0.4,6.6,0.6c7.4,0.8,14.9,1.7,22.1,3.7
		c7.3,2.1,14,5.8,20.5,9.8c12.2,7.7,24.6,15.4,36,24.3C130,86.8,135,91.3,137.3,93.4z"/>
	<path class="st3" d="M224.9,109.6c-2.3,4.9-6.4,11.7-1.4,16.4c6.4,6,19.2,3.8,27.2,3.8"/>
	<path class="st2" d="M166.2,231.9c-17.8,0-32.3-14.4-32.3-32.3c0-17.8,14.4-32.3,32.3-32.3c17.8,0,32.3,14.4,32.3,32.3
		C198.5,217.5,184,231.9,166.2,231.9L166.2,231.9z"/>
	<path class="st2" d="M166.2,223.1c-13,0-23.4-10.5-23.4-23.4c0-12.9,10.5-23.4,23.4-23.4c12.9,0,23.4,10.5,23.4,23.4
		C189.7,212.6,179.2,223.1,166.2,223.1L166.2,223.1z"/>
	<path class="st2" d="M166.2,207.1c-4.1,0-7.5-3.4-7.5-7.5c0-4.1,3.4-7.5,7.5-7.5c4.1,0,7.5,3.4,7.5,7.5
		C173.7,203.8,170.4,207.1,166.2,207.1L166.2,207.1z"/>
	<g class="st4">
		<line class="st5" x1="61.2" y1="59" x2="35.7" y2="77"/>
		<line class="st5" x1="63.5" y1="71.2" x2="55.8" y2="77"/>
	</g>
	<path class="st1" d="M22.7,89.5v71.2c0,7.1,6,12.9,13.3,12.9H112c3.5,0,6.9-1.4,9.4-3.8l12-11.6c2.5-2.4,3.9-5.7,3.9-9.1V93.4"/>
	<path class="st2" d="M48.5,110.1c-0.4-2.7-2.7-4.7-5.5-4.7h-5.2c-2.4,0-4.4,1.5-5.2,3.6l-0.3,5.2c0.3,2.8,2.6,5.1,5.5,5.1H43
		c2.6,0,4.9-1.9,5.4-4.3L48.5,110.1z"/>
	<path class="st2" d="M104.1,86.3c1-4.9,7-8.8,11.8-7.1c8.9,3,14.6,8,17.4,14.6c0.2,0.6,0.1,1.2-0.3,1.6c-5.1,4.8-10.7,5.6-20.1,4.8
		C107.9,99.8,103.1,91.2,104.1,86.3L104.1,86.3z"/>
</g>
<circle class="st6" cx="108.4" cy="109.1" r="104.9"/>
<g>
	<path class="st7" d="M96.4,83.4c8.9-7.5,20.5-12,33-12c28.5,0,51.5,23.1,51.5,51.5s-23.1,51.5-51.5,51.5c-26,0-47.5-19.3-51-44.3"
		/>
	<path class="st8" d="M104.4,85.8c7.2-4.8,15.8-7.7,25.1-7.7c24.8,0,44.8,20.1,44.8,44.8s-20.1,44.8-44.8,44.8S84.6,147.8,84.6,123"
		/>
	<circle class="st9" cx="129.5" cy="88" r="1.5"/>
	<circle class="st9" cx="129.5" cy="159.8" r="1.5"/>
	<circle class="st9" cx="165.7" cy="123" r="1.5"/>
	<polyline class="st6" points="129.7,97.5 129.7,123.8 149.6,124 	"/>
	<path class="st10" d="M130.4,136.4C130.4,136.4,130.4,136.4,130.4,136.4c-1.6,2.5-3.2,4.9-4.8,7.4c1,0,2,0.1,3.1,0.1
		c0,1.5-0.1,3-0.1,4.5c0,0,0,0,0,0c1.6-2.5,3.1-4.9,4.7-7.5c-1,0-2-0.1-3-0.1C130.3,139.4,130.3,137.9,130.4,136.4z"/>
	<g>
		<path class="st7" d="M86.2,99.6c0,0-9.7,21.9-9.7,21.9c-2,4.5-9.7,8.1-16.6,5.9c-4.1-1.3-8.6-0.8-11.5,1.3
			c-5.9,4.4-7.5,12.2-10.1,18.2c-2.6,5.9,5.1,14.1,14.4,14.1c11.6,0,19.6-9.2,25.2-15.2c7-7.5,12.2-16,16.1-24.8
			c2.5-5.5,4.9-11.1,7.4-16.6"/>
		<path class="st7" d="M85.8,100.5c0,0,9.7-21.9,9.7-21.9c2-4.5-1-11.4-7.9-13.6c-4.1-1.3-7.1-4.2-7.6-7.3
			c-1.1-6.6,3.9-13.4,6.6-19.3c2.6-5.9,14.8-7.8,21.8-2.6c8.7,6.4,7.6,17.9,7.2,25.4c-0.6,9.6-3.3,18.8-7.2,27.6
			c-2.5,5.5-4.9,11.1-7.4,16.6"/>
	</g>
</g>
<path class="st6" d="M49.7,109.7c-4.3-8.3-4.7-17.9-0.3-25.9c4.5-8.1,12.9-12.9,22.3-13.6"/>
<path class="st6" d="M58.9,111.7c-4.3-7-5-15.4-1.2-22.3c3.7-6.8,10.9-10.6,18.8-10.9"/>
<path class="st6" d="M40.5,110.2c-5.2-10-5.7-21.5-0.4-31.2c5.4-9.8,15.5-15.5,26.8-16.4"/>
</svg>
