<?xml version="1.0" encoding="utf-8"?>
<!-- Generator: Adobe Illustrator 21.0.2, SVG Export Plug-In . SVG Version: 6.00 Build 0)  -->
<svg version="1.1" id="Layer_1" xmlns="http://www.w3.org/2000/svg" xmlns:xlink="http://www.w3.org/1999/xlink" x="0px" y="0px"
	 viewBox="0 0 291 172" style="enable-background:new 0 0 291 172;" xml:space="preserve">
<style type="text/css">
	.st0{fill:#E7E6E6;}
	.st1{fill:none;stroke:#4D4D4D;stroke-width:0.75;stroke-linecap:round;stroke-miterlimit:10;}
	.st2{fill:#E6E6E6;}
	.st3{fill:#8CC63F;stroke:#333333;stroke-width:0.75;stroke-miterlimit:10;}
	.st4{fill:none;stroke:#89BD49;stroke-width:0.75;stroke-linecap:round;stroke-miterlimit:10;}
	.st5{fill:#E6E6E6;stroke:#333333;stroke-width:0.75;stroke-miterlimit:10;}
	.st6{fill:none;stroke:#333333;stroke-width:0.75;}
	.st7{fill:#F8F8F8;stroke:#333333;stroke-width:0.75;stroke-miterlimit:10;}
	.st8{fill:none;stroke:#333333;stroke-width:0.75;stroke-linecap:round;stroke-miterlimit:10;}
	.st9{fill:#ECECEC;stroke:#333333;stroke-width:0.75;stroke-miterlimit:10;}
	.st10{fill:none;stroke:#4D4D4D;stroke-width:0.75;}
	.st11{fill:#FFFFFF;stroke:#333333;stroke-width:0.75;}
	.st12{fill:#6F6F6E;stroke:#333333;stroke-width:0.75;stroke-miterlimit:10;}
	.st13{fill:#CCCCCC;stroke:#333333;stroke-width:0.75;stroke-miterlimit:10;}
	.st14{fill:none;stroke:#999999;stroke-width:0.75;stroke-linecap:round;stroke-miterlimit:10;}
	.st15{fill:#333333;}
	.st16{fill:#8CC03F;}
	.st17{fill:none;stroke:#333333;stroke-width:0.75;stroke-linecap:round;}
	.st18{fill:#8CC63F;stroke:#333333;stroke-width:0.75;stroke-linecap:round;stroke-miterlimit:10;}
	.st19{fill:#E6E6E6;stroke:#4D4D4D;stroke-width:0.75;stroke-miterlimit:10;}
	.st20{fill:none;stroke:#333333;stroke-width:0.75;stroke-miterlimit:10;}
	.st21{fill:none;stroke:#FFFFFF;stroke-width:0.75;stroke-linecap:round;stroke-miterlimit:10;}
	.st22{fill:#808080;}
	.st23{fill:#8CC63F;stroke:#4D4D4D;stroke-width:0.75;stroke-linecap:round;stroke-miterlimit:10;}
	.st24{fill:#B3B3B3;stroke:#333333;stroke-width:0.75;stroke-miterlimit:10;}
	.st25{fill:none;stroke:#FFFFFF;stroke-width:0.75;stroke-linecap:round;stroke-miterlimit:10;stroke-dasharray:5.9634,6.9573;}
	.st26{fill:#F8F8F8;stroke:#F8F8F8;stroke-width:0.75;stroke-miterlimit:10;}
	.st27{fill:#F8F8F8;stroke:#F8F8F8;stroke-width:0.75;stroke-linecap:round;stroke-miterlimit:10;}
	.st28{opacity:0.43;fill:#B1B1B1;stroke:#333333;stroke-width:0.75;}
	.st29{opacity:0.43;fill:#B1B1B1;stroke:#333333;stroke-width:0.75;stroke-linecap:round;}
	.st30{fill:#8CBF47;stroke:#333333;stroke-width:0.75;stroke-miterlimit:10;}
	.st31{fill:#FFFFFF;stroke:#333333;stroke-width:0.75;stroke-miterlimit:10;}
	.st32{fill:none;stroke:#333333;stroke-width:0.75;stroke-linecap:round;stroke-linejoin:round;}
	.st33{fill-rule:evenodd;clip-rule:evenodd;fill:#262529;stroke:#333333;stroke-width:0.75;}
	
		.st34{fill-rule:evenodd;clip-rule:evenodd;fill:#E6E6E6;stroke:#333333;stroke-width:0.75;stroke-linecap:round;stroke-linejoin:round;}
	
		.st35{fill-rule:evenodd;clip-rule:evenodd;fill:#8CC63F;stroke:#333333;stroke-width:0.75;stroke-linecap:round;stroke-linejoin:round;}
	
		.st36{fill-rule:evenodd;clip-rule:evenodd;fill:none;stroke:#333333;stroke-width:0.75;stroke-linecap:round;stroke-linejoin:round;}
	.st37{fill:none;stroke:#CCCCCC;stroke-width:0.75;stroke-linecap:round;stroke-miterlimit:10;}
</style>
<path class="st0" d="M86.3,12.6c0,0.3-0.1,0.6-0.2,0.9c0,0,0,0.1-0.1,0.1l-12,0c-0.1-0.3-0.2-0.7-0.2-1.1c0-1.7,1.5-3,3.3-3
	c0.1,0,0.1,0,0.2,0l0,0c0.5-1.2,1.8-2.1,3.3-2.1c1.7,0,3.2,1.1,3.5,2.6c0,0,0.1,0,0.1,0c0.4,0.1,0.7,0.3,1,0.5
	c0.3,0.3,0.6,0.6,0.7,0.9C86.2,11.9,86.3,12.3,86.3,12.6z"/>
<g>
	<path class="st1" d="M5,5.6c0.5-0.2,1.1-0.4,1.6-0.4c1-0.1,1.6,0.4,2.4,1c0.1,0.1,0.3,0,0.3-0.1c0.2-0.5,0.4-1,0.8-1.5
		c0.4-0.5,1.1-0.6,1.6-0.8"/>
	<path class="st1" d="M7.7,5.3c0.6,0.2,0.8,0.6,1.3,1c0.1,0.1,0.3,0.1,0.4-0.1c0.2-0.5,0.3-1,0.6-1.4"/>
</g>
<g>
	<path class="st1" d="M255.5,9.3c0.4,0.1,0.8,0.1,1.2,0.3c0.6,0.4,0.8,1.1,0.9,1.9c0,0.1,0.1,0.2,0.2,0.1c0.4-0.3,0.8-0.7,1.3-0.9
		c0.5-0.2,0.9,0,1.4,0.1"/>
	<path class="st1" d="M257.2,10.2c0.2,0.4,0.2,0.9,0.3,1.4c0,0.1,0.2,0.2,0.3,0.1c0.3-0.3,0.7-0.7,1.1-1"/>
</g>
<g>
	<path class="st1" d="M19.4,13.1c0.5,0,1-0.1,1.5,0c0.8,0.2,1.3,1,1.7,1.8c0.1,0.1,0.2,0.1,0.3,0c0.3-0.5,0.7-1,1.2-1.3
		c0.5-0.4,1.1-0.3,1.6-0.3"/>
	<path class="st1" d="M21.7,13.6c0.4,0.4,0.5,0.9,0.8,1.4c0.1,0.2,0.3,0.2,0.4,0c0.3-0.4,0.5-1,1-1.4"/>
</g>
<path class="st0" d="M249.4,54.3c0,0.4-0.1,0.8-0.2,1.2l-0.1,0.2l-16,0c-0.2-0.4-0.3-0.9-0.3-1.4c0-2.2,2-4,4.4-4c0.1,0,0.2,0,0.3,0
	l0,0c0.7-1.7,2.4-2.8,4.4-2.8c2.3,0,4.2,1.5,4.6,3.5c0,0,0.2,0,0.2,0c0.5,0.1,0.9,0.4,1.3,0.7c0.4,0.3,0.8,0.8,1,1.3
	C249.3,53.4,249.4,53.9,249.4,54.3"/>
<path class="st0" d="M255.2,54.4c0.5,0.1,0.9,0.6,0.9,1.2c0,0,0,0.1,0,0.1h-5.1c0-0.5,0.4-0.7,0.4-0.7c0-0.5,0.4-1,1-0.9h0
	c0.2-0.5,0.7-0.9,1.3-0.9C254.5,53.3,255.1,53.8,255.2,54.4"/>
<path class="st0" d="M258.2,55.7h2.2c0.2,0,0.4-0.2,0.4-0.4c0-0.2-0.2-0.4-0.4-0.4h-2.2c-0.2,0-0.4,0.2-0.4,0.4
	C257.8,55.5,258,55.7,258.2,55.7"/>
<path class="st0" d="M281.8,55.7h2.2c0.2,0,0.4-0.2,0.4-0.4c0-0.2-0.2-0.4-0.4-0.4h-2.2c-0.2,0-0.4,0.2-0.4,0.4
	C281.4,55.5,281.6,55.7,281.8,55.7"/>
<path class="st0" d="M48,39.5c1.8,0.5,3.1,2.1,3.1,4c0,0.1,0,0.3,0,0.4l-17.6,0c-0.1-1.7,1.3-2.3,1.3-2.3c-0.1-1.9,1.4-3.4,3.6-3.2
	h0.1c0.8-1.8,2.5-3,4.6-3C45.5,35.4,47.6,37.1,48,39.5"/>
<path class="st0" d="M29.7,42.3c0.7,0.2,1.2,0.8,1.2,1.5c0,0.1,0,0.1,0,0.2l-6.7,0c0-0.7,0.5-0.9,0.5-0.9c0-0.7,0.5-1.3,1.4-1.2h0
	c0.3-0.7,1-1.2,1.7-1.2C28.8,40.7,29.6,41.4,29.7,42.3"/>
<path class="st0" d="M53.4,44.1h8.2c0.2,0,0.4-0.2,0.4-0.4c0-0.2-0.2-0.4-0.4-0.4h-8.2c-0.2,0-0.4,0.2-0.4,0.4
	C53,43.9,53.1,44.1,53.4,44.1"/>
<path class="st0" d="M20.1,44.1h2c0.2,0,0.4-0.2,0.4-0.4c0-0.2-0.2-0.4-0.4-0.4h-2c-0.2,0-0.4,0.2-0.4,0.4
	C19.7,43.9,19.9,44.1,20.1,44.1"/>
<path class="st0" d="M108.8,60.5c0,0.4-0.1,0.9-0.2,1.3l-0.1,0.2l-16.9,0c-0.2-0.5-0.3-1-0.3-1.5c0-2.3,2.1-4.2,4.7-4.2
	c0.1,0,0.2,0,0.3,0l0,0c0.7-1.7,2.5-3,4.7-3c2.4,0,4.4,1.6,4.9,3.6c0,0,0.2,0,0.2,0.1c0.5,0.1,1,0.4,1.4,0.7c0.5,0.4,0.8,0.8,1,1.3
	C108.6,59.5,108.8,60,108.8,60.5"/>
<path class="st0" d="M200.8,80.8c0.6,0.2,1.1,0.7,1.1,1.4c0,0.1,0,0.1,0,0.2h-6c0-0.6,0.4-0.8,0.4-0.8c0-0.6,0.5-1.1,1.2-1.1h0
	c0.3-0.6,0.9-1,1.5-1C200,79.4,200.7,80,200.8,80.8"/>
<path class="st0" d="M204.3,82.2h2.6c0.3,0,0.5-0.2,0.5-0.5c0-0.3-0.2-0.5-0.5-0.5h-2.6c-0.3,0-0.5,0.2-0.5,0.5
	C203.8,82,204,82.2,204.3,82.2"/>
<path class="st0" d="M86.7,61.7h2c0.2,0,0.4-0.2,0.4-0.4c0-0.2-0.2-0.4-0.4-0.4h-2c-0.2,0-0.4,0.2-0.4,0.4
	C86.3,61.5,86.5,61.7,86.7,61.7"/>
<path class="st2" d="M198.4,9.2c-1.4,0.4-2.4,1.6-2.4,3.1c0,0.1,0,0.2,0,0.3l13.5,0c0.1-1.3-1-1.8-1-1.8c0-1.5-1.1-2.6-2.8-2.5h0
	c-0.6-1.3-1.9-2.3-3.5-2.3C200.3,6.1,198.7,7.4,198.4,9.2"/>
<path class="st2" d="M211.7,12.8h6.3c0.2,0,0.3-0.1,0.3-0.3c0-0.2-0.1-0.3-0.3-0.3h-6.3c-0.2,0-0.3,0.1-0.3,0.3
	C211.4,12.6,211.6,12.8,211.7,12.8"/>
<path class="st2" d="M186.2,12.8h1.6c0.2,0,0.3-0.1,0.3-0.3c0-0.2-0.1-0.3-0.3-0.3h-1.6c-0.2,0-0.3,0.1-0.3,0.3
	C185.9,12.7,186,12.8,186.2,12.8"/>
<polyline class="st3" points="182.4,139.6 182.4,66.2 103,66.1 103,66.8 103,139.7 "/>
<g>
	<g>
		<line class="st4" x1="103" y1="106.6" x2="146.5" y2="106.5"/>
		<line class="st4" x1="102.9" y1="103" x2="146.4" y2="102.9"/>
		<line class="st4" x1="108.3" y1="106.4" x2="108.3" y2="103.1"/>
		<line class="st4" x1="113.9" y1="106.4" x2="113.9" y2="103.1"/>
		<line class="st4" x1="119.2" y1="106.4" x2="119.2" y2="103.1"/>
		<line class="st4" x1="124.7" y1="106.4" x2="124.7" y2="103.1"/>
		<line class="st4" x1="130.1" y1="106.4" x2="130.1" y2="103.1"/>
		<line class="st4" x1="135.6" y1="106.4" x2="135.6" y2="103.1"/>
		<line class="st4" x1="141.1" y1="106.4" x2="141.1" y2="103.1"/>
		<line class="st4" x1="103" y1="110.3" x2="146.4" y2="110.2"/>
		<line class="st4" x1="105.6" y1="110.1" x2="105.6" y2="106.8"/>
		<line class="st4" x1="111.1" y1="110.1" x2="111.1" y2="106.8"/>
		<line class="st4" x1="116.4" y1="110.1" x2="116.4" y2="106.8"/>
		<line class="st4" x1="122" y1="110.1" x2="122" y2="106.8"/>
		<line class="st4" x1="127.3" y1="110.1" x2="127.3" y2="106.8"/>
		<line class="st4" x1="132.9" y1="110.1" x2="132.9" y2="106.8"/>
		<line class="st4" x1="138.4" y1="110.1" x2="138.4" y2="106.8"/>
		<line class="st4" x1="144.1" y1="110.1" x2="144.1" y2="106.8"/>
		<line class="st4" x1="103" y1="114" x2="146.5" y2="113.9"/>
		<line class="st4" x1="108.4" y1="113.9" x2="108.4" y2="110.6"/>
		<line class="st4" x1="113.9" y1="113.9" x2="113.9" y2="110.6"/>
		<line class="st4" x1="119.2" y1="113.9" x2="119.2" y2="110.6"/>
		<line class="st4" x1="124.7" y1="113.9" x2="124.7" y2="110.6"/>
		<line class="st4" x1="130.1" y1="113.9" x2="130.1" y2="110.6"/>
		<line class="st4" x1="135.6" y1="113.9" x2="135.6" y2="110.6"/>
		<line class="st4" x1="141.2" y1="113.9" x2="141.2" y2="110.6"/>
		<line class="st4" x1="103.1" y1="117.7" x2="146.5" y2="117.6"/>
		<line class="st4" x1="105.6" y1="117.6" x2="105.6" y2="114.3"/>
		<line class="st4" x1="111.2" y1="117.6" x2="111.2" y2="114.3"/>
		<line class="st4" x1="116.5" y1="117.6" x2="116.5" y2="114.3"/>
		<line class="st4" x1="122" y1="117.6" x2="122" y2="114.3"/>
		<line class="st4" x1="127.4" y1="117.6" x2="127.4" y2="114.3"/>
		<line class="st4" x1="132.9" y1="117.6" x2="132.9" y2="114.3"/>
		<line class="st4" x1="138.4" y1="117.6" x2="138.4" y2="114.3"/>
		<line class="st4" x1="144.1" y1="117.6" x2="144.1" y2="114.3"/>
		<line class="st4" x1="103.2" y1="121.3" x2="146.7" y2="121.2"/>
		<line class="st4" x1="108.6" y1="121.1" x2="108.6" y2="117.9"/>
		<line class="st4" x1="114.1" y1="121.1" x2="114.1" y2="117.9"/>
		<line class="st4" x1="119.4" y1="121.1" x2="119.4" y2="117.9"/>
		<line class="st4" x1="124.9" y1="121.1" x2="124.9" y2="117.9"/>
		<line class="st4" x1="130.3" y1="121.1" x2="130.3" y2="117.9"/>
		<line class="st4" x1="135.8" y1="121.1" x2="135.8" y2="117.9"/>
		<line class="st4" x1="141.3" y1="121.1" x2="141.3" y2="117.9"/>
		<line class="st4" x1="103.3" y1="125" x2="146.7" y2="124.9"/>
		<line class="st4" x1="105.8" y1="124.9" x2="105.8" y2="121.6"/>
		<line class="st4" x1="111.4" y1="124.9" x2="111.4" y2="121.6"/>
		<line class="st4" x1="116.7" y1="124.9" x2="116.7" y2="121.6"/>
		<line class="st4" x1="122.2" y1="124.9" x2="122.2" y2="121.6"/>
		<line class="st4" x1="127.6" y1="124.9" x2="127.6" y2="121.6"/>
		<line class="st4" x1="133.1" y1="124.9" x2="133.1" y2="121.6"/>
		<line class="st4" x1="138.6" y1="124.9" x2="138.6" y2="121.6"/>
		<line class="st4" x1="144.3" y1="124.9" x2="144.3" y2="121.6"/>
		<line class="st4" x1="103.2" y1="128.8" x2="146.7" y2="128.7"/>
		<line class="st4" x1="108.6" y1="128.6" x2="108.6" y2="125.3"/>
		<line class="st4" x1="114.1" y1="128.6" x2="114.1" y2="125.3"/>
		<line class="st4" x1="119.4" y1="128.6" x2="119.4" y2="125.3"/>
		<line class="st4" x1="125" y1="128.6" x2="125" y2="125.3"/>
		<line class="st4" x1="130.4" y1="128.6" x2="130.4" y2="125.3"/>
		<line class="st4" x1="135.9" y1="128.6" x2="135.9" y2="125.3"/>
		<line class="st4" x1="141.4" y1="128.6" x2="141.4" y2="125.3"/>
		<line class="st4" x1="103.3" y1="132.5" x2="146.7" y2="132.4"/>
		<line class="st4" x1="105.9" y1="132.3" x2="105.9" y2="129"/>
		<line class="st4" x1="111.4" y1="132.3" x2="111.4" y2="129"/>
		<line class="st4" x1="116.7" y1="132.3" x2="116.7" y2="129"/>
		<line class="st4" x1="122.2" y1="132.3" x2="122.2" y2="129"/>
		<line class="st4" x1="127.6" y1="132.3" x2="127.6" y2="129"/>
		<line class="st4" x1="133.1" y1="132.3" x2="133.1" y2="129"/>
		<line class="st4" x1="138.6" y1="132.3" x2="138.6" y2="129"/>
		<line class="st4" x1="144.4" y1="132.3" x2="144.4" y2="129"/>
		<line class="st4" x1="103.2" y1="135.9" x2="146.7" y2="135.8"/>
		<line class="st4" x1="108.6" y1="135.7" x2="108.6" y2="132.4"/>
		<line class="st4" x1="114.1" y1="135.7" x2="114.1" y2="132.4"/>
		<line class="st4" x1="119.4" y1="135.7" x2="119.4" y2="132.4"/>
		<line class="st4" x1="124.9" y1="135.7" x2="124.9" y2="132.4"/>
		<line class="st4" x1="130.3" y1="135.7" x2="130.3" y2="132.4"/>
		<line class="st4" x1="135.8" y1="135.7" x2="135.8" y2="132.4"/>
		<line class="st4" x1="141.3" y1="135.7" x2="141.3" y2="132.4"/>
		<line class="st4" x1="103.3" y1="139.6" x2="146.7" y2="139.5"/>
		<line class="st4" x1="105.8" y1="139.5" x2="105.8" y2="136.2"/>
		<line class="st4" x1="111.4" y1="139.5" x2="111.4" y2="136.2"/>
		<line class="st4" x1="116.7" y1="139.5" x2="116.7" y2="136.2"/>
		<line class="st4" x1="122.2" y1="139.5" x2="122.2" y2="136.2"/>
		<line class="st4" x1="127.6" y1="139.5" x2="127.6" y2="136.2"/>
		<line class="st4" x1="133.1" y1="139.5" x2="133.1" y2="136.2"/>
		<line class="st4" x1="138.6" y1="139.5" x2="138.6" y2="136.2"/>
		<line class="st4" x1="144.3" y1="139.5" x2="144.3" y2="136.2"/>
		<line class="st4" x1="146.5" y1="106.5" x2="182.1" y2="106.4"/>
		<line class="st4" x1="146.4" y1="102.9" x2="182.1" y2="102.8"/>
		<line class="st4" x1="152.5" y1="106.3" x2="152.5" y2="103"/>
		<line class="st4" x1="158" y1="106.3" x2="158" y2="103"/>
		<line class="st4" x1="163.3" y1="106.3" x2="163.3" y2="103"/>
		<line class="st4" x1="168.8" y1="106.3" x2="168.8" y2="103"/>
		<line class="st4" x1="174.2" y1="106.3" x2="174.2" y2="103"/>
		<line class="st4" x1="179.8" y1="106.3" x2="179.8" y2="103"/>
		<line class="st4" x1="146.4" y1="110.2" x2="182.1" y2="110.1"/>
		<line class="st4" x1="149.7" y1="110" x2="149.7" y2="106.8"/>
		<line class="st4" x1="155.3" y1="110" x2="155.3" y2="106.8"/>
		<line class="st4" x1="160.6" y1="110" x2="160.6" y2="106.8"/>
		<line class="st4" x1="166.1" y1="110" x2="166.1" y2="106.8"/>
		<line class="st4" x1="171.5" y1="110" x2="171.5" y2="106.8"/>
		<line class="st4" x1="177" y1="110" x2="177" y2="106.8"/>
		<line class="st4" x1="146.5" y1="113.9" x2="182.1" y2="113.9"/>
		<line class="st4" x1="152.5" y1="113.8" x2="152.5" y2="110.5"/>
		<line class="st4" x1="158" y1="113.8" x2="158" y2="110.5"/>
		<line class="st4" x1="163.4" y1="113.8" x2="163.4" y2="110.5"/>
		<line class="st4" x1="168.9" y1="113.8" x2="168.9" y2="110.5"/>
		<line class="st4" x1="174.3" y1="113.8" x2="174.3" y2="110.5"/>
		<line class="st4" x1="179.8" y1="113.8" x2="179.8" y2="110.5"/>
		<line class="st4" x1="146.5" y1="117.6" x2="182.1" y2="117.6"/>
		<line class="st4" x1="149.8" y1="117.5" x2="149.8" y2="114.2"/>
		<line class="st4" x1="155.3" y1="117.5" x2="155.3" y2="114.2"/>
		<line class="st4" x1="160.6" y1="117.5" x2="160.6" y2="114.2"/>
		<line class="st4" x1="166.1" y1="117.5" x2="166.1" y2="114.2"/>
		<line class="st4" x1="171.5" y1="117.5" x2="171.5" y2="114.2"/>
		<line class="st4" x1="177" y1="117.5" x2="177" y2="114.2"/>
		<line class="st4" x1="146.6" y1="121.2" x2="182.3" y2="121.1"/>
		<line class="st4" x1="152.7" y1="121.1" x2="152.7" y2="117.8"/>
		<line class="st4" x1="158.2" y1="121.1" x2="158.2" y2="117.8"/>
		<line class="st4" x1="163.6" y1="121.1" x2="163.6" y2="117.8"/>
		<line class="st4" x1="169.1" y1="121.1" x2="169.1" y2="117.8"/>
		<line class="st4" x1="174.5" y1="121.1" x2="174.5" y2="117.8"/>
		<line class="st4" x1="180" y1="121.1" x2="180" y2="117.8"/>
		<line class="st4" x1="146.6" y1="124.9" x2="182.3" y2="124.9"/>
		<line class="st4" x1="150" y1="124.8" x2="150" y2="121.5"/>
		<line class="st4" x1="155.5" y1="124.8" x2="155.5" y2="121.5"/>
		<line class="st4" x1="160.8" y1="124.8" x2="160.8" y2="121.5"/>
		<line class="st4" x1="166.3" y1="124.8" x2="166.3" y2="121.5"/>
		<line class="st4" x1="171.7" y1="124.8" x2="171.7" y2="121.5"/>
		<line class="st4" x1="177.2" y1="124.8" x2="177.2" y2="121.5"/>
		<line class="st4" x1="146.7" y1="128.7" x2="182.3" y2="128.6"/>
		<line class="st4" x1="152.8" y1="128.5" x2="152.8" y2="125.2"/>
		<line class="st4" x1="158.3" y1="128.5" x2="158.3" y2="125.2"/>
		<line class="st4" x1="163.6" y1="128.5" x2="163.6" y2="125.2"/>
		<line class="st4" x1="169.1" y1="128.5" x2="169.1" y2="125.2"/>
		<line class="st4" x1="174.5" y1="128.5" x2="174.5" y2="125.2"/>
		<line class="st4" x1="180" y1="128.5" x2="180" y2="125.2"/>
		<line class="st4" x1="146.7" y1="132.4" x2="182.3" y2="132.3"/>
		<line class="st4" x1="150" y1="132.3" x2="150" y2="129"/>
		<line class="st4" x1="155.5" y1="132.3" x2="155.5" y2="129"/>
		<line class="st4" x1="160.8" y1="132.3" x2="160.8" y2="129"/>
		<line class="st4" x1="166.4" y1="132.3" x2="166.4" y2="129"/>
		<line class="st4" x1="171.7" y1="132.3" x2="171.7" y2="129"/>
		<line class="st4" x1="177.3" y1="132.3" x2="177.3" y2="129"/>
		<line class="st4" x1="146.6" y1="135.8" x2="182.3" y2="135.7"/>
		<line class="st4" x1="152.7" y1="135.7" x2="152.7" y2="132.4"/>
		<line class="st4" x1="158.2" y1="135.7" x2="158.2" y2="132.4"/>
		<line class="st4" x1="163.6" y1="135.7" x2="163.6" y2="132.4"/>
		<line class="st4" x1="169.1" y1="135.7" x2="169.1" y2="132.4"/>
		<line class="st4" x1="174.5" y1="135.7" x2="174.5" y2="132.4"/>
		<line class="st4" x1="180" y1="135.7" x2="180" y2="132.4"/>
		<line class="st4" x1="146.6" y1="139.5" x2="182.3" y2="139.4"/>
		<line class="st4" x1="150" y1="139.4" x2="150" y2="136.1"/>
		<line class="st4" x1="155.5" y1="139.4" x2="155.5" y2="136.1"/>
		<line class="st4" x1="160.8" y1="139.4" x2="160.8" y2="136.1"/>
		<line class="st4" x1="166.3" y1="139.4" x2="166.3" y2="136.1"/>
		<line class="st4" x1="171.7" y1="139.4" x2="171.7" y2="136.1"/>
		<line class="st4" x1="177.2" y1="139.4" x2="177.2" y2="136.1"/>
		<line class="st4" x1="146.9" y1="106.3" x2="146.9" y2="103"/>
		<line class="st4" x1="147" y1="113.7" x2="147" y2="110.5"/>
		<line class="st4" x1="147.1" y1="121" x2="147.1" y2="117.7"/>
		<line class="st4" x1="147.2" y1="128.5" x2="147.2" y2="125.2"/>
		<line class="st4" x1="147.1" y1="135.6" x2="147.1" y2="132.3"/>
	</g>
	<line class="st4" x1="103" y1="69.9" x2="146.5" y2="69.8"/>
	<line class="st4" x1="103" y1="66.3" x2="146.5" y2="66.2"/>
	<line class="st4" x1="108.4" y1="69.7" x2="108.4" y2="66.4"/>
	<line class="st4" x1="113.9" y1="69.7" x2="113.9" y2="66.4"/>
	<line class="st4" x1="119.3" y1="69.7" x2="119.3" y2="66.4"/>
	<line class="st4" x1="124.8" y1="69.7" x2="124.8" y2="66.4"/>
	<line class="st4" x1="130.2" y1="69.7" x2="130.2" y2="66.4"/>
	<line class="st4" x1="135.7" y1="69.7" x2="135.7" y2="66.4"/>
	<line class="st4" x1="141.2" y1="69.7" x2="141.2" y2="66.4"/>
	<line class="st4" x1="103.1" y1="73.6" x2="146.5" y2="73.5"/>
	<line class="st4" x1="105.7" y1="73.5" x2="105.7" y2="70.2"/>
	<line class="st4" x1="111.2" y1="73.5" x2="111.2" y2="70.2"/>
	<line class="st4" x1="116.5" y1="73.5" x2="116.5" y2="70.2"/>
	<line class="st4" x1="122" y1="73.5" x2="122" y2="70.2"/>
	<line class="st4" x1="127.4" y1="73.5" x2="127.4" y2="70.2"/>
	<line class="st4" x1="132.9" y1="73.5" x2="132.9" y2="70.2"/>
	<line class="st4" x1="138.4" y1="73.5" x2="138.4" y2="70.2"/>
	<line class="st4" x1="144.2" y1="73.5" x2="144.2" y2="70.2"/>
	<line class="st4" x1="103.1" y1="77.4" x2="146.6" y2="77.3"/>
	<line class="st4" x1="108.5" y1="77.2" x2="108.5" y2="73.9"/>
	<line class="st4" x1="114" y1="77.2" x2="114" y2="73.9"/>
	<line class="st4" x1="119.3" y1="77.2" x2="119.3" y2="73.9"/>
	<line class="st4" x1="124.8" y1="77.2" x2="124.8" y2="73.9"/>
	<line class="st4" x1="130.2" y1="77.2" x2="130.2" y2="73.9"/>
	<line class="st4" x1="135.7" y1="77.2" x2="135.7" y2="73.9"/>
	<line class="st4" x1="141.2" y1="77.2" x2="141.2" y2="73.9"/>
	<line class="st4" x1="103.1" y1="81.1" x2="146.5" y2="81"/>
	<line class="st4" x1="105.7" y1="80.9" x2="105.7" y2="77.6"/>
	<line class="st4" x1="111.2" y1="80.9" x2="111.2" y2="77.6"/>
	<line class="st4" x1="116.5" y1="80.9" x2="116.5" y2="77.6"/>
	<line class="st4" x1="122.1" y1="80.9" x2="122.1" y2="77.6"/>
	<line class="st4" x1="127.4" y1="80.9" x2="127.4" y2="77.6"/>
	<line class="st4" x1="133" y1="80.9" x2="133" y2="77.6"/>
	<line class="st4" x1="138.5" y1="80.9" x2="138.5" y2="77.6"/>
	<line class="st4" x1="144.2" y1="80.9" x2="144.2" y2="77.6"/>
	<line class="st4" x1="103.3" y1="84.6" x2="146.8" y2="84.5"/>
	<line class="st4" x1="108.6" y1="84.5" x2="108.6" y2="81.2"/>
	<line class="st4" x1="114.2" y1="84.5" x2="114.2" y2="81.2"/>
	<line class="st4" x1="119.5" y1="84.5" x2="119.5" y2="81.2"/>
	<line class="st4" x1="125" y1="84.5" x2="125" y2="81.2"/>
	<line class="st4" x1="130.4" y1="84.5" x2="130.4" y2="81.2"/>
	<line class="st4" x1="135.9" y1="84.5" x2="135.9" y2="81.2"/>
	<line class="st4" x1="141.4" y1="84.5" x2="141.4" y2="81.2"/>
	<line class="st4" x1="103.3" y1="88.4" x2="146.7" y2="88.3"/>
	<line class="st4" x1="105.9" y1="88.2" x2="105.9" y2="84.9"/>
	<line class="st4" x1="111.4" y1="88.2" x2="111.4" y2="84.9"/>
	<line class="st4" x1="116.7" y1="88.2" x2="116.7" y2="84.9"/>
	<line class="st4" x1="122.3" y1="88.2" x2="122.3" y2="84.9"/>
	<line class="st4" x1="127.6" y1="88.2" x2="127.6" y2="84.9"/>
	<line class="st4" x1="133.2" y1="88.2" x2="133.2" y2="84.9"/>
	<line class="st4" x1="138.7" y1="88.2" x2="138.7" y2="84.9"/>
	<line class="st4" x1="144.4" y1="88.2" x2="144.4" y2="84.9"/>
	<line class="st4" x1="103.3" y1="92.1" x2="146.8" y2="92"/>
	<line class="st4" x1="108.7" y1="91.9" x2="108.7" y2="88.7"/>
	<line class="st4" x1="114.2" y1="91.9" x2="114.2" y2="88.7"/>
	<line class="st4" x1="119.5" y1="91.9" x2="119.5" y2="88.7"/>
	<line class="st4" x1="125" y1="91.9" x2="125" y2="88.7"/>
	<line class="st4" x1="130.4" y1="91.9" x2="130.4" y2="88.7"/>
	<line class="st4" x1="135.9" y1="91.9" x2="135.9" y2="88.7"/>
	<line class="st4" x1="141.5" y1="91.9" x2="141.5" y2="88.7"/>
	<line class="st4" x1="103.4" y1="95.8" x2="146.8" y2="95.7"/>
	<line class="st4" x1="105.9" y1="95.7" x2="105.9" y2="92.4"/>
	<line class="st4" x1="111.5" y1="95.7" x2="111.5" y2="92.4"/>
	<line class="st4" x1="116.8" y1="95.7" x2="116.8" y2="92.4"/>
	<line class="st4" x1="122.3" y1="95.7" x2="122.3" y2="92.4"/>
	<line class="st4" x1="127.7" y1="95.7" x2="127.7" y2="92.4"/>
	<line class="st4" x1="133.2" y1="95.7" x2="133.2" y2="92.4"/>
	<line class="st4" x1="138.7" y1="95.7" x2="138.7" y2="92.4"/>
	<line class="st4" x1="144.4" y1="95.7" x2="144.4" y2="92.4"/>
	<line class="st4" x1="103.3" y1="99.2" x2="146.8" y2="99.1"/>
	<line class="st4" x1="108.6" y1="99.1" x2="108.6" y2="95.8"/>
	<line class="st4" x1="114.2" y1="99.1" x2="114.2" y2="95.8"/>
	<line class="st4" x1="119.5" y1="99.1" x2="119.5" y2="95.8"/>
	<line class="st4" x1="125" y1="99.1" x2="125" y2="95.8"/>
	<line class="st4" x1="130.4" y1="99.1" x2="130.4" y2="95.8"/>
	<line class="st4" x1="135.9" y1="99.1" x2="135.9" y2="95.8"/>
	<line class="st4" x1="141.4" y1="99.1" x2="141.4" y2="95.8"/>
	<line class="st4" x1="105.9" y1="102.8" x2="105.9" y2="99.5"/>
	<line class="st4" x1="111.4" y1="102.8" x2="111.4" y2="99.5"/>
	<line class="st4" x1="116.7" y1="102.8" x2="116.7" y2="99.5"/>
	<line class="st4" x1="122.3" y1="102.8" x2="122.3" y2="99.5"/>
	<line class="st4" x1="127.6" y1="102.8" x2="127.6" y2="99.5"/>
	<line class="st4" x1="133.2" y1="102.8" x2="133.2" y2="99.5"/>
	<line class="st4" x1="138.7" y1="102.8" x2="138.7" y2="99.5"/>
	<line class="st4" x1="144.4" y1="102.8" x2="144.4" y2="99.5"/>
	<line class="st4" x1="146.5" y1="69.8" x2="182.2" y2="69.7"/>
	<line class="st4" x1="146.5" y1="66.2" x2="182.2" y2="66.1"/>
	<line class="st4" x1="152.6" y1="69.7" x2="152.6" y2="66.4"/>
	<line class="st4" x1="158.1" y1="69.7" x2="158.1" y2="66.4"/>
	<line class="st4" x1="163.4" y1="69.7" x2="163.4" y2="66.4"/>
	<line class="st4" x1="168.9" y1="69.7" x2="168.9" y2="66.4"/>
	<line class="st4" x1="174.3" y1="69.7" x2="174.3" y2="66.4"/>
	<line class="st4" x1="179.8" y1="69.7" x2="179.8" y2="66.4"/>
	<line class="st4" x1="146.5" y1="73.5" x2="182.2" y2="73.4"/>
	<line class="st4" x1="149.8" y1="73.4" x2="149.8" y2="70.1"/>
	<line class="st4" x1="155.3" y1="73.4" x2="155.3" y2="70.1"/>
	<line class="st4" x1="160.6" y1="73.4" x2="160.6" y2="70.1"/>
	<line class="st4" x1="166.2" y1="73.4" x2="166.2" y2="70.1"/>
	<line class="st4" x1="171.6" y1="73.4" x2="171.6" y2="70.1"/>
	<line class="st4" x1="177.1" y1="73.4" x2="177.1" y2="70.1"/>
	<line class="st4" x1="146.5" y1="77.3" x2="182.2" y2="77.2"/>
	<line class="st4" x1="152.6" y1="77.1" x2="152.6" y2="73.8"/>
	<line class="st4" x1="158.1" y1="77.1" x2="158.1" y2="73.8"/>
	<line class="st4" x1="163.4" y1="77.1" x2="163.4" y2="73.8"/>
	<line class="st4" x1="168.9" y1="77.1" x2="168.9" y2="73.8"/>
	<line class="st4" x1="174.3" y1="77.1" x2="174.3" y2="73.8"/>
	<line class="st4" x1="179.9" y1="77.1" x2="179.9" y2="73.8"/>
	<line class="st4" x1="146.5" y1="81" x2="182.2" y2="80.9"/>
	<line class="st4" x1="149.8" y1="80.8" x2="149.8" y2="77.6"/>
	<line class="st4" x1="155.4" y1="80.8" x2="155.4" y2="77.6"/>
	<line class="st4" x1="160.7" y1="80.8" x2="160.7" y2="77.6"/>
	<line class="st4" x1="166.2" y1="80.8" x2="166.2" y2="77.6"/>
	<line class="st4" x1="171.6" y1="80.8" x2="171.6" y2="77.6"/>
	<line class="st4" x1="177.1" y1="80.8" x2="177.1" y2="77.6"/>
	<line class="st4" x1="146.7" y1="84.5" x2="182.4" y2="84.5"/>
	<line class="st4" x1="152.8" y1="84.4" x2="152.8" y2="81.1"/>
	<line class="st4" x1="158.3" y1="84.4" x2="158.3" y2="81.1"/>
	<line class="st4" x1="163.6" y1="84.4" x2="163.6" y2="81.1"/>
	<line class="st4" x1="169.1" y1="84.4" x2="169.1" y2="81.1"/>
	<line class="st4" x1="174.5" y1="84.4" x2="174.5" y2="81.1"/>
	<line class="st4" x1="180" y1="84.4" x2="180" y2="81.1"/>
	<line class="st4" x1="146.7" y1="88.3" x2="182.4" y2="88.2"/>
	<line class="st4" x1="150" y1="88.1" x2="150" y2="84.8"/>
	<line class="st4" x1="155.6" y1="88.1" x2="155.6" y2="84.8"/>
	<line class="st4" x1="160.9" y1="88.1" x2="160.9" y2="84.8"/>
	<line class="st4" x1="166.4" y1="88.1" x2="166.4" y2="84.8"/>
	<line class="st4" x1="171.8" y1="88.1" x2="171.8" y2="84.8"/>
	<line class="st4" x1="177.3" y1="88.1" x2="177.3" y2="84.8"/>
	<line class="st4" x1="146.7" y1="92" x2="182.4" y2="91.9"/>
	<line class="st4" x1="152.8" y1="91.9" x2="152.8" y2="88.6"/>
	<line class="st4" x1="158.3" y1="91.9" x2="158.3" y2="88.6"/>
	<line class="st4" x1="163.7" y1="91.9" x2="163.7" y2="88.6"/>
	<line class="st4" x1="169.2" y1="91.9" x2="169.2" y2="88.6"/>
	<line class="st4" x1="174.6" y1="91.9" x2="174.6" y2="88.6"/>
	<line class="st4" x1="180.1" y1="91.9" x2="180.1" y2="88.6"/>
	<line class="st4" x1="146.7" y1="95.7" x2="182.4" y2="95.7"/>
	<line class="st4" x1="150.1" y1="95.6" x2="150.1" y2="92.3"/>
	<line class="st4" x1="155.6" y1="95.6" x2="155.6" y2="92.3"/>
	<line class="st4" x1="160.9" y1="95.6" x2="160.9" y2="92.3"/>
	<line class="st4" x1="166.4" y1="95.6" x2="166.4" y2="92.3"/>
	<line class="st4" x1="171.8" y1="95.6" x2="171.8" y2="92.3"/>
	<line class="st4" x1="177.3" y1="95.6" x2="177.3" y2="92.3"/>
	<line class="st4" x1="146.7" y1="99.1" x2="182.4" y2="99.1"/>
	<line class="st4" x1="152.8" y1="99" x2="152.8" y2="95.7"/>
	<line class="st4" x1="158.3" y1="99" x2="158.3" y2="95.7"/>
	<line class="st4" x1="163.6" y1="99" x2="163.6" y2="95.7"/>
	<line class="st4" x1="169.1" y1="99" x2="169.1" y2="95.7"/>
	<line class="st4" x1="174.5" y1="99" x2="174.5" y2="95.7"/>
	<line class="st4" x1="180" y1="99" x2="180" y2="95.7"/>
	<line class="st4" x1="150" y1="102.7" x2="150" y2="99.4"/>
	<line class="st4" x1="155.6" y1="102.7" x2="155.6" y2="99.4"/>
	<line class="st4" x1="160.9" y1="102.7" x2="160.9" y2="99.4"/>
	<line class="st4" x1="166.4" y1="102.7" x2="166.4" y2="99.4"/>
	<line class="st4" x1="171.8" y1="102.7" x2="171.8" y2="99.4"/>
	<line class="st4" x1="177.3" y1="102.7" x2="177.3" y2="99.4"/>
	<line class="st4" x1="147" y1="69.6" x2="147" y2="66.3"/>
	<line class="st4" x1="147" y1="77.1" x2="147" y2="73.8"/>
	<line class="st4" x1="147.2" y1="84.4" x2="147.2" y2="81.1"/>
	<line class="st4" x1="147.3" y1="91.8" x2="147.3" y2="88.5"/>
	<line class="st4" x1="147.2" y1="98.9" x2="147.2" y2="95.7"/>
</g>
<path class="st5" d="M263.6,103V89.1c0-0.6-0.2-0.5-0.8-0.5h-15.8c-0.6,0-1-0.1-1,0.5V103"/>
<line class="st6" x1="264" y1="96.3" x2="246.2" y2="96.3"/>
<line class="st6" x1="255.1" y1="88.7" x2="255.1" y2="103.5"/>
<path class="st7" d="M264.2,103.2c0-0.5-0.4-0.9-0.9-0.9H246c-0.5,0-0.9,0.4-0.9,0.9v0.2c0,0.5,0.4,0.9,0.9,0.9h17.3
	c0.5,0,0.9-0.4,0.9-0.9V103.2z"/>
<g>
	<line class="st8" x1="245.2" y1="97.8" x2="244.3" y2="98.5"/>
	<line class="st8" x1="246.9" y1="98" x2="244.2" y2="100.1"/>
</g>
<g>
	<line class="st8" x1="254.5" y1="90.1" x2="253.5" y2="90.9"/>
	<line class="st8" x1="256.1" y1="90.3" x2="253.5" y2="92.4"/>
</g>
<path class="st9" d="M158.1,41.1v-3.8c0-1.6,1.7-2.1,3.7-2.1h6.1c2,0,3.6,0.9,3.6,2.5l0,14.6"/>
<polyline class="st9" points="103,139.7 103,94.3 52.1,94.3 52.1,116 52.1,139.6 65.5,139.7 "/>
<path class="st5" d="M102,87.6L52,91.7c-0.6,0-1,0.5-1,1.1l0,0.1c0,0.6,0.5,1.3,1.2,1.3h50.2c0.6,0,0.7-0.8,0.7-1.4v-4.1
	C103,88,102.7,87.5,102,87.6z"/>
<path class="st9" d="M63.8,138.2h35.5c0.8,0,1.4-0.6,1.4-1.4V99.3c0-0.8-0.6-1.4-1.4-1.4H55.8c-0.8,0-1.4,0.6-1.4,1.4v6.1V137
	c0,0.6,0.5,1.1,1.1,1.1H63.8z"/>
<path class="st9" d="M134.3,139.6v-25.8c0-4.7,4.1-8.1,8.8-8.1h0.1c4.7,0,8.4,3.4,8.4,8.1v25.8"/>
<path class="st5" d="M171.2,90.7v-17c0-0.7-0.2-0.6-0.9-0.6h-19.4c-0.7,0-1.3-0.1-1.3,0.6v17"/>
<path class="st5" d="M135.1,90.7V73.6c0-0.7-0.5-0.5-1.1-0.5h-19.5c-0.7,0-1.3-0.2-1.3,0.5v17.1"/>
<path class="st6" d="M136.7,125.2c0,0.4,0.3,0.7,0.7,0.7c0.4,0,0.7-0.3,0.7-0.7c0-0.4-0.3-0.7-0.7-0.7
	C137,124.4,136.7,124.8,136.7,125.2"/>
<path class="st10" d="M70.9,139.1"/>
<path class="st11" d="M149.3,114.1c0-0.7-0.5-1.2-1.2-1.2h-10.1c-0.7,0-1.2,0.5-1.2,1.2v6.9c0,0.7,0.5,1.2,1.2,1.2h10.1
	c0.7,0,1.2-0.5,1.2-1.2V114.1z"/>
<path class="st1" d="M182.4,117.5"/>
<path class="st1" d="M168.5,119.6"/>
<path class="st5" d="M182.9,66.2h1.9c1.1,0,1.6-1.6,0.8-2.3l-42-35c-0.4-0.4-1.1-0.4-1.5,0l-42,35c-0.8,0.7-0.4,2.1,0.7,2.1l2.2,0.2
	L182.9,66.2z"/>
<line class="st6" x1="171.7" y1="82.5" x2="149.8" y2="82.5"/>
<line class="st6" x1="135.4" y1="81.9" x2="113.8" y2="81.9"/>
<line class="st6" x1="160.8" y1="73.1" x2="160.8" y2="91.3"/>
<line class="st6" x1="124.2" y1="73.1" x2="124.2" y2="91.3"/>
<path class="st12" d="M172,91.1c0-0.6-0.5-1.1-1.1-1.1h-21.3c-0.6,0-1.1,0.5-1.1,1.1v0.2c0,0.6,0.5,1.1,1.1,1.1h21.3
	c0.6,0,1.1-0.5,1.1-1.1V91.1z"/>
<path class="st12" d="M135.7,91.1c0-0.6-0.5-1.1-1.1-1.1h-21.3c-0.6,0-1.1,0.5-1.1,1.1v0.2c0,0.6,0.5,1.1,1.1,1.1h21.3
	c0.6,0,1.1-0.5,1.1-1.1V91.1z"/>
<path class="st9" d="M100.8,115.6c0-0.8-0.6-1.4-1.4-1.4H55.8c-0.8,0-1.4,0.6-1.4,1.4v1.4c0,0.8,0.6,1.4,1.4,1.4h43.6
	c0.8,0,1.4-0.6,1.4-1.4V115.6z"/>
<path class="st9" d="M100.8,107.6c0-0.8-0.6-1.4-1.4-1.4H55.8c-0.8,0-1.4,0.6-1.4,1.4v1.4c0,0.8,0.6,1.4,1.4,1.4h43.6
	c0.8,0,1.4-0.6,1.4-1.4V107.6z"/>
<path class="st9" d="M100.8,99.3c0-0.8-0.6-1.4-1.4-1.4H55.8c-0.8,0-1.4,0.6-1.4,1.4v0.8c0,0.8,0.6,1.4,1.4,1.4h43.6
	c0.8,0,1.4-0.6,1.4-1.4V99.3z"/>
<circle class="st13" cx="167.3" cy="121.7" r="6.6"/>
<path class="st14" d="M165.1,125.8c-1.5-0.8-2.5-2.3-2.5-4.1c0-1.8,1-3.3,2.4-4.1"/>
<path class="st14" d="M169.5,117.5c1.5,0.8,2.5,2.3,2.5,4.1c0,1.8-1,3.3-2.5,4.1"/>
<path d="M169.5,127.6l0,0.3c-0.8,0.3-1.5,0.4-2.3,0.4c-0.7,0-1.5-0.1-2.2-0.4l0-0.3l0-0.5v-1.9l0-1.9c-0.3-0.4-0.5-1-0.5-1.6
	c0-0.6,0.2-1.1,0.5-1.6l0-0.1v-4.5c0.8-0.3,1.5-0.4,2.3-0.4c0.7,0,1.5,0.1,2.2,0.4v4.5l0,0.1c0.3,0.5,0.5,1,0.5,1.6
	c0,0.6-0.2,1.2-0.5,1.6l0,0.2v3.6"/>
<circle class="st15" cx="167.3" cy="121.7" r="1.8"/>
<circle class="st16" cx="167.3" cy="125.9" r="0.5"/>
<path class="st17" d="M167.3,121.6c2.5,0,5,0,7.4,0.9c1.5,0.6,2.8,1.7,3.7,3c0.9,1.3,1.2,2.8,2.1,4.1c1.7,2.6,4.4,2.5,6.1,0.1
	c1.3-1.9,1.7-4.4,3.3-6.1c1.4-1.5,3.3-2,5.3-2"/>
<line class="st18" x1="255.9" y1="139.1" x2="255.9" y2="107.6"/>
<line class="st19" x1="70.7" y1="139.7" x2="279.6" y2="139.7"/>
<path class="st20" d="M264.7,89.8c3.8,1.6,6.2,5.5,5.8,9.9c-0.5,5.5-5.3,9.5-10.7,9c-0.6-0.1-1.2-0.2-1.8-0.4
	c-0.3-0.1-0.6-0.2-0.9-0.3c-0.3-0.1-0.5-0.3-0.8-0.3c-0.3,0-0.6,0.2-0.9,0.3c-0.3,0.1-0.5,0.3-0.8,0.4c-0.5,0.2-1.1,0.4-1.7,0.6
	c-1,0.3-2.1,0.3-3.2,0.2c-5.5-0.5-9.5-5.3-9-10.7c0.3-3,1.8-5.6,4.1-7.2l0,0c-0.1-0.8-0.2-1.6-0.1-2.4c0.5-5.5,5.3-9.5,10.7-9
	c5.2,0.4,9.1,4.8,9.1,9.9L264.7,89.8z"/>
<path class="st5" d="M123.9,127.6v-17.1c0-0.7-0.2-0.5-0.6-0.5h-9.5c-0.3,0-0.6-0.2-0.6,0.5v17.1"/>
<line class="st6" x1="123.9" y1="118.8" x2="113.8" y2="118.8"/>
<path class="st12" d="M123.9,129.9h-11c-0.6,0-1.1-0.5-1.1-1.1v-0.2c0-0.6,0.5-1.1,1.1-1.1h11c0.6,0,1.1,0.5,1.1,1.1v0.2
	C125,129.4,124.5,129.9,123.9,129.9z"/>
<g>
	<line class="st21" x1="116.2" y1="74.9" x2="115" y2="75.8"/>
	<line class="st21" x1="118.2" y1="75.1" x2="115" y2="77.7"/>
</g>
<g>
	<line class="st21" x1="127" y1="83.7" x2="125.8" y2="84.6"/>
	<line class="st21" x1="129" y1="83.8" x2="125.7" y2="86.5"/>
</g>
<g>
	<line class="st21" x1="152.3" y1="84.4" x2="151.2" y2="85.3"/>
	<line class="st21" x1="154.4" y1="84.6" x2="151.1" y2="87.2"/>
</g>
<g>
	<line class="st21" x1="163.7" y1="74.9" x2="162.5" y2="75.8"/>
	<line class="st21" x1="165.7" y1="75.1" x2="162.5" y2="77.7"/>
</g>
<g>
	<line class="st21" x1="116.2" y1="112.1" x2="115" y2="113"/>
	<line class="st21" x1="118.2" y1="112.3" x2="115" y2="114.9"/>
</g>
<path class="st3" d="M264.7,89.8c3.8,1.6,6.2,5.5,5.8,9.9c-0.5,5.5-5.3,9.5-10.7,9c-0.6-0.1-1.2-0.2-1.8-0.4
	c-0.3-0.1-0.6-0.2-0.9-0.3c-0.2-0.1-0.4-0.2-0.6-0.3c-0.2-0.1-0.5,0-0.7,0.1c-0.1,0.1-0.3,0.2-0.4,0.2c-0.3,0.1-0.5,0.3-0.8,0.4
	c-0.5,0.2-1.1,0.4-1.7,0.6c-1,0.2-2.1,0.3-3.2,0.2c-5.5-0.5-9.5-5.3-9-10.7c0.3-3,1.8-5.6,4.1-7.2l0,0c-0.1-0.8-0.2-1.6-0.1-2.4
	c0.5-5.5,5.3-9.5,10.7-9c5.2,0.4,9.1,4.8,9.1,9.9L264.7,89.8z"/>
<line class="st8" x1="255.9" y1="107.6" x2="261.8" y2="102.3"/>
<polyline class="st8" points="255.9,98.5 255.9,107.6 250.7,103 "/>
<circle class="st22" cx="244.8" cy="147.4" r="1"/>
<circle class="st22" cx="266.1" cy="147.4" r="0.5"/>
<circle class="st22" cx="232.6" cy="146.4" r="0.5"/>
<path class="st9" d="M100.9,131.4c0-0.8-0.6-1.4-1.4-1.4H55.9c-0.8,0-1.4,0.6-1.4,1.4v1.4c0,0.8,0.6,1.4,1.4,1.4h43.6
	c0.8,0,1.4-0.6,1.4-1.4V131.4z"/>
<path class="st9" d="M100.9,123.7c0-0.8-0.6-1.4-1.4-1.4H55.9c-0.8,0-1.4,0.6-1.4,1.4v0.8c0,0.8,0.6,1.4,1.4,1.4h43.6
	c0.8,0,1.4-0.6,1.4-1.4V123.7z"/>
<path class="st5" d="M281.2,110.9V100c0-0.5-0.2-0.4-0.6-0.4h-12.5c-0.4,0-0.8-0.1-0.8,0.4v10.9"/>
<line class="st6" x1="281.5" y1="105.6" x2="267.5" y2="105.6"/>
<line class="st6" x1="274.5" y1="99.6" x2="274.5" y2="111.3"/>
<path class="st7" d="M281.7,111.1c0-0.4-0.3-0.7-0.7-0.7h-13.7c-0.4,0-0.7,0.3-0.7,0.7v0.2c0,0.4,0.3,0.7,0.7,0.7H281
	c0.4,0,0.7-0.3,0.7-0.7V111.1z"/>
<g>
	<line class="st8" x1="266.7" y1="106.8" x2="265.9" y2="107.4"/>
	<line class="st8" x1="268" y1="106.9" x2="265.9" y2="108.6"/>
</g>
<g>
	<line class="st8" x1="274" y1="100.7" x2="273.2" y2="101.3"/>
	<line class="st8" x1="275.3" y1="100.9" x2="273.2" y2="102.6"/>
</g>
<line class="st23" x1="275.1" y1="139.9" x2="275.1" y2="114.6"/>
<path class="st20" d="M282,100.5c3,1.3,4.9,4.4,4.6,7.8c-0.4,4.3-4.2,7.5-8.5,7.1c-0.5,0-1-0.2-1.4-0.3c-0.2-0.1-0.5-0.2-0.7-0.3
	c-0.2-0.1-0.4-0.2-0.6-0.3c-0.3,0-0.5,0.2-0.7,0.3c-0.2,0.1-0.4,0.2-0.6,0.3c-0.4,0.2-0.9,0.3-1.3,0.5c-0.8,0.2-1.7,0.3-2.5,0.2
	c-4.3-0.4-7.5-4.2-7.1-8.5c0.2-2.4,1.4-4.4,3.2-5.7l0,0c-0.1-0.6-0.1-1.2-0.1-1.9c0.4-4.3,4.2-7.5,8.5-7.1c4.1,0.3,7.2,3.8,7.2,7.8
	L282,100.5z"/>
<path class="st3" d="M282,100.5c3,1.3,4.9,4.4,4.6,7.8c-0.4,4.3-4.2,7.5-8.5,7.1c-0.5,0-1-0.2-1.4-0.3c-0.2-0.1-0.5-0.2-0.7-0.3
	c-0.2-0.1-0.3-0.2-0.5-0.2c-0.2-0.1-0.4,0-0.5,0.1c-0.1,0.1-0.2,0.1-0.3,0.2c-0.2,0.1-0.4,0.2-0.6,0.3c-0.4,0.2-0.9,0.3-1.3,0.5
	c-0.8,0.2-1.7,0.3-2.5,0.2c-4.3-0.4-7.5-4.2-7.1-8.5c0.2-2.4,1.4-4.4,3.2-5.7l0,0c-0.1-0.6-0.1-1.2-0.1-1.9c0.4-4.3,4.2-7.5,8.5-7.1
	c4.1,0.3,7.2,3.8,7.2,7.8L282,100.5z"/>
<line class="st8" x1="275.1" y1="114.6" x2="279.8" y2="110.4"/>
<polyline class="st8" points="275.1,107.3 275.1,114.6 271,111 "/>
<path class="st24" d="M281.9,149.3H7.4c-2.7,0-4.9-2.2-4.9-4.9l0,0c0-2.7,2.2-4.9,4.9-4.9h274.5c2.7,0,4.9,2.2,4.9,4.9l0,0
	C286.9,147.1,284.7,149.3,281.9,149.3z"/>
<g>
	<g>
		<line class="st21" x1="9.5" y1="144.5" x2="12.5" y2="144.5"/>
		<line class="st25" x1="19.5" y1="144.5" x2="274.4" y2="144.6"/>
		<line class="st21" x1="277.9" y1="144.6" x2="280.9" y2="144.6"/>
	</g>
</g>
<circle class="st26" cx="137.6" cy="167.6" r="0.9"/>
<circle class="st26" cx="165.3" cy="166.7" r="0.6"/>
<circle class="st26" cx="202.9" cy="163.6" r="0.6"/>
<circle class="st26" cx="109.9" cy="166.7" r="0.4"/>
<line class="st27" x1="281.2" y1="160.3" x2="287" y2="160.3"/>
<line class="st27" x1="242.1" y1="160.3" x2="277.2" y2="160.3"/>
<line class="st27" x1="149.9" y1="160.3" x2="236.4" y2="160.3"/>
<line class="st27" x1="137.6" y1="160.3" x2="142.7" y2="160.3"/>
<line class="st27" x1="60.8" y1="160.3" x2="129.9" y2="160.3"/>
<circle class="st26" cx="225.6" cy="167.4" r="0.6"/>
<line class="st27" x1="4.5" y1="155.5" x2="286.6" y2="155.4"/>
<line class="st27" x1="4.5" y1="160.5" x2="56.3" y2="160.5"/>
<path class="st28" d="M229.8,127.9h-12.1c-3.2,0-5.8-2.6-5.8-5.8v-0.9c0-3.2,2.6-5.8,5.8-5.8h12.1c3.2,0,5.8,2.6,5.8,5.8v0.9
	C235.6,125.2,233,127.9,229.8,127.9z"/>
<line class="st29" x1="195.2" y1="116.5" x2="188.8" y2="121"/>
<line class="st29" x1="190.9" y1="115.8" x2="189" y2="117.3"/>
<path class="st30" d="M268.5,126.5c0-0.1,0.1-0.2,0.1-0.3c0.5-1.2,0-2.6-0.7-3.7c-1.7-2.5-4.5-4-7.3-4.9c-2.9-0.9-5.8-1.3-8.7-2.3
	c-4.6-1.5-8.6-4.3-13-6.3c-6.5-3-13.8-4-21-4.1c-4.5,0-9,0.2-13.4,0.7c-2.2,0.2-4.5,0.5-6.7,0.8c-1.1,0.1-2.2,0.3-3.3,0.4
	c-0.7,0.1-2.5,0.2-1,0.9c0.9,0.4,1.9,0.1,2.8,0.5c1.7,0.8,0.1,2.9-0.7,3.7c-1.5,1.5-3.5,2.2-5.5,2.9c-0.9,0.3-1.8,0.8-2.4,1.5
	c-0.7,1-0.5,2.2-0.5,3.3c-0.1,2.2-1.3,4.2-1.9,6.3c-0.6,2.6-0.1,5.5,1.5,7.8c0.7,0,1.1,0,1.8,0c-0.5-3,1-6.4,3.6-8.1
	c2.6-1.7,6.4-1.8,9-0.1c2.6,1.7,4.1,5.1,3.6,8.2c13.6,0,26.6,0,40.2,0c-0.3-3.6,1.1-6.4,3.6-8.1c2.6-1.7,6.3-1.7,8.9,0
	c2.6,1.7,4.1,5,3.6,8.1c2.4,0,4.7,0,7.1,0c0.8-0.7,0.6-2,0.2-3c-0.4-1-1-2-0.7-3.1C267.9,127.4,268.3,126.9,268.5,126.5z"/>
<path class="st31" d="M223.5,117h21.1c0.7,0,0.8-0.7,0.2-1c0,0-8.3-5.3-10.1-6.1c-3.7-1.7-7.7-2-11.7-2.2c-3.7-0.1-7.4-0.1-11.2,0
	c-1.9,0.1-3.7,0.2-5.6,0.3c-1.6,0.1-3.3,0.1-4.8,0.8c-0.3,0.1-0.5,0.5-0.7,0.7c-0.9,1.4-1.7,2.8-2.4,4.2c-0.3,0.5-0.4,1-0.2,1.4
	c0.8,1.4,2.4,1.7,3.8,1.8c1.2,0,2.5,0,3.7,0c2.8,0,5.6,0,8.4,0c1.5,0,3.1,0,4.6,0H223.5z"/>
<path class="st20" d="M195.4,108.1c-1.4,0.6-5.7,5.2-6.4,7.3"/>
<circle class="st6" cx="195.2" cy="118.6" r="1.5"/>
<g>
	<line class="st32" x1="204.7" y1="110.6" x2="206.9" y2="112.3"/>
	<line class="st32" x1="202.8" y1="110.9" x2="204.5" y2="112.2"/>
</g>
<path class="st33" d="M253.2,139.1c-3.6,0-6.6-3-6.6-6.6c0-3.6,3-6.6,6.6-6.6c3.6,0,6.6,3,6.6,6.6
	C259.8,136.1,256.9,139.1,253.2,139.1L253.2,139.1z"/>
<path class="st34" d="M253.2,137.3c-2.6,0-4.8-2.1-4.8-4.8c0-2.6,2.1-4.8,4.8-4.8c2.6,0,4.8,2.1,4.8,4.8
	C258,135.1,255.9,137.3,253.2,137.3L253.2,137.3z"/>
<path class="st35" d="M253.2,134c-0.8,0-1.5-0.7-1.5-1.5c0-0.8,0.7-1.5,1.5-1.5c0.8,0,1.5,0.7,1.5,1.5
	C254.8,133.3,254.1,134,253.2,134L253.2,134z"/>
<path class="st33" d="M196.9,139.5c3.6,0,6.6-3,6.6-6.6c0-3.6-3-6.6-6.6-6.6c-3.6,0-6.6,3-6.6,6.6
	C190.3,136.5,193.2,139.5,196.9,139.5L196.9,139.5z"/>
<path class="st34" d="M196.9,137.7c2.6,0,4.8-2.1,4.8-4.8c0-2.6-2.1-4.8-4.8-4.8c-2.6,0-4.8,2.1-4.8,4.8
	C192.1,135.5,194.2,137.7,196.9,137.7L196.9,137.7z"/>
<path class="st35" d="M196.9,134.4c-0.8,0-1.5-0.7-1.5-1.5c0-0.8,0.7-1.5,1.5-1.5c0.8,0,1.5,0.7,1.5,1.5
	C198.4,133.8,197.7,134.4,196.9,134.4L196.9,134.4z"/>
<path class="st34" d="M265.4,128.8c-0.5,0.1-0.8,0.6-0.6,1c0,0.1,0.1,0.1,0.1,0.2c0,0,0.1,0.1,0.1,0.1c0.1,0,0.1,0,0.2,0
	c0.1-0.1,0.3-0.2,0.3-0.4c0-0.1,0.1-0.1,0.1-0.2c0.1-0.1,0.2-0.3,0.2-0.4c0-0.1,0-0.2-0.1-0.3C265.6,128.7,265.5,128.8,265.4,128.8z
	"/>
<path class="st36" d="M265.8,127.6c-2.1-0.9-3.3,2.6-0.9,3.7"/>
<path class="st35" d="M227.3,120.6c-0.1-0.4-0.4-0.7-0.8-0.7h-0.8c-0.4,0-0.7,0.2-0.8,0.6l0,0.8c0,0.4,0.4,0.8,0.8,0.8h0.8
	c0.4,0,0.7-0.3,0.8-0.7L227.3,120.6z"/>
<path class="st35" d="M204.6,120.2c0,0.4,0.4,0.8,0.8,0.8h0.8c0.4,0,0.7-0.3,0.8-0.7l0-0.7c-0.1-0.4-0.4-0.7-0.8-0.7h-0.8
	c-0.4,0-0.7,0.2-0.8,0.6L204.6,120.2z"/>
<path class="st34" d="M248.9,114.2l3.9,4c0.5,0.5,1.1,0.8,1.8,0.9c4,1,8.1,2.7,12.2,3.8c0.2,0,0.3,0,0.1-0.2c-2.4-2.5-5-4.2-8-4.9
	c-2.2-0.6-5-0.6-7.1-0.6"/>
<path class="st36" d="M263.6,121.9c-2.7-1.1-4.9-2.4-5.9-4.3"/>
<g>
	<line class="st32" x1="222.8" y1="113.8" x2="224.4" y2="115"/>
	<line class="st32" x1="222.4" y1="111.4" x2="227.5" y2="115.4"/>
</g>
<path class="st35" d="M237.5,115.3c0.2-0.7,1.1-1.3,1.8-1.1c1.3,0.5,2.2,1.2,2.6,2.2c0,0.1,0,0.2-0.1,0.2c-0.8,0.7-1.6,0.8-3,0.7
	C238,117.4,237.3,116.1,237.5,115.3L237.5,115.3z"/>
<path class="st36" d="M241.9,117.3c0.2,0.4,0.6,0.7,0.9,1.2c0.9,1.4,0.7,6.2-0.3,11.4c-0.1,0.7-0.7,1.1-1.4,1.1l-30.5-0.3
	c-1.4,0-2.2-0.6-3.1-1.7c-2.7-3.5-8.3-10.3-9.5-13.9"/>
<path class="st36" d="M220.9,130.8c0.6-4.7,0.9-9.5,0-14.9l-1.4-8.3"/>
<path class="st5" d="M188.7,116.1c-0.3,0-0.5,0-0.7,0.2c-0.1,0.1-0.2,0.2-0.3,0.3c-0.7,1-0.5,2.2-0.5,3.3c0,0.1,0,0.2,0,0.2
	c0,0.6,0.4,1,0.9,0.9c1.1-0.2,1.3-2.5,1.4-3.5c0-0.3,0-0.5-0.1-0.8C189.4,116.5,189.1,116.2,188.7,116.1L188.7,116.1z"/>
<path class="st7" d="M188.8,119.3c0.3,0.1,0.4,0.3,0.3,0.6c-0.2,0.6-0.5,1.1-1,1.2c-0.5,0.1-1-0.4-0.9-0.9c0-0.1,0-0.2,0-0.2
	c0-0.2,0-0.4,0-0.5C187.8,119.3,188.2,119.2,188.8,119.3z"/>
<polyline class="st20" points="182.4,139.8 182.4,66.4 103,66.2 103,67 103,139.8 "/>
<path class="st24" d="M167.8,31.5h-6.1c-0.6,0-1-0.5-1-1v-3.6c0-0.6,0.5-1,1-1h6.1c0.6,0,1,0.5,1,1v3.6
	C168.8,31,168.4,31.5,167.8,31.5z"/>
<line class="st8" x1="158.1" y1="39.7" x2="164.1" y2="39.7"/>
<line class="st8" x1="158.6" y1="41.3" x2="162.1" y2="41.3"/>
<line class="st37" x1="117.4" y1="59" x2="123.5" y2="59"/>
<line class="st37" x1="129.2" y1="40.1" x2="135.2" y2="40.1"/>
<line class="st37" x1="129.2" y1="52.3" x2="135.2" y2="52.3"/>
<line class="st37" x1="152.3" y1="50.1" x2="158.3" y2="50.1"/>
<line class="st37" x1="148.7" y1="53.1" x2="154.7" y2="53.1"/>
<line class="st37" x1="172.1" y1="58.4" x2="178.1" y2="58.4"/>
<line class="st37" x1="112.2" y1="54.5" x2="118.2" y2="54.5"/>
<line class="st37" x1="154.7" y1="61.6" x2="160.8" y2="61.6"/>
<path class="st20" d="M182.9,66.2h1.9c1.1,0,1.6-1.6,0.8-2.3l-42-35c-0.4-0.4-1.1-0.4-1.5,0l-42,35c-0.8,0.7-0.4,2.1,0.7,2.1
	l2.2,0.2L182.9,66.2z"/>
<path class="st2" d="M195.8,55.6h2.1c0.2,0,0.4-0.2,0.4-0.4c0-0.2-0.2-0.4-0.4-0.4h-2.1c-0.2,0-0.4,0.2-0.4,0.4
	C195.4,55.5,195.6,55.6,195.8,55.6"/>
<path class="st2" d="M181.9,55.6h8.6c0.2,0,0.4-0.2,0.4-0.4c0-0.2-0.2-0.4-0.4-0.4h-8.6c-0.2,0-0.4,0.2-0.4,0.4
	C181.5,55.5,181.7,55.6,181.9,55.6"/>
<path class="st9" d="M80.8,127.7h-6.4c-0.9,0-1.6-0.7-1.6-1.6v-0.2c0-0.9,0.7-1.6,1.6-1.6h6.4c0.9,0,1.6,0.7,1.6,1.6v0.2
	C82.4,127,81.7,127.7,80.8,127.7z"/>
<path class="st8" d="M76.3,124.6v0.2c0,0.7,0.6,1.3,1.3,1.3l0,0c0.7,0,1.3-0.6,1.3-1.3v-0.2"/>
<path class="st0" d="M54.5,69.9c0,0.3,0,0.6-0.2,0.9l0,0.1l-11.9,0c-0.1-0.3-0.2-0.7-0.2-1c0-1.7,1.5-3,3.3-3c0.1,0,0.1,0,0.2,0l0,0
	c0.5-1.2,1.8-2.1,3.3-2.1c1.7,0,3.1,1.1,3.4,2.6c0,0,0.1,0,0.1,0c0.4,0.1,0.7,0.3,1,0.5c0.3,0.3,0.6,0.6,0.7,0.9
	C54.5,69.2,54.5,69.6,54.5,69.9"/>
<circle class="st26" cx="71.8" cy="168.1" r="0.9"/>
<path class="st13" d="M172,38h-14.5c-0.6,0-1.2-0.5-1.2-1.2v-5.3c0-0.6,0.5-1.2,1.2-1.2H172c0.6,0,1.2,0.5,1.2,1.2v5.3
	C173.2,37.5,172.7,38,172,38z"/>
<circle class="st26" cx="24" cy="168.2" r="0.5"/>
</svg>
