<?xml version="1.0" encoding="utf-8"?>
<!-- Generator: Adobe Illustrator 21.0.2, SVG Export Plug-In . SVG Version: 6.00 Build 0)  -->
<svg version="1.1" id="Layer_1" xmlns="http://www.w3.org/2000/svg" xmlns:xlink="http://www.w3.org/1999/xlink" x="0px" y="0px"
	 viewBox="0 0 125 141" style="enable-background:new 0 0 125 141;" xml:space="preserve">
<style type="text/css">
	.st0{fill:#8CC63F;stroke:#333333;stroke-width:1.5;stroke-linecap:round;stroke-linejoin:round;stroke-miterlimit:10;}
	.st1{fill:#8CC63F;stroke:#333333;stroke-linecap:round;stroke-linejoin:round;stroke-miterlimit:10;}
	.st2{fill:none;stroke:#333333;stroke-width:1.5;stroke-linecap:round;stroke-linejoin:round;stroke-miterlimit:10;}
</style>
<g>
	<circle class="st0" cx="62.9" cy="72.1" r="42"/>
	<polyline class="st0" points="61.2,47.9 61.2,75.3 82.2,75.3 	"/>
	<circle class="st0" cx="62" cy="39" r="0.8"/>
	<circle class="st0" cx="31.4" cy="74.5" r="0.8"/>
	<circle class="st0" cx="62" cy="106.8" r="0.8"/>
	<circle class="st0" cx="96" cy="76.1" r="0.8"/>
</g>
<path class="st1" d="M62.7,83.4C62.7,83.4,62.6,83.4,62.7,83.4c-1.7,2.8-3.3,5.5-5,8.3c1.1,0,2.1,0.1,3.2,0.1c0,1.7-0.1,3.4-0.1,5
	c0,0,0,0,0,0c1.6-2.8,3.3-5.5,4.9-8.4c-1.1,0-2.1-0.1-3.2-0.1C62.6,86.8,62.6,85.1,62.7,83.4z"/>
<path class="st2" d="M15,57.4c4.5-14.7,15.7-26.7,30.1-32.1"/>
<path class="st2" d="M13.1,66.1c0.1-1,0.3-2,0.5-3"/>
<path class="st2" d="M32.6,112C21,103.1,13.3,89.3,12.8,73.6c0-1,0-2.1,0-3.1"/>
<path class="st2" d="M42.3,117.8c-1.9-0.8-3.7-1.8-5.4-2.9"/>
<path class="st2" d="M102.9,102.2c-8.8,11.7-22.7,19.5-38.5,20c-6.3,0.2-12.4-0.8-18-2.7"/>
<path class="st2" d="M111.9,82.3c-1.1,5.4-3.1,10.5-5.8,15.1"/>
<path class="st2" d="M105.5,45.7c4.5,7.2,7.2,15.7,7.5,24.8c0.1,2.2,0,4.3-0.2,6.4"/>
<path class="st2" d="M50.5,23.5c3.5-0.9,7.1-1.4,10.8-1.5c16.4-0.5,31.2,7,40.7,18.9"/>
<polyline class="st2" points="110.3,75.1 113,77.8 115.7,75.1 "/>
<polyline class="st2" points="15.5,72.4 12.7,69.7 10,72.4 "/>
</svg>
