<?xml version="1.0" encoding="utf-8"?>
<!-- Generator: Adobe Illustrator 21.0.2, SVG Export Plug-In . SVG Version: 6.00 Build 0)  -->
<svg version="1.1" id="Layer_1" xmlns="http://www.w3.org/2000/svg" xmlns:xlink="http://www.w3.org/1999/xlink" x="0px" y="0px"
	 viewBox="0 0 227 256" style="enable-background:new 0 0 227 256;" xml:space="preserve">
<style type="text/css">
	.st0{fill:#FFFFFF;stroke:#E6E6E6;stroke-width:2.5;stroke-miterlimit:10;}
	.st1{fill:none;stroke:#E6E6E6;stroke-width:2.5;stroke-linecap:round;stroke-miterlimit:10;}
	.st2{fill:#F2F2F2;}
	.st3{fill:none;stroke:#333333;stroke-width:2.5;stroke-linecap:round;stroke-miterlimit:10;}
	.st4{fill:none;stroke:#333333;stroke-width:2.5;stroke-linecap:round;stroke-miterlimit:10;stroke-dasharray:5.2048,5.2048;}
	.st5{fill:#FFFFFF;stroke:#333333;stroke-width:2.5;stroke-miterlimit:10;}
	.st6{fill:#FFFFFF;stroke:#B3B3B3;stroke-linecap:round;stroke-miterlimit:10;}
	.st7{fill:none;}
	.st8{fill:#333333;}
	.st9{font-family:'GothamRounded-Medium';}
	.st10{font-size:12.5205px;}
	.st11{font-size:5.2228px;}
	.st12{fill:none;stroke:#333333;stroke-width:2.5;stroke-linecap:round;stroke-miterlimit:10;stroke-dasharray:5.0793,5.0793;}
</style>
<g>
	<path class="st0" d="M184.2,253.5H9.2c-3.1,0-5.7-2.6-5.7-5.7V7.4c0-3.1,2.6-5.7,5.7-5.7h175c3.1,0,5.7,2.6,5.7,5.7v240.4
		C189.9,250.9,187.3,253.5,184.2,253.5z"/>
	<line class="st1" x1="17.4" y1="227.1" x2="102.3" y2="227.1"/>
	<line class="st1" x1="17.4" y1="235.4" x2="70.3" y2="235.4"/>
	<line class="st1" x1="18.8" y1="104.6" x2="88.4" y2="104.6"/>
	<line class="st1" x1="18.8" y1="94.9" x2="60.5" y2="94.9"/>
	<line class="st1" x1="18.8" y1="74" x2="113.4" y2="74"/>
	<line class="st1" x1="18.8" y1="64.3" x2="116.2" y2="64.3"/>
	<path class="st0" d="M173.4,214.5H20c-1.4,0-2.6-1.2-2.6-2.6v-92.2c0-1.4,1.2-2.6,2.6-2.6h153.5c1.4,0,2.6,1.2,2.6,2.6V212
		C176,213.4,174.8,214.5,173.4,214.5z"/>
	<g>
		<line class="st2" x1="25.1" y1="149.9" x2="103" y2="52.5"/>
		<g>
			<line class="st3" x1="25.1" y1="149.9" x2="26.6" y2="147.9"/>
			<line class="st4" x1="29.9" y1="143.8" x2="99.8" y2="56.5"/>
			<line class="st3" x1="101.4" y1="54.4" x2="103" y2="52.5"/>
		</g>
	</g>
	<path class="st5" d="M222,98.4H104.3c-1.1,0-2-0.9-2-2v-43c0-1.1,0.9-2,2-2H222c1.1,0,2,0.9,2,2v43C224,97.5,223.1,98.4,222,98.4z"
		/>
	<line class="st5" x1="124.4" y1="51.2" x2="124.4" y2="98.2"/>
	<line class="st5" x1="124.4" y1="74.7" x2="223.8" y2="74.7"/>
	<line class="st5" x1="154" y1="51.2" x2="154" y2="74.7"/>
	<line class="st5" x1="190.4" y1="51.2" x2="190.4" y2="74.7"/>
	<line class="st5" x1="149.8" y1="74.7" x2="149.8" y2="98.2"/>
	<line class="st5" x1="194.7" y1="74.7" x2="194.7" y2="98.2"/>
	<line class="st6" x1="199.2" y1="62.7" x2="203.3" y2="62.7"/>
	<line class="st6" x1="205.9" y1="62.7" x2="210" y2="62.7"/>
	<line class="st6" x1="212.6" y1="62.7" x2="216.7" y2="62.7"/>
	<line class="st6" x1="200.5" y1="86.6" x2="204.6" y2="86.6"/>
	<line class="st6" x1="207.2" y1="86.6" x2="211.4" y2="86.6"/>
	<line class="st6" x1="213.9" y1="86.6" x2="218.1" y2="86.6"/>
	<line class="st6" x1="163.6" y1="62.7" x2="167.7" y2="62.7"/>
	<line class="st6" x1="170.3" y1="62.7" x2="174.4" y2="62.7"/>
	<line class="st6" x1="177" y1="62.7" x2="181.2" y2="62.7"/>
	<line class="st6" x1="130.3" y1="62.7" x2="134.5" y2="62.7"/>
	<line class="st6" x1="137" y1="62.7" x2="141.2" y2="62.7"/>
	<line class="st6" x1="143.7" y1="62.7" x2="147.9" y2="62.7"/>
	<line class="st6" x1="128.3" y1="86.6" x2="132.5" y2="86.6"/>
	<line class="st6" x1="135" y1="86.6" x2="139.2" y2="86.6"/>
	<line class="st6" x1="141.7" y1="86.6" x2="145.9" y2="86.6"/>
	<line class="st6" x1="153.2" y1="86.6" x2="157.4" y2="86.6"/>
	<line class="st6" x1="159.9" y1="86.6" x2="164.1" y2="86.6"/>
	<line class="st6" x1="166.6" y1="86.6" x2="170.8" y2="86.6"/>
	<line class="st6" x1="173.9" y1="86.6" x2="178.1" y2="86.6"/>
	<line class="st6" x1="180.7" y1="86.6" x2="184.8" y2="86.6"/>
	<line class="st6" x1="187.4" y1="86.6" x2="191.5" y2="86.6"/>
	<rect x="107.3" y="69.8" class="st7" width="12.4" height="11.9"/>
	<text transform="matrix(0.7643 0 0 0.93 110.4219 79.0283)" class="st8 st9 st10">S</text>
	<path class="st5" d="M73.1,167.9H26.4c-1.1,0-2-0.9-2-2v-15.6c0-1.1,0.9-2,2-2h46.8c1.1,0,2,0.9,2,2v15.6
		C75.1,167,74.2,167.9,73.1,167.9z"/>
	<line class="st5" x1="33.6" y1="148.2" x2="33.6" y2="167.9"/>
	<line class="st5" x1="33.6" y1="158.1" x2="75.1" y2="158.1"/>
	<line class="st5" x1="45.9" y1="148.2" x2="45.9" y2="158.1"/>
	<line class="st5" x1="61.1" y1="148.2" x2="61.1" y2="158.1"/>
	<line class="st5" x1="44.2" y1="158.1" x2="44.2" y2="167.9"/>
	<line class="st5" x1="62.9" y1="158.1" x2="62.9" y2="167.9"/>
	<line class="st6" x1="67.6" y1="153.1" x2="69.3" y2="153.1"/>
	<line class="st6" x1="68.1" y1="163" x2="69.9" y2="163"/>
	<line class="st6" x1="52.7" y1="153.1" x2="54.5" y2="153.1"/>
	<line class="st6" x1="38.9" y1="153.1" x2="40.6" y2="153.1"/>
	<line class="st6" x1="38" y1="163" x2="39.8" y2="163"/>
	<line class="st6" x1="48.4" y1="163" x2="50.1" y2="163"/>
	<line class="st6" x1="57.1" y1="163" x2="58.8" y2="163"/>
	<rect x="26.5" y="156" class="st7" width="5.2" height="4.9"/>
	<text transform="matrix(0.7643 0 0 0.93 27.7686 159.8682)" class="st8 st9 st11">S</text>
	<line class="st1" x1="19.5" y1="23.3" x2="54.3" y2="23.3"/>
	<line class="st1" x1="18.8" y1="33.7" x2="60.5" y2="33.7"/>
	<line class="st1" x1="87.4" y1="152.6" x2="107.7" y2="152.6"/>
	<line class="st1" x1="87" y1="163.1" x2="111.3" y2="163.1"/>
	<line class="st1" x1="127.7" y1="152.6" x2="148" y2="152.6"/>
	<line class="st1" x1="127.3" y1="163.1" x2="151.7" y2="163.1"/>
	<line class="st1" x1="87.4" y1="173.5" x2="107.7" y2="173.5"/>
	<line class="st1" x1="87" y1="183.9" x2="111.3" y2="183.9"/>
	<g>
		<line class="st2" x1="75.1" y1="166.6" x2="222.6" y2="98.4"/>
		<g>
			<line class="st3" x1="75.1" y1="166.6" x2="77.4" y2="165.5"/>
			<line class="st12" x1="82" y1="163.4" x2="218" y2="100.5"/>
			<line class="st3" x1="220.3" y1="99.4" x2="222.6" y2="98.4"/>
		</g>
	</g>
</g>
</svg>
