<?xml version="1.0" encoding="utf-8"?>
<!-- Generator: Adobe Illustrator 21.0.2, SVG Export Plug-In . SVG Version: 6.00 Build 0)  -->
<svg version="1.1" id="Layer_1" xmlns="http://www.w3.org/2000/svg" xmlns:xlink="http://www.w3.org/1999/xlink" x="0px" y="0px"
	 viewBox="0 0 125 141" style="enable-background:new 0 0 125 141;" xml:space="preserve">
<style type="text/css">
	.st0{fill:#FFFFFF;stroke:#333333;stroke-width:1.5;stroke-linecap:round;stroke-miterlimit:10;}
	.st1{fill:#E6E6E6;stroke:#333333;stroke-width:1.5;stroke-linecap:round;stroke-miterlimit:10;}
	.st2{fill:#8CC63F;stroke:#333333;stroke-width:1.5;stroke-linecap:round;stroke-linejoin:round;stroke-miterlimit:10;}
	.st3{fill:#F2F2F2;stroke:#333333;stroke-width:1.5;stroke-linecap:round;stroke-miterlimit:10;}
	.st4{fill:#8FC043;stroke:#333333;stroke-width:1.5;stroke-linecap:round;stroke-linejoin:round;stroke-miterlimit:10;}
	.st5{fill:none;stroke:#333333;stroke-width:1.5;stroke-linecap:round;stroke-miterlimit:10;}
	.st6{fill:#CCCCCC;stroke:#333333;stroke-width:1.5;stroke-linecap:round;stroke-miterlimit:10;}
	.st7{fill:#333333;stroke:#333333;stroke-width:1.5;stroke-linecap:round;stroke-miterlimit:10;}
	.st8{fill:#D7D7D8;}
</style>
<path class="st0" d="M10,131.6c7-22.7,27.9-39.2,52.5-39.2c24.6,0,45.5,16.4,52.5,39.1"/>
<path class="st1" d="M63.2,101.8L63.2,101.8c-6.2,0-11.2-5-11.2-11.2V79.4c0-6.2,5-11.2,11.2-11.2h0c6.2,0,11.2,5,11.2,11.2v11.2
	C74.4,96.8,69.4,101.8,63.2,101.8z"/>
<polyline class="st2" points="37,133 37,112 89,112 89,133 "/>
<circle class="st3" cx="48.5" cy="118.3" r="2.1"/>
<circle class="st3" cx="77.9" cy="118.3" r="2.1"/>
<polyline class="st4" points="79,95.7 79,112 89,112 89,99.4 "/>
<path class="st5" d="M10,131.6c7-22.7,27.9-39.2,52.5-39.2c24.6,0,45.5,16.4,52.5,39.1"/>
<path class="st6" d="M32.9,61.5c-3.4,0-6.2-2.8-6.2-6.2c0-3.4,2.8-6.2,6.2-6.2"/>
<path class="st6" d="M93.9,49.1c3.4,0,6.2,2.8,6.2,6.2c0,3.4-2.8,6.2-6.2,6.2"/>
<path class="st1" d="M63.5,94.7L63.5,94.7c-16.8,0-30.6-13.8-30.6-30.6V43.5c0-6.6,5.4-12,12-12h38.9c5.5,0,10,4.5,10,10v22.9
	C93.9,81,80.2,94.7,63.5,94.7z"/>
<path class="st5" d="M73.4,79.4c-1.3,2.9-5.3,5-10,5c-4.7,0-8.8-2.1-10-5"/>
<path class="st5" d="M74.5,57.6c0.4-0.7,1.8-1.2,3.4-1.2c1.6,0,2.9,0.5,3.4,1.2"/>
<circle class="st7" cx="49" cy="61.5" r="1.2"/>
<path class="st7" d="M79,61.5c0,0.6-0.5,1.2-1.2,1.2s-1.2-0.5-1.2-1.2c0-0.6,0.5-1.2,1.2-1.2S79,60.8,79,61.5"/>
<path class="st5" d="M45.6,57.6c0.4-0.7,1.8-1.2,3.4-1.2c1.6,0,2.9,0.5,3.4,1.2"/>
<circle class="st8" cx="82.1" cy="70.4" r="4.3"/>
<circle class="st8" cx="44.7" cy="70.4" r="4.3"/>
<line class="st0" x1="63.4" y1="59.7" x2="63.4" y2="69.1"/>
<path class="st5" d="M67.1,70.2c-0.9,1.6-2.2,2.3-3.7,2.3c-1.3,0-3.1-0.6-3.7-2.3"/>
<path class="st2" d="M32.5,37.1c0,0.5-0.1,1.1-0.1,1.6v10.4h1.3c4.8,0,8.7-4.6,8.7-10.4H61c11.8,0,23,0,23,0
	c0,5.7,3.9,10.4,8.7,10.4H94V38.7c0-0.5,0-1.1-0.1-1.6c-0.8-12.5-12.3-18.8-22.8-21.2c-1.1-0.2-0.3-4.5-1.4-4.7
	c-3.8-0.6-10.4,4.1-14.3,4.7c-0.9,0.1-0.5-4.8-1.4-4.7c-4.2,0.9-9,5.8-12.5,8.3C35.9,23.6,32.9,30.1,32.5,37.1z"/>
<polyline class="st4" points="47,95 47,112 37,112 37,99.4 "/>
</svg>
