<?xml version="1.0" encoding="utf-8"?>
<!-- Generator: Adobe Illustrator 21.0.2, SVG Export Plug-In . SVG Version: 6.00 Build 0)  -->
<svg version="1.1" id="Layer_1" xmlns="http://www.w3.org/2000/svg" xmlns:xlink="http://www.w3.org/1999/xlink" x="0px" y="0px"
	 viewBox="0 0 470 329" style="enable-background:new 0 0 470 329;" xml:space="preserve">
<style type="text/css">
	.st0{fill:#E7E6E6;}
	.st1{fill:none;stroke:#4D4D4D;stroke-width:1.5;stroke-linecap:round;stroke-miterlimit:10;}
	.st2{fill:#E6E6E6;}
	.st3{fill:#808080;}
	.st4{fill:#F2F2F2;stroke:#E6E6E6;stroke-width:1.5;stroke-miterlimit:10;}
	.st5{fill:#FFFFFF;stroke:#E6E6E6;stroke-width:1.5;stroke-miterlimit:10;}
	.st6{opacity:0.21;fill:#F2F2F2;stroke:#999999;stroke-width:1.5;stroke-miterlimit:10;}
	.st7{opacity:0.21;fill:#F2F2F2;stroke:#999999;stroke-width:1.5;stroke-linecap:round;stroke-miterlimit:10;}
	.st8{fill:#8CC63F;stroke:#333333;stroke-width:1.5;stroke-miterlimit:10;}
	.st9{fill:none;stroke:#89BD49;stroke-width:1.5;stroke-linecap:round;stroke-miterlimit:10;}
	.st10{fill:none;stroke:#333333;stroke-width:1.5;stroke-miterlimit:10;}
	.st11{fill:#D8D8D8;stroke:#333333;stroke-width:1.5;stroke-miterlimit:10;}
	.st12{fill:#E5E5E5;stroke:#333333;stroke-width:1.5;stroke-miterlimit:10;}
	.st13{fill:#B0B0B0;stroke:#333333;stroke-width:1.5;}
	.st14{fill:#4E4D4D;stroke:#333333;stroke-width:1.5;stroke-miterlimit:10;}
	.st15{fill:#EBEBEB;stroke:#333333;stroke-width:1.5;stroke-miterlimit:10;}
	.st16{fill:none;stroke:#FFFFFF;stroke-width:1.5;stroke-linecap:round;}
	.st17{fill:#E6E6E6;stroke:#B3B3B3;stroke-width:1.5;stroke-miterlimit:10;}
	.st18{fill:#E6E6E6;stroke:#B3B3B3;stroke-width:1.5;stroke-linecap:round;stroke-miterlimit:10;}
	.st19{fill:#8CBF47;stroke:#333333;stroke-width:1.5;stroke-miterlimit:10;}
	.st20{fill:#8CBF47;stroke:#333333;stroke-width:1.5;stroke-linecap:round;stroke-miterlimit:10;}
	.st21{fill:#4D4D4D;stroke:#333333;stroke-width:1.5;stroke-linecap:round;stroke-miterlimit:10;}
	.st22{fill:#B3B3B3;stroke:#333333;stroke-width:1.5;stroke-miterlimit:10;}
	.st23{fill:#808080;stroke:#333333;stroke-width:1.5;stroke-miterlimit:10;}
	.st24{fill:#CCCCCC;stroke:#333333;stroke-width:1.5;stroke-linecap:round;stroke-miterlimit:10;}
	.st25{fill:none;stroke:#8CC03F;stroke-width:1.5;stroke-linecap:round;stroke-miterlimit:10;}
	.st26{fill:#FFFFFF;stroke:#333333;stroke-width:1.5;stroke-miterlimit:10;}
	.st27{fill:none;stroke:#333333;stroke-width:1.5;}
	.st28{fill:none;stroke:#333333;stroke-width:1.5;stroke-linecap:round;stroke-linejoin:round;}
	.st29{fill-rule:evenodd;clip-rule:evenodd;fill:#262529;stroke:#333333;stroke-width:1.5;}
	
		.st30{fill-rule:evenodd;clip-rule:evenodd;fill:#E6E6E6;stroke:#333333;stroke-width:1.5;stroke-linecap:round;stroke-linejoin:round;}
	
		.st31{fill-rule:evenodd;clip-rule:evenodd;fill:#8CC63F;stroke:#333333;stroke-width:1.5;stroke-linecap:round;stroke-linejoin:round;}
	
		.st32{fill-rule:evenodd;clip-rule:evenodd;fill:none;stroke:#333333;stroke-width:1.5;stroke-linecap:round;stroke-linejoin:round;}
	.st33{fill:#E6E6E6;stroke:#333333;stroke-width:1.5;stroke-miterlimit:10;}
	.st34{fill:#F8F8F8;stroke:#333333;stroke-width:1.5;stroke-miterlimit:10;}
	.st35{fill:none;stroke:#333333;stroke-width:1.5;stroke-linecap:round;}
	.st36{fill:none;stroke:#333333;stroke-width:1.5;stroke-linecap:round;stroke-miterlimit:10;}
	.st37{fill:none;stroke:#FFFFFF;stroke-width:1.5;stroke-linecap:round;stroke-linejoin:round;}
	.st38{fill:none;stroke:#FFFFFF;stroke-width:1.5;stroke-linecap:round;stroke-miterlimit:10;}
	.st39{fill:none;stroke:#FFFFFF;stroke-width:1.5;stroke-linecap:round;stroke-miterlimit:10;stroke-dasharray:9.749,11.6989;}
	.st40{fill:#E6E6E6;stroke:#E6E6E6;stroke-width:1.5;stroke-miterlimit:10;}
	.st41{fill:none;stroke:#E6E6E6;stroke-width:1.5;stroke-linecap:round;stroke-miterlimit:10;}
</style>
<g>
	<path class="st0" d="M157.1,25.7c0,0.8-0.1,1.5-0.4,2.3c0,0-0.1,0.3-0.1,0.3l-29.7,0c-0.3-0.8-0.5-1.7-0.5-2.6
		c0-4.1,3.7-7.5,8.2-7.5c0.2,0,0.4,0,0.5,0l0,0c1.2-3.1,4.4-5.2,8.2-5.2c4.2,0,7.8,2.7,8.6,6.4c0,0.1,0.3,0.1,0.4,0.1
		c0.9,0.2,1.7,0.7,2.4,1.3c0.8,0.6,1.4,1.4,1.8,2.3C156.8,23.9,157,24.8,157.1,25.7z"/>
	<g>
		<path class="st1" d="M21,7.6c0.9-0.3,1.8-0.7,2.8-0.8c1.7-0.1,2.9,0.7,4.1,1.7c0.2,0.1,0.5,0.1,0.6-0.1c0.4-0.9,0.8-1.8,1.5-2.5
			c0.8-0.8,1.9-1,2.9-1.3"/>
		<path class="st1" d="M25.6,7.1c1,0.4,1.5,1.1,2.2,1.7c0.2,0.2,0.6,0.1,0.7-0.2c0.3-0.8,0.5-1.7,1.1-2.5"/>
	</g>
	<g>
		<path class="st1" d="M396.6,37c0.7,0.2,1.5,0.2,2.1,0.6c1.1,0.6,1.4,1.9,1.6,3.3c0,0.2,0.2,0.3,0.4,0.1c0.7-0.6,1.4-1.2,2.2-1.5
			c0.9-0.4,1.7,0,2.4,0.1"/>
		<path class="st1" d="M399.7,38.6c0.4,0.8,0.3,1.6,0.5,2.4c0,0.3,0.3,0.3,0.5,0.2c0.6-0.5,1.2-1.3,1.9-1.7"/>
	</g>
	<g>
		<path class="st1" d="M46.1,20.7c0.8,0,1.8-0.2,2.6,0c1.5,0.4,2.2,1.7,2.9,3.1c0.1,0.2,0.4,0.2,0.5,0c0.6-0.8,1.2-1.7,2-2.3
			C55,20.8,56,21,57,20.9"/>
		<path class="st1" d="M50.2,21.6c0.7,0.7,0.9,1.6,1.3,2.5c0.1,0.3,0.5,0.3,0.6,0c0.5-0.8,0.9-1.7,1.7-2.4"/>
	</g>
	<path class="st0" d="M386,115.2c0,0.8-0.1,1.7-0.5,2.5l-0.1,0.3l-32.6,0c-0.4-0.9-0.6-1.8-0.6-2.9c0-4.5,4-8.2,9-8.2
		c0.2,0,0.4,0,0.6,0l0,0c1.4-3.4,4.9-5.7,9-5.7c4.7,0,8.5,3,9.4,7c0,0.1,0.3,0.1,0.4,0.1c1,0.2,1.9,0.8,2.7,1.4
		c0.9,0.7,1.6,1.6,2,2.6C385.8,113.2,386,114.2,386,115.2"/>
	<path class="st0" d="M396.2,115.8c0.9,0.2,1.6,1,1.6,2c0,0.1,0,0.2,0,0.2h-8.8c0-0.9,0.6-1.2,0.6-1.2c0-1,0.7-1.7,1.8-1.6h0
		c0.4-0.9,1.3-1.5,2.3-1.5C395,113.7,396,114.6,396.2,115.8"/>
	<path class="st0" d="M401.4,117.9h3.9c0.4,0,0.8-0.3,0.8-0.8c0-0.4-0.3-0.8-0.8-0.8h-3.9c-0.4,0-0.8,0.3-0.8,0.8
		C400.6,117.6,401,117.9,401.4,117.9"/>
	<path class="st0" d="M442.5,117.9h3.9c0.4,0,0.8-0.3,0.8-0.8c0-0.4-0.3-0.8-0.8-0.8h-3.9c-0.4,0-0.8,0.3-0.8,0.8
		C441.8,117.6,442.1,117.9,442.5,117.9"/>
	<path class="st0" d="M89.5,70.9c3.1,0.8,5.5,3.6,5.5,7c0,0.3,0,0.5,0,0.8l-30.6,0c-0.1-3,2.2-4.1,2.2-4.1c-0.1-3.3,2.4-5.9,6.3-5.6
		h0.1c1.4-3.1,4.4-5.3,8-5.3C85.2,63.8,88.8,66.8,89.5,70.9"/>
	<path class="st0" d="M57.6,75.7c1.2,0.3,2.1,1.4,2.1,2.7c0,0.1,0,0.2,0,0.3l-11.7,0c-0.1-1.1,0.8-1.6,0.8-1.6
		c0-1.3,0.9-2.2,2.4-2.1h0c0.5-1.2,1.7-2,3-2C56,73,57.3,74.1,57.6,75.7"/>
	<path class="st0" d="M98.8,78.8h14.3c0.4,0,0.7-0.3,0.7-0.7c0-0.4-0.3-0.7-0.7-0.7H98.8c-0.4,0-0.7,0.3-0.7,0.7
		C98.1,78.5,98.4,78.8,98.8,78.8"/>
	<path class="st0" d="M40.8,78.9h3.6c0.4,0,0.7-0.3,0.7-0.7c0-0.4-0.3-0.7-0.7-0.7h-3.6c-0.4,0-0.7,0.3-0.7,0.7
		C40.1,78.6,40.4,78.9,40.8,78.9"/>
	<path class="st0" d="M301.2,161.7c1.1,0.3,1.9,1.2,1.9,2.4c0,0.1,0,0.2,0,0.3h-10.4c0-1,0.7-1.4,0.7-1.4c0-1.1,0.8-2,2.2-1.9h0
		c0.5-1,1.5-1.8,2.7-1.8C299.7,159.3,300.9,160.3,301.2,161.7"/>
	<path class="st0" d="M307.3,164.2h4.6c0.5,0,0.9-0.4,0.9-0.9c0-0.5-0.4-0.9-0.9-0.9h-4.6c-0.5,0-0.9,0.4-0.9,0.9
		C306.4,163.8,306.8,164.2,307.3,164.2"/>
	<path class="st2" d="M302.7,38.3c-3,0.8-5.3,3.5-5.3,6.8c0,0.3,0,0.5,0,0.7l29.6,0c0.1-2.9-2.1-4-2.1-4c0.1-3.2-2.3-5.7-6.1-5.4
		h-0.1c-1.3-3-4.3-5.1-7.7-5.1C306.8,31.4,303.4,34.3,302.7,38.3"/>
	<path class="st2" d="M331.9,46h13.8c0.4,0,0.7-0.3,0.7-0.7c0-0.4-0.3-0.7-0.7-0.7h-13.8c-0.4,0-0.7,0.3-0.7,0.7
		C331.2,45.7,331.5,46,331.9,46"/>
	<path class="st2" d="M275.8,46.2h3.5c0.4,0,0.7-0.3,0.7-0.7c0-0.4-0.3-0.7-0.7-0.7h-3.5c-0.4,0-0.7,0.3-0.7,0.7
		C275.2,45.8,275.5,46.2,275.8,46.2"/>
	<path class="st2" d="M189.3,51.1h4.1c0.5,0,0.8-0.4,0.8-0.8c0-0.5-0.4-0.8-0.8-0.8h-4.1c-0.5,0-0.8,0.4-0.8,0.8
		C188.5,50.7,188.9,51.1,189.3,51.1"/>
	<path class="st2" d="M162.5,51.1h16.6c0.5,0,0.8-0.4,0.8-0.8c0-0.5-0.4-0.8-0.8-0.8h-16.6c-0.5,0-0.8,0.4-0.8,0.8
		C161.7,50.7,162.1,51.1,162.5,51.1"/>
	<path class="st2" d="M20.7,157.9h11.9c0.3,0,0.6-0.3,0.6-0.6c0-0.3-0.3-0.6-0.6-0.6H20.7c-0.3,0-0.6,0.3-0.6,0.6
		C20.1,157.6,20.4,157.9,20.7,157.9"/>
	<circle class="st3" cx="314.2" cy="278" r="1.8"/>
	<circle class="st3" cx="351.3" cy="278" r="0.9"/>
	<circle class="st3" cx="292.8" cy="276.2" r="0.9"/>
	<path class="st2" d="M292.5,117.9h3.7c0.4,0,0.7-0.3,0.7-0.7c0-0.4-0.3-0.7-0.7-0.7h-3.7c-0.4,0-0.7,0.3-0.7,0.7
		C291.8,117.5,292.1,117.9,292.5,117.9"/>
	<path class="st2" d="M268.3,117.9h15c0.4,0,0.7-0.3,0.7-0.7c0-0.4-0.3-0.7-0.7-0.7h-15c-0.4,0-0.7,0.3-0.7,0.7
		C267.5,117.5,267.9,117.9,268.3,117.9"/>
	<path class="st4" d="M119.7,263.6H45.9c-0.9,0-1.6-0.7-1.6-1.6V118.1c0-0.9,0.7-1.6,1.6-1.6h96.6c0.9,0,1.6,0.7,1.6,1.6v145"/>
	<path class="st5" d="M118.6,219.7v-21.1c0-1.1,0.9-1.6,2-1.6h14.1c1.1,0,2.4,0.5,2.4,1.6v21.1"/>
	<line class="st6" x1="127.9" y1="196.9" x2="127.9" y2="219.7"/>
	<line class="st4" x1="118.6" y1="204.4" x2="137" y2="204.4"/>
	<line class="st4" x1="118.6" y1="211.9" x2="137" y2="211.9"/>
	<path class="st4" d="M137.1,221.3h-18.7c0,0-0.1-0.1-0.1-0.1c-0.9-0.1-0.8-2.1,0.1-2.1c0,0,0-0.1,0.1-0.1h18.7c0,0,0,0.1,0.1,0.1
		c0.9,0,0.9,2,0.1,2.1C137.2,221.1,137.2,221.3,137.1,221.3z"/>
	<path class="st5" d="M85.1,219.7v-21.1c0-1.1,0.6-1.6,1.8-1.6H101c1.1,0,2.6,0.5,2.6,1.6v21.1"/>
	<line class="st4" x1="94.2" y1="196.9" x2="94.2" y2="219.7"/>
	<line class="st4" x1="85.1" y1="204.4" x2="103.6" y2="204.4"/>
	<line class="st4" x1="85.1" y1="211.9" x2="103.6" y2="211.9"/>
	<path class="st4" d="M103.5,221.3H84.7c0,0-0.1-0.1-0.1-0.1c-0.9-0.1-0.8-2.1,0.1-2.1c0,0,0-0.1,0.1-0.1h18.7c0,0,0,0.1,0.1,0.1
		c0.9,0,0.9,2,0.1,2.1C103.5,221.1,103.5,221.3,103.5,221.3z"/>
	<path class="st5" d="M51.9,219.7v-21.1c0-1.1,0.7-1.6,1.8-1.6h14.1c1.1,0,2.5,0.5,2.5,1.6v21.1"/>
	<line class="st4" x1="61.2" y1="196.9" x2="61.2" y2="219.7"/>
	<line class="st4" x1="51.9" y1="204.4" x2="70.3" y2="204.4"/>
	<line class="st4" x1="51.9" y1="211.9" x2="70.3" y2="211.9"/>
	<path class="st4" d="M70.3,221.3H51.6c0,0-0.1-0.1-0.1-0.1c-0.9-0.1-0.8-2.1,0.1-2.1c0,0,0-0.1,0.1-0.1h18.7c0,0,0,0.1,0.1,0.1
		c0.9,0,0.9,2,0.1,2.1C70.4,221.1,70.3,221.3,70.3,221.3z"/>
	<path class="st5" d="M118.1,184.4v-20.7c0-1.1,1.1-1.6,2.2-1.6h14.1c1.1,0,2.6,0.4,2.6,1.6v20.7"/>
	<line class="st6" x1="127.9" y1="162.1" x2="127.9" y2="184.4"/>
	<line class="st4" x1="118.1" y1="169.1" x2="137" y2="169.1"/>
	<line class="st4" x1="118.1" y1="176.6" x2="137" y2="176.6"/>
	<path class="st4" d="M136.9,186.4h-18.7c0,0-0.1-0.1-0.1-0.1c-0.9-0.1-0.8-1.9,0.1-1.9c0,0,0,0,0.1,0h18.7c0,0,0-0.1,0.1-0.1
		c0.9,0,0.9,1.9,0.1,2C137,186.4,136.9,186.4,136.9,186.4z"/>
	<path class="st5" d="M84.4,184.4v-20.7c0-1.1,1.1-1.6,2.2-1.6h14.1c1.1,0,2.8,0.4,2.8,1.6v20.7"/>
	<line class="st4" x1="94.2" y1="162.1" x2="94.2" y2="184.4"/>
	<line class="st4" x1="84.4" y1="169.1" x2="103.6" y2="169.1"/>
	<line class="st4" x1="84.4" y1="176.6" x2="103.6" y2="176.6"/>
	<path class="st4" d="M103.2,186.4H84.5c0,0-0.1-0.1-0.1-0.1c-0.9-0.1-0.8-1.9,0.1-1.9c0,0,0,0,0.1,0h18.7c0,0,0-0.1,0.1-0.1
		c0.9,0,0.9,1.9,0.1,2C103.3,186.4,103.2,186.4,103.2,186.4z"/>
	<path class="st5" d="M51.4,184.4v-20.7c0-1.1,0.9-1.6,2.1-1.6h14.1c1.1,0,2.8,0.4,2.8,1.6v20.7"/>
	<line class="st4" x1="61.2" y1="162.1" x2="61.2" y2="184.4"/>
	<line class="st4" x1="51.4" y1="169.1" x2="70.3" y2="169.1"/>
	<line class="st4" x1="51.4" y1="176.6" x2="70.3" y2="176.6"/>
	<path class="st4" d="M70,186.4H51.3c0,0-0.1-0.1-0.1-0.1c-0.9-0.1-0.8-1.9,0.1-1.9c0,0,0,0,0.1,0H70c0,0,0-0.1,0.1-0.1
		c0.9,0,0.9,1.9,0.1,2C70.1,186.4,70.1,186.4,70,186.4z"/>
	<path class="st5" d="M117.7,149.6v-21c0-1.1,1-2.2,2.2-2.2h14.1c1.1,0,2.7,1,2.7,2.2v21"/>
	<line class="st6" x1="127.5" y1="126.3" x2="127.5" y2="149.6"/>
	<line class="st4" x1="117.7" y1="134.5" x2="136.6" y2="134.5"/>
	<line class="st4" x1="117.7" y1="142.1" x2="136.6" y2="142.1"/>
	<path class="st4" d="M136.4,151.2h-18.7c0,0-0.1,0-0.1,0c-0.9-0.1-0.8-2,0.1-2c0,0,0,0,0.1,0h18.7c0,0,0,0,0.1,0
		c0.9,0,0.9,1.9,0.1,2C136.5,151.1,136.4,151.2,136.4,151.2z"/>
	<path class="st5" d="M84,149.6v-21c0-1.1,1-2.2,2.2-2.2h14.1c1.1,0,2.6,1,2.6,2.2v21"/>
	<line class="st4" x1="93.8" y1="126.3" x2="93.8" y2="149.6"/>
	<line class="st4" x1="84" y1="134.5" x2="102.9" y2="134.5"/>
	<line class="st4" x1="84" y1="142.1" x2="102.9" y2="142.1"/>
	<path class="st4" d="M102.7,151.2H84c0,0-0.1,0-0.1,0c-0.9-0.1-0.8-2,0.1-2c0,0,0,0,0.1,0h18.7c0,0,0,0,0.1,0c0.9,0,0.9,1.9,0.1,2
		C102.8,151.1,102.8,151.2,102.7,151.2z"/>
	<path class="st5" d="M51,149.6v-21c0-1.1,0.9-2.2,2-2.2h14.1c1.1,0,2.8,1,2.8,2.2v21"/>
	<line class="st4" x1="60.5" y1="126.3" x2="60.5" y2="149.6"/>
	<line class="st4" x1="51" y1="134.5" x2="69.9" y2="134.5"/>
	<line class="st4" x1="51" y1="142.1" x2="69.9" y2="142.1"/>
	<path class="st4" d="M69.5,151.2H50.8c0,0-0.1,0-0.1,0c-0.9-0.1-0.8-2,0.1-2c0,0,0,0,0.1,0h18.7c0,0,0,0,0.1,0c0.9,0,0.9,1.9,0.1,2
		C69.6,151.1,69.6,151.2,69.5,151.2z"/>
	<path class="st4" d="M83.7,263.5v-20.2c0-5.6,4.6-10.2,10.2-10.2h0c5.6,0,10.2,4.6,10.2,10.2v20.2"/>
	<path class="st5" d="M63.5,253h-5.8c-3.2,0-5.8-2.6-5.8-5.8v-8.6c0-3.2,2.6-5.8,5.8-5.8h5.8c3.2,0,5.8,2.6,5.8,5.8v8.6
		C69.4,250.4,66.7,253,63.5,253z"/>
	<line class="st4" x1="61.3" y1="235.8" x2="55.9" y2="239.6"/>
	<line class="st4" x1="57.7" y1="235.2" x2="56.1" y2="236.4"/>
	<path class="st5" d="M129.9,253.5h-5.8c-3.2,0-5.8-2.6-5.8-5.8V239c0-3.2,2.6-5.8,5.8-5.8h5.8c3.2,0,5.8,2.6,5.8,5.8v8.6
		C135.8,250.9,133.1,253.5,129.9,253.5z"/>
	<line class="st7" x1="135.6" y1="204.2" x2="144.9" y2="210.8"/>
	<rect x="122.8" y="72.2" class="st8" width="129.6" height="191.1"/>
	<g>
		<g>
			<line class="st9" x1="123.8" y1="205.5" x2="193.9" y2="205.4"/>
			<line class="st9" x1="123.8" y1="199.3" x2="193.9" y2="199.1"/>
			<line class="st9" x1="132.5" y1="205.2" x2="132.5" y2="199.5"/>
			<line class="st9" x1="141.4" y1="205.2" x2="141.4" y2="199.5"/>
			<line class="st9" x1="150" y1="205.2" x2="150" y2="199.5"/>
			<line class="st9" x1="158.9" y1="205.2" x2="158.9" y2="199.5"/>
			<line class="st9" x1="167.5" y1="205.2" x2="167.5" y2="199.5"/>
			<line class="st9" x1="176.4" y1="205.2" x2="176.4" y2="199.5"/>
			<line class="st9" x1="185.3" y1="205.2" x2="185.3" y2="199.5"/>
			<line class="st9" x1="123.9" y1="211.9" x2="193.9" y2="211.8"/>
			<line class="st9" x1="128.1" y1="211.7" x2="128.1" y2="206"/>
			<line class="st9" x1="137" y1="211.7" x2="137" y2="206"/>
			<line class="st9" x1="145.6" y1="211.7" x2="145.6" y2="206"/>
			<line class="st9" x1="154.4" y1="211.7" x2="154.4" y2="206"/>
			<line class="st9" x1="163.1" y1="211.7" x2="163.1" y2="206"/>
			<line class="st9" x1="172" y1="211.7" x2="172" y2="206"/>
			<line class="st9" x1="180.9" y1="211.7" x2="180.9" y2="206"/>
			<line class="st9" x1="190.1" y1="211.7" x2="190.1" y2="206"/>
			<line class="st9" x1="123.9" y1="218.4" x2="194" y2="218.3"/>
			<line class="st9" x1="132.6" y1="218.1" x2="132.6" y2="212.4"/>
			<line class="st9" x1="141.5" y1="218.1" x2="141.5" y2="212.4"/>
			<line class="st9" x1="150" y1="218.1" x2="150" y2="212.4"/>
			<line class="st9" x1="158.9" y1="218.1" x2="158.9" y2="212.4"/>
			<line class="st9" x1="167.6" y1="218.1" x2="167.6" y2="212.4"/>
			<line class="st9" x1="176.5" y1="218.1" x2="176.5" y2="212.4"/>
			<line class="st9" x1="185.4" y1="218.1" x2="185.4" y2="212.4"/>
			<line class="st9" x1="124" y1="224.8" x2="193.9" y2="224.7"/>
			<line class="st9" x1="128.2" y1="224.6" x2="128.2" y2="218.9"/>
			<line class="st9" x1="137.1" y1="224.6" x2="137.1" y2="218.9"/>
			<line class="st9" x1="145.6" y1="224.6" x2="145.6" y2="218.9"/>
			<line class="st9" x1="154.5" y1="224.6" x2="154.5" y2="218.9"/>
			<line class="st9" x1="163.2" y1="224.6" x2="163.2" y2="218.9"/>
			<line class="st9" x1="172.1" y1="224.6" x2="172.1" y2="218.9"/>
			<line class="st9" x1="180.9" y1="224.6" x2="180.9" y2="218.9"/>
			<line class="st9" x1="190.2" y1="224.6" x2="190.2" y2="218.9"/>
			<line class="st9" x1="124.2" y1="231" x2="194.3" y2="230.9"/>
			<line class="st9" x1="132.9" y1="230.7" x2="132.9" y2="225"/>
			<line class="st9" x1="141.8" y1="230.7" x2="141.8" y2="225"/>
			<line class="st9" x1="150.3" y1="230.7" x2="150.3" y2="225"/>
			<line class="st9" x1="159.2" y1="230.7" x2="159.2" y2="225"/>
			<line class="st9" x1="167.9" y1="230.7" x2="167.9" y2="225"/>
			<line class="st9" x1="176.8" y1="230.7" x2="176.8" y2="225"/>
			<line class="st9" x1="185.7" y1="230.7" x2="185.7" y2="225"/>
			<line class="st9" x1="124.3" y1="237.4" x2="194.3" y2="237.3"/>
			<line class="st9" x1="128.5" y1="237.2" x2="128.5" y2="231.5"/>
			<line class="st9" x1="137.4" y1="237.2" x2="137.4" y2="231.5"/>
			<line class="st9" x1="145.9" y1="237.2" x2="145.9" y2="231.5"/>
			<line class="st9" x1="154.8" y1="237.2" x2="154.8" y2="231.5"/>
			<line class="st9" x1="163.5" y1="237.2" x2="163.5" y2="231.5"/>
			<line class="st9" x1="172.4" y1="237.2" x2="172.4" y2="231.5"/>
			<line class="st9" x1="181.3" y1="237.2" x2="181.3" y2="231.5"/>
			<line class="st9" x1="190.5" y1="237.2" x2="190.5" y2="231.5"/>
			<line class="st9" x1="124.3" y1="243.9" x2="194.3" y2="243.8"/>
			<line class="st9" x1="133" y1="243.6" x2="133" y2="237.9"/>
			<line class="st9" x1="141.8" y1="243.6" x2="141.8" y2="237.9"/>
			<line class="st9" x1="150.4" y1="243.6" x2="150.4" y2="237.9"/>
			<line class="st9" x1="159.3" y1="243.6" x2="159.3" y2="237.9"/>
			<line class="st9" x1="168" y1="243.6" x2="168" y2="237.9"/>
			<line class="st9" x1="176.9" y1="243.6" x2="176.9" y2="237.9"/>
			<line class="st9" x1="185.7" y1="243.6" x2="185.7" y2="237.9"/>
			<line class="st9" x1="124.4" y1="250.3" x2="194.3" y2="250.2"/>
			<line class="st9" x1="128.5" y1="250.1" x2="128.5" y2="244.4"/>
			<line class="st9" x1="137.4" y1="250.1" x2="137.4" y2="244.4"/>
			<line class="st9" x1="146" y1="250.1" x2="146" y2="244.4"/>
			<line class="st9" x1="154.9" y1="250.1" x2="154.9" y2="244.4"/>
			<line class="st9" x1="163.5" y1="250.1" x2="163.5" y2="244.4"/>
			<line class="st9" x1="172.4" y1="250.1" x2="172.4" y2="244.4"/>
			<line class="st9" x1="181.3" y1="250.1" x2="181.3" y2="244.4"/>
			<line class="st9" x1="190.5" y1="250.1" x2="190.5" y2="244.4"/>
			<line class="st9" x1="124.2" y1="256.2" x2="194.3" y2="256.1"/>
			<line class="st9" x1="132.9" y1="256" x2="132.9" y2="250.3"/>
			<line class="st9" x1="141.8" y1="256" x2="141.8" y2="250.3"/>
			<line class="st9" x1="150.3" y1="256" x2="150.3" y2="250.3"/>
			<line class="st9" x1="159.2" y1="256" x2="159.2" y2="250.3"/>
			<line class="st9" x1="167.9" y1="256" x2="167.9" y2="250.3"/>
			<line class="st9" x1="176.8" y1="256" x2="176.8" y2="250.3"/>
			<line class="st9" x1="185.7" y1="256" x2="185.7" y2="250.3"/>
			<line class="st9" x1="124.3" y1="262.7" x2="194.3" y2="262.5"/>
			<line class="st9" x1="128.5" y1="262.4" x2="128.5" y2="256.7"/>
			<line class="st9" x1="137.4" y1="262.4" x2="137.4" y2="256.7"/>
			<line class="st9" x1="145.9" y1="262.4" x2="145.9" y2="256.7"/>
			<line class="st9" x1="154.8" y1="262.4" x2="154.8" y2="256.7"/>
			<line class="st9" x1="163.5" y1="262.4" x2="163.5" y2="256.7"/>
			<line class="st9" x1="172.4" y1="262.4" x2="172.4" y2="256.7"/>
			<line class="st9" x1="181.3" y1="262.4" x2="181.3" y2="256.7"/>
			<line class="st9" x1="190.5" y1="262.4" x2="190.5" y2="256.7"/>
			<line class="st9" x1="193.9" y1="205.4" x2="251.3" y2="205.2"/>
			<line class="st9" x1="193.9" y1="199.1" x2="251.3" y2="199"/>
			<line class="st9" x1="203.6" y1="205.1" x2="203.6" y2="199.4"/>
			<line class="st9" x1="212.5" y1="205.1" x2="212.5" y2="199.4"/>
			<line class="st9" x1="221.1" y1="205.1" x2="221.1" y2="199.4"/>
			<line class="st9" x1="230" y1="205.1" x2="230" y2="199.4"/>
			<line class="st9" x1="238.6" y1="205.1" x2="238.6" y2="199.4"/>
			<line class="st9" x1="247.5" y1="205.1" x2="247.5" y2="199.4"/>
			<line class="st9" x1="193.9" y1="211.8" x2="251.3" y2="211.7"/>
			<line class="st9" x1="199.2" y1="211.5" x2="199.2" y2="205.9"/>
			<line class="st9" x1="208.1" y1="211.5" x2="208.1" y2="205.9"/>
			<line class="st9" x1="216.7" y1="211.5" x2="216.7" y2="205.9"/>
			<line class="st9" x1="225.5" y1="211.5" x2="225.5" y2="205.9"/>
			<line class="st9" x1="234.2" y1="211.5" x2="234.2" y2="205.9"/>
			<line class="st9" x1="243.1" y1="211.5" x2="243.1" y2="205.9"/>
			<line class="st9" x1="193.9" y1="218.3" x2="251.4" y2="218.1"/>
			<line class="st9" x1="203.7" y1="218" x2="203.7" y2="212.3"/>
			<line class="st9" x1="212.6" y1="218" x2="212.6" y2="212.3"/>
			<line class="st9" x1="221.1" y1="218" x2="221.1" y2="212.3"/>
			<line class="st9" x1="230" y1="218" x2="230" y2="212.3"/>
			<line class="st9" x1="238.7" y1="218" x2="238.7" y2="212.3"/>
			<line class="st9" x1="247.6" y1="218" x2="247.6" y2="212.3"/>
			<line class="st9" x1="193.9" y1="224.7" x2="251.4" y2="224.6"/>
			<line class="st9" x1="199.3" y1="224.4" x2="199.3" y2="218.8"/>
			<line class="st9" x1="208.2" y1="224.4" x2="208.2" y2="218.8"/>
			<line class="st9" x1="216.7" y1="224.4" x2="216.7" y2="218.8"/>
			<line class="st9" x1="225.6" y1="224.4" x2="225.6" y2="218.8"/>
			<line class="st9" x1="234.3" y1="224.4" x2="234.3" y2="218.8"/>
			<line class="st9" x1="243.2" y1="224.4" x2="243.2" y2="218.8"/>
			<line class="st9" x1="194.2" y1="230.9" x2="251.6" y2="230.7"/>
			<line class="st9" x1="204" y1="230.6" x2="204" y2="224.9"/>
			<line class="st9" x1="212.9" y1="230.6" x2="212.9" y2="224.9"/>
			<line class="st9" x1="221.4" y1="230.6" x2="221.4" y2="224.9"/>
			<line class="st9" x1="230.3" y1="230.6" x2="230.3" y2="224.9"/>
			<line class="st9" x1="239" y1="230.6" x2="239" y2="224.9"/>
			<line class="st9" x1="247.9" y1="230.6" x2="247.9" y2="224.9"/>
			<line class="st9" x1="194.2" y1="237.3" x2="251.6" y2="237.2"/>
			<line class="st9" x1="199.6" y1="237" x2="199.6" y2="231.4"/>
			<line class="st9" x1="208.5" y1="237" x2="208.5" y2="231.4"/>
			<line class="st9" x1="217" y1="237" x2="217" y2="231.4"/>
			<line class="st9" x1="225.9" y1="237" x2="225.9" y2="231.4"/>
			<line class="st9" x1="234.6" y1="237" x2="234.6" y2="231.4"/>
			<line class="st9" x1="243.5" y1="237" x2="243.5" y2="231.4"/>
			<line class="st9" x1="194.2" y1="243.8" x2="251.7" y2="243.6"/>
			<line class="st9" x1="204.1" y1="243.5" x2="204.1" y2="237.8"/>
			<line class="st9" x1="212.9" y1="243.5" x2="212.9" y2="237.8"/>
			<line class="st9" x1="221.5" y1="243.5" x2="221.5" y2="237.8"/>
			<line class="st9" x1="230.4" y1="243.5" x2="230.4" y2="237.8"/>
			<line class="st9" x1="239.1" y1="243.5" x2="239.1" y2="237.8"/>
			<line class="st9" x1="248" y1="243.5" x2="248" y2="237.8"/>
			<line class="st9" x1="194.2" y1="250.2" x2="251.7" y2="250.1"/>
			<line class="st9" x1="199.6" y1="249.9" x2="199.6" y2="244.3"/>
			<line class="st9" x1="208.5" y1="249.9" x2="208.5" y2="244.3"/>
			<line class="st9" x1="217.1" y1="249.9" x2="217.1" y2="244.3"/>
			<line class="st9" x1="226" y1="249.9" x2="226" y2="244.3"/>
			<line class="st9" x1="234.6" y1="249.9" x2="234.6" y2="244.3"/>
			<line class="st9" x1="243.5" y1="249.9" x2="243.5" y2="244.3"/>
			<line class="st9" x1="194.2" y1="256.1" x2="251.6" y2="255.9"/>
			<line class="st9" x1="204" y1="255.8" x2="204" y2="250.1"/>
			<line class="st9" x1="212.9" y1="255.8" x2="212.9" y2="250.1"/>
			<line class="st9" x1="221.4" y1="255.8" x2="221.4" y2="250.1"/>
			<line class="st9" x1="230.3" y1="255.8" x2="230.3" y2="250.1"/>
			<line class="st9" x1="239" y1="255.8" x2="239" y2="250.1"/>
			<line class="st9" x1="247.9" y1="255.8" x2="247.9" y2="250.1"/>
			<line class="st9" x1="194.2" y1="262.5" x2="251.6" y2="262.4"/>
			<line class="st9" x1="199.6" y1="262.3" x2="199.6" y2="256.6"/>
			<line class="st9" x1="208.5" y1="262.3" x2="208.5" y2="256.6"/>
			<line class="st9" x1="217" y1="262.3" x2="217" y2="256.6"/>
			<line class="st9" x1="225.9" y1="262.3" x2="225.9" y2="256.6"/>
			<line class="st9" x1="234.6" y1="262.3" x2="234.6" y2="256.6"/>
			<line class="st9" x1="243.5" y1="262.3" x2="243.5" y2="256.6"/>
			<line class="st9" x1="194.6" y1="205" x2="194.6" y2="199.3"/>
			<line class="st9" x1="194.7" y1="217.9" x2="194.7" y2="212.2"/>
			<line class="st9" x1="195" y1="230.5" x2="195" y2="224.8"/>
			<line class="st9" x1="195.1" y1="243.4" x2="195.1" y2="237.7"/>
			<line class="st9" x1="195" y1="255.7" x2="195" y2="250.1"/>
		</g>
		<line class="st9" x1="124" y1="142.1" x2="194" y2="142"/>
		<line class="st9" x1="123.9" y1="135.9" x2="194" y2="135.7"/>
		<line class="st9" x1="132.6" y1="141.8" x2="132.6" y2="136.1"/>
		<line class="st9" x1="141.5" y1="141.8" x2="141.5" y2="136.1"/>
		<line class="st9" x1="150.1" y1="141.8" x2="150.1" y2="136.1"/>
		<line class="st9" x1="159" y1="141.8" x2="159" y2="136.1"/>
		<line class="st9" x1="167.7" y1="141.8" x2="167.7" y2="136.1"/>
		<line class="st9" x1="176.5" y1="141.8" x2="176.5" y2="136.1"/>
		<line class="st9" x1="185.4" y1="141.8" x2="185.4" y2="136.1"/>
		<line class="st9" x1="124.1" y1="148.5" x2="194" y2="148.4"/>
		<line class="st9" x1="128.2" y1="148.3" x2="128.2" y2="142.6"/>
		<line class="st9" x1="137.1" y1="148.3" x2="137.1" y2="142.6"/>
		<line class="st9" x1="145.7" y1="148.3" x2="145.7" y2="142.6"/>
		<line class="st9" x1="154.6" y1="148.3" x2="154.6" y2="142.6"/>
		<line class="st9" x1="163.2" y1="148.3" x2="163.2" y2="142.6"/>
		<line class="st9" x1="172.1" y1="148.3" x2="172.1" y2="142.6"/>
		<line class="st9" x1="181" y1="148.3" x2="181" y2="142.6"/>
		<line class="st9" x1="190.2" y1="148.3" x2="190.2" y2="142.6"/>
		<line class="st9" x1="124" y1="155" x2="194.1" y2="154.9"/>
		<line class="st9" x1="132.7" y1="154.7" x2="132.7" y2="149"/>
		<line class="st9" x1="141.6" y1="154.7" x2="141.6" y2="149"/>
		<line class="st9" x1="150.1" y1="154.7" x2="150.1" y2="149"/>
		<line class="st9" x1="159" y1="154.7" x2="159" y2="149"/>
		<line class="st9" x1="167.7" y1="154.7" x2="167.7" y2="149"/>
		<line class="st9" x1="176.6" y1="154.7" x2="176.6" y2="149"/>
		<line class="st9" x1="185.5" y1="154.7" x2="185.5" y2="149"/>
		<line class="st9" x1="124.1" y1="161.4" x2="194" y2="161.3"/>
		<line class="st9" x1="128.3" y1="161.2" x2="128.3" y2="155.5"/>
		<line class="st9" x1="137.2" y1="161.2" x2="137.2" y2="155.5"/>
		<line class="st9" x1="145.7" y1="161.2" x2="145.7" y2="155.5"/>
		<line class="st9" x1="154.6" y1="161.2" x2="154.6" y2="155.5"/>
		<line class="st9" x1="163.3" y1="161.2" x2="163.3" y2="155.5"/>
		<line class="st9" x1="172.2" y1="161.2" x2="172.2" y2="155.5"/>
		<line class="st9" x1="181" y1="161.2" x2="181" y2="155.5"/>
		<line class="st9" x1="190.3" y1="161.2" x2="190.3" y2="155.5"/>
		<line class="st9" x1="124.3" y1="167.6" x2="194.4" y2="167.5"/>
		<line class="st9" x1="133" y1="167.3" x2="133" y2="161.6"/>
		<line class="st9" x1="141.9" y1="167.3" x2="141.9" y2="161.6"/>
		<line class="st9" x1="150.5" y1="167.3" x2="150.5" y2="161.6"/>
		<line class="st9" x1="159.4" y1="167.3" x2="159.4" y2="161.6"/>
		<line class="st9" x1="168" y1="167.3" x2="168" y2="161.6"/>
		<line class="st9" x1="176.9" y1="167.3" x2="176.9" y2="161.6"/>
		<line class="st9" x1="185.8" y1="167.3" x2="185.8" y2="161.6"/>
		<line class="st9" x1="124.4" y1="174" x2="194.4" y2="173.9"/>
		<line class="st9" x1="128.6" y1="173.8" x2="128.6" y2="168.1"/>
		<line class="st9" x1="137.5" y1="173.8" x2="137.5" y2="168.1"/>
		<line class="st9" x1="146" y1="173.8" x2="146" y2="168.1"/>
		<line class="st9" x1="154.9" y1="173.8" x2="154.9" y2="168.1"/>
		<line class="st9" x1="163.6" y1="173.8" x2="163.6" y2="168.1"/>
		<line class="st9" x1="172.5" y1="173.8" x2="172.5" y2="168.1"/>
		<line class="st9" x1="181.4" y1="173.8" x2="181.4" y2="168.1"/>
		<line class="st9" x1="190.6" y1="173.8" x2="190.6" y2="168.1"/>
		<line class="st9" x1="124.4" y1="180.5" x2="194.4" y2="180.4"/>
		<line class="st9" x1="133.1" y1="180.2" x2="133.1" y2="174.5"/>
		<line class="st9" x1="142" y1="180.2" x2="142" y2="174.5"/>
		<line class="st9" x1="150.5" y1="180.2" x2="150.5" y2="174.5"/>
		<line class="st9" x1="159.4" y1="180.2" x2="159.4" y2="174.5"/>
		<line class="st9" x1="168.1" y1="180.2" x2="168.1" y2="174.5"/>
		<line class="st9" x1="177" y1="180.2" x2="177" y2="174.5"/>
		<line class="st9" x1="185.8" y1="180.2" x2="185.8" y2="174.5"/>
		<line class="st9" x1="124.5" y1="186.9" x2="194.4" y2="186.8"/>
		<line class="st9" x1="128.6" y1="186.7" x2="128.6" y2="181"/>
		<line class="st9" x1="137.5" y1="186.7" x2="137.5" y2="181"/>
		<line class="st9" x1="146.1" y1="186.7" x2="146.1" y2="181"/>
		<line class="st9" x1="155" y1="186.7" x2="155" y2="181"/>
		<line class="st9" x1="163.7" y1="186.7" x2="163.7" y2="181"/>
		<line class="st9" x1="172.5" y1="186.7" x2="172.5" y2="181"/>
		<line class="st9" x1="181.4" y1="186.7" x2="181.4" y2="181"/>
		<line class="st9" x1="190.6" y1="186.7" x2="190.6" y2="181"/>
		<line class="st9" x1="124.3" y1="192.8" x2="194.4" y2="192.7"/>
		<line class="st9" x1="133" y1="192.6" x2="133" y2="186.9"/>
		<line class="st9" x1="141.9" y1="192.6" x2="141.9" y2="186.9"/>
		<line class="st9" x1="150.5" y1="192.6" x2="150.5" y2="186.9"/>
		<line class="st9" x1="159.4" y1="192.6" x2="159.4" y2="186.9"/>
		<line class="st9" x1="168" y1="192.6" x2="168" y2="186.9"/>
		<line class="st9" x1="176.9" y1="192.6" x2="176.9" y2="186.9"/>
		<line class="st9" x1="185.8" y1="192.6" x2="185.8" y2="186.9"/>
		<line class="st9" x1="128.6" y1="199" x2="128.6" y2="193.3"/>
		<line class="st9" x1="137.5" y1="199" x2="137.5" y2="193.3"/>
		<line class="st9" x1="146" y1="199" x2="146" y2="193.3"/>
		<line class="st9" x1="154.9" y1="199" x2="154.9" y2="193.3"/>
		<line class="st9" x1="163.6" y1="199" x2="163.6" y2="193.3"/>
		<line class="st9" x1="172.5" y1="199" x2="172.5" y2="193.3"/>
		<line class="st9" x1="181.4" y1="199" x2="181.4" y2="193.3"/>
		<line class="st9" x1="190.6" y1="199" x2="190.6" y2="193.3"/>
		<line class="st9" x1="194" y1="142" x2="251.5" y2="141.8"/>
		<line class="st9" x1="194" y1="135.7" x2="251.5" y2="135.6"/>
		<line class="st9" x1="203.7" y1="141.7" x2="203.7" y2="136"/>
		<line class="st9" x1="212.6" y1="141.7" x2="212.6" y2="136"/>
		<line class="st9" x1="221.2" y1="141.7" x2="221.2" y2="136"/>
		<line class="st9" x1="230.1" y1="141.7" x2="230.1" y2="136"/>
		<line class="st9" x1="238.8" y1="141.7" x2="238.8" y2="136"/>
		<line class="st9" x1="247.6" y1="141.7" x2="247.6" y2="136"/>
		<line class="st9" x1="194" y1="148.4" x2="251.4" y2="148.3"/>
		<line class="st9" x1="199.3" y1="148.1" x2="199.3" y2="142.5"/>
		<line class="st9" x1="208.2" y1="148.1" x2="208.2" y2="142.5"/>
		<line class="st9" x1="216.8" y1="148.1" x2="216.8" y2="142.5"/>
		<line class="st9" x1="225.7" y1="148.1" x2="225.7" y2="142.5"/>
		<line class="st9" x1="234.3" y1="148.1" x2="234.3" y2="142.5"/>
		<line class="st9" x1="243.2" y1="148.1" x2="243.2" y2="142.5"/>
		<line class="st9" x1="194.1" y1="154.9" x2="251.5" y2="154.7"/>
		<line class="st9" x1="203.8" y1="154.6" x2="203.8" y2="148.9"/>
		<line class="st9" x1="212.7" y1="154.6" x2="212.7" y2="148.9"/>
		<line class="st9" x1="221.2" y1="154.6" x2="221.2" y2="148.9"/>
		<line class="st9" x1="230.1" y1="154.6" x2="230.1" y2="148.9"/>
		<line class="st9" x1="238.8" y1="154.6" x2="238.8" y2="148.9"/>
		<line class="st9" x1="247.7" y1="154.6" x2="247.7" y2="148.9"/>
		<line class="st9" x1="194" y1="161.3" x2="251.5" y2="161.2"/>
		<line class="st9" x1="199.4" y1="161" x2="199.4" y2="155.4"/>
		<line class="st9" x1="208.3" y1="161" x2="208.3" y2="155.4"/>
		<line class="st9" x1="216.8" y1="161" x2="216.8" y2="155.4"/>
		<line class="st9" x1="225.7" y1="161" x2="225.7" y2="155.4"/>
		<line class="st9" x1="234.4" y1="161" x2="234.4" y2="155.4"/>
		<line class="st9" x1="243.3" y1="161" x2="243.3" y2="155.4"/>
		<line class="st9" x1="194.3" y1="167.5" x2="251.8" y2="167.3"/>
		<line class="st9" x1="204.1" y1="167.2" x2="204.1" y2="161.5"/>
		<line class="st9" x1="213" y1="167.2" x2="213" y2="161.5"/>
		<line class="st9" x1="221.6" y1="167.2" x2="221.6" y2="161.5"/>
		<line class="st9" x1="230.5" y1="167.2" x2="230.5" y2="161.5"/>
		<line class="st9" x1="239.1" y1="167.2" x2="239.1" y2="161.5"/>
		<line class="st9" x1="248" y1="167.2" x2="248" y2="161.5"/>
		<line class="st9" x1="194.3" y1="173.9" x2="251.7" y2="173.8"/>
		<line class="st9" x1="199.7" y1="173.6" x2="199.7" y2="168"/>
		<line class="st9" x1="208.6" y1="173.6" x2="208.6" y2="168"/>
		<line class="st9" x1="217.1" y1="173.6" x2="217.1" y2="168"/>
		<line class="st9" x1="226" y1="173.6" x2="226" y2="168"/>
		<line class="st9" x1="234.7" y1="173.6" x2="234.7" y2="168"/>
		<line class="st9" x1="243.6" y1="173.6" x2="243.6" y2="168"/>
		<line class="st9" x1="194.4" y1="180.4" x2="251.8" y2="180.2"/>
		<line class="st9" x1="204.2" y1="180.1" x2="204.2" y2="174.4"/>
		<line class="st9" x1="213.1" y1="180.1" x2="213.1" y2="174.4"/>
		<line class="st9" x1="221.6" y1="180.1" x2="221.6" y2="174.4"/>
		<line class="st9" x1="230.5" y1="180.1" x2="230.5" y2="174.4"/>
		<line class="st9" x1="239.2" y1="180.1" x2="239.2" y2="174.4"/>
		<line class="st9" x1="248.1" y1="180.1" x2="248.1" y2="174.4"/>
		<line class="st9" x1="194.3" y1="186.8" x2="251.8" y2="186.7"/>
		<line class="st9" x1="199.7" y1="186.5" x2="199.7" y2="180.9"/>
		<line class="st9" x1="208.6" y1="186.5" x2="208.6" y2="180.9"/>
		<line class="st9" x1="217.2" y1="186.5" x2="217.2" y2="180.9"/>
		<line class="st9" x1="226.1" y1="186.5" x2="226.1" y2="180.9"/>
		<line class="st9" x1="234.8" y1="186.5" x2="234.8" y2="180.9"/>
		<line class="st9" x1="243.6" y1="186.5" x2="243.6" y2="180.9"/>
		<line class="st9" x1="194.3" y1="192.7" x2="251.8" y2="192.5"/>
		<line class="st9" x1="204.1" y1="192.4" x2="204.1" y2="186.7"/>
		<line class="st9" x1="213" y1="192.4" x2="213" y2="186.7"/>
		<line class="st9" x1="221.6" y1="192.4" x2="221.6" y2="186.7"/>
		<line class="st9" x1="230.5" y1="192.4" x2="230.5" y2="186.7"/>
		<line class="st9" x1="239.1" y1="192.4" x2="239.1" y2="186.7"/>
		<line class="st9" x1="248" y1="192.4" x2="248" y2="186.7"/>
		<line class="st9" x1="199.7" y1="198.9" x2="199.7" y2="193.2"/>
		<line class="st9" x1="208.6" y1="198.9" x2="208.6" y2="193.2"/>
		<line class="st9" x1="217.1" y1="198.9" x2="217.1" y2="193.2"/>
		<line class="st9" x1="226" y1="198.9" x2="226" y2="193.2"/>
		<line class="st9" x1="234.7" y1="198.9" x2="234.7" y2="193.2"/>
		<line class="st9" x1="243.6" y1="198.9" x2="243.6" y2="193.2"/>
		<line class="st9" x1="194.8" y1="141.6" x2="194.8" y2="135.9"/>
		<line class="st9" x1="194.8" y1="154.5" x2="194.8" y2="148.8"/>
		<line class="st9" x1="195.1" y1="167.1" x2="195.1" y2="161.4"/>
		<line class="st9" x1="195.2" y1="180" x2="195.2" y2="174.3"/>
		<line class="st9" x1="195.1" y1="192.3" x2="195.1" y2="186.7"/>
		<line class="st9" x1="123.3" y1="90.9" x2="193.4" y2="90.7"/>
		<line class="st9" x1="123.3" y1="84.7" x2="193.4" y2="84.5"/>
		<line class="st9" x1="132" y1="90.6" x2="132" y2="84.9"/>
		<line class="st9" x1="140.9" y1="90.6" x2="140.9" y2="84.9"/>
		<line class="st9" x1="149.5" y1="90.6" x2="149.5" y2="84.9"/>
		<line class="st9" x1="158.4" y1="90.6" x2="158.4" y2="84.9"/>
		<line class="st9" x1="167" y1="90.6" x2="167" y2="84.9"/>
		<line class="st9" x1="175.9" y1="90.6" x2="175.9" y2="84.9"/>
		<line class="st9" x1="184.8" y1="90.6" x2="184.8" y2="84.9"/>
		<line class="st9" x1="123.5" y1="97.3" x2="193.4" y2="97.2"/>
		<line class="st9" x1="127.6" y1="97" x2="127.6" y2="91.4"/>
		<line class="st9" x1="136.5" y1="97" x2="136.5" y2="91.4"/>
		<line class="st9" x1="145.1" y1="97" x2="145.1" y2="91.4"/>
		<line class="st9" x1="154" y1="97" x2="154" y2="91.4"/>
		<line class="st9" x1="162.6" y1="97" x2="162.6" y2="91.4"/>
		<line class="st9" x1="171.5" y1="97" x2="171.5" y2="91.4"/>
		<line class="st9" x1="180.4" y1="97" x2="180.4" y2="91.4"/>
		<line class="st9" x1="189.6" y1="97" x2="189.6" y2="91.4"/>
		<line class="st9" x1="123.4" y1="103.8" x2="193.5" y2="103.6"/>
		<line class="st9" x1="132.1" y1="103.5" x2="132.1" y2="97.8"/>
		<line class="st9" x1="141" y1="103.5" x2="141" y2="97.8"/>
		<line class="st9" x1="149.5" y1="103.5" x2="149.5" y2="97.8"/>
		<line class="st9" x1="158.4" y1="103.5" x2="158.4" y2="97.8"/>
		<line class="st9" x1="167.1" y1="103.5" x2="167.1" y2="97.8"/>
		<line class="st9" x1="176" y1="103.5" x2="176" y2="97.8"/>
		<line class="st9" x1="184.9" y1="103.5" x2="184.9" y2="97.8"/>
		<line class="st9" x1="123.5" y1="110.2" x2="193.4" y2="110.1"/>
		<line class="st9" x1="127.7" y1="109.9" x2="127.7" y2="104.3"/>
		<line class="st9" x1="136.6" y1="109.9" x2="136.6" y2="104.3"/>
		<line class="st9" x1="145.1" y1="109.9" x2="145.1" y2="104.3"/>
		<line class="st9" x1="154" y1="109.9" x2="154" y2="104.3"/>
		<line class="st9" x1="162.7" y1="109.9" x2="162.7" y2="104.3"/>
		<line class="st9" x1="171.6" y1="109.9" x2="171.6" y2="104.3"/>
		<line class="st9" x1="180.4" y1="109.9" x2="180.4" y2="104.3"/>
		<line class="st9" x1="189.7" y1="109.9" x2="189.7" y2="104.3"/>
		<line class="st9" x1="123.7" y1="116.4" x2="193.8" y2="116.2"/>
		<line class="st9" x1="132.4" y1="116.1" x2="132.4" y2="110.4"/>
		<line class="st9" x1="141.3" y1="116.1" x2="141.3" y2="110.4"/>
		<line class="st9" x1="149.9" y1="116.1" x2="149.9" y2="110.4"/>
		<line class="st9" x1="158.7" y1="116.1" x2="158.7" y2="110.4"/>
		<line class="st9" x1="167.4" y1="116.1" x2="167.4" y2="110.4"/>
		<line class="st9" x1="176.3" y1="116.1" x2="176.3" y2="110.4"/>
		<line class="st9" x1="185.2" y1="116.1" x2="185.2" y2="110.4"/>
		<line class="st9" x1="123.8" y1="122.8" x2="193.8" y2="122.7"/>
		<line class="st9" x1="128" y1="122.5" x2="128" y2="116.9"/>
		<line class="st9" x1="136.9" y1="122.5" x2="136.9" y2="116.9"/>
		<line class="st9" x1="145.4" y1="122.5" x2="145.4" y2="116.9"/>
		<line class="st9" x1="154.3" y1="122.5" x2="154.3" y2="116.9"/>
		<line class="st9" x1="163" y1="122.5" x2="163" y2="116.9"/>
		<line class="st9" x1="171.9" y1="122.5" x2="171.9" y2="116.9"/>
		<line class="st9" x1="180.8" y1="122.5" x2="180.8" y2="116.9"/>
		<line class="st9" x1="190" y1="122.5" x2="190" y2="116.9"/>
		<line class="st9" x1="123.8" y1="129.3" x2="193.8" y2="129.1"/>
		<line class="st9" x1="132.5" y1="129" x2="132.5" y2="123.3"/>
		<line class="st9" x1="141.4" y1="129" x2="141.4" y2="123.3"/>
		<line class="st9" x1="149.9" y1="129" x2="149.9" y2="123.3"/>
		<line class="st9" x1="158.8" y1="129" x2="158.8" y2="123.3"/>
		<line class="st9" x1="167.5" y1="129" x2="167.5" y2="123.3"/>
		<line class="st9" x1="176.4" y1="129" x2="176.4" y2="123.3"/>
		<line class="st9" x1="185.2" y1="129" x2="185.2" y2="123.3"/>
		<line class="st9" x1="128" y1="135.4" x2="128" y2="129.8"/>
		<line class="st9" x1="136.9" y1="135.4" x2="136.9" y2="129.8"/>
		<line class="st9" x1="145.5" y1="135.4" x2="145.5" y2="129.8"/>
		<line class="st9" x1="154.4" y1="135.4" x2="154.4" y2="129.8"/>
		<line class="st9" x1="163.1" y1="135.4" x2="163.1" y2="129.8"/>
		<line class="st9" x1="171.9" y1="135.4" x2="171.9" y2="129.8"/>
		<line class="st9" x1="180.8" y1="135.4" x2="180.8" y2="129.8"/>
		<line class="st9" x1="190" y1="135.4" x2="190" y2="129.8"/>
		<line class="st9" x1="193.4" y1="90.7" x2="250.9" y2="90.6"/>
		<line class="st9" x1="193.4" y1="84.5" x2="250.8" y2="84.4"/>
		<line class="st9" x1="203.1" y1="90.5" x2="203.1" y2="84.8"/>
		<line class="st9" x1="212" y1="90.5" x2="212" y2="84.8"/>
		<line class="st9" x1="220.6" y1="90.5" x2="220.6" y2="84.8"/>
		<line class="st9" x1="229.5" y1="90.5" x2="229.5" y2="84.8"/>
		<line class="st9" x1="238.1" y1="90.5" x2="238.1" y2="84.8"/>
		<line class="st9" x1="247" y1="90.5" x2="247" y2="84.8"/>
		<line class="st9" x1="193.4" y1="97.2" x2="250.8" y2="97"/>
		<line class="st9" x1="198.7" y1="96.9" x2="198.7" y2="91.2"/>
		<line class="st9" x1="207.6" y1="96.9" x2="207.6" y2="91.2"/>
		<line class="st9" x1="216.2" y1="96.9" x2="216.2" y2="91.2"/>
		<line class="st9" x1="225.1" y1="96.9" x2="225.1" y2="91.2"/>
		<line class="st9" x1="233.7" y1="96.9" x2="233.7" y2="91.2"/>
		<line class="st9" x1="242.6" y1="96.9" x2="242.6" y2="91.2"/>
		<line class="st9" x1="193.5" y1="103.6" x2="250.9" y2="103.5"/>
		<line class="st9" x1="203.2" y1="103.4" x2="203.2" y2="97.7"/>
		<line class="st9" x1="212.1" y1="103.4" x2="212.1" y2="97.7"/>
		<line class="st9" x1="220.6" y1="103.4" x2="220.6" y2="97.7"/>
		<line class="st9" x1="229.5" y1="103.4" x2="229.5" y2="97.7"/>
		<line class="st9" x1="238.2" y1="103.4" x2="238.2" y2="97.7"/>
		<line class="st9" x1="247.1" y1="103.4" x2="247.1" y2="97.7"/>
		<line class="st9" x1="193.4" y1="110.1" x2="250.9" y2="109.9"/>
		<line class="st9" x1="198.8" y1="109.8" x2="198.8" y2="104.1"/>
		<line class="st9" x1="207.7" y1="109.8" x2="207.7" y2="104.1"/>
		<line class="st9" x1="216.2" y1="109.8" x2="216.2" y2="104.1"/>
		<line class="st9" x1="225.1" y1="109.8" x2="225.1" y2="104.1"/>
		<line class="st9" x1="233.8" y1="109.8" x2="233.8" y2="104.1"/>
		<line class="st9" x1="242.7" y1="109.8" x2="242.7" y2="104.1"/>
		<line class="st9" x1="193.7" y1="116.2" x2="251.2" y2="116.1"/>
		<line class="st9" x1="203.5" y1="116" x2="203.5" y2="110.3"/>
		<line class="st9" x1="212.4" y1="116" x2="212.4" y2="110.3"/>
		<line class="st9" x1="221" y1="116" x2="221" y2="110.3"/>
		<line class="st9" x1="229.8" y1="116" x2="229.8" y2="110.3"/>
		<line class="st9" x1="238.5" y1="116" x2="238.5" y2="110.3"/>
		<line class="st9" x1="247.4" y1="116" x2="247.4" y2="110.3"/>
		<line class="st9" x1="193.7" y1="122.7" x2="251.1" y2="122.5"/>
		<line class="st9" x1="199.1" y1="122.4" x2="199.1" y2="116.7"/>
		<line class="st9" x1="208" y1="122.4" x2="208" y2="116.7"/>
		<line class="st9" x1="216.5" y1="122.4" x2="216.5" y2="116.7"/>
		<line class="st9" x1="225.4" y1="122.4" x2="225.4" y2="116.7"/>
		<line class="st9" x1="234.1" y1="122.4" x2="234.1" y2="116.7"/>
		<line class="st9" x1="243" y1="122.4" x2="243" y2="116.7"/>
		<line class="st9" x1="193.8" y1="129.1" x2="251.2" y2="129"/>
		<line class="st9" x1="203.6" y1="128.9" x2="203.6" y2="123.2"/>
		<line class="st9" x1="212.5" y1="128.9" x2="212.5" y2="123.2"/>
		<line class="st9" x1="221" y1="128.9" x2="221" y2="123.2"/>
		<line class="st9" x1="229.9" y1="128.9" x2="229.9" y2="123.2"/>
		<line class="st9" x1="238.6" y1="128.9" x2="238.6" y2="123.2"/>
		<line class="st9" x1="247.5" y1="128.9" x2="247.5" y2="123.2"/>
		<line class="st9" x1="199.1" y1="135.3" x2="199.1" y2="129.6"/>
		<line class="st9" x1="208" y1="135.3" x2="208" y2="129.6"/>
		<line class="st9" x1="216.6" y1="135.3" x2="216.6" y2="129.6"/>
		<line class="st9" x1="225.5" y1="135.3" x2="225.5" y2="129.6"/>
		<line class="st9" x1="234.2" y1="135.3" x2="234.2" y2="129.6"/>
		<line class="st9" x1="243" y1="135.3" x2="243" y2="129.6"/>
		<line class="st9" x1="194.2" y1="90.4" x2="194.2" y2="84.7"/>
		<line class="st9" x1="194.2" y1="103.3" x2="194.2" y2="97.6"/>
		<line class="st9" x1="194.5" y1="115.9" x2="194.5" y2="110.2"/>
		<line class="st9" x1="194.6" y1="128.8" x2="194.6" y2="123.1"/>
		<line class="st9" x1="123.2" y1="78.5" x2="192.8" y2="78.4"/>
		<line class="st9" x1="122.7" y1="72.3" x2="192.8" y2="72.2"/>
		<line class="st9" x1="131.4" y1="78.3" x2="131.4" y2="72.6"/>
		<line class="st9" x1="140.3" y1="78.3" x2="140.3" y2="72.6"/>
		<line class="st9" x1="148.9" y1="78.3" x2="148.9" y2="72.6"/>
		<line class="st9" x1="157.8" y1="78.3" x2="157.8" y2="72.6"/>
		<line class="st9" x1="166.4" y1="78.3" x2="166.4" y2="72.6"/>
		<line class="st9" x1="175.3" y1="78.3" x2="175.3" y2="72.6"/>
		<line class="st9" x1="184.2" y1="78.3" x2="184.2" y2="72.6"/>
		<line class="st9" x1="127" y1="84.7" x2="127" y2="79"/>
		<line class="st9" x1="135.9" y1="84.7" x2="135.9" y2="79"/>
		<line class="st9" x1="144.5" y1="84.7" x2="144.5" y2="79"/>
		<line class="st9" x1="153.3" y1="84.7" x2="153.3" y2="79"/>
		<line class="st9" x1="162" y1="84.7" x2="162" y2="79"/>
		<line class="st9" x1="170.9" y1="84.7" x2="170.9" y2="79"/>
		<line class="st9" x1="179.8" y1="84.7" x2="179.8" y2="79"/>
		<line class="st9" x1="189" y1="84.7" x2="189" y2="79"/>
		<line class="st9" x1="192.8" y1="78.4" x2="250.3" y2="78.3"/>
		<line class="st9" x1="192.8" y1="72.2" x2="250.2" y2="72.1"/>
		<line class="st9" x1="202.5" y1="78.1" x2="202.5" y2="72.5"/>
		<line class="st9" x1="211.4" y1="78.1" x2="211.4" y2="72.5"/>
		<line class="st9" x1="220" y1="78.1" x2="220" y2="72.5"/>
		<line class="st9" x1="228.9" y1="78.1" x2="228.9" y2="72.5"/>
		<line class="st9" x1="237.5" y1="78.1" x2="237.5" y2="72.5"/>
		<line class="st9" x1="246.4" y1="78.1" x2="246.4" y2="72.5"/>
		<line class="st9" x1="198.1" y1="84.6" x2="198.1" y2="78.9"/>
		<line class="st9" x1="207" y1="84.6" x2="207" y2="78.9"/>
		<line class="st9" x1="215.6" y1="84.6" x2="215.6" y2="78.9"/>
		<line class="st9" x1="224.4" y1="84.6" x2="224.4" y2="78.9"/>
		<line class="st9" x1="233.1" y1="84.6" x2="233.1" y2="78.9"/>
		<line class="st9" x1="242" y1="84.6" x2="242" y2="78.9"/>
		<line class="st9" x1="193.6" y1="78.1" x2="193.6" y2="72.4"/>
	</g>
	<path class="st10" d="M131.4,68.1v-11c0-0.1,0.1-0.2,0.2-0.2h15.3h95.4c0.1,0,0.2,0.1,0.2,0.2v11"/>
	<line class="st10" x1="143.8" y1="68.1" x2="143.8" y2="56.8"/>
	<line class="st10" x1="155.9" y1="68.1" x2="155.9" y2="56.8"/>
	<line class="st10" x1="167.1" y1="68.1" x2="167.1" y2="56.8"/>
	<line class="st10" x1="179.9" y1="68.1" x2="179.9" y2="56.8"/>
	<line class="st10" x1="192.6" y1="68.1" x2="192.6" y2="56.8"/>
	<line class="st10" x1="204.4" y1="68.1" x2="204.4" y2="56.8"/>
	<line class="st10" x1="217.1" y1="68.1" x2="217.1" y2="56.8"/>
	<line class="st10" x1="229.9" y1="68.1" x2="229.9" y2="56.8"/>
	<path class="st11" d="M255.3,70.4c0-1-0.8-1.8-1.8-1.8H121c-1,0-1.8,0.8-1.8,1.8v0c0,1,0.8,1.8,1.8,1.8h132.5
		C254.5,72.2,255.3,71.4,255.3,70.4L255.3,70.4z"/>
	<path class="st12" d="M219.2,206.2v-27.4c0-1.5,1.1-2.1,2.6-2.1h18.3c1.5,0,3.1,0.6,3.1,2.1v27.4"/>
	<line class="st13" x1="231.3" y1="176.6" x2="231.3" y2="206.2"/>
	<line class="st13" x1="219.2" y1="186.4" x2="243.2" y2="186.4"/>
	<line class="st13" x1="219.2" y1="196.1" x2="243.2" y2="196.1"/>
	<path class="st14" d="M243.3,208.3H219c-0.1,0-0.1-0.1-0.2-0.1c-1.1-0.1-1-2.7,0.1-2.7c0,0,0-0.2,0.1-0.2h24.3c0,0,0,0.1,0.1,0.1
		c1.1,0,1.2,2.5,0.1,2.7C243.4,208.1,243.3,208.3,243.3,208.3z"/>
	<path class="st15" d="M166.6,263.3V225c0-1.7,1.2-3.4,2.9-3.4h36.4c1.7,0,3,1.7,3,3.4v38.3"/>
	<path class="st13" d="M195.5,243.5h-16.3c-5.1,0-9.2-4.1-9.2-9.2v0c0-5.1,4.1-9.2,9.2-9.2h16.3c5.1,0,9.2,4.1,9.2,9.2v0
		C204.7,239.4,200.6,243.5,195.5,243.5z"/>
	<line class="st10" x1="187.4" y1="225.4" x2="187.7" y2="262.9"/>
	<circle class="st10" cx="191.6" cy="248.2" r="1.4"/>
	<circle class="st10" cx="183.6" cy="248.2" r="1.4"/>
	<path class="st12" d="M238.5,257.7h-16.4c-2.3,0-4.1-1.8-4.1-4.1v-27c0-2.3,1.8-4.1,4.1-4.1h16.4c2.3,0,4.1,1.8,4.1,4.1v27
		C242.6,255.8,240.7,257.7,238.5,257.7z"/>
	<path class="st12" d="M152.9,256.8h-16.2c-2.3,0-4.2-1.9-4.2-4.2v-26.9c0-2.3,1.9-4.2,4.2-4.2H153c2.3,0,4.1,1.8,4.1,4.1v26.9
		C157.1,254.9,155.2,256.8,152.9,256.8z"/>
	<line class="st16" x1="238.4" y1="246.4" x2="229.2" y2="252.9"/>
	<line class="st16" x1="239.3" y1="250.9" x2="236.5" y2="253"/>
	<line class="st16" x1="145.8" y1="226.9" x2="136.6" y2="233.5"/>
	<line class="st16" x1="139.7" y1="226" x2="136.9" y2="228.1"/>
	<path class="st12" d="M175.7,206.2v-27.4c0-1.5,0.8-2.1,2.3-2.1h18.3c1.5,0,3.3,0.6,3.3,2.1v27.4"/>
	<line class="st13" x1="187.6" y1="176.6" x2="187.6" y2="206.2"/>
	<line class="st13" x1="175.7" y1="186.4" x2="199.7" y2="186.4"/>
	<line class="st13" x1="175.7" y1="196.1" x2="199.7" y2="196.1"/>
	<path class="st14" d="M199.6,208.3h-24.3c-0.1,0-0.1-0.1-0.2-0.1c-1.1-0.1-1-2.7,0.1-2.7c0,0,0-0.2,0.1-0.2h24.3c0,0,0,0.1,0.1,0.1
		c1.1,0,1.2,2.5,0.1,2.7C199.7,208.1,199.6,208.3,199.6,208.3z"/>
	<path class="st12" d="M132.5,206.2v-27.4c0-1.5,0.9-2.1,2.4-2.1h18.3c1.5,0,3.3,0.6,3.3,2.1v27.4"/>
	<line class="st13" x1="144.7" y1="176.6" x2="144.7" y2="206.2"/>
	<line class="st13" x1="132.5" y1="186.4" x2="156.5" y2="186.4"/>
	<line class="st13" x1="132.5" y1="196.1" x2="156.5" y2="196.1"/>
	<path class="st14" d="M156.4,208.3h-24.3c-0.1,0-0.1-0.1-0.2-0.1c-1.1-0.1-1-2.7,0.1-2.7c0,0,0-0.2,0.1-0.2h24.3c0,0,0,0.1,0.1,0.1
		c1.1,0,1.2,2.5,0.1,2.7C156.6,208.1,156.5,208.3,156.4,208.3z"/>
	<path class="st12" d="M218.6,160.4v-26.9c0-1.5,1.4-2,2.9-2h18.3c1.5,0,3.4,0.6,3.4,2v26.9"/>
	<line class="st13" x1="231.3" y1="131.4" x2="231.3" y2="160.4"/>
	<line class="st13" x1="218.6" y1="140.5" x2="243.2" y2="140.5"/>
	<line class="st13" x1="218.6" y1="150.3" x2="243.2" y2="150.3"/>
	<path class="st14" d="M243,163h-24.3c-0.1,0-0.1-0.1-0.2-0.1c-1.1-0.1-1-2.5,0.1-2.5c0,0,0,0,0.1,0H243c0,0,0-0.1,0.1-0.1
		c1.1,0,1.2,2.5,0.1,2.6C243.1,162.9,243,163,243,163z"/>
	<path class="st12" d="M174.8,160.4v-26.9c0-1.5,1.4-2,2.9-2H196c1.5,0,3.7,0.6,3.7,2v26.9"/>
	<line class="st13" x1="187.6" y1="131.4" x2="187.6" y2="160.4"/>
	<line class="st13" x1="174.8" y1="140.5" x2="199.7" y2="140.5"/>
	<line class="st13" x1="174.8" y1="150.3" x2="199.7" y2="150.3"/>
	<path class="st14" d="M199.2,163h-24.3c-0.1,0-0.1-0.1-0.2-0.1c-1.1-0.1-1-2.5,0.1-2.5c0,0,0,0,0.1,0h24.3c0,0,0-0.1,0.1-0.1
		c1.1,0,1.2,2.5,0.1,2.6C199.3,162.9,199.3,163,199.2,163z"/>
	<path class="st12" d="M131.9,160.4v-26.9c0-1.5,1.2-2,2.7-2h18.3c1.5,0,3.6,0.6,3.6,2v26.9"/>
	<line class="st13" x1="144.7" y1="131.4" x2="144.7" y2="160.4"/>
	<line class="st13" x1="131.9" y1="140.5" x2="156.5" y2="140.5"/>
	<line class="st13" x1="131.9" y1="150.3" x2="156.5" y2="150.3"/>
	<path class="st14" d="M156.1,163h-24.3c-0.1,0-0.1-0.1-0.2-0.1c-1.1-0.1-1-2.5,0.1-2.5c0,0,0,0,0.1,0h24.3c0,0,0-0.1,0.1-0.1
		c1.1,0,1.2,2.5,0.1,2.6C156.2,162.9,156.2,163,156.1,163z"/>
	<path class="st12" d="M218,115.1V87.8c0-1.5,1.3-2.8,2.8-2.8h18.3c1.5,0,3.4,1.3,3.4,2.8v27.3"/>
	<line class="st13" x1="230.7" y1="84.9" x2="230.7" y2="115.1"/>
	<line class="st13" x1="218" y1="95.6" x2="242.6" y2="95.6"/>
	<line class="st13" x1="218" y1="105.3" x2="242.6" y2="105.3"/>
	<path class="st14" d="M242.3,117.2H218c-0.1,0-0.1,0-0.2-0.1c-1.1-0.1-1-2.5,0.1-2.6c0,0,0,0,0.1,0h24.3c0,0,0,0,0.1,0
		c1.1,0,1.2,2.4,0.1,2.6C242.4,117.1,242.4,117.2,242.3,117.2z"/>
	<path class="st12" d="M174.2,115.1V87.8c0-1.5,1.4-2.8,2.8-2.8h18.3c1.5,0,3.4,1.3,3.4,2.8v27.3"/>
	<line class="st13" x1="187" y1="84.9" x2="187" y2="115.1"/>
	<line class="st13" x1="174.2" y1="95.6" x2="198.8" y2="95.6"/>
	<line class="st13" x1="174.2" y1="105.3" x2="198.8" y2="105.3"/>
	<path class="st14" d="M198.6,117.2h-24.3c-0.1,0-0.1,0-0.2-0.1c-1.1-0.1-1-2.5,0.1-2.6c0,0,0,0,0.1,0h24.3c0,0,0,0,0.1,0
		c1.1,0,1.2,2.4,0.1,2.6C198.7,117.1,198.6,117.2,198.6,117.2z"/>
	<path class="st12" d="M131.4,115.1V87.8c0-1.5,1.1-2.8,2.6-2.8h18.3c1.5,0,3.6,1.3,3.6,2.8v27.3"/>
	<line class="st13" x1="143.8" y1="84.9" x2="143.8" y2="115.1"/>
	<line class="st13" x1="131.4" y1="95.6" x2="155.9" y2="95.6"/>
	<line class="st13" x1="131.4" y1="105.3" x2="155.9" y2="105.3"/>
	<path class="st14" d="M155.5,117.2h-24.3c-0.1,0-0.1,0-0.2-0.1c-1.1-0.1-1-2.5,0.1-2.6c0,0,0,0,0.1,0h24.3c0,0,0,0,0.1,0
		c1.1,0,1.2,2.4,0.1,2.6C155.6,117.1,155.5,117.2,155.5,117.2z"/>
	<path class="st10" d="M219.2,206.4v-27.4c0-1.5,1.1-2.1,2.6-2.1h18.3c1.5,0,3.1,0.6,3.1,2.1v27.4"/>
	<path class="st10" d="M175.7,206.4v-27.4c0-1.5,0.8-2.1,2.3-2.1h18.3c1.5,0,3.3,0.6,3.3,2.1v27.4"/>
	<path class="st10" d="M132.5,206.4v-27.4c0-1.5,0.9-2.1,2.4-2.1h18.3c1.5,0,3.3,0.6,3.3,2.1v27.4"/>
	<path class="st10" d="M218.6,160.5v-26.9c0-1.5,1.4-2,2.9-2h18.3c1.5,0,3.4,0.6,3.4,2v26.9"/>
	<path class="st10" d="M174.8,160.5v-26.9c0-1.5,1.4-2,2.9-2H196c1.5,0,3.7,0.6,3.7,2v26.9"/>
	<path class="st10" d="M131.9,160.5v-26.9c0-1.5,1.2-2,2.7-2h18.3c1.5,0,3.6,0.6,3.6,2v26.9"/>
	<path class="st10" d="M218,115.3V87.9c0-1.5,1.3-2.8,2.8-2.8h18.3c1.5,0,3.4,1.3,3.4,2.8v27.3"/>
	<path class="st10" d="M174.2,115.3V87.9c0-1.5,1.4-2.8,2.8-2.8h18.3c1.5,0,3.4,1.3,3.4,2.8v27.3"/>
	<path class="st10" d="M131.3,115.3V87.9c0-1.5,1.1-2.8,2.6-2.8h18.3c1.5,0,3.6,1.3,3.6,2.8v27.3"/>
	<polyline class="st17" points="110.5,242.5 110.5,151.3 106.8,151.3 106.8,242.7 	"/>
	<path class="st17" d="M104,263.2v-16.6c0-2.1,1.8-3.9,3.9-3.9h1.6c2.1,0,3.9,1.8,3.9,3.9v16.6"/>
	<path class="st17" d="M108.7,151.7L108.7,151.7c-2.6,0-4.7-2.1-4.7-4.7v-6.9c0-2.6,2.1-4.7,4.7-4.7h0c2.6,0,4.7,2.1,4.7,4.7v6.9
		C113.3,149.6,111.2,151.7,108.7,151.7z"/>
	<path class="st17" d="M107.1,135.3v-1.2c0-0.8,0.6-1.4,1.4-1.4h0c0.8,0,1.4,0.6,1.4,1.4v1.2"/>
	<line class="st18" x1="109.7" y1="145.3" x2="107.7" y2="147.3"/>
	<line class="st18" x1="110.5" y1="147.2" x2="109.6" y2="148.1"/>
	<line class="st18" x1="106.8" y1="246.3" x2="106.8" y2="259.8"/>
	<line class="st18" x1="108.7" y1="246.3" x2="108.7" y2="259.8"/>
	<line class="st18" x1="110.6" y1="246.3" x2="110.6" y2="259.8"/>
	<path class="st12" d="M236.6,240.7h-12.1c-0.8,0-1.4-0.6-1.4-1.4v-6.6c0-0.8,0.6-1.4,1.4-1.4h12.1c0.8,0,1.4,0.6,1.4,1.4v6.6
		C238,240.1,237.4,240.7,236.6,240.7z"/>
	<path class="st10" d="M227.3,230.8v-1.1c0-0.4,0.4-0.8,0.8-0.8h4.9c0.4,0,0.8,0.4,0.8,0.8v1.1"/>
	<polyline class="st12" points="231.9,235.3 232.9,235.3 238,234.7 	"/>
	<polyline class="st12" points="223.2,234.7 228.2,235.3 229.3,235.3 	"/>
	<path class="st12" d="M231.2,236.6H230c-0.4,0-0.8-0.4-0.8-0.8v-0.3c0-0.4,0.4-0.8,0.8-0.8h1.2c0.4,0,0.8,0.4,0.8,0.8v0.3
		C232,236.2,231.6,236.6,231.2,236.6z"/>
	<path class="st19" d="M90.5,199.3c5.2,2.2,8.3,7.4,7.8,13.3c-0.6,7.4-7.1,12.8-14.5,12.2c-0.8-0.1-1.6-0.3-2.4-0.6
		c-0.4-0.1-0.8-0.3-1.2-0.4c-0.3-0.1-0.5-0.3-0.8-0.4c-0.3-0.1-0.6,0-0.9,0.1c-0.2,0.1-0.3,0.2-0.5,0.3c-0.4,0.2-0.7,0.4-1.1,0.5
		c-0.7,0.3-1.5,0.6-2.3,0.8c-1.4,0.3-2.8,0.4-4.3,0.3c-7.4-0.6-12.8-7.1-12.2-14.5c0.3-4,2.5-7.5,5.5-9.7l0,0
		c-0.2-1.1-0.2-2.1-0.1-3.2c0.6-7.4,7.1-12.8,14.5-12.2c7,0.6,12.2,6.4,12.3,13.3L90.5,199.3z"/>
	<line class="st20" x1="85.4" y1="212.3" x2="79.2" y2="219"/>
	<polyline class="st20" points="78.6,223.2 78.6,203.3 78.6,203.3 	"/>
	<line class="st19" x1="78.8" y1="263.3" x2="78.8" y2="223.4"/>
	<polygon class="st21" points="275.5,263.4 275.5,217.4 264.4,219.6 264.4,263.4 	"/>
	<path class="st21" d="M274.8,213.2c-0.8-1.5-2-2.5-3.4-2.8c-1.5-0.3-3,0.2-4.2,1.3c-1.3,1.1-2.2,2.7-2.5,4.6
		c-0.4,1.9-0.1,3.7,0.6,5.3c0.8,1.5,2,2.5,3.4,2.8c1.4,0.3,3-0.2,4.2-1.3c1.3-1.1,2.2-2.8,2.6-4.7
		C275.7,216.6,275.5,214.7,274.8,213.2"/>
	<path class="st22" d="M273.7,214c-0.6-1.2-1.6-2-2.7-2.2c-1.1-0.2-2.3,0.2-3.3,1.1c-1,0.9-1.7,2.3-1.9,3.8c-0.3,1.5-0.1,3,0.5,4.3
		c0.6,1.2,1.6,2,2.7,2.2c1.1,0.2,2.3-0.2,3.3-1.2c1-0.9,1.7-2.3,2-3.8C274.5,216.6,274.3,215.2,273.7,214"/>
	<path class="st23" d="M264.4,225.4c0.5,0.1,1,0.3,1.3,0.7c0.5,0.5,0.8,1.1,0.8,1.8c0,0.7-0.3,1.3-0.8,1.8c-0.4,0.3-0.8,0.6-1.3,0.7
		"/>
	<path class="st23" d="M275.4,225.3c-0.6,0.1-1.1,0.4-1.5,0.7c-0.6,0.5-0.9,1.2-0.9,1.9c0,0.7,0.3,1.4,0.9,2
		c0.4,0.4,0.9,0.6,1.4,0.7"/>
	<line class="st24" x1="275.5" y1="223.7" x2="275.5" y2="235.3"/>
	<line class="st24" x1="264.4" y1="235.3" x2="264.4" y2="223.9"/>
	<path class="st25" d="M272.6,222.5c1.1-1.1,1.9-2.6,2.2-4.3c0.3-1.7,0.1-3.4-0.6-4.7"/>
	<path class="st25" d="M266.6,213.2c-0.7,0.9-1.2,2.1-1.4,3.4c-0.3,1.7-0.1,3.4,0.6,4.8c0.2,0.3,0.4,0.7,0.6,0.9"/>
	<line class="st25" x1="270.2" y1="205.7" x2="270.2" y2="207.5"/>
	<line class="st25" x1="262" y1="215.6" x2="260.3" y2="215.6"/>
	<line class="st25" x1="280.1" y1="215.6" x2="278.3" y2="215.6"/>
	<line class="st25" x1="277.2" y1="208.6" x2="275.9" y2="209.8"/>
	<line class="st25" x1="264.4" y1="209.8" x2="263.2" y2="208.6"/>
	<line class="st25" x1="279.4" y1="211.9" x2="277.8" y2="212.5"/>
	<line class="st25" x1="267.2" y1="208" x2="266.5" y2="206.4"/>
	<line class="st25" x1="273.4" y1="208.1" x2="274.1" y2="206.5"/>
	<line class="st25" x1="262.8" y1="212.4" x2="261.2" y2="211.8"/>
	<line class="st25" x1="262" y1="219.4" x2="260.3" y2="219.4"/>
	<line class="st25" x1="280.1" y1="219.4" x2="278.3" y2="219.4"/>
	<path class="st19" d="M439,241.5c0.1-0.2,0.2-0.3,0.2-0.5c0.9-2.1,0-4.5-1.3-6.4c-2.9-4.3-7.8-6.9-12.8-8.5
		c-5-1.6-10.2-2.3-15.2-3.9c-8-2.6-15-7.5-22.7-11c-11.4-5.1-24.1-7.1-36.6-7.2c-7.8-0.1-15.6,0.4-23.4,1.2
		c-3.9,0.4-7.8,0.8-11.7,1.3c-1.9,0.2-3.9,0.5-5.8,0.7c-1.2,0.2-4.3,0.4-1.8,1.6c1.5,0.7,3.4,0.2,4.9,0.9c2.9,1.4,0.2,5-1.2,6.5
		c-2.5,2.7-6.2,3.8-9.5,5.1c-1.5,0.6-3.2,1.4-4.2,2.7c-1.2,1.7-0.8,3.8-0.9,5.7c-0.1,3.8-2.3,7.3-3.2,11c-1.1,4.6-0.2,9.7,2.6,13.5
		c1.2,0,2,0.1,3.2,0.1c-0.9-5.3,1.8-11.1,6.3-14.1s11.2-3.1,15.7-0.1s7.2,8.9,6.3,14.2c23.7,0,46.4,0,70.1,0
		c-0.5-6.2,1.9-11.1,6.4-14.1s11.1-2.9,15.6,0c4.5,2.9,7.2,8.8,6.3,14.1c4.2,0,8.2,0,12.4,0c1.4-1.2,1-3.5,0.3-5.2
		c-0.7-1.7-1.7-3.5-1.2-5.3C438,243,438.6,242.3,439,241.5z"/>
	<path class="st26" d="M360.5,224.9h36.8c1.2,0,1.4-1.2,0.3-1.8c0,0-14.5-9.2-17.6-10.7c-6.4-3-13.5-3.5-20.5-3.8
		c-6.5-0.2-13-0.2-19.5,0c-3.2,0.1-6.5,0.3-9.7,0.6c-2.8,0.2-5.8,0.2-8.3,1.5c-0.5,0.2-0.9,0.8-1.2,1.3c-1.5,2.4-2.9,4.9-4.3,7.3
		c-0.5,0.8-0.7,1.7-0.3,2.5c1.3,2.4,4.2,3,6.7,3.1c2.2,0.1,4.3,0,6.5,0c4.9,0,9.8,0,14.7,0c2.7,0,5.3,0,8,0H360.5z"/>
	<path class="st10" d="M311.4,209.4c-2.4,1.1-10,9.1-11.2,12.8"/>
	<circle class="st27" cx="311" cy="227.7" r="2.6"/>
	<g>
		<line class="st28" x1="327.6" y1="213.7" x2="331.5" y2="216.8"/>
		<line class="st28" x1="324.4" y1="214.2" x2="327.3" y2="216.6"/>
	</g>
	<path class="st29" d="M412.4,263.4c-6.4,0-11.5-5.1-11.5-11.5c0-6.4,5.1-11.5,11.5-11.5s11.5,5.1,11.5,11.5
		C423.9,258.3,418.7,263.4,412.4,263.4L412.4,263.4z"/>
	<path class="st30" d="M412.4,260.3c-4.6,0-8.4-3.7-8.4-8.4c0-4.6,3.7-8.4,8.4-8.4c4.6,0,8.4,3.7,8.4,8.4
		C420.7,256.5,417,260.3,412.4,260.3L412.4,260.3z"/>
	<path class="st31" d="M412.4,254.6c-1.5,0-2.7-1.2-2.7-2.7c0-1.5,1.2-2.7,2.7-2.7c1.5,0,2.7,1.2,2.7,2.7
		C415,253.4,413.8,254.6,412.4,254.6L412.4,254.6z"/>
	<path class="st29" d="M314,264.2c6.4,0,11.5-5.1,11.5-11.5c0-6.4-5.1-11.5-11.5-11.5c-6.4,0-11.5,5.1-11.5,11.5
		C302.5,259,307.6,264.2,314,264.2L314,264.2z"/>
	<path class="st30" d="M314,261c4.6,0,8.4-3.7,8.4-8.4c0-4.6-3.7-8.4-8.4-8.4c-4.6,0-8.4,3.7-8.4,8.4C305.6,257.3,309.3,261,314,261
		L314,261z"/>
	<path class="st31" d="M314,255.4c-1.5,0-2.7-1.2-2.7-2.7c0-1.5,1.2-2.7,2.7-2.7c1.5,0,2.7,1.2,2.7,2.7
		C316.6,254.2,315.4,255.4,314,255.4L314,255.4z"/>
	<path class="st30" d="M433.5,245.5c-1,0.3-1.3,1.1-1.1,1.8c0,0.1,0.1,0.2,0.2,0.3c0,0.1,0.1,0.2,0.2,0.2c0.1,0,0.2,0,0.3-0.1
		c0.3-0.2,0.4-0.4,0.6-0.6c0.1-0.1,0.1-0.2,0.2-0.3c0.1-0.2,0.3-0.5,0.3-0.8c0-0.2,0.1-0.4-0.1-0.6
		C433.9,245.4,433.7,245.5,433.5,245.5z"/>
	<path class="st32" d="M434.2,243.5c-3.6-1.5-5.7,4.5-1.5,6.5"/>
	<path class="st31" d="M367.1,231.3c-0.1-0.7-0.7-1.2-1.5-1.2h-1.4c-0.6,0-1.2,0.4-1.4,1l-0.1,1.4c0.1,0.7,0.7,1.3,1.5,1.3h1.4
		c0.7,0,1.3-0.5,1.4-1.1L367.1,231.3z"/>
	<path class="st31" d="M327.4,230.4c0.1,0.7,0.7,1.3,1.5,1.3h1.4c0.7,0,1.3-0.5,1.4-1.1l0-1.3c-0.1-0.7-0.7-1.2-1.5-1.2h-1.4
		c-0.6,0-1.2,0.4-1.4,1L327.4,230.4z"/>
	<path class="st30" d="M404.7,220.1l6.9,6.9c0.9,0.8,1.9,1.4,3.2,1.6c7,1.7,14.2,4.8,21.4,6.7c0.3,0.1,0.5,0.1,0.2-0.3
		c-4.1-4.4-8.8-7.3-14-8.6c-3.9-1-8.7-1.1-12.4-1.1"/>
	<path class="st32" d="M430.4,233.6c-4.7-1.8-8.6-4.2-10.3-7.6"/>
	<g>
		<line class="st28" x1="359.1" y1="219.3" x2="362.1" y2="221.4"/>
		<line class="st28" x1="358.6" y1="215.2" x2="367.5" y2="222.1"/>
	</g>
	<path class="st31" d="M384.8,222c0.3-1.3,1.8-2.3,3.1-1.9c2.3,0.8,3.8,2.1,4.6,3.9c0.1,0.2,0,0.3-0.1,0.4c-1.4,1.3-2.8,1.5-5.3,1.3
		C385.8,225.6,384.6,223.3,384.8,222L384.8,222z"/>
	<path class="st32" d="M392.5,225.5c0.4,0.6,1.1,1.3,1.6,2.2c1.6,2.5,1.2,10.8-0.5,19.9c-0.2,1.2-1.2,2-2.4,2l-53.1-0.5
		c-2.5,0-3.9-1.1-5.3-3c-4.6-6.1-14.5-18.1-16.5-24.3"/>
	<path class="st32" d="M355.9,249c1.1-8.2,1.5-16.5,0-26l-2.4-14.4"/>
	<path class="st33" d="M299.7,223.3c-0.5-0.1-0.9,0.1-1.2,0.4c-0.2,0.2-0.3,0.4-0.5,0.6c-1.2,1.7-0.8,3.8-0.8,5.7c0,0.1,0,0.3,0,0.4
		c-0.1,1,0.7,1.8,1.6,1.6c2-0.3,2.4-4.4,2.4-6c0-0.5,0-1-0.1-1.4C300.9,224,300.4,223.5,299.7,223.3L299.7,223.3z"/>
	<path class="st34" d="M299.9,228.9c0.5,0.1,0.7,0.6,0.6,1c-0.4,1.1-0.9,2-1.8,2.1c-0.9,0.1-1.7-0.7-1.6-1.6c0-0.1,0-0.3,0-0.4
		c0-0.3,0-0.6,0-0.9C298.2,228.9,298.9,228.7,299.9,228.9z"/>
	<rect x="122.8" y="72.2" class="st10" width="129.6" height="191.1"/>
	<g>
		<path class="st35" d="M278.4,227.9c1.9,0,3.9-0.2,5.7,1c2.4,1.6,2.8,4.8,3,7.5c0.2,2.8,0.4,5.8,1,8.6c0.3,1.3,0.5,2.6,1.3,3.7
			c0.7,1,1.8,1.4,2.9,0.5c1.2-1.1,1.2-2.9,1.4-4.4c0.3-2.4,0.5-4.8,1.2-7.1c0.7-2.5,1.8-5,3.5-7c1.9-2.2,4.3-3.1,7.1-3.3
			c1.8-0.1,3.5,0,5.3,0"/>
	</g>
	<path class="st33" d="M278.2,228.8h-2.5c-0.6,0-1-0.5-1-1l0,0c0-0.6,0.5-1,1-1h2.5c0.6,0,1,0.5,1,1l0,0
		C279.3,228.3,278.8,228.8,278.2,228.8z"/>
	<line class="st20" x1="71.8" y1="208.6" x2="78.4" y2="214.9"/>
	<line class="st36" x1="123.1" y1="76.3" x2="123.1" y2="72.5"/>
	<line class="st36" x1="127.2" y1="76.3" x2="127.2" y2="72.5"/>
	<line class="st36" x1="131" y1="76.3" x2="131" y2="72.5"/>
	<line class="st36" x1="135.3" y1="76.3" x2="135.3" y2="72.5"/>
	<line class="st36" x1="139.6" y1="76.3" x2="139.6" y2="72.5"/>
	<line class="st36" x1="143.6" y1="76.3" x2="143.6" y2="72.5"/>
	<line class="st36" x1="147.9" y1="76.3" x2="147.9" y2="72.5"/>
	<line class="st36" x1="152.2" y1="76.3" x2="152.2" y2="72.5"/>
	<line class="st36" x1="156.5" y1="76.3" x2="156.5" y2="72.5"/>
	<line class="st36" x1="160.6" y1="76.3" x2="160.6" y2="72.5"/>
	<line class="st36" x1="164.4" y1="76.3" x2="164.4" y2="72.5"/>
	<line class="st36" x1="168.7" y1="76.3" x2="168.7" y2="72.5"/>
	<line class="st36" x1="173" y1="76.3" x2="173" y2="72.5"/>
	<line class="st36" x1="177" y1="76.3" x2="177" y2="72.5"/>
	<line class="st36" x1="181.3" y1="76.3" x2="181.3" y2="72.5"/>
	<line class="st36" x1="185.7" y1="76.3" x2="185.7" y2="72.5"/>
	<line class="st36" x1="189.9" y1="76.3" x2="189.9" y2="72.5"/>
	<line class="st36" x1="194" y1="76.3" x2="194" y2="72.5"/>
	<line class="st36" x1="197.8" y1="76.3" x2="197.8" y2="72.5"/>
	<line class="st36" x1="202.1" y1="76.3" x2="202.1" y2="72.5"/>
	<line class="st36" x1="206.4" y1="76.3" x2="206.4" y2="72.5"/>
	<line class="st36" x1="210.5" y1="76.3" x2="210.5" y2="72.5"/>
	<line class="st36" x1="214.8" y1="76.3" x2="214.8" y2="72.5"/>
	<line class="st36" x1="219.1" y1="76.3" x2="219.1" y2="72.5"/>
	<line class="st36" x1="223.3" y1="76.3" x2="223.3" y2="72.5"/>
	<line class="st36" x1="227.4" y1="76.3" x2="227.4" y2="72.5"/>
	<line class="st36" x1="231.3" y1="76.3" x2="231.3" y2="72.5"/>
	<line class="st36" x1="235.6" y1="76.3" x2="235.6" y2="72.5"/>
	<line class="st36" x1="239.9" y1="76.3" x2="239.9" y2="72.5"/>
	<line class="st36" x1="243.9" y1="76.3" x2="243.9" y2="72.5"/>
	<line class="st36" x1="248.2" y1="76.3" x2="248.2" y2="72.5"/>
	<line class="st36" x1="252.5" y1="76.3" x2="252.5" y2="72.5"/>
	<line class="st36" x1="123.2" y1="76.6" x2="252.4" y2="76.6"/>
	<line class="st16" x1="179.8" y1="229.3" x2="174.8" y2="232.7"/>
	<line class="st16" x1="201.1" y1="232.6" x2="191.9" y2="239.2"/>
	<g>
		<line class="st37" x1="236" y1="99.2" x2="239.2" y2="101.7"/>
		<line class="st37" x1="233.4" y1="100.3" x2="235.8" y2="102.2"/>
	</g>
	<g>
		<line class="st37" x1="234" y1="146.5" x2="235.7" y2="147.7"/>
		<line class="st37" x1="233.7" y1="143" x2="238.9" y2="147"/>
	</g>
	<g>
		<line class="st37" x1="180.3" y1="134.9" x2="183.5" y2="137.4"/>
		<line class="st37" x1="177.7" y1="135.9" x2="180.1" y2="137.8"/>
	</g>
	<g>
		<line class="st37" x1="147.5" y1="156.6" x2="149.2" y2="157.8"/>
		<line class="st37" x1="147.2" y1="153.1" x2="152.3" y2="157.1"/>
	</g>
	<g>
		<line class="st37" x1="150" y1="180" x2="153.3" y2="182.5"/>
		<line class="st37" x1="147.4" y1="181" x2="149.8" y2="182.9"/>
	</g>
	<g>
		<line class="st37" x1="222.5" y1="192.8" x2="224.2" y2="194"/>
		<line class="st37" x1="222.2" y1="189.3" x2="227.4" y2="193.3"/>
	</g>
	<g>
		<line class="st37" x1="134.5" y1="102" x2="136.3" y2="103.2"/>
		<line class="st37" x1="134.2" y1="98.5" x2="139.4" y2="102.5"/>
	</g>
	<g>
		<line class="st37" x1="192.1" y1="108.7" x2="195.3" y2="111.2"/>
		<line class="st37" x1="189.5" y1="109.8" x2="191.9" y2="111.7"/>
	</g>
	<path class="st22" d="M451.5,281.4h-432c-4.7,0-8.6-3.9-8.6-8.6l0,0c0-4.7,3.9-8.6,8.6-8.6h432c4.7,0,8.6,3.9,8.6,8.6l0,0
		C460.1,277.5,456.2,281.4,451.5,281.4z"/>
	<g>
		<g>
			<line class="st38" x1="20.3" y1="273.2" x2="25.3" y2="273.2"/>
			<line class="st39" x1="37" y1="273.2" x2="438.6" y2="273.2"/>
			<line class="st38" x1="444.5" y1="273.2" x2="449.5" y2="273.2"/>
		</g>
	</g>
	<circle class="st40" cx="165.4" cy="314.6" r="1.6"/>
	<circle class="st40" cx="129.8" cy="320.2" r="0.3"/>
	<circle class="st40" cx="213.6" cy="313" r="1"/>
	<ellipse class="st40" cx="237.5" cy="309.5" rx="1.1" ry="1.1"/>
	<circle class="st40" cx="241.1" cy="319.2" r="0.8"/>
	<circle class="st40" cx="116.8" cy="313" r="0.6"/>
	<line class="st41" x1="427.9" y1="299.7" x2="447.1" y2="299.7"/>
	<line class="st41" x1="418.3" y1="299.7" x2="423.6" y2="299.7"/>
	<line class="st41" x1="381.8" y1="299.7" x2="413.8" y2="299.7"/>
	<line class="st41" x1="297.8" y1="299.7" x2="376.6" y2="299.7"/>
	<line class="st41" x1="286.6" y1="299.7" x2="291.2" y2="299.7"/>
	<line class="st41" x1="216.4" y1="299.7" x2="279.5" y2="299.7"/>
	<circle class="st40" cx="442.5" cy="313.8" r="1.6"/>
	<circle class="st40" cx="81.9" cy="321" r="1"/>
	<circle class="st40" cx="49.1" cy="310.9" r="0.8"/>
	<circle class="st40" cx="374.7" cy="318.6" r="1.1"/>
	<circle class="st40" cx="394.2" cy="317.6" r="1.1"/>
	<circle class="st40" cx="319.1" cy="314.1" r="1.1"/>
	<line class="st41" x1="13" y1="291" x2="460.2" y2="290.6"/>
	<line class="st41" x1="193.2" y1="300" x2="212.4" y2="300"/>
	<line class="st41" x1="183.6" y1="300" x2="188.9" y2="300"/>
	<line class="st41" x1="147.1" y1="300" x2="179.1" y2="300"/>
	<line class="st41" x1="63.1" y1="300" x2="141.9" y2="300"/>
	<line class="st41" x1="51.9" y1="300" x2="56.5" y2="300"/>
	<line class="st41" x1="19" y1="300" x2="72" y2="300"/>
</g>
</svg>
