<?xml version="1.0" encoding="utf-8"?>
<!-- Generator: Adobe Illustrator 21.0.2, SVG Export Plug-In . SVG Version: 6.00 Build 0)  -->
<svg version="1.1" id="Layer_3" xmlns="http://www.w3.org/2000/svg" xmlns:xlink="http://www.w3.org/1999/xlink" x="0px" y="0px"
	 viewBox="0 0 470 329" style="enable-background:new 0 0 470 329;" xml:space="preserve">
<style type="text/css">
	.st0{fill:#E7E6E6;}
	.st1{fill:none;stroke:#4D4D4D;stroke-width:1.5;stroke-linecap:round;stroke-miterlimit:10;}
	.st2{fill:#E6E6E6;}
	.st3{fill:#8CC63F;stroke:#333333;stroke-width:1.5;stroke-miterlimit:10;}
	.st4{fill:none;stroke:#89BD49;stroke-width:1.5;stroke-linecap:round;stroke-miterlimit:10;}
	.st5{fill:#E6E6E6;stroke:#333333;stroke-width:1.5;stroke-miterlimit:10;}
	.st6{fill:none;stroke:#333333;stroke-width:1.5;}
	.st7{fill:#F8F8F8;stroke:#333333;stroke-width:1.5;stroke-miterlimit:10;}
	.st8{fill:none;stroke:#333333;stroke-width:1.5;stroke-linecap:round;stroke-miterlimit:10;}
	.st9{fill:#ECECEC;stroke:#333333;stroke-width:1.5;stroke-miterlimit:10;}
	.st10{fill:none;stroke:#4D4D4D;stroke-width:1.5;}
	.st11{fill:#FFFFFF;stroke:#333333;stroke-width:1.5;}
	.st12{fill:#6F6F6E;stroke:#333333;stroke-width:1.5;stroke-miterlimit:10;}
	.st13{fill:#CCCCCC;stroke:#333333;stroke-width:1.5;stroke-miterlimit:10;}
	.st14{fill:none;stroke:#999999;stroke-width:1.5;stroke-linecap:round;stroke-miterlimit:10;}
	.st15{fill:#333333;}
	.st16{fill:#8CC03F;}
	.st17{fill:none;stroke:#333333;stroke-width:1.5;stroke-linecap:round;}
	.st18{fill:#8CC63F;stroke:#333333;stroke-width:1.5;stroke-linecap:round;stroke-miterlimit:10;}
	.st19{fill:#E6E6E6;stroke:#4D4D4D;stroke-width:1.5;stroke-miterlimit:10;}
	.st20{fill:none;stroke:#333333;stroke-width:1.5;stroke-miterlimit:10;}
	.st21{fill:none;stroke:#FFFFFF;stroke-width:1.5;stroke-linecap:round;stroke-miterlimit:10;}
	.st22{fill:#808080;}
	.st23{fill:#8CC63F;stroke:#4D4D4D;stroke-width:1.5;stroke-linecap:round;stroke-miterlimit:10;}
	.st24{fill:#B3B3B3;stroke:#333333;stroke-width:1.5;stroke-miterlimit:10;}
	.st25{fill:none;stroke:#FFFFFF;stroke-width:1.5;stroke-linecap:round;stroke-miterlimit:10;stroke-dasharray:9.7687,11.7224;}
	.st26{fill:#E6E6E6;stroke:#E6E6E6;stroke-width:1.5;stroke-miterlimit:10;}
	.st27{fill:none;stroke:#E6E6E6;stroke-width:1.5;stroke-linecap:round;stroke-miterlimit:10;}
	.st28{opacity:0.43;fill:#B1B1B1;stroke:#333333;stroke-width:1.5;}
	.st29{opacity:0.43;fill:#B1B1B1;stroke:#333333;stroke-width:1.5;stroke-linecap:round;}
	.st30{fill:#8CBF47;stroke:#333333;stroke-width:1.5;stroke-miterlimit:10;}
	.st31{fill:#FFFFFF;stroke:#333333;stroke-width:1.5;stroke-miterlimit:10;}
	.st32{fill:none;stroke:#333333;stroke-width:1.5;stroke-linecap:round;stroke-linejoin:round;}
	.st33{fill-rule:evenodd;clip-rule:evenodd;fill:#262529;stroke:#333333;stroke-width:1.5;}
	
		.st34{fill-rule:evenodd;clip-rule:evenodd;fill:#E6E6E6;stroke:#333333;stroke-width:1.5;stroke-linecap:round;stroke-linejoin:round;}
	
		.st35{fill-rule:evenodd;clip-rule:evenodd;fill:#8CC63F;stroke:#333333;stroke-width:1.5;stroke-linecap:round;stroke-linejoin:round;}
	
		.st36{fill-rule:evenodd;clip-rule:evenodd;fill:none;stroke:#333333;stroke-width:1.5;stroke-linecap:round;stroke-linejoin:round;}
	.st37{fill:none;stroke:#CCCCCC;stroke-width:1.5;stroke-linecap:round;stroke-miterlimit:10;}
</style>
<path class="st0" d="M157.3,24.7c0,0.8-0.1,1.6-0.4,2.3c0,0-0.1,0.3-0.1,0.3l-29.7,0c-0.3-0.8-0.5-1.7-0.5-2.7
	c0-4.2,3.7-7.7,8.2-7.7c0.2,0,0.4,0,0.5,0l0,0c1.2-3.1,4.5-5.3,8.2-5.3c4.2,0,7.8,2.8,8.6,6.6c0,0.1,0.3,0.1,0.4,0.1
	c0.9,0.2,1.8,0.7,2.4,1.3c0.8,0.7,1.4,1.5,1.8,2.4C157.1,22.8,157.3,23.8,157.3,24.7z"/>
<g>
	<path class="st1" d="M21,8.2c0.9-0.3,1.9-0.7,2.8-0.8c1.7-0.1,2.9,0.8,4.1,1.8c0.2,0.2,0.5,0.1,0.6-0.1c0.4-0.9,0.8-1.9,1.5-2.6
		c0.8-0.8,1.9-1,2.9-1.4"/>
	<path class="st1" d="M25.7,7.7c1,0.4,1.5,1.1,2.2,1.7c0.2,0.2,0.6,0.1,0.7-0.2c0.3-0.8,0.5-1.8,1.1-2.5"/>
</g>
<g>
	<path class="st1" d="M397.4,37.3c0.7,0.2,1.5,0.2,2.1,0.6c1.1,0.6,1.4,1.9,1.6,3.4c0,0.2,0.2,0.3,0.4,0.1c0.7-0.6,1.4-1.3,2.2-1.6
		c0.9-0.4,1.7,0,2.5,0.1"/>
	<path class="st1" d="M400.5,39c0.4,0.8,0.3,1.6,0.5,2.5c0,0.3,0.3,0.4,0.5,0.2c0.6-0.6,1.2-1.3,1.9-1.7"/>
</g>
<g>
	<path class="st1" d="M46.2,20.6c0.8,0,1.8-0.2,2.6,0c1.5,0.4,2.2,1.7,2.9,3.2c0.1,0.2,0.4,0.2,0.5,0c0.6-0.9,1.2-1.8,2-2.4
		c0.9-0.7,1.9-0.5,2.8-0.6"/>
	<path class="st1" d="M50.2,21.5c0.7,0.7,0.9,1.7,1.3,2.6c0.1,0.3,0.5,0.3,0.6,0c0.5-0.8,0.9-1.8,1.7-2.4"/>
</g>
<path class="st0" d="M386.7,114.6c0,0.9-0.1,1.7-0.5,2.6l-0.1,0.3l-32.7,0c-0.4-0.9-0.6-1.9-0.6-2.9c0-4.7,4-8.4,9-8.4
	c0.2,0,0.4,0,0.6,0l0,0c1.4-3.4,4.9-5.9,9.1-5.9c4.7,0,8.6,3.1,9.5,7.2c0,0.1,0.3,0.1,0.4,0.1c1,0.2,1.9,0.8,2.7,1.4
	c0.9,0.7,1.6,1.6,2,2.6C386.5,112.5,386.7,113.5,386.7,114.6"/>
<path class="st0" d="M397,115.1c0.9,0.2,1.6,1.1,1.6,2.1c0,0.1,0,0.2,0,0.2h-8.9c0-0.9,0.6-1.2,0.6-1.2c0-1,0.7-1.7,1.8-1.6h0
	c0.4-0.9,1.3-1.6,2.3-1.6C395.7,113,396.8,113.9,397,115.1"/>
<path class="st0" d="M402.2,117.3h3.9c0.4,0,0.8-0.4,0.8-0.8c0-0.4-0.3-0.8-0.8-0.8h-3.9c-0.4,0-0.8,0.4-0.8,0.8
	C401.4,117,401.7,117.3,402.2,117.3"/>
<path class="st0" d="M443.4,117.3h3.9c0.4,0,0.8-0.4,0.8-0.8c0-0.4-0.3-0.8-0.8-0.8h-3.9c-0.4,0-0.8,0.4-0.8,0.8
	C442.6,117,443,117.3,443.4,117.3"/>
<path class="st0" d="M89.6,70.1c3.1,0.8,5.5,3.7,5.5,7.2c0,0.3,0,0.5,0,0.8l-30.7,0c-0.1-3.1,2.2-4.2,2.2-4.2
	c-0.1-3.4,2.4-6,6.4-5.7H73c1.4-3.1,4.4-5.4,8-5.4C85.3,62.8,88.9,65.9,89.6,70.1"/>
<path class="st0" d="M57.7,75c1.2,0.3,2.1,1.4,2.1,2.8c0,0.1,0,0.2,0,0.3l-11.7,0c-0.1-1.2,0.8-1.6,0.8-1.6c0-1.3,0.9-2.3,2.4-2.2h0
	c0.5-1.2,1.7-2.1,3-2.1C56,72.2,57.4,73.4,57.7,75"/>
<path class="st0" d="M99,78.2h14.3c0.4,0,0.7-0.3,0.7-0.7c0-0.4-0.3-0.7-0.7-0.7H99c-0.4,0-0.7,0.3-0.7,0.7
	C98.3,77.9,98.6,78.2,99,78.2"/>
<path class="st0" d="M40.8,78.4h3.6c0.4,0,0.7-0.3,0.7-0.7c0-0.4-0.3-0.7-0.7-0.7h-3.6c-0.4,0-0.7,0.3-0.7,0.7
	C40.1,78,40.4,78.4,40.8,78.4"/>
<path class="st0" d="M4.1,78.2h14.3c0.4,0,0.7-0.3,0.7-0.7c0-0.4-0.3-0.7-0.7-0.7H4.1c-0.4,0-0.7,0.3-0.7,0.7
	C3.4,77.8,3.7,78.2,4.1,78.2"/>
<path class="st0" d="M140.9,122c0,0.8-0.1,1.6-0.4,2.3l-0.1,0.3l-29.5,0c-0.3-0.8-0.5-1.7-0.5-2.6c0-4.2,3.6-7.6,8.1-7.6
	c0.2,0,0.4,0,0.5,0l0,0c1.2-3.1,4.4-5.3,8.2-5.3c4.2,0,7.7,2.8,8.5,6.5c0,0.1,0.3,0.1,0.3,0.1c0.9,0.2,1.7,0.7,2.4,1.3
	c0.8,0.6,1.4,1.5,1.8,2.4C140.6,120.1,140.9,121,140.9,122"/>
<path class="st0" d="M301.8,158.3c1.1,0.3,1.9,1.3,1.9,2.4c0,0.1,0,0.2,0,0.3h-10.4c0-1,0.8-1.4,0.8-1.4c0-1.2,0.8-2,2.2-1.9h0
	c0.5-1.1,1.5-1.8,2.7-1.8C300.3,155.8,301.5,156.9,301.8,158.3"/>
<path class="st0" d="M307.9,160.9h4.6c0.5,0,0.9-0.4,0.9-0.9c0-0.5-0.4-0.9-0.9-0.9h-4.6c-0.5,0-0.9,0.4-0.9,0.9
	C307,160.4,307.4,160.9,307.9,160.9"/>
<path class="st0" d="M102.3,124.2h3.5c0.4,0,0.7-0.3,0.7-0.7c0-0.4-0.3-0.7-0.7-0.7h-3.5c-0.4,0-0.7,0.3-0.7,0.7
	C101.6,123.9,101.9,124.2,102.3,124.2"/>
<path class="st2" d="M303.3,37.7c-3,0.8-5.3,3.6-5.3,7c0,0.3,0,0.5,0,0.8l29.6,0c0.1-3-2.1-4.1-2.1-4.1c0.1-3.3-2.3-5.8-6.1-5.5
	h-0.1c-1.3-3-4.3-5.2-7.7-5.2C307.4,30.6,303.9,33.6,303.3,37.7"/>
<path class="st2" d="M332.5,45.6h13.8c0.4,0,0.7-0.3,0.7-0.7c0-0.4-0.3-0.7-0.7-0.7h-13.8c-0.4,0-0.7,0.3-0.7,0.7
	C331.8,45.3,332.1,45.6,332.5,45.6"/>
<path class="st2" d="M276.4,45.7h3.5c0.4,0,0.7-0.3,0.7-0.7c0-0.4-0.3-0.7-0.7-0.7h-3.5c-0.4,0-0.7,0.3-0.7,0.7
	C275.7,45.4,276,45.7,276.4,45.7"/>
<path class="st2" d="M189.7,50.7h4.1c0.5,0,0.8-0.4,0.8-0.8c0-0.5-0.4-0.8-0.8-0.8h-4.1c-0.5,0-0.8,0.4-0.8,0.8
	C188.9,50.4,189.2,50.7,189.7,50.7"/>
<path class="st2" d="M162.8,50.7h16.6c0.5,0,0.8-0.4,0.8-0.8c0-0.5-0.4-0.8-0.8-0.8h-16.6c-0.5,0-0.8,0.4-0.8,0.8
	C162,50.4,162.4,50.7,162.8,50.7"/>
<path class="st2" d="M43.3,158.3h3c0.3,0,0.6-0.3,0.6-0.6c0-0.3-0.3-0.6-0.6-0.6h-3c-0.3,0-0.6,0.3-0.6,0.6
	C42.7,158.1,43,158.3,43.3,158.3"/>
<path class="st2" d="M27.9,159.3h11.9c0.3,0,0.6-0.3,0.6-0.6c0-0.3-0.3-0.6-0.6-0.6H27.9c-0.3,0-0.6,0.3-0.6,0.6
	C27.3,159.1,27.6,159.3,27.9,159.3"/>
<polyline class="st3" points="269.6,263.6 269.6,132.2 130.8,131.9 130.8,133.3 130.8,263.7 "/>
<g>
	<g>
		<line class="st4" x1="130.7" y1="204.4" x2="206.8" y2="204.3"/>
		<line class="st4" x1="130.7" y1="198" x2="206.8" y2="197.8"/>
		<line class="st4" x1="140.1" y1="204.1" x2="140.1" y2="198.3"/>
		<line class="st4" x1="149.8" y1="204.1" x2="149.8" y2="198.3"/>
		<line class="st4" x1="159.1" y1="204.1" x2="159.1" y2="198.3"/>
		<line class="st4" x1="168.7" y1="204.1" x2="168.7" y2="198.3"/>
		<line class="st4" x1="178.2" y1="204.1" x2="178.2" y2="198.3"/>
		<line class="st4" x1="187.8" y1="204.1" x2="187.8" y2="198.3"/>
		<line class="st4" x1="197.4" y1="204.1" x2="197.4" y2="198.3"/>
		<line class="st4" x1="130.8" y1="211.1" x2="206.7" y2="210.9"/>
		<line class="st4" x1="135.3" y1="210.8" x2="135.3" y2="204.9"/>
		<line class="st4" x1="145" y1="210.8" x2="145" y2="204.9"/>
		<line class="st4" x1="154.3" y1="210.8" x2="154.3" y2="204.9"/>
		<line class="st4" x1="163.9" y1="210.8" x2="163.9" y2="204.9"/>
		<line class="st4" x1="173.3" y1="210.8" x2="173.3" y2="204.9"/>
		<line class="st4" x1="183" y1="210.8" x2="183" y2="204.9"/>
		<line class="st4" x1="192.6" y1="210.8" x2="192.6" y2="204.9"/>
		<line class="st4" x1="202.6" y1="210.8" x2="202.6" y2="204.9"/>
		<line class="st4" x1="130.8" y1="217.8" x2="206.8" y2="217.6"/>
		<line class="st4" x1="140.2" y1="217.5" x2="140.2" y2="211.6"/>
		<line class="st4" x1="149.9" y1="217.5" x2="149.9" y2="211.6"/>
		<line class="st4" x1="159.1" y1="217.5" x2="159.1" y2="211.6"/>
		<line class="st4" x1="168.8" y1="217.5" x2="168.8" y2="211.6"/>
		<line class="st4" x1="178.2" y1="217.5" x2="178.2" y2="211.6"/>
		<line class="st4" x1="187.9" y1="217.5" x2="187.9" y2="211.6"/>
		<line class="st4" x1="197.5" y1="217.5" x2="197.5" y2="211.6"/>
		<line class="st4" x1="130.9" y1="224.4" x2="206.8" y2="224.3"/>
		<line class="st4" x1="135.4" y1="224.2" x2="135.4" y2="218.3"/>
		<line class="st4" x1="145.1" y1="224.2" x2="145.1" y2="218.3"/>
		<line class="st4" x1="154.3" y1="224.2" x2="154.3" y2="218.3"/>
		<line class="st4" x1="164" y1="224.2" x2="164" y2="218.3"/>
		<line class="st4" x1="173.4" y1="224.2" x2="173.4" y2="218.3"/>
		<line class="st4" x1="183.1" y1="224.2" x2="183.1" y2="218.3"/>
		<line class="st4" x1="192.7" y1="224.2" x2="192.7" y2="218.3"/>
		<line class="st4" x1="202.7" y1="224.2" x2="202.7" y2="218.3"/>
		<line class="st4" x1="131.1" y1="230.8" x2="207.2" y2="230.7"/>
		<line class="st4" x1="140.5" y1="230.5" x2="140.5" y2="224.7"/>
		<line class="st4" x1="150.2" y1="230.5" x2="150.2" y2="224.7"/>
		<line class="st4" x1="159.5" y1="230.5" x2="159.5" y2="224.7"/>
		<line class="st4" x1="169.1" y1="230.5" x2="169.1" y2="224.7"/>
		<line class="st4" x1="178.6" y1="230.5" x2="178.6" y2="224.7"/>
		<line class="st4" x1="188.2" y1="230.5" x2="188.2" y2="224.7"/>
		<line class="st4" x1="197.8" y1="230.5" x2="197.8" y2="224.7"/>
		<line class="st4" x1="131.2" y1="237.5" x2="207.1" y2="237.3"/>
		<line class="st4" x1="135.7" y1="237.2" x2="135.7" y2="231.3"/>
		<line class="st4" x1="145.4" y1="237.2" x2="145.4" y2="231.3"/>
		<line class="st4" x1="154.7" y1="237.2" x2="154.7" y2="231.3"/>
		<line class="st4" x1="164.3" y1="237.2" x2="164.3" y2="231.3"/>
		<line class="st4" x1="173.8" y1="237.2" x2="173.8" y2="231.3"/>
		<line class="st4" x1="183.4" y1="237.2" x2="183.4" y2="231.3"/>
		<line class="st4" x1="193" y1="237.2" x2="193" y2="231.3"/>
		<line class="st4" x1="203" y1="237.2" x2="203" y2="231.3"/>
		<line class="st4" x1="131.2" y1="244.2" x2="207.2" y2="244"/>
		<line class="st4" x1="140.6" y1="243.9" x2="140.6" y2="238"/>
		<line class="st4" x1="150.3" y1="243.9" x2="150.3" y2="238"/>
		<line class="st4" x1="159.6" y1="243.9" x2="159.6" y2="238"/>
		<line class="st4" x1="169.2" y1="243.9" x2="169.2" y2="238"/>
		<line class="st4" x1="178.6" y1="243.9" x2="178.6" y2="238"/>
		<line class="st4" x1="188.3" y1="243.9" x2="188.3" y2="238"/>
		<line class="st4" x1="197.9" y1="243.9" x2="197.9" y2="238"/>
		<line class="st4" x1="131.3" y1="250.8" x2="207.2" y2="250.7"/>
		<line class="st4" x1="135.8" y1="250.6" x2="135.8" y2="244.7"/>
		<line class="st4" x1="145.5" y1="250.6" x2="145.5" y2="244.7"/>
		<line class="st4" x1="154.7" y1="250.6" x2="154.7" y2="244.7"/>
		<line class="st4" x1="164.4" y1="250.6" x2="164.4" y2="244.7"/>
		<line class="st4" x1="173.8" y1="250.6" x2="173.8" y2="244.7"/>
		<line class="st4" x1="183.5" y1="250.6" x2="183.5" y2="244.7"/>
		<line class="st4" x1="193.1" y1="250.6" x2="193.1" y2="244.7"/>
		<line class="st4" x1="203.1" y1="250.6" x2="203.1" y2="244.7"/>
		<line class="st4" x1="131.1" y1="256.9" x2="207.2" y2="256.8"/>
		<line class="st4" x1="140.5" y1="256.6" x2="140.5" y2="250.8"/>
		<line class="st4" x1="150.2" y1="256.6" x2="150.2" y2="250.8"/>
		<line class="st4" x1="159.5" y1="256.6" x2="159.5" y2="250.8"/>
		<line class="st4" x1="169.1" y1="256.6" x2="169.1" y2="250.8"/>
		<line class="st4" x1="178.6" y1="256.6" x2="178.6" y2="250.8"/>
		<line class="st4" x1="188.2" y1="256.6" x2="188.2" y2="250.8"/>
		<line class="st4" x1="197.8" y1="256.6" x2="197.8" y2="250.8"/>
		<line class="st4" x1="131.2" y1="263.6" x2="207.1" y2="263.4"/>
		<line class="st4" x1="135.7" y1="263.3" x2="135.7" y2="257.4"/>
		<line class="st4" x1="145.4" y1="263.3" x2="145.4" y2="257.4"/>
		<line class="st4" x1="154.7" y1="263.3" x2="154.7" y2="257.4"/>
		<line class="st4" x1="164.3" y1="263.3" x2="164.3" y2="257.4"/>
		<line class="st4" x1="173.8" y1="263.3" x2="173.8" y2="257.4"/>
		<line class="st4" x1="183.4" y1="263.3" x2="183.4" y2="257.4"/>
		<line class="st4" x1="193" y1="263.3" x2="193" y2="257.4"/>
		<line class="st4" x1="203" y1="263.3" x2="203" y2="257.4"/>
		<line class="st4" x1="206.8" y1="204.3" x2="269.1" y2="204.1"/>
		<line class="st4" x1="206.8" y1="197.8" x2="269.1" y2="197.7"/>
		<line class="st4" x1="217.3" y1="204" x2="217.3" y2="198.1"/>
		<line class="st4" x1="227" y1="204" x2="227" y2="198.1"/>
		<line class="st4" x1="236.3" y1="204" x2="236.3" y2="198.1"/>
		<line class="st4" x1="245.9" y1="204" x2="245.9" y2="198.1"/>
		<line class="st4" x1="255.3" y1="204" x2="255.3" y2="198.1"/>
		<line class="st4" x1="265" y1="204" x2="265" y2="198.1"/>
		<line class="st4" x1="206.7" y1="210.9" x2="269.1" y2="210.8"/>
		<line class="st4" x1="212.5" y1="210.7" x2="212.5" y2="204.8"/>
		<line class="st4" x1="222.2" y1="210.7" x2="222.2" y2="204.8"/>
		<line class="st4" x1="231.5" y1="210.7" x2="231.5" y2="204.8"/>
		<line class="st4" x1="241.1" y1="210.7" x2="241.1" y2="204.8"/>
		<line class="st4" x1="250.5" y1="210.7" x2="250.5" y2="204.8"/>
		<line class="st4" x1="260.2" y1="210.7" x2="260.2" y2="204.8"/>
		<line class="st4" x1="206.8" y1="217.6" x2="269.2" y2="217.5"/>
		<line class="st4" x1="217.4" y1="217.4" x2="217.4" y2="211.5"/>
		<line class="st4" x1="227" y1="217.4" x2="227" y2="211.5"/>
		<line class="st4" x1="236.3" y1="217.4" x2="236.3" y2="211.5"/>
		<line class="st4" x1="246" y1="217.4" x2="246" y2="211.5"/>
		<line class="st4" x1="255.4" y1="217.4" x2="255.4" y2="211.5"/>
		<line class="st4" x1="265" y1="217.4" x2="265" y2="211.5"/>
		<line class="st4" x1="206.8" y1="224.3" x2="269.2" y2="224.2"/>
		<line class="st4" x1="212.6" y1="224" x2="212.6" y2="218.2"/>
		<line class="st4" x1="222.2" y1="224" x2="222.2" y2="218.2"/>
		<line class="st4" x1="231.5" y1="224" x2="231.5" y2="218.2"/>
		<line class="st4" x1="241.2" y1="224" x2="241.2" y2="218.2"/>
		<line class="st4" x1="250.6" y1="224" x2="250.6" y2="218.2"/>
		<line class="st4" x1="260.2" y1="224" x2="260.2" y2="218.2"/>
		<line class="st4" x1="207.1" y1="230.7" x2="269.4" y2="230.5"/>
		<line class="st4" x1="217.7" y1="230.4" x2="217.7" y2="224.5"/>
		<line class="st4" x1="227.4" y1="230.4" x2="227.4" y2="224.5"/>
		<line class="st4" x1="236.7" y1="230.4" x2="236.7" y2="224.5"/>
		<line class="st4" x1="246.3" y1="230.4" x2="246.3" y2="224.5"/>
		<line class="st4" x1="255.7" y1="230.4" x2="255.7" y2="224.5"/>
		<line class="st4" x1="265.4" y1="230.4" x2="265.4" y2="224.5"/>
		<line class="st4" x1="207.1" y1="237.3" x2="269.4" y2="237.2"/>
		<line class="st4" x1="212.9" y1="237.1" x2="212.9" y2="231.2"/>
		<line class="st4" x1="222.6" y1="237.1" x2="222.6" y2="231.2"/>
		<line class="st4" x1="231.9" y1="237.1" x2="231.9" y2="231.2"/>
		<line class="st4" x1="241.5" y1="237.1" x2="241.5" y2="231.2"/>
		<line class="st4" x1="250.9" y1="237.1" x2="250.9" y2="231.2"/>
		<line class="st4" x1="260.6" y1="237.1" x2="260.6" y2="231.2"/>
		<line class="st4" x1="207.1" y1="244" x2="269.5" y2="243.9"/>
		<line class="st4" x1="217.8" y1="243.8" x2="217.8" y2="237.9"/>
		<line class="st4" x1="227.4" y1="243.8" x2="227.4" y2="237.9"/>
		<line class="st4" x1="236.7" y1="243.8" x2="236.7" y2="237.9"/>
		<line class="st4" x1="246.4" y1="243.8" x2="246.4" y2="237.9"/>
		<line class="st4" x1="255.8" y1="243.8" x2="255.8" y2="237.9"/>
		<line class="st4" x1="265.4" y1="243.8" x2="265.4" y2="237.9"/>
		<line class="st4" x1="207.1" y1="250.7" x2="269.5" y2="250.6"/>
		<line class="st4" x1="213" y1="250.4" x2="213" y2="244.5"/>
		<line class="st4" x1="222.6" y1="250.4" x2="222.6" y2="244.5"/>
		<line class="st4" x1="231.9" y1="250.4" x2="231.9" y2="244.5"/>
		<line class="st4" x1="241.6" y1="250.4" x2="241.6" y2="244.5"/>
		<line class="st4" x1="251" y1="250.4" x2="251" y2="244.5"/>
		<line class="st4" x1="260.6" y1="250.4" x2="260.6" y2="244.5"/>
		<line class="st4" x1="207.1" y1="256.8" x2="269.4" y2="256.6"/>
		<line class="st4" x1="217.7" y1="256.5" x2="217.7" y2="250.6"/>
		<line class="st4" x1="227.4" y1="256.5" x2="227.4" y2="250.6"/>
		<line class="st4" x1="236.7" y1="256.5" x2="236.7" y2="250.6"/>
		<line class="st4" x1="246.3" y1="256.5" x2="246.3" y2="250.6"/>
		<line class="st4" x1="255.7" y1="256.5" x2="255.7" y2="250.6"/>
		<line class="st4" x1="265.4" y1="256.5" x2="265.4" y2="250.6"/>
		<line class="st4" x1="207.1" y1="263.4" x2="269.4" y2="263.3"/>
		<line class="st4" x1="212.9" y1="263.2" x2="212.9" y2="257.3"/>
		<line class="st4" x1="222.6" y1="263.2" x2="222.6" y2="257.3"/>
		<line class="st4" x1="231.9" y1="263.2" x2="231.9" y2="257.3"/>
		<line class="st4" x1="241.5" y1="263.2" x2="241.5" y2="257.3"/>
		<line class="st4" x1="250.9" y1="263.2" x2="250.9" y2="257.3"/>
		<line class="st4" x1="260.6" y1="263.2" x2="260.6" y2="257.3"/>
		<line class="st4" x1="207.6" y1="203.9" x2="207.6" y2="198"/>
		<line class="st4" x1="207.6" y1="217.3" x2="207.6" y2="211.4"/>
		<line class="st4" x1="208" y1="230.3" x2="208" y2="224.4"/>
		<line class="st4" x1="208" y1="243.7" x2="208" y2="237.8"/>
		<line class="st4" x1="208" y1="256.4" x2="208" y2="250.6"/>
	</g>
	<line class="st4" x1="130.8" y1="138.8" x2="206.9" y2="138.6"/>
	<line class="st4" x1="130.8" y1="132.4" x2="206.9" y2="132.2"/>
	<line class="st4" x1="140.3" y1="138.5" x2="140.3" y2="132.6"/>
	<line class="st4" x1="149.9" y1="138.5" x2="149.9" y2="132.6"/>
	<line class="st4" x1="159.2" y1="138.5" x2="159.2" y2="132.6"/>
	<line class="st4" x1="168.9" y1="138.5" x2="168.9" y2="132.6"/>
	<line class="st4" x1="178.3" y1="138.5" x2="178.3" y2="132.6"/>
	<line class="st4" x1="187.9" y1="138.5" x2="187.9" y2="132.6"/>
	<line class="st4" x1="197.6" y1="138.5" x2="197.6" y2="132.6"/>
	<line class="st4" x1="131" y1="145.5" x2="206.9" y2="145.3"/>
	<line class="st4" x1="135.5" y1="145.2" x2="135.5" y2="139.3"/>
	<line class="st4" x1="145.1" y1="145.2" x2="145.1" y2="139.3"/>
	<line class="st4" x1="154.4" y1="145.2" x2="154.4" y2="139.3"/>
	<line class="st4" x1="164.1" y1="145.2" x2="164.1" y2="139.3"/>
	<line class="st4" x1="173.5" y1="145.2" x2="173.5" y2="139.3"/>
	<line class="st4" x1="183.1" y1="145.2" x2="183.1" y2="139.3"/>
	<line class="st4" x1="192.8" y1="145.2" x2="192.8" y2="139.3"/>
	<line class="st4" x1="202.8" y1="145.2" x2="202.8" y2="139.3"/>
	<line class="st4" x1="130.9" y1="152.2" x2="206.9" y2="152"/>
	<line class="st4" x1="140.3" y1="151.9" x2="140.3" y2="146"/>
	<line class="st4" x1="150" y1="151.9" x2="150" y2="146"/>
	<line class="st4" x1="159.3" y1="151.9" x2="159.3" y2="146"/>
	<line class="st4" x1="168.9" y1="151.9" x2="168.9" y2="146"/>
	<line class="st4" x1="178.3" y1="151.9" x2="178.3" y2="146"/>
	<line class="st4" x1="188" y1="151.9" x2="188" y2="146"/>
	<line class="st4" x1="197.6" y1="151.9" x2="197.6" y2="146"/>
	<line class="st4" x1="131" y1="158.8" x2="206.9" y2="158.7"/>
	<line class="st4" x1="135.5" y1="158.5" x2="135.5" y2="152.7"/>
	<line class="st4" x1="145.2" y1="158.5" x2="145.2" y2="152.7"/>
	<line class="st4" x1="154.5" y1="158.5" x2="154.5" y2="152.7"/>
	<line class="st4" x1="164.1" y1="158.5" x2="164.1" y2="152.7"/>
	<line class="st4" x1="173.5" y1="158.5" x2="173.5" y2="152.7"/>
	<line class="st4" x1="183.2" y1="158.5" x2="183.2" y2="152.7"/>
	<line class="st4" x1="192.8" y1="158.5" x2="192.8" y2="152.7"/>
	<line class="st4" x1="202.8" y1="158.5" x2="202.8" y2="152.7"/>
	<line class="st4" x1="131.2" y1="165.2" x2="207.3" y2="165"/>
	<line class="st4" x1="140.7" y1="164.9" x2="140.7" y2="159"/>
	<line class="st4" x1="150.3" y1="164.9" x2="150.3" y2="159"/>
	<line class="st4" x1="159.6" y1="164.9" x2="159.6" y2="159"/>
	<line class="st4" x1="169.3" y1="164.9" x2="169.3" y2="159"/>
	<line class="st4" x1="178.7" y1="164.9" x2="178.7" y2="159"/>
	<line class="st4" x1="188.3" y1="164.9" x2="188.3" y2="159"/>
	<line class="st4" x1="198" y1="164.9" x2="198" y2="159"/>
	<line class="st4" x1="131.4" y1="171.9" x2="207.3" y2="171.7"/>
	<line class="st4" x1="135.9" y1="171.6" x2="135.9" y2="165.7"/>
	<line class="st4" x1="145.5" y1="171.6" x2="145.5" y2="165.7"/>
	<line class="st4" x1="154.8" y1="171.6" x2="154.8" y2="165.7"/>
	<line class="st4" x1="164.5" y1="171.6" x2="164.5" y2="165.7"/>
	<line class="st4" x1="173.9" y1="171.6" x2="173.9" y2="165.7"/>
	<line class="st4" x1="183.5" y1="171.6" x2="183.5" y2="165.7"/>
	<line class="st4" x1="193.2" y1="171.6" x2="193.2" y2="165.7"/>
	<line class="st4" x1="203.2" y1="171.6" x2="203.2" y2="165.7"/>
	<line class="st4" x1="131.3" y1="178.6" x2="207.3" y2="178.4"/>
	<line class="st4" x1="140.7" y1="178.3" x2="140.7" y2="172.4"/>
	<line class="st4" x1="150.4" y1="178.3" x2="150.4" y2="172.4"/>
	<line class="st4" x1="159.7" y1="178.3" x2="159.7" y2="172.4"/>
	<line class="st4" x1="169.3" y1="178.3" x2="169.3" y2="172.4"/>
	<line class="st4" x1="178.7" y1="178.3" x2="178.7" y2="172.4"/>
	<line class="st4" x1="188.4" y1="178.3" x2="188.4" y2="172.4"/>
	<line class="st4" x1="198" y1="178.3" x2="198" y2="172.4"/>
	<line class="st4" x1="131.4" y1="185.2" x2="207.3" y2="185.1"/>
	<line class="st4" x1="135.9" y1="184.9" x2="135.9" y2="179"/>
	<line class="st4" x1="145.6" y1="184.9" x2="145.6" y2="179"/>
	<line class="st4" x1="154.9" y1="184.9" x2="154.9" y2="179"/>
	<line class="st4" x1="164.5" y1="184.9" x2="164.5" y2="179"/>
	<line class="st4" x1="173.9" y1="184.9" x2="173.9" y2="179"/>
	<line class="st4" x1="183.6" y1="184.9" x2="183.6" y2="179"/>
	<line class="st4" x1="193.2" y1="184.9" x2="193.2" y2="179"/>
	<line class="st4" x1="203.2" y1="184.9" x2="203.2" y2="179"/>
	<line class="st4" x1="131.2" y1="191.3" x2="207.3" y2="191.1"/>
	<line class="st4" x1="140.7" y1="191" x2="140.7" y2="185.1"/>
	<line class="st4" x1="150.3" y1="191" x2="150.3" y2="185.1"/>
	<line class="st4" x1="159.6" y1="191" x2="159.6" y2="185.1"/>
	<line class="st4" x1="169.3" y1="191" x2="169.3" y2="185.1"/>
	<line class="st4" x1="178.7" y1="191" x2="178.7" y2="185.1"/>
	<line class="st4" x1="188.3" y1="191" x2="188.3" y2="185.1"/>
	<line class="st4" x1="198" y1="191" x2="198" y2="185.1"/>
	<line class="st4" x1="135.9" y1="197.7" x2="135.9" y2="191.8"/>
	<line class="st4" x1="145.5" y1="197.7" x2="145.5" y2="191.8"/>
	<line class="st4" x1="154.8" y1="197.7" x2="154.8" y2="191.8"/>
	<line class="st4" x1="164.5" y1="197.7" x2="164.5" y2="191.8"/>
	<line class="st4" x1="173.9" y1="197.7" x2="173.9" y2="191.8"/>
	<line class="st4" x1="183.5" y1="197.7" x2="183.5" y2="191.8"/>
	<line class="st4" x1="193.2" y1="197.7" x2="193.2" y2="191.8"/>
	<line class="st4" x1="203.2" y1="197.7" x2="203.2" y2="191.8"/>
	<line class="st4" x1="206.9" y1="138.6" x2="269.2" y2="138.5"/>
	<line class="st4" x1="206.9" y1="132.2" x2="269.2" y2="132.1"/>
	<line class="st4" x1="217.4" y1="138.4" x2="217.4" y2="132.5"/>
	<line class="st4" x1="227.1" y1="138.4" x2="227.1" y2="132.5"/>
	<line class="st4" x1="236.4" y1="138.4" x2="236.4" y2="132.5"/>
	<line class="st4" x1="246" y1="138.4" x2="246" y2="132.5"/>
	<line class="st4" x1="255.4" y1="138.4" x2="255.4" y2="132.5"/>
	<line class="st4" x1="265.1" y1="138.4" x2="265.1" y2="132.5"/>
	<line class="st4" x1="206.9" y1="145.3" x2="269.2" y2="145.2"/>
	<line class="st4" x1="212.6" y1="145" x2="212.6" y2="139.2"/>
	<line class="st4" x1="222.3" y1="145" x2="222.3" y2="139.2"/>
	<line class="st4" x1="231.6" y1="145" x2="231.6" y2="139.2"/>
	<line class="st4" x1="241.2" y1="145" x2="241.2" y2="139.2"/>
	<line class="st4" x1="250.6" y1="145" x2="250.6" y2="139.2"/>
	<line class="st4" x1="260.3" y1="145" x2="260.3" y2="139.2"/>
	<line class="st4" x1="206.9" y1="152" x2="269.3" y2="151.9"/>
	<line class="st4" x1="217.5" y1="151.7" x2="217.5" y2="145.9"/>
	<line class="st4" x1="227.2" y1="151.7" x2="227.2" y2="145.9"/>
	<line class="st4" x1="236.4" y1="151.7" x2="236.4" y2="145.9"/>
	<line class="st4" x1="246.1" y1="151.7" x2="246.1" y2="145.9"/>
	<line class="st4" x1="255.5" y1="151.7" x2="255.5" y2="145.9"/>
	<line class="st4" x1="265.2" y1="151.7" x2="265.2" y2="145.9"/>
	<line class="st4" x1="206.9" y1="158.7" x2="269.3" y2="158.5"/>
	<line class="st4" x1="212.7" y1="158.4" x2="212.7" y2="152.5"/>
	<line class="st4" x1="222.4" y1="158.4" x2="222.4" y2="152.5"/>
	<line class="st4" x1="231.6" y1="158.4" x2="231.6" y2="152.5"/>
	<line class="st4" x1="241.3" y1="158.4" x2="241.3" y2="152.5"/>
	<line class="st4" x1="250.7" y1="158.4" x2="250.7" y2="152.5"/>
	<line class="st4" x1="260.4" y1="158.4" x2="260.4" y2="152.5"/>
	<line class="st4" x1="207.2" y1="165" x2="269.6" y2="164.9"/>
	<line class="st4" x1="217.8" y1="164.8" x2="217.8" y2="158.9"/>
	<line class="st4" x1="227.5" y1="164.8" x2="227.5" y2="158.9"/>
	<line class="st4" x1="236.8" y1="164.8" x2="236.8" y2="158.9"/>
	<line class="st4" x1="246.4" y1="164.8" x2="246.4" y2="158.9"/>
	<line class="st4" x1="255.9" y1="164.8" x2="255.9" y2="158.9"/>
	<line class="st4" x1="265.5" y1="164.8" x2="265.5" y2="158.9"/>
	<line class="st4" x1="207.2" y1="171.7" x2="269.6" y2="171.6"/>
	<line class="st4" x1="213" y1="171.4" x2="213" y2="165.6"/>
	<line class="st4" x1="222.7" y1="171.4" x2="222.7" y2="165.6"/>
	<line class="st4" x1="232" y1="171.4" x2="232" y2="165.6"/>
	<line class="st4" x1="241.6" y1="171.4" x2="241.6" y2="165.6"/>
	<line class="st4" x1="251" y1="171.4" x2="251" y2="165.6"/>
	<line class="st4" x1="260.7" y1="171.4" x2="260.7" y2="165.6"/>
	<line class="st4" x1="207.3" y1="178.4" x2="269.6" y2="178.3"/>
	<line class="st4" x1="217.9" y1="178.1" x2="217.9" y2="172.3"/>
	<line class="st4" x1="227.6" y1="178.1" x2="227.6" y2="172.3"/>
	<line class="st4" x1="236.8" y1="178.1" x2="236.8" y2="172.3"/>
	<line class="st4" x1="246.5" y1="178.1" x2="246.5" y2="172.3"/>
	<line class="st4" x1="255.9" y1="178.1" x2="255.9" y2="172.3"/>
	<line class="st4" x1="265.6" y1="178.1" x2="265.6" y2="172.3"/>
	<line class="st4" x1="207.2" y1="185.1" x2="269.6" y2="184.9"/>
	<line class="st4" x1="213.1" y1="184.8" x2="213.1" y2="178.9"/>
	<line class="st4" x1="222.8" y1="184.8" x2="222.8" y2="178.9"/>
	<line class="st4" x1="232" y1="184.8" x2="232" y2="178.9"/>
	<line class="st4" x1="241.7" y1="184.8" x2="241.7" y2="178.9"/>
	<line class="st4" x1="251.1" y1="184.8" x2="251.1" y2="178.9"/>
	<line class="st4" x1="260.8" y1="184.8" x2="260.8" y2="178.9"/>
	<line class="st4" x1="207.2" y1="191.1" x2="269.6" y2="191"/>
	<line class="st4" x1="217.8" y1="190.9" x2="217.8" y2="185"/>
	<line class="st4" x1="227.5" y1="190.9" x2="227.5" y2="185"/>
	<line class="st4" x1="236.8" y1="190.9" x2="236.8" y2="185"/>
	<line class="st4" x1="246.4" y1="190.9" x2="246.4" y2="185"/>
	<line class="st4" x1="255.9" y1="190.9" x2="255.9" y2="185"/>
	<line class="st4" x1="265.5" y1="190.9" x2="265.5" y2="185"/>
	<line class="st4" x1="213" y1="197.6" x2="213" y2="191.7"/>
	<line class="st4" x1="222.7" y1="197.6" x2="222.7" y2="191.7"/>
	<line class="st4" x1="232" y1="197.6" x2="232" y2="191.7"/>
	<line class="st4" x1="241.6" y1="197.6" x2="241.6" y2="191.7"/>
	<line class="st4" x1="251" y1="197.6" x2="251" y2="191.7"/>
	<line class="st4" x1="260.7" y1="197.6" x2="260.7" y2="191.7"/>
	<line class="st4" x1="207.7" y1="138.3" x2="207.7" y2="132.4"/>
	<line class="st4" x1="207.8" y1="151.7" x2="207.8" y2="145.8"/>
	<line class="st4" x1="208.1" y1="164.7" x2="208.1" y2="158.8"/>
	<line class="st4" x1="208.2" y1="178.1" x2="208.2" y2="172.2"/>
	<line class="st4" x1="208.1" y1="190.8" x2="208.1" y2="184.9"/>
</g>
<path class="st5" d="M411.5,198v-24.8c0-1-0.4-0.8-1.3-0.8h-27.6c-1,0-1.8-0.2-1.8,0.8V198"/>
<line class="st6" x1="412.3" y1="186" x2="381.2" y2="186"/>
<line class="st6" x1="396.7" y1="172.4" x2="396.7" y2="198.9"/>
<path class="st7" d="M412.7,198.5c0-0.9-0.7-1.6-1.5-1.6h-30.3c-0.9,0-1.5,0.7-1.5,1.6v0.3c0,0.9,0.7,1.6,1.5,1.6h30.3
	c0.9,0,1.5-0.7,1.5-1.6V198.5z"/>
<g>
	<line class="st8" x1="379.4" y1="188.7" x2="377.8" y2="190.1"/>
	<line class="st8" x1="382.4" y1="189" x2="377.7" y2="192.9"/>
</g>
<g>
	<line class="st8" x1="395.6" y1="175" x2="394" y2="176.3"/>
	<line class="st8" x1="398.5" y1="175.3" x2="393.9" y2="179.1"/>
</g>
<path class="st9" d="M227.1,87.3v-6.8c0-2.9,3.1-3.7,6.5-3.7h10.6c3.4,0,6.2,1.6,6.2,4.5l-0.1,26.1"/>
<polyline class="st9" points="130.8,263.7 130.9,182.4 41.7,182.4 41.7,221.3 41.7,263.5 65.2,263.7 "/>
<path class="st5" d="M129.1,170.4l-87.5,7.4c-1,0.1-1.7,1-1.7,2l0,0.2c0,1.1,0.9,2.3,2.1,2.3h87.7c1.1,0,1.3-1.4,1.3-2.5v-7.4
	C130.9,171.3,130.2,170.3,129.1,170.4z"/>
<path class="st9" d="M62.3,261h62c1.4,0,2.5-1.2,2.5-2.6v-67c0-1.4-1.1-2.6-2.5-2.6H48.2c-1.4,0-2.5,1.2-2.5,2.6v11V259
	c0,1.1,0.9,2,2,2H62.3z"/>
<path class="st9" d="M185.5,263.5v-46.2c0-8.4,7.2-14.5,15.4-14.5h0.1c8.2,0,14.8,6.1,14.8,14.5v46.2"/>
<path class="st5" d="M250,176.1v-30.5c0-1.3-0.4-1-1.6-1h-33.9c-1.2,0-2.2-0.3-2.2,1v30.5"/>
<path class="st5" d="M187,176.1v-30.6c0-1.2-0.8-0.9-2-0.9h-34c-1.2,0-2.3-0.4-2.3,0.9v30.6"/>
<path class="st6" d="M189.7,237.8c0,0.7,0.6,1.3,1.3,1.3c0.7,0,1.3-0.6,1.3-1.3c0-0.7-0.6-1.3-1.3-1.3
	C190.3,236.5,189.7,237,189.7,237.8"/>
<path class="st10" d="M74.7,262.7"/>
<path class="st11" d="M211.7,217.9c0-1.2-0.9-2.2-2.1-2.2h-17.7c-1.2,0-2.1,1-2.1,2.2v12.4c0,1.2,0.9,2.2,2.1,2.2h17.7
	c1.2,0,2.1-1,2.1-2.2V217.9z"/>
<path class="st1" d="M269.6,224.1"/>
<path class="st1" d="M245.3,227.7"/>
<path class="st5" d="M270.5,132.2h3.3c1.9,0,2.8-2.8,1.3-4.1l-73.4-62.7c-0.8-0.7-1.9-0.7-2.6-0.1l-73.5,62.6
	c-1.5,1.3-0.6,3.7,1.3,3.7l3.9,0.3L270.5,132.2z"/>
<line class="st6" x1="250.9" y1="161.3" x2="212.6" y2="161.3"/>
<line class="st6" x1="187.4" y1="160.4" x2="149.6" y2="160.4"/>
<line class="st6" x1="231.8" y1="144.6" x2="231.8" y2="177.2"/>
<line class="st6" x1="167.8" y1="144.6" x2="167.8" y2="177.2"/>
<path class="st12" d="M251.4,176.7c0-1.1-0.8-1.9-1.9-1.9h-37.3c-1,0-1.9,0.9-1.9,1.9v0.4c0,1.1,0.8,1.9,1.9,1.9h37.3
	c1,0,1.9-0.9,1.9-1.9V176.7z"/>
<path class="st12" d="M187.9,176.7c0-1.1-0.8-1.9-1.9-1.9h-37.3c-1,0-1.9,0.9-1.9,1.9v0.4c0,1.1,0.8,1.9,1.9,1.9H186
	c1,0,1.9-0.9,1.9-1.9V176.7z"/>
<path class="st9" d="M126.9,220.6c0-1.4-1.1-2.6-2.5-2.6H48.2c-1.4,0-2.5,1.2-2.5,2.6v2.5c0,1.4,1.1,2.6,2.5,2.6h76.1
	c1.4,0,2.5-1.2,2.5-2.6V220.6z"/>
<path class="st9" d="M126.9,206.2c0-1.4-1.1-2.6-2.5-2.6H48.2c-1.4,0-2.5,1.2-2.5,2.6v2.5c0,1.4,1.1,2.6,2.5,2.6h76.1
	c1.4,0,2.5-1.2,2.5-2.6V206.2z"/>
<path class="st9" d="M126.9,191.4c0-1.4-1.1-2.6-2.5-2.6H48.2c-1.4,0-2.5,1.2-2.5,2.6v1.5c0,1.4,1.1,2.6,2.5,2.6h76.1
	c1.4,0,2.5-1.2,2.5-2.6V191.4z"/>
<ellipse class="st13" cx="243.2" cy="231.5" rx="11.6" ry="11.9"/>
<path class="st14" d="M239.3,238.9c-2.6-1.4-4.3-4.2-4.3-7.4c0-3.2,1.7-5.9,4.2-7.4"/>
<path class="st14" d="M247,224.1c2.6,1.4,4.3,4.2,4.3,7.4c0,3.2-1.8,6-4.3,7.4"/>
<path d="M247,242.1l0,0.5c-1.4,0.5-2.6,0.7-3.9,0.7c-1.3,0-2.6-0.3-3.8-0.7l0-0.6l0-1v-3.4l0-3.4c-0.5-0.8-0.9-1.8-0.9-2.8
	c0-1,0.3-2,0.9-2.8l0-0.3v-8.1c1.3-0.5,2.6-0.7,3.9-0.7c1.3,0,2.6,0.2,3.8,0.7v8.1l0,0.2c0.6,0.8,1,1.8,1,2.9c0,1.1-0.4,2.1-1,2.9
	l0,0.4v6.4"/>
<ellipse class="st15" cx="243.2" cy="231.5" rx="3.2" ry="3.3"/>
<ellipse class="st16" cx="243.2" cy="239.1" rx="0.8" ry="0.9"/>
<path class="st17" d="M243.2,231.3c4.3,0,8.8,0,12.9,1.5c2.7,1,4.9,3,6.5,5.3c1.6,2.3,2.2,5,3.6,7.3c3,4.6,7.7,4.6,10.7,0.1
	c2.3-3.4,3-7.9,5.8-11c2.4-2.6,5.8-3.5,9.2-3.6"/>
<line class="st18" x1="398.2" y1="262.7" x2="398.2" y2="206.3"/>
<line class="st19" x1="74.3" y1="263.7" x2="439.6" y2="263.7"/>
<path class="st20" d="M413.4,174.4c6.7,2.9,10.8,9.9,10.1,17.7c-0.8,9.8-9.2,17-18.8,16.2c-1.1-0.1-2.1-0.4-3.1-0.7
	c-0.5-0.2-1-0.4-1.5-0.6c-0.4-0.2-0.9-0.5-1.4-0.6c-0.6-0.1-1,0.4-1.5,0.6c-0.5,0.3-0.9,0.5-1.4,0.7c-1,0.4-2,0.8-3,1
	c-1.8,0.5-3.7,0.6-5.6,0.4c-9.5-0.8-16.6-9.4-15.8-19.2c0.4-5.4,3.2-10,7.1-12.9l0,0c-0.2-1.4-0.3-2.8-0.1-4.3
	c0.8-9.8,9.2-17,18.8-16.2c9,0.8,15.9,8.5,15.9,17.6L413.4,174.4z"/>
<path class="st5" d="M167.4,242v-30.6c0-1.2-0.4-0.9-1-0.9h-16.6c-0.6,0-1.1-0.4-1.1,0.9V242"/>
<line class="st6" x1="167.4" y1="226.3" x2="149.6" y2="226.3"/>
<path class="st12" d="M167.3,246.2h-19.2c-1.1,0-2-0.9-2-2v-0.4c0-1.1,0.9-2,2-2h19.2c1.1,0,2,0.9,2,2v0.4
	C169.3,245.3,168.4,246.2,167.3,246.2z"/>
<g>
	<line class="st21" x1="153.8" y1="147.8" x2="151.8" y2="149.5"/>
	<line class="st21" x1="157.4" y1="148.1" x2="151.7" y2="152.9"/>
</g>
<g>
	<line class="st21" x1="172.7" y1="163.4" x2="170.7" y2="165.1"/>
	<line class="st21" x1="176.3" y1="163.8" x2="170.6" y2="168.5"/>
</g>
<g>
	<line class="st21" x1="217" y1="164.7" x2="215" y2="166.4"/>
	<line class="st21" x1="220.6" y1="165.1" x2="214.9" y2="169.8"/>
</g>
<g>
	<line class="st21" x1="236.9" y1="147.8" x2="234.9" y2="149.5"/>
	<line class="st21" x1="240.5" y1="148.1" x2="234.8" y2="152.9"/>
</g>
<g>
	<line class="st21" x1="153.8" y1="214.3" x2="151.8" y2="216"/>
	<line class="st21" x1="157.4" y1="214.7" x2="151.7" y2="219.4"/>
</g>
<path class="st3" d="M413.4,174.4c6.7,2.9,10.8,9.9,10.1,17.7c-0.8,9.8-9.2,17-18.8,16.2c-1.1-0.1-2.1-0.4-3.1-0.7
	c-0.5-0.2-1-0.4-1.5-0.6c-0.4-0.1-0.7-0.4-1.1-0.5c-0.4-0.1-0.8,0-1.2,0.2c-0.2,0.1-0.4,0.3-0.7,0.4c-0.5,0.3-0.9,0.5-1.4,0.7
	c-1,0.4-2,0.8-3,1c-1.8,0.4-3.7,0.6-5.5,0.4c-9.5-0.8-16.6-9.4-15.8-19.2c0.4-5.4,3.2-10,7.1-12.9l0,0c-0.2-1.4-0.3-2.8-0.1-4.3
	c0.8-9.8,9.2-17,18.8-16.2c9,0.8,15.9,8.5,15.9,17.6L413.4,174.4z"/>
<line class="st8" x1="398.2" y1="206.3" x2="408.5" y2="196.8"/>
<polyline class="st8" points="398.2,190 398.2,206.3 389,198.1 "/>
<ellipse class="st22" cx="314.8" cy="277.6" rx="1.8" ry="1.8"/>
<ellipse class="st22" cx="352" cy="277.6" rx="0.9" ry="0.9"/>
<ellipse class="st22" cx="293.3" cy="275.7" rx="0.9" ry="0.9"/>
<path class="st9" d="M127,249c0-1.4-1.1-2.6-2.5-2.6H48.4c-1.4,0-2.5,1.2-2.5,2.6v2.5c0,1.4,1.1,2.6,2.5,2.6h76.1
	c1.4,0,2.5-1.2,2.5-2.6V249z"/>
<path class="st9" d="M127,235.1c0-1.4-1.1-2.6-2.5-2.6H48.4c-1.4,0-2.5,1.2-2.5,2.6v1.5c0,1.4,1.1,2.6,2.5,2.6h76.1
	c1.4,0,2.5-1.2,2.5-2.6V235.1z"/>
<path class="st5" d="M442.3,212.2v-19.6c0-0.8-0.3-0.7-1-0.7h-21.8c-0.8,0-1.4-0.2-1.4,0.7v19.6"/>
<line class="st6" x1="442.9" y1="202.7" x2="418.3" y2="202.7"/>
<line class="st6" x1="430.6" y1="192" x2="430.6" y2="212.9"/>
<path class="st7" d="M443.2,212.6c0-0.7-0.5-1.2-1.2-1.2h-23.9c-0.7,0-1.2,0.6-1.2,1.2v0.3c0,0.7,0.5,1.2,1.2,1.2H442
	c0.7,0,1.2-0.6,1.2-1.2V212.6z"/>
<g>
	<line class="st8" x1="417" y1="204.9" x2="415.7" y2="206"/>
	<line class="st8" x1="419.3" y1="205.1" x2="415.6" y2="208.1"/>
</g>
<g>
	<line class="st8" x1="429.7" y1="194" x2="428.4" y2="195.1"/>
	<line class="st8" x1="432" y1="194.3" x2="428.4" y2="197.3"/>
</g>
<line class="st23" x1="431.8" y1="264.2" x2="431.8" y2="218.7"/>
<path class="st20" d="M443.8,193.5c5.3,2.3,8.5,7.8,8,14c-0.6,7.7-7.3,13.4-14.8,12.8c-0.8-0.1-1.7-0.3-2.5-0.6
	c-0.4-0.1-0.8-0.3-1.2-0.5c-0.4-0.1-0.7-0.4-1.1-0.5c-0.4-0.1-0.8,0.3-1.2,0.5c-0.4,0.2-0.7,0.4-1.1,0.6c-0.8,0.3-1.5,0.6-2.3,0.8
	c-1.4,0.4-2.9,0.5-4.4,0.3c-7.5-0.7-13.1-7.5-12.5-15.2c0.4-4.2,2.5-7.9,5.6-10.2l0,0c-0.2-1.1-0.2-2.2-0.1-3.4
	c0.6-7.7,7.3-13.4,14.8-12.8c7.1,0.6,12.5,6.7,12.5,13.9L443.8,193.5z"/>
<path class="st3" d="M443.8,193.5c5.3,2.3,8.5,7.8,8,14c-0.6,7.7-7.3,13.4-14.8,12.8c-0.8-0.1-1.7-0.3-2.5-0.6
	c-0.4-0.1-0.8-0.3-1.2-0.5c-0.3-0.1-0.5-0.3-0.8-0.4c-0.3-0.1-0.6,0-0.9,0.2c-0.2,0.1-0.4,0.2-0.5,0.3c-0.4,0.2-0.7,0.4-1.1,0.6
	c-0.8,0.3-1.5,0.6-2.3,0.8c-1.4,0.4-2.9,0.5-4.4,0.3c-7.5-0.7-13.1-7.5-12.5-15.2c0.4-4.2,2.5-7.9,5.6-10.2l0,0
	c-0.2-1.1-0.2-2.2-0.1-3.4c0.6-7.7,7.3-13.4,14.8-12.8c7.1,0.6,12.5,6.7,12.5,13.9L443.8,193.5z"/>
<line class="st8" x1="431.8" y1="218.7" x2="439.9" y2="211.2"/>
<polyline class="st8" points="431.8,205.8 431.8,218.7 424.5,212.3 "/>
<path class="st24" d="M452.3,281H19.5c-4.8,0-8.6-3.9-8.6-8.6V272c0-4.8,3.9-8.6,8.6-8.6h432.8c4.8,0,8.6,3.9,8.6,8.6v0.4
	C461,277.1,457.1,281,452.3,281z"/>
<g>
	<g>
		<line class="st21" x1="20.3" y1="272.6" x2="25.3" y2="272.6"/>
		<line class="st25" x1="37" y1="272.6" x2="439.5" y2="272.6"/>
		<line class="st21" x1="445.3" y1="272.6" x2="450.3" y2="272.6"/>
	</g>
</g>
<circle class="st26" cx="165.4" cy="315.6" r="1.6"/>
<circle class="st26" cx="129.8" cy="321.2" r="0.3"/>
<circle class="st26" cx="213.6" cy="314" r="1"/>
<ellipse class="st26" cx="237.5" cy="310.5" rx="1.1" ry="1.1"/>
<circle class="st26" cx="241.1" cy="320.2" r="0.8"/>
<circle class="st26" cx="116.8" cy="314" r="0.6"/>
<line class="st27" x1="427.9" y1="300.7" x2="447.1" y2="300.7"/>
<line class="st27" x1="418.3" y1="300.7" x2="423.6" y2="300.7"/>
<line class="st27" x1="381.8" y1="300.7" x2="413.8" y2="300.7"/>
<line class="st27" x1="297.8" y1="300.7" x2="376.6" y2="300.7"/>
<line class="st27" x1="286.6" y1="300.7" x2="291.2" y2="300.7"/>
<line class="st27" x1="216.4" y1="300.7" x2="279.5" y2="300.7"/>
<circle class="st26" cx="442.5" cy="314.8" r="1.6"/>
<circle class="st26" cx="81.9" cy="322" r="1"/>
<circle class="st26" cx="49.1" cy="311.9" r="0.8"/>
<circle class="st26" cx="374.7" cy="319.6" r="1.1"/>
<circle class="st26" cx="394.2" cy="318.6" r="1.1"/>
<circle class="st26" cx="319.1" cy="315.1" r="1.1"/>
<line class="st27" x1="13" y1="292" x2="460.2" y2="291.6"/>
<line class="st27" x1="193.2" y1="301" x2="212.4" y2="301"/>
<line class="st27" x1="183.6" y1="301" x2="188.9" y2="301"/>
<line class="st27" x1="147.1" y1="301" x2="179.1" y2="301"/>
<line class="st27" x1="63.1" y1="301" x2="141.9" y2="301"/>
<line class="st27" x1="51.9" y1="301" x2="56.5" y2="301"/>
<line class="st27" x1="19" y1="301" x2="72" y2="301"/>
<path class="st28" d="M351.6,242.6h-19.5c-6.1,0-11-4.9-11-11V231c0-6.1,4.9-11,11-11h19.5c6.1,0,11,4.9,11,11v0.5
	C362.6,237.6,357.7,242.6,351.6,242.6z"/>
<line class="st29" x1="291.9" y1="222.2" x2="280.8" y2="230.3"/>
<line class="st29" x1="284.5" y1="221" x2="281.2" y2="223.6"/>
<path class="st30" d="M420.2,240.1c0.1-0.2,0.2-0.3,0.2-0.5c0.9-2.2,0-4.6-1.3-6.6c-2.9-4.4-7.9-7.1-12.8-8.7
	c-5-1.6-10.2-2.4-15.2-4c-8-2.7-15.1-7.7-22.8-11.3c-11.4-5.3-24.1-7.2-36.7-7.4c-7.8-0.1-15.7,0.4-23.5,1.2
	c-3.9,0.4-7.8,0.9-11.7,1.4c-1.9,0.2-3.9,0.5-5.8,0.8c-1.2,0.2-4.3,0.4-1.8,1.6c1.5,0.7,3.4,0.2,4.9,1c2.9,1.5,0.2,5.1-1.2,6.6
	c-2.5,2.7-6.2,3.9-9.5,5.3c-1.5,0.6-3.2,1.4-4.2,2.8c-1.3,1.7-0.9,3.9-0.9,5.9c-0.1,3.9-2.3,7.5-3.3,11.3c-1.1,4.7-0.2,9.9,2.6,13.9
	c1.2,0,2,0.1,3.2,0.1c-0.9-5.4,1.8-11.4,6.3-14.4c4.5-3,11.3-3.1,15.8-0.1c4.5,3,7.2,9.2,6.4,14.6c23.7,0,46.5,0,70.3,0
	c-0.5-6.4,1.9-11.4,6.4-14.4c4.5-3,11.1-3,15.6,0s7.2,9,6.3,14.4c4.2,0,8.2,0,12.4,0c1.4-1.3,1-3.6,0.3-5.3
	c-0.7-1.8-1.7-3.6-1.2-5.5C419.2,241.7,419.7,240.9,420.2,240.1z"/>
<path class="st31" d="M341.5,223.1h36.9c1.2,0,1.4-1.2,0.3-1.9c0,0-14.5-9.4-17.6-10.9c-6.4-3.1-13.5-3.6-20.5-3.9
	c-6.5-0.2-13-0.2-19.5,0c-3.2,0.1-6.5,0.3-9.7,0.6c-2.8,0.2-5.8,0.2-8.4,1.5c-0.5,0.2-0.9,0.9-1.2,1.3c-1.5,2.4-2.9,5-4.3,7.5
	c-0.5,0.9-0.7,1.8-0.3,2.6c1.3,2.5,4.2,3.1,6.7,3.2c2.2,0.1,4.3,0,6.5,0c4.9,0,9.8,0,14.7,0c2.7,0,5.4,0,8,0H341.5z"/>
<path class="st20" d="M292.3,207.2c-2.4,1.1-10,9.3-11.2,13.1"/>
<ellipse class="st6" cx="291.9" cy="226" rx="2.6" ry="2.7"/>
<g>
	<line class="st32" x1="308.6" y1="211.6" x2="312.5" y2="214.8"/>
	<line class="st32" x1="305.3" y1="212.1" x2="308.3" y2="214.5"/>
</g>
<path class="st33" d="M393.5,262.6c-6.4,0-11.5-5.3-11.5-11.8c0-6.5,5.2-11.8,11.5-11.8c6.4,0,11.5,5.3,11.5,11.8
	C405,257.3,399.8,262.6,393.5,262.6L393.5,262.6z"/>
<path class="st34" d="M393.5,259.4c-4.6,0-8.4-3.8-8.4-8.6c0-4.7,3.7-8.6,8.4-8.6c4.6,0,8.4,3.8,8.4,8.6
	C401.9,255.6,398.1,259.4,393.5,259.4L393.5,259.4z"/>
<path class="st35" d="M393.5,253.5c-1.5,0-2.7-1.2-2.7-2.7c0-1.5,1.2-2.7,2.7-2.7c1.5,0,2.7,1.2,2.7,2.7
	C396.2,252.3,395,253.5,393.5,253.5L393.5,253.5z"/>
<path class="st33" d="M294.9,263.4c6.4,0,11.5-5.3,11.5-11.8c0-6.5-5.2-11.8-11.5-11.8c-6.4,0-11.5,5.3-11.5,11.8
	C283.4,258.1,288.5,263.4,294.9,263.4L294.9,263.4z"/>
<path class="st34" d="M294.9,260.2c4.6,0,8.4-3.8,8.4-8.6c0-4.7-3.7-8.6-8.4-8.6c-4.6,0-8.4,3.8-8.4,8.6
	C286.5,256.3,290.3,260.2,294.9,260.2L294.9,260.2z"/>
<path class="st35" d="M294.9,254.3c-1.5,0-2.7-1.2-2.7-2.7c0-1.5,1.2-2.7,2.7-2.7c1.5,0,2.7,1.2,2.7,2.7
	C297.6,253.1,296.4,254.3,294.9,254.3L294.9,254.3z"/>
<path class="st34" d="M414.6,244.3c-1,0.3-1.3,1.1-1.1,1.8c0,0.1,0.1,0.2,0.2,0.3c0,0.1,0.1,0.2,0.2,0.2c0.1,0,0.2,0,0.3-0.1
	c0.3-0.2,0.4-0.4,0.6-0.7c0.1-0.1,0.1-0.2,0.2-0.3c0.1-0.3,0.3-0.5,0.3-0.8c0-0.2,0.1-0.4-0.1-0.6
	C415.1,244.2,414.8,244.2,414.6,244.3z"/>
<path class="st36" d="M415.4,242.2c-3.6-1.6-5.7,4.6-1.5,6.7"/>
<path class="st35" d="M348.2,229.7c-0.1-0.7-0.7-1.3-1.5-1.3h-1.4c-0.6,0-1.2,0.4-1.4,1l-0.1,1.4c0.1,0.8,0.7,1.4,1.5,1.4h1.4
	c0.7,0,1.3-0.5,1.4-1.2L348.2,229.7z"/>
<path class="st35" d="M308.4,228.8c0.1,0.8,0.7,1.4,1.5,1.4h1.4c0.7,0,1.3-0.5,1.4-1.2l0-1.3c-0.1-0.7-0.7-1.3-1.5-1.3h-1.4
	c-0.6,0-1.2,0.4-1.4,1L308.4,228.8z"/>
<path class="st34" d="M385.8,218.2l6.9,7.1c0.9,0.9,1.9,1.4,3.2,1.7c7,1.7,14.2,4.9,21.4,6.8c0.3,0.1,0.5,0.1,0.2-0.3
	c-4.1-4.5-8.8-7.4-14-8.8c-3.9-1-8.7-1.1-12.4-1.1"/>
<path class="st36" d="M411.5,232c-4.7-1.9-8.6-4.3-10.4-7.8"/>
<g>
	<line class="st32" x1="340.2" y1="217.3" x2="343.1" y2="219.5"/>
	<line class="st32" x1="339.6" y1="213.2" x2="348.5" y2="220.2"/>
</g>
<path class="st35" d="M365.9,220.1c0.3-1.3,1.8-2.4,3.1-1.9c2.3,0.8,3.9,2.2,4.6,4c0.1,0.2,0,0.3-0.1,0.4c-1.4,1.3-2.8,1.5-5.3,1.3
	C366.9,223.8,365.6,221.4,365.9,220.1L365.9,220.1z"/>
<path class="st36" d="M373.6,223.7c0.4,0.6,1.1,1.3,1.6,2.2c1.6,2.5,1.2,11.1-0.5,20.4c-0.2,1.2-1.2,2.1-2.4,2l-53.2-0.5
	c-2.5,0-3.9-1.1-5.4-3.1c-4.6-6.2-14.5-18.5-16.5-24.9"/>
<path class="st36" d="M336.9,247.8c1.1-8.4,1.5-17,0-26.7l-2.4-14.8"/>
<path class="st5" d="M280.6,221.5c-0.5-0.1-0.9,0.1-1.2,0.4c-0.2,0.2-0.3,0.4-0.5,0.6c-1.2,1.7-0.8,3.9-0.9,5.9c0,0.1,0,0.3,0,0.4
	c-0.1,1,0.7,1.8,1.6,1.7c2-0.3,2.4-4.5,2.4-6.2c0-0.5,0-1-0.1-1.4C281.8,222.2,281.3,221.6,280.6,221.5L280.6,221.5z"/>
<path class="st7" d="M280.8,227.2c0.5,0.1,0.7,0.6,0.6,1.1c-0.4,1.1-0.9,2.1-1.8,2.2c-0.9,0.1-1.7-0.7-1.6-1.7c0-0.1,0-0.3,0-0.4
	c0-0.3,0-0.6,0-1C279.1,227.2,279.8,227,280.8,227.2z"/>
<polyline class="st20" points="269.6,263.9 269.6,132.5 130.8,132.2 130.8,133.5 130.8,264 "/>
<path class="st13" d="M250.3,81.7h-23.1c-1.8,0-3.2-1.4-3.2-3.2v-7.4c0-1.8,1.4-3.2,3.2-3.2h23.1c1.8,0,3.2,1.4,3.2,3.2v7.4
	C253.5,80.3,252.1,81.7,250.3,81.7z"/>
<path class="st24" d="M244.9,67.8h-12.2c-0.6,0-1-0.5-1-1V61c0-0.6,0.5-1,1-1h12.2c0.6,0,1,0.5,1,1v5.8
	C245.9,67.4,245.4,67.8,244.9,67.8z"/>
<line class="st8" x1="227.1" y1="84.7" x2="237.6" y2="84.7"/>
<line class="st8" x1="228" y1="87.7" x2="234.1" y2="87.7"/>
<line class="st37" x1="156" y1="119.2" x2="166.6" y2="119.2"/>
<line class="st37" x1="176.6" y1="85.5" x2="187.2" y2="85.5"/>
<line class="st37" x1="176.6" y1="107.3" x2="187.2" y2="107.3"/>
<line class="st37" x1="217" y1="103.3" x2="227.5" y2="103.3"/>
<line class="st37" x1="210.6" y1="108.8" x2="221.1" y2="108.8"/>
<line class="st37" x1="251.7" y1="118.2" x2="262.2" y2="118.2"/>
<line class="st37" x1="146.9" y1="111.3" x2="157.4" y2="111.3"/>
<line class="st37" x1="221.3" y1="123.9" x2="231.8" y2="123.9"/>
<path class="st20" d="M270.5,132.2h3.3c1.9,0,2.8-2.8,1.3-4.1l-73.4-62.7c-0.8-0.7-1.9-0.7-2.6-0.1l-73.5,62.6
	c-1.5,1.3-0.6,3.7,1.3,3.7l3.9,0.3L270.5,132.2z"/>
<path class="st2" d="M293.1,113.3h3.8c0.4,0,0.7-0.3,0.7-0.8c0-0.4-0.3-0.8-0.7-0.8h-3.8c-0.4,0-0.7,0.3-0.7,0.8
	C292.4,112.9,292.7,113.3,293.1,113.3"/>
<path class="st2" d="M268.8,113.3h15c0.4,0,0.7-0.3,0.7-0.8c0-0.4-0.3-0.8-0.7-0.8h-15c-0.4,0-0.7,0.3-0.7,0.8
	C268.1,112.9,268.4,113.3,268.8,113.3"/>
<path class="st9" d="M91.8,242.3H81.1c-1.6,0-3-1.3-3-3v-0.1c0-1.6,1.3-3,3-3h10.8c1.6,0,3,1.3,3,3v0.1
	C94.8,240.9,93.5,242.3,91.8,242.3z"/>
<path class="st8" d="M84.2,236.8v0.4c0,1.3,1,2.3,2.3,2.3h0c1.3,0,2.3-1,2.3-2.3v-0.4"/>
</svg>
