<?xml version="1.0" encoding="utf-8"?>
<!-- Generator: Adobe Illustrator 21.0.2, SVG Export Plug-In . SVG Version: 6.00 Build 0)  -->
<svg version="1.1" id="Layer_1" xmlns="http://www.w3.org/2000/svg" xmlns:xlink="http://www.w3.org/1999/xlink" x="0px" y="0px"
	 viewBox="0 0 474 399" style="enable-background:new 0 0 474 399;" xml:space="preserve">
<style type="text/css">
	.st0{fill:none;stroke:#8CC63F;stroke-linecap:round;stroke-miterlimit:10;stroke-dasharray:3;}
	.st1{fill:#8CC63F;}
	.st2{fill:#FFFFFF;}
	.st3{fill:none;stroke:#FFFFFF;stroke-linecap:round;stroke-miterlimit:10;stroke-dasharray:3;}
	.st4{fill:none;stroke:#FFFFFF;stroke-miterlimit:10;}
	.st5{fill:none;stroke:#FFFFFF;stroke-linecap:round;stroke-linejoin:round;}
	.st6{fill:none;stroke:#FFFFFF;stroke-linecap:round;stroke-miterlimit:10;}
</style>
<line class="st0" x1="0.9" y1="343" x2="113.5" y2="343"/>
<circle class="st1" cx="113.9" cy="343" r="3"/>
<line class="st0" x1="258" y1="124.5" x2="257.4" y2="214.5"/>
<path class="st0" d="M174.9,122h-32.6c-20.4,0-37-16.6-37-37l0,0c0-20.4,16.6-37,37-37h79c20.4,0,37,16.6,37,37l0,0l-0.4,42.2"/>
<line class="st0" x1="258.1" y1="122" x2="197.9" y2="122"/>
<path class="st0" d="M306.9,80.9V85c0,20.4-16.6,37-37,37h-11.8"/>
<line class="st0" x1="306.9" y1="1.5" x2="306.9" y2="80.9"/>
<circle class="st2" cx="104.9" cy="84.5" r="3"/>
<circle class="st1" cx="218.9" cy="47.5" r="3"/>
<circle class="st2" cx="306.9" cy="84.5" r="3"/>
<circle class="st1" cx="257.9" cy="121.5" r="3"/>
<line class="st3" x1="399.1" y1="277.5" x2="446.9" y2="277.5"/>
<path class="st3" d="M0.5,228.5l159.3-0.5c16,0,29-13,29.2-29l0.1-24.4c0.1-16.1,13.2-29,29.2-29H299c16.1,0,29.2,13.1,29.2,29.2
	c0,0,0,0.1,0,0.1l-0.2,73.3c-0.1,16.1,13,29.3,29.1,29.3c0,0,0.1,0,0.1,0h18.7"/>
<circle class="st1" cx="257.4" cy="217" r="3"/>
<path class="st0" d="M0.9,268.5L161,268c19.3,0,35,15.7,35,35l0,0v17.5c0,19.3,15.7,35,35,35l0,0h180.4"/>
<circle class="st1" cx="414.4" cy="355.5" r="3"/>
<line class="st3" x1="56.4" y1="143.5" x2="114.4" y2="143.5"/>
<line class="st3" x1="1.4" y1="143.5" x2="57.4" y2="143.5"/>
<circle class="st2" cx="117.4" cy="143.5" r="3"/>
<line class="st0" x1="257.9" y1="398" x2="257.9" y2="331.9"/>
<path class="st3" d="M396.5,84.5H60.3c-15,0-27.2-12-27.5-27l0,0c-0.3-15-12.5-27-27.5-27h-4"/>
<circle class="st2" cx="396" cy="85" r="3"/>
<circle class="st2" cx="57.4" cy="143.5" r="3"/>
<path class="st3" d="M330.4,379.5h-142c-10.5,0-19,8.5-19,19l0,0l0,0"/>
<circle class="st2" cx="335.4" cy="379.5" r="3"/>
<path class="st3" d="M55.4,305.5v63.8c0,9.5-7.7,17.2-17.2,17.2c0,0,0,0,0,0H1.5"/>
<circle class="st2" cx="55" cy="303" r="3"/>
<path class="st4" d="M429.5,348.8L429.5,348.8l-5.6,9.4l3.6,0.1c0,1.9-0.1,3.8-0.1,5.7h0c1.9-3.1,3.7-6.2,5.6-9.4l-3.6-0.1
	C429.4,352.5,429.5,350.6,429.5,348.8z"/>
<line class="st5" x1="387.4" y1="315.1" x2="387.4" y2="320.9"/>
<line class="st5" x1="384.5" y1="318" x2="390.3" y2="318"/>
<path class="st4" d="M253.2,227.8c0-0.3,0.3-0.6,0.6-0.6h1.8l-2.4,2.4V227.8z"/>
<path class="st4" d="M250,232.7l1.8-1.8l0,0l3.8-3.7l0,0l1-1c0.2-0.2,0.6-0.2,0.8,0l6.4,6.4c0.2,0.2,0.1,0.3,0.1,0.4
	s-0.1,0.2-0.3,0.2h-1.3v5.7c0,0.3-0.3,0.6-0.6,0.6h-9.6c-0.3,0-0.6-0.3-0.6-0.6v-5.7h-1.3c-0.2,0-0.3-0.1-0.3-0.2
	S249.8,232.9,250,232.7z"/>
<path class="st2" d="M257.5,229.8L257.5,229.8l-2.9,4.6l1.9,0.1c0,0.9,0,1.9-0.1,2.8l0,0l2.9-4.6h-1.9
	C257.5,231.6,257.5,230.7,257.5,229.8z"/>
<path class="st4" d="M364.9,18.4c0-3.1,2.5-5.7,5.7-5.7s5.7,2.5,5.7,5.7c0,1.2-0.4,2.4-1.1,3.4l-4.3,5.8c-0.1,0.2-0.3,0.2-0.5,0.1
	c0,0-0.1-0.1-0.1-0.1l-4.3-5.7l-0.2-0.3l0,0C365.2,20.6,364.8,19.5,364.9,18.4L364.9,18.4z"/>
<path class="st2" d="M371.1,15.2L371.1,15.2l-3,4.7l1.9,0c0,1,0,1.9-0.1,2.8l0,0l3-4.7L371,18C371,17.1,371.1,16.1,371.1,15.2z"/>
<line class="st4" x1="180.6" y1="125.2" x2="191.8" y2="125.2"/>
<path class="st4" d="M195.7,125.2h2.1c0.2-0.2,0.2-0.6,0.1-0.8c-0.2-0.3-0.2-0.5-0.2-0.8c0.1-0.1,0.1-0.3,0.2-0.4v-0.1
	c0.1-0.3,0-0.7-0.2-1c-0.5-0.7-1.2-1.1-2-1.3c-0.8-0.2-1.6-0.4-2.4-0.6c-1.2-0.5-2.4-1.1-3.6-1.7c-1.8-0.8-3.8-1.2-5.8-1.1
	c-1.2,0-2.5,0.1-3.7,0.2l-1.8,0.2l-0.9,0.1c-0.2,0-0.7,0.1-0.3,0.2l-1.6,2.4c-0.1,0.3-0.2,0.6-0.1,0.9c-0.1,0.6-0.3,1.2-0.5,1.7
	c-0.2,0.7,0,1.5,0.4,2.1h2.4"/>
<path class="st4" d="M193.6,126.6c-1,0-1.8-0.8-1.8-1.8s0.8-1.8,1.8-1.8c1,0,1.8,0.8,1.8,1.8c0,0,0,0,0,0
	C195.4,125.8,194.6,126.6,193.6,126.6z"/>
<path class="st4" d="M179.1,126.7c1,0,1.8-0.8,1.8-1.8s-0.8-1.8-1.8-1.8c-1,0-1.8,0.8-1.8,1.8c0,0,0,0,0,0
	C177.3,125.9,178.1,126.7,179.1,126.7z"/>
<path class="st4" d="M263,261.9c-1.4,0.6-2.3,2.1-2.1,3.6c0.2,2,1.9,3.5,4,3.3c0,0,0,0,0,0c0.2,0,0.4-0.1,0.7-0.1l0.3-0.1
	c0.1,0,0.1-0.1,0.2-0.1c0.1,0,0.2,0,0.2,0l0.1,0.1l0.3,0.1c1.9,0.8,4,0,4.8-1.9c0.7-1.6,0.2-3.4-1.2-4.4l0,0c0-0.3,0-0.6,0-0.9
	c-0.2-2-2-3.5-4-3.3C264.5,258.4,263.1,259.9,263,261.9L263,261.9z"/>
<line class="st6" x1="263.9" y1="266" x2="266.1" y2="267.2"/>
<polyline class="st6" points="266.3,268.4 266.3,262.9 266.3,262.9 "/>
<line class="st6" x1="266.2" y1="277" x2="266.2" y2="268.4"/>
<line class="st6" x1="268.9" y1="265" x2="266.3" y2="266.1"/>
<path class="st4" d="M247,261.9c-1.4,0.6-2.3,2.1-2.1,3.6c0.2,2,1.9,3.5,4,3.3c0,0,0,0,0,0c0.2,0,0.4-0.1,0.7-0.1l0.3-0.1
	c0.1,0,0.1-0.1,0.2-0.1c0.1,0,0.2,0,0.2,0l0.1,0.1l0.3,0.1c1.9,0.8,4,0,4.8-1.9c0.7-1.6,0.2-3.4-1.2-4.4l0,0c0-0.3,0-0.6,0-0.9
	c-0.2-2-2-3.5-4-3.3C248.5,258.4,247.1,259.9,247,261.9L247,261.9z"/>
<line class="st6" x1="247.9" y1="266" x2="250.1" y2="267.2"/>
<polyline class="st6" points="250.3,268.4 250.3,262.9 250.3,262.9 "/>
<line class="st6" x1="250.2" y1="277" x2="250.2" y2="268.4"/>
<line class="st6" x1="252.9" y1="265" x2="250.3" y2="266.1"/>
<path class="st4" d="M122,179.9c-1.4,0.6-2.3,2.1-2.1,3.6c0.2,2,1.9,3.5,4,3.3c0,0,0,0,0,0c0.2,0,0.4-0.1,0.7-0.1l0.3-0.1
	c0.1,0,0.1-0.1,0.2-0.1c0.1,0,0.2,0,0.2,0l0.1,0.1l0.3,0.1c1.9,0.8,4,0,4.8-1.9c0.7-1.6,0.2-3.4-1.2-4.4l0,0c0-0.3,0-0.6,0-0.9
	c-0.2-2-2-3.5-4-3.3C123.5,176.4,122.1,177.9,122,179.9L122,179.9z"/>
<line class="st6" x1="122.9" y1="184" x2="125.1" y2="185.2"/>
<polyline class="st6" points="125.3,186.4 125.3,180.9 125.3,180.9 "/>
<line class="st6" x1="125.2" y1="195" x2="125.2" y2="186.4"/>
<line class="st6" x1="127.9" y1="183" x2="125.3" y2="184.1"/>
<path class="st4" d="M106,179.9c-1.4,0.6-2.3,2.1-2.1,3.6c0.2,2,1.9,3.5,4,3.3c0,0,0,0,0,0c0.2,0,0.4-0.1,0.7-0.1l0.3-0.1
	c0.1,0,0.1-0.1,0.2-0.1c0.1,0,0.2,0,0.2,0l0.1,0.1l0.3,0.1c1.9,0.8,4,0,4.8-1.9c0.7-1.6,0.2-3.4-1.2-4.4l0,0c0-0.3,0-0.6,0-0.9
	c-0.2-2-2-3.5-4-3.3C107.5,176.4,106.1,177.9,106,179.9L106,179.9z"/>
<line class="st6" x1="106.9" y1="184" x2="109.1" y2="185.2"/>
<polyline class="st6" points="109.3,186.4 109.3,180.9 109.3,180.9 "/>
<line class="st6" x1="109.2" y1="195" x2="109.2" y2="186.4"/>
<line class="st6" x1="111.9" y1="183" x2="109.3" y2="184.1"/>
<path class="st4" d="M396.2,280.2h2.5c0.2-0.2,0.2-0.6,0-0.8c-0.2-0.3-0.2-0.5-0.2-0.8c0.1-0.1,0.1-0.3,0.2-0.4v-0.1
	c0.1-0.3,0-0.7-0.2-1c-0.5-0.7-1.2-1.1-2-1.3c-0.8-0.2-1.6-0.4-2.4-0.6c-1.2-0.5-2.4-1.1-3.6-1.7c-1.8-0.8-3.8-1.2-5.8-1.1
	c-1.2,0-2.5,0.1-3.7,0.2l-1.8,0.2l-0.9,0.1c-0.2,0-0.7,0.1-0.3,0.2l-1.6,2.4c-0.1,0.3-0.2,0.6-0.1,0.9c-0.1,0.6-0.3,1.2-0.5,1.7
	c-0.2,0.7,0,1.5,0.4,2.1h2.3"/>
<line class="st4" x1="381.7" y1="280.2" x2="393.1" y2="280.2"/>
<path class="st4" d="M394.6,281.6c-1,0-1.8-0.8-1.8-1.8s0.8-1.8,1.8-1.8s1.8,0.8,1.8,1.8l0,0C396.4,280.8,395.6,281.6,394.6,281.6z"
	/>
<path class="st4" d="M380.1,281.7c1,0,1.8-0.8,1.8-1.8s-0.8-1.8-1.8-1.8s-1.8,0.8-1.8,1.8l0,0C378.3,280.9,379.1,281.7,380.1,281.7z
	"/>
<path class="st5" d="M460.9,276.4c0-3.1,2.5-5.7,5.7-5.7s5.7,2.5,5.7,5.7c0,1.2-0.4,2.4-1.1,3.4l-4.3,5.8c-0.1,0.2-0.3,0.2-0.5,0.1
	c0,0-0.1-0.1-0.1-0.1l-4.3-5.7l-0.2-0.3l0,0C461.2,278.6,460.8,277.5,460.9,276.4L460.9,276.4z"/>
<path class="st2" d="M467.1,273.2L467.1,273.2l-3,4.7l1.9,0c0,1,0,1.9-0.1,2.8l0,0l3-4.7L467,276C467,275.1,467.1,274.1,467.1,273.2
	z"/>
<line class="st5" x1="396.3" y1="147.9" x2="396.3" y2="142.1"/>
<line class="st5" x1="399.2" y1="145" x2="393.4" y2="145"/>
<line class="st5" x1="84.3" y1="30.1" x2="84.3" y2="35.9"/>
<line class="st5" x1="87.2" y1="33" x2="81.4" y2="33"/>
<line class="st5" x1="56.4" y1="180.1" x2="56.4" y2="185.9"/>
<line class="st5" x1="53.5" y1="183" x2="59.3" y2="183"/>
<path class="st4" d="M128.2,337.8c0-0.3,0.3-0.6,0.6-0.6h1.8l-2.4,2.4V337.8z"/>
<path class="st4" d="M125,342.7l1.8-1.8l0,0l3.8-3.7l0,0l1-1c0.2-0.2,0.6-0.2,0.8,0l6.4,6.4c0.2,0.2,0.1,0.3,0.1,0.4
	s-0.1,0.2-0.3,0.2h-1.3v5.7c0,0.3-0.3,0.6-0.6,0.6h-9.6c-0.3,0-0.6-0.3-0.6-0.6v-5.7h-1.3c-0.2,0-0.3-0.1-0.3-0.2
	S124.8,342.9,125,342.7z"/>
<path class="st2" d="M132.5,339.8L132.5,339.8l-2.9,4.6l1.9,0c0,0.9,0,1.9-0.1,2.8l0,0l2.9-4.6h-1.9
	C132.5,341.6,132.5,340.7,132.5,339.8z"/>
<path class="st4" d="M355.6,376.5h2.1c0.5-0.1,1.1,0.2,1.2,0.8c0,0.1,0,0.3,0,0.4c0,2.3,0,4.5,0,6.8c0.1,0.5-0.3,1.1-0.8,1.2
	c-0.1,0-0.3,0-0.4,0H347c-0.1,0-0.3,0-0.4,0c-0.5-0.1-0.9-0.6-0.8-1.2c0-1.8,0-3.7,0-5.5c0-0.4,0-0.8,0-1.2
	c-0.1-0.5,0.3-1.1,0.8-1.1c0.1,0,0.2,0,0.3,0h2.3c0-0.4,0-0.7,0-1c-0.1-0.5,0.3-1.1,0.8-1.2c0.1,0,0.3,0,0.4,0h3.9
	c0.6-0.1,1.1,0.3,1.2,0.9c0,0.1,0,0.2,0,0.3C355.6,375.8,355.6,376.2,355.6,376.5z"/>
<path class="st4" d="M349.9,376.5c0-0.4,0-0.7,0-1.1s0.2-0.5,0.5-0.5h4c0.3,0,0.5,0.1,0.5,0.4c0,0.4,0,0.8,0,1.2L349.9,376.5z"/>
<path class="st2" d="M352.8,377.8L352.8,377.8l-2.5,3.9h1.6c0,0.8,0,1.6-0.1,2.4l0,0l2.5-3.9h-1.6
	C352.7,379.3,352.7,378.5,352.8,377.8z"/>
<path class="st5" d="M251.9,304.4c0-3.1,2.5-5.7,5.7-5.7c3.1,0,5.7,2.5,5.7,5.7c0,1.2-0.4,2.4-1.1,3.4l-4.3,5.8
	c-0.1,0.2-0.3,0.2-0.5,0.1c0,0-0.1-0.1-0.1-0.1l-4.3-5.7l-0.2-0.3l0,0C252.2,306.6,251.8,305.5,251.9,304.4L251.9,304.4z"/>
<path class="st2" d="M258.1,301.2L258.1,301.2l-3,4.7l1.9,0c0,1,0,1.9-0.1,2.8l0,0l3-4.7L258,304C258,303.1,258.1,302.1,258.1,301.2
	z"/>
<circle class="st2" cx="449" cy="278" r="3"/>
<circle class="st2" cx="327.9" cy="188" r="3"/>
<circle class="st2" cx="188.9" cy="185" r="3"/>
<circle class="st2" cx="117" cy="228" r="3"/>
<circle class="st2" cx="55.9" cy="343" r="3"/>
<ellipse transform="matrix(0.5525 -0.8335 0.8335 0.5525 -146.7979 438.5102)" class="st1" cx="335" cy="356" rx="3" ry="3"/>
<circle class="st1" cx="257.9" cy="170.5" r="3"/>
<circle class="st1" cx="115.9" cy="268" r="3"/>
<circle class="st2" cx="56" cy="228" r="3"/>
<path class="st4" d="M410.2,79.8c0-0.3,0.3-0.6,0.6-0.6h1.8l-2.4,2.4L410.2,79.8z"/>
<path class="st4" d="M407,84.7l1.8-1.8l0,0l3.8-3.7l0,0l1-1c0.2-0.2,0.6-0.2,0.8,0l6.4,6.4c0.2,0.2,0.1,0.3,0.1,0.4
	s-0.1,0.2-0.3,0.2h-1.3v5.7c0,0.3-0.3,0.6-0.6,0.6h-9.6c-0.3,0-0.6-0.3-0.6-0.6v-5.6h-1.3c-0.2,0-0.3-0.1-0.3-0.2
	S406.8,84.9,407,84.7z"/>
<path class="st2" d="M414.5,81.8L414.5,81.8l-2.9,4.6l1.9,0.1c0,0.9,0,1.8-0.1,2.8l0,0l2.9-4.6h-1.9
	C414.5,83.6,414.5,82.7,414.5,81.8z"/>
<ellipse transform="matrix(0.5525 -0.8335 0.8335 0.5525 -158.75 362.2506)" class="st1" cx="258" cy="329" rx="3" ry="3"/>
<path class="st3" d="M352,20.5h-80.3c-9.5,0-17.2-7.7-17.2-17.2c0,0,0,0,0,0V1.5"/>
<circle class="st2" cx="355.5" cy="20.5" r="3"/>
</svg>
