<?xml version="1.0" encoding="utf-8"?>
<!-- Generator: Adobe Illustrator 21.0.2, SVG Export Plug-In . SVG Version: 6.00 Build 0)  -->
<svg version="1.1" id="Layer_1" xmlns="http://www.w3.org/2000/svg" xmlns:xlink="http://www.w3.org/1999/xlink" x="0px" y="0px"
	 viewBox="0 0 216 213" style="enable-background:new 0 0 216 213;" xml:space="preserve">
<style type="text/css">
	.st0{clip-path:url(#SVGID_2_);fill:#F8F8F8;}
	.st1{clip-path:url(#SVGID_2_);fill:none;stroke:#FFFFFF;stroke-width:1.5;stroke-linecap:round;stroke-miterlimit:10;}
	.st2{clip-path:url(#SVGID_2_);fill:#E6E6E6;}
	.st3{clip-path:url(#SVGID_2_);fill:none;stroke:#333333;stroke-width:1.5;stroke-linecap:round;}
	.st4{clip-path:url(#SVGID_2_);fill:#FFFFFF;stroke:#FFFFFF;stroke-width:1.5;stroke-miterlimit:10;}
	.st5{clip-path:url(#SVGID_2_);fill:#FFFFFF;stroke:#FFFFFF;stroke-width:1.5;stroke-linecap:round;stroke-miterlimit:10;}
	.st6{clip-path:url(#SVGID_2_);fill:#8CC63F;stroke:#333333;stroke-width:1.5;stroke-linecap:round;stroke-linejoin:round;}
	.st7{clip-path:url(#SVGID_2_);fill:#E6E6E6;stroke:#333333;stroke-width:1.5;stroke-linecap:round;stroke-linejoin:round;}
	.st8{clip-path:url(#SVGID_2_);fill:#262529;stroke:#333333;stroke-width:1.5;}
	.st9{clip-path:url(#SVGID_2_);fill:none;stroke:#333333;stroke-width:1.5;stroke-linecap:round;stroke-linejoin:round;}
	
		.st10{clip-path:url(#SVGID_2_);fill-rule:evenodd;clip-rule:evenodd;fill:#E6E6E6;stroke:#333333;stroke-width:1.5;stroke-linecap:round;stroke-linejoin:round;}
	.st11{clip-path:url(#SVGID_2_);fill:#4D4D4D;stroke:#333333;stroke-width:1.5;stroke-linecap:round;stroke-miterlimit:10;}
	.st12{clip-path:url(#SVGID_2_);fill:#B3B3B3;stroke:#333333;stroke-width:1.5;stroke-miterlimit:10;}
	.st13{clip-path:url(#SVGID_2_);fill:#808080;stroke:#333333;stroke-width:1.5;stroke-miterlimit:10;}
	.st14{clip-path:url(#SVGID_2_);fill:#CCCCCC;stroke:#333333;stroke-width:1.5;stroke-linecap:round;stroke-miterlimit:10;}
	.st15{clip-path:url(#SVGID_2_);fill:none;stroke:#8CC03F;stroke-linecap:round;stroke-miterlimit:10;}
	.st16{clip-path:url(#SVGID_2_);fill:#E6E6E6;stroke:#333333;stroke-width:1.5;stroke-miterlimit:10;}
	.st17{clip-path:url(#SVGID_2_);}
	.st18{fill:#F8F8F8;stroke:#E6E6E6;stroke-width:1.5;stroke-linecap:round;stroke-miterlimit:10;}
	.st19{clip-path:url(#SVGID_2_);fill:#F8F8F8;stroke:#F8F8F8;stroke-width:1.5;stroke-miterlimit:10;}
	.st20{clip-path:url(#SVGID_2_);fill:none;stroke:#4D4D4D;stroke-width:1.5;stroke-miterlimit:10;}
	.st21{clip-path:url(#SVGID_2_);fill:#D9D9D9;stroke:#4D4D4D;stroke-width:1.5;stroke-miterlimit:10;}
	.st22{clip-path:url(#SVGID_2_);fill:#F8F8F8;stroke:#333333;stroke-width:1.5;stroke-miterlimit:10;}
	.st23{clip-path:url(#SVGID_2_);fill:#B1B1B1;stroke:#4D4D4D;stroke-width:1.5;stroke-miterlimit:10;}
	.st24{fill:none;stroke:#8CC63F;stroke-width:1.5;stroke-linecap:round;stroke-linejoin:round;}
	.st25{fill:none;stroke:#333333;stroke-width:3;stroke-linecap:round;stroke-linejoin:round;stroke-miterlimit:10;}
</style>
<g>
	<defs>
		<circle id="SVGID_1_" cx="107.6" cy="105.6" r="104.2"/>
	</defs>
	<use xlink:href="#SVGID_1_"  style="overflow:visible;opacity:0.74;fill:#F8F8F8;"/>
	<clipPath id="SVGID_2_">
		<use xlink:href="#SVGID_1_"  style="overflow:visible;opacity:0.74;"/>
	</clipPath>
	<rect x="-71.9" y="149" class="st0" width="342.8" height="79.2"/>
	<line class="st1" x1="-14.4" y1="158.5" x2="-30.6" y2="174.6"/>
	<line class="st1" x1="21.7" y1="158.5" x2="-29.1" y2="209.3"/>
	<line class="st1" x1="242.3" y1="229.4" x2="226.1" y2="245.6"/>
	<line class="st1" x1="241.1" y1="195.4" x2="190.2" y2="246.2"/>
	<line class="st1" x1="243.6" y1="158.5" x2="152.1" y2="250"/>
	<path class="st2" d="M220.4,15.8c0,0.1,0,0.3-0.1,0.4l0,0.1l-5.7,0c-0.1-0.2-0.1-0.3-0.1-0.5c0-0.8,0.7-1.4,1.6-1.4
		c0,0,0.1,0,0.1,0l0,0c0.2-0.6,0.9-1,1.6-1c0.8,0,1.5,0.5,1.6,1.2l0.1,0c0.2,0,0.3,0.1,0.5,0.2c0.2,0.1,0.3,0.3,0.3,0.4
		C220.4,15.5,220.4,15.6,220.4,15.8"/>
	<path class="st2" d="M154.8,30c-1.4,0.3-2.4,1.6-2.4,3c0,0.1,0,0.2,0,0.3l13.3,0c0.1-1.3-1-1.8-1-1.8c0-1.4-1-2.5-2.7-2.4h0
		c-0.6-1.3-1.9-2.3-3.4-2.3C156.7,26.9,155.1,28.2,154.8,30"/>
	<path class="st2" d="M164.5,63.8c-1.2,0.3-2.2,1.4-2.2,2.8c0,0.1,0,0.2,0,0.3l12.2,0c0.1-1.2-0.9-1.6-0.9-1.6c0-1.3-1-2.3-2.5-2.2
		h0c-0.5-1.2-1.8-2.1-3.2-2.1C166.2,61,164.8,62.2,164.5,63.8"/>
	<path class="st2" d="M177.2,67.1h7.6c0.2,0,0.4-0.2,0.4-0.4c0-0.2-0.2-0.4-0.4-0.4h-7.6c-0.2,0-0.4,0.2-0.4,0.4
		C176.8,66.9,177,67.1,177.2,67.1"/>
	<path class="st2" d="M222.8,16.4h7.6c0.2,0,0.4-0.2,0.4-0.4c0-0.2-0.2-0.4-0.4-0.4h-7.6c-0.2,0-0.4,0.2-0.4,0.4
		C222.5,16.2,222.6,16.4,222.8,16.4"/>
	<path class="st2" d="M232,29.2h1.9c0.2,0,0.4-0.2,0.4-0.4c0-0.2-0.2-0.4-0.4-0.4H232c-0.2,0-0.4,0.2-0.4,0.4
		C231.6,29,231.8,29.2,232,29.2"/>
	<path class="st2" d="M211.8,72.4h1.7c0.2,0,0.3-0.2,0.3-0.3c0-0.2-0.2-0.3-0.3-0.3h-1.7c-0.2,0-0.3,0.2-0.3,0.3
		C211.4,72.2,211.6,72.4,211.8,72.4"/>
	<path class="st2" d="M187.4,46.6h7.6c0.2,0,0.4-0.2,0.4-0.4c0-0.2-0.2-0.4-0.4-0.4h-7.6c-0.2,0-0.4,0.2-0.4,0.4
		C187,46.5,187.2,46.6,187.4,46.6"/>
	<path class="st2" d="M159.7,44.4h1.7c0.2,0,0.3-0.2,0.3-0.3c0-0.2-0.2-0.3-0.3-0.3h-1.7c-0.2,0-0.3,0.2-0.3,0.3
		C159.4,44.2,159.6,44.4,159.7,44.4"/>
	<path class="st2" d="M137.9,33.6h7.6c0.2,0,0.4-0.2,0.4-0.4c0-0.2-0.2-0.4-0.4-0.4h-7.6c-0.2,0-0.4,0.2-0.4,0.4
		C137.6,33.4,137.7,33.6,137.9,33.6"/>
	<line class="st3" x1="9.8" y1="149.2" x2="208.5" y2="149.2"/>
	<circle class="st4" cx="153.6" cy="169.9" r="0.6"/>
	<circle class="st4" cx="142" cy="180.3" r="0.3"/>
	<circle class="st4" cx="172.5" cy="167.6" r="0.6"/>
	<circle class="st4" cx="163.1" cy="180.7" r="0.6"/>
	<circle class="st4" cx="47.5" cy="171.1" r="0.9"/>
	<circle class="st4" cx="80.2" cy="172.2" r="0.6"/>
	<circle class="st4" cx="103.4" cy="168.6" r="0.6"/>
	<circle class="st4" cx="65.3" cy="177.4" r="0.3"/>
	<circle class="st4" cx="92.3" cy="180.3" r="0.6"/>
	<circle class="st4" cx="126.1" cy="172.7" r="0.6"/>
	<line class="st4" x1="147" y1="156.2" x2="275" y2="156.2"/>
	<line class="st5" x1="184.9" y1="160" x2="187.4" y2="160"/>
	<line class="st5" x1="146" y1="160" x2="181" y2="160"/>
	<line class="st4" x1="16.9" y1="156.4" x2="144.8" y2="156.4"/>
	<line class="st5" x1="133.1" y1="160.2" x2="143.7" y2="160.2"/>
	<line class="st5" x1="127.8" y1="160.2" x2="130.7" y2="160.2"/>
	<line class="st5" x1="107.5" y1="160.2" x2="125.3" y2="160.2"/>
	<line class="st5" x1="60.9" y1="160.2" x2="104.7" y2="160.2"/>
	<line class="st5" x1="54.7" y1="160.2" x2="57.2" y2="160.2"/>
	<line class="st5" x1="15.8" y1="160.2" x2="50.8" y2="160.2"/>
	<path class="st6" d="M339.5,119.7c-0.1-0.4-0.1-0.8-0.2-1.2c-0.1-0.7-0.2-1.4-0.3-2.2c-0.1-0.2-0.1-0.5-0.1-0.7
		c0-0.3-0.1-0.7,0-0.9c0-0.1,0.1-0.1,0.2-0.1c0.1,0,0.2,0,0.3,0c0.1-0.3-0.4-0.5-0.5-0.6c-0.2-0.1-0.4-0.2-0.6-0.4
		c-0.4-0.3-0.8-0.5-1.2-0.7c-0.9-0.5-1.7-1-2.6-1.4c-1-0.5-2-1-3-1.4c-0.5-0.2-1-0.4-1.5-0.6c0,0-0.1,0-0.1,0
		c-5.1-2-10.5-3.7-15.9-5.1c-4.4-1.1-8.9-2-13.5-2.7c-3.4-0.5-6.8-0.4-10.3-0.4c0,0,0,0-0.1,0c-1.8-0.1-4.1-0.9-7-2.4
		c-0.7-0.4-1.4-0.8-2.2-1.2c-0.7-0.4-1.4-0.7-2.1-1.1c-0.7-0.4-1.4-0.7-2-1.1c-0.7-0.3-1.3-0.7-2-1c-0.6-0.3-1.3-0.7-1.9-1
		c-0.6-0.3-1.2-0.6-1.9-0.9c-0.6-0.3-1.2-0.6-1.8-0.9c-0.6-0.3-1.1-0.6-1.7-0.8c-0.6-0.3-1.1-0.5-1.7-0.8c-0.5-0.3-1.1-0.5-1.6-0.7
		c-0.5-0.2-1-0.5-1.5-0.7c-0.5-0.2-1-0.4-1.5-0.7c-0.5-0.2-0.9-0.4-1.4-0.6c-0.4-0.2-0.9-0.4-1.3-0.6c-0.4-0.2-0.9-0.3-1.3-0.5
		c-0.4-0.2-0.8-0.3-1.2-0.5c-0.4-0.1-0.8-0.3-1.1-0.4c-0.4-0.1-0.7-0.3-1.1-0.4c-0.3-0.1-0.7-0.2-1-0.3c-0.7-0.2-1.5-0.4-2.2-0.6
		c-0.4-0.1-0.8-0.2-1.2-0.3c-8.4-2-18.8-2.8-31.2-2.5c-7.9,0.2-16.3,1.1-25.2,2.6c0,0-0.7-0.4-1.4-0.5c-1.6-0.3-3.1-0.8-4.5-1.5
		l-1.7,0.3c-0.5,0-0.4,0.3,0.1,0.9c0.5,0.2,0.4,2.1,0.4,2.1c-0.8,0.2-1.5,0.3-2.3,0.5l-0.1,0c-7.5,1.8-14.7,3.6-21.7,5.5l-0.4,0.1
		c-3.1,0.7-4.9,0.8-6.5,0.5l-0.2,0c-0.6,0.2-1.2,0.4-1.8,0.6c-3.2,0.9-7.9,1.5-14,1.8l-0.6,0.5l0.3,0l0.9,0.1l-1.1,7.3l-0.1,0.4
		c-0.3,0.1-0.5,0.8-0.4,2v6.7c0,0.8-0.6,1.5-1.7,2.1v1.9l-1,0.1l-1.4,1.7v1.7h0.4c0,0,1,3.1,0.8,6.2c-0.1,1.4-0.3,3.3-0.3,3.3
		l-0.6,0v1.4c0,0.6-0.4,1.1-1.1,1.4l0.8,0.1l2,0.2c1,0,1.7,0.1,2,0.4l0.4,0.4l0.2,0.2l2,2.1l19.1,2l0.2,0l0.4-4.4
		c0.3-4.1,1.9-7.6,4.8-10.5l0.8-0.8l0.1-0.1c3.1-2.8,6.7-4.2,11-4.2c4.6,0,8.6,1.7,11.9,5c2.8,2.8,4.4,6.2,4.8,10.1
		c0.4,2.1,0.5,4.3,0.3,6.6l0,0.2l0,0.2l85.4,0.4h4.2c-0.1,0,0.1-2.3,0.1-2.4c0.1-1.3,0.2-2.6,0.3-3.9c0.1-1.5,0.3-2.9,0.7-4.3
		c0.6-2,1.6-4,2.9-5.6c0.4-0.5,0.8-1,1.3-1.4l0.2-0.2c3.3-3.3,7.3-4.9,11.9-4.9c3.2,0,6.1,0.8,8.7,2.4l0.1,0
		c1.2,0.7,2.3,1.6,3.3,2.7c2.8,2.9,4.5,6.3,4.9,10.2c0.3,1.8,0.4,3.7,0.4,5.7v0.1l0,1.7c7-0.1,13.8-0.6,20.4-1.5l0.5-0.1l0.4-0.1
		l0.1,0c0.2-0.1,0.3-0.3,0.4-0.6l0-0.1l0.3-0.7l0.2-0.4c0.2-0.4,0.4-0.8,0.6-1.1c0.2-0.4,0.5-0.7,0.8-1h0.8c0.5,0.1,0.8,0,1-0.3
		c0.1-0.1,0.1-0.2,0.2-0.3c-0.2-0.3-0.4-0.6-0.5-0.9l-0.4-1.5c0,0-0.2-0.1-0.2-0.1c-0.1,0-0.2-0.1-0.2-0.1c-0.1-0.1-0.3-0.2-0.4-0.3
		c-0.2-0.3-0.3-0.7-0.3-1.1c0-0.2-0.1-0.4-0.1-0.6c-0.1-0.6-0.2-1.2-0.3-1.7c-0.1-0.7-0.2-1.4-0.3-2c-0.1-0.6-0.2-1.2-0.3-1.7
		c0-0.3-0.1-0.6-0.1-0.8c0,0,0,0,0,0l-0.1-0.3c-0.1-0.5-0.4-0.8-0.7-1.2C339.7,120,339.6,119.9,339.5,119.7z"/>
	<path class="st7" d="M283.2,104.9c-0.2-0.6-0.5-1.1-0.9-1.6c-0.5-0.6-1-1.2-1.6-1.8c-1.3-1.3-2.9-2.3-4.4-3.3
		c-1.6-1-3.2-1.8-4.8-2.7c0,0,0,0,0,0c-0.2-0.1-0.4-0.2-0.5-0.3c-0.2-0.1-0.4-0.2-0.5-0.3c-0.2-0.1-0.4-0.2-0.5-0.3
		c-0.2-0.1-0.3-0.2-0.5-0.3c-0.2-0.1-0.3-0.2-0.5-0.3c-0.2-0.1-0.3-0.2-0.5-0.3c-0.2-0.1-0.3-0.2-0.5-0.3c-0.2-0.1-0.3-0.2-0.5-0.3
		c-0.1-0.1-0.3-0.2-0.4-0.2c-0.1-0.1-0.3-0.2-0.4-0.2c-0.1-0.1-0.3-0.1-0.4-0.2c-0.1-0.1-0.2-0.1-0.4-0.2c-0.1-0.1-0.2-0.1-0.3-0.2
		c-0.1-0.1-0.2-0.1-0.3-0.2c-7.5-3.6-15-6.1-22.4-7.5c-6.2-0.9-12.4-1.3-19-1.2l-0.4,0l-7.1,0.3c-10.8,0.5-20.8,2-30,4.4l-0.9,0.2
		l-3,0.9c-0.7,0.2-1.3,0.5-1.8,0.7c-1.6,1-3.3,2.9-5.2,5.6c-0.7,1.5,0.1,2.5,2.4,3.2l3.4,0.3h0.2l11,0.5l34.7,2l0.5,0l41.7,2.4
		L283.2,104.9z"/>
	<path class="st8" d="M161.9,139.2c-0.7-1.8-1.1-3.8-1.1-5.9c0-2.9,0.7-5.5,2-7.9c0.7-1.2,1.6-2.3,2.6-3.3c0.7-0.7,1.5-1.4,2.2-1.9
		c2.6-1.8,5.6-2.7,8.9-2.7c4.4,0,8.1,1.5,11.2,4.6c3.1,3.1,4.6,6.8,4.6,11.2c0,2.1-0.4,4-1.1,5.8"/>
	<path class="st8" d="M191.4,139.1c-0.8,2-2,3.8-3.6,5.4l-0.1,0.1c-3.1,3-6.7,4.5-11,4.5c-4.4,0-8.1-1.5-11.2-4.6
		c-1.6-1.6-2.8-3.4-3.5-5.3"/>
	<path class="st7" d="M185.3,124.2c2.4,2.4,3.6,5.3,3.6,8.6c0,3.4-1.2,6.2-3.6,8.6c-2.4,2.4-5.3,3.6-8.6,3.6c-3.4,0-6.2-1.2-8.6-3.6
		c-2.4-2.4-3.6-5.3-3.6-8.6c0-3.4,1.2-6.2,3.6-8.6c2.4-2.4,5.3-3.6,8.6-3.6C180,120.7,182.9,121.9,185.3,124.2L185.3,124.2z"/>
	<path class="st8" d="M286.1,138.9c-0.7-1.8-1.1-3.8-1.1-5.9c0-2.9,0.7-5.5,2-7.9c0.7-1.2,1.6-2.3,2.6-3.3c0.7-0.7,1.5-1.4,2.2-1.9
		c2.6-1.8,5.6-2.7,8.9-2.7c4.4,0,8.1,1.5,11.2,4.6c3.1,3.1,4.6,6.8,4.6,11.2c0,2.1-0.4,4-1.1,5.8"/>
	<path class="st8" d="M315.6,138.8c-0.8,2-2,3.8-3.6,5.4l-0.1,0.1c-3.1,3-6.7,4.5-11,4.5c-4.4,0-8.1-1.5-11.2-4.6
		c-1.6-1.6-2.8-3.4-3.5-5.3"/>
	<path class="st7" d="M309.5,124.4c2.4,2.4,3.6,5.3,3.6,8.6c0,3.4-1.2,6.2-3.6,8.6c-2.4,2.4-5.3,3.6-8.6,3.6c-3.4,0-6.2-1.2-8.6-3.6
		c-2.4-2.4-3.6-5.3-3.6-8.6c0-3.4,1.2-6.2,3.6-8.6c2.4-2.4,5.3-3.6,8.6-3.6C304.2,120.8,307.1,122,309.5,124.4L309.5,124.4z"/>
	<path class="st6" d="M169.2,102.6c0.7-0.6,1.6-1,2.6-1c1,0,1.9,0.3,2.6,1l0.4,0.4L169.2,102.6L169.2,102.6z"/>
	<path class="st6" d="M169.2,102.6L169.2,102.6l5.7,0.4c0.5,0.6,0.7,1.2,0.7,1.9c0,0.9-0.4,1.7-1.1,2.3c-0.7,0.6-1.6,1-2.6,1
		c-1,0-1.9-0.3-2.6-1c-0.7-0.6-1.1-1.4-1.1-2.3C168.1,104,168.4,103.2,169.2,102.6L169.2,102.6z"/>
	<path class="st6" d="M148.9,99.7c0.7,0,1.1,0.5,1.3,1.5l-9.5,0.3l2.1-2.2l0.3-0.2C144.2,99,146.2,99.2,148.9,99.7L148.9,99.7z"/>
	<path class="st9" d="M299.5,133c0-0.4,0.1-0.7,0.4-1c0.3-0.3,0.6-0.4,1-0.4c0.4,0,0.7,0.1,1,0.4c0.3,0.3,0.4,0.6,0.4,1
		c0,0.4-0.1,0.7-0.4,1c-0.3,0.3-0.6,0.4-1,0.4c-0.4,0-0.7-0.1-1-0.4C299.6,133.8,299.5,133.4,299.5,133L299.5,133z"/>
	<path class="st6" d="M146.8,129.4l-4.3-0.2c-1-0.2-1.7-0.7-1.9-1.5l-1.3-3.7c-0.2-0.8-0.1-1.4,0.4-1.7l2.6-1.5l1.8-0.9l0.1,0.3
		l2.6,9.1L146.8,129.4"/>
	<line class="st6" x1="223.7" y1="83.5" x2="223.8" y2="84.2"/>
	<polyline class="st6" points="223.8,84.2 227.2,100.8 227.2,100.8 	"/>
	<line class="st6" x1="227.3" y1="101.7" x2="227.2" y2="100.8"/>
	<line class="st6" x1="221.5" y1="83.6" x2="223.7" y2="101.5"/>
	<line class="st6" x1="231.5" y1="102" x2="226" y2="83.5"/>
	<line class="st6" x1="181.5" y1="98.3" x2="181.1" y2="99.2"/>
	<polyline class="st6" points="179.5,103.3 179.6,102.8 181.1,99.2 	"/>
	<line class="st6" x1="185.4" y1="88.5" x2="181.5" y2="98.3"/>
	<path class="st6" d="M270.1,102.4c-0.3-0.1-0.5-0.2-0.7-0.4c-0.3-0.3-0.4-0.7-0.4-1.1c-0.1-0.5-0.1-0.9,0-1.3L269,99
		c0.1-0.4,0.2-0.8,0.4-1.1c0.1-0.3,0.3-0.6,0.5-0.8c0.2-0.3,0.6-0.4,0.9-0.5c0.3-0.1,0.6-0.1,0.9-0.1l0.1,0c0.4,0,0.9,0.1,1.5,0.3
		c0.4,0.1,0.6,0.2,1,0.3l0.1,0c0.9,0.3,1.8,0.9,2.5,1.3c0.8,0.6,1.3,1.5,1.4,2.4c0,0.4,0,0.8-0.1,1.2l-0.2,0.7
		c-0.1,0.6-0.7,0.8-2,0.6c-0.4-0.1-0.8-0.1-1.1-0.2c-0.8-0.2-1.6-0.3-2.3-0.5c-0.7-0.1-1.3-0.3-2-0.4
		C270.4,102.4,270.2,102.4,270.1,102.4z"/>
	<polyline class="st6" points="279.2,104.7 280.3,110.3 280.3,110.4 	"/>
	<path class="st6" d="M279.6,132.9l0.5-7.5c0.4-5.7,0.5-10.7,0.2-15"/>
	<line class="st9" x1="304.2" y1="123.3" x2="304.6" y2="122.2"/>
	<line class="st9" x1="310" y1="126.2" x2="309" y2="126.8"/>
	<line class="st9" x1="307.3" y1="128" x2="309" y2="126.8"/>
	<path class="st9" d="M303.9,130.3c0.2-0.2,0.4-0.3,0.7-0.5l2.7-1.9"/>
	<polyline class="st9" points="302.5,129.3 302.8,128.5 302.8,128.5 303.7,125.3 	"/>
	<path class="st9" d="M299.2,129.3c0.4,1,0.9,1.6,1.6,1.7l0.1,0l0.1,0c0.7-0.1,1.2-0.7,1.6-1.7"/>
	<line class="st9" x1="303.7" y1="125.3" x2="304.2" y2="123.3"/>
	<line class="st9" x1="297.1" y1="122.2" x2="297.4" y2="123.3"/>
	<polyline class="st9" points="296.4,129.3 297.1,129.8 297.1,129.8 297.8,130.3 	"/>
	<line class="st9" x1="298" y1="125.3" x2="299.2" y2="129.3"/>
	<line class="st9" x1="292.7" y1="126.8" x2="291.8" y2="126.2"/>
	<line class="st9" x1="292.7" y1="126.8" x2="293.6" y2="127.4"/>
	<line class="st9" x1="297.4" y1="123.3" x2="298" y2="125.3"/>
	<line class="st9" x1="296.4" y1="129.3" x2="293.6" y2="127.4"/>
	<line class="st9" x1="289.5" y1="133.2" x2="290.6" y2="133.3"/>
	<line class="st9" x1="291.7" y1="133.3" x2="293.3" y2="133.3"/>
	<line class="st9" x1="293.3" y1="138.2" x2="294" y2="137.6"/>
	<line class="st9" x1="290.6" y1="133.3" x2="291.7" y2="133.3"/>
	<path class="st9" d="M295.1,133.4l0.8,0c0.3,0,0.6,0,0.9,0"/>
	<path class="st9" d="M296.8,133.4c1.1,0,1.8-0.4,2.1-1l0-0.1l0-0.1c0.1-0.7-0.2-1.3-1.1-2"/>
	<path class="st6" d="M299.9,132c0.3-0.3,0.6-0.4,1-0.4c0.4,0,0.7,0.1,1,0.4c0.3,0.3,0.4,0.6,0.4,1c0,0.4-0.1,0.7-0.4,1
		c-0.3,0.3-0.6,0.4-1,0.4c-0.4,0-0.7-0.1-1-0.4c-0.3-0.3-0.4-0.6-0.4-1C299.5,132.7,299.6,132.3,299.9,132L299.9,132z"/>
	<path class="st9" d="M300,137c0.3-1.1,0.2-1.8-0.3-2.3l0,0l-0.1,0c-0.6-0.3-1.3-0.2-2.3,0.4"/>
	<path class="st9" d="M298.6,140.9l1.1-3.1c0.1-0.3,0.2-0.6,0.3-0.8"/>
	<line class="st9" x1="295.7" y1="136.3" x2="296" y2="136"/>
	<polyline class="st9" points="297.3,135 296.6,135.6 296.6,135.6 296,136 	"/>
	<line class="st9" x1="297.9" y1="142.9" x2="298.6" y2="140.9"/>
	<line class="st9" x1="297.5" y1="144" x2="297.9" y2="142.9"/>
	<line class="st9" x1="292.4" y1="138.9" x2="291.5" y2="139.6"/>
	<line class="st9" x1="293.3" y1="133.3" x2="295.1" y2="133.4"/>
	<line class="st9" x1="293.3" y1="138.2" x2="292.4" y2="138.9"/>
	<line class="st9" x1="295.7" y1="136.3" x2="294" y2="137.6"/>
	<path class="st9" d="M303.9,130.3c-0.9,0.7-1.2,1.4-1.1,2l0,0.1l0,0.1c0.3,0.6,1,0.9,2.1,1"/>
	<path class="st9" d="M304.4,135.1c-0.9-0.6-1.7-0.8-2.3-0.5l-0.1,0l0,0c-0.5,0.5-0.6,1.2-0.3,2.3"/>
	<line class="st9" x1="309.1" y1="133.3" x2="311.1" y2="133.3"/>
	<polyline class="st9" points="304.9,133.5 305.7,133.4 305.8,133.4 309.1,133.3 	"/>
	<line class="st9" x1="310.2" y1="139.6" x2="309.3" y2="138.9"/>
	<line class="st9" x1="303.8" y1="142.9" x2="304.2" y2="144"/>
	<line class="st9" x1="303.1" y1="141" x2="303.8" y2="142.9"/>
	<line class="st9" x1="309.3" y1="138.9" x2="307.7" y2="137.6"/>
	<line class="st9" x1="307.7" y1="137.6" x2="304.4" y2="135.1"/>
	<line class="st9" x1="301.7" y1="137" x2="303.1" y2="141"/>
	<line class="st6" x1="279.4" y1="135.7" x2="279.5" y2="133.8"/>
	<line class="st6" x1="279.5" y1="133.8" x2="279.6" y2="132.9"/>
	<line class="st6" x1="279.2" y1="138.8" x2="279.4" y2="135.7"/>
	<path class="st6" d="M283.3,104.9c11.4,0.6,20.8,1.7,28.1,3.3c0.6,0.2,1.3,0.5,2,1"/>
	<path class="st7" d="M313.4,109.1l0.6,0.5c0.4,0.4,0.9,0.8,1.4,1.3c1.5,1.1,2.9,2,4.2,2.5l0.9,0.5l0.1,0.1l2.8,1.5l0.1,0
		c1.9-0.1,4,0,6.4,0.2c1.8,0.1,3.8,0.4,5.9,0.7c0.8,0.1,1.2-0.1,1.3-0.8l0.2-1.4l0-0.1c-0.7-0.2-1.5-0.4-2.3-0.6l-3.4-1.1
		c-0.6-0.2-1.2-0.4-1.8-0.6c-4-1.2-8-2-11.9-2.3L313.4,109.1"/>
	<path class="st6" d="M339.5,119.7c-0.2-0.1-0.6-0.3-0.9-0.4l-9.8-2.2c-2-0.3-3.5-0.7-4.5-1.1l-0.8-0.5"/>
	<path class="st6" d="M324.7,133.1c-0.1-0.2-0.1-0.4-0.1-0.7l0-0.3l0.4-9.9l0.1-2.9l5.9,2.5l0.4,0.2l1.1,0.5
		c1.5,0.5,2.1,1.2,1.7,2.2l-2.1,5.9c-0.4,1-0.9,1.8-1.6,2.3c-0.4,0.3-0.8,0.5-1.2,0.6c-1.8,0.3-3.1,0.4-3.9,0.2
		c-0.3-0.1-0.5-0.3-0.6-0.5L324.7,133.1z"/>
	<path class="st7" d="M143,99.2c1.1-0.1,3.1,0,5.9,0.5c0.7,0,1.1,0.5,1.3,1.5l-9.3,0.3h-0.2l2.1-2.2L143,99.2L143,99.2
		c0.9-0.7,1.3-1.7,1.3-3.1l0-0.1l0-0.5l3,0.7c5.9,1.5,10.6,3.6,14,6.3l-0.2,0.2l-0.8,0.9l-5.8,0.1l-10.7,0.3l-3.1,0.1l-1-1.8
		l0.7-0.8"/>
	<path class="st6" d="M169.2,102.6L169.2,102.6c-0.7,0.7-1.1,1.4-1.1,2.4c0,0.9,0.4,1.7,1.1,2.3c0.7,0.6,1.6,1,2.6,1
		c1,0,1.9-0.3,2.6-1c0.7-0.6,1.1-1.4,1.1-2.3c0-0.7-0.2-1.4-0.7-1.9"/>
	<path class="st6" d="M174.8,103l-0.4-0.4c-0.7-0.6-1.6-1-2.6-1c-1,0-1.9,0.3-2.6,1"/>
	<line class="st9" x1="311.1" y1="133.3" x2="312.3" y2="133.2"/>
	<path class="st6" d="M185.7,106.3c-0.1,0.7,0.2,1.3,0.8,1.7c0.5,0.3,1,0.5,1.7,0.6l1.1,0.2c0.4,0,0.7,0,1.1,0l0.6-0.1
		c0.3,0,0.5-0.1,0.8-0.1c0.8-0.2,1.4-1,1.3-1.8l0,0c0-0.6-0.4-1.1-0.9-1.4c-0.4-0.2-0.8-0.4-1.4-0.5c-0.1,0-0.1,0-0.2,0l-1.3-0.2
		c-0.1,0-0.2,0-0.3,0l-0.8,0c0,0-0.1,0-0.1,0c-0.4,0-0.8,0.1-1.1,0.2C186.3,104.9,185.8,105.5,185.7,106.3L185.7,106.3z"/>
	<path class="st6" d="M196,126.5c-1.3-1.4-2.7-3.1-4.2-5l-0.2-0.2c-1.5-1.7-2.9-3.5-4.4-5.3"/>
	<path class="st6" d="M187.2,116c-2.1-2.6-4.2-5.5-6.4-8.5c-1-1.7-1.5-3.1-1.4-4.2"/>
	<line class="st6" x1="200.8" y1="131.4" x2="200.1" y2="130.8"/>
	<path class="st6" d="M227.6,134.4l-17.9-0.4l-3.9-0.3c-0.9-0.1-1.7-0.3-2.5-0.5c-0.4-0.2-0.8-0.4-1.2-0.7l-1.3-1.1"/>
	<path class="st6" d="M200.1,130.8c-1.2-1.1-2.5-2.5-4.1-4.3"/>
	<path class="st6" d="M232.8,109.4c-0.1,0.7,0.2,1.3,0.8,1.7c0.5,0.3,1,0.5,1.7,0.6l1.1,0.2c0.4,0,0.7,0,1.1,0l0.6-0.1
		c0.3,0,0.5-0.1,0.8-0.1c0.8-0.2,1.3-1,1.3-1.8l0,0c0-0.6-0.4-1.2-0.9-1.4c-0.4-0.2-0.8-0.4-1.4-0.5c-0.1,0-0.1,0-0.2,0l-1.3-0.2
		c-0.1,0-0.2,0-0.3,0l-0.9,0c-0.4,0-0.8,0.1-1.2,0.2C233.3,108,232.8,108.6,232.8,109.4L232.8,109.4z"/>
	<path class="st6" d="M227.9,106.4c0.7,6.9,1,13.3,0.8,19.4c0,1.4-0.1,2.8-0.3,4.3"/>
	<line class="st6" x1="228.4" y1="130" x2="228.2" y2="131.4"/>
	<path class="st6" d="M228.2,131.4c-0.1,1-0.3,2-0.5,3"/>
	<path class="st6" d="M227.9,106.4c-0.2-1.5-0.4-3.1-0.6-4.7"/>
	<line class="st6" x1="279.4" y1="135.7" x2="227.6" y2="134.4"/>
	<path class="st9" d="M175.3,132.9c0-0.4,0.1-0.7,0.4-1c0.3-0.3,0.6-0.4,1-0.4c0.4,0,0.7,0.1,1,0.4c0.3,0.3,0.4,0.6,0.4,1
		c0,0.4-0.1,0.7-0.4,1c-0.3,0.3-0.6,0.4-1,0.4c-0.4,0-0.7-0.1-1-0.4C175.4,133.6,175.3,133.3,175.3,132.9L175.3,132.9z"/>
	<line class="st9" x1="185.8" y1="126" x2="184.8" y2="126.6"/>
	<line class="st9" x1="183.1" y1="127.8" x2="184.8" y2="126.6"/>
	<path class="st9" d="M179.7,130.1c0.2-0.2,0.4-0.3,0.7-0.5l2.7-1.9"/>
	<polyline class="st9" points="178.3,129.1 178.6,128.3 178.6,128.3 179.5,125.1 	"/>
	<path class="st9" d="M175,129.2c0.4,1,0.9,1.6,1.6,1.7l0.1,0l0.1,0c0.7-0.1,1.2-0.7,1.6-1.7"/>
	<line class="st9" x1="179.5" y1="125.1" x2="180.5" y2="121.7"/>
	<polyline class="st9" points="172.2,129.2 172.9,129.6 172.9,129.6 173.7,130.2 	"/>
	<line class="st9" x1="173.8" y1="125.1" x2="175" y2="129.2"/>
	<line class="st9" x1="168.5" y1="126.6" x2="167.6" y2="126"/>
	<line class="st9" x1="168.5" y1="126.6" x2="169.4" y2="127.3"/>
	<line class="st9" x1="172.8" y1="121.7" x2="173.8" y2="125.1"/>
	<line class="st9" x1="172.2" y1="129.2" x2="169.4" y2="127.3"/>
	<line class="st9" x1="165.3" y1="133" x2="166.4" y2="133.1"/>
	<line class="st9" x1="167.5" y1="133.1" x2="169.1" y2="133.2"/>
	<line class="st9" x1="169.1" y1="138" x2="169.8" y2="137.4"/>
	<line class="st9" x1="166.4" y1="133.1" x2="167.5" y2="133.1"/>
	<path class="st9" d="M170.9,133.2l0.8,0c0.3,0,0.6,0,0.9,0"/>
	<path class="st9" d="M172.6,133.3c1.1,0,1.8-0.4,2.1-1l0-0.1l0-0.1c0.1-0.7-0.2-1.3-1.1-2"/>
	<path class="st6" d="M175.7,131.9c0.3-0.3,0.6-0.4,1-0.4c0.4,0,0.7,0.1,1,0.4c0.3,0.3,0.4,0.6,0.4,1c0,0.4-0.1,0.7-0.4,1
		c-0.3,0.3-0.6,0.4-1,0.4c-0.4,0-0.7-0.1-1-0.4c-0.3-0.3-0.4-0.6-0.4-1C175.3,132.5,175.4,132.1,175.7,131.9L175.7,131.9z"/>
	<path class="st9" d="M175.8,136.8c0.3-1.1,0.2-1.8-0.3-2.3l0,0l-0.1,0c-0.6-0.3-1.3-0.2-2.3,0.4"/>
	<path class="st9" d="M174.4,140.8l1.1-3.1c0.1-0.3,0.2-0.6,0.3-0.8"/>
	<line class="st9" x1="171.5" y1="136.1" x2="171.9" y2="135.8"/>
	<polyline class="st9" points="173.1,134.9 172.4,135.4 172.4,135.4 171.9,135.8 	"/>
	<line class="st9" x1="173.7" y1="142.7" x2="174.4" y2="140.8"/>
	<line class="st9" x1="173.3" y1="143.8" x2="173.7" y2="142.7"/>
	<line class="st9" x1="168.2" y1="138.7" x2="167.3" y2="139.4"/>
	<line class="st9" x1="169.1" y1="133.2" x2="170.9" y2="133.2"/>
	<line class="st9" x1="169.1" y1="138" x2="168.2" y2="138.7"/>
	<line class="st9" x1="171.5" y1="136.1" x2="169.8" y2="137.4"/>
	<path class="st9" d="M179.7,130.1c-0.9,0.7-1.2,1.4-1.1,2l0,0.1l0,0.1c0.3,0.6,1,0.9,2.1,1"/>
	<path class="st9" d="M180.2,134.9c-0.9-0.6-1.7-0.8-2.3-0.5l-0.1,0l0,0c-0.5,0.5-0.6,1.2-0.3,2.3"/>
	<line class="st9" x1="184.9" y1="133.2" x2="186.9" y2="133.1"/>
	<polyline class="st9" points="180.7,133.3 181.6,133.3 181.6,133.3 184.9,133.2 	"/>
	<line class="st9" x1="186" y1="139.4" x2="185.1" y2="138.7"/>
	<line class="st9" x1="179.6" y1="142.7" x2="180" y2="143.8"/>
	<line class="st9" x1="178.9" y1="140.8" x2="179.6" y2="142.7"/>
	<line class="st9" x1="185.1" y1="138.7" x2="183.5" y2="137.5"/>
	<line class="st9" x1="183.5" y1="137.5" x2="180.2" y2="134.9"/>
	<line class="st9" x1="177.5" y1="136.8" x2="178.9" y2="140.8"/>
	<line class="st9" x1="186.9" y1="133.1" x2="188.1" y2="133.1"/>
	<path class="st6" d="M279.4,97.7"/>
	<path class="st10" d="M330.2,125.4c-1.5,0.5-2.1,2.3-1.7,3.7c0.1,0.2,0.2,0.5,0.3,0.7c0.1,0.2,0.2,0.4,0.3,0.5
		c0.2,0.1,0.3,0,0.4-0.1c0.4-0.3,0.7-0.9,0.9-1.3c0.1-0.2,0.2-0.4,0.3-0.6c0.2-0.5,0.4-1,0.5-1.6c0.1-0.4,0.1-0.9-0.1-1.2
		C330.9,125.2,330.5,125.3,330.2,125.4z"/>
	<line class="st9" x1="233.6" y1="95.9" x2="237.7" y2="98.8"/>
	<line class="st9" x1="232.8" y1="90.1" x2="245.3" y2="99.8"/>
	<line class="st9" x1="197.7" y1="89.1" x2="203.2" y2="93.4"/>
	<line class="st9" x1="193.1" y1="89.7" x2="197.3" y2="93.1"/>
	<path class="st6" d="M332.9,114.3l-0.4,0.9c-0.8-0.1-1.7-0.2-2.6-0.2c-0.9,0-1.8-0.1-2.7,0l-0.3-2.2c-0.1-0.4-0.1-0.7,0.2-0.8
		c1,0.2,1.9,0.5,2.8,0.8c0.8,0.2,1.6,0.5,2.3,0.8C332.9,113.8,333.1,114.1,332.9,114.3L332.9,114.3z"/>
	<path class="st7" d="M327.4,114.9c0.9,0,1.7,0,2.6,0.1c0.9,0,1.5,0.1,2.4,0.2l0.2,0l0.4-0.9c0.2-0.3,0-0.6-0.7-0.8
		c-0.7-0.3-1.5-0.5-2.3-0.8c-0.9-0.3-1.8-0.5-2.8-0.8c-0.3,0.1-0.4,0.4-0.2,0.8l0.3,2.2L327.4,114.9z"/>
	<path class="st3" d="M111.9,105.5c3.5,0,7.2-0.3,10.5,1.2c2.5,1.1,4.3,3.4,5.1,6.2c0.1,0.4,0.2,0.9,0.3,1.4c0.7,3.3,0.6,6.7,1.2,10
		c0.5,2.6,1.5,5.4,3.4,7.1c1.8,1.6,4.3,1.7,6.5,0.6c2.4-1.3,3.4-4.1,4-6.9c0.5-2.6,0.8-5.2,1.6-7.7c1.8-5.7,5.5-10.5,11-11.7
		c4.5-1,11.8-0.7,16.4-0.7"/>
	<polygon class="st11" points="108.3,149.1 108.3,92.6 94.6,95.3 94.6,149.1 	"/>
	<path class="st11" d="M107.4,87.4c-0.9-1.8-2.4-3-4.2-3.4c-1.8-0.3-3.6,0.2-5.2,1.6c-1.6,1.4-2.7,3.4-3.1,5.7
		c-0.4,2.3-0.2,4.6,0.7,6.5c0.9,1.9,2.4,3.1,4.2,3.4c1.8,0.3,3.6-0.2,5.2-1.6c1.6-1.4,2.7-3.4,3.1-5.7
		C108.6,91.5,108.3,89.2,107.4,87.4"/>
	<path class="st12" d="M106.1,88.3c-0.7-1.5-1.9-2.4-3.3-2.7c-1.4-0.2-2.8,0.2-4,1.4c-1.2,1.1-2.1,2.8-2.4,4.6
		c-0.3,1.9-0.1,3.7,0.6,5.2c0.7,1.5,1.9,2.5,3.3,2.7c1.4,0.2,2.8-0.3,4.1-1.4c1.2-1.2,2.1-2.8,2.4-4.7
		C107.1,91.6,106.8,89.8,106.1,88.3"/>
	<path class="st13" d="M94.7,102.3c0.6,0.1,1.2,0.4,1.7,0.8c0.6,0.6,1,1.3,1,2.2c0,0.8-0.3,1.6-1,2.2c-0.4,0.4-1,0.7-1.6,0.8"/>
	<path class="st13" d="M108.2,102.2c-0.6,0.1-1.2,0.4-1.7,0.8c-0.6,0.6-1,1.3-1,2.2c0,0.8,0.3,1.6,1,2.2c0.4,0.4,1,0.7,1.6,0.8"/>
	<line class="st14" x1="108.3" y1="100.3" x2="108.3" y2="114.6"/>
	<line class="st14" x1="94.6" y1="114.6" x2="94.6" y2="100.6"/>
	<path class="st15" d="M104.7,98.8c1.4-1.3,2.4-3.2,2.7-5.3c0.4-2.1,0.1-4.2-0.7-5.8"/>
	<path class="st15" d="M97.3,87.4c-0.9,1.2-1.5,2.6-1.8,4.2c-0.4,2.1-0.1,4.2,0.7,5.9c0.2,0.4,0.5,0.8,0.7,1.1"/>
	<line class="st15" x1="101.5" y1="79.7" x2="101.5" y2="81.7"/>
	<line class="st15" x1="92.4" y1="90.7" x2="90.5" y2="90.7"/>
	<line class="st15" x1="112.6" y1="90.7" x2="110.6" y2="90.7"/>
	<line class="st15" x1="109.3" y1="82.9" x2="108" y2="84.3"/>
	<line class="st15" x1="95.1" y1="84.3" x2="93.7" y2="82.9"/>
	<line class="st15" x1="111.8" y1="86.6" x2="110" y2="87.3"/>
	<line class="st15" x1="98.2" y1="82.3" x2="97.4" y2="80.5"/>
	<line class="st15" x1="105.1" y1="82.3" x2="105.9" y2="80.6"/>
	<line class="st15" x1="93.3" y1="87.2" x2="91.5" y2="86.5"/>
	<line class="st15" x1="92.4" y1="95" x2="90.5" y2="95"/>
	<line class="st15" x1="112.6" y1="95" x2="110.6" y2="95"/>
	<path class="st16" d="M111.8,106.5h-3.3c-0.6,0-1.2-0.5-1.2-1.2v-0.2c0-0.6,0.5-1.2,1.2-1.2h3.3c0.6,0,1.2,0.5,1.2,1.2v0.2
		C112.9,106,112.4,106.5,111.8,106.5z"/>
	<g class="st17">
		<g>
			<line class="st18" x1="-125" y1="77.3" x2="-18.6" y2="77.1"/>
			<line class="st18" x1="-125" y1="69.5" x2="-18.6" y2="69.3"/>
			<line class="st18" x1="-111.8" y1="77" x2="-111.8" y2="69.8"/>
			<line class="st18" x1="-98.3" y1="77" x2="-98.3" y2="69.8"/>
			<line class="st18" x1="-85.3" y1="77" x2="-85.3" y2="69.8"/>
			<line class="st18" x1="-71.8" y1="77" x2="-71.8" y2="69.8"/>
			<line class="st18" x1="-58.6" y1="77" x2="-58.6" y2="69.8"/>
			<line class="st18" x1="-45.1" y1="77" x2="-45.1" y2="69.8"/>
			<line class="st18" x1="-31.6" y1="77" x2="-31.6" y2="69.8"/>
			<line class="st18" x1="-124.9" y1="85.4" x2="-18.6" y2="85.2"/>
			<line class="st18" x1="-118.6" y1="85" x2="-118.6" y2="77.9"/>
			<line class="st18" x1="-105" y1="85" x2="-105" y2="77.9"/>
			<line class="st18" x1="-92" y1="85" x2="-92" y2="77.9"/>
			<line class="st18" x1="-78.5" y1="85" x2="-78.5" y2="77.9"/>
			<line class="st18" x1="-65.4" y1="85" x2="-65.4" y2="77.9"/>
			<line class="st18" x1="-51.8" y1="85" x2="-51.8" y2="77.9"/>
			<line class="st18" x1="-38.4" y1="85" x2="-38.4" y2="77.9"/>
			<line class="st18" x1="-24.4" y1="85" x2="-24.4" y2="77.9"/>
			<line class="st18" x1="-124.9" y1="93.5" x2="-18.5" y2="93.3"/>
			<line class="st18" x1="-111.7" y1="93.1" x2="-111.7" y2="86"/>
			<line class="st18" x1="-98.2" y1="93.1" x2="-98.2" y2="86"/>
			<line class="st18" x1="-85.2" y1="93.1" x2="-85.2" y2="86"/>
			<line class="st18" x1="-71.7" y1="93.1" x2="-71.7" y2="86"/>
			<line class="st18" x1="-58.5" y1="93.1" x2="-58.5" y2="86"/>
			<line class="st18" x1="-45" y1="93.1" x2="-45" y2="86"/>
			<line class="st18" x1="-31.6" y1="93.1" x2="-31.6" y2="86"/>
			<line class="st18" x1="-124.8" y1="101.5" x2="-18.5" y2="101.3"/>
			<line class="st18" x1="-118.5" y1="101.2" x2="-118.5" y2="94.1"/>
			<line class="st18" x1="-105" y1="101.2" x2="-105" y2="94.1"/>
			<line class="st18" x1="-92" y1="101.2" x2="-92" y2="94.1"/>
			<line class="st18" x1="-78.4" y1="101.2" x2="-78.4" y2="94.1"/>
			<line class="st18" x1="-65.3" y1="101.2" x2="-65.3" y2="94.1"/>
			<line class="st18" x1="-51.8" y1="101.2" x2="-51.8" y2="94.1"/>
			<line class="st18" x1="-38.3" y1="101.2" x2="-38.3" y2="94.1"/>
			<line class="st18" x1="-24.3" y1="101.2" x2="-24.3" y2="94.1"/>
			<line class="st18" x1="-124.5" y1="109.2" x2="-18" y2="109.1"/>
			<line class="st18" x1="-111.3" y1="108.9" x2="-111.3" y2="101.8"/>
			<line class="st18" x1="-97.8" y1="108.9" x2="-97.8" y2="101.8"/>
			<line class="st18" x1="-84.8" y1="108.9" x2="-84.8" y2="101.8"/>
			<line class="st18" x1="-71.2" y1="108.9" x2="-71.2" y2="101.8"/>
			<line class="st18" x1="-58.1" y1="108.9" x2="-58.1" y2="101.8"/>
			<line class="st18" x1="-44.6" y1="108.9" x2="-44.6" y2="101.8"/>
			<line class="st18" x1="-31.1" y1="108.9" x2="-31.1" y2="101.8"/>
			<line class="st18" x1="-124.3" y1="117.3" x2="-18" y2="117.1"/>
			<line class="st18" x1="-118" y1="117" x2="-118" y2="109.8"/>
			<line class="st18" x1="-104.5" y1="117" x2="-104.5" y2="109.8"/>
			<line class="st18" x1="-91.5" y1="117" x2="-91.5" y2="109.8"/>
			<line class="st18" x1="-78" y1="117" x2="-78" y2="109.8"/>
			<line class="st18" x1="-64.8" y1="117" x2="-64.8" y2="109.8"/>
			<line class="st18" x1="-51.3" y1="117" x2="-51.3" y2="109.8"/>
			<line class="st18" x1="-37.8" y1="117" x2="-37.8" y2="109.8"/>
			<line class="st18" x1="-23.8" y1="117" x2="-23.8" y2="109.8"/>
			<line class="st18" x1="-124.4" y1="125.4" x2="-17.9" y2="125.2"/>
			<line class="st18" x1="-111.2" y1="125.1" x2="-111.2" y2="117.9"/>
			<line class="st18" x1="-97.7" y1="125.1" x2="-97.7" y2="117.9"/>
			<line class="st18" x1="-84.7" y1="125.1" x2="-84.7" y2="117.9"/>
			<line class="st18" x1="-71.2" y1="125.1" x2="-71.2" y2="117.9"/>
			<line class="st18" x1="-58" y1="125.1" x2="-58" y2="117.9"/>
			<line class="st18" x1="-44.5" y1="125.1" x2="-44.5" y2="117.9"/>
			<line class="st18" x1="-31" y1="125.1" x2="-31" y2="117.9"/>
			<line class="st18" x1="-124.2" y1="133.5" x2="-18" y2="133.3"/>
			<line class="st18" x1="-117.9" y1="133.1" x2="-117.9" y2="126"/>
			<line class="st18" x1="-104.4" y1="133.1" x2="-104.4" y2="126"/>
			<line class="st18" x1="-91.4" y1="133.1" x2="-91.4" y2="126"/>
			<line class="st18" x1="-77.9" y1="133.1" x2="-77.9" y2="126"/>
			<line class="st18" x1="-64.7" y1="133.1" x2="-64.7" y2="126"/>
			<line class="st18" x1="-51.2" y1="133.1" x2="-51.2" y2="126"/>
			<line class="st18" x1="-37.7" y1="133.1" x2="-37.7" y2="126"/>
			<line class="st18" x1="-23.7" y1="133.1" x2="-23.7" y2="126"/>
			<line class="st18" x1="-124.5" y1="140.8" x2="-18" y2="140.6"/>
			<line class="st18" x1="-111.3" y1="140.5" x2="-111.3" y2="133.4"/>
			<line class="st18" x1="-97.8" y1="140.5" x2="-97.8" y2="133.4"/>
			<line class="st18" x1="-84.8" y1="140.5" x2="-84.8" y2="133.4"/>
			<line class="st18" x1="-71.2" y1="140.5" x2="-71.2" y2="133.4"/>
			<line class="st18" x1="-58.1" y1="140.5" x2="-58.1" y2="133.4"/>
			<line class="st18" x1="-44.6" y1="140.5" x2="-44.6" y2="133.4"/>
			<line class="st18" x1="-31.1" y1="140.5" x2="-31.1" y2="133.4"/>
			<line class="st18" x1="-124.3" y1="148.9" x2="-18" y2="148.7"/>
			<line class="st18" x1="-118" y1="148.6" x2="-118" y2="141.4"/>
			<line class="st18" x1="-104.5" y1="148.6" x2="-104.5" y2="141.4"/>
			<line class="st18" x1="-91.5" y1="148.6" x2="-91.5" y2="141.4"/>
			<line class="st18" x1="-78" y1="148.6" x2="-78" y2="141.4"/>
			<line class="st18" x1="-64.8" y1="148.6" x2="-64.8" y2="141.4"/>
			<line class="st18" x1="-51.3" y1="148.6" x2="-51.3" y2="141.4"/>
			<line class="st18" x1="-37.8" y1="148.6" x2="-37.8" y2="141.4"/>
			<line class="st18" x1="-23.8" y1="148.6" x2="-23.8" y2="141.4"/>
			<line class="st18" x1="-18.6" y1="77.1" x2="68.7" y2="77"/>
			<line class="st18" x1="-18.6" y1="69.3" x2="68.7" y2="69.2"/>
			<line class="st18" x1="-3.8" y1="76.8" x2="-3.8" y2="69.7"/>
			<line class="st18" x1="9.7" y1="76.8" x2="9.7" y2="69.7"/>
			<line class="st18" x1="22.7" y1="76.8" x2="22.7" y2="69.7"/>
			<line class="st18" x1="36.2" y1="76.8" x2="36.2" y2="69.7"/>
			<line class="st18" x1="49.4" y1="76.8" x2="49.4" y2="69.7"/>
			<line class="st18" x1="62.9" y1="76.8" x2="62.9" y2="69.7"/>
			<line class="st18" x1="-18.6" y1="85.2" x2="68.7" y2="85"/>
			<line class="st18" x1="-10.5" y1="84.9" x2="-10.5" y2="77.8"/>
			<line class="st18" x1="3" y1="84.9" x2="3" y2="77.8"/>
			<line class="st18" x1="16" y1="84.9" x2="16" y2="77.8"/>
			<line class="st18" x1="29.5" y1="84.9" x2="29.5" y2="77.8"/>
			<line class="st18" x1="42.7" y1="84.9" x2="42.7" y2="77.8"/>
			<line class="st18" x1="56.2" y1="84.9" x2="56.2" y2="77.8"/>
			<line class="st18" x1="-18.5" y1="93.3" x2="68.8" y2="93.1"/>
			<line class="st18" x1="-3.7" y1="93" x2="-3.7" y2="85.8"/>
			<line class="st18" x1="9.8" y1="93" x2="9.8" y2="85.8"/>
			<line class="st18" x1="22.8" y1="93" x2="22.8" y2="85.8"/>
			<line class="st18" x1="36.3" y1="93" x2="36.3" y2="85.8"/>
			<line class="st18" x1="49.5" y1="93" x2="49.5" y2="85.8"/>
			<line class="st18" x1="63" y1="93" x2="63" y2="85.8"/>
			<line class="st18" x1="-18.5" y1="101.3" x2="68.8" y2="101.2"/>
			<line class="st18" x1="-10.4" y1="101" x2="-10.4" y2="93.9"/>
			<line class="st18" x1="3.1" y1="101" x2="3.1" y2="93.9"/>
			<line class="st18" x1="16.1" y1="101" x2="16.1" y2="93.9"/>
			<line class="st18" x1="29.6" y1="101" x2="29.6" y2="93.9"/>
			<line class="st18" x1="42.8" y1="101" x2="42.8" y2="93.9"/>
			<line class="st18" x1="56.3" y1="101" x2="56.3" y2="93.9"/>
			<line class="st18" x1="-18.1" y1="109.1" x2="69.2" y2="108.9"/>
			<line class="st18" x1="-3.2" y1="108.7" x2="-3.2" y2="101.6"/>
			<line class="st18" x1="10.3" y1="108.7" x2="10.3" y2="101.6"/>
			<line class="st18" x1="23.3" y1="108.7" x2="23.3" y2="101.6"/>
			<line class="st18" x1="36.8" y1="108.7" x2="36.8" y2="101.6"/>
			<line class="st18" x1="50" y1="108.7" x2="50" y2="101.6"/>
			<line class="st18" x1="63.5" y1="108.7" x2="63.5" y2="101.6"/>
			<line class="st18" x1="-18.1" y1="117.1" x2="69.1" y2="116.9"/>
			<line class="st18" x1="-10" y1="116.8" x2="-10" y2="109.7"/>
			<line class="st18" x1="3.6" y1="116.8" x2="3.6" y2="109.7"/>
			<line class="st18" x1="16.6" y1="116.8" x2="16.6" y2="109.7"/>
			<line class="st18" x1="30.1" y1="116.8" x2="30.1" y2="109.7"/>
			<line class="st18" x1="43.2" y1="116.8" x2="43.2" y2="109.7"/>
			<line class="st18" x1="56.8" y1="116.8" x2="56.8" y2="109.7"/>
			<line class="st18" x1="-18.1" y1="125.2" x2="69.2" y2="125.1"/>
			<line class="st18" x1="-3.2" y1="124.9" x2="-3.2" y2="117.8"/>
			<line class="st18" x1="10.4" y1="124.9" x2="10.4" y2="117.8"/>
			<line class="st18" x1="23.4" y1="124.9" x2="23.4" y2="117.8"/>
			<line class="st18" x1="36.9" y1="124.9" x2="36.9" y2="117.8"/>
			<line class="st18" x1="50.1" y1="124.9" x2="50.1" y2="117.8"/>
			<line class="st18" x1="63.6" y1="124.9" x2="63.6" y2="117.8"/>
			<line class="st18" x1="-18.1" y1="133.3" x2="69.2" y2="133.1"/>
			<line class="st18" x1="-9.9" y1="133" x2="-9.9" y2="125.8"/>
			<line class="st18" x1="3.6" y1="133" x2="3.6" y2="125.8"/>
			<line class="st18" x1="16.6" y1="133" x2="16.6" y2="125.8"/>
			<line class="st18" x1="30.2" y1="133" x2="30.2" y2="125.8"/>
			<line class="st18" x1="43.3" y1="133" x2="43.3" y2="125.8"/>
			<line class="st18" x1="56.8" y1="133" x2="56.8" y2="125.8"/>
			<line class="st18" x1="-18.1" y1="140.6" x2="69.2" y2="140.5"/>
			<line class="st18" x1="-3.2" y1="140.3" x2="-3.2" y2="133.2"/>
			<line class="st18" x1="10.3" y1="140.3" x2="10.3" y2="133.2"/>
			<line class="st18" x1="23.3" y1="140.3" x2="23.3" y2="133.2"/>
			<line class="st18" x1="36.8" y1="140.3" x2="36.8" y2="133.2"/>
			<line class="st18" x1="50" y1="140.3" x2="50" y2="133.2"/>
			<line class="st18" x1="63.5" y1="140.3" x2="63.5" y2="133.2"/>
			<line class="st18" x1="-10" y1="148.4" x2="-10" y2="141.3"/>
			<line class="st18" x1="3.6" y1="148.4" x2="3.6" y2="141.3"/>
			<line class="st18" x1="16.6" y1="148.4" x2="16.6" y2="141.3"/>
			<line class="st18" x1="30.1" y1="148.4" x2="30.1" y2="141.3"/>
			<line class="st18" x1="43.2" y1="148.4" x2="43.2" y2="141.3"/>
			<line class="st18" x1="56.8" y1="148.4" x2="56.8" y2="141.3"/>
			<line class="st18" x1="-17.4" y1="76.7" x2="-17.4" y2="69.6"/>
			<line class="st18" x1="-17.4" y1="92.9" x2="-17.4" y2="85.8"/>
			<line class="st18" x1="-16.9" y1="108.6" x2="-16.9" y2="101.5"/>
			<line class="st18" x1="-16.8" y1="124.8" x2="-16.8" y2="117.7"/>
			<line class="st18" x1="-16.9" y1="140.2" x2="-16.9" y2="133.1"/>
		</g>
		<line class="st18" x1="-124.9" y1="-2.1" x2="-18.4" y2="-2.3"/>
		<line class="st18" x1="-124.9" y1="-9.9" x2="-18.4" y2="-10.1"/>
		<line class="st18" x1="-111.7" y1="-2.4" x2="-111.7" y2="-9.6"/>
		<line class="st18" x1="-98.2" y1="-2.4" x2="-98.2" y2="-9.6"/>
		<line class="st18" x1="-85.1" y1="-2.4" x2="-85.1" y2="-9.6"/>
		<line class="st18" x1="-71.6" y1="-2.4" x2="-71.6" y2="-9.6"/>
		<line class="st18" x1="-58.5" y1="-2.4" x2="-58.5" y2="-9.6"/>
		<line class="st18" x1="-45" y1="-2.4" x2="-45" y2="-9.6"/>
		<line class="st18" x1="-31.5" y1="-2.4" x2="-31.5" y2="-9.6"/>
		<line class="st18" x1="-124.7" y1="6" x2="-18.4" y2="5.8"/>
		<line class="st18" x1="-118.4" y1="5.6" x2="-118.4" y2="-1.5"/>
		<line class="st18" x1="-104.9" y1="5.6" x2="-104.9" y2="-1.5"/>
		<line class="st18" x1="-91.9" y1="5.6" x2="-91.9" y2="-1.5"/>
		<line class="st18" x1="-78.4" y1="5.6" x2="-78.4" y2="-1.5"/>
		<line class="st18" x1="-65.2" y1="5.6" x2="-65.2" y2="-1.5"/>
		<line class="st18" x1="-51.7" y1="5.6" x2="-51.7" y2="-1.5"/>
		<line class="st18" x1="-38.2" y1="5.6" x2="-38.2" y2="-1.5"/>
		<line class="st18" x1="-24.2" y1="5.6" x2="-24.2" y2="-1.5"/>
		<line class="st18" x1="-124.8" y1="14.1" x2="-18.3" y2="13.9"/>
		<line class="st18" x1="-111.6" y1="13.7" x2="-111.6" y2="6.6"/>
		<line class="st18" x1="-98.1" y1="13.7" x2="-98.1" y2="6.6"/>
		<line class="st18" x1="-85.1" y1="13.7" x2="-85.1" y2="6.6"/>
		<line class="st18" x1="-71.6" y1="13.7" x2="-71.6" y2="6.6"/>
		<line class="st18" x1="-58.4" y1="13.7" x2="-58.4" y2="6.6"/>
		<line class="st18" x1="-44.9" y1="13.7" x2="-44.9" y2="6.6"/>
		<line class="st18" x1="-31.4" y1="13.7" x2="-31.4" y2="6.6"/>
		<line class="st18" x1="-124.6" y1="22.1" x2="-18.4" y2="21.9"/>
		<line class="st18" x1="-118.3" y1="21.8" x2="-118.3" y2="14.7"/>
		<line class="st18" x1="-104.8" y1="21.8" x2="-104.8" y2="14.7"/>
		<line class="st18" x1="-91.8" y1="21.8" x2="-91.8" y2="14.7"/>
		<line class="st18" x1="-78.3" y1="21.8" x2="-78.3" y2="14.7"/>
		<line class="st18" x1="-65.1" y1="21.8" x2="-65.1" y2="14.7"/>
		<line class="st18" x1="-51.6" y1="21.8" x2="-51.6" y2="14.7"/>
		<line class="st18" x1="-38.1" y1="21.8" x2="-38.1" y2="14.7"/>
		<line class="st18" x1="-24.1" y1="21.8" x2="-24.1" y2="14.7"/>
		<line class="st18" x1="-124.3" y1="29.8" x2="-17.8" y2="29.7"/>
		<line class="st18" x1="-111.1" y1="29.5" x2="-111.1" y2="22.4"/>
		<line class="st18" x1="-97.6" y1="29.5" x2="-97.6" y2="22.4"/>
		<line class="st18" x1="-84.6" y1="29.5" x2="-84.6" y2="22.4"/>
		<line class="st18" x1="-71.1" y1="29.5" x2="-71.1" y2="22.4"/>
		<line class="st18" x1="-57.9" y1="29.5" x2="-57.9" y2="22.4"/>
		<line class="st18" x1="-44.4" y1="29.5" x2="-44.4" y2="22.4"/>
		<line class="st18" x1="-30.9" y1="29.5" x2="-30.9" y2="22.4"/>
		<line class="st18" x1="-124.1" y1="37.9" x2="-17.9" y2="37.7"/>
		<line class="st18" x1="-117.8" y1="37.6" x2="-117.8" y2="30.4"/>
		<line class="st18" x1="-104.3" y1="37.6" x2="-104.3" y2="30.4"/>
		<line class="st18" x1="-91.3" y1="37.6" x2="-91.3" y2="30.4"/>
		<line class="st18" x1="-77.8" y1="37.6" x2="-77.8" y2="30.4"/>
		<line class="st18" x1="-64.6" y1="37.6" x2="-64.6" y2="30.4"/>
		<line class="st18" x1="-51.1" y1="37.6" x2="-51.1" y2="30.4"/>
		<line class="st18" x1="-37.6" y1="37.6" x2="-37.6" y2="30.4"/>
		<line class="st18" x1="-23.6" y1="37.6" x2="-23.6" y2="30.4"/>
		<line class="st18" x1="-124.2" y1="46" x2="-17.8" y2="45.8"/>
		<line class="st18" x1="-111" y1="45.7" x2="-111" y2="38.5"/>
		<line class="st18" x1="-97.5" y1="45.7" x2="-97.5" y2="38.5"/>
		<line class="st18" x1="-84.5" y1="45.7" x2="-84.5" y2="38.5"/>
		<line class="st18" x1="-71" y1="45.7" x2="-71" y2="38.5"/>
		<line class="st18" x1="-57.8" y1="45.7" x2="-57.8" y2="38.5"/>
		<line class="st18" x1="-44.3" y1="45.7" x2="-44.3" y2="38.5"/>
		<line class="st18" x1="-30.8" y1="45.7" x2="-30.8" y2="38.5"/>
		<line class="st18" x1="-124.1" y1="54.1" x2="-17.8" y2="53.9"/>
		<line class="st18" x1="-117.7" y1="53.7" x2="-117.7" y2="46.6"/>
		<line class="st18" x1="-104.2" y1="53.7" x2="-104.2" y2="46.6"/>
		<line class="st18" x1="-91.2" y1="53.7" x2="-91.2" y2="46.6"/>
		<line class="st18" x1="-77.7" y1="53.7" x2="-77.7" y2="46.6"/>
		<line class="st18" x1="-64.5" y1="53.7" x2="-64.5" y2="46.6"/>
		<line class="st18" x1="-51" y1="53.7" x2="-51" y2="46.6"/>
		<line class="st18" x1="-37.5" y1="53.7" x2="-37.5" y2="46.6"/>
		<line class="st18" x1="-23.5" y1="53.7" x2="-23.5" y2="46.6"/>
		<line class="st18" x1="-124.3" y1="61.4" x2="-17.8" y2="61.2"/>
		<line class="st18" x1="-111.1" y1="61.1" x2="-111.1" y2="54"/>
		<line class="st18" x1="-97.6" y1="61.1" x2="-97.6" y2="54"/>
		<line class="st18" x1="-84.6" y1="61.1" x2="-84.6" y2="54"/>
		<line class="st18" x1="-71.1" y1="61.1" x2="-71.1" y2="54"/>
		<line class="st18" x1="-57.9" y1="61.1" x2="-57.9" y2="54"/>
		<line class="st18" x1="-44.4" y1="61.1" x2="-44.4" y2="54"/>
		<line class="st18" x1="-30.9" y1="61.1" x2="-30.9" y2="54"/>
		<line class="st18" x1="-117.8" y1="69.2" x2="-117.8" y2="62"/>
		<line class="st18" x1="-104.3" y1="69.2" x2="-104.3" y2="62"/>
		<line class="st18" x1="-91.3" y1="69.2" x2="-91.3" y2="62"/>
		<line class="st18" x1="-77.8" y1="69.2" x2="-77.8" y2="62"/>
		<line class="st18" x1="-64.6" y1="69.2" x2="-64.6" y2="62"/>
		<line class="st18" x1="-51.1" y1="69.2" x2="-51.1" y2="62"/>
		<line class="st18" x1="-37.6" y1="69.2" x2="-37.6" y2="62"/>
		<line class="st18" x1="-23.6" y1="69.2" x2="-23.6" y2="62"/>
		<line class="st18" x1="-18.4" y1="-2.3" x2="68.9" y2="-2.4"/>
		<line class="st18" x1="-18.4" y1="-10.1" x2="68.9" y2="-10.2"/>
		<line class="st18" x1="-3.6" y1="-2.6" x2="-3.6" y2="-9.7"/>
		<line class="st18" x1="9.9" y1="-2.6" x2="9.9" y2="-9.7"/>
		<line class="st18" x1="22.9" y1="-2.6" x2="22.9" y2="-9.7"/>
		<line class="st18" x1="36.4" y1="-2.6" x2="36.4" y2="-9.7"/>
		<line class="st18" x1="49.6" y1="-2.6" x2="49.6" y2="-9.7"/>
		<line class="st18" x1="63.1" y1="-2.6" x2="63.1" y2="-9.7"/>
		<line class="st18" x1="-18.4" y1="5.8" x2="68.9" y2="5.6"/>
		<line class="st18" x1="-10.4" y1="5.5" x2="-10.4" y2="-1.6"/>
		<line class="st18" x1="3.2" y1="5.5" x2="3.2" y2="-1.6"/>
		<line class="st18" x1="16.2" y1="5.5" x2="16.2" y2="-1.6"/>
		<line class="st18" x1="29.7" y1="5.5" x2="29.7" y2="-1.6"/>
		<line class="st18" x1="42.8" y1="5.5" x2="42.8" y2="-1.6"/>
		<line class="st18" x1="56.4" y1="5.5" x2="56.4" y2="-1.6"/>
		<line class="st18" x1="-18.3" y1="13.9" x2="68.9" y2="13.7"/>
		<line class="st18" x1="-3.5" y1="13.6" x2="-3.5" y2="6.5"/>
		<line class="st18" x1="10" y1="13.6" x2="10" y2="6.5"/>
		<line class="st18" x1="23" y1="13.6" x2="23" y2="6.5"/>
		<line class="st18" x1="36.5" y1="13.6" x2="36.5" y2="6.5"/>
		<line class="st18" x1="49.7" y1="13.6" x2="49.7" y2="6.5"/>
		<line class="st18" x1="63.2" y1="13.6" x2="63.2" y2="6.5"/>
		<line class="st18" x1="-18.4" y1="21.9" x2="68.9" y2="21.8"/>
		<line class="st18" x1="-10.3" y1="21.6" x2="-10.3" y2="14.5"/>
		<line class="st18" x1="3.2" y1="21.6" x2="3.2" y2="14.5"/>
		<line class="st18" x1="16.2" y1="21.6" x2="16.2" y2="14.5"/>
		<line class="st18" x1="29.8" y1="21.6" x2="29.8" y2="14.5"/>
		<line class="st18" x1="42.9" y1="21.6" x2="42.9" y2="14.5"/>
		<line class="st18" x1="56.4" y1="21.6" x2="56.4" y2="14.5"/>
		<line class="st18" x1="-18" y1="29.7" x2="69.3" y2="29.5"/>
		<line class="st18" x1="-3.1" y1="29.3" x2="-3.1" y2="22.2"/>
		<line class="st18" x1="10.4" y1="29.3" x2="10.4" y2="22.2"/>
		<line class="st18" x1="23.4" y1="29.3" x2="23.4" y2="22.2"/>
		<line class="st18" x1="37" y1="29.3" x2="37" y2="22.2"/>
		<line class="st18" x1="50.1" y1="29.3" x2="50.1" y2="22.2"/>
		<line class="st18" x1="63.6" y1="29.3" x2="63.6" y2="22.2"/>
		<line class="st18" x1="-18" y1="37.7" x2="69.3" y2="37.6"/>
		<line class="st18" x1="-9.8" y1="37.4" x2="-9.8" y2="30.3"/>
		<line class="st18" x1="3.7" y1="37.4" x2="3.7" y2="30.3"/>
		<line class="st18" x1="16.7" y1="37.4" x2="16.7" y2="30.3"/>
		<line class="st18" x1="30.2" y1="37.4" x2="30.2" y2="30.3"/>
		<line class="st18" x1="43.4" y1="37.4" x2="43.4" y2="30.3"/>
		<line class="st18" x1="56.9" y1="37.4" x2="56.9" y2="30.3"/>
		<line class="st18" x1="-17.9" y1="45.8" x2="69.4" y2="45.7"/>
		<line class="st18" x1="-3" y1="45.5" x2="-3" y2="38.4"/>
		<line class="st18" x1="10.5" y1="45.5" x2="10.5" y2="38.4"/>
		<line class="st18" x1="23.5" y1="45.5" x2="23.5" y2="38.4"/>
		<line class="st18" x1="37" y1="45.5" x2="37" y2="38.4"/>
		<line class="st18" x1="50.2" y1="45.5" x2="50.2" y2="38.4"/>
		<line class="st18" x1="63.7" y1="45.5" x2="63.7" y2="38.4"/>
		<line class="st18" x1="-17.9" y1="53.9" x2="69.4" y2="53.7"/>
		<line class="st18" x1="-9.7" y1="53.6" x2="-9.7" y2="46.5"/>
		<line class="st18" x1="3.8" y1="53.6" x2="3.8" y2="46.5"/>
		<line class="st18" x1="16.8" y1="53.6" x2="16.8" y2="46.5"/>
		<line class="st18" x1="30.3" y1="53.6" x2="30.3" y2="46.5"/>
		<line class="st18" x1="43.5" y1="53.6" x2="43.5" y2="46.5"/>
		<line class="st18" x1="57" y1="53.6" x2="57" y2="46.5"/>
		<line class="st18" x1="-18" y1="61.2" x2="69.3" y2="61.1"/>
		<line class="st18" x1="-3.1" y1="60.9" x2="-3.1" y2="53.8"/>
		<line class="st18" x1="10.4" y1="60.9" x2="10.4" y2="53.8"/>
		<line class="st18" x1="23.4" y1="60.9" x2="23.4" y2="53.8"/>
		<line class="st18" x1="37" y1="60.9" x2="37" y2="53.8"/>
		<line class="st18" x1="50.1" y1="60.9" x2="50.1" y2="53.8"/>
		<line class="st18" x1="63.6" y1="60.9" x2="63.6" y2="53.8"/>
		<line class="st18" x1="-9.8" y1="69" x2="-9.8" y2="61.9"/>
		<line class="st18" x1="3.7" y1="69" x2="3.7" y2="61.9"/>
		<line class="st18" x1="16.7" y1="69" x2="16.7" y2="61.9"/>
		<line class="st18" x1="30.2" y1="69" x2="30.2" y2="61.9"/>
		<line class="st18" x1="43.4" y1="69" x2="43.4" y2="61.9"/>
		<line class="st18" x1="56.9" y1="69" x2="56.9" y2="61.9"/>
		<line class="st18" x1="-17.3" y1="-2.7" x2="-17.3" y2="-9.8"/>
		<line class="st18" x1="-17.2" y1="13.5" x2="-17.2" y2="6.4"/>
		<line class="st18" x1="-16.7" y1="29.2" x2="-16.7" y2="22.1"/>
		<line class="st18" x1="-16.6" y1="45.4" x2="-16.6" y2="38.3"/>
		<line class="st18" x1="-16.7" y1="60.8" x2="-16.7" y2="53.7"/>
	</g>
	<circle class="st19" cx="23.5" cy="71.2" r="1.8"/>
	<polyline class="st20" points="69.9,70.5 69.9,148.9 -190,148.9 -190,70.5 	"/>
	<polyline class="st20" points="-190,61 -190,-12.4 69.9,-12.4 69.9,61 	"/>
	<path class="st21" d="M39.8,60.5h33.9c2.3,0,4.4,1.7,4.4,4.3v0.3c0,2.6-2,4.9-4.4,4.9H39.8"/>
	<path class="st22" d="M49.4,47.8h-220.8c-4.5,0-8.2-3.7-8.2-8.2V5.8c0-4.5,3.7-8.2,8.2-8.2H49.4c4.5,0,8.2,3.7,8.2,8.2v33.8
		C57.7,44.1,54,47.8,49.4,47.8z"/>
	<path class="st22" d="M49,137.6h-132c-4.5,0-8.2-3.7-8.2-8.2V89.2c0-4.5,3.7-8.2,8.2-8.2H49c4.5,0,8.2,3.7,8.2,8.2v40.1
		C57.2,133.9,53.5,137.6,49,137.6z"/>
	<line class="st1" x1="47.4" y1="116.5" x2="34.6" y2="131.2"/>
	<line class="st1" x1="51.6" y1="123.4" x2="46.1" y2="129.4"/>
	<path class="st23" d="M35.5,75.5h-98.4c-3.2,0-5.7-2.6-5.7-5.7v-8.6c0-3.2,2.6-5.7,5.7-5.7h98.4c3.2,0,5.7,2.6,5.7,5.7v8.6
		C41.2,72.9,38.6,75.5,35.5,75.5z"/>
	<line class="st1" x1="37.4" y1="7.9" x2="52.1" y2="20.8"/>
	<line class="st1" x1="44.3" y1="3.8" x2="50.3" y2="9.3"/>
</g>
<g>
	<path class="st24" d="M146.6,50.2l-8.7-3.2c-0.2-0.1-0.4-0.4-0.3-0.6l0,0c0.1-0.2,0.2-0.3,0.3-0.3c2.2-0.4,3.3-1.6,3.9-3.2
		c0.2-0.6,0.4-1.1,0.6-1.9l0.2-0.9c0,0,0,0,0,0c0.2-0.8,0.3-1.8,0.7-2.8c0.9-2.4,3.2-3.6,5.5-2.7c1.2,0.4,1.9,1,2.2,1.5"/>
	<line class="st24" x1="139.8" y1="39.5" x2="147" y2="42.2"/>
</g>
<g>
	<path class="st24" d="M104.6,34.7l-8.8,2.9c-0.2,0.1-0.5,0-0.6-0.3l0,0c-0.1-0.2,0-0.3,0.1-0.4c1.4-1.7,1.6-3.3,1.1-4.9
		c-0.2-0.6-0.4-1.1-0.8-1.8l-0.4-0.8c0,0,0,0,0,0c-0.4-0.7-0.9-1.6-1.2-2.6c-0.8-2.5,0.2-4.7,2.6-5.5c1.2-0.4,2.1-0.4,2.7-0.3"/>
	<line class="st24" x1="92.7" y1="30.7" x2="100" y2="28.2"/>
</g>
<g>
	<circle class="st25" cx="107.8" cy="106.5" r="104.5"/>
</g>
</svg>
