<?xml version="1.0" encoding="utf-8"?>
<!-- Generator: Adobe Illustrator 21.0.2, SVG Export Plug-In . SVG Version: 6.00 Build 0)  -->
<svg version="1.1" id="Layer_1" xmlns="http://www.w3.org/2000/svg" xmlns:xlink="http://www.w3.org/1999/xlink" x="0px" y="0px"
	 viewBox="0 0 220 233" style="enable-background:new 0 0 220 233;" xml:space="preserve">
<style type="text/css">
	.st0{clip-path:url(#SVGID_2_);fill:#F8F8F8;}
	.st1{clip-path:url(#SVGID_2_);fill:none;stroke:#FFFFFF;stroke-width:1.5;stroke-linecap:round;stroke-miterlimit:10;}
	.st2{clip-path:url(#SVGID_2_);}
	.st3{fill:#CCCCCC;stroke:#E6E6E6;stroke-width:1.5;stroke-linecap:round;stroke-miterlimit:10;}
	.st4{clip-path:url(#SVGID_2_);fill:none;stroke:#333333;stroke-width:1.5;stroke-linecap:round;}
	.st5{clip-path:url(#SVGID_2_);fill:#B3B3B3;stroke:#333333;stroke-width:1.5;stroke-linecap:round;stroke-miterlimit:10;}
	.st6{clip-path:url(#SVGID_2_);fill:none;stroke:#8DC043;stroke-width:1.5;stroke-linecap:round;}
	.st7{clip-path:url(#SVGID_2_);fill:#F8F8F8;stroke:#333333;stroke-width:1.5;stroke-miterlimit:10;}
	.st8{opacity:0.76;clip-path:url(#SVGID_2_);}
	.st9{fill:#E6E6E6;stroke:#4D4D4D;stroke-linecap:round;stroke-miterlimit:10;}
	.st10{fill:#8CC63F;stroke:#4D4D4D;stroke-linecap:round;stroke-miterlimit:10;}
	.st11{fill:#FFFFFF;stroke:#FFFFFF;stroke-miterlimit:10;}
	.st12{fill:none;stroke:#FFFFFF;stroke-linecap:round;stroke-miterlimit:10;}
	.st13{fill:#FFFFFF;}
	.st14{clip-path:url(#SVGID_2_);fill-rule:evenodd;clip-rule:evenodd;fill:#262529;stroke:#333333;stroke-width:1.5;}
	
		.st15{clip-path:url(#SVGID_2_);fill-rule:evenodd;clip-rule:evenodd;fill:#E6E6E6;stroke:#333333;stroke-width:1.5;stroke-linecap:round;stroke-linejoin:round;}
	
		.st16{clip-path:url(#SVGID_2_);fill-rule:evenodd;clip-rule:evenodd;fill:#8CC63F;stroke:#333333;stroke-width:1.5;stroke-linecap:round;stroke-linejoin:round;}
	
		.st17{clip-path:url(#SVGID_2_);fill-rule:evenodd;clip-rule:evenodd;fill:none;stroke:#333333;stroke-width:1.5;stroke-linecap:round;stroke-linejoin:round;}
	.st18{clip-path:url(#SVGID_2_);fill:none;stroke:#333333;stroke-width:1.5;stroke-linecap:round;stroke-linejoin:round;}
	
		.st19{clip-path:url(#SVGID_2_);fill:#8FC043;stroke:#333333;stroke-width:1.5;stroke-linecap:round;stroke-linejoin:round;stroke-miterlimit:10;}
	
		.st20{clip-path:url(#SVGID_2_);fill:#E6E6E6;stroke:#333333;stroke-width:1.5;stroke-linecap:round;stroke-linejoin:round;stroke-miterlimit:10;}
	
		.st21{clip-path:url(#SVGID_2_);fill:none;stroke:#333333;stroke-width:1.5;stroke-linecap:round;stroke-linejoin:round;stroke-miterlimit:10;}
	.st22{clip-path:url(#SVGID_2_);fill:#F8F8F8;stroke:#333333;stroke-width:1.5;stroke-linecap:round;stroke-miterlimit:10;}
	.st23{clip-path:url(#SVGID_2_);fill:#E6E6E6;stroke:#333333;stroke-width:1.5;stroke-linecap:round;stroke-miterlimit:10;}
	.st24{clip-path:url(#SVGID_2_);fill:#FFFFFF;}
	.st25{clip-path:url(#SVGID_2_);fill:none;stroke:#4D4D4D;stroke-width:1.5;stroke-linecap:round;stroke-miterlimit:10;}
	.st26{fill:none;stroke:#FFFFFF;stroke-width:1.5;stroke-linecap:round;stroke-linejoin:round;}
	.st27{clip-path:url(#SVGID_2_);fill:#E6E6E6;}
	.st28{fill:#4E4D4D;}
	.st29{fill:#E6E6E6;}
	.st30{clip-path:url(#SVGID_4_);fill:#F8F8F8;}
	.st31{clip-path:url(#SVGID_4_);fill:none;stroke:#FFFFFF;stroke-width:1.5;stroke-linecap:round;stroke-miterlimit:10;}
	.st32{clip-path:url(#SVGID_4_);fill:#E6E6E6;}
	.st33{clip-path:url(#SVGID_4_);fill:none;stroke:#333333;stroke-width:1.5;stroke-linecap:round;}
	.st34{clip-path:url(#SVGID_4_);fill:#FFFFFF;stroke:#FFFFFF;stroke-width:1.5;stroke-miterlimit:10;}
	.st35{clip-path:url(#SVGID_4_);fill:#FFFFFF;stroke:#FFFFFF;stroke-width:1.5;stroke-linecap:round;stroke-miterlimit:10;}
	.st36{clip-path:url(#SVGID_4_);fill:#8CC63F;stroke:#333333;stroke-width:1.5;stroke-linecap:round;stroke-linejoin:round;}
	.st37{clip-path:url(#SVGID_4_);fill:#E6E6E6;stroke:#333333;stroke-width:1.5;stroke-linecap:round;stroke-linejoin:round;}
	.st38{clip-path:url(#SVGID_4_);fill:#262529;stroke:#333333;stroke-width:1.5;}
	.st39{clip-path:url(#SVGID_4_);fill:none;stroke:#333333;stroke-width:1.5;stroke-linecap:round;stroke-linejoin:round;}
	
		.st40{clip-path:url(#SVGID_4_);fill-rule:evenodd;clip-rule:evenodd;fill:#E6E6E6;stroke:#333333;stroke-width:1.5;stroke-linecap:round;stroke-linejoin:round;}
	.st41{clip-path:url(#SVGID_4_);fill:#4D4D4D;stroke:#333333;stroke-width:1.5;stroke-linecap:round;stroke-miterlimit:10;}
	.st42{clip-path:url(#SVGID_4_);fill:#B3B3B3;stroke:#333333;stroke-width:1.5;stroke-miterlimit:10;}
	.st43{clip-path:url(#SVGID_4_);fill:#808080;stroke:#333333;stroke-width:1.5;stroke-miterlimit:10;}
	.st44{clip-path:url(#SVGID_4_);fill:#CCCCCC;stroke:#333333;stroke-width:1.5;stroke-linecap:round;stroke-miterlimit:10;}
	.st45{clip-path:url(#SVGID_4_);fill:none;stroke:#8CC03F;stroke-linecap:round;stroke-miterlimit:10;}
	.st46{clip-path:url(#SVGID_4_);fill:#E6E6E6;stroke:#333333;stroke-width:1.5;stroke-miterlimit:10;}
	.st47{clip-path:url(#SVGID_4_);}
	.st48{fill:#F8F8F8;stroke:#E6E6E6;stroke-width:1.5;stroke-linecap:round;stroke-miterlimit:10;}
	.st49{clip-path:url(#SVGID_4_);fill:#F8F8F8;stroke:#F8F8F8;stroke-width:1.5;stroke-miterlimit:10;}
	.st50{clip-path:url(#SVGID_4_);fill:none;stroke:#4D4D4D;stroke-width:1.5;stroke-miterlimit:10;}
	.st51{clip-path:url(#SVGID_4_);fill:#D9D9D9;stroke:#4D4D4D;stroke-width:1.5;stroke-miterlimit:10;}
	.st52{clip-path:url(#SVGID_4_);fill:#F8F8F8;stroke:#333333;stroke-width:1.5;stroke-miterlimit:10;}
	.st53{clip-path:url(#SVGID_4_);fill:#B1B1B1;stroke:#4D4D4D;stroke-width:1.5;stroke-miterlimit:10;}
	.st54{fill:none;stroke:#8CC63F;stroke-width:1.5;stroke-linecap:round;stroke-linejoin:round;}
</style>
<g>
	<defs>
		<circle id="SVGID_1_" cx="466.8" cy="778.3" r="108.7"/>
	</defs>
	<use xlink:href="#SVGID_1_"  style="overflow:visible;opacity:0.74;fill:#F2F2F2;"/>
	<clipPath id="SVGID_2_">
		<use xlink:href="#SVGID_1_"  style="overflow:visible;opacity:0.74;"/>
	</clipPath>
	<rect x="279.6" y="823.5" class="st0" width="357.7" height="82.6"/>
	<line class="st1" x1="339.5" y1="833.4" x2="322.6" y2="850.3"/>
	<line class="st1" x1="377.2" y1="833.4" x2="324.2" y2="886.4"/>
	<line class="st1" x1="415.9" y1="833.4" x2="320.4" y2="928.9"/>
	<line class="st1" x1="454" y1="833.4" x2="358.5" y2="928.9"/>
	<line class="st1" x1="493.8" y1="831.2" x2="398.3" y2="926.7"/>
	<line class="st1" x1="532" y1="831.2" x2="436.5" y2="926.7"/>
	<line class="st1" x1="607.4" y1="907.4" x2="590.5" y2="924.3"/>
	<line class="st1" x1="606.1" y1="871.9" x2="553.1" y2="924.9"/>
	<line class="st1" x1="570.7" y1="833.4" x2="475.2" y2="928.9"/>
	<line class="st1" x1="608.8" y1="833.4" x2="513.3" y2="928.9"/>
	<g class="st2">
		<g>
			<line class="st3" x1="252" y1="742.8" x2="372.5" y2="742.6"/>
			<line class="st3" x1="252" y1="734" x2="372.5" y2="733.8"/>
			<line class="st3" x1="266.9" y1="742.4" x2="266.9" y2="734.4"/>
			<line class="st3" x1="282.2" y1="742.4" x2="282.2" y2="734.4"/>
			<line class="st3" x1="296.9" y1="742.4" x2="296.9" y2="734.4"/>
			<line class="st3" x1="312.2" y1="742.4" x2="312.2" y2="734.4"/>
			<line class="st3" x1="327.1" y1="742.4" x2="327.1" y2="734.4"/>
			<line class="st3" x1="342.4" y1="742.4" x2="342.4" y2="734.4"/>
			<line class="st3" x1="357.7" y1="742.4" x2="357.7" y2="734.4"/>
			<line class="st3" x1="252.1" y1="751.9" x2="372.4" y2="751.7"/>
			<line class="st3" x1="259.3" y1="751.5" x2="259.3" y2="743.5"/>
			<line class="st3" x1="274.6" y1="751.5" x2="274.6" y2="743.5"/>
			<line class="st3" x1="289.3" y1="751.5" x2="289.3" y2="743.5"/>
			<line class="st3" x1="304.6" y1="751.5" x2="304.6" y2="743.5"/>
			<line class="st3" x1="319.5" y1="751.5" x2="319.5" y2="743.5"/>
			<line class="st3" x1="334.8" y1="751.5" x2="334.8" y2="743.5"/>
			<line class="st3" x1="350.1" y1="751.5" x2="350.1" y2="743.5"/>
			<line class="st3" x1="365.9" y1="751.5" x2="365.9" y2="743.5"/>
			<line class="st3" x1="252.1" y1="761.1" x2="372.6" y2="760.9"/>
			<line class="st3" x1="267" y1="760.7" x2="267" y2="752.7"/>
			<line class="st3" x1="282.3" y1="760.7" x2="282.3" y2="752.7"/>
			<line class="st3" x1="297" y1="760.7" x2="297" y2="752.7"/>
			<line class="st3" x1="312.3" y1="760.7" x2="312.3" y2="752.7"/>
			<line class="st3" x1="327.2" y1="760.7" x2="327.2" y2="752.7"/>
			<line class="st3" x1="342.5" y1="760.7" x2="342.5" y2="752.7"/>
			<line class="st3" x1="357.8" y1="760.7" x2="357.8" y2="752.7"/>
			<line class="st3" x1="252.2" y1="770.2" x2="372.5" y2="770"/>
			<line class="st3" x1="259.4" y1="769.8" x2="259.4" y2="761.8"/>
			<line class="st3" x1="274.7" y1="769.8" x2="274.7" y2="761.8"/>
			<line class="st3" x1="289.4" y1="769.8" x2="289.4" y2="761.8"/>
			<line class="st3" x1="304.7" y1="769.8" x2="304.7" y2="761.8"/>
			<line class="st3" x1="319.6" y1="769.8" x2="319.6" y2="761.8"/>
			<line class="st3" x1="334.9" y1="769.8" x2="334.9" y2="761.8"/>
			<line class="st3" x1="350.2" y1="769.8" x2="350.2" y2="761.8"/>
			<line class="st3" x1="366" y1="769.8" x2="366" y2="761.8"/>
			<line class="st3" x1="252.6" y1="779" x2="373.1" y2="778.7"/>
			<line class="st3" x1="267.5" y1="778.6" x2="267.5" y2="770.5"/>
			<line class="st3" x1="282.8" y1="778.6" x2="282.8" y2="770.5"/>
			<line class="st3" x1="297.6" y1="778.6" x2="297.6" y2="770.5"/>
			<line class="st3" x1="312.9" y1="778.6" x2="312.9" y2="770.5"/>
			<line class="st3" x1="327.8" y1="778.6" x2="327.8" y2="770.5"/>
			<line class="st3" x1="343.1" y1="778.6" x2="343.1" y2="770.5"/>
			<line class="st3" x1="358.3" y1="778.6" x2="358.3" y2="770.5"/>
			<line class="st3" x1="252.8" y1="788.1" x2="373.1" y2="787.9"/>
			<line class="st3" x1="259.9" y1="787.7" x2="259.9" y2="779.6"/>
			<line class="st3" x1="275.2" y1="787.7" x2="275.2" y2="779.6"/>
			<line class="st3" x1="290" y1="787.7" x2="290" y2="779.6"/>
			<line class="st3" x1="305.3" y1="787.7" x2="305.3" y2="779.6"/>
			<line class="st3" x1="320.2" y1="787.7" x2="320.2" y2="779.6"/>
			<line class="st3" x1="335.5" y1="787.7" x2="335.5" y2="779.6"/>
			<line class="st3" x1="350.7" y1="787.7" x2="350.7" y2="779.6"/>
			<line class="st3" x1="366.6" y1="787.7" x2="366.6" y2="779.6"/>
			<line class="st3" x1="252.7" y1="797.3" x2="373.2" y2="797"/>
			<line class="st3" x1="267.6" y1="796.9" x2="267.6" y2="788.8"/>
			<line class="st3" x1="282.9" y1="796.9" x2="282.9" y2="788.8"/>
			<line class="st3" x1="297.7" y1="796.9" x2="297.7" y2="788.8"/>
			<line class="st3" x1="313" y1="796.9" x2="313" y2="788.8"/>
			<line class="st3" x1="327.9" y1="796.9" x2="327.9" y2="788.8"/>
			<line class="st3" x1="343.2" y1="796.9" x2="343.2" y2="788.8"/>
			<line class="st3" x1="358.4" y1="796.9" x2="358.4" y2="788.8"/>
			<line class="st3" x1="252.9" y1="806.4" x2="373.2" y2="806.2"/>
			<line class="st3" x1="260" y1="806" x2="260" y2="797.9"/>
			<line class="st3" x1="275.3" y1="806" x2="275.3" y2="797.9"/>
			<line class="st3" x1="290.1" y1="806" x2="290.1" y2="797.9"/>
			<line class="st3" x1="305.3" y1="806" x2="305.3" y2="797.9"/>
			<line class="st3" x1="320.3" y1="806" x2="320.3" y2="797.9"/>
			<line class="st3" x1="335.6" y1="806" x2="335.6" y2="797.9"/>
			<line class="st3" x1="350.8" y1="806" x2="350.8" y2="797.9"/>
			<line class="st3" x1="366.7" y1="806" x2="366.7" y2="797.9"/>
			<line class="st3" x1="252.6" y1="814.7" x2="373.1" y2="814.5"/>
			<line class="st3" x1="267.5" y1="814.3" x2="267.5" y2="806.3"/>
			<line class="st3" x1="282.8" y1="814.3" x2="282.8" y2="806.3"/>
			<line class="st3" x1="297.6" y1="814.3" x2="297.6" y2="806.3"/>
			<line class="st3" x1="312.9" y1="814.3" x2="312.9" y2="806.3"/>
			<line class="st3" x1="327.8" y1="814.3" x2="327.8" y2="806.3"/>
			<line class="st3" x1="343.1" y1="814.3" x2="343.1" y2="806.3"/>
			<line class="st3" x1="358.3" y1="814.3" x2="358.3" y2="806.3"/>
			<line class="st3" x1="252.8" y1="823.8" x2="373.1" y2="823.6"/>
			<line class="st3" x1="259.9" y1="823.5" x2="259.9" y2="815.4"/>
			<line class="st3" x1="275.2" y1="823.5" x2="275.2" y2="815.4"/>
			<line class="st3" x1="290" y1="823.5" x2="290" y2="815.4"/>
			<line class="st3" x1="305.3" y1="823.5" x2="305.3" y2="815.4"/>
			<line class="st3" x1="320.2" y1="823.5" x2="320.2" y2="815.4"/>
			<line class="st3" x1="335.5" y1="823.5" x2="335.5" y2="815.4"/>
			<line class="st3" x1="350.7" y1="823.5" x2="350.7" y2="815.4"/>
			<line class="st3" x1="366.6" y1="823.5" x2="366.6" y2="815.4"/>
			<line class="st3" x1="372.5" y1="742.6" x2="471.3" y2="742.4"/>
			<line class="st3" x1="372.5" y1="733.8" x2="471.3" y2="733.6"/>
			<line class="st3" x1="389.2" y1="742.2" x2="389.2" y2="734.2"/>
			<line class="st3" x1="404.5" y1="742.2" x2="404.5" y2="734.2"/>
			<line class="st3" x1="419.2" y1="742.2" x2="419.2" y2="734.2"/>
			<line class="st3" x1="434.5" y1="742.2" x2="434.5" y2="734.2"/>
			<line class="st3" x1="449.4" y1="742.2" x2="449.4" y2="734.2"/>
			<line class="st3" x1="464.7" y1="742.2" x2="464.7" y2="734.2"/>
			<line class="st3" x1="372.5" y1="751.7" x2="471.3" y2="751.5"/>
			<line class="st3" x1="381.6" y1="751.4" x2="381.6" y2="743.3"/>
			<line class="st3" x1="396.9" y1="751.4" x2="396.9" y2="743.3"/>
			<line class="st3" x1="411.6" y1="751.4" x2="411.6" y2="743.3"/>
			<line class="st3" x1="426.9" y1="751.4" x2="426.9" y2="743.3"/>
			<line class="st3" x1="441.8" y1="751.4" x2="441.8" y2="743.3"/>
			<line class="st3" x1="457.1" y1="751.4" x2="457.1" y2="743.3"/>
			<line class="st3" x1="372.6" y1="760.9" x2="471.4" y2="760.7"/>
			<line class="st3" x1="389.3" y1="760.5" x2="389.3" y2="752.5"/>
			<line class="st3" x1="404.6" y1="760.5" x2="404.6" y2="752.5"/>
			<line class="st3" x1="419.3" y1="760.5" x2="419.3" y2="752.5"/>
			<line class="st3" x1="434.6" y1="760.5" x2="434.6" y2="752.5"/>
			<line class="st3" x1="449.5" y1="760.5" x2="449.5" y2="752.5"/>
			<line class="st3" x1="464.8" y1="760.5" x2="464.8" y2="752.5"/>
			<line class="st3" x1="372.5" y1="770" x2="471.4" y2="769.8"/>
			<line class="st3" x1="381.7" y1="769.7" x2="381.7" y2="761.6"/>
			<line class="st3" x1="397" y1="769.7" x2="397" y2="761.6"/>
			<line class="st3" x1="411.7" y1="769.7" x2="411.7" y2="761.6"/>
			<line class="st3" x1="427" y1="769.7" x2="427" y2="761.6"/>
			<line class="st3" x1="441.9" y1="769.7" x2="441.9" y2="761.6"/>
			<line class="st3" x1="457.2" y1="769.7" x2="457.2" y2="761.6"/>
			<line class="st3" x1="373" y1="778.7" x2="471.8" y2="778.6"/>
			<line class="st3" x1="389.8" y1="778.4" x2="389.8" y2="770.3"/>
			<line class="st3" x1="405.1" y1="778.4" x2="405.1" y2="770.3"/>
			<line class="st3" x1="419.9" y1="778.4" x2="419.9" y2="770.3"/>
			<line class="st3" x1="435.2" y1="778.4" x2="435.2" y2="770.3"/>
			<line class="st3" x1="450.1" y1="778.4" x2="450.1" y2="770.3"/>
			<line class="st3" x1="465.4" y1="778.4" x2="465.4" y2="770.3"/>
			<line class="st3" x1="373" y1="787.9" x2="471.8" y2="787.7"/>
			<line class="st3" x1="382.2" y1="787.5" x2="382.2" y2="779.5"/>
			<line class="st3" x1="397.5" y1="787.5" x2="397.5" y2="779.5"/>
			<line class="st3" x1="412.3" y1="787.5" x2="412.3" y2="779.5"/>
			<line class="st3" x1="427.6" y1="787.5" x2="427.6" y2="779.5"/>
			<line class="st3" x1="442.5" y1="787.5" x2="442.5" y2="779.5"/>
			<line class="st3" x1="457.8" y1="787.5" x2="457.8" y2="779.5"/>
			<line class="st3" x1="373.1" y1="797" x2="471.9" y2="796.9"/>
			<line class="st3" x1="389.9" y1="796.7" x2="389.9" y2="788.6"/>
			<line class="st3" x1="405.2" y1="796.7" x2="405.2" y2="788.6"/>
			<line class="st3" x1="420" y1="796.7" x2="420" y2="788.6"/>
			<line class="st3" x1="435.3" y1="796.7" x2="435.3" y2="788.6"/>
			<line class="st3" x1="450.2" y1="796.7" x2="450.2" y2="788.6"/>
			<line class="st3" x1="465.5" y1="796.7" x2="465.5" y2="788.6"/>
			<line class="st3" x1="373" y1="806.2" x2="471.9" y2="806"/>
			<line class="st3" x1="382.3" y1="805.8" x2="382.3" y2="797.8"/>
			<line class="st3" x1="397.6" y1="805.8" x2="397.6" y2="797.8"/>
			<line class="st3" x1="412.4" y1="805.8" x2="412.4" y2="797.8"/>
			<line class="st3" x1="427.6" y1="805.8" x2="427.6" y2="797.8"/>
			<line class="st3" x1="442.6" y1="805.8" x2="442.6" y2="797.8"/>
			<line class="st3" x1="457.9" y1="805.8" x2="457.9" y2="797.8"/>
			<line class="st3" x1="373" y1="814.5" x2="471.8" y2="814.3"/>
			<line class="st3" x1="389.8" y1="814.1" x2="389.8" y2="806.1"/>
			<line class="st3" x1="405.1" y1="814.1" x2="405.1" y2="806.1"/>
			<line class="st3" x1="419.9" y1="814.1" x2="419.9" y2="806.1"/>
			<line class="st3" x1="435.2" y1="814.1" x2="435.2" y2="806.1"/>
			<line class="st3" x1="450.1" y1="814.1" x2="450.1" y2="806.1"/>
			<line class="st3" x1="465.4" y1="814.1" x2="465.4" y2="806.1"/>
			<line class="st3" x1="373" y1="823.6" x2="471.8" y2="823.4"/>
			<line class="st3" x1="382.2" y1="823.3" x2="382.2" y2="815.2"/>
			<line class="st3" x1="397.5" y1="823.3" x2="397.5" y2="815.2"/>
			<line class="st3" x1="412.3" y1="823.3" x2="412.3" y2="815.2"/>
			<line class="st3" x1="427.6" y1="823.3" x2="427.6" y2="815.2"/>
			<line class="st3" x1="442.5" y1="823.3" x2="442.5" y2="815.2"/>
			<line class="st3" x1="457.8" y1="823.3" x2="457.8" y2="815.2"/>
			<line class="st3" x1="373.8" y1="742.1" x2="373.8" y2="734.1"/>
			<line class="st3" x1="373.9" y1="760.4" x2="373.9" y2="752.4"/>
			<line class="st3" x1="374.4" y1="778.3" x2="374.4" y2="770.2"/>
			<line class="st3" x1="374.5" y1="796.6" x2="374.5" y2="788.5"/>
			<line class="st3" x1="374.4" y1="814" x2="374.4" y2="806"/>
		</g>
		<line class="st3" x1="252.2" y1="652.9" x2="372.7" y2="652.7"/>
		<line class="st3" x1="252.1" y1="644.1" x2="372.7" y2="643.9"/>
		<line class="st3" x1="267.1" y1="652.5" x2="267.1" y2="644.5"/>
		<line class="st3" x1="282.4" y1="652.5" x2="282.4" y2="644.5"/>
		<line class="st3" x1="297.1" y1="652.5" x2="297.1" y2="644.5"/>
		<line class="st3" x1="312.4" y1="652.5" x2="312.4" y2="644.5"/>
		<line class="st3" x1="327.3" y1="652.5" x2="327.3" y2="644.5"/>
		<line class="st3" x1="342.6" y1="652.5" x2="342.6" y2="644.5"/>
		<line class="st3" x1="357.9" y1="652.5" x2="357.9" y2="644.5"/>
		<line class="st3" x1="252.3" y1="662" x2="372.6" y2="661.8"/>
		<line class="st3" x1="259.5" y1="661.7" x2="259.5" y2="653.6"/>
		<line class="st3" x1="274.8" y1="661.7" x2="274.8" y2="653.6"/>
		<line class="st3" x1="289.5" y1="661.7" x2="289.5" y2="653.6"/>
		<line class="st3" x1="304.8" y1="661.7" x2="304.8" y2="653.6"/>
		<line class="st3" x1="319.7" y1="661.7" x2="319.7" y2="653.6"/>
		<line class="st3" x1="335" y1="661.7" x2="335" y2="653.6"/>
		<line class="st3" x1="350.3" y1="661.7" x2="350.3" y2="653.6"/>
		<line class="st3" x1="366.1" y1="661.7" x2="366.1" y2="653.6"/>
		<line class="st3" x1="252.3" y1="671.2" x2="372.8" y2="671"/>
		<line class="st3" x1="267.2" y1="670.8" x2="267.2" y2="662.8"/>
		<line class="st3" x1="282.5" y1="670.8" x2="282.5" y2="662.8"/>
		<line class="st3" x1="297.2" y1="670.8" x2="297.2" y2="662.8"/>
		<line class="st3" x1="312.5" y1="670.8" x2="312.5" y2="662.8"/>
		<line class="st3" x1="327.4" y1="670.8" x2="327.4" y2="662.8"/>
		<line class="st3" x1="342.7" y1="670.8" x2="342.7" y2="662.8"/>
		<line class="st3" x1="358" y1="670.8" x2="358" y2="662.8"/>
		<line class="st3" x1="252.4" y1="680.3" x2="372.7" y2="680.1"/>
		<line class="st3" x1="259.6" y1="680" x2="259.6" y2="671.9"/>
		<line class="st3" x1="274.9" y1="680" x2="274.9" y2="671.9"/>
		<line class="st3" x1="289.6" y1="680" x2="289.6" y2="671.9"/>
		<line class="st3" x1="304.9" y1="680" x2="304.9" y2="671.9"/>
		<line class="st3" x1="319.8" y1="680" x2="319.8" y2="671.9"/>
		<line class="st3" x1="335.1" y1="680" x2="335.1" y2="671.9"/>
		<line class="st3" x1="350.4" y1="680" x2="350.4" y2="671.9"/>
		<line class="st3" x1="366.2" y1="680" x2="366.2" y2="671.9"/>
		<line class="st3" x1="252.8" y1="689.1" x2="373.3" y2="688.9"/>
		<line class="st3" x1="267.7" y1="688.7" x2="267.7" y2="680.6"/>
		<line class="st3" x1="283" y1="688.7" x2="283" y2="680.6"/>
		<line class="st3" x1="297.8" y1="688.7" x2="297.8" y2="680.6"/>
		<line class="st3" x1="313.1" y1="688.7" x2="313.1" y2="680.6"/>
		<line class="st3" x1="328" y1="688.7" x2="328" y2="680.6"/>
		<line class="st3" x1="343.3" y1="688.7" x2="343.3" y2="680.6"/>
		<line class="st3" x1="358.5" y1="688.7" x2="358.5" y2="680.6"/>
		<line class="st3" x1="253" y1="698.2" x2="373.3" y2="698"/>
		<line class="st3" x1="260.1" y1="697.8" x2="260.1" y2="689.8"/>
		<line class="st3" x1="275.4" y1="697.8" x2="275.4" y2="689.8"/>
		<line class="st3" x1="290.1" y1="697.8" x2="290.1" y2="689.8"/>
		<line class="st3" x1="305.4" y1="697.8" x2="305.4" y2="689.8"/>
		<line class="st3" x1="320.4" y1="697.8" x2="320.4" y2="689.8"/>
		<line class="st3" x1="335.7" y1="697.8" x2="335.7" y2="689.8"/>
		<line class="st3" x1="350.9" y1="697.8" x2="350.9" y2="689.8"/>
		<line class="st3" x1="366.8" y1="697.8" x2="366.8" y2="689.8"/>
		<line class="st3" x1="252.9" y1="707.4" x2="373.4" y2="707.2"/>
		<line class="st3" x1="267.8" y1="707" x2="267.8" y2="698.9"/>
		<line class="st3" x1="283.1" y1="707" x2="283.1" y2="698.9"/>
		<line class="st3" x1="297.9" y1="707" x2="297.9" y2="698.9"/>
		<line class="st3" x1="313.1" y1="707" x2="313.1" y2="698.9"/>
		<line class="st3" x1="328.1" y1="707" x2="328.1" y2="698.9"/>
		<line class="st3" x1="343.4" y1="707" x2="343.4" y2="698.9"/>
		<line class="st3" x1="358.6" y1="707" x2="358.6" y2="698.9"/>
		<line class="st3" x1="253.1" y1="716.5" x2="373.4" y2="716.3"/>
		<line class="st3" x1="260.2" y1="716.1" x2="260.2" y2="708.1"/>
		<line class="st3" x1="275.5" y1="716.1" x2="275.5" y2="708.1"/>
		<line class="st3" x1="290.2" y1="716.1" x2="290.2" y2="708.1"/>
		<line class="st3" x1="305.5" y1="716.1" x2="305.5" y2="708.1"/>
		<line class="st3" x1="320.5" y1="716.1" x2="320.5" y2="708.1"/>
		<line class="st3" x1="335.8" y1="716.1" x2="335.8" y2="708.1"/>
		<line class="st3" x1="351" y1="716.1" x2="351" y2="708.1"/>
		<line class="st3" x1="366.9" y1="716.1" x2="366.9" y2="708.1"/>
		<line class="st3" x1="252.8" y1="724.8" x2="373.3" y2="724.6"/>
		<line class="st3" x1="267.7" y1="724.4" x2="267.7" y2="716.4"/>
		<line class="st3" x1="283" y1="724.4" x2="283" y2="716.4"/>
		<line class="st3" x1="297.8" y1="724.4" x2="297.8" y2="716.4"/>
		<line class="st3" x1="313.1" y1="724.4" x2="313.1" y2="716.4"/>
		<line class="st3" x1="328" y1="724.4" x2="328" y2="716.4"/>
		<line class="st3" x1="343.3" y1="724.4" x2="343.3" y2="716.4"/>
		<line class="st3" x1="358.5" y1="724.4" x2="358.5" y2="716.4"/>
		<line class="st3" x1="260.1" y1="733.6" x2="260.1" y2="725.5"/>
		<line class="st3" x1="275.4" y1="733.6" x2="275.4" y2="725.5"/>
		<line class="st3" x1="290.1" y1="733.6" x2="290.1" y2="725.5"/>
		<line class="st3" x1="305.4" y1="733.6" x2="305.4" y2="725.5"/>
		<line class="st3" x1="320.4" y1="733.6" x2="320.4" y2="725.5"/>
		<line class="st3" x1="335.7" y1="733.6" x2="335.7" y2="725.5"/>
		<line class="st3" x1="350.9" y1="733.6" x2="350.9" y2="725.5"/>
		<line class="st3" x1="366.8" y1="733.6" x2="366.8" y2="725.5"/>
		<line class="st3" x1="372.7" y1="652.7" x2="471.5" y2="652.5"/>
		<line class="st3" x1="372.7" y1="643.9" x2="471.5" y2="643.7"/>
		<line class="st3" x1="389.4" y1="652.4" x2="389.4" y2="644.3"/>
		<line class="st3" x1="404.7" y1="652.4" x2="404.7" y2="644.3"/>
		<line class="st3" x1="419.4" y1="652.4" x2="419.4" y2="644.3"/>
		<line class="st3" x1="434.7" y1="652.4" x2="434.7" y2="644.3"/>
		<line class="st3" x1="449.6" y1="652.4" x2="449.6" y2="644.3"/>
		<line class="st3" x1="464.9" y1="652.4" x2="464.9" y2="644.3"/>
		<line class="st3" x1="372.6" y1="661.8" x2="471.5" y2="661.6"/>
		<line class="st3" x1="381.8" y1="661.5" x2="381.8" y2="653.4"/>
		<line class="st3" x1="397.1" y1="661.5" x2="397.1" y2="653.4"/>
		<line class="st3" x1="411.8" y1="661.5" x2="411.8" y2="653.4"/>
		<line class="st3" x1="427.1" y1="661.5" x2="427.1" y2="653.4"/>
		<line class="st3" x1="442" y1="661.5" x2="442" y2="653.4"/>
		<line class="st3" x1="457.3" y1="661.5" x2="457.3" y2="653.4"/>
		<line class="st3" x1="372.7" y1="671" x2="471.6" y2="670.8"/>
		<line class="st3" x1="389.5" y1="670.7" x2="389.5" y2="662.6"/>
		<line class="st3" x1="404.8" y1="670.7" x2="404.8" y2="662.6"/>
		<line class="st3" x1="419.5" y1="670.7" x2="419.5" y2="662.6"/>
		<line class="st3" x1="434.8" y1="670.7" x2="434.8" y2="662.6"/>
		<line class="st3" x1="449.7" y1="670.7" x2="449.7" y2="662.6"/>
		<line class="st3" x1="465" y1="670.7" x2="465" y2="662.6"/>
		<line class="st3" x1="372.7" y1="680.1" x2="471.5" y2="679.9"/>
		<line class="st3" x1="381.9" y1="679.8" x2="381.9" y2="671.7"/>
		<line class="st3" x1="397.2" y1="679.8" x2="397.2" y2="671.7"/>
		<line class="st3" x1="411.9" y1="679.8" x2="411.9" y2="671.7"/>
		<line class="st3" x1="427.2" y1="679.8" x2="427.2" y2="671.7"/>
		<line class="st3" x1="442.1" y1="679.8" x2="442.1" y2="671.7"/>
		<line class="st3" x1="457.4" y1="679.8" x2="457.4" y2="671.7"/>
		<line class="st3" x1="373.2" y1="688.9" x2="472" y2="688.7"/>
		<line class="st3" x1="390" y1="688.5" x2="390" y2="680.4"/>
		<line class="st3" x1="405.3" y1="688.5" x2="405.3" y2="680.4"/>
		<line class="st3" x1="420.1" y1="688.5" x2="420.1" y2="680.4"/>
		<line class="st3" x1="435.4" y1="688.5" x2="435.4" y2="680.4"/>
		<line class="st3" x1="450.3" y1="688.5" x2="450.3" y2="680.4"/>
		<line class="st3" x1="465.6" y1="688.5" x2="465.6" y2="680.4"/>
		<line class="st3" x1="373.2" y1="698" x2="472" y2="697.8"/>
		<line class="st3" x1="382.4" y1="697.6" x2="382.4" y2="689.6"/>
		<line class="st3" x1="397.7" y1="697.6" x2="397.7" y2="689.6"/>
		<line class="st3" x1="412.4" y1="697.6" x2="412.4" y2="689.6"/>
		<line class="st3" x1="427.7" y1="697.6" x2="427.7" y2="689.6"/>
		<line class="st3" x1="442.7" y1="697.6" x2="442.7" y2="689.6"/>
		<line class="st3" x1="458" y1="697.6" x2="458" y2="689.6"/>
		<line class="st3" x1="373.3" y1="707.2" x2="472.1" y2="707"/>
		<line class="st3" x1="390.1" y1="706.8" x2="390.1" y2="698.7"/>
		<line class="st3" x1="405.4" y1="706.8" x2="405.4" y2="698.7"/>
		<line class="st3" x1="420.2" y1="706.8" x2="420.2" y2="698.7"/>
		<line class="st3" x1="435.4" y1="706.8" x2="435.4" y2="698.7"/>
		<line class="st3" x1="450.4" y1="706.8" x2="450.4" y2="698.7"/>
		<line class="st3" x1="465.7" y1="706.8" x2="465.7" y2="698.7"/>
		<line class="st3" x1="373.2" y1="716.3" x2="472.1" y2="716.1"/>
		<line class="st3" x1="382.5" y1="715.9" x2="382.5" y2="707.9"/>
		<line class="st3" x1="397.8" y1="715.9" x2="397.8" y2="707.9"/>
		<line class="st3" x1="412.5" y1="715.9" x2="412.5" y2="707.9"/>
		<line class="st3" x1="427.8" y1="715.9" x2="427.8" y2="707.9"/>
		<line class="st3" x1="442.8" y1="715.9" x2="442.8" y2="707.9"/>
		<line class="st3" x1="458.1" y1="715.9" x2="458.1" y2="707.9"/>
		<line class="st3" x1="373.2" y1="724.6" x2="472" y2="724.4"/>
		<line class="st3" x1="390" y1="724.3" x2="390" y2="716.2"/>
		<line class="st3" x1="405.3" y1="724.3" x2="405.3" y2="716.2"/>
		<line class="st3" x1="420.1" y1="724.3" x2="420.1" y2="716.2"/>
		<line class="st3" x1="435.4" y1="724.3" x2="435.4" y2="716.2"/>
		<line class="st3" x1="450.3" y1="724.3" x2="450.3" y2="716.2"/>
		<line class="st3" x1="465.6" y1="724.3" x2="465.6" y2="716.2"/>
		<line class="st3" x1="382.4" y1="733.4" x2="382.4" y2="725.3"/>
		<line class="st3" x1="397.7" y1="733.4" x2="397.7" y2="725.3"/>
		<line class="st3" x1="412.4" y1="733.4" x2="412.4" y2="725.3"/>
		<line class="st3" x1="427.7" y1="733.4" x2="427.7" y2="725.3"/>
		<line class="st3" x1="442.7" y1="733.4" x2="442.7" y2="725.3"/>
		<line class="st3" x1="458" y1="733.4" x2="458" y2="725.3"/>
		<line class="st3" x1="374" y1="652.2" x2="374" y2="644.2"/>
		<line class="st3" x1="374.1" y1="670.5" x2="374.1" y2="662.5"/>
		<line class="st3" x1="374.6" y1="688.4" x2="374.6" y2="680.3"/>
		<line class="st3" x1="374.7" y1="706.7" x2="374.7" y2="698.6"/>
		<line class="st3" x1="374.6" y1="724.2" x2="374.6" y2="716.1"/>
	</g>
	<line class="st4" x1="472.2" y1="635.6" x2="472.2" y2="823.8"/>
	<path class="st5" d="M425.1,713.7h-51.7c-2,0-3.6-1.6-3.6-3.6l0,0c0-2,1.6-3.6,3.6-3.6h51.7c2,0,3.6,1.6,3.6,3.6l0,0
		C428.7,712.1,427.1,713.7,425.1,713.7z"/>
	<line class="st6" x1="419.6" y1="772.1" x2="378" y2="772.1"/>
	<path class="st7" d="M419.9,796.6v-48c0-1.3-0.5-1.1-1.8-1.1H380c-1.3,0-2.5-0.3-2.5,1.1v48.3"/>
	<path class="st5" d="M424.9,804h-51.7c-2,0-3.6-1.6-3.6-3.6l0,0c0-2,1.6-3.6,3.6-3.6h51.7c2,0,3.6,1.6,3.6,3.6l0,0
		C428.5,802.4,426.9,804,424.9,804z"/>
	<g class="st8">
		<circle class="st9" cx="412.6" cy="765.8" r="11.5"/>
		<circle class="st10" cx="412.6" cy="765.8" r="10"/>
		<circle class="st11" cx="412.6" cy="757.4" r="0.3"/>
		<circle class="st11" cx="404" cy="765.8" r="0.3"/>
		<circle class="st11" cx="412.6" cy="774.6" r="0.3"/>
		<circle class="st11" cx="421.2" cy="765.8" r="0.3"/>
		<polyline class="st12" points="412.6,760.1 412.6,766 417.1,766 		"/>
		<path class="st13" d="M412.8,768.8C412.8,768.8,412.8,768.8,412.8,768.8c-0.4,0.5-0.7,1.1-1.1,1.7c0.2,0,0.5,0,0.7,0
			c0,0.3,0,0.7,0,1c0,0,0,0,0,0c0.4-0.6,0.7-1.1,1.1-1.7c-0.2,0-0.5,0-0.7,0C412.7,769.5,412.8,769.1,412.8,768.8z"/>
	</g>
	<path class="st14" d="M620.1,822.5c-7.6,0-13.7-6.1-13.7-13.7c0-7.6,6.1-13.7,13.7-13.7s13.7,6.1,13.7,13.7
		C633.8,816.3,627.7,822.5,620.1,822.5L620.1,822.5z"/>
	<path class="st14" d="M508.5,822.4c7.6,0,13.7-6.1,13.7-13.7c0-7.6-6.1-13.7-13.7-13.7c-7.6,0-13.7,6.1-13.7,13.7
		C494.8,816.3,501,822.4,508.5,822.4L508.5,822.4z"/>
	<path class="st15" d="M620.1,818.7c-5.5,0-9.9-4.5-9.9-9.9c0-5.5,4.5-9.9,9.9-9.9c5.5,0,9.9,4.5,9.9,9.9
		C630.1,814.3,625.6,818.7,620.1,818.7L620.1,818.7z"/>
	<path class="st16" d="M620.1,811.9c-1.8,0-3.2-1.4-3.2-3.2c0-1.8,1.4-3.2,3.2-3.2c1.8,0,3.2,1.4,3.2,3.2
		C623.3,810.5,621.9,811.9,620.1,811.9L620.1,811.9z"/>
	<path class="st16" d="M482.6,787.4l0.4-0.1c0.3-0.1,0.5-0.2,0.7-0.4c3.3-3.1,7.6-6.1,13.1-8.8c2.2-1.1,3.9-2.5,5.4-4.4l6.7-8.7
		l0.1-0.3c-2.6-0.1-7.7-0.1-10-0.5c-0.8-0.2-2.9-0.7-2-1.1c2-0.9,5.2-1.5,8.8-1.9c1-0.1,1.9,0.3,2.8,0.4c1.5,0.1,2.9,0.2,4.4,0.2
		c0.4,0,1.4,0.1,1.4-0.6c0-0.2,0-0.5-0.1-0.7c-0.2-0.4-0.5-0.6-0.8-0.9c-0.1-0.1,0-0.2,0.1-0.2c0.6,0,1.2,0.1,1.8,0.3
		c1.2,0.4,2.4,0.9,3.6,1.2c0.7,0.2,1.3,0.1,1.9,0c0.7-0.1,1.4-0.1,2.2-0.2c2.9-0.2,5.8-0.4,8.7-0.6c2.9-0.2,5.8-0.3,8.7-0.4
		c2.9-0.1,5.8-0.1,8.7-0.2c2.9,0,5.8,0,8.7,0.1c2.9,0.1,5.8,0.3,8.7,0.5c6.6,0.5,12.3,1.8,18.3,4.2c8.5,3.6,16.7,8.3,25.1,12.2
		c4.9,2.3,12.8,2.9,18.2,3.5c1.3,0.1,2.3,0.4,3.5,0.8c9.7,3.3,15.9,6,19,8.9c1.3,1.3,2,2.3,2.5,3.6c0.1,0.3,0.2,0.5,0.4,0.7
		c0.8,1,1.5,2,2.2,3.1c0.1,0.2,0.2,0.4,0.2,0.6l0,0.6c0,0.3-0.4,0-0.4,0.3c-0.3,2.8-1.2,5.6-2.9,8.1c-0.1,0.1,0,0.2,0.1,0.2
		c1.2,0.4,2.3,1,2.9,1.7c0.1,0.1-0.2,0.1-0.2,0.1c-0.1,0.4-0.1,0.8-0.3,1.1c-0.2,0.2-0.4,0.3-0.6,0.4c-0.3,0.1-0.5,0.2-0.7,0.4
		c-0.6,0.3-1.1,0.5-1.8,0.6c-0.6,0.1-1.2,0.1-1.7,0.1c-0.9,0.1-1.8,0.1-2.7,0.3c-1.8,0.2-3.6,0.4-5.4,0.6c-0.1,0-0.1,0-0.2,0
		c-1.8,0.2-3.6,0.3-5.4,0.4c-0.1,0-0.3,0-0.4,0c-0.2,0-0.3-0.1-0.3-0.3c0.2-1.2,0.3-2.5,0.3-3.9c0-8.7-5.4-16.1-15.7-16.1
		c-8.5,0-13.7,5-15.2,11.6c-0.6,2.8-0.8,5.8-0.8,8.8c0,0.3-0.2,0.5-0.5,0.5c-27.3-0.6-62-1.3-79.2-0.1c-0.2,0-0.4-0.2-0.4-0.4
		c0.8-10.2-4.3-20.1-15.2-20.2c-11-0.1-17.4,7.1-16.6,18.2c0,0.1-0.1,0.2-0.2,0.1c-3.3-0.5-6.5-1.6-10-2.2c-1.8-0.4-3-2.5-3.4-4.1
		c-0.2-0.7,0.9-0.6,0.7-1.3c-0.7-2.8-0.8-5.8-0.4-9c0-0.2,0.1-0.4,0.2-0.5C480.4,792.6,481.1,789.3,482.6,787.4"/>
	<path class="st15" d="M508.5,818.7c5.5,0,9.9-4.5,9.9-9.9c0-5.5-4.5-9.9-9.9-9.9c-5.5,0-9.9,4.5-9.9,9.9
		C498.6,814.2,503,818.7,508.5,818.7L508.5,818.7z"/>
	<path class="st15" d="M650,803.6c-1.2,0.4-1.7,1.9-1.4,3.1c0.1,0.2,0.1,0.4,0.2,0.6c0.1,0.1,0.1,0.3,0.3,0.4c0.1,0.1,0.3,0,0.4-0.1
		c0.3-0.3,0.6-0.7,0.8-1.1c0.1-0.2,0.2-0.3,0.2-0.5c0.2-0.4,0.4-0.9,0.4-1.3c0.1-0.3,0.1-0.7-0.1-1
		C650.6,803.4,650.2,803.5,650,803.6z"/>
	<path class="st17" d="M651.1,802.1c-4.3-1.8-6.8,5.3-1.8,7.7"/>
	<path class="st15" d="M615.1,778.2l4.4,3.9c1.1,1,2.3,1.6,3.8,2c8.3,2,16.9,5.7,25.4,7.9c0.4,0.1,0.6,0.1,0.2-0.3
		c-4.9-5.3-10.5-8.6-16.6-10.2c-4.6-1.2-10.3-1-14.7-1"/>
	<path class="st17" d="M641.8,790c-5.6-2.2-10.2-5-12.3-9"/>
	<path class="st16" d="M653,793.4c-1.3-0.3-2.6-0.8-3.9-1.3"/>
	<path class="st17" d="M598.9,781.5c0.5,0.7,1.3,1.6,1.9,2.6c1.9,3,1.4,12.9-0.6,23.7c-0.3,1.4-1.4,2.4-2.9,2.4l-63.2-0.6
		c-2.9,0-4.7-1.3-6.4-3.5c-5.5-7.2-12.4-17.2-14.8-24.6c-0.8-2.4-0.8-4,1.3-5.7l3-2.4l0,0"/>
	<path class="st16" d="M565.2,784.5c-0.1-0.8-0.9-1.5-1.7-1.5h-1.6c-0.7,0-1.4,0.5-1.6,1.1l-0.1,1.6c0.1,0.9,0.8,1.6,1.7,1.6h1.6
		c0.8,0,1.5-0.6,1.7-1.4L565.2,784.5z"/>
	<path class="st16" d="M519.9,783.4c0.1,0.9,0.8,1.6,1.7,1.6h1.6c0.8,0,1.5-0.6,1.7-1.4l0-1.5c-0.1-0.8-0.9-1.5-1.7-1.5h-1.6
		c-0.7,0-1.4,0.5-1.6,1.1L519.9,783.4z"/>
	<path class="st15" d="M494.9,776.5l-3.6,1c-0.6,0.2-1.1,0.4-1.5,0.9c-2,2.1-3.8,4.2-5.2,6.3"/>
	<path class="st15" d="M505.3,764.5c-0.5,0-1,0.2-1.3,0.6l-7.8,10.1c-0.5,0.6-0.9,1-1.5,1.5c-4,2.8-7.6,5.8-11,8.8
		c-0.4,0.4-0.7,0.7-0.9,1.2l-0.3,0.5c-0.1,0.1,0,0.2,0.2,0.2l0.4-0.1c0.3-0.1,0.5-0.2,0.7-0.4c3.3-3.1,7.6-6.1,13.1-8.8
		c2.2-1.1,3.9-2.5,5.4-4.4l6.7-8.7l0.1-0.3C507.9,764.6,506.8,764.6,505.3,764.5"/>
	<path class="st15" d="M591.5,781.2c5.5,0.2,11.2,0.5,16.9,0.7c0.3,0,0.5-0.3,0.4-0.6c-0.5-1.4-1.5-2.6-3.1-3.7
		c-5.6-3.7-13.9-7.9-20-10.6c-7.9-3.5-15.2-5.1-23.8-5.3c-16-0.4-31.8,0.7-47.4,2.4c-0.8,0.1-1.2,0.9-0.9,1.6c1,2,2,4.4,3.1,6.3
		c0.7,1.3,1.7,2,3.1,2.5c6.8,2.2,22.3,3.9,34.6,4.8c11,0.8,22.6,1.3,34.7,1.8L591.5,781.2z"/>
	<path class="st16" d="M589.7,778.8c0.3-1.6,2.2-2.7,3.7-2.2c2.8,0.9,4.6,2.5,5.5,4.6c0.1,0.2,0,0.4-0.1,0.5
		c-1.6,1.5-3.4,1.8-6.3,1.5C590.8,783.1,589.3,780.4,589.7,778.8L589.7,778.8z"/>
	<path class="st17" d="M554.3,809.7c1.3-9.8,1.8-19.7-0.1-30.9l-2.8-17.2"/>
	<path class="st16" d="M508.5,812c-1.8,0-3.2-1.4-3.2-3.2c0-1.8,1.4-3.2,3.2-3.2c1.8,0,3.2,1.4,3.2,3.2
		C511.7,810.5,510.3,812,508.5,812L508.5,812z"/>
	<line class="st18" x1="556.1" y1="774" x2="559.6" y2="776.5"/>
	<line class="st18" x1="555.5" y1="769.2" x2="566" y2="777.3"/>
	<line class="st18" x1="529.6" y1="765.1" x2="534.3" y2="768.7"/>
	<line class="st18" x1="525.8" y1="765.6" x2="529.3" y2="768.4"/>
	<circle class="st19" cx="450.2" cy="775.5" r="12.3"/>
	<circle class="st20" cx="450.2" cy="775.5" r="3.4"/>
	<path class="st19" d="M446,778.4c-0.6-0.8-0.9-1.8-0.9-2.9c0-1.1,0.3-2.1,0.9-2.9"/>
	<path class="st19" d="M454.3,772.4c0.6,0.8,1,1.9,1,3c0,1.1-0.4,2.2-1,3"/>
	<path class="st21" d="M446,783.1c-2.7-1.5-4.5-4.3-4.5-7.7c0-3.3,1.8-6.1,4.5-7.6"/>
	<path class="st21" d="M454.3,767.8c2.7,1.5,4.6,4.3,4.6,7.7c0,3.3-1.9,6.2-4.6,7.7"/>
	<line class="st19" x1="446" y1="772.6" x2="446" y2="763.9"/>
	<line class="st19" x1="446" y1="783.1" x2="446" y2="778.4"/>
	<line class="st19" x1="446" y1="787" x2="446" y2="783.1"/>
	<line class="st19" x1="454.3" y1="778.5" x2="454.3" y2="787.1"/>
	<line class="st19" x1="454.3" y1="763.9" x2="454.3" y2="772.4"/>
	<circle class="st20" cx="450.2" cy="783.3" r="1.8"/>
	<path class="st21" d="M450.2,775.7c1.7,0,10.4-0.3,13.7,0.4c9.1,2,8,5.5,15.2,8.1c4,1.4,17.4,0.8,23,0.8"/>
	<circle class="st21" cx="502.1" cy="785.1" r="3.7"/>
	<path class="st22" d="M419.6,705.7v-48c0-1.3-0.5-1.1-1.8-1.1h-38.1c-1.3,0-2.5-0.3-2.5,1.1V706"/>
	<line class="st23" x1="398.3" y1="656.6" x2="398.3" y2="706.5"/>
	<line class="st23" x1="377.2" y1="684" x2="419" y2="684"/>
	<line class="st23" x1="398.7" y1="748" x2="398.7" y2="796.9"/>
	<line class="st23" x1="378.2" y1="772.2" x2="420" y2="772.2"/>
	<rect x="420.6" y="754.3" class="st24" width="4.3" height="23"/>
	<path class="st25" d="M420,796.2v-48c0-1.3-0.5-1.1-1.8-1.1H380c-1.3,0-2.5-0.3-2.5,1.1v48.3"/>
	<g class="st2">
		<line class="st26" x1="385.7" y1="752.2" x2="390.4" y2="755.8"/>
		<line class="st26" x1="381.8" y1="752.8" x2="385.4" y2="755.6"/>
	</g>
	<g class="st2">
		<line class="st26" x1="403.2" y1="790.7" x2="406.7" y2="793.2"/>
		<line class="st26" x1="402.5" y1="785.9" x2="413.1" y2="794.1"/>
	</g>
	<path class="st27" d="M584.5,684.5c0,0.2,0,0.3-0.1,0.5l0,0.1l-5.9,0c-0.1-0.2-0.1-0.3-0.1-0.5c0-0.8,0.7-1.5,1.6-1.5
		c0,0,0.1,0,0.1,0l0,0c0.2-0.6,0.9-1,1.6-1c0.8,0,1.6,0.5,1.7,1.3l0.1,0c0.2,0,0.4,0.1,0.5,0.3c0.2,0.1,0.3,0.3,0.4,0.5
		C584.5,684.2,584.5,684.4,584.5,684.5"/>
	<path class="st27" d="M548.8,709.8c-1.4,0.4-2.5,1.6-2.5,3.2c0,0.1,0,0.2,0,0.4l13.8,0c0.1-1.4-1-1.8-1-1.8c0-1.5-1.1-2.6-2.9-2.5
		h0c-0.6-1.4-2-2.4-3.6-2.4C550.7,706.6,549.1,708,548.8,709.8"/>
	<g class="st2">
		<path class="st28" d="M507.9,704.8c0.3-0.1,0.6-0.2,0.9-0.3c0.3-0.1,0.5-0.2,0.8-0.2c0.1,0,0.1,0,0.2,0c0.4,0,0.7,0.1,1,0.3
			c0.3,0.2,0.7,0.4,1,0.7l0,0l0,0c0.1,0.1,0.3,0.1,0.4,0.1c0.1,0,0.2,0,0.3-0.1c0.1-0.1,0.2-0.2,0.2-0.3c0.1-0.3,0.2-0.5,0.4-0.8
			c0.1-0.2,0.3-0.5,0.4-0.6c0.2-0.2,0.4-0.3,0.7-0.4c0.3-0.1,0.6-0.2,0.9-0.3c0.2-0.1,0.3-0.3,0.3-0.5c-0.1-0.2-0.3-0.3-0.5-0.3
			c-0.3,0.1-0.6,0.2-1,0.3c-0.3,0.1-0.7,0.3-1,0.6c-0.2,0.3-0.4,0.5-0.6,0.8c-0.2,0.3-0.3,0.6-0.4,0.8l0.2,0.1l-0.1-0.2
			c0,0-0.1,0-0.1,0.1l0.2,0.1l-0.1-0.2l0.1,0.2v-0.2c0,0-0.1,0-0.1,0l0.1,0.2v-0.2v0.2l0.1-0.1c0,0-0.1,0-0.1,0v0.2l0.1-0.1
			c-0.4-0.3-0.7-0.6-1.1-0.8c-0.4-0.2-0.9-0.4-1.4-0.4c-0.1,0-0.2,0-0.3,0c-0.3,0-0.7,0.1-1,0.2c-0.3,0.1-0.6,0.2-0.8,0.3
			c-0.2,0.1-0.3,0.3-0.3,0.5C507.5,704.7,507.7,704.8,507.9,704.8z"/>
		<path class="st28" d="M510.5,704.5c0.2,0.1,0.4,0.2,0.6,0.4c0.2,0.2,0.4,0.4,0.6,0.6c0.1,0.1,0.3,0.2,0.4,0.2c0.1,0,0.3,0,0.4-0.1
			c0.1-0.1,0.2-0.2,0.3-0.3c0.1-0.3,0.2-0.5,0.3-0.8c0.1-0.2,0.2-0.5,0.3-0.6c0.1-0.2,0.1-0.4-0.1-0.6c-0.2-0.1-0.4-0.1-0.6,0.1
			c-0.2,0.3-0.4,0.6-0.5,0.9c-0.1,0.3-0.2,0.5-0.3,0.8v0l0.2,0.1l-0.1-0.2c0,0-0.1,0-0.1,0.1l0.2,0.1l-0.1-0.2l0.1,0.1v-0.1
			c0,0,0,0-0.1,0l0.1,0.1v-0.1v0.1l0.1-0.1c0,0-0.1,0-0.1,0v0.1l0.1-0.1c-0.2-0.2-0.4-0.4-0.6-0.6c-0.2-0.2-0.5-0.4-0.8-0.5
			c-0.2-0.1-0.5,0-0.5,0.2C510.2,704.1,510.3,704.4,510.5,704.5"/>
		<path class="st28" d="M490.9,693.1c0.3,0.1,0.6,0.1,0.8,0.2c0.3,0.1,0.5,0.1,0.7,0.2c0.2,0.1,0.3,0.2,0.4,0.3
			c0.2,0.2,0.3,0.5,0.4,0.8c0.1,0.3,0.2,0.7,0.2,1.1c0,0.1,0.1,0.3,0.2,0.4c0.1,0.1,0.2,0.1,0.4,0.1c0.2,0,0.3-0.1,0.4-0.2l0,0l0,0
			c0.3-0.2,0.5-0.5,0.8-0.6c0.3-0.2,0.5-0.4,0.8-0.5c0.2-0.1,0.3-0.1,0.5-0.1c0.3,0,0.7,0.1,1.1,0.2c0.2,0,0.4-0.1,0.5-0.3
			c0-0.2-0.1-0.4-0.3-0.5c-0.4-0.1-0.8-0.2-1.3-0.2c-0.3,0-0.5,0-0.8,0.2c-0.3,0.1-0.7,0.3-0.9,0.6c-0.3,0.2-0.6,0.5-0.8,0.7v0
			l0.1,0.1v-0.2c-0.1,0-0.1,0-0.1,0l0.1,0.1v-0.2v0.3l0.2-0.2c0,0-0.1-0.1-0.2-0.1v0.3l0.2-0.2l-0.1,0.2l0.2,0c0,0,0-0.1-0.1-0.1
			l-0.1,0.2l0.2,0c-0.1-0.5-0.2-1.1-0.4-1.5c-0.1-0.2-0.2-0.5-0.4-0.7c-0.2-0.2-0.4-0.4-0.6-0.5c-0.3-0.2-0.6-0.2-0.9-0.3
			c-0.3-0.1-0.6-0.1-0.8-0.2c-0.2-0.1-0.4,0.1-0.5,0.3C490.6,692.8,490.7,693,490.9,693.1"/>
		<path class="st28" d="M493,694.1c0.1,0.2,0.2,0.5,0.2,0.8c0,0.3,0.1,0.6,0.1,1c0,0.2,0.1,0.3,0.2,0.4c0.1,0.1,0.3,0.2,0.4,0.2
			c0.2,0,0.3-0.1,0.4-0.2c0.3-0.2,0.5-0.5,0.7-0.7c0.2-0.2,0.5-0.4,0.7-0.5c0.2-0.1,0.3-0.4,0.2-0.6c-0.1-0.2-0.4-0.3-0.6-0.2
			c-0.3,0.2-0.6,0.4-0.9,0.7c-0.3,0.2-0.5,0.5-0.7,0.7l0.1,0.1v-0.2c0,0-0.1,0-0.1,0l0.1,0.1v-0.2v0.2l0.1-0.2c0,0-0.1,0-0.1,0v0.2
			l0.1-0.2l-0.1,0.1l0.2,0c0,0,0-0.1-0.1-0.1l-0.1,0.1l0.2,0c0-0.3-0.1-0.6-0.1-0.9c0-0.3-0.1-0.7-0.3-1c-0.1-0.2-0.4-0.3-0.6-0.2
			C493,693.6,492.9,693.9,493,694.1"/>
	</g>
	<path class="st27" d="M509.2,737.9c-1.3,0.3-2.3,1.5-2.3,2.9c0,0.1,0,0.2,0,0.3l12.7,0c0.1-1.2-0.9-1.7-0.9-1.7
		c0-1.4-1-2.4-2.6-2.3h0c-0.6-1.3-1.8-2.2-3.3-2.2C511,734.9,509.5,736.2,509.2,737.9"/>
	<path class="st27" d="M522.4,741.2h8c0.2,0,0.4-0.2,0.4-0.4s-0.2-0.4-0.4-0.4h-8c-0.2,0-0.4,0.2-0.4,0.4S522.2,741.2,522.4,741.2"
		/>
	<path class="st27" d="M490.1,741.3h2c0.2,0,0.4-0.2,0.4-0.4s-0.2-0.4-0.4-0.4h-2c-0.2,0-0.4,0.2-0.4,0.4S489.9,741.3,490.1,741.3"
		/>
	<path class="st27" d="M587.1,685.2h8c0.2,0,0.4-0.2,0.4-0.4s-0.2-0.4-0.4-0.4h-8c-0.2,0-0.4,0.2-0.4,0.4S586.9,685.2,587.1,685.2"
		/>
	<path class="st27" d="M596.6,698.5h2c0.2,0,0.4-0.2,0.4-0.4c0-0.2-0.2-0.4-0.4-0.4h-2c-0.2,0-0.4,0.2-0.4,0.4
		C596.2,698.4,596.4,698.5,596.6,698.5"/>
	<path class="st27" d="M567.6,735.3h2c0.2,0,0.4-0.2,0.4-0.4c0-0.2-0.2-0.4-0.4-0.4h-2c-0.2,0-0.4,0.2-0.4,0.4
		C567.2,735.1,567.4,735.3,567.6,735.3"/>
	<path class="st27" d="M541.5,713.6h2c0.2,0,0.4-0.2,0.4-0.4s-0.2-0.4-0.4-0.4h-2c-0.2,0-0.4,0.2-0.4,0.4S541.3,713.6,541.5,713.6"
		/>
	<path class="st27" d="M531.2,713.6h8c0.2,0,0.4-0.2,0.4-0.4s-0.2-0.4-0.4-0.4h-8c-0.2,0-0.4,0.2-0.4,0.4S531,713.6,531.2,713.6"/>
	<line class="st4" x1="364.8" y1="823.7" x2="572.1" y2="823.7"/>
</g>
<path class="st29" d="M548.1,709.8c-1.4,0.4-2.5,1.6-2.5,3.2c0,0.1,0,0.2,0,0.4l13.8,0c0.1-1.4-1-1.8-1-1.8c0-1.5-1.1-2.6-2.9-2.5h0
	c-0.6-1.4-2-2.4-3.6-2.4C550.1,706.6,548.4,707.9,548.1,709.8"/>
<path class="st29" d="M540.4,690.9c0,0.1,0,0.2-0.1,0.4l0,0l-4.6,0c-0.1-0.1-0.1-0.3-0.1-0.4c0-0.6,0.6-1.2,1.3-1.2c0,0,0.1,0,0.1,0
	l0,0c0.2-0.5,0.7-0.8,1.3-0.8c0.7,0,1.2,0.4,1.3,1l0.1,0c0.1,0,0.3,0.1,0.4,0.2c0.1,0.1,0.2,0.2,0.3,0.4
	C540.3,690.6,540.3,690.7,540.4,690.9"/>
<path class="st29" d="M533.5,691.3c0-1-0.7-1.9-1.6-2.2v0c-0.2-1.2-1.3-2.1-2.5-2.2l0,0c-0.6-0.9-1.7-1.4-2.9-1.4
	c-1.5,0-2.8,1.1-3.3,2.5h-0.2c-1.8,0-3.2,1.3-3.2,3.1c0,0.1,0,0.2,0,0.3L533.5,691.3z"/>
<path class="st29" d="M514.6,691.4h1.5c0.2,0,0.3-0.1,0.3-0.3s-0.1-0.3-0.3-0.3h-1.5c-0.2,0-0.3,0.1-0.3,0.3
	S514.4,691.4,514.6,691.4"/>
<path class="st29" d="M557.3,729.3h8c0.2,0,0.4-0.2,0.4-0.4c0-0.2-0.2-0.4-0.4-0.4h-8c-0.2,0-0.4,0.2-0.4,0.4
	C556.9,729.1,557.1,729.3,557.3,729.3"/>
<path class="st29" d="M562.1,713.3h2c0.2,0,0.4-0.2,0.4-0.4s-0.2-0.4-0.4-0.4h-2c-0.2,0-0.4,0.2-0.4,0.4S561.9,713.3,562.1,713.3"/>
<g>
	<defs>
		<circle id="SVGID_3_" cx="110.7" cy="123.7" r="108.3"/>
	</defs>
	<use xlink:href="#SVGID_3_"  style="overflow:visible;opacity:0.74;fill:#F8F8F8;"/>
	<clipPath id="SVGID_4_">
		<use xlink:href="#SVGID_3_"  style="overflow:visible;opacity:0.74;"/>
	</clipPath>
	<rect x="-75.8" y="168.8" class="st30" width="356.3" height="82.3"/>
	<line class="st31" x1="-16.1" y1="178.6" x2="-32.9" y2="195.4"/>
	<line class="st31" x1="21.4" y1="178.6" x2="-31.4" y2="231.4"/>
	<line class="st31" x1="250.7" y1="252.4" x2="233.9" y2="269.2"/>
	<line class="st31" x1="249.4" y1="217" x2="196.6" y2="269.8"/>
	<line class="st31" x1="252.1" y1="178.6" x2="157" y2="273.7"/>
	<path class="st32" d="M227.9,30.4c0,0.2,0,0.3-0.1,0.5l0,0.1l-5.9,0c-0.1-0.2-0.1-0.3-0.1-0.5c0-0.8,0.7-1.5,1.6-1.5
		c0,0,0.1,0,0.1,0l0,0c0.2-0.6,0.9-1,1.6-1c0.8,0,1.6,0.5,1.7,1.3l0.1,0c0.2,0,0.3,0.1,0.5,0.2c0.2,0.1,0.3,0.3,0.4,0.5
		C227.9,30,227.9,30.2,227.9,30.4"/>
	<path class="st32" d="M159.8,45.1c-1.4,0.4-2.5,1.6-2.5,3.2c0,0.1,0,0.2,0,0.3l13.8,0c0.1-1.3-1-1.8-1-1.8c0-1.5-1.1-2.6-2.9-2.5h0
		c-0.6-1.4-2-2.4-3.6-2.4C161.7,41.9,160.1,43.3,159.8,45.1"/>
	<path class="st32" d="M169.9,80.3c-1.3,0.3-2.2,1.5-2.2,2.9c0,0.1,0,0.2,0,0.3l12.6,0c0.1-1.2-0.9-1.7-0.9-1.7c0-1.4-1-2.4-2.6-2.3
		h0c-0.6-1.3-1.8-2.2-3.3-2.2C171.6,77.4,170.1,78.6,169.9,80.3"/>
	<path class="st32" d="M183,83.6h7.9c0.2,0,0.4-0.2,0.4-0.4c0-0.2-0.2-0.4-0.4-0.4H183c-0.2,0-0.4,0.2-0.4,0.4
		C182.6,83.5,182.8,83.6,183,83.6"/>
	<path class="st32" d="M230.5,31h7.9c0.2,0,0.4-0.2,0.4-0.4c0-0.2-0.2-0.4-0.4-0.4h-7.9c-0.2,0-0.4,0.2-0.4,0.4
		C230.1,30.8,230.2,31,230.5,31"/>
	<path class="st32" d="M240,44.3h2c0.2,0,0.4-0.2,0.4-0.4c0-0.2-0.2-0.4-0.4-0.4h-2c-0.2,0-0.4,0.2-0.4,0.4
		C239.6,44.1,239.7,44.3,240,44.3"/>
	<path class="st32" d="M219,89.1h1.8c0.2,0,0.4-0.2,0.4-0.4c0-0.2-0.2-0.4-0.4-0.4H219c-0.2,0-0.4,0.2-0.4,0.4
		C218.6,89,218.8,89.1,219,89.1"/>
	<path class="st32" d="M193.6,62.4h7.9c0.2,0,0.4-0.2,0.4-0.4c0-0.2-0.2-0.4-0.4-0.4h-7.9c-0.2,0-0.4,0.2-0.4,0.4
		C193.2,62.2,193.4,62.4,193.6,62.4"/>
	<path class="st32" d="M164.9,60h1.8c0.2,0,0.4-0.2,0.4-0.4c0-0.2-0.2-0.4-0.4-0.4h-1.8c-0.2,0-0.4,0.2-0.4,0.4
		C164.5,59.9,164.7,60,164.9,60"/>
	<path class="st32" d="M142.2,48.8h7.9c0.2,0,0.4-0.2,0.4-0.4c0-0.2-0.2-0.4-0.4-0.4h-7.9c-0.2,0-0.4,0.2-0.4,0.4
		C141.8,48.7,142,48.8,142.2,48.8"/>
	<line class="st33" x1="9.1" y1="169" x2="215.6" y2="169"/>
	<circle class="st34" cx="158.5" cy="190.5" r="0.6"/>
	<circle class="st34" cx="146.4" cy="201.4" r="0.3"/>
	<circle class="st34" cx="178.2" cy="188.1" r="0.6"/>
	<circle class="st34" cx="168.3" cy="201.8" r="0.6"/>
	<circle class="st34" cx="48.2" cy="191.8" r="0.9"/>
	<circle class="st34" cx="82.3" cy="192.9" r="0.6"/>
	<circle class="st34" cx="106.3" cy="189.2" r="0.6"/>
	<circle class="st34" cx="66.7" cy="198.3" r="0.3"/>
	<circle class="st34" cx="94.8" cy="201.4" r="0.6"/>
	<circle class="st34" cx="129.9" cy="193.4" r="0.6"/>
	<line class="st34" x1="151.7" y1="176.3" x2="284.7" y2="176.3"/>
	<line class="st35" x1="191" y1="180.2" x2="193.7" y2="180.2"/>
	<line class="st35" x1="150.6" y1="180.2" x2="187" y2="180.2"/>
	<line class="st34" x1="16.4" y1="176.5" x2="149.3" y2="176.5"/>
	<line class="st35" x1="137.2" y1="180.4" x2="148.2" y2="180.4"/>
	<line class="st35" x1="131.7" y1="180.4" x2="134.7" y2="180.4"/>
	<line class="st35" x1="110.6" y1="180.4" x2="129.1" y2="180.4"/>
	<line class="st35" x1="62.2" y1="180.4" x2="107.6" y2="180.4"/>
	<line class="st35" x1="55.7" y1="180.4" x2="58.4" y2="180.4"/>
	<line class="st35" x1="15.3" y1="180.4" x2="51.6" y2="180.4"/>
	<path class="st36" d="M351.7,138.4c-0.1-0.4-0.1-0.8-0.2-1.2c-0.1-0.8-0.2-1.5-0.3-2.3c-0.1-0.2-0.1-0.5-0.1-0.7
		c0-0.3-0.1-0.7,0.1-0.9c0-0.1,0.1-0.1,0.2-0.1c0.1,0,0.2,0,0.3-0.1c0.1-0.3-0.4-0.5-0.6-0.6c-0.2-0.1-0.4-0.3-0.6-0.4
		c-0.4-0.3-0.8-0.5-1.2-0.8c-0.9-0.5-1.8-1-2.7-1.5c-1-0.5-2.1-1-3.1-1.5c-0.5-0.2-1-0.4-1.6-0.7c0,0-0.1,0-0.1,0
		c-5.3-2-10.9-3.8-16.6-5.3c-4.6-1.1-9.3-2.1-14-2.8c-3.5-0.5-7.1-0.4-10.7-0.4c0,0,0,0-0.1,0c-1.8-0.1-4.2-0.9-7.2-2.5
		c-0.8-0.4-1.5-0.8-2.3-1.2c-0.7-0.4-1.5-0.8-2.2-1.2c-0.7-0.4-1.4-0.7-2.1-1.1c-0.7-0.4-1.4-0.7-2.1-1.1c-0.7-0.3-1.3-0.7-2-1
		c-0.6-0.3-1.3-0.6-1.9-1c-0.6-0.3-1.2-0.6-1.9-0.9c-0.6-0.3-1.2-0.6-1.8-0.9c-0.6-0.3-1.1-0.6-1.7-0.8c-0.6-0.3-1.1-0.5-1.7-0.8
		c-0.5-0.2-1.1-0.5-1.6-0.7c-0.5-0.2-1-0.5-1.5-0.7c-0.5-0.2-1-0.4-1.5-0.6c-0.5-0.2-0.9-0.4-1.4-0.6c-0.4-0.2-0.9-0.4-1.3-0.5
		c-0.4-0.2-0.8-0.3-1.3-0.5c-0.4-0.2-0.8-0.3-1.2-0.4c-0.4-0.1-0.8-0.3-1.1-0.4c-0.4-0.1-0.7-0.2-1.1-0.3c-0.8-0.2-1.5-0.5-2.3-0.6
		c-0.4-0.1-0.9-0.2-1.3-0.3c-8.7-2-19.5-2.9-32.4-2.6c-8.2,0.3-17,1.2-26.2,2.7c0,0-0.7-0.5-1.4-0.5c-1.6-0.3-3.2-0.9-4.6-1.6
		l-1.7,0.3c-0.5,0.1-0.4,0.4,0.1,0.9c0.6,0.2,0.4,2.2,0.4,2.2c-0.8,0.2-1.6,0.3-2.4,0.5l-0.1,0c-7.8,1.8-15.3,3.7-22.5,5.7l-0.4,0.1
		c-3.3,0.7-5.1,0.9-6.7,0.5l-0.2,0c-0.6,0.2-1.2,0.4-1.9,0.6c-3.4,1-8.2,1.6-14.5,1.9l-0.6,0.5l0.3,0l1,0.1l-1.1,7.6l-0.1,0.4
		c-0.3,0.1-0.5,0.8-0.5,2v7c-0.1,0.9-0.7,1.6-1.8,2.2v2l-1,0.1l-1.5,1.8v1.8h0.4c0,0,1.1,3.2,0.8,6.5c-0.1,1.4-0.3,3.5-0.3,3.5
		l-0.6-0.1v1.4c0,0.6-0.4,1.1-1.2,1.5l0.8,0.1l2,0.2c1.1,0,1.7,0.1,2,0.4l0.4,0.4l0.2,0.2l2.1,2.1l19.8,2.1l0.2,0l0.4-4.5
		c0.3-4.2,2-7.9,5-11l0.9-0.8l0.1-0.1c3.3-3,7-4.3,11.5-4.3c4.8,0,8.9,1.7,12.4,5.2c2.9,3,4.6,6.4,5,10.5c0.4,2.2,0.5,4.5,0.4,6.9
		l0,0.2l0,0.2l88.8,0.4h4.3c-0.1,0,0.1-2.4,0.1-2.5c0.1-1.4,0.2-2.7,0.3-4.1c0.1-1.5,0.3-3,0.7-4.5c0.6-2.1,1.7-4.1,3.1-5.8
		c0.4-0.5,0.8-1,1.3-1.5l0.2-0.2c3.4-3.4,7.5-5.1,12.3-5.1c3.3,0,6.3,0.8,9,2.4l0.1,0c1.2,0.8,2.4,1.7,3.5,2.8c3,3,4.6,6.5,5.1,10.6
		c0.3,1.9,0.4,3.9,0.4,5.9v0.1l0,1.8c7.2-0.1,14.3-0.6,21.2-1.5l0.5-0.1l0.4-0.2l0.1,0c0.2-0.1,0.3-0.3,0.4-0.6l0-0.1l0.3-0.7
		l0.2-0.4c0.2-0.4,0.4-0.8,0.6-1.2c0.2-0.4,0.5-0.7,0.9-1h0.8c0.5,0.1,0.8-0.1,1.1-0.3c0.1-0.1,0.1-0.2,0.2-0.3
		c-0.2-0.3-0.4-0.6-0.5-1l-0.4-1.6c0,0-0.2-0.1-0.2-0.1c-0.1,0-0.2-0.1-0.2-0.1c-0.1-0.1-0.3-0.2-0.4-0.3c-0.3-0.3-0.3-0.7-0.4-1.1
		c0-0.2-0.1-0.4-0.1-0.6c-0.1-0.6-0.2-1.2-0.3-1.8c-0.1-0.7-0.2-1.4-0.4-2.1c-0.1-0.6-0.2-1.2-0.3-1.8c0-0.3-0.1-0.6-0.1-0.9
		c0,0,0,0,0,0l-0.1-0.3c-0.1-0.5-0.4-0.8-0.7-1.2C351.9,138.7,351.8,138.5,351.7,138.4z"/>
	<path class="st37" d="M293.2,123c-0.2-0.6-0.5-1.1-0.9-1.6c-0.5-0.7-1.1-1.3-1.7-1.8c-1.4-1.3-3-2.4-4.6-3.4c-1.6-1-3.3-1.9-5-2.8
		c0,0,0,0,0,0c-0.2-0.1-0.4-0.2-0.5-0.3c-0.2-0.1-0.4-0.2-0.5-0.3c-0.2-0.1-0.4-0.2-0.5-0.3c-0.2-0.1-0.4-0.2-0.5-0.3
		c-0.2-0.1-0.4-0.2-0.5-0.3c-0.2-0.1-0.3-0.2-0.5-0.3c-0.2-0.1-0.3-0.2-0.5-0.3c-0.2-0.1-0.3-0.2-0.5-0.3c-0.2-0.1-0.3-0.2-0.5-0.3
		c-0.1-0.1-0.3-0.2-0.4-0.2c-0.1-0.1-0.3-0.1-0.4-0.2c-0.1-0.1-0.3-0.1-0.4-0.2c-0.1-0.1-0.2-0.1-0.3-0.2c-0.1-0.1-0.2-0.1-0.3-0.2
		c-7.8-3.8-15.6-6.4-23.2-7.8c-6.4-0.9-12.9-1.3-19.7-1.2l-0.4,0l-7.3,0.3c-11.2,0.5-21.6,2-31.2,4.6l-0.9,0.2l-3.1,0.9
		c-0.7,0.2-1.3,0.5-1.9,0.7c-1.6,1.1-3.4,3-5.4,5.8c-0.7,1.5,0.1,2.6,2.5,3.3l3.6,0.3h0.2l11.4,0.5l36.1,2.1l0.5,0l43.4,2.5
		L293.2,123z"/>
	<path class="st38" d="M167.2,158.6c-0.7-1.9-1.1-3.9-1.1-6.1c0-3,0.7-5.7,2.1-8.2c0.7-1.2,1.6-2.4,2.7-3.4c0.7-0.7,1.5-1.4,2.3-2
		c2.7-1.9,5.8-2.8,9.3-2.8c4.5,0,8.4,1.6,11.6,4.8c3.2,3.2,4.8,7.1,4.8,11.6c0,2.2-0.4,4.2-1.1,6"/>
	<path class="st38" d="M197.8,158.5c-0.8,2-2,3.9-3.7,5.6l-0.2,0.2c-3.2,3.1-7,4.7-11.5,4.7c-4.5,0-8.4-1.6-11.6-4.8
		c-1.6-1.7-2.9-3.5-3.7-5.5"/>
	<path class="st37" d="M191.4,143.1c2.5,2.5,3.7,5.5,3.7,9c0,3.5-1.2,6.5-3.7,9c-2.5,2.5-5.5,3.7-9,3.7c-3.5,0-6.5-1.2-9-3.7
		c-2.5-2.5-3.7-5.5-3.7-9c0-3.5,1.2-6.5,3.7-9c2.5-2.5,5.5-3.7,9-3.7C186,139.4,189,140.6,191.4,143.1L191.4,143.1z"/>
	<path class="st38" d="M296.2,158.3c-0.7-1.9-1.1-3.9-1.1-6.1c0-3,0.7-5.7,2.1-8.2c0.7-1.2,1.6-2.4,2.7-3.4c0.7-0.7,1.5-1.4,2.3-2
		c2.7-1.9,5.8-2.8,9.3-2.8c4.5,0,8.4,1.6,11.6,4.8c3.2,3.2,4.8,7.1,4.8,11.6c0,2.2-0.4,4.2-1.1,6"/>
	<path class="st38" d="M326.9,158.2c-0.8,2-2,3.9-3.7,5.6L323,164c-3.2,3.1-7,4.7-11.5,4.7c-4.5,0-8.4-1.6-11.6-4.8
		c-1.6-1.7-2.9-3.5-3.7-5.5"/>
	<path class="st37" d="M320.5,143.2c2.5,2.5,3.7,5.5,3.7,9c0,3.5-1.2,6.5-3.7,9c-2.5,2.5-5.5,3.7-9,3.7c-3.5,0-6.5-1.2-9-3.7
		c-2.5-2.5-3.7-5.5-3.7-9c0-3.5,1.2-6.5,3.7-9c2.5-2.5,5.5-3.7,9-3.7C315,139.5,318,140.8,320.5,143.2L320.5,143.2z"/>
	<path class="st36" d="M174.7,120.5c0.8-0.7,1.7-1,2.7-1c1.1,0,2,0.3,2.7,1l0.4,0.4L174.7,120.5L174.7,120.5z"/>
	<path class="st36" d="M174.7,120.6L174.7,120.6l5.9,0.4c0.5,0.6,0.7,1.3,0.7,2c0,0.9-0.4,1.8-1.1,2.4c-0.8,0.7-1.7,1-2.7,1
		c-1.1,0-2-0.3-2.7-1c-0.8-0.7-1.1-1.5-1.1-2.4C173.5,122.1,173.9,121.2,174.7,120.6L174.7,120.6z"/>
	<path class="st36" d="M153.6,117.6c0.7,0,1.2,0.5,1.4,1.6l-9.9,0.3l2.2-2.3l0.3-0.2C148.8,116.9,150.8,117.1,153.6,117.6
		L153.6,117.6z"/>
	<path class="st39" d="M310.1,152.2c0-0.4,0.1-0.8,0.4-1c0.3-0.3,0.6-0.4,1-0.4c0.4,0,0.7,0.1,1,0.4c0.3,0.3,0.4,0.6,0.4,1
		c0,0.4-0.1,0.8-0.4,1c-0.3,0.3-0.6,0.4-1,0.4c-0.4,0-0.8-0.1-1-0.4C310.2,153,310.1,152.6,310.1,152.2L310.1,152.2z"/>
	<path class="st36" d="M151.5,148.5l-4.5-0.2c-1.1-0.2-1.7-0.7-2-1.5l-1.4-3.8c-0.2-0.9-0.1-1.4,0.4-1.8l2.7-1.6l1.9-0.9l0.1,0.3
		l2.7,9.4L151.5,148.5"/>
	<line class="st36" x1="231.4" y1="100.8" x2="231.5" y2="101.5"/>
	<polyline class="st36" points="231.5,101.5 235,118.7 235,118.7 	"/>
	<line class="st36" x1="235.1" y1="119.7" x2="235" y2="118.7"/>
	<line class="st36" x1="229" y1="100.9" x2="231.3" y2="119.4"/>
	<line class="st36" x1="239.5" y1="119.9" x2="233.7" y2="100.8"/>
	<line class="st36" x1="187.5" y1="116.1" x2="187.1" y2="117"/>
	<polyline class="st36" points="185.4,121.3 185.5,120.8 187.1,117 	"/>
	<line class="st36" x1="191.6" y1="105.9" x2="187.5" y2="116.1"/>
	<path class="st36" d="M279.6,120.3c-0.3-0.1-0.5-0.2-0.7-0.4c-0.3-0.3-0.4-0.7-0.5-1.2c-0.1-0.5-0.1-0.9,0-1.4l0.1-0.5
		c0.1-0.4,0.2-0.8,0.4-1.1c0.1-0.3,0.3-0.6,0.5-0.8c0.2-0.3,0.6-0.4,0.9-0.5c0.3-0.1,0.6-0.1,0.9-0.1l0.1,0c0.5,0,0.9,0.1,1.5,0.3
		c0.4,0.1,0.7,0.2,1,0.3l0.1,0c1,0.3,1.9,0.9,2.6,1.4c0.8,0.6,1.4,1.5,1.5,2.5c0,0.4,0,0.9-0.1,1.3l-0.2,0.7c-0.1,0.6-0.8,0.8-2,0.7
		c-0.4-0.1-0.8-0.2-1.2-0.2c-0.8-0.2-1.6-0.3-2.4-0.5c-0.7-0.1-1.4-0.3-2-0.4C279.9,120.4,279.7,120.4,279.6,120.3z"/>
	<polyline class="st36" points="289,122.7 290.1,128.5 290.1,128.7 	"/>
	<path class="st36" d="M289.4,152l0.5-7.8c0.4-5.9,0.5-11.1,0.2-15.6"/>
	<line class="st39" x1="315.1" y1="142.1" x2="315.4" y2="141"/>
	<line class="st39" x1="321" y1="145.1" x2="320" y2="145.7"/>
	<line class="st39" x1="318.2" y1="146.9" x2="320" y2="145.7"/>
	<path class="st39" d="M314.7,149.4c0.2-0.2,0.5-0.3,0.7-0.5l2.8-1.9"/>
	<polyline class="st39" points="313.2,148.3 313.5,147.5 313.5,147.5 314.5,144.2 	"/>
	<path class="st39" d="M309.8,148.3c0.4,1.1,0.9,1.6,1.6,1.7l0.1,0l0.1,0c0.7-0.1,1.2-0.7,1.6-1.8"/>
	<line class="st39" x1="314.5" y1="144.2" x2="315.1" y2="142.1"/>
	<line class="st39" x1="307.7" y1="141" x2="308" y2="142.1"/>
	<polyline class="st39" points="306.9,148.3 307.6,148.8 307.6,148.9 308.4,149.4 	"/>
	<line class="st39" x1="308.6" y1="144.2" x2="309.8" y2="148.3"/>
	<line class="st39" x1="303.1" y1="145.7" x2="302.1" y2="145.1"/>
	<line class="st39" x1="303.1" y1="145.7" x2="304" y2="146.4"/>
	<line class="st39" x1="308" y1="142.1" x2="308.6" y2="144.2"/>
	<line class="st39" x1="306.9" y1="148.3" x2="304" y2="146.4"/>
	<line class="st39" x1="299.7" y1="152.4" x2="300.9" y2="152.4"/>
	<line class="st39" x1="302" y1="152.5" x2="303.7" y2="152.5"/>
	<line class="st39" x1="303.7" y1="157.6" x2="304.4" y2="156.9"/>
	<line class="st39" x1="300.9" y1="152.4" x2="302" y2="152.5"/>
	<path class="st39" d="M305.5,152.6l0.9,0c0.3,0,0.6,0,0.9,0"/>
	<path class="st39" d="M307.3,152.6c1.1-0.1,1.8-0.4,2.2-1l0-0.1l0-0.1c0.1-0.7-0.3-1.4-1.1-2.1"/>
	<path class="st36" d="M310.5,151.2c0.3-0.3,0.6-0.4,1-0.4c0.4,0,0.7,0.1,1,0.4c0.3,0.3,0.4,0.6,0.4,1c0,0.4-0.1,0.8-0.4,1
		c-0.3,0.3-0.6,0.4-1,0.4c-0.4,0-0.8-0.1-1-0.4c-0.3-0.3-0.4-0.6-0.4-1C310.1,151.8,310.2,151.5,310.5,151.2L310.5,151.2z"/>
	<path class="st39" d="M310.6,156.3c0.3-1.1,0.2-1.9-0.3-2.4l-0.1-0.1l-0.1,0c-0.6-0.3-1.4-0.2-2.3,0.4"/>
	<path class="st39" d="M309.2,160.4l1.2-3.2c0.1-0.3,0.2-0.6,0.3-0.9"/>
	<line class="st39" x1="306.2" y1="155.6" x2="306.5" y2="155.3"/>
	<polyline class="st39" points="307.9,154.3 307.1,154.9 307.1,154.9 306.5,155.3 	"/>
	<line class="st39" x1="308.4" y1="162.4" x2="309.2" y2="160.4"/>
	<line class="st39" x1="308" y1="163.6" x2="308.4" y2="162.4"/>
	<line class="st39" x1="302.7" y1="158.3" x2="301.8" y2="159"/>
	<line class="st39" x1="303.7" y1="152.5" x2="305.5" y2="152.6"/>
	<line class="st39" x1="303.7" y1="157.6" x2="302.7" y2="158.3"/>
	<line class="st39" x1="306.2" y1="155.6" x2="304.4" y2="156.9"/>
	<path class="st39" d="M314.7,149.4c-0.9,0.7-1.3,1.4-1.2,2.1l0,0.1l0,0.1c0.3,0.6,1,1,2.2,1"/>
	<path class="st39" d="M315.2,154.3c-1-0.7-1.8-0.8-2.4-0.5l-0.1,0l0,0.1c-0.5,0.5-0.6,1.3-0.3,2.4"/>
	<line class="st39" x1="320.1" y1="152.5" x2="322.2" y2="152.4"/>
	<polyline class="st39" points="315.7,152.7 316.6,152.6 316.6,152.6 320.1,152.5 	"/>
	<line class="st39" x1="321.3" y1="159" x2="320.3" y2="158.3"/>
	<line class="st39" x1="314.6" y1="162.5" x2="315" y2="163.6"/>
	<line class="st39" x1="313.9" y1="160.5" x2="314.6" y2="162.5"/>
	<line class="st39" x1="320.3" y1="158.3" x2="318.6" y2="157"/>
	<line class="st39" x1="318.6" y1="157" x2="315.2" y2="154.3"/>
	<line class="st39" x1="312.4" y1="156.3" x2="313.9" y2="160.5"/>
	<line class="st36" x1="289.2" y1="155" x2="289.3" y2="153"/>
	<line class="st36" x1="289.3" y1="153" x2="289.4" y2="152"/>
	<line class="st36" x1="289" y1="158.2" x2="289.2" y2="155"/>
	<path class="st36" d="M293.3,123c11.9,0.7,21.6,1.8,29.2,3.4c0.7,0.2,1.3,0.5,2,1"/>
	<path class="st37" d="M324.6,127.4l0.6,0.5c0.5,0.4,0.9,0.8,1.4,1.3c1.6,1.2,3,2,4.4,2.6l0.9,0.5l0.1,0.1l2.9,1.6l0.1,0
		c2-0.1,4.1,0,6.6,0.2c1.9,0.2,4,0.4,6.2,0.7c0.8,0.2,1.3-0.1,1.4-0.8l0.2-1.5l0-0.1c-0.7-0.2-1.5-0.4-2.4-0.6l-3.6-1.2
		c-0.6-0.2-1.2-0.4-1.8-0.6c-4.2-1.3-8.3-2.1-12.4-2.4L324.6,127.4"/>
	<path class="st36" d="M351.7,138.4c-0.2-0.1-0.6-0.3-0.9-0.4l-10.2-2.3c-2.1-0.3-3.7-0.7-4.7-1.2L335,134"/>
	<path class="st36" d="M336.3,152.3c-0.1-0.2-0.1-0.4-0.1-0.7l0-0.3l0.4-10.3l0.1-3l6.1,2.6l0.4,0.2l1.1,0.5
		c1.6,0.5,2.2,1.3,1.8,2.3l-2.2,6.1c-0.4,1-0.9,1.8-1.7,2.4c-0.4,0.3-0.8,0.5-1.3,0.6c-1.9,0.3-3.3,0.4-4.1,0.3
		c-0.3-0.1-0.5-0.3-0.6-0.5L336.3,152.3z"/>
	<path class="st37" d="M147.5,117c1.2-0.1,3.3,0,6.1,0.5c0.7,0,1.2,0.5,1.4,1.6l-9.7,0.3h-0.2l2.2-2.3L147.5,117L147.5,117
		c0.9-0.7,1.4-1.7,1.4-3.2l0-0.1l0-0.5l3.2,0.7c6.2,1.5,11,3.7,14.6,6.6l-0.2,0.2l-0.8,1l-6,0.2l-11.1,0.3l-3.2,0.1l-1-1.8l0.8-0.8"
		/>
	<path class="st36" d="M174.7,120.5L174.7,120.5c-0.8,0.7-1.1,1.5-1.1,2.4c0,0.9,0.4,1.8,1.1,2.4c0.8,0.7,1.7,1,2.7,1
		c1.1,0,2-0.3,2.7-1c0.8-0.7,1.1-1.5,1.1-2.4c0-0.8-0.2-1.4-0.7-2"/>
	<path class="st36" d="M180.6,121l-0.4-0.4c-0.8-0.7-1.7-1-2.7-1c-1.1,0-2,0.3-2.7,1"/>
	<line class="st39" x1="322.2" y1="152.4" x2="323.4" y2="152.4"/>
	<path class="st36" d="M191.9,124.4c-0.1,0.7,0.3,1.4,0.9,1.7c0.5,0.3,1.1,0.5,1.8,0.6l1.2,0.2c0.4,0,0.8,0,1.2,0l0.7-0.1
		c0.3,0,0.6-0.1,0.8-0.2c0.8-0.2,1.4-1,1.4-1.9l0,0c0-0.6-0.4-1.2-1-1.5c-0.4-0.2-0.9-0.4-1.5-0.5c-0.1,0-0.1,0-0.2,0l-1.3-0.2
		c-0.1,0-0.2,0-0.3,0l-0.9,0c0,0-0.1,0-0.1,0c-0.4,0-0.8,0.1-1.1,0.2C192.5,123,191.9,123.6,191.9,124.4L191.9,124.4z"/>
	<path class="st36" d="M202.6,145.4c-1.3-1.5-2.8-3.2-4.3-5.2L198,140c-1.5-1.8-3-3.6-4.6-5.5"/>
	<path class="st36" d="M193.4,134.5c-2.2-2.7-4.4-5.7-6.6-8.8c-1.1-1.8-1.5-3.2-1.4-4.4"/>
	<line class="st36" x1="207.5" y1="150.5" x2="206.8" y2="149.9"/>
	<path class="st36" d="M235.4,153.7l-18.6-0.5l-4.1-0.3c-0.9-0.1-1.8-0.3-2.6-0.6c-0.5-0.2-0.9-0.4-1.3-0.7l-1.4-1.2"/>
	<path class="st36" d="M206.8,149.9c-1.2-1.1-2.6-2.6-4.3-4.5"/>
	<path class="st36" d="M240.8,127.6c-0.1,0.7,0.3,1.4,0.9,1.7c0.5,0.3,1.1,0.5,1.8,0.6l1.2,0.2c0.4,0.1,0.8,0.1,1.2,0l0.7-0.1
		c0.3,0,0.6-0.1,0.8-0.2c0.8-0.2,1.4-1,1.4-1.9l0,0c0-0.6-0.4-1.2-1-1.5c-0.4-0.2-0.9-0.4-1.5-0.5c-0.1,0-0.1,0-0.2,0l-1.3-0.2
		c-0.1,0-0.2,0-0.3,0l-0.9,0c-0.5,0-0.9,0.1-1.2,0.2C241.4,126.2,240.8,126.8,240.8,127.6L240.8,127.6z"/>
	<path class="st36" d="M235.7,124.5c0.8,7.1,1,13.9,0.8,20.1c0,1.4-0.1,2.9-0.3,4.4"/>
	<line class="st36" x1="236.2" y1="149.1" x2="236" y2="150.6"/>
	<path class="st36" d="M236,150.6c-0.1,1-0.3,2.1-0.6,3.1"/>
	<path class="st36" d="M235.7,124.5c-0.2-1.6-0.4-3.2-0.6-4.9"/>
	<line class="st36" x1="289.2" y1="155" x2="235.4" y2="153.7"/>
	<path class="st39" d="M181,152c0-0.4,0.1-0.8,0.4-1c0.3-0.3,0.6-0.4,1-0.4c0.4,0,0.7,0.1,1,0.4c0.3,0.3,0.4,0.6,0.4,1
		c0,0.4-0.1,0.8-0.4,1c-0.3,0.3-0.6,0.4-1,0.4c-0.4,0-0.8-0.1-1-0.4C181.2,152.8,181,152.4,181,152L181,152z"/>
	<line class="st39" x1="191.9" y1="144.9" x2="191" y2="145.6"/>
	<line class="st39" x1="189.2" y1="146.8" x2="191" y2="145.6"/>
	<path class="st39" d="M185.6,149.2c0.2-0.2,0.5-0.3,0.7-0.5l2.8-1.9"/>
	<polyline class="st39" points="184.2,148.2 184.4,147.3 184.4,147.3 185.4,144 	"/>
	<path class="st39" d="M180.7,148.2c0.4,1.1,0.9,1.6,1.6,1.7l0.1,0l0.1,0c0.7-0.1,1.2-0.7,1.6-1.8"/>
	<line class="st39" x1="185.4" y1="144" x2="186.4" y2="140.5"/>
	<polyline class="st39" points="177.8,148.2 178.6,148.7 178.6,148.7 179.3,149.2 	"/>
	<line class="st39" x1="179.5" y1="144" x2="180.7" y2="148.2"/>
	<line class="st39" x1="174" y1="145.6" x2="173" y2="144.9"/>
	<line class="st39" x1="174" y1="145.6" x2="174.9" y2="146.2"/>
	<line class="st39" x1="178.5" y1="140.5" x2="179.5" y2="144"/>
	<line class="st39" x1="177.8" y1="148.2" x2="174.9" y2="146.2"/>
	<line class="st39" x1="170.6" y1="152.2" x2="171.8" y2="152.2"/>
	<line class="st39" x1="173" y1="152.3" x2="174.6" y2="152.4"/>
	<line class="st39" x1="174.6" y1="157.4" x2="175.4" y2="156.8"/>
	<line class="st39" x1="171.8" y1="152.2" x2="173" y2="152.3"/>
	<path class="st39" d="M176.5,152.4l0.9,0c0.3,0,0.6,0,0.9,0"/>
	<path class="st39" d="M178.3,152.4c1.1-0.1,1.8-0.4,2.2-1l0-0.1l0-0.1c0.1-0.7-0.3-1.4-1.1-2.1"/>
	<path class="st36" d="M181.4,151c0.3-0.3,0.6-0.4,1-0.4c0.4,0,0.7,0.1,1,0.4c0.3,0.3,0.4,0.6,0.4,1c0,0.4-0.1,0.8-0.4,1
		c-0.3,0.3-0.6,0.4-1,0.4c-0.4,0-0.8-0.1-1-0.4c-0.3-0.3-0.4-0.6-0.4-1C181,151.6,181.2,151.3,181.4,151L181.4,151z"/>
	<path class="st39" d="M181.6,156.1c0.3-1.1,0.2-1.9-0.3-2.4l-0.1-0.1l-0.1,0c-0.6-0.3-1.4-0.2-2.3,0.4"/>
	<path class="st39" d="M180.1,160.2l1.2-3.2c0.1-0.3,0.2-0.6,0.3-0.9"/>
	<line class="st39" x1="177.1" y1="155.4" x2="177.5" y2="155.1"/>
	<polyline class="st39" points="178.8,154.1 178.1,154.7 178.1,154.7 177.5,155.1 	"/>
	<line class="st39" x1="179.4" y1="162.3" x2="180.1" y2="160.2"/>
	<line class="st39" x1="179" y1="163.4" x2="179.4" y2="162.3"/>
	<line class="st39" x1="173.7" y1="158.1" x2="172.7" y2="158.8"/>
	<line class="st39" x1="174.6" y1="152.4" x2="176.5" y2="152.4"/>
	<line class="st39" x1="174.6" y1="157.4" x2="173.7" y2="158.1"/>
	<line class="st39" x1="177.1" y1="155.4" x2="175.4" y2="156.8"/>
	<path class="st39" d="M185.6,149.2c-0.9,0.7-1.3,1.4-1.2,2.1l0,0.1l0,0.1c0.3,0.6,1,1,2.2,1"/>
	<path class="st39" d="M186.1,154.2c-1-0.7-1.8-0.8-2.4-0.5l-0.1,0l0,0.1c-0.5,0.5-0.6,1.3-0.3,2.4"/>
	<line class="st39" x1="191" y1="152.3" x2="193.1" y2="152.3"/>
	<polyline class="st39" points="186.7,152.5 187.6,152.5 187.6,152.4 191,152.3 	"/>
	<line class="st39" x1="192.2" y1="158.9" x2="191.2" y2="158.1"/>
	<line class="st39" x1="185.5" y1="162.3" x2="185.9" y2="163.4"/>
	<line class="st39" x1="184.8" y1="160.3" x2="185.5" y2="162.3"/>
	<line class="st39" x1="191.2" y1="158.1" x2="189.6" y2="156.8"/>
	<line class="st39" x1="189.6" y1="156.8" x2="186.1" y2="154.2"/>
	<line class="st39" x1="183.3" y1="156.2" x2="184.8" y2="160.3"/>
	<line class="st39" x1="193.1" y1="152.3" x2="194.3" y2="152.2"/>
	<path class="st36" d="M289.2,115.5"/>
	<path class="st40" d="M342,144.3c-1.5,0.5-2.2,2.4-1.7,3.9c0.1,0.2,0.2,0.5,0.3,0.7c0.1,0.2,0.2,0.4,0.3,0.5
		c0.2,0.1,0.3-0.1,0.5-0.2c0.4-0.4,0.7-0.9,1-1.4c0.1-0.2,0.2-0.4,0.3-0.6c0.2-0.5,0.4-1.1,0.5-1.7c0.1-0.4,0.1-0.9-0.2-1.2
		C342.8,144.1,342.3,144.2,342,144.3z"/>
	<line class="st39" x1="241.6" y1="113.6" x2="245.9" y2="116.7"/>
	<line class="st39" x1="240.8" y1="107.6" x2="253.8" y2="117.7"/>
	<line class="st39" x1="204.3" y1="106.5" x2="210.1" y2="111"/>
	<line class="st39" x1="199.6" y1="107.2" x2="203.9" y2="110.7"/>
	<path class="st36" d="M344.8,132.8l-0.4,0.9c-0.9-0.1-1.8-0.2-2.7-0.2c-0.9-0.1-1.9-0.1-2.8-0.1l-0.3-2.3c-0.1-0.5-0.1-0.7,0.2-0.8
		c1,0.2,2,0.5,2.9,0.8c0.8,0.3,1.6,0.5,2.4,0.8C344.8,132.2,345,132.5,344.8,132.8L344.8,132.8z"/>
	<path class="st37" d="M339.1,133.4c1,0,1.7,0,2.7,0.1c0.9,0,1.6,0.1,2.5,0.2l0.2,0l0.4-0.9c0.2-0.3,0-0.6-0.7-0.9
		c-0.8-0.3-1.6-0.6-2.4-0.8c-0.9-0.3-1.9-0.5-2.9-0.8c-0.3,0.1-0.4,0.4-0.2,0.8l0.3,2.3L339.1,133.4z"/>
	<path class="st33" d="M115.1,123.5c3.6,0,7.5-0.3,10.9,1.2c2.6,1.2,4.4,3.5,5.3,6.4c0.1,0.5,0.3,0.9,0.4,1.4
		c0.7,3.4,0.6,6.9,1.3,10.3c0.5,2.7,1.6,5.6,3.6,7.4c1.9,1.7,4.5,1.8,6.7,0.6c2.5-1.3,3.6-4.3,4.1-7.2c0.6-2.7,0.9-5.4,1.7-8
		c1.9-5.9,5.8-10.9,11.5-12.1c4.7-1,12.3-0.8,17-0.8"/>
	<polygon class="st41" points="111.5,168.9 111.5,110.2 97.2,113 97.2,168.9 	"/>
	<path class="st41" d="M110.5,104.8c-1-1.9-2.5-3.2-4.4-3.5c-1.9-0.4-3.8,0.2-5.4,1.6c-1.6,1.4-2.8,3.5-3.2,5.9
		c-0.5,2.4-0.2,4.8,0.8,6.7c1,1.9,2.5,3.2,4.4,3.6c1.8,0.4,3.8-0.2,5.4-1.7c1.6-1.4,2.8-3.5,3.3-5.9
		C111.7,109.1,111.5,106.7,110.5,104.8"/>
	<path class="st42" d="M109.1,105.7c-0.8-1.5-2-2.5-3.5-2.8c-1.5-0.3-2.9,0.3-4.2,1.4c-1.3,1.2-2.1,2.9-2.5,4.8
		c-0.3,1.9-0.1,3.9,0.7,5.4c0.8,1.6,2,2.6,3.4,2.8c1.4,0.3,2.9-0.3,4.2-1.5c1.3-1.2,2.1-2.9,2.5-4.9
		C110.1,109.2,109.9,107.3,109.1,105.7"/>
	<path class="st43" d="M97.3,120.3c0.6,0.1,1.2,0.4,1.7,0.9c0.6,0.6,1,1.4,1,2.2c0,0.9-0.4,1.7-1,2.3c-0.5,0.4-1,0.7-1.6,0.9"/>
	<path class="st43" d="M111.3,120.2c-0.6,0.1-1.2,0.4-1.7,0.9c-0.6,0.6-1,1.4-1,2.2c0,0.9,0.4,1.7,1,2.3c0.5,0.4,1,0.7,1.6,0.9"/>
	<line class="st44" x1="111.5" y1="118.2" x2="111.5" y2="133"/>
	<line class="st44" x1="97.2" y1="133" x2="97.2" y2="118.5"/>
	<path class="st45" d="M107.7,116.6c1.4-1.3,2.5-3.3,2.9-5.5c0.4-2.2,0.1-4.3-0.8-6"/>
	<path class="st45" d="M100,104.7c-0.9,1.2-1.6,2.7-1.8,4.3c-0.4,2.2-0.1,4.3,0.8,6.1c0.2,0.4,0.5,0.8,0.8,1.2"/>
	<line class="st45" x1="104.4" y1="96.8" x2="104.4" y2="98.8"/>
	<line class="st45" x1="94.9" y1="108.3" x2="92.9" y2="108.3"/>
	<line class="st45" x1="115.9" y1="108.3" x2="113.8" y2="108.3"/>
	<line class="st45" x1="112.5" y1="100.1" x2="111.1" y2="101.6"/>
	<line class="st45" x1="97.7" y1="101.6" x2="96.3" y2="100.1"/>
	<line class="st45" x1="115.1" y1="103.9" x2="113.2" y2="104.7"/>
	<line class="st45" x1="100.9" y1="99.5" x2="100.1" y2="97.6"/>
	<line class="st45" x1="108.1" y1="99.5" x2="108.9" y2="97.7"/>
	<line class="st45" x1="95.9" y1="104.6" x2="94" y2="103.8"/>
	<line class="st45" x1="94.9" y1="112.7" x2="92.9" y2="112.7"/>
	<line class="st45" x1="115.9" y1="112.7" x2="113.8" y2="112.7"/>
	<path class="st46" d="M115.1,124.6h-3.5c-0.6,0-1.2-0.5-1.2-1.2v-0.3c0-0.6,0.5-1.2,1.2-1.2h3.5c0.6,0,1.2,0.5,1.2,1.2v0.3
		C116.2,124.1,115.7,124.6,115.1,124.6z"/>
	<g class="st47">
		<g>
			<line class="st48" x1="-131.1" y1="94.3" x2="-20.4" y2="94.1"/>
			<line class="st48" x1="-131.1" y1="86.2" x2="-20.5" y2="86"/>
			<line class="st48" x1="-117.4" y1="93.9" x2="-117.4" y2="86.5"/>
			<line class="st48" x1="-103.3" y1="93.9" x2="-103.3" y2="86.5"/>
			<line class="st48" x1="-89.8" y1="93.9" x2="-89.8" y2="86.5"/>
			<line class="st48" x1="-75.8" y1="93.9" x2="-75.8" y2="86.5"/>
			<line class="st48" x1="-62.1" y1="93.9" x2="-62.1" y2="86.5"/>
			<line class="st48" x1="-48" y1="93.9" x2="-48" y2="86.5"/>
			<line class="st48" x1="-34" y1="93.9" x2="-34" y2="86.5"/>
			<line class="st48" x1="-130.9" y1="102.7" x2="-20.5" y2="102.5"/>
			<line class="st48" x1="-124.3" y1="102.3" x2="-124.3" y2="94.9"/>
			<line class="st48" x1="-110.3" y1="102.3" x2="-110.3" y2="94.9"/>
			<line class="st48" x1="-96.8" y1="102.3" x2="-96.8" y2="94.9"/>
			<line class="st48" x1="-82.7" y1="102.3" x2="-82.7" y2="94.9"/>
			<line class="st48" x1="-69" y1="102.3" x2="-69" y2="94.9"/>
			<line class="st48" x1="-55" y1="102.3" x2="-55" y2="94.9"/>
			<line class="st48" x1="-41" y1="102.3" x2="-41" y2="94.9"/>
			<line class="st48" x1="-26.4" y1="102.3" x2="-26.4" y2="94.9"/>
			<line class="st48" x1="-131" y1="111.1" x2="-20.4" y2="110.9"/>
			<line class="st48" x1="-117.3" y1="110.7" x2="-117.3" y2="103.3"/>
			<line class="st48" x1="-103.2" y1="110.7" x2="-103.2" y2="103.3"/>
			<line class="st48" x1="-89.7" y1="110.7" x2="-89.7" y2="103.3"/>
			<line class="st48" x1="-75.7" y1="110.7" x2="-75.7" y2="103.3"/>
			<line class="st48" x1="-62" y1="110.7" x2="-62" y2="103.3"/>
			<line class="st48" x1="-47.9" y1="110.7" x2="-47.9" y2="103.3"/>
			<line class="st48" x1="-33.9" y1="110.7" x2="-33.9" y2="103.3"/>
			<line class="st48" x1="-130.8" y1="119.5" x2="-20.4" y2="119.3"/>
			<line class="st48" x1="-124.3" y1="119.1" x2="-124.3" y2="111.7"/>
			<line class="st48" x1="-110.2" y1="119.1" x2="-110.2" y2="111.7"/>
			<line class="st48" x1="-96.7" y1="119.1" x2="-96.7" y2="111.7"/>
			<line class="st48" x1="-82.7" y1="119.1" x2="-82.7" y2="111.7"/>
			<line class="st48" x1="-69" y1="119.1" x2="-69" y2="111.7"/>
			<line class="st48" x1="-54.9" y1="119.1" x2="-54.9" y2="111.7"/>
			<line class="st48" x1="-40.9" y1="119.1" x2="-40.9" y2="111.7"/>
			<line class="st48" x1="-26.4" y1="119.1" x2="-26.4" y2="111.7"/>
			<line class="st48" x1="-130.5" y1="127.5" x2="-19.9" y2="127.3"/>
			<line class="st48" x1="-116.8" y1="127.1" x2="-116.8" y2="119.7"/>
			<line class="st48" x1="-102.7" y1="127.1" x2="-102.7" y2="119.7"/>
			<line class="st48" x1="-89.2" y1="127.1" x2="-89.2" y2="119.7"/>
			<line class="st48" x1="-75.2" y1="127.1" x2="-75.2" y2="119.7"/>
			<line class="st48" x1="-61.5" y1="127.1" x2="-61.5" y2="119.7"/>
			<line class="st48" x1="-47.4" y1="127.1" x2="-47.4" y2="119.7"/>
			<line class="st48" x1="-33.4" y1="127.1" x2="-33.4" y2="119.7"/>
			<line class="st48" x1="-130.3" y1="135.8" x2="-19.9" y2="135.6"/>
			<line class="st48" x1="-123.8" y1="135.5" x2="-123.8" y2="128.1"/>
			<line class="st48" x1="-109.7" y1="135.5" x2="-109.7" y2="128.1"/>
			<line class="st48" x1="-96.2" y1="135.5" x2="-96.2" y2="128.1"/>
			<line class="st48" x1="-82.2" y1="135.5" x2="-82.2" y2="128.1"/>
			<line class="st48" x1="-68.5" y1="135.5" x2="-68.5" y2="128.1"/>
			<line class="st48" x1="-54.4" y1="135.5" x2="-54.4" y2="128.1"/>
			<line class="st48" x1="-40.4" y1="135.5" x2="-40.4" y2="128.1"/>
			<line class="st48" x1="-25.9" y1="135.5" x2="-25.9" y2="128.1"/>
			<line class="st48" x1="-130.4" y1="144.3" x2="-19.8" y2="144.1"/>
			<line class="st48" x1="-116.7" y1="143.9" x2="-116.7" y2="136.5"/>
			<line class="st48" x1="-102.6" y1="143.9" x2="-102.6" y2="136.5"/>
			<line class="st48" x1="-89.1" y1="143.9" x2="-89.1" y2="136.5"/>
			<line class="st48" x1="-75.1" y1="143.9" x2="-75.1" y2="136.5"/>
			<line class="st48" x1="-61.4" y1="143.9" x2="-61.4" y2="136.5"/>
			<line class="st48" x1="-47.3" y1="143.9" x2="-47.3" y2="136.5"/>
			<line class="st48" x1="-33.3" y1="143.9" x2="-33.3" y2="136.5"/>
			<line class="st48" x1="-130.2" y1="152.6" x2="-19.8" y2="152.4"/>
			<line class="st48" x1="-123.7" y1="152.3" x2="-123.7" y2="144.9"/>
			<line class="st48" x1="-109.6" y1="152.3" x2="-109.6" y2="144.9"/>
			<line class="st48" x1="-96.1" y1="152.3" x2="-96.1" y2="144.9"/>
			<line class="st48" x1="-82.1" y1="152.3" x2="-82.1" y2="144.9"/>
			<line class="st48" x1="-68.4" y1="152.3" x2="-68.4" y2="144.9"/>
			<line class="st48" x1="-54.3" y1="152.3" x2="-54.3" y2="144.9"/>
			<line class="st48" x1="-40.3" y1="152.3" x2="-40.3" y2="144.9"/>
			<line class="st48" x1="-25.8" y1="152.3" x2="-25.8" y2="144.9"/>
			<line class="st48" x1="-130.5" y1="160.3" x2="-19.9" y2="160.1"/>
			<line class="st48" x1="-116.8" y1="159.9" x2="-116.8" y2="152.5"/>
			<line class="st48" x1="-102.7" y1="159.9" x2="-102.7" y2="152.5"/>
			<line class="st48" x1="-89.2" y1="159.9" x2="-89.2" y2="152.5"/>
			<line class="st48" x1="-75.2" y1="159.9" x2="-75.2" y2="152.5"/>
			<line class="st48" x1="-61.5" y1="159.9" x2="-61.5" y2="152.5"/>
			<line class="st48" x1="-47.4" y1="159.9" x2="-47.4" y2="152.5"/>
			<line class="st48" x1="-33.4" y1="159.9" x2="-33.4" y2="152.5"/>
			<line class="st48" x1="-130.3" y1="168.7" x2="-19.9" y2="168.5"/>
			<line class="st48" x1="-123.8" y1="168.3" x2="-123.8" y2="160.9"/>
			<line class="st48" x1="-109.7" y1="168.3" x2="-109.7" y2="160.9"/>
			<line class="st48" x1="-96.2" y1="168.3" x2="-96.2" y2="160.9"/>
			<line class="st48" x1="-82.2" y1="168.3" x2="-82.2" y2="160.9"/>
			<line class="st48" x1="-68.5" y1="168.3" x2="-68.5" y2="160.9"/>
			<line class="st48" x1="-54.4" y1="168.3" x2="-54.4" y2="160.9"/>
			<line class="st48" x1="-40.4" y1="168.3" x2="-40.4" y2="160.9"/>
			<line class="st48" x1="-25.9" y1="168.3" x2="-25.9" y2="160.9"/>
			<line class="st48" x1="-20.4" y1="94.1" x2="70.3" y2="93.9"/>
			<line class="st48" x1="-20.5" y1="86" x2="70.3" y2="85.8"/>
			<line class="st48" x1="-5.1" y1="93.8" x2="-5.1" y2="86.4"/>
			<line class="st48" x1="9" y1="93.8" x2="9" y2="86.4"/>
			<line class="st48" x1="22.5" y1="93.8" x2="22.5" y2="86.4"/>
			<line class="st48" x1="36.5" y1="93.8" x2="36.5" y2="86.4"/>
			<line class="st48" x1="50.2" y1="93.8" x2="50.2" y2="86.4"/>
			<line class="st48" x1="64.3" y1="93.8" x2="64.3" y2="86.4"/>
			<line class="st48" x1="-20.5" y1="102.5" x2="70.3" y2="102.3"/>
			<line class="st48" x1="-12.1" y1="102.1" x2="-12.1" y2="94.7"/>
			<line class="st48" x1="2" y1="102.1" x2="2" y2="94.7"/>
			<line class="st48" x1="15.5" y1="102.1" x2="15.5" y2="94.7"/>
			<line class="st48" x1="29.5" y1="102.1" x2="29.5" y2="94.7"/>
			<line class="st48" x1="43.2" y1="102.1" x2="43.2" y2="94.7"/>
			<line class="st48" x1="57.3" y1="102.1" x2="57.3" y2="94.7"/>
			<line class="st48" x1="-20.4" y1="110.9" x2="70.4" y2="110.7"/>
			<line class="st48" x1="-5" y1="110.6" x2="-5" y2="103.2"/>
			<line class="st48" x1="9" y1="110.6" x2="9" y2="103.2"/>
			<line class="st48" x1="22.6" y1="110.6" x2="22.6" y2="103.2"/>
			<line class="st48" x1="36.6" y1="110.6" x2="36.6" y2="103.2"/>
			<line class="st48" x1="50.3" y1="110.6" x2="50.3" y2="103.2"/>
			<line class="st48" x1="64.3" y1="110.6" x2="64.3" y2="103.2"/>
			<line class="st48" x1="-20.4" y1="119.3" x2="70.3" y2="119.1"/>
			<line class="st48" x1="-12" y1="118.9" x2="-12" y2="111.5"/>
			<line class="st48" x1="2.1" y1="118.9" x2="2.1" y2="111.5"/>
			<line class="st48" x1="15.6" y1="118.9" x2="15.6" y2="111.5"/>
			<line class="st48" x1="29.6" y1="118.9" x2="29.6" y2="111.5"/>
			<line class="st48" x1="43.3" y1="118.9" x2="43.3" y2="111.5"/>
			<line class="st48" x1="57.4" y1="118.9" x2="57.4" y2="111.5"/>
			<line class="st48" x1="-20" y1="127.3" x2="70.8" y2="127.1"/>
			<line class="st48" x1="-4.5" y1="127" x2="-4.5" y2="119.6"/>
			<line class="st48" x1="9.5" y1="127" x2="9.5" y2="119.6"/>
			<line class="st48" x1="23.1" y1="127" x2="23.1" y2="119.6"/>
			<line class="st48" x1="37.1" y1="127" x2="37.1" y2="119.6"/>
			<line class="st48" x1="50.8" y1="127" x2="50.8" y2="119.6"/>
			<line class="st48" x1="64.8" y1="127" x2="64.8" y2="119.6"/>
			<line class="st48" x1="-20" y1="135.6" x2="70.7" y2="135.5"/>
			<line class="st48" x1="-11.5" y1="135.3" x2="-11.5" y2="127.9"/>
			<line class="st48" x1="2.6" y1="135.3" x2="2.6" y2="127.9"/>
			<line class="st48" x1="16.1" y1="135.3" x2="16.1" y2="127.9"/>
			<line class="st48" x1="30.1" y1="135.3" x2="30.1" y2="127.9"/>
			<line class="st48" x1="43.8" y1="135.3" x2="43.8" y2="127.9"/>
			<line class="st48" x1="57.9" y1="135.3" x2="57.9" y2="127.9"/>
			<line class="st48" x1="-19.9" y1="144.1" x2="70.8" y2="143.9"/>
			<line class="st48" x1="-4.4" y1="143.8" x2="-4.4" y2="136.4"/>
			<line class="st48" x1="9.6" y1="143.8" x2="9.6" y2="136.4"/>
			<line class="st48" x1="23.2" y1="143.8" x2="23.2" y2="136.4"/>
			<line class="st48" x1="37.2" y1="143.8" x2="37.2" y2="136.4"/>
			<line class="st48" x1="50.9" y1="143.8" x2="50.9" y2="136.4"/>
			<line class="st48" x1="64.9" y1="143.8" x2="64.9" y2="136.4"/>
			<line class="st48" x1="-19.9" y1="152.4" x2="70.8" y2="152.3"/>
			<line class="st48" x1="-11.4" y1="152.1" x2="-11.4" y2="144.7"/>
			<line class="st48" x1="2.6" y1="152.1" x2="2.6" y2="144.7"/>
			<line class="st48" x1="16.2" y1="152.1" x2="16.2" y2="144.7"/>
			<line class="st48" x1="30.2" y1="152.1" x2="30.2" y2="144.7"/>
			<line class="st48" x1="43.9" y1="152.1" x2="43.9" y2="144.7"/>
			<line class="st48" x1="57.9" y1="152.1" x2="57.9" y2="144.7"/>
			<line class="st48" x1="-20" y1="160.1" x2="70.8" y2="159.9"/>
			<line class="st48" x1="-4.5" y1="159.8" x2="-4.5" y2="152.4"/>
			<line class="st48" x1="9.5" y1="159.8" x2="9.5" y2="152.4"/>
			<line class="st48" x1="23.1" y1="159.8" x2="23.1" y2="152.4"/>
			<line class="st48" x1="37.1" y1="159.8" x2="37.1" y2="152.4"/>
			<line class="st48" x1="50.8" y1="159.8" x2="50.8" y2="152.4"/>
			<line class="st48" x1="64.8" y1="159.8" x2="64.8" y2="152.4"/>
			<line class="st48" x1="-11.5" y1="168.2" x2="-11.5" y2="160.8"/>
			<line class="st48" x1="2.6" y1="168.2" x2="2.6" y2="160.8"/>
			<line class="st48" x1="16.1" y1="168.2" x2="16.1" y2="160.8"/>
			<line class="st48" x1="30.1" y1="168.2" x2="30.1" y2="160.8"/>
			<line class="st48" x1="43.8" y1="168.2" x2="43.8" y2="160.8"/>
			<line class="st48" x1="57.9" y1="168.2" x2="57.9" y2="160.8"/>
			<line class="st48" x1="-19.3" y1="93.7" x2="-19.3" y2="86.3"/>
			<line class="st48" x1="-19.2" y1="110.5" x2="-19.2" y2="103.1"/>
			<line class="st48" x1="-18.7" y1="126.9" x2="-18.7" y2="119.5"/>
			<line class="st48" x1="-18.6" y1="143.7" x2="-18.6" y2="136.3"/>
			<line class="st48" x1="-18.7" y1="159.7" x2="-18.7" y2="152.3"/>
		</g>
		<line class="st48" x1="-130.9" y1="11.8" x2="-20.3" y2="11.6"/>
		<line class="st48" x1="-130.9" y1="3.7" x2="-20.3" y2="3.5"/>
		<line class="st48" x1="-117.2" y1="11.4" x2="-117.2" y2="4"/>
		<line class="st48" x1="-103.1" y1="11.4" x2="-103.1" y2="4"/>
		<line class="st48" x1="-89.6" y1="11.4" x2="-89.6" y2="4"/>
		<line class="st48" x1="-75.6" y1="11.4" x2="-75.6" y2="4"/>
		<line class="st48" x1="-61.9" y1="11.4" x2="-61.9" y2="4"/>
		<line class="st48" x1="-47.8" y1="11.4" x2="-47.8" y2="4"/>
		<line class="st48" x1="-33.8" y1="11.4" x2="-33.8" y2="4"/>
		<line class="st48" x1="-130.7" y1="20.1" x2="-20.3" y2="19.9"/>
		<line class="st48" x1="-124.2" y1="19.8" x2="-124.2" y2="12.4"/>
		<line class="st48" x1="-110.1" y1="19.8" x2="-110.1" y2="12.4"/>
		<line class="st48" x1="-96.6" y1="19.8" x2="-96.6" y2="12.4"/>
		<line class="st48" x1="-82.6" y1="19.8" x2="-82.6" y2="12.4"/>
		<line class="st48" x1="-68.9" y1="19.8" x2="-68.9" y2="12.4"/>
		<line class="st48" x1="-54.8" y1="19.8" x2="-54.8" y2="12.4"/>
		<line class="st48" x1="-40.8" y1="19.8" x2="-40.8" y2="12.4"/>
		<line class="st48" x1="-26.3" y1="19.8" x2="-26.3" y2="12.4"/>
		<line class="st48" x1="-130.8" y1="28.6" x2="-20.2" y2="28.4"/>
		<line class="st48" x1="-117.1" y1="28.2" x2="-117.1" y2="20.8"/>
		<line class="st48" x1="-103" y1="28.2" x2="-103" y2="20.8"/>
		<line class="st48" x1="-89.5" y1="28.2" x2="-89.5" y2="20.8"/>
		<line class="st48" x1="-75.5" y1="28.2" x2="-75.5" y2="20.8"/>
		<line class="st48" x1="-61.8" y1="28.2" x2="-61.8" y2="20.8"/>
		<line class="st48" x1="-47.8" y1="28.2" x2="-47.8" y2="20.8"/>
		<line class="st48" x1="-33.7" y1="28.2" x2="-33.7" y2="20.8"/>
		<line class="st48" x1="-130.6" y1="36.9" x2="-20.2" y2="36.7"/>
		<line class="st48" x1="-124.1" y1="36.6" x2="-124.1" y2="29.2"/>
		<line class="st48" x1="-110" y1="36.6" x2="-110" y2="29.2"/>
		<line class="st48" x1="-96.5" y1="36.6" x2="-96.5" y2="29.2"/>
		<line class="st48" x1="-82.5" y1="36.6" x2="-82.5" y2="29.2"/>
		<line class="st48" x1="-68.8" y1="36.6" x2="-68.8" y2="29.2"/>
		<line class="st48" x1="-54.7" y1="36.6" x2="-54.7" y2="29.2"/>
		<line class="st48" x1="-40.7" y1="36.6" x2="-40.7" y2="29.2"/>
		<line class="st48" x1="-26.2" y1="36.6" x2="-26.2" y2="29.2"/>
		<line class="st48" x1="-130.3" y1="45" x2="-19.7" y2="44.8"/>
		<line class="st48" x1="-116.6" y1="44.6" x2="-116.6" y2="37.2"/>
		<line class="st48" x1="-102.6" y1="44.6" x2="-102.6" y2="37.2"/>
		<line class="st48" x1="-89" y1="44.6" x2="-89" y2="37.2"/>
		<line class="st48" x1="-75" y1="44.6" x2="-75" y2="37.2"/>
		<line class="st48" x1="-61.3" y1="44.6" x2="-61.3" y2="37.2"/>
		<line class="st48" x1="-47.3" y1="44.6" x2="-47.3" y2="37.2"/>
		<line class="st48" x1="-33.2" y1="44.6" x2="-33.2" y2="37.2"/>
		<line class="st48" x1="-130.1" y1="53.3" x2="-19.7" y2="53.1"/>
		<line class="st48" x1="-123.6" y1="53" x2="-123.6" y2="45.6"/>
		<line class="st48" x1="-109.5" y1="53" x2="-109.5" y2="45.6"/>
		<line class="st48" x1="-96" y1="53" x2="-96" y2="45.6"/>
		<line class="st48" x1="-82" y1="53" x2="-82" y2="45.6"/>
		<line class="st48" x1="-68.3" y1="53" x2="-68.3" y2="45.6"/>
		<line class="st48" x1="-54.2" y1="53" x2="-54.2" y2="45.6"/>
		<line class="st48" x1="-40.2" y1="53" x2="-40.2" y2="45.6"/>
		<line class="st48" x1="-25.7" y1="53" x2="-25.7" y2="45.6"/>
		<line class="st48" x1="-130.2" y1="61.8" x2="-19.6" y2="61.6"/>
		<line class="st48" x1="-116.5" y1="61.4" x2="-116.5" y2="54"/>
		<line class="st48" x1="-102.5" y1="61.4" x2="-102.5" y2="54"/>
		<line class="st48" x1="-88.9" y1="61.4" x2="-88.9" y2="54"/>
		<line class="st48" x1="-74.9" y1="61.4" x2="-74.9" y2="54"/>
		<line class="st48" x1="-61.2" y1="61.4" x2="-61.2" y2="54"/>
		<line class="st48" x1="-47.2" y1="61.4" x2="-47.2" y2="54"/>
		<line class="st48" x1="-33.2" y1="61.4" x2="-33.2" y2="54"/>
		<line class="st48" x1="-130.1" y1="70.1" x2="-19.6" y2="69.9"/>
		<line class="st48" x1="-123.5" y1="69.8" x2="-123.5" y2="62.4"/>
		<line class="st48" x1="-109.4" y1="69.8" x2="-109.4" y2="62.4"/>
		<line class="st48" x1="-95.9" y1="69.8" x2="-95.9" y2="62.4"/>
		<line class="st48" x1="-81.9" y1="69.8" x2="-81.9" y2="62.4"/>
		<line class="st48" x1="-68.2" y1="69.8" x2="-68.2" y2="62.4"/>
		<line class="st48" x1="-54.2" y1="69.8" x2="-54.2" y2="62.4"/>
		<line class="st48" x1="-40.1" y1="69.8" x2="-40.1" y2="62.4"/>
		<line class="st48" x1="-25.6" y1="69.8" x2="-25.6" y2="62.4"/>
		<line class="st48" x1="-130.3" y1="77.8" x2="-19.7" y2="77.6"/>
		<line class="st48" x1="-116.6" y1="77.4" x2="-116.6" y2="70"/>
		<line class="st48" x1="-102.6" y1="77.4" x2="-102.6" y2="70"/>
		<line class="st48" x1="-89" y1="77.4" x2="-89" y2="70"/>
		<line class="st48" x1="-75" y1="77.4" x2="-75" y2="70"/>
		<line class="st48" x1="-61.3" y1="77.4" x2="-61.3" y2="70"/>
		<line class="st48" x1="-47.3" y1="77.4" x2="-47.3" y2="70"/>
		<line class="st48" x1="-33.2" y1="77.4" x2="-33.2" y2="70"/>
		<line class="st48" x1="-123.6" y1="85.8" x2="-123.6" y2="78.4"/>
		<line class="st48" x1="-109.5" y1="85.8" x2="-109.5" y2="78.4"/>
		<line class="st48" x1="-96" y1="85.8" x2="-96" y2="78.4"/>
		<line class="st48" x1="-82" y1="85.8" x2="-82" y2="78.4"/>
		<line class="st48" x1="-68.3" y1="85.8" x2="-68.3" y2="78.4"/>
		<line class="st48" x1="-54.2" y1="85.8" x2="-54.2" y2="78.4"/>
		<line class="st48" x1="-40.2" y1="85.8" x2="-40.2" y2="78.4"/>
		<line class="st48" x1="-25.7" y1="85.8" x2="-25.7" y2="78.4"/>
		<line class="st48" x1="-20.3" y1="11.6" x2="70.5" y2="11.4"/>
		<line class="st48" x1="-20.3" y1="3.5" x2="70.4" y2="3.3"/>
		<line class="st48" x1="-4.9" y1="11.3" x2="-4.9" y2="3.9"/>
		<line class="st48" x1="9.1" y1="11.3" x2="9.1" y2="3.9"/>
		<line class="st48" x1="22.6" y1="11.3" x2="22.6" y2="3.9"/>
		<line class="st48" x1="36.7" y1="11.3" x2="36.7" y2="3.9"/>
		<line class="st48" x1="50.4" y1="11.3" x2="50.4" y2="3.9"/>
		<line class="st48" x1="64.4" y1="11.3" x2="64.4" y2="3.9"/>
		<line class="st48" x1="-20.3" y1="19.9" x2="70.4" y2="19.8"/>
		<line class="st48" x1="-11.9" y1="19.6" x2="-11.9" y2="12.2"/>
		<line class="st48" x1="2.1" y1="19.6" x2="2.1" y2="12.2"/>
		<line class="st48" x1="15.7" y1="19.6" x2="15.7" y2="12.2"/>
		<line class="st48" x1="29.7" y1="19.6" x2="29.7" y2="12.2"/>
		<line class="st48" x1="43.4" y1="19.6" x2="43.4" y2="12.2"/>
		<line class="st48" x1="57.4" y1="19.6" x2="57.4" y2="12.2"/>
		<line class="st48" x1="-20.2" y1="28.4" x2="70.5" y2="28.2"/>
		<line class="st48" x1="-4.8" y1="28.1" x2="-4.8" y2="20.6"/>
		<line class="st48" x1="9.2" y1="28.1" x2="9.2" y2="20.6"/>
		<line class="st48" x1="22.7" y1="28.1" x2="22.7" y2="20.6"/>
		<line class="st48" x1="36.8" y1="28.1" x2="36.8" y2="20.6"/>
		<line class="st48" x1="50.5" y1="28.1" x2="50.5" y2="20.6"/>
		<line class="st48" x1="64.5" y1="28.1" x2="64.5" y2="20.6"/>
		<line class="st48" x1="-20.2" y1="36.7" x2="70.5" y2="36.6"/>
		<line class="st48" x1="-11.8" y1="36.4" x2="-11.8" y2="29"/>
		<line class="st48" x1="2.2" y1="36.4" x2="2.2" y2="29"/>
		<line class="st48" x1="15.8" y1="36.4" x2="15.8" y2="29"/>
		<line class="st48" x1="29.8" y1="36.4" x2="29.8" y2="29"/>
		<line class="st48" x1="43.5" y1="36.4" x2="43.5" y2="29"/>
		<line class="st48" x1="57.5" y1="36.4" x2="57.5" y2="29"/>
		<line class="st48" x1="-19.8" y1="44.8" x2="70.9" y2="44.6"/>
		<line class="st48" x1="-4.3" y1="44.4" x2="-4.3" y2="37"/>
		<line class="st48" x1="9.7" y1="44.4" x2="9.7" y2="37"/>
		<line class="st48" x1="23.2" y1="44.4" x2="23.2" y2="37"/>
		<line class="st48" x1="37.3" y1="44.4" x2="37.3" y2="37"/>
		<line class="st48" x1="51" y1="44.4" x2="51" y2="37"/>
		<line class="st48" x1="65" y1="44.4" x2="65" y2="37"/>
		<line class="st48" x1="-19.8" y1="53.1" x2="70.9" y2="53"/>
		<line class="st48" x1="-11.3" y1="52.8" x2="-11.3" y2="45.4"/>
		<line class="st48" x1="2.7" y1="52.8" x2="2.7" y2="45.4"/>
		<line class="st48" x1="16.3" y1="52.8" x2="16.3" y2="45.4"/>
		<line class="st48" x1="30.3" y1="52.8" x2="30.3" y2="45.4"/>
		<line class="st48" x1="44" y1="52.8" x2="44" y2="45.4"/>
		<line class="st48" x1="58" y1="52.8" x2="58" y2="45.4"/>
		<line class="st48" x1="-19.7" y1="61.6" x2="71" y2="61.4"/>
		<line class="st48" x1="-4.2" y1="61.2" x2="-4.2" y2="53.8"/>
		<line class="st48" x1="9.8" y1="61.2" x2="9.8" y2="53.8"/>
		<line class="st48" x1="23.3" y1="61.2" x2="23.3" y2="53.8"/>
		<line class="st48" x1="37.4" y1="61.2" x2="37.4" y2="53.8"/>
		<line class="st48" x1="51.1" y1="61.2" x2="51.1" y2="53.8"/>
		<line class="st48" x1="65.1" y1="61.2" x2="65.1" y2="53.8"/>
		<line class="st48" x1="-19.7" y1="69.9" x2="71" y2="69.8"/>
		<line class="st48" x1="-11.2" y1="69.6" x2="-11.2" y2="62.2"/>
		<line class="st48" x1="2.8" y1="69.6" x2="2.8" y2="62.2"/>
		<line class="st48" x1="16.3" y1="69.6" x2="16.3" y2="62.2"/>
		<line class="st48" x1="30.4" y1="69.6" x2="30.4" y2="62.2"/>
		<line class="st48" x1="44.1" y1="69.6" x2="44.1" y2="62.2"/>
		<line class="st48" x1="58.1" y1="69.6" x2="58.1" y2="62.2"/>
		<line class="st48" x1="-19.8" y1="77.6" x2="70.9" y2="77.4"/>
		<line class="st48" x1="-4.3" y1="77.3" x2="-4.3" y2="69.9"/>
		<line class="st48" x1="9.7" y1="77.3" x2="9.7" y2="69.9"/>
		<line class="st48" x1="23.2" y1="77.3" x2="23.2" y2="69.9"/>
		<line class="st48" x1="37.3" y1="77.3" x2="37.3" y2="69.9"/>
		<line class="st48" x1="51" y1="77.3" x2="51" y2="69.9"/>
		<line class="st48" x1="65" y1="77.3" x2="65" y2="69.9"/>
		<line class="st48" x1="-11.3" y1="85.7" x2="-11.3" y2="78.3"/>
		<line class="st48" x1="2.7" y1="85.7" x2="2.7" y2="78.3"/>
		<line class="st48" x1="16.3" y1="85.7" x2="16.3" y2="78.3"/>
		<line class="st48" x1="30.3" y1="85.7" x2="30.3" y2="78.3"/>
		<line class="st48" x1="44" y1="85.7" x2="44" y2="78.3"/>
		<line class="st48" x1="58" y1="85.7" x2="58" y2="78.3"/>
		<line class="st48" x1="-19.1" y1="11.2" x2="-19.1" y2="3.8"/>
		<line class="st48" x1="-19" y1="28" x2="-19" y2="20.6"/>
		<line class="st48" x1="-18.5" y1="44.3" x2="-18.5" y2="36.9"/>
		<line class="st48" x1="-18.4" y1="61.1" x2="-18.4" y2="53.7"/>
		<line class="st48" x1="-18.5" y1="77.2" x2="-18.5" y2="69.8"/>
	</g>
	<circle class="st49" cx="23.2" cy="88" r="1.9"/>
	<polyline class="st50" points="71.5,87.3 71.5,168.7 -198.6,168.7 -198.6,87.3 	"/>
	<polyline class="st50" points="-198.6,77.4 -198.6,1.1 71.5,1.1 71.5,77.4 	"/>
	<path class="st51" d="M40.2,76.8h35.2c2.4,0,4.6,1.7,4.6,4.5v0.3c0,2.7-2.1,5.1-4.6,5.1H40.2"/>
	<path class="st52" d="M50.6,63.6h-230.1c-4.5,0-8.2-3.7-8.2-8.2V19.6c0-4.5,3.7-8.2,8.2-8.2H50.6c4.5,0,8.2,3.7,8.2,8.2v35.8
		C58.8,59.9,55.1,63.6,50.6,63.6z"/>
	<path class="st52" d="M50.1,156.9H-87.8c-4.5,0-8.2-3.7-8.2-8.2v-42.3c0-4.5,3.7-8.2,8.2-8.2H50.1c4.5,0,8.2,3.7,8.2,8.2v42.3
		C58.3,153.2,54.6,156.9,50.1,156.9z"/>
	<line class="st31" x1="48.2" y1="135" x2="34.8" y2="150.3"/>
	<line class="st31" x1="52.5" y1="142.2" x2="46.7" y2="148.4"/>
	<path class="st53" d="M36,92.4l-102.7,0c-3.2,0-5.7-2.6-5.7-5.7v-9.4c0-3.2,2.6-5.7,5.7-5.7H36c3.2,0,5.7,2.6,5.7,5.7l0,9.4
		C41.7,89.8,39.1,92.4,36,92.4z"/>
	<line class="st31" x1="37.7" y1="22.2" x2="53" y2="35.5"/>
	<line class="st31" x1="44.9" y1="17.9" x2="51.2" y2="23.6"/>
</g>
<g>
	<path class="st54" d="M94.7,28.4l-9.1,1.5c-0.2,0-0.5-0.1-0.5-0.4v0c0-0.2,0-0.3,0.2-0.4c1.7-1.5,2.1-3,1.8-4.7
		c-0.1-0.6-0.2-1.1-0.5-1.9l-0.2-0.9c0,0,0,0,0,0c-0.3-0.8-0.6-1.8-0.8-2.8c-0.4-2.6,1-4.6,3.4-5c1.3-0.2,2.1,0,2.7,0.2"/>
	<line class="st54" x1="83.6" y1="22.5" x2="91.2" y2="21.2"/>
</g>
<g>
	<path class="st54" d="M134.6,88.2l-8.7-3.2c-0.2-0.1-0.4-0.4-0.3-0.6v0c0.1-0.2,0.2-0.3,0.3-0.3c2.2-0.4,3.3-1.6,3.9-3.2
		c0.2-0.6,0.4-1.1,0.6-1.9l0.2-0.9c0,0,0,0,0,0c0.2-0.8,0.3-1.8,0.7-2.8c0.9-2.4,3.2-3.6,5.5-2.7c1.2,0.4,1.9,1,2.2,1.5"/>
	<line class="st54" x1="127.8" y1="77.5" x2="135" y2="80.2"/>
</g>
<g>
	<path class="st54" d="M92.6,72.7l-8.8,2.9c-0.2,0.1-0.5,0-0.6-0.3l0,0c-0.1-0.2,0-0.3,0.1-0.4c1.4-1.7,1.6-3.3,1.1-4.9
		c-0.2-0.6-0.4-1.1-0.8-1.8l-0.4-0.8c0,0,0,0,0,0c-0.4-0.7-0.9-1.6-1.2-2.6c-0.8-2.5,0.2-4.7,2.6-5.5c1.2-0.4,2.1-0.4,2.7-0.3"/>
	<line class="st54" x1="80.7" y1="68.7" x2="88" y2="66.2"/>
</g>
<g>
	<path class="st54" d="M146.9,39.2l-3.6-0.5c-0.1,0-0.2-0.1-0.2-0.2l0,0c0-0.1,0.1-0.1,0.1-0.1c0.8-0.4,1.1-0.9,1.2-1.5
		c0-0.2,0-0.5,0-0.8l0-0.4c0,0,0,0,0,0c0-0.3,0-0.7,0-1.1c0.1-1,0.9-1.6,1.9-1.5c0.5,0.1,0.8,0.2,1,0.4"/>
	<line class="st54" x1="143.4" y1="35.7" x2="146.4" y2="36.1"/>
</g>
<g>
	<path class="st54" d="M115.4,50.7l-5.4,1.2c-0.1,0-0.3-0.1-0.3-0.2l0,0c0-0.1,0-0.2,0.1-0.3c1-0.9,1.2-1.9,0.9-2.9
		c-0.1-0.4-0.2-0.7-0.3-1.2l-0.2-0.5c0,0,0,0,0,0c-0.2-0.5-0.4-1-0.6-1.6c-0.3-1.5,0.4-2.8,1.9-3.2c0.8-0.2,1.3-0.1,1.6,0"/>
	<line class="st54" x1="108.5" y1="47.5" x2="113" y2="46.5"/>
</g>
<g>
	<path class="st54" d="M116.9,9.8l-3.5,0.8c-0.1,0-0.2,0-0.2-0.1l0,0c0-0.1,0-0.1,0.1-0.2c0.6-0.6,0.8-1.2,0.6-1.9
		c-0.1-0.2-0.1-0.4-0.2-0.8l-0.1-0.3c0,0,0,0,0,0c-0.1-0.3-0.3-0.7-0.4-1.1c-0.2-1,0.3-1.8,1.2-2.1c0.5-0.1,0.8-0.1,1.1,0"/>
	<line class="st54" x1="112.4" y1="7.8" x2="115.3" y2="7.1"/>
</g>
</svg>
