<?xml version="1.0" encoding="utf-8"?>
<!-- Generator: Adobe Illustrator 21.0.2, SVG Export Plug-In . SVG Version: 6.00 Build 0)  -->
<svg version="1.1" id="Layer_1" xmlns="http://www.w3.org/2000/svg" xmlns:xlink="http://www.w3.org/1999/xlink" x="0px" y="0px"
	 viewBox="0 0 150 150" style="enable-background:new 0 0 150 150;" xml:space="preserve">
<style type="text/css">
	.st0{fill:#E6E6E6;}
	.st1{fill:#333333;}
	.st2{fill:#8FC043;}
	.st3{fill:#FFFFFF;}
</style>
<g>
	<g>
		<path class="st0" d="M67.2,101.4l9,17.7l4,24.8l9.3-9.3c10.6-10.6,14.7-26.1,10.7-40.6l0,0L67.2,101.4"/>
		<path class="st1" d="M79.2,146.9l-4.4-27.3l-9.7-19.2l36.2-8l0.4,1.3c4.1,14.9-0.1,31-11.1,42L79.2,146.9z M69.3,102.4l8.3,16.5
			l3.6,22.1l7.4-7.4c9.9-9.9,13.9-24.3,10.7-37.9L69.3,102.4z"/>
	</g>
	<g>
		<path class="st0" d="M54.9,48.7L54.9,48.7c-14.5-4-30,0.1-40.6,10.7L5,68.7l24.8,4l18,9.2"/>
		<path class="st1" d="M47.8,83.4c-0.2,0-0.4-0.1-0.6-0.2l-17.8-9.1L2,69.7l11.3-11.3c10.9-11,27-15.2,42-11.1c0.8,0.2,1.2,1,1,1.8
			c-0.2,0.8-1,1.2-1.8,1c-13.9-3.8-29,0.1-39.2,10.4l-7.4,7.4l22.5,3.7l18,9.2c0.7,0.4,1,1.2,0.6,1.9C48.8,83.1,48.3,83.4,47.8,83.4
			z"/>
	</g>
	<g>
		<line class="st2" x1="47.4" y1="101.3" x2="25.4" y2="123.3"/>
		<path class="st1" d="M25.4,124.8c-0.4,0-0.7-0.1-1-0.4c-0.6-0.6-0.6-1.5,0-2l22-22c0.6-0.6,1.5-0.6,2,0c0.6,0.6,0.6,1.5,0,2
			l-22,22C26.1,124.6,25.8,124.8,25.4,124.8z"/>
	</g>
	<g>
		<line class="st2" x1="57.4" y1="111.2" x2="46.4" y2="122.3"/>
		<path class="st1" d="M46.4,123.7c-0.4,0-0.7-0.1-1-0.4c-0.6-0.6-0.6-1.5,0-2l11-11c0.6-0.6,1.5-0.6,2,0s0.6,1.5,0,2l-11,11
			C47.1,123.5,46.7,123.7,46.4,123.7z"/>
	</g>
	<g>
		<line class="st2" x1="37.2" y1="91" x2="26.2" y2="102.1"/>
		<path class="st1" d="M26.2,103.5c-0.4,0-0.7-0.1-1-0.4c-0.6-0.6-0.6-1.5,0-2l11-11c0.6-0.6,1.5-0.6,2,0c0.6,0.6,0.6,1.5,0,2
			l-11,11C26.9,103.3,26.5,103.5,26.2,103.5z"/>
	</g>
	<g>
		<polyline class="st2" points="54.7,48.5 99.5,3.7 145.6,4.4 145.6,48.7 100.3,94.1 67.2,101.4 47.8,82 54.7,48.5 		"/>
		<path class="st1" d="M67.2,102.8c-0.4,0-0.7-0.1-1-0.4L46.8,83c-0.3-0.3-0.5-0.8-0.4-1.3l6.9-33.5c0.1-0.3,0.2-0.5,0.4-0.7
			L98.5,2.7c0.3-0.3,0.6-0.4,1-0.4l46,0.8c0.8,0,1.4,0.6,1.4,1.4v44.3c0,0.4-0.2,0.7-0.4,1l-45.3,45.3c-0.2,0.2-0.4,0.3-0.7,0.4
			l-33,7.4C67.4,102.8,67.3,102.8,67.2,102.8z M49.3,81.5l18.4,18.4l31.9-7.1l44.6-44.6V5.8l-44-0.7L56,49.2L49.3,81.5z"/>
	</g>
	<g>
		<path class="st0" d="M92.5,59.2c0,0,0-0.1-0.1-0.1c-6.7,1.5-13.3,3-20,4.5c1.7,1.8,3.3,3.4,4.9,5.2c-2.5,2.4-5,4.8-7.6,7.2
			c0,0,0,0.1,0,0.1c6.7-1.5,13.3-3,20-4.5c-1.7-1.7-3.3-3.4-4.9-5.1C87.5,64,90,61.6,92.5,59.2z"/>
		<path class="st1" d="M69.8,77.5c-0.5,0-1-0.3-1.3-0.8c0-0.1-0.1-0.2-0.1-0.2c-0.3-0.6-0.1-1.1,0.4-1.5l6.5-6.2l-3.9-4.1
			c-0.4-0.4-0.5-0.9-0.3-1.4c0.1-0.5,0.6-0.9,1.1-1l20-4.5c0.7-0.2,1.4,0.2,1.6,0.8c0.3,0.6,0.2,1.3-0.3,1.7L91,62.6
			c-1.4,1.3-2.7,2.6-4.1,3.9l3.9,4.1c0.4,0.4,0.5,0.9,0.3,1.4c-0.1,0.5-0.5,0.9-1,1c-6.2,1.4-12.4,2.8-18.6,4.2l-1.5,0.3
			C70,77.5,69.9,77.5,69.8,77.5z M75.2,64.5l3.2,3.3c0.5,0.6,0.5,1.5-0.1,2l-4,3.8c4.2-0.9,8.5-1.9,12.7-2.9l-3.1-3.3
			c-0.5-0.6-0.5-1.5,0-2c1.3-1.3,2.7-2.6,4-3.8L75.2,64.5z M92.5,59.1L92.5,59.1L92.5,59.1z"/>
	</g>
	<g>
		<circle class="st0" cx="110" cy="39.2" r="14.7"/>
		<path class="st1" d="M110,55.4c-8.9,0-16.2-7.3-16.2-16.2c0-8.9,7.3-16.2,16.2-16.2s16.2,7.3,16.2,16.2
			C126.2,48.1,118.9,55.4,110,55.4z M110,25.9c-7.3,0-13.3,6-13.3,13.3c0,7.3,6,13.3,13.3,13.3c7.3,0,13.3-6,13.3-13.3
			C123.3,31.9,117.4,25.9,110,25.9z"/>
	</g>
	<g>
		<path class="st1" d="M140.4,46.7c-0.8,0-1.4-0.6-1.4-1.4V27.9c0-0.8,0.6-1.4,1.4-1.4c0.8,0,1.4,0.6,1.4,1.4v17.3
			C141.8,46.1,141.2,46.7,140.4,46.7z"/>
	</g>
	<g>
		<path class="st3" d="M105.7,45c-0.8,0-1.4-0.6-1.4-1.4v-6.9c0-0.8,0.6-1.4,1.4-1.4s1.4,0.6,1.4,1.4v6.9
			C107.1,44.3,106.5,45,105.7,45z"/>
	</g>
	<g>
		<path class="st3" d="M110.9,50.2c-0.8,0-1.4-0.6-1.4-1.4V31.4c0-0.8,0.6-1.4,1.4-1.4s1.4,0.6,1.4,1.4v17.3
			C112.3,49.5,111.7,50.2,110.9,50.2z"/>
	</g>
	<g>
		<path class="st1" d="M21.3,62.6c-0.4,0-0.8-0.2-1.1-0.5c-0.5-0.6-0.5-1.5,0.1-2c5.3-4.7,11.7-7.7,18.7-8.8
			c0.8-0.1,1.5,0.4,1.6,1.2s-0.4,1.5-1.2,1.6c-6.4,1-12.4,3.8-17.2,8.1C22,62.5,21.7,62.6,21.3,62.6z"/>
	</g>
</g>
</svg>
