<?xml version="1.0" encoding="utf-8"?>
<!-- Generator: Adobe Illustrator 21.0.2, SVG Export Plug-In . SVG Version: 6.00 Build 0)  -->
<svg version="1.1" id="Layer_1" xmlns="http://www.w3.org/2000/svg" xmlns:xlink="http://www.w3.org/1999/xlink" x="0px" y="0px"
	 viewBox="0 0 378 279" style="enable-background:new 0 0 378 279;" xml:space="preserve">
<style type="text/css">
	
		.st0{fill:none;stroke:#333333;stroke-width:1.5;stroke-linecap:round;stroke-linejoin:round;stroke-miterlimit:10;stroke-dasharray:5,6;}
	.st1{fill:#8FC043;stroke:#333333;stroke-width:1.5;stroke-linecap:round;stroke-linejoin:round;stroke-miterlimit:10;}
	.st2{fill:#F2F2F2;stroke:#333333;stroke-width:1.5;stroke-linecap:round;stroke-linejoin:round;stroke-miterlimit:10;}
	.st3{fill:#E6E6E6;stroke:#333333;stroke-width:1.5;stroke-linecap:round;stroke-linejoin:round;stroke-miterlimit:10;}
	.st4{fill:#8CC63F;stroke:#333333;stroke-width:1.5;stroke-linecap:round;stroke-linejoin:round;stroke-miterlimit:10;}
	.st5{fill:none;stroke:#333333;stroke-width:1.5;stroke-linecap:round;stroke-linejoin:round;stroke-miterlimit:10;}
	.st6{fill:#8FC043;stroke:#000000;stroke-width:1.5;stroke-miterlimit:10;}
	.st7{fill:none;stroke:#333333;stroke-width:1.5;stroke-linecap:round;stroke-miterlimit:10;}
</style>
<ellipse transform="matrix(5.506931e-02 -0.9985 0.9985 5.506931e-02 38.6885 340.3134)" class="st0" cx="199.1" cy="149.7" rx="118.7" ry="118.7"/>
<path class="st1" d="M276.7,180.6H156.5c-7,0-12.7-5.7-12.7-12.7V71.7c0-7,5.7-12.7,12.7-12.7h167c7,0,12.7,5.7,12.7,12.7v96.2
	c0,7-5.7,12.7-12.7,12.7h-9.2v23.3L276.7,180.6z"/>
<path class="st2" d="M324.2,175.3h-15.4l0.2,18.6l-29-18.6H156.1c-3.4,0-6.2-2.8-6.2-6.3V71.5c0-3.5,2.8-6.3,6.2-6.3h168
	c3.4,0,6.2,2.8,6.2,6.3V169C330.3,172.5,327.6,175.3,324.2,175.3z"/>
<path class="st3" d="M218.4,231.6C218.4,231.6,218.4,231.6,218.4,231.6c-1.9,2.8-3.7,5.7-5.5,8.6c1.2,0,2.4,0.1,3.5,0.1
	c0,1.7-0.1,3.5-0.1,5.2c0,0,0,0,0,0c1.8-2.9,3.6-5.7,5.5-8.6c-1.2,0-2.3-0.1-3.5-0.1C218.3,235,218.4,233.3,218.4,231.6z"/>
<path class="st3" d="M187.5,24.6C187.4,24.6,187.4,24.6,187.5,24.6c-1.9,2.8-3.7,5.7-5.5,8.6c1.2,0,2.4,0.1,3.5,0.1
	c0,1.7-0.1,3.5-0.1,5.2c0,0,0,0,0,0c1.8-2.9,3.6-5.7,5.5-8.6c-1.2,0-2.3-0.1-3.5-0.1C187.4,28.1,187.4,26.3,187.5,24.6z"/>
<path class="st3" d="M123.9,82C123.9,82,123.9,82,123.9,82c-1.9,2.8-3.7,5.7-5.5,8.6c1.2,0,2.4,0.1,3.5,0.1c0,1.7-0.1,3.5-0.1,5.2
	c0,0,0,0,0,0c1.8-2.9,3.6-5.7,5.5-8.6c-1.2,0-2.3-0.1-3.5-0.1C123.8,85.5,123.9,83.7,123.9,82z"/>
<path class="st3" d="M241.3,5.5C241.3,5.5,241.2,5.5,241.3,5.5c-1.9,2.8-3.7,5.7-5.5,8.6c1.2,0,2.4,0.1,3.5,0.1
	c0,1.7-0.1,3.5-0.1,5.2c0,0,0,0,0,0c1.8-2.9,3.6-5.7,5.5-8.6c-1.2,0-2.3-0.1-3.5-0.1C241.2,9,241.2,7.3,241.3,5.5z"/>
<path class="st4" d="M147.6,251.4C147.6,251.4,147.5,251.4,147.6,251.4c-1.9,2.8-3.7,5.7-5.5,8.6c1.2,0,2.4,0.1,3.5,0.1
	c0,1.7-0.1,3.5-0.1,5.2c0,0,0,0,0,0c1.8-2.9,3.6-5.7,5.5-8.6c-1.2,0-2.3-0.1-3.5-0.1C147.5,254.9,147.5,253.1,147.6,251.4z"/>
<path class="st4" d="M81.3,32.5C81.3,32.5,81.2,32.5,81.3,32.5c-1.9,2.8-3.7,5.7-5.5,8.6c1.2,0,2.4,0.1,3.5,0.1
	c0,1.7-0.1,3.5-0.1,5.2c0,0,0,0,0,0c1.8-2.9,3.6-5.7,5.5-8.6c-1.2,0-2.3-0.1-3.5-0.1C81.2,35.9,81.2,34.2,81.3,32.5z"/>
<path class="st4" d="M300.6,248.7C300.5,248.7,300.5,248.7,300.6,248.7c-1.9,2.8-3.7,5.7-5.5,8.6c1.2,0,2.4,0.1,3.5,0.1
	c0,1.7-0.1,3.5-0.1,5.2c0,0,0,0,0,0c1.8-2.9,3.6-5.7,5.5-8.6c-1.2,0-2.3-0.1-3.5-0.1C300.5,252.2,300.5,250.5,300.6,248.7z"/>
<path class="st4" d="M257.7,200.7C257.7,200.7,257.7,200.7,257.7,200.7c-1.9,2.8-3.7,5.7-5.5,8.6c1.2,0,2.4,0.1,3.5,0.1
	c0,1.7-0.1,3.5-0.1,5.2c0,0,0,0,0,0c1.8-2.9,3.6-5.7,5.5-8.6c-1.2,0-2.3-0.1-3.5-0.1C257.6,204.2,257.7,202.4,257.7,200.7z"/>
<path class="st3" d="M361.9,116.7C361.9,116.7,361.9,116.7,361.9,116.7c-2.4,3.6-4.7,7.3-7.1,11c1.6,0,3,0.1,4.5,0.1
	c-0.1,2.2-0.1,4.4-0.2,6.7c0,0,0,0,0.1,0c2.3-3.7,4.7-7.3,7-11c-1.5,0-3-0.1-4.5-0.1C361.8,121.2,361.9,119,361.9,116.7z"/>
<path class="st4" d="M46.2,179.2C46.2,179.2,46.2,179.2,46.2,179.2c-1.9,2.8-3.7,5.7-5.5,8.6c1.2,0,2.4,0.1,3.5,0.1
	c0,1.7-0.1,3.5-0.1,5.2c0,0,0,0,0,0c1.8-2.9,3.6-5.7,5.5-8.6c-1.2,0-2.3-0.1-3.5-0.1C46.1,182.7,46.2,181,46.2,179.2z"/>
<line class="st5" x1="185.8" y1="92.1" x2="306.7" y2="91.8"/>
<line class="st5" x1="213.5" y1="119.8" x2="305.6" y2="120.3"/>
<line class="st5" x1="213.5" y1="147.4" x2="306.7" y2="147.7"/>
<path class="st1" d="M116.7,226.9l70-0.2c4.9,0,9-5.4,9-12.1V123c0-6.6-4-12.1-9-12.1h-118c-4.9,0-9,5.4-9,12.1v91.6
	c0,6.6,4,12.1,9,12.1l10.8,0.2v21.9L116.7,226.9z"/>
<path class="st2" d="M184.6,221.6H114l-29.2,16.7l0-16.7h-14c-2.9,0-5.2-2.4-5.2-5.2v-94.1c0-2.9,2.4-5.2,5.2-5.2h113.8
	c2.9,0,5.2,2.4,5.2,5.2v94.1C189.9,219.2,187.5,221.6,184.6,221.6z"/>
<circle class="st6" cx="123.3" cy="204.5" r="3.6"/>
<path class="st6" d="M114.4,142.1c3.7-3.7,7.5-5.2,13.3-4.4c6.6,0.9,12.2,5.3,13.3,11.8c1.2,7.1-2.3,13.4-7.9,16.3
	c-4.4,2.3-12.4,9.1-12.4,18.5v7.7c0,1.5,1.2,2.6,2.6,2.6l0,0c1.4,0,2.5-1.1,2.5-2.5l0-6c0-6.5,3.7-12.5,9.4-15.6
	c7-3.7,11.6-11.5,10.7-20.2c-1-9.5-8.8-17-18.3-17.8c-7.1-0.6-13.5,2.5-17.6,7.5c-0.9,1.1-0.5,2.7,0.7,3.2l0,0
	C111.8,143.7,113,143.6,114.4,142.1z"/>
<g>
	<line class="st7" x1="363.3" y1="193.6" x2="370" y2="193.6"/>
	<line class="st7" x1="334.6" y1="193.6" x2="359.1" y2="193.6"/>
</g>
<line class="st7" x1="345.7" y1="92.1" x2="356" y2="92.1"/>
<g>
	<line class="st7" x1="29.4" y1="158.2" x2="8" y2="158.2"/>
	<line class="st7" x1="45.2" y1="158.2" x2="33.1" y2="158.2"/>
</g>
</svg>
