<?xml version="1.0" encoding="utf-8"?>
<!-- Generator: Adobe Illustrator 21.0.2, SVG Export Plug-In . SVG Version: 6.00 Build 0)  -->
<svg version="1.1" id="Layer_1" xmlns="http://www.w3.org/2000/svg" xmlns:xlink="http://www.w3.org/1999/xlink" x="0px" y="0px"
	 viewBox="0 0 260 181" style="enable-background:new 0 0 260 181;" xml:space="preserve">
<style type="text/css">
	.st0{fill:#E6E6E6;stroke:#333333;stroke-width:2;stroke-linecap:round;stroke-linejoin:round;stroke-miterlimit:10;}
	.st1{fill:#8FC043;stroke:#333333;stroke-width:2;stroke-linecap:round;stroke-linejoin:round;stroke-miterlimit:10;}
	.st2{fill:none;stroke:#E6E6E6;stroke-width:1.5;stroke-linecap:round;stroke-linejoin:round;stroke-miterlimit:10;}
</style>
<path class="st0" d="M183.7,170.8H87.4c-6.6,0-12-5.4-12-12V22.7c0-6.6,5.4-12,12-12h96.3c6.6,0,12,5.4,12,12v136.1
	C195.7,165.4,190.3,170.8,183.7,170.8z"/>
<path class="st1" d="M189,165.3H81.9c-6.6,0-12-5.4-12-12V22.7c0-6.6,5.4-12,12-12H189c6.6,0,12,5.4,12,12v130.6
	C201,159.9,195.6,165.3,189,165.3z"/>
<line class="st1" x1="109.1" y1="42.1" x2="181.9" y2="42.1"/>
<line class="st1" x1="109.1" y1="67.4" x2="181.9" y2="67.4"/>
<line class="st1" x1="109.1" y1="93.7" x2="181.9" y2="93.7"/>
<line class="st1" x1="109.8" y1="120.1" x2="147.2" y2="120.1"/>
<polyline class="st1" points="87.5,43 90.5,46.6 98.9,36.6 "/>
<polyline class="st1" points="87.5,68.8 90.5,72.4 98.9,62.4 "/>
<polyline class="st1" points="87.5,95.2 90.5,98.7 98.9,88.8 "/>
<path class="st0" d="M177.5,18.4L177.5,18.4c-2.4,0-4.4-2-4.4-4.4V7.4c0-2.4,2-4.4,4.4-4.4h0c2.4,0,4.4,2,4.4,4.4V14
	C181.9,16.4,180,18.4,177.5,18.4z"/>
<path class="st0" d="M93,18.4L93,18.4c-2.4,0-4.4-2-4.4-4.4V7.4C88.6,5,90.6,3,93,3h0c2.4,0,4.4,2,4.4,4.4V14
	C97.4,16.4,95.4,18.4,93,18.4z"/>
<path class="st2" d="M221.9,46.6C221.9,46.5,221.9,46.5,221.9,46.6c-2,3.2-3.9,6.4-5.8,9.7c1.3,0,2.5,0.1,3.7,0.1
	c0,2-0.1,3.9-0.1,5.9c0,0,0,0,0.1,0c1.9-3.2,3.8-6.4,5.7-9.7c-1.3,0-2.5-0.1-3.7-0.1C221.8,50.5,221.9,48.5,221.9,46.6z"/>
<path class="st2" d="M9.4,3C9.4,3,9.3,3,9.4,3c-2,3.2-3.9,6.4-5.8,9.7c1.3,0,2.5,0.1,3.7,0.1c0,2-0.1,3.9-0.1,5.9c0,0,0,0,0.1,0
	c1.9-3.2,3.8-6.4,5.7-9.7c-1.3,0-2.5-0.1-3.7-0.1C9.3,6.9,9.3,5,9.4,3z"/>
<circle class="st2" cx="52.3" cy="120.3" r="1.9"/>
<circle class="st2" cx="245.8" cy="23.6" r="1.9"/>
<path class="st2" d="M25.1,81.4C25.1,81.4,25.1,81.4,25.1,81.4c-2,3.2-3.9,6.4-5.8,9.7c1.3,0,2.5,0.1,3.7,0.1c0,2-0.1,3.9-0.1,5.9
	c0,0,0,0,0.1,0c1.9-3.2,3.8-6.4,5.7-9.7c-1.3,0-2.5-0.1-3.7-0.1C25,85.3,25.1,83.4,25.1,81.4z"/>
<circle class="st2" cx="246" cy="165.3" r="1.9"/>
<g>
	<line class="st2" x1="43.9" y1="50.8" x2="52.3" y2="50.8"/>
	<line class="st2" x1="35.4" y1="50.8" x2="38.6" y2="50.8"/>
</g>
<line class="st2" x1="226.5" y1="90.1" x2="229.7" y2="90.1"/>
<line class="st2" x1="220.9" y1="90.1" x2="220.9" y2="90.1"/>
<path class="st2" d="M254.1,104.4C254.1,104.4,254.1,104.4,254.1,104.4c-2,3.2-3.9,6.4-5.8,9.7c1.3,0,2.5,0.1,3.7,0.1
	c0,2-0.1,3.9-0.1,5.9c0,0,0,0,0.1,0c1.9-3.2,3.8-6.4,5.7-9.7c-1.3,0-2.5-0.1-3.7-0.1C254,108.3,254.1,106.4,254.1,104.4z"/>
<g>
	<line class="st2" x1="220.9" y1="130.8" x2="212.4" y2="130.8"/>
	<line class="st2" x1="229.3" y1="130.8" x2="226.2" y2="130.8"/>
</g>
<path class="st2" d="M27.1,162.4C27.1,162.4,27.1,162.4,27.1,162.4c-2,3.2-3.9,6.4-5.8,9.7c1.3,0,2.5,0.1,3.7,0.1
	c0,2-0.1,3.9-0.1,5.9c0,0,0,0,0.1,0c1.9-3.2,3.8-6.4,5.7-9.7c-1.3,0-2.5-0.1-3.7-0.1C27,166.3,27.1,164.4,27.1,162.4z"/>
<line class="st2" x1="5.5" y1="122.1" x2="8.7" y2="122.1"/>
<line class="st2" x1="-0.1" y1="122.1" x2="-0.1" y2="122.1"/>
</svg>
