<?xml version="1.0" encoding="utf-8"?>
<!-- Generator: Adobe Illustrator 21.0.2, SVG Export Plug-In . SVG Version: 6.00 Build 0)  -->
<svg version="1.1" id="Layer_1" xmlns="http://www.w3.org/2000/svg" xmlns:xlink="http://www.w3.org/1999/xlink" x="0px" y="0px"
	 viewBox="0 0 197 166" style="enable-background:new 0 0 197 166;" xml:space="preserve">
<style type="text/css">
	.st0{fill:#CCCCCC;}
	.st1{fill:#333333;}
	.st2{fill:#999999;}
	.st3{fill:#4D4D4D;}
	.st4{fill:#8CC03F;}
	.st5{fill:#F4F4F4;}
	.st6{fill:#8FC043;}
	.st7{fill:#8CC63F;}
	.st8{fill:#E6E6E6;}
</style>
<g>
	<g>
		<circle class="st0" cx="78.6" cy="88.1" r="48.6"/>
		<path class="st1" d="M78.6,138c-27.5,0-49.9-22.4-49.9-49.9c0-27.5,22.4-49.9,49.9-49.9c27.5,0,49.9,22.4,49.9,49.9
			C128.4,115.6,106.1,138,78.6,138z M78.6,40.8c-26.1,0-47.4,21.3-47.4,47.4c0,26.1,21.3,47.4,47.4,47.4s47.4-21.3,47.4-47.4
			C125.9,62,104.7,40.8,78.6,40.8z"/>
	</g>
	<g>
		<path class="st2" d="M62.4,119.7c-0.2,0-0.4,0-0.6-0.1c-11.7-6.2-18.9-18.3-18.9-31.5c0-13,7.1-25,18.5-31.2
			c0.6-0.3,1.4-0.1,1.7,0.5c0.3,0.6,0.1,1.4-0.5,1.7C52,64.9,45.4,76,45.4,88.1c0,12.3,6.7,23.5,17.6,29.3c0.6,0.3,0.8,1.1,0.5,1.7
			C63.3,119.5,62.9,119.7,62.4,119.7z"/>
	</g>
	<g>
		<path class="st2" d="M94.7,119.7c-0.4,0-0.9-0.2-1.1-0.7c-0.3-0.6-0.1-1.4,0.5-1.7c10.8-5.8,17.6-17,17.6-29.3
			c0-12.3-6.7-23.5-17.6-29.3c-0.6-0.3-0.8-1.1-0.5-1.7c0.3-0.6,1.1-0.8,1.7-0.5c11.7,6.2,18.9,18.3,18.9,31.5
			c0,13.2-7.2,25.3-18.9,31.5C95.1,119.7,94.9,119.7,94.7,119.7z"/>
	</g>
	<g>
		<path class="st1" d="M94.7,131.8l0,2.2c-5.7,1.9-10.8,2.8-16.6,2.7c-5.4-0.1-10.9-1-16.1-2.9l0-2.3l0-4v-14.1l0-13.8
			c-2.3-3.3-3.6-7.2-3.6-11.5c0-4.3,1.3-8.2,3.6-11.5l0-1.1l0-33.2c5.7-1.9,10.7-2.9,16.6-2.9c5.4,0,10.9,0.9,16.2,2.7v33.2l0,0.6
			c2.5,3.4,4,7.5,4,12c0,4.5-1.5,8.7-4,12l0,1.5v26.2"/>
	</g>
	<g>
		<circle class="st3" cx="78.6" cy="88.1" r="13.5"/>
	</g>
	<g>
		<circle class="st4" cx="78.6" cy="119.1" r="3.5"/>
	</g>
	<g>
		<path class="st5" d="M112.7,150.2l5.2-3.1c0.6-0.4,1.4-0.4,2,0l7,4.1c0.7,0.4,1.5,0.4,2.1-0.1l5.3-3.8c0.7-0.5,1.5-0.5,2.2-0.1
			l5.9,3.8c0.7,0.5,1.7,0.4,2.3-0.1l4.3-3.6c0.6-0.5,1.5-0.6,2.2-0.2l6.9,4.1c0.6,0.4,1.4,0.4,2,0l7.3-4.2c0.6-0.3,1.4-0.3,2,0
			l5.3,3.1c1.3,0.8,2.9-0.2,2.9-1.7V28.7c0-1.5-1.6-2.4-2.9-1.7l-5.2,3.1c-0.6,0.4-1.4,0.4-2,0l-7-4.1c-0.7-0.4-1.5-0.4-2.1,0.1
			l-5.3,3.8c-0.7,0.5-1.5,0.5-2.2,0.1l-5.9-3.8c-0.7-0.5-1.7-0.4-2.3,0.1l-4.3,3.6c-0.6,0.5-1.5,0.6-2.2,0.2l-6.9-4.1
			c-0.6-0.4-1.4-0.4-2,0l-7.3,4.2c-0.6,0.3-1.4,0.3-2,0l-5.3-3.1c-1.3-0.8-2.9,0.2-2.9,1.7v119.8C109.8,150,111.4,151,112.7,150.2z"
			/>
		<path class="st1" d="M159.1,152.9c-0.6,0-1.1-0.1-1.6-0.4l-6.9-4.1c-0.3-0.1-0.6-0.1-0.8,0.1l-4.3,3.5c-1.1,0.9-2.6,1-3.8,0.2
			l-5.9-3.8c-0.2-0.2-0.6-0.1-0.8,0l-5.3,3.8c-1,0.7-2.4,0.8-3.5,0.2l-7-4.1c-0.2-0.1-0.5-0.1-0.7,0l-5.2,3.1c-1,0.6-2.2,0.6-3.2,0
			c-1-0.6-1.6-1.6-1.6-2.8V28.7c0-1.2,0.6-2.2,1.6-2.8c1-0.6,2.2-0.6,3.2,0l5.3,3.1c0.2,0.1,0.5,0.1,0.7,0l7.3-4.2
			c1-0.6,2.2-0.6,3.2,0l6.9,4.1c0.2,0.1,0.6,0.1,0.8-0.1l4.3-3.6c1.1-0.9,2.6-1,3.8-0.2l5.9,3.8c0.2,0.2,0.6,0.1,0.8,0l5.3-3.8
			c1-0.7,2.4-0.8,3.5-0.2l7,4.1c0.2,0.1,0.5,0.1,0.7,0l5.2-3.1c1-0.6,2.2-0.6,3.2,0c1,0.6,1.6,1.6,1.6,2.8v119.8
			c0,1.2-0.6,2.2-1.6,2.8c-1,0.6-2.2,0.6-3.2,0l-5.3-3.1c-0.2-0.1-0.5-0.1-0.7,0l-7.3,4.2C160.2,152.7,159.7,152.9,159.1,152.9z
			 M150.2,145.7c0.6,0,1.1,0.1,1.6,0.4l6.9,4.1c0.2,0.1,0.5,0.1,0.7,0l7.3-4.2c1-0.6,2.2-0.6,3.2,0l5.3,3.1c0.3,0.2,0.6,0.1,0.7,0
			c0.1-0.1,0.3-0.2,0.3-0.6V28.7c0-0.4-0.2-0.5-0.3-0.6c-0.1-0.1-0.4-0.2-0.7,0l-5.2,3.1c-1,0.6-2.2,0.6-3.2,0l-7-4.1
			c-0.2-0.1-0.5-0.1-0.8,0l-5.3,3.8c-1.1,0.8-2.5,0.8-3.6,0.1l-5.9-3.8c-0.3-0.2-0.6-0.1-0.8,0l-4.3,3.6c-1,0.9-2.5,1-3.7,0.3
			l-6.9-4.1c-0.2-0.1-0.5-0.1-0.7,0l-7.3,4.2c-1,0.6-2.2,0.6-3.2,0l-5.3-3.1c-0.3-0.2-0.6-0.1-0.7,0c-0.1,0.1-0.3,0.2-0.3,0.6v119.8
			c0,0.4,0.2,0.5,0.3,0.6c0.1,0.1,0.4,0.2,0.7,0l0,0l5.2-3.1c1-0.6,2.2-0.6,3.2,0l7,4.1c0.2,0.1,0.5,0.1,0.8,0l5.3-3.8
			c1.1-0.8,2.5-0.8,3.6-0.1l5.9,3.8c0.3,0.2,0.6,0.1,0.8,0l4.3-3.5C148.8,146,149.5,145.7,150.2,145.7z"/>
	</g>
	<g>
		<path class="st1" d="M134.7,51.5h-12.5c-0.7,0-1.2-0.6-1.2-1.2s0.6-1.2,1.2-1.2h12.5c0.7,0,1.2,0.6,1.2,1.2S135.4,51.5,134.7,51.5
			z"/>
	</g>
	<g>
		<path class="st1" d="M134.7,64h-12.5c-0.7,0-1.2-0.6-1.2-1.2s0.6-1.2,1.2-1.2h12.5c0.7,0,1.2,0.6,1.2,1.2S135.4,64,134.7,64z"/>
	</g>
	<g>
		<path class="st1" d="M165,90.8h-42.8c-0.7,0-1.2-0.6-1.2-1.2s0.6-1.2,1.2-1.2H165c0.7,0,1.2,0.6,1.2,1.2S165.7,90.8,165,90.8z"/>
	</g>
	<g>
		<path class="st1" d="M165,103.2h-42.8c-0.7,0-1.2-0.6-1.2-1.2s0.6-1.2,1.2-1.2H165c0.7,0,1.2,0.6,1.2,1.2S165.7,103.2,165,103.2z"
			/>
	</g>
	<g>
		<path class="st1" d="M165,115.7h-42.8c-0.7,0-1.2-0.6-1.2-1.2s0.6-1.2,1.2-1.2H165c0.7,0,1.2,0.6,1.2,1.2S165.7,115.7,165,115.7z"
			/>
	</g>
	<g>
		<path class="st1" d="M165,130h-42.8c-0.7,0-1.2-0.6-1.2-1.2s0.6-1.2,1.2-1.2H165c0.7,0,1.2,0.6,1.2,1.2S165.7,130,165,130z"/>
	</g>
	<g>
		<g>
			<path class="st1" d="M159.9,69.4c-0.7,0-1.5,0-2.2,0c-0.7,0-1.4,0-2.1,0l-1.8,0c-1.3,0-2.5,0-3.8,0c-0.7,0-1.2-0.6-1.2-1.3
				c0-0.6,0.4-1,0.9-1.2c0-0.1,0.1-0.3,0.1-0.5c0.3-2.7,0.5-5.5,0.5-8.5c0-1.4-0.1-2.8-0.2-4.3c0-0.4-0.1-0.7-0.1-1.1
				c-0.1-0.9-0.2-1.9-0.1-2.9c0.1-1.3,0.4-2.4,1-3.4c0.9-1.4,2.4-2.4,4.3-2.7c2.9-0.6,5.5,0.6,7.1,3c0.4,0.6,0.2,1.4-0.4,1.7
				c-0.6,0.4-1.4,0.2-1.7-0.4c-1-1.5-2.7-2.2-4.5-1.9c-1.2,0.2-2.1,0.8-2.7,1.6c-0.4,0.6-0.6,1.3-0.6,2.1c0,0.8,0,1.6,0.1,2.5
				c0,0.4,0.1,0.8,0.1,1.1c0.1,1.5,0.2,3,0.2,4.4c0,3-0.1,6-0.5,8.8c0,0.1,0,0.1,0,0.2c0.5,0,1,0,1.6,0l1.8,0c0.7,0,1.4,0,2.1,0
				c1.5,0,3,0,4.4,0c1.1,0,1.6-0.5,1.7-1.9c0.1-0.7,0.7-1.2,1.4-1.1c0.7,0.1,1.2,0.7,1.1,1.4c-0.4,3.3-2.5,4-4.1,4.1
				C161.4,69.4,160.6,69.4,159.9,69.4z"/>
		</g>
		<g>
			<line class="st6" x1="147" y1="55.8" x2="158.1" y2="55.8"/>
			<path class="st1" d="M158.1,57h-11c-0.7,0-1.2-0.6-1.2-1.2s0.6-1.2,1.2-1.2h11c0.7,0,1.2,0.6,1.2,1.2S158.8,57,158.1,57z"/>
		</g>
	</g>
	<g>
		<g>
			<path class="st1" d="M17.8,33.2c-0.2,0-0.5,0-0.7,0l-0.7,0l-0.6,0c-0.4,0-0.8,0-1.2,0c-0.4,0-0.7-0.3-0.7-0.8
				c0-0.2,0.1-0.5,0.3-0.6c0.1-0.8,0.2-1.7,0.1-2.7c0-0.5,0-0.9-0.1-1.4l0-0.3c0-0.3-0.1-0.6,0-1c0-0.5,0.2-0.9,0.4-1.3
				c0.4-0.5,0.9-0.9,1.6-1c1.1-0.2,2.1,0.2,2.6,1.1c0.2,0.3,0.1,0.8-0.2,1c-0.3,0.2-0.8,0.1-1-0.2c-0.3-0.4-0.6-0.5-1.1-0.5
				c-0.4,0.1-0.5,0.2-0.6,0.4c-0.1,0.1-0.1,0.3-0.1,0.5c0,0.3,0,0.5,0,0.8l0,0.4c0,0.5,0.1,1,0.1,1.5c0,0.9,0,1.7-0.1,2.6
				c0,0,0.1,0,0.1,0l0.6,0l0.7,0c0.5,0,0.9,0,1.4,0c0.2,0,0.2,0,0.2-0.3c0.1-0.4,0.4-0.7,0.8-0.7c0.4,0.1,0.7,0.4,0.7,0.8
				C20,33,19,33.2,18.6,33.2C18.3,33.2,18.1,33.2,17.8,33.2z"/>
		</g>
		<g>
			<path class="st1" d="M17.2,29.2h-3.6c-0.4,0-0.8-0.3-0.8-0.8s0.3-0.8,0.8-0.8h3.6c0.4,0,0.8,0.3,0.8,0.8S17.6,29.2,17.2,29.2z"/>
		</g>
	</g>
	<g>
		<path class="st7" d="M20.3,142.1C20.3,142.1,20.3,142.1,20.3,142.1c-1.9,3-3.7,6.1-5.5,9.2c1.2,0,2.4,0.1,3.5,0.1
			c0,1.9-0.1,3.7-0.1,5.6c0,0,0,0,0,0c1.8-3.1,3.6-6.1,5.5-9.2c-1.2,0-2.3-0.1-3.5-0.1C20.2,145.8,20.3,144,20.3,142.1z"/>
		<path class="st1" d="M18.3,157.8c-0.1,0-0.2,0-0.2,0c0,0-0.1,0-0.1-0.1c-0.3-0.1-0.4-0.4-0.4-0.7l0.1-4.8c-0.9,0-1.8-0.1-2.8-0.1
			c-0.3,0-0.5-0.2-0.6-0.4c-0.1-0.2-0.1-0.5,0-0.7l5.5-9.2c0.2-0.3,0.6-0.5,0.9-0.3c0.3,0.1,0.5,0.4,0.5,0.7l0,1.8c0,1,0,2-0.1,3
			l2.8,0.1c0.3,0,0.5,0.2,0.6,0.4c0.1,0.2,0.1,0.5,0,0.7c-1.6,2.7-3.1,5.3-4.7,7.9l-0.8,1.3C18.8,157.6,18.5,157.8,18.3,157.8z
			 M16.1,150.6c0.8,0,1.5,0,2.3,0.1c0.4,0,0.7,0.4,0.7,0.8l-0.1,2.8c1.1-1.9,2.3-3.8,3.4-5.7l-2.2-0.1c-0.4,0-0.7-0.4-0.7-0.8
			c0-0.9,0-1.9,0.1-2.8L16.1,150.6z M20.3,142.1L20.3,142.1L20.3,142.1z"/>
	</g>
	<g>
		<circle class="st7" cx="53.2" cy="26.2" r="1.8"/>
		<path class="st1" d="M53.2,28.8c-1.4,0-2.5-1.1-2.5-2.5s1.1-2.5,2.5-2.5s2.5,1.1,2.5,2.5S54.6,28.8,53.2,28.8z M53.2,25.2
			c-0.6,0-1,0.5-1,1s0.5,1,1,1s1-0.5,1-1S53.8,25.2,53.2,25.2z"/>
	</g>
	<g>
		<path class="st7" d="M89.4-0.1C89.4-0.1,89.4-0.1,89.4-0.1c-1.9,3-3.7,6.1-5.5,9.2c1.2,0,2.4,0.1,3.5,0.1c0,1.9-0.1,3.7-0.1,5.6
			c0,0,0,0,0,0c1.8-3.1,3.6-6.1,5.5-9.2c-1.2,0-2.3-0.1-3.5-0.1C89.3,3.6,89.3,1.8,89.4-0.1z"/>
		<path class="st1" d="M87.3,15.6c-0.1,0-0.2,0-0.2,0c0,0-0.1,0-0.2-0.1c-0.3-0.1-0.4-0.4-0.4-0.7l0.1-4.8l-2.8-0.1
			c-0.3,0-0.5-0.2-0.6-0.4c-0.1-0.2-0.1-0.5,0-0.7l5.5-9.2c0.2-0.3,0.6-0.5,0.9-0.3c0.3,0.1,0.5,0.4,0.5,0.7l0,1.8c0,1,0,2-0.1,3.1
			l2.8,0.1c0.3,0,0.5,0.2,0.6,0.4c0.1,0.2,0.1,0.5,0,0.7c-1.5,2.5-3,5.1-4.5,7.6l-1,1.6C87.8,15.4,87.6,15.6,87.3,15.6z M85.2,8.4
			l2.3,0.1c0.4,0,0.7,0.4,0.7,0.8L88.1,12c1.1-1.9,2.3-3.8,3.4-5.7l-2.2-0.1c-0.4,0-0.7-0.4-0.7-0.8c0-0.9,0-1.9,0.1-2.8L85.2,8.4z
			 M89.3-0.1L89.3-0.1L89.3-0.1z"/>
	</g>
	<g>
		<g>
			<line class="st7" x1="6.8" y1="69" x2="9.9" y2="69"/>
			<path class="st1" d="M9.9,70.3h-3c-0.7,0-1.2-0.6-1.2-1.2s0.6-1.2,1.2-1.2h3c0.7,0,1.2,0.6,1.2,1.2S10.5,70.3,9.9,70.3z"/>
		</g>
		<g>
			<line class="st7" x1="1.5" y1="69" x2="1.5" y2="69"/>
			<path class="st1" d="M1.5,70.3c-0.7,0-1.2-0.6-1.2-1.2v0c0-0.7,0.6-1.2,1.2-1.2s1.2,0.6,1.2,1.2S2.2,70.3,1.5,70.3z"/>
		</g>
	</g>
	<g>
		<circle class="st7" cx="188.1" cy="72.6" r="1.8"/>
		<path class="st1" d="M188.1,75.1c-1.4,0-2.5-1.1-2.5-2.5s1.1-2.5,2.5-2.5s2.5,1.1,2.5,2.5S189.5,75.1,188.1,75.1z M188.1,71.5
			c-0.6,0-1,0.5-1,1s0.5,1,1,1s1-0.5,1-1S188.7,71.5,188.1,71.5z"/>
	</g>
	<g>
		<line class="st7" x1="188" y1="101.1" x2="196" y2="101.1"/>
		<path class="st1" d="M196,102.4h-8c-0.7,0-1.2-0.6-1.2-1.2s0.6-1.2,1.2-1.2h8c0.7,0,1.2,0.6,1.2,1.2S196.7,102.4,196,102.4z"/>
	</g>
	<g>
		<path class="st8" d="M90.7,154.9C90.7,154.9,90.6,154.9,90.7,154.9c-1.3,2.1-2.5,4.2-3.8,6.3c0.8,0,1.6,0,2.4,0.1
			c0,1.3-0.1,2.6-0.1,3.8c0,0,0,0,0,0c1.3-2.1,2.5-4.2,3.8-6.4c-0.8,0-1.6,0-2.4-0.1C90.6,157.5,90.6,156.2,90.7,154.9z"/>
		<path class="st1" d="M89.2,165.9c-0.1,0-0.2,0-0.2,0c0,0-0.1,0-0.1,0c-0.3-0.1-0.5-0.4-0.5-0.7l0.1-3.1l-1.7,0
			c-0.3,0-0.5-0.2-0.6-0.4c-0.1-0.2-0.1-0.5,0-0.7l3.8-6.4c0.2-0.3,0.6-0.5,0.9-0.3c0.3,0.1,0.5,0.4,0.5,0.7l0,1.3
			c0,0.6,0,1.2,0,1.8l1.7,0c0.3,0,0.5,0.2,0.6,0.4c0.1,0.2,0.1,0.5,0,0.7c-1,1.7-2,3.4-3,5.1l-0.8,1.3
			C89.7,165.8,89.5,165.9,89.2,165.9z M88.2,160.6l1.2,0c0.4,0,0.7,0.4,0.7,0.8l0,1c0.6-0.9,1.1-1.9,1.7-2.8l-1.1,0
			c-0.4,0-0.7-0.4-0.7-0.8c0-0.4,0-0.7,0-1.1L88.2,160.6z M90.6,154.9L90.6,154.9L90.6,154.9z"/>
	</g>
</g>
</svg>
