<?xml version="1.0" encoding="utf-8"?>
<!-- Generator: Adobe Illustrator 21.0.2, SVG Export Plug-In . SVG Version: 6.00 Build 0)  -->
<svg version="1.1" id="Layer_1" xmlns="http://www.w3.org/2000/svg" xmlns:xlink="http://www.w3.org/1999/xlink" x="0px" y="0px"
	 viewBox="0 0 990 367" style="enable-background:new 0 0 990 367;" xml:space="preserve">
<style type="text/css">
	.st0{fill:#E7E6E6;}
	.st1{fill:none;stroke:#4D4D4D;stroke-width:2;stroke-linecap:round;stroke-miterlimit:10;}
	.st2{fill:#E6E6E6;}
	.st3{fill:#8CC63F;stroke:#333333;stroke-width:2.5;stroke-miterlimit:10;}
	.st4{fill:none;stroke:#89BD49;stroke-width:3;stroke-linecap:round;stroke-miterlimit:10;}
	.st5{fill:#E6E6E6;stroke:#333333;stroke-width:2.5;stroke-miterlimit:10;}
	.st6{fill:none;stroke:#333333;stroke-width:2.5;}
	.st7{fill:#F8F8F8;stroke:#333333;stroke-width:2.5;stroke-miterlimit:10;}
	.st8{fill:none;stroke:#333333;stroke-width:2.5;stroke-linecap:round;stroke-miterlimit:10;}
	.st9{fill:#ECECEC;stroke:#333333;stroke-width:2.5;stroke-miterlimit:10;}
	.st10{fill:none;stroke:#4D4D4D;stroke-width:2.5;}
	.st11{fill:#FFFFFF;stroke:#333333;stroke-width:2.5;}
	.st12{fill:none;stroke:#4D4D4D;stroke-width:2.5;stroke-linecap:round;stroke-miterlimit:10;}
	.st13{fill:#6F6F6E;stroke:#333333;stroke-width:2.5;stroke-miterlimit:10;}
	.st14{fill:#CCCCCC;stroke:#333333;stroke-width:2.5;stroke-miterlimit:10;}
	.st15{fill:none;stroke:#999999;stroke-width:2.5;stroke-linecap:round;stroke-miterlimit:10;}
	.st16{fill:#333333;}
	.st17{fill:#8CC03F;}
	.st18{fill:none;stroke:#333333;stroke-width:2.5;stroke-linecap:round;}
	.st19{fill:#8CC63F;stroke:#333333;stroke-width:2.5;stroke-linecap:round;stroke-miterlimit:10;}
	.st20{fill:#E6E6E6;stroke:#4D4D4D;stroke-width:2.5;stroke-miterlimit:10;}
	.st21{fill:none;stroke:#333333;stroke-width:2.5;stroke-miterlimit:10;}
	.st22{fill:none;stroke:#FFFFFF;stroke-width:2.5;stroke-linecap:round;stroke-miterlimit:10;}
	.st23{fill:#808080;}
	.st24{fill:#8CC63F;stroke:#4D4D4D;stroke-width:2.5;stroke-linecap:round;stroke-miterlimit:10;}
	.st25{fill:#B3B3B3;stroke:#333333;stroke-width:2.5;stroke-miterlimit:10;}
	.st26{fill:none;stroke:#FFFFFF;stroke-width:2.5;stroke-linecap:round;stroke-miterlimit:10;stroke-dasharray:10.072,12.0864;}
	.st27{fill:#F8F8F8;stroke:#F8F8F8;stroke-miterlimit:10;}
	.st28{fill:#F8F8F8;stroke:#F8F8F8;stroke-width:2;stroke-linecap:round;stroke-miterlimit:10;}
	.st29{opacity:0.43;fill:#B1B1B1;stroke:#333333;stroke-width:2.5;}
	.st30{opacity:0.43;fill:#B1B1B1;stroke:#333333;stroke-width:2.5;stroke-linecap:round;}
	.st31{fill:#8CBF47;stroke:#333333;stroke-width:2.5;stroke-miterlimit:10;}
	.st32{fill:#FFFFFF;stroke:#333333;stroke-width:2.5;stroke-miterlimit:10;}
	.st33{fill:none;stroke:#333333;stroke-width:2.5;stroke-linecap:round;stroke-linejoin:round;}
	.st34{fill-rule:evenodd;clip-rule:evenodd;fill:#262529;stroke:#333333;stroke-width:2.5;}
	
		.st35{fill-rule:evenodd;clip-rule:evenodd;fill:#E6E6E6;stroke:#333333;stroke-width:2.5;stroke-linecap:round;stroke-linejoin:round;}
	
		.st36{fill-rule:evenodd;clip-rule:evenodd;fill:#8CC63F;stroke:#333333;stroke-width:2.5;stroke-linecap:round;stroke-linejoin:round;}
	
		.st37{fill-rule:evenodd;clip-rule:evenodd;fill:none;stroke:#333333;stroke-width:2.5;stroke-linecap:round;stroke-linejoin:round;}
	.st38{fill:none;stroke:#CCCCCC;stroke-width:5;stroke-linecap:round;stroke-miterlimit:10;}
</style>
<path class="st0" d="M553.6,27.8c0,0.7-0.1,1.3-0.4,2c0,0-0.1,0.2-0.1,0.2l-25.7,0c-0.3-0.7-0.4-1.5-0.4-2.2c0-3.6,3.2-6.5,7.1-6.5
	c0.2,0,0.3,0,0.5,0l0,0c1.1-2.6,3.8-4.5,7.1-4.5c3.7,0,6.7,2.4,7.4,5.5c0,0,0.3,0.1,0.3,0.1c0.8,0.2,1.5,0.6,2.1,1.1
	c0.7,0.6,1.2,1.2,1.6,2C553.4,26.2,553.6,27,553.6,27.8z"/>
<g>
	<path class="st1" d="M380.4,12.8c1.1-0.3,2.3-0.8,3.4-0.9c2.1-0.2,3.5,0.9,5,2.1c0.2,0.2,0.6,0.1,0.7-0.2c0.5-1.1,0.9-2.2,1.8-3.1
		c0.9-1,2.3-1.2,3.5-1.6"/>
	<path class="st1" d="M386.1,12.2c1.2,0.5,1.8,1.3,2.7,2.1c0.3,0.2,0.7,0.1,0.9-0.2c0.4-1,0.6-2.1,1.3-3"/>
</g>
<g>
	<path class="st1" d="M914.1,20.7c0.8,0.2,1.8,0.3,2.6,0.7c1.3,0.8,1.7,2.3,2,4c0,0.3,0.3,0.3,0.5,0.2c0.8-0.7,1.7-1.5,2.7-1.9
		c1.1-0.4,2,0,3,0.1"/>
	<path class="st1" d="M917.8,22.7c0.5,0.9,0.4,1.9,0.6,3c0.1,0.3,0.4,0.4,0.6,0.2c0.7-0.7,1.5-1.6,2.4-2"/>
</g>
<g>
	<path class="st1" d="M411.1,28.7c1,0,2.2-0.2,3.2,0c1.8,0.4,2.7,2,3.6,3.8c0.1,0.3,0.5,0.3,0.6,0c0.7-1,1.5-2.1,2.5-2.8
		c1.1-0.8,2.3-0.6,3.5-0.7"/>
	<path class="st1" d="M416.1,29.8c0.8,0.9,1.1,2,1.6,3.1c0.2,0.3,0.6,0.3,0.8,0c0.6-0.9,1.2-2.1,2-2.9"/>
</g>
<path class="st0" d="M901.1,116.6c0,0.9-0.1,1.8-0.5,2.6l-0.1,0.3l-34.2,0c-0.4-0.9-0.6-1.9-0.6-3c0-4.7,4.2-8.6,9.4-8.6
	c0.2,0,0.4,0,0.6,0l0,0c1.4-3.5,5.1-6,9.5-6c4.9,0,8.9,3.2,9.9,7.4c0,0.1,0.3,0.1,0.4,0.1c1,0.2,2,0.8,2.8,1.4
	c0.9,0.7,1.6,1.7,2.1,2.7C900.9,114.6,901.1,115.6,901.1,116.6"/>
<path class="st0" d="M913.6,116.8c1.1,0.3,1.9,1.3,1.9,2.5c0,0.1,0,0.2,0,0.3h-10.8c0-1.1,0.8-1.4,0.8-1.4c0-1.2,0.9-2.1,2.2-2h0
	c0.5-1.1,1.6-1.9,2.8-1.9C912.1,114.3,913.3,115.4,913.6,116.8"/>
<path class="st0" d="M919.9,119.4h4.7c0.5,0,0.9-0.4,0.9-0.9c0-0.5-0.4-0.9-0.9-0.9h-4.7c-0.5,0-0.9,0.4-0.9,0.9
	C919,119,919.4,119.4,919.9,119.4"/>
<path class="st0" d="M970.2,119.4h4.7c0.5,0,0.9-0.4,0.9-0.9c0-0.5-0.4-0.9-0.9-0.9h-4.7c-0.5,0-0.9,0.4-0.9,0.9
	C969.2,119,969.6,119.4,970.2,119.4"/>
<path class="st0" d="M472.1,85.1c3.8,1,6.7,4.4,6.7,8.6c0,0.3,0,0.6-0.1,0.9l-37.4,0c-0.2-3.7,2.7-5,2.7-5c-0.1-4,3-7.1,7.7-6.8h0.1
	c1.7-3.7,5.4-6.5,9.7-6.5C466.8,76.3,471.2,80,472.1,85.1"/>
<path class="st0" d="M433.1,90.9c1.5,0.4,2.5,1.7,2.5,3.3c0,0.1,0,0.2,0,0.4l-14.3,0c-0.1-1.4,1-1.9,1-1.9c0-1.5,1.1-2.7,3-2.6h0
	c0.6-1.4,2.1-2.5,3.7-2.5C431.1,87.6,432.8,89,433.1,90.9"/>
<path class="st0" d="M483.5,94.7h17.5c0.5,0,0.9-0.4,0.9-0.9c0-0.5-0.4-0.9-0.9-0.9h-17.5c-0.5,0-0.9,0.4-0.9,0.9
	C482.6,94.4,483,94.7,483.5,94.7"/>
<path class="st0" d="M412.6,94.9h4.4c0.5,0,0.9-0.4,0.9-0.9c0-0.5-0.4-0.9-0.9-0.9h-4.4c-0.5,0-0.9,0.4-0.9,0.9
	C411.7,94.5,412.1,94.9,412.6,94.9"/>
<path class="st0" d="M367.9,94.6h17.5c0.5,0,0.9-0.4,0.9-0.9c0-0.5-0.4-0.9-0.9-0.9h-17.5c-0.5,0-0.9,0.4-0.9,0.9
	C367,94.3,367.4,94.6,367.9,94.6"/>
<path class="st0" d="M601.5,129.7c0,0.9-0.2,1.9-0.5,2.8l-0.2,0.3l-35.9,0c-0.4-1-0.6-2-0.6-3.1c0-5,4.4-9,9.9-9c0.2,0,0.4,0,0.7,0
	l0,0c1.5-3.7,5.4-6.3,10-6.3c5.1,0,9.4,3.3,10.4,7.7c0,0.1,0.4,0.1,0.4,0.1c1.1,0.3,2.1,0.8,2.9,1.5c1,0.8,1.7,1.8,2.2,2.8
	C601.2,127.5,601.5,128.6,601.5,129.7"/>
<path class="st0" d="M797.6,173c1.3,0.3,2.3,1.5,2.3,2.9c0,0.1,0,0.2,0,0.3h-12.7c-0.1-1.2,0.9-1.7,0.9-1.7c0-1.4,1-2.4,2.6-2.3h0
	c0.6-1.3,1.8-2.2,3.3-2.2C795.8,170,797.3,171.3,797.6,173"/>
<path class="st0" d="M805,176h5.6c0.6,0,1.1-0.5,1.1-1.1c0-0.6-0.5-1.1-1.1-1.1H805c-0.6,0-1.1,0.5-1.1,1.1
	C803.9,175.5,804.4,176,805,176"/>
<path class="st0" d="M554.5,132.4h4.3c0.5,0,0.8-0.4,0.8-0.8c0-0.5-0.4-0.8-0.8-0.8h-4.3c-0.5,0-0.8,0.4-0.8,0.8
	C553.6,132,554,132.4,554.5,132.4"/>
<path class="st2" d="M792.6,20.5c-2.9,0.8-5.1,3.4-5.1,6.6c0,0.2,0,0.5,0,0.7l28.7,0c0.1-2.8-2.1-3.8-2.1-3.8c0.1-3.1-2.3-5.5-6-5.2
	h-0.1c-1.3-2.9-4.1-5-7.5-5C796.6,13.8,793.2,16.7,792.6,20.5"/>
<path class="st2" d="M820.9,28.1h13.4c0.4,0,0.7-0.3,0.7-0.7c0-0.4-0.3-0.7-0.7-0.7h-13.4c-0.4,0-0.7,0.3-0.7,0.7
	C820.3,27.8,820.6,28.1,820.9,28.1"/>
<path class="st2" d="M766.4,28.2h3.4c0.4,0,0.7-0.3,0.7-0.7c0-0.4-0.3-0.7-0.7-0.7h-3.4c-0.4,0-0.7,0.3-0.7,0.7
	C765.8,27.9,766.1,28.2,766.4,28.2"/>
<path class="st2" d="M394,239.5h4.2c0.5,0,0.8-0.4,0.8-0.8c0-0.5-0.4-0.8-0.8-0.8H394c-0.5,0-0.8,0.4-0.8,0.8
	C393.2,239.1,393.6,239.5,394,239.5"/>
<path class="st2" d="M367.1,239.5h16.6c0.5,0,0.8-0.4,0.8-0.8c0-0.5-0.4-0.8-0.8-0.8h-16.6c-0.5,0-0.8,0.4-0.8,0.8
	C366.3,239.1,366.7,239.5,367.1,239.5"/>
<path class="st2" d="M405.6,167.3h3.6c0.4,0,0.7-0.3,0.7-0.7s-0.3-0.7-0.7-0.7h-3.6c-0.4,0-0.7,0.3-0.7,0.7S405.2,167.3,405.6,167.3
	"/>
<path class="st2" d="M386.9,167.3h14.5c0.4,0,0.7-0.3,0.7-0.7s-0.3-0.7-0.7-0.7h-14.5c-0.4,0-0.7,0.3-0.7,0.7
	S386.5,167.3,386.9,167.3"/>
<polyline class="st3" points="758.3,298.3 758.3,141.9 589.2,141.6 589.2,143.2 589.2,298.5 "/>
<g>
	<g>
		<line class="st4" x1="589.1" y1="227.9" x2="681.8" y2="227.7"/>
		<line class="st4" x1="589.1" y1="220.2" x2="681.8" y2="220"/>
		<line class="st4" x1="600.6" y1="227.5" x2="600.6" y2="220.5"/>
		<line class="st4" x1="612.4" y1="227.5" x2="612.4" y2="220.5"/>
		<line class="st4" x1="623.7" y1="227.5" x2="623.7" y2="220.5"/>
		<line class="st4" x1="635.5" y1="227.5" x2="635.5" y2="220.5"/>
		<line class="st4" x1="646.9" y1="227.5" x2="646.9" y2="220.5"/>
		<line class="st4" x1="658.7" y1="227.5" x2="658.7" y2="220.5"/>
		<line class="st4" x1="670.4" y1="227.5" x2="670.4" y2="220.5"/>
		<line class="st4" x1="589.3" y1="235.8" x2="681.8" y2="235.6"/>
		<line class="st4" x1="594.8" y1="235.5" x2="594.8" y2="228.5"/>
		<line class="st4" x1="606.5" y1="235.5" x2="606.5" y2="228.5"/>
		<line class="st4" x1="617.9" y1="235.5" x2="617.9" y2="228.5"/>
		<line class="st4" x1="629.6" y1="235.5" x2="629.6" y2="228.5"/>
		<line class="st4" x1="641.1" y1="235.5" x2="641.1" y2="228.5"/>
		<line class="st4" x1="652.9" y1="235.5" x2="652.9" y2="228.5"/>
		<line class="st4" x1="664.6" y1="235.5" x2="664.6" y2="228.5"/>
		<line class="st4" x1="676.8" y1="235.5" x2="676.8" y2="228.5"/>
		<line class="st4" x1="589.2" y1="243.8" x2="681.9" y2="243.6"/>
		<line class="st4" x1="600.7" y1="243.4" x2="600.7" y2="236.4"/>
		<line class="st4" x1="612.5" y1="243.4" x2="612.5" y2="236.4"/>
		<line class="st4" x1="623.8" y1="243.4" x2="623.8" y2="236.4"/>
		<line class="st4" x1="635.5" y1="243.4" x2="635.5" y2="236.4"/>
		<line class="st4" x1="647" y1="243.4" x2="647" y2="236.4"/>
		<line class="st4" x1="658.8" y1="243.4" x2="658.8" y2="236.4"/>
		<line class="st4" x1="670.5" y1="243.4" x2="670.5" y2="236.4"/>
		<line class="st4" x1="589.4" y1="251.7" x2="681.9" y2="251.5"/>
		<line class="st4" x1="594.8" y1="251.4" x2="594.8" y2="244.4"/>
		<line class="st4" x1="606.6" y1="251.4" x2="606.6" y2="244.4"/>
		<line class="st4" x1="617.9" y1="251.4" x2="617.9" y2="244.4"/>
		<line class="st4" x1="629.7" y1="251.4" x2="629.7" y2="244.4"/>
		<line class="st4" x1="641.2" y1="251.4" x2="641.2" y2="244.4"/>
		<line class="st4" x1="652.9" y1="251.4" x2="652.9" y2="244.4"/>
		<line class="st4" x1="664.7" y1="251.4" x2="664.7" y2="244.4"/>
		<line class="st4" x1="676.9" y1="251.4" x2="676.9" y2="244.4"/>
		<line class="st4" x1="589.6" y1="259.3" x2="682.3" y2="259.1"/>
		<line class="st4" x1="601.1" y1="259" x2="601.1" y2="251.9"/>
		<line class="st4" x1="612.9" y1="259" x2="612.9" y2="251.9"/>
		<line class="st4" x1="624.2" y1="259" x2="624.2" y2="251.9"/>
		<line class="st4" x1="636" y1="259" x2="636" y2="251.9"/>
		<line class="st4" x1="647.4" y1="259" x2="647.4" y2="251.9"/>
		<line class="st4" x1="659.2" y1="259" x2="659.2" y2="251.9"/>
		<line class="st4" x1="670.9" y1="259" x2="670.9" y2="251.9"/>
		<line class="st4" x1="589.8" y1="267.2" x2="682.3" y2="267"/>
		<line class="st4" x1="595.3" y1="266.9" x2="595.3" y2="259.9"/>
		<line class="st4" x1="607" y1="266.9" x2="607" y2="259.9"/>
		<line class="st4" x1="618.3" y1="266.9" x2="618.3" y2="259.9"/>
		<line class="st4" x1="630.1" y1="266.9" x2="630.1" y2="259.9"/>
		<line class="st4" x1="641.6" y1="266.9" x2="641.6" y2="259.9"/>
		<line class="st4" x1="653.3" y1="266.9" x2="653.3" y2="259.9"/>
		<line class="st4" x1="665.1" y1="266.9" x2="665.1" y2="259.9"/>
		<line class="st4" x1="677.3" y1="266.9" x2="677.3" y2="259.9"/>
		<line class="st4" x1="589.7" y1="275.2" x2="682.4" y2="275"/>
		<line class="st4" x1="601.2" y1="274.9" x2="601.2" y2="267.8"/>
		<line class="st4" x1="613" y1="274.9" x2="613" y2="267.8"/>
		<line class="st4" x1="624.3" y1="274.9" x2="624.3" y2="267.8"/>
		<line class="st4" x1="636" y1="274.9" x2="636" y2="267.8"/>
		<line class="st4" x1="647.5" y1="274.9" x2="647.5" y2="267.8"/>
		<line class="st4" x1="659.3" y1="274.9" x2="659.3" y2="267.8"/>
		<line class="st4" x1="671" y1="274.9" x2="671" y2="267.8"/>
		<line class="st4" x1="589.8" y1="283.1" x2="682.4" y2="282.9"/>
		<line class="st4" x1="595.3" y1="282.8" x2="595.3" y2="275.8"/>
		<line class="st4" x1="607.1" y1="282.8" x2="607.1" y2="275.8"/>
		<line class="st4" x1="618.4" y1="282.8" x2="618.4" y2="275.8"/>
		<line class="st4" x1="630.2" y1="282.8" x2="630.2" y2="275.8"/>
		<line class="st4" x1="641.7" y1="282.8" x2="641.7" y2="275.8"/>
		<line class="st4" x1="653.4" y1="282.8" x2="653.4" y2="275.8"/>
		<line class="st4" x1="665.2" y1="282.8" x2="665.2" y2="275.8"/>
		<line class="st4" x1="677.3" y1="282.8" x2="677.3" y2="275.8"/>
		<line class="st4" x1="589.6" y1="290.4" x2="682.3" y2="290.2"/>
		<line class="st4" x1="601.1" y1="290" x2="601.1" y2="283"/>
		<line class="st4" x1="612.9" y1="290" x2="612.9" y2="283"/>
		<line class="st4" x1="624.2" y1="290" x2="624.2" y2="283"/>
		<line class="st4" x1="636" y1="290" x2="636" y2="283"/>
		<line class="st4" x1="647.4" y1="290" x2="647.4" y2="283"/>
		<line class="st4" x1="659.2" y1="290" x2="659.2" y2="283"/>
		<line class="st4" x1="670.9" y1="290" x2="670.9" y2="283"/>
		<line class="st4" x1="589.8" y1="298.3" x2="682.3" y2="298.1"/>
		<line class="st4" x1="595.3" y1="298" x2="595.3" y2="291"/>
		<line class="st4" x1="607" y1="298" x2="607" y2="291"/>
		<line class="st4" x1="618.3" y1="298" x2="618.3" y2="291"/>
		<line class="st4" x1="630.1" y1="298" x2="630.1" y2="291"/>
		<line class="st4" x1="641.6" y1="298" x2="641.6" y2="291"/>
		<line class="st4" x1="653.3" y1="298" x2="653.3" y2="291"/>
		<line class="st4" x1="665.1" y1="298" x2="665.1" y2="291"/>
		<line class="st4" x1="677.3" y1="298" x2="677.3" y2="291"/>
		<line class="st4" x1="681.8" y1="227.7" x2="757.8" y2="227.5"/>
		<line class="st4" x1="681.8" y1="220" x2="757.8" y2="219.9"/>
		<line class="st4" x1="694.7" y1="227.4" x2="694.7" y2="220.4"/>
		<line class="st4" x1="706.4" y1="227.4" x2="706.4" y2="220.4"/>
		<line class="st4" x1="717.8" y1="227.4" x2="717.8" y2="220.4"/>
		<line class="st4" x1="729.5" y1="227.4" x2="729.5" y2="220.4"/>
		<line class="st4" x1="741" y1="227.4" x2="741" y2="220.4"/>
		<line class="st4" x1="752.8" y1="227.4" x2="752.8" y2="220.4"/>
		<line class="st4" x1="681.8" y1="235.6" x2="757.8" y2="235.5"/>
		<line class="st4" x1="688.8" y1="235.3" x2="688.8" y2="228.3"/>
		<line class="st4" x1="700.6" y1="235.3" x2="700.6" y2="228.3"/>
		<line class="st4" x1="711.9" y1="235.3" x2="711.9" y2="228.3"/>
		<line class="st4" x1="723.7" y1="235.3" x2="723.7" y2="228.3"/>
		<line class="st4" x1="735.1" y1="235.3" x2="735.1" y2="228.3"/>
		<line class="st4" x1="746.9" y1="235.3" x2="746.9" y2="228.3"/>
		<line class="st4" x1="681.9" y1="243.6" x2="757.9" y2="243.4"/>
		<line class="st4" x1="694.7" y1="243.3" x2="694.7" y2="236.3"/>
		<line class="st4" x1="706.5" y1="243.3" x2="706.5" y2="236.3"/>
		<line class="st4" x1="717.8" y1="243.3" x2="717.8" y2="236.3"/>
		<line class="st4" x1="729.6" y1="243.3" x2="729.6" y2="236.3"/>
		<line class="st4" x1="741.1" y1="243.3" x2="741.1" y2="236.3"/>
		<line class="st4" x1="752.8" y1="243.3" x2="752.8" y2="236.3"/>
		<line class="st4" x1="681.8" y1="251.5" x2="757.8" y2="251.4"/>
		<line class="st4" x1="688.9" y1="251.2" x2="688.9" y2="244.2"/>
		<line class="st4" x1="700.7" y1="251.2" x2="700.7" y2="244.2"/>
		<line class="st4" x1="712" y1="251.2" x2="712" y2="244.2"/>
		<line class="st4" x1="723.7" y1="251.2" x2="723.7" y2="244.2"/>
		<line class="st4" x1="735.2" y1="251.2" x2="735.2" y2="244.2"/>
		<line class="st4" x1="747" y1="251.2" x2="747" y2="244.2"/>
		<line class="st4" x1="682.2" y1="259.1" x2="758.2" y2="258.9"/>
		<line class="st4" x1="695.2" y1="258.8" x2="695.2" y2="251.8"/>
		<line class="st4" x1="706.9" y1="258.8" x2="706.9" y2="251.8"/>
		<line class="st4" x1="718.2" y1="258.8" x2="718.2" y2="251.8"/>
		<line class="st4" x1="730" y1="258.8" x2="730" y2="251.8"/>
		<line class="st4" x1="741.5" y1="258.8" x2="741.5" y2="251.8"/>
		<line class="st4" x1="753.2" y1="258.8" x2="753.2" y2="251.8"/>
		<line class="st4" x1="682.2" y1="267" x2="758.2" y2="266.9"/>
		<line class="st4" x1="689.3" y1="266.7" x2="689.3" y2="259.7"/>
		<line class="st4" x1="701.1" y1="266.7" x2="701.1" y2="259.7"/>
		<line class="st4" x1="712.4" y1="266.7" x2="712.4" y2="259.7"/>
		<line class="st4" x1="724.2" y1="266.7" x2="724.2" y2="259.7"/>
		<line class="st4" x1="735.6" y1="266.7" x2="735.6" y2="259.7"/>
		<line class="st4" x1="747.4" y1="266.7" x2="747.4" y2="259.7"/>
		<line class="st4" x1="682.3" y1="275" x2="758.3" y2="274.8"/>
		<line class="st4" x1="695.2" y1="274.7" x2="695.2" y2="267.7"/>
		<line class="st4" x1="707" y1="274.7" x2="707" y2="267.7"/>
		<line class="st4" x1="718.3" y1="274.7" x2="718.3" y2="267.7"/>
		<line class="st4" x1="730.1" y1="274.7" x2="730.1" y2="267.7"/>
		<line class="st4" x1="741.6" y1="274.7" x2="741.6" y2="267.7"/>
		<line class="st4" x1="753.3" y1="274.7" x2="753.3" y2="267.7"/>
		<line class="st4" x1="682.2" y1="282.9" x2="758.2" y2="282.8"/>
		<line class="st4" x1="689.4" y1="282.6" x2="689.4" y2="275.6"/>
		<line class="st4" x1="701.1" y1="282.6" x2="701.1" y2="275.6"/>
		<line class="st4" x1="712.5" y1="282.6" x2="712.5" y2="275.6"/>
		<line class="st4" x1="724.2" y1="282.6" x2="724.2" y2="275.6"/>
		<line class="st4" x1="735.7" y1="282.6" x2="735.7" y2="275.6"/>
		<line class="st4" x1="747.5" y1="282.6" x2="747.5" y2="275.6"/>
		<line class="st4" x1="682.2" y1="290.2" x2="758.2" y2="290"/>
		<line class="st4" x1="695.2" y1="289.9" x2="695.2" y2="282.9"/>
		<line class="st4" x1="706.9" y1="289.9" x2="706.9" y2="282.9"/>
		<line class="st4" x1="718.2" y1="289.9" x2="718.2" y2="282.9"/>
		<line class="st4" x1="730" y1="289.9" x2="730" y2="282.9"/>
		<line class="st4" x1="741.5" y1="289.9" x2="741.5" y2="282.9"/>
		<line class="st4" x1="753.2" y1="289.9" x2="753.2" y2="282.9"/>
		<line class="st4" x1="682.2" y1="298.1" x2="758.2" y2="297.9"/>
		<line class="st4" x1="689.3" y1="297.8" x2="689.3" y2="290.8"/>
		<line class="st4" x1="701.1" y1="297.8" x2="701.1" y2="290.8"/>
		<line class="st4" x1="712.4" y1="297.8" x2="712.4" y2="290.8"/>
		<line class="st4" x1="724.2" y1="297.8" x2="724.2" y2="290.8"/>
		<line class="st4" x1="735.6" y1="297.8" x2="735.6" y2="290.8"/>
		<line class="st4" x1="747.4" y1="297.8" x2="747.4" y2="290.8"/>
		<line class="st4" x1="682.8" y1="227.3" x2="682.8" y2="220.3"/>
		<line class="st4" x1="682.9" y1="243.2" x2="682.9" y2="236.2"/>
		<line class="st4" x1="683.3" y1="258.7" x2="683.3" y2="251.7"/>
		<line class="st4" x1="683.4" y1="274.6" x2="683.4" y2="267.6"/>
		<line class="st4" x1="683.3" y1="289.8" x2="683.3" y2="282.8"/>
	</g>
	<line class="st4" x1="589.3" y1="149.8" x2="682" y2="149.6"/>
	<line class="st4" x1="589.3" y1="142.1" x2="681.9" y2="141.9"/>
	<line class="st4" x1="600.8" y1="149.4" x2="600.8" y2="142.4"/>
	<line class="st4" x1="612.5" y1="149.4" x2="612.5" y2="142.4"/>
	<line class="st4" x1="623.9" y1="149.4" x2="623.9" y2="142.4"/>
	<line class="st4" x1="635.6" y1="149.4" x2="635.6" y2="142.4"/>
	<line class="st4" x1="647.1" y1="149.4" x2="647.1" y2="142.4"/>
	<line class="st4" x1="658.9" y1="149.4" x2="658.9" y2="142.4"/>
	<line class="st4" x1="670.6" y1="149.4" x2="670.6" y2="142.4"/>
	<line class="st4" x1="589.4" y1="157.7" x2="681.9" y2="157.5"/>
	<line class="st4" x1="594.9" y1="157.4" x2="594.9" y2="150.4"/>
	<line class="st4" x1="606.7" y1="157.4" x2="606.7" y2="150.4"/>
	<line class="st4" x1="618" y1="157.4" x2="618" y2="150.4"/>
	<line class="st4" x1="629.8" y1="157.4" x2="629.8" y2="150.4"/>
	<line class="st4" x1="641.2" y1="157.4" x2="641.2" y2="150.4"/>
	<line class="st4" x1="653" y1="157.4" x2="653" y2="150.4"/>
	<line class="st4" x1="664.7" y1="157.4" x2="664.7" y2="150.4"/>
	<line class="st4" x1="676.9" y1="157.4" x2="676.9" y2="150.4"/>
	<line class="st4" x1="589.4" y1="165.7" x2="682" y2="165.5"/>
	<line class="st4" x1="600.8" y1="165.3" x2="600.8" y2="158.3"/>
	<line class="st4" x1="612.6" y1="165.3" x2="612.6" y2="158.3"/>
	<line class="st4" x1="623.9" y1="165.3" x2="623.9" y2="158.3"/>
	<line class="st4" x1="635.7" y1="165.3" x2="635.7" y2="158.3"/>
	<line class="st4" x1="647.2" y1="165.3" x2="647.2" y2="158.3"/>
	<line class="st4" x1="658.9" y1="165.3" x2="658.9" y2="158.3"/>
	<line class="st4" x1="670.7" y1="165.3" x2="670.7" y2="158.3"/>
	<line class="st4" x1="589.5" y1="173.6" x2="682" y2="173.4"/>
	<line class="st4" x1="595" y1="173.3" x2="595" y2="166.3"/>
	<line class="st4" x1="606.8" y1="173.3" x2="606.8" y2="166.3"/>
	<line class="st4" x1="618.1" y1="173.3" x2="618.1" y2="166.3"/>
	<line class="st4" x1="629.8" y1="173.3" x2="629.8" y2="166.3"/>
	<line class="st4" x1="641.3" y1="173.3" x2="641.3" y2="166.3"/>
	<line class="st4" x1="653.1" y1="173.3" x2="653.1" y2="166.3"/>
	<line class="st4" x1="664.8" y1="173.3" x2="664.8" y2="166.3"/>
	<line class="st4" x1="677" y1="173.3" x2="677" y2="166.3"/>
	<line class="st4" x1="589.8" y1="181.2" x2="682.4" y2="181"/>
	<line class="st4" x1="601.3" y1="180.8" x2="601.3" y2="173.8"/>
	<line class="st4" x1="613" y1="180.8" x2="613" y2="173.8"/>
	<line class="st4" x1="624.3" y1="180.8" x2="624.3" y2="173.8"/>
	<line class="st4" x1="636.1" y1="180.8" x2="636.1" y2="173.8"/>
	<line class="st4" x1="647.6" y1="180.8" x2="647.6" y2="173.8"/>
	<line class="st4" x1="659.3" y1="180.8" x2="659.3" y2="173.8"/>
	<line class="st4" x1="671.1" y1="180.8" x2="671.1" y2="173.8"/>
	<line class="st4" x1="589.9" y1="189.1" x2="682.4" y2="188.9"/>
	<line class="st4" x1="595.4" y1="188.8" x2="595.4" y2="181.8"/>
	<line class="st4" x1="607.2" y1="188.8" x2="607.2" y2="181.8"/>
	<line class="st4" x1="618.5" y1="188.8" x2="618.5" y2="181.8"/>
	<line class="st4" x1="630.3" y1="188.8" x2="630.3" y2="181.8"/>
	<line class="st4" x1="641.7" y1="188.8" x2="641.7" y2="181.8"/>
	<line class="st4" x1="653.5" y1="188.8" x2="653.5" y2="181.8"/>
	<line class="st4" x1="665.2" y1="188.8" x2="665.2" y2="181.8"/>
	<line class="st4" x1="677.4" y1="188.8" x2="677.4" y2="181.8"/>
	<line class="st4" x1="589.8" y1="197.1" x2="682.5" y2="196.9"/>
	<line class="st4" x1="601.3" y1="196.7" x2="601.3" y2="189.7"/>
	<line class="st4" x1="613.1" y1="196.7" x2="613.1" y2="189.7"/>
	<line class="st4" x1="624.4" y1="196.7" x2="624.4" y2="189.7"/>
	<line class="st4" x1="636.2" y1="196.7" x2="636.2" y2="189.7"/>
	<line class="st4" x1="647.7" y1="196.7" x2="647.7" y2="189.7"/>
	<line class="st4" x1="659.4" y1="196.7" x2="659.4" y2="189.7"/>
	<line class="st4" x1="671.2" y1="196.7" x2="671.2" y2="189.7"/>
	<line class="st4" x1="590" y1="205" x2="682.5" y2="204.8"/>
	<line class="st4" x1="595.5" y1="204.7" x2="595.5" y2="197.7"/>
	<line class="st4" x1="607.2" y1="204.7" x2="607.2" y2="197.7"/>
	<line class="st4" x1="618.6" y1="204.7" x2="618.6" y2="197.7"/>
	<line class="st4" x1="630.3" y1="204.7" x2="630.3" y2="197.7"/>
	<line class="st4" x1="641.8" y1="204.7" x2="641.8" y2="197.7"/>
	<line class="st4" x1="653.6" y1="204.7" x2="653.6" y2="197.7"/>
	<line class="st4" x1="665.3" y1="204.7" x2="665.3" y2="197.7"/>
	<line class="st4" x1="677.5" y1="204.7" x2="677.5" y2="197.7"/>
	<line class="st4" x1="589.8" y1="212.3" x2="682.4" y2="212.1"/>
	<line class="st4" x1="601.3" y1="211.9" x2="601.3" y2="204.9"/>
	<line class="st4" x1="613" y1="211.9" x2="613" y2="204.9"/>
	<line class="st4" x1="624.3" y1="211.9" x2="624.3" y2="204.9"/>
	<line class="st4" x1="636.1" y1="211.9" x2="636.1" y2="204.9"/>
	<line class="st4" x1="647.6" y1="211.9" x2="647.6" y2="204.9"/>
	<line class="st4" x1="659.3" y1="211.9" x2="659.3" y2="204.9"/>
	<line class="st4" x1="671.1" y1="211.9" x2="671.1" y2="204.9"/>
	<line class="st4" x1="595.4" y1="219.9" x2="595.4" y2="212.8"/>
	<line class="st4" x1="607.2" y1="219.9" x2="607.2" y2="212.8"/>
	<line class="st4" x1="618.5" y1="219.9" x2="618.5" y2="212.8"/>
	<line class="st4" x1="630.3" y1="219.9" x2="630.3" y2="212.8"/>
	<line class="st4" x1="641.7" y1="219.9" x2="641.7" y2="212.8"/>
	<line class="st4" x1="653.5" y1="219.9" x2="653.5" y2="212.8"/>
	<line class="st4" x1="665.2" y1="219.9" x2="665.2" y2="212.8"/>
	<line class="st4" x1="677.4" y1="219.9" x2="677.4" y2="212.8"/>
	<line class="st4" x1="682" y1="149.6" x2="757.9" y2="149.4"/>
	<line class="st4" x1="681.9" y1="141.9" x2="757.9" y2="141.8"/>
	<line class="st4" x1="694.8" y1="149.3" x2="694.8" y2="142.3"/>
	<line class="st4" x1="706.6" y1="149.3" x2="706.6" y2="142.3"/>
	<line class="st4" x1="717.9" y1="149.3" x2="717.9" y2="142.3"/>
	<line class="st4" x1="729.7" y1="149.3" x2="729.7" y2="142.3"/>
	<line class="st4" x1="741.1" y1="149.3" x2="741.1" y2="142.3"/>
	<line class="st4" x1="752.9" y1="149.3" x2="752.9" y2="142.3"/>
	<line class="st4" x1="681.9" y1="157.5" x2="757.9" y2="157.3"/>
	<line class="st4" x1="689" y1="157.2" x2="689" y2="150.2"/>
	<line class="st4" x1="700.7" y1="157.2" x2="700.7" y2="150.2"/>
	<line class="st4" x1="712.1" y1="157.2" x2="712.1" y2="150.2"/>
	<line class="st4" x1="723.8" y1="157.2" x2="723.8" y2="150.2"/>
	<line class="st4" x1="735.3" y1="157.2" x2="735.3" y2="150.2"/>
	<line class="st4" x1="747" y1="157.2" x2="747" y2="150.2"/>
	<line class="st4" x1="682" y1="165.5" x2="758" y2="165.3"/>
	<line class="st4" x1="694.9" y1="165.2" x2="694.9" y2="158.2"/>
	<line class="st4" x1="706.7" y1="165.2" x2="706.7" y2="158.2"/>
	<line class="st4" x1="718" y1="165.2" x2="718" y2="158.2"/>
	<line class="st4" x1="729.7" y1="165.2" x2="729.7" y2="158.2"/>
	<line class="st4" x1="741.2" y1="165.2" x2="741.2" y2="158.2"/>
	<line class="st4" x1="753" y1="165.2" x2="753" y2="158.2"/>
	<line class="st4" x1="682" y1="173.4" x2="758" y2="173.2"/>
	<line class="st4" x1="689" y1="173.1" x2="689" y2="166.1"/>
	<line class="st4" x1="700.8" y1="173.1" x2="700.8" y2="166.1"/>
	<line class="st4" x1="712.1" y1="173.1" x2="712.1" y2="166.1"/>
	<line class="st4" x1="723.9" y1="173.1" x2="723.9" y2="166.1"/>
	<line class="st4" x1="735.4" y1="173.1" x2="735.4" y2="166.1"/>
	<line class="st4" x1="747.1" y1="173.1" x2="747.1" y2="166.1"/>
	<line class="st4" x1="682.4" y1="181" x2="758.3" y2="180.8"/>
	<line class="st4" x1="695.3" y1="180.7" x2="695.3" y2="173.7"/>
	<line class="st4" x1="707.1" y1="180.7" x2="707.1" y2="173.7"/>
	<line class="st4" x1="718.4" y1="180.7" x2="718.4" y2="173.7"/>
	<line class="st4" x1="730.2" y1="180.7" x2="730.2" y2="173.7"/>
	<line class="st4" x1="741.6" y1="180.7" x2="741.6" y2="173.7"/>
	<line class="st4" x1="753.4" y1="180.7" x2="753.4" y2="173.7"/>
	<line class="st4" x1="682.3" y1="188.9" x2="758.3" y2="188.8"/>
	<line class="st4" x1="689.5" y1="188.6" x2="689.5" y2="181.6"/>
	<line class="st4" x1="701.2" y1="188.6" x2="701.2" y2="181.6"/>
	<line class="st4" x1="712.5" y1="188.6" x2="712.5" y2="181.6"/>
	<line class="st4" x1="724.3" y1="188.6" x2="724.3" y2="181.6"/>
	<line class="st4" x1="735.8" y1="188.6" x2="735.8" y2="181.6"/>
	<line class="st4" x1="747.5" y1="188.6" x2="747.5" y2="181.6"/>
	<line class="st4" x1="682.4" y1="196.9" x2="758.4" y2="196.7"/>
	<line class="st4" x1="695.4" y1="196.6" x2="695.4" y2="189.6"/>
	<line class="st4" x1="707.1" y1="196.6" x2="707.1" y2="189.6"/>
	<line class="st4" x1="718.5" y1="196.6" x2="718.5" y2="189.6"/>
	<line class="st4" x1="730.2" y1="196.6" x2="730.2" y2="189.6"/>
	<line class="st4" x1="741.7" y1="196.6" x2="741.7" y2="189.6"/>
	<line class="st4" x1="753.5" y1="196.6" x2="753.5" y2="189.6"/>
	<line class="st4" x1="682.4" y1="204.8" x2="758.4" y2="204.7"/>
	<line class="st4" x1="689.5" y1="204.5" x2="689.5" y2="197.5"/>
	<line class="st4" x1="701.3" y1="204.5" x2="701.3" y2="197.5"/>
	<line class="st4" x1="712.6" y1="204.5" x2="712.6" y2="197.5"/>
	<line class="st4" x1="724.4" y1="204.5" x2="724.4" y2="197.5"/>
	<line class="st4" x1="735.8" y1="204.5" x2="735.8" y2="197.5"/>
	<line class="st4" x1="747.6" y1="204.5" x2="747.6" y2="197.5"/>
	<line class="st4" x1="682.4" y1="212.1" x2="758.3" y2="211.9"/>
	<line class="st4" x1="695.3" y1="211.8" x2="695.3" y2="204.8"/>
	<line class="st4" x1="707.1" y1="211.8" x2="707.1" y2="204.8"/>
	<line class="st4" x1="718.4" y1="211.8" x2="718.4" y2="204.8"/>
	<line class="st4" x1="730.2" y1="211.8" x2="730.2" y2="204.8"/>
	<line class="st4" x1="741.6" y1="211.8" x2="741.6" y2="204.8"/>
	<line class="st4" x1="753.4" y1="211.8" x2="753.4" y2="204.8"/>
	<line class="st4" x1="689.5" y1="219.7" x2="689.5" y2="212.7"/>
	<line class="st4" x1="701.2" y1="219.7" x2="701.2" y2="212.7"/>
	<line class="st4" x1="712.5" y1="219.7" x2="712.5" y2="212.7"/>
	<line class="st4" x1="724.3" y1="219.7" x2="724.3" y2="212.7"/>
	<line class="st4" x1="735.8" y1="219.7" x2="735.8" y2="212.7"/>
	<line class="st4" x1="747.5" y1="219.7" x2="747.5" y2="212.7"/>
	<line class="st4" x1="682.9" y1="149.2" x2="682.9" y2="142.2"/>
	<line class="st4" x1="683" y1="165.1" x2="683" y2="158.1"/>
	<line class="st4" x1="683.4" y1="180.6" x2="683.4" y2="173.6"/>
	<line class="st4" x1="683.5" y1="196.5" x2="683.5" y2="189.5"/>
	<line class="st4" x1="683.4" y1="211.7" x2="683.4" y2="204.7"/>
</g>
<path class="st5" d="M931.4,220.2v-29.5c0-1.2-0.4-1-1.6-1h-33.6c-1.2,0-2.2-0.2-2.2,1v29.5"/>
<line class="st6" x1="932.3" y1="205.9" x2="894.4" y2="205.9"/>
<line class="st6" x1="913.3" y1="189.7" x2="913.3" y2="221.3"/>
<path class="st7" d="M932.7,220.8c0-1-0.8-1.9-1.9-1.9h-36.9c-1,0-1.9,0.8-1.9,1.9v0.4c0,1,0.8,1.9,1.9,1.9h36.9
	c1,0,1.9-0.8,1.9-1.9V220.8z"/>
<g>
	<line class="st8" x1="892.2" y1="209.2" x2="890.3" y2="210.8"/>
	<line class="st8" x1="895.8" y1="209.5" x2="890.1" y2="214.1"/>
</g>
<g>
	<line class="st8" x1="911.9" y1="192.9" x2="909.9" y2="194.5"/>
	<line class="st8" x1="915.5" y1="193.2" x2="909.8" y2="197.7"/>
</g>
<path class="st9" d="M706.6,88.4v-8.1c0-3.4,3.7-4.4,7.9-4.4h12.9c4.2,0,7.6,1.9,7.6,5.3l-0.1,31"/>
<polyline class="st9" points="589.2,298.5 589.3,201.7 480.7,201.7 480.7,248 480.7,298.2 509.3,298.5 "/>
<path class="st5" d="M587.1,187.4l-106.6,8.8c-1.3,0.1-2.1,1.2-2.1,2.4l0.1,0.3c0,1.4,1.2,2.7,2.5,2.7h106.9c1.4,0,1.5-1.7,1.5-3
	v-8.8C589.3,188.4,588.5,187.3,587.1,187.4z"/>
<path class="st9" d="M505.8,295.2h75.6c1.7,0,3.1-1.4,3.1-3.1v-79.7c0-1.7-1.4-3.1-3.1-3.1h-92.8c-1.7,0-3.1,1.4-3.1,3.1v13v67.4
	c0,1.3,1.1,2.4,2.4,2.4H505.8z"/>
<path class="st9" d="M656,298.2v-55c0-10,8.8-17.2,18.8-17.2h0.2c10,0,18,7.2,18,17.2v55"/>
<path class="st5" d="M734.5,194.2v-36.3c0-1.5-0.5-1.2-2-1.2h-41.3c-1.4,0-2.7-0.3-2.7,1.2v36.3"/>
<path class="st5" d="M657.7,194.2v-36.5c0-1.5-1-1-2.4-1h-41.5c-1.4,0-2.8-0.5-2.8,1v36.5"/>
<path class="st6" d="M661,267.6c0,0.9,0.7,1.6,1.6,1.6c0.9,0,1.6-0.7,1.6-1.6c0-0.9-0.7-1.6-1.6-1.6C661.7,266,661,266.7,661,267.6"
	/>
<path class="st10" d="M520.9,297.2"/>
<path class="st11" d="M687.8,244c0-1.4-1.1-2.6-2.6-2.6h-21.6c-1.4,0-2.6,1.1-2.6,2.6v14.8c0,1.4,1.1,2.6,2.6,2.6h21.6
	c1.4,0,2.6-1.1,2.6-2.6V244z"/>
<path class="st12" d="M758.4,251.3"/>
<path class="st12" d="M728.8,255.6"/>
<path class="st5" d="M759.5,141.9h4c2.3,0,3.4-3.3,1.6-4.8l-89.4-74.6c-0.9-0.8-2.3-0.9-3.2-0.1l-89.6,74.5
	c-1.8,1.5-0.7,4.4,1.6,4.4l4.7,0.4L759.5,141.9z"/>
<line class="st6" x1="735.6" y1="176.6" x2="689" y2="176.6"/>
<line class="st6" x1="658.3" y1="175.4" x2="612.2" y2="175.4"/>
<line class="st6" x1="712.3" y1="156.7" x2="712.3" y2="195.4"/>
<line class="st6" x1="634.4" y1="156.6" x2="634.4" y2="195.4"/>
<path class="st13" d="M736.2,194.9c0-1.3-1-2.3-2.3-2.3h-45.4c-1.3,0-2.3,1-2.3,2.3v0.5c0,1.3,1,2.3,2.3,2.3h45.4
	c1.3,0,2.3-1,2.3-2.3V194.9z"/>
<path class="st13" d="M658.8,194.9c0-1.3-1-2.3-2.3-2.3h-45.4c-1.3,0-2.3,1-2.3,2.3v0.5c0,1.3,1,2.3,2.3,2.3h45.4
	c1.3,0,2.3-1,2.3-2.3V194.9z"/>
<path class="st9" d="M584.5,247.1c0-1.7-1.4-3.1-3.1-3.1h-92.8c-1.7,0-3.1,1.4-3.1,3.1v2.9c0,1.7,1.4,3.1,3.1,3.1h92.8
	c1.7,0,3.1-1.4,3.1-3.1V247.1z"/>
<path class="st9" d="M584.5,230c0-1.7-1.4-3.1-3.1-3.1h-92.8c-1.7,0-3.1,1.4-3.1,3.1v2.9c0,1.7,1.4,3.1,3.1,3.1h92.8
	c1.7,0,3.1-1.4,3.1-3.1V230z"/>
<path class="st9" d="M584.5,212.4c0-1.7-1.4-3.1-3.1-3.1h-92.8c-1.7,0-3.1,1.4-3.1,3.1v1.8c0,1.7,1.4,3.1,3.1,3.1h92.8
	c1.7,0,3.1-1.4,3.1-3.1V212.4z"/>
<circle class="st14" cx="726.2" cy="260.1" r="14.1"/>
<path class="st15" d="M721.5,268.9c-3.2-1.7-5.3-5-5.3-8.8c0-3.8,2.1-7.1,5.2-8.8"/>
<path class="st15" d="M730.9,251.3c3.1,1.7,5.3,5,5.3,8.8c0,3.8-2.1,7.1-5.3,8.8"/>
<path d="M730.9,272.8l0,0.6c-1.6,0.5-3.1,0.8-4.8,0.8c-1.6,0-3.2-0.3-4.7-0.8l0-0.7l0-1.2v-4.1l0-4c-0.7-0.9-1-2.1-1-3.3
	c0-1.2,0.4-2.4,1-3.3l0-0.3v-9.6c1.6-0.6,3.1-0.8,4.8-0.8c1.6,0,3.2,0.3,4.7,0.8v9.6v0.2c0.7,1,1.2,2.2,1.2,3.5
	c0,1.3-0.4,2.5-1.2,3.5l0,0.4v7.6"/>
<circle class="st16" cx="726.2" cy="260.1" r="3.9"/>
<circle class="st17" cx="726.2" cy="269.1" r="1"/>
<path class="st18" d="M726.3,259.9c5.3,0,10.8,0,15.8,1.8c3.3,1.2,5.9,3.5,7.9,6.3c1.9,2.7,2.7,6,4.4,8.7c3.6,5.5,9.4,5.4,13.1,0.2
	c2.8-4,3.6-9.4,7-13c2.9-3.1,7.1-4.2,11.2-4.3"/>
<line class="st19" x1="915.1" y1="297.2" x2="915.1" y2="230.1"/>
<line class="st20" x1="520.3" y1="298.5" x2="965.5" y2="298.5"/>
<path class="st21" d="M933.7,192.1c8.1,3.5,13.1,11.7,12.3,21.1c-1,11.6-11.2,20.3-22.9,19.3c-1.3-0.1-2.6-0.5-3.8-0.9
	c-0.6-0.2-1.2-0.4-1.9-0.7c-0.5-0.2-1.1-0.6-1.7-0.7c-0.7-0.1-1.3,0.4-1.8,0.7c-0.6,0.3-1.1,0.6-1.7,0.9c-1.2,0.5-2.4,0.9-3.6,1.2
	c-2.2,0.5-4.5,0.7-6.8,0.5c-11.6-1-20.3-11.2-19.3-22.9c0.5-6.4,3.9-11.9,8.7-15.3l0-0.1c-0.3-1.7-0.3-3.3-0.2-5.1
	c1-11.6,11.2-20.3,22.9-19.3c11,0.9,19.3,10.2,19.3,21L933.7,192.1z"/>
<path class="st5" d="M633.8,272.7v-36.5c0-1.5-0.5-1-1.2-1h-20.2c-0.7,0-1.3-0.5-1.3,1v36.5"/>
<line class="st6" x1="633.8" y1="253.9" x2="612.2" y2="253.9"/>
<path class="st13" d="M634.2,277.6H610c-1.1,0-2-0.9-2-2v-1.2c0-1.1,0.9-2,2-2h24.2c1.1,0,2,0.9,2,2v1.2
	C636.2,276.7,635.3,277.6,634.2,277.6z"/>
<g>
	<line class="st22" x1="617.3" y1="160.5" x2="614.9" y2="162.5"/>
	<line class="st22" x1="621.7" y1="160.9" x2="614.7" y2="166.5"/>
</g>
<g>
	<line class="st22" x1="640.3" y1="179.1" x2="637.8" y2="181"/>
	<line class="st22" x1="644.7" y1="179.5" x2="637.7" y2="185.1"/>
</g>
<g>
	<line class="st22" x1="694.3" y1="180.6" x2="691.9" y2="182.6"/>
	<line class="st22" x1="698.7" y1="181" x2="691.7" y2="186.6"/>
</g>
<g>
	<line class="st22" x1="718.5" y1="160.5" x2="716.1" y2="162.5"/>
	<line class="st22" x1="722.9" y1="160.9" x2="715.9" y2="166.5"/>
</g>
<g>
	<line class="st22" x1="617.3" y1="239.7" x2="614.9" y2="241.6"/>
	<line class="st22" x1="621.7" y1="240.1" x2="614.7" y2="245.7"/>
</g>
<path class="st3" d="M933.7,192.1c8.1,3.5,13.1,11.7,12.3,21.1c-1,11.6-11.2,20.3-22.9,19.3c-1.3-0.1-2.6-0.5-3.8-0.9
	c-0.6-0.2-1.3-0.4-1.9-0.7c-0.4-0.2-0.8-0.5-1.3-0.6c-0.5-0.2-1,0-1.4,0.2c-0.3,0.2-0.5,0.3-0.8,0.5c-0.6,0.3-1.1,0.6-1.7,0.8
	c-1.2,0.5-2.4,0.9-3.6,1.2c-2.2,0.5-4.5,0.7-6.8,0.5c-11.6-1-20.3-11.2-19.3-22.9c0.5-6.4,3.9-11.9,8.7-15.3l0-0.1
	c-0.3-1.7-0.3-3.3-0.2-5.1c1-11.6,11.2-20.3,22.9-19.3c11,0.9,19.3,10.2,19.3,21L933.7,192.1z"/>
<line class="st8" x1="915.1" y1="230.1" x2="927.6" y2="218.8"/>
<polyline class="st8" points="915.1,210.7 915.1,230.1 903.9,220.4 "/>
<circle class="st23" cx="891.4" cy="314.9" r="2.2"/>
<circle class="st23" cx="936.8" cy="314.9" r="1.1"/>
<circle class="st23" cx="865.3" cy="312.7" r="1.1"/>
<path class="st9" d="M584.7,280.9c0-1.7-1.4-3.1-3.1-3.1h-92.8c-1.7,0-3.1,1.4-3.1,3.1v2.9c0,1.7,1.4,3.1,3.1,3.1h92.8
	c1.7,0,3.1-1.4,3.1-3.1V280.9z"/>
<path class="st9" d="M584.7,264.4c0-1.7-1.4-3.1-3.1-3.1h-92.8c-1.7,0-3.1,1.4-3.1,3.1v1.8c0,1.7,1.4,3.1,3.1,3.1h92.8
	c1.7,0,3.1-1.4,3.1-3.1V264.4z"/>
<path class="st5" d="M968.9,237.1v-23.3c0-1-0.3-0.8-1.3-0.8H941c-0.9,0-1.8-0.2-1.8,0.8v23.3"/>
<line class="st6" x1="969.6" y1="225.8" x2="939.6" y2="225.8"/>
<line class="st6" x1="954.6" y1="213" x2="954.6" y2="238"/>
<path class="st7" d="M970,237.6c0-0.8-0.7-1.5-1.5-1.5h-29.2c-0.8,0-1.5,0.7-1.5,1.5v0.3c0,0.8,0.7,1.5,1.5,1.5h29.2
	c0.8,0,1.5-0.7,1.5-1.5V237.6z"/>
<g>
	<line class="st8" x1="937.9" y1="228.4" x2="936.4" y2="229.7"/>
	<line class="st8" x1="940.8" y1="228.7" x2="936.3" y2="232.3"/>
</g>
<g>
	<line class="st8" x1="953.5" y1="215.5" x2="952" y2="216.8"/>
	<line class="st8" x1="956.3" y1="215.8" x2="951.9" y2="219.4"/>
</g>
<line class="st24" x1="956" y1="299" x2="956" y2="244.9"/>
<path class="st21" d="M970.7,214.9c6.4,2.8,10.4,9.3,9.7,16.6c-0.8,9.2-8.9,16-18.1,15.2c-1-0.1-2-0.4-3-0.7c-0.5-0.2-1-0.3-1.5-0.5
	c-0.4-0.2-0.8-0.5-1.3-0.6c-0.5-0.1-1,0.3-1.4,0.6c-0.4,0.2-0.9,0.5-1.3,0.7c-0.9,0.4-1.9,0.7-2.9,1c-1.8,0.4-3.6,0.6-5.4,0.4
	c-9.2-0.8-16-8.9-15.2-18.1c0.4-5,3.1-9.4,6.9-12.1l0,0c-0.2-1.3-0.3-2.6-0.1-4c0.8-9.2,8.9-16,18.1-15.2c8.7,0.7,15.3,8,15.3,16.6
	L970.7,214.9z"/>
<path class="st3" d="M970.7,214.9c6.4,2.8,10.4,9.3,9.7,16.6c-0.8,9.2-8.9,16-18.1,15.2c-1-0.1-2-0.4-3-0.7c-0.5-0.2-1-0.4-1.5-0.6
	c-0.3-0.1-0.7-0.4-1-0.5c-0.4-0.1-0.8,0-1.1,0.2c-0.2,0.1-0.4,0.3-0.6,0.4c-0.4,0.2-0.9,0.5-1.3,0.7c-0.9,0.4-1.9,0.7-2.9,1
	c-1.7,0.4-3.6,0.6-5.3,0.4c-9.2-0.8-16-8.9-15.2-18.1c0.4-5,3.1-9.4,6.9-12.1l0,0c-0.2-1.3-0.3-2.6-0.1-4c0.8-9.2,8.9-16,18.1-15.2
	c8.7,0.7,15.3,8,15.3,16.6L970.7,214.9z"/>
<line class="st8" x1="956" y1="244.9" x2="965.9" y2="236"/>
<polyline class="st8" points="956,229.6 956,244.9 947.2,237.2 "/>
<path class="st25" d="M970.5,319H17.5C11.7,319,7,314.3,7,308.5l0,0c0-5.8,4.7-10.5,10.5-10.5h952.9c5.8,0,10.5,4.7,10.5,10.5l0,0
	C981,314.3,976.3,319,970.5,319z"/>
<g>
	<g>
		<line class="st22" x1="27.4" y1="309.1" x2="32.4" y2="309.1"/>
		<line class="st26" x1="44.5" y1="309.1" x2="946.9" y2="309.1"/>
		<line class="st22" x1="953" y1="309.1" x2="958" y2="309.1"/>
	</g>
</g>
<circle class="st27" cx="663" cy="358" r="1.9"/>
<circle class="st27" cx="721.9" cy="356.1" r="1.2"/>
<circle class="st27" cx="802.1" cy="349.3" r="1.3"/>
<circle class="st27" cx="603.9" cy="356.1" r="0.8"/>
<line class="st28" x1="968.8" y1="342.4" x2="981.2" y2="342.4"/>
<line class="st28" x1="885.6" y1="342.4" x2="960.3" y2="342.4"/>
<line class="st28" x1="689.2" y1="342.4" x2="873.5" y2="342.4"/>
<line class="st28" x1="663.1" y1="342.4" x2="673.8" y2="342.4"/>
<line class="st28" x1="499.3" y1="342.4" x2="646.6" y2="342.4"/>
<circle class="st27" cx="850.4" cy="357.4" r="1.3"/>
<line class="st28" x1="21" y1="332.1" x2="980" y2="332"/>
<line class="st28" x1="445" y1="342.8" x2="489.8" y2="342.8"/>
<line class="st28" x1="422.7" y1="342.8" x2="435.1" y2="342.8"/>
<line class="st28" x1="337.4" y1="342.8" x2="412.2" y2="342.8"/>
<line class="st28" x1="141.1" y1="342.8" x2="325.3" y2="342.8"/>
<line class="st28" x1="114.9" y1="342.8" x2="125.7" y2="342.8"/>
<line class="st28" x1="21" y1="342.8" x2="159.1" y2="342.8"/>
<path class="st29" d="M859.8,273.3H833c-6.6,0-11.9-5.3-11.9-11.9v-3c0-6.6,5.3-11.9,11.9-11.9h26.8c6.6,0,11.9,5.3,11.9,11.9v3
	C871.8,267.9,866.4,273.3,859.8,273.3z"/>
<line class="st30" x1="785.6" y1="249" x2="772" y2="258.6"/>
<line class="st30" x1="776.5" y1="247.6" x2="772.5" y2="250.7"/>
<path class="st31" d="M941.9,270.3c0.1-0.2,0.2-0.4,0.3-0.6c1-2.6,0-5.5-1.5-7.8c-3.6-5.3-9.6-8.4-15.7-10.3
	c-6.1-1.9-12.4-2.8-18.5-4.8c-9.8-3.2-18.4-9.2-27.7-13.4c-14-6.3-29.4-8.6-44.7-8.8c-9.5-0.1-19.1,0.5-28.6,1.4
	c-4.8,0.5-9.5,1-14.3,1.6c-2.4,0.3-4.7,0.6-7.1,0.9c-1.4,0.2-5.2,0.5-2.2,1.9c1.9,0.9,4.1,0.2,6,1.2c3.6,1.7,0.3,6.1-1.4,7.9
	c-3.1,3.3-7.5,4.7-11.6,6.3c-1.8,0.7-3.9,1.6-5.1,3.3c-1.5,2.1-1,4.6-1.1,7c-0.2,4.7-2.8,8.9-4,13.4c-1.4,5.6-0.2,11.8,3.1,16.5
	c1.5,0,2.4,0.1,3.9,0.1c-1.1-6.5,2.1-13.6,7.6-17.2c5.5-3.6,13.7-3.7,19.2-0.1c5.5,3.6,8.8,10.9,7.7,17.4c28.9,0,56.7,0,85.6,0
	c-0.6-7.6,2.3-13.6,7.8-17.2c5.5-3.6,13.5-3.6,19,0s8.7,10.7,7.7,17.2c5.1,0,10,0,15.1,0c1.7-1.5,1.3-4.3,0.4-6.4
	c-0.9-2.1-2.1-4.3-1.5-6.5C940.6,272.2,941.4,271.3,941.9,270.3z"/>
<path class="st32" d="M846,250.1H891c1.5,0,1.7-1.4,0.4-2.2c0,0-17.7-11.2-21.5-13c-7.8-3.7-16.5-4.3-25-4.6
	c-7.9-0.3-15.9-0.3-23.8,0c-4,0.1-7.9,0.4-11.9,0.7c-3.4,0.3-7.1,0.2-10.2,1.8c-0.7,0.2-1.1,1-1.5,1.6c-1.8,2.9-3.6,5.9-5.2,8.9
	c-0.6,1-0.9,2.1-0.3,3.1c1.6,2.9,5.1,3.7,8.2,3.8c2.6,0.1,5.3,0,7.9,0c6,0,12,0,18,0c3.3,0,6.5,0,9.8,0H846z"/>
<path class="st21" d="M786,231.1c-2.9,1.4-12.2,11.1-13.7,15.6"/>
<circle class="st6" cx="785.6" cy="253.5" r="3.2"/>
<g>
	<line class="st33" x1="805.9" y1="236.5" x2="810.7" y2="240.2"/>
	<line class="st33" x1="801.9" y1="237" x2="805.5" y2="239.9"/>
</g>
<path class="st34" d="M909.3,297.1c-7.8,0-14-6.3-14-14c0-7.8,6.3-14,14-14c7.8,0,14,6.3,14,14C923.4,290.8,917.1,297.1,909.3,297.1
	L909.3,297.1z"/>
<path class="st35" d="M909.3,293.3c-5.6,0-10.2-4.6-10.2-10.2c0-5.6,4.6-10.2,10.2-10.2c5.6,0,10.2,4.6,10.2,10.2
	C919.6,288.7,915,293.3,909.3,293.3L909.3,293.3z"/>
<path class="st36" d="M909.3,286.3c-1.8,0-3.3-1.5-3.3-3.3c0-1.8,1.5-3.3,3.3-3.3c1.8,0,3.3,1.5,3.3,3.3
	C912.6,284.9,911.1,286.3,909.3,286.3L909.3,286.3z"/>
<path class="st34" d="M789.2,298c7.8,0,14-6.3,14-14c0-7.8-6.3-14-14-14s-14,6.3-14,14C775.2,291.7,781.4,298,789.2,298L789.2,298z"
	/>
<path class="st35" d="M789.2,294.2c5.6,0,10.2-4.6,10.2-10.2c0-5.6-4.6-10.2-10.2-10.2S779,278.4,779,284
	C779,289.6,783.6,294.2,789.2,294.2L789.2,294.2z"/>
<path class="st36" d="M789.2,287.3c-1.8,0-3.3-1.5-3.3-3.3c0-1.8,1.5-3.3,3.3-3.3c1.8,0,3.3,1.5,3.3,3.3
	C792.5,285.8,791,287.3,789.2,287.3L789.2,287.3z"/>
<path class="st35" d="M935.1,275.3c-1.2,0.3-1.6,1.3-1.3,2.2c0.1,0.1,0.1,0.3,0.2,0.4c0.1,0.1,0.1,0.2,0.3,0.3c0.1,0,0.3,0,0.4-0.1
	c0.3-0.2,0.5-0.5,0.7-0.8c0.1-0.1,0.2-0.2,0.2-0.3c0.2-0.3,0.3-0.6,0.4-0.9c0-0.2,0.1-0.5-0.1-0.7
	C935.7,275.2,935.4,275.2,935.1,275.3z"/>
<path class="st37" d="M936.1,272.8c-4.4-1.9-7,5.5-1.9,7.9"/>
<path class="st36" d="M854.1,257.9c-0.1-0.9-0.9-1.5-1.8-1.5h-1.7c-0.8,0-1.4,0.5-1.7,1.2l-0.1,1.7c0.1,0.9,0.9,1.6,1.8,1.6h1.7
	c0.9,0,1.6-0.6,1.7-1.4L854.1,257.9z"/>
<path class="st36" d="M805.6,256.8c0.1,0.9,0.9,1.6,1.8,1.6h1.7c0.9,0,1.6-0.6,1.7-1.4l0-1.5c-0.1-0.9-0.9-1.5-1.8-1.5h-1.7
	c-0.8,0-1.4,0.5-1.7,1.2L805.6,256.8z"/>
<path class="st35" d="M900,244.2l8.4,8.4c1.2,1,2.4,1.7,3.9,2c8.5,2,17.3,5.8,26.1,8.1c0.4,0.1,0.7,0.1,0.3-0.4
	c-5-5.4-10.7-8.9-17-10.5c-4.8-1.2-10.6-1.3-15.1-1.3"/>
<path class="st37" d="M931.3,260.7c-5.8-2.3-10.5-5.1-12.6-9.3"/>
<g>
	<line class="st33" x1="844.4" y1="243.3" x2="848" y2="245.8"/>
	<line class="st33" x1="843.7" y1="238.3" x2="854.6" y2="246.6"/>
</g>
<path class="st36" d="M875.7,246.5c0.3-1.6,2.2-2.8,3.8-2.3c2.9,1,4.7,2.6,5.6,4.7c0.1,0.2,0,0.4-0.1,0.5c-1.7,1.6-3.5,1.8-6.5,1.6
	C876.9,250.9,875.4,248.1,875.7,246.5L875.7,246.5z"/>
<path class="st37" d="M885.1,250.9c0.5,0.8,1.3,1.6,2,2.6c2,3,1.4,13.2-0.6,24.3c-0.3,1.4-1.5,2.4-2.9,2.4l-64.9-0.7
	c-3,0-4.8-1.4-6.5-3.6c-5.7-7.4-17.7-22-20.2-29.6"/>
<path class="st37" d="M840.4,279.6c1.3-10,1.9-20.2-0.1-31.7l-2.9-17.6"/>
<path class="st5" d="M771.7,248.2c-0.6-0.1-1.1,0.1-1.5,0.5c-0.2,0.2-0.4,0.5-0.6,0.7c-1.4,2.1-1,4.6-1,7c0,0.2,0,0.3,0,0.5
	c-0.1,1.2,0.9,2.1,2,2c2.4-0.4,2.9-5.3,3-7.4c0-0.6,0-1.2-0.1-1.7c-0.2-0.8-0.8-1.5-1.6-1.6L771.7,248.2z"/>
<path class="st7" d="M772.1,255c0.6,0.1,0.9,0.7,0.7,1.3c-0.4,1.3-1.1,2.4-2.2,2.6c-1.1,0.2-2.1-0.8-2-2c0-0.2,0-0.3,0-0.5
	c0-0.4,0-0.8,0-1.2C769.9,254.9,770.8,254.7,772.1,255z"/>
<polyline class="st21" points="758.3,298.6 758.3,142.2 589.2,141.9 589.2,143.5 589.2,298.8 "/>
<path class="st14" d="M735.6,81.8h-29.5c-1.8,0-3.2-1.4-3.2-3.2v-10c0-1.8,1.4-3.2,3.2-3.2h29.5c1.8,0,3.2,1.4,3.2,3.2v10
	C738.8,80.4,737.4,81.8,735.6,81.8z"/>
<path class="st25" d="M728.5,65.3h-15.3c-0.6,0-1-0.5-1-1V57c0-0.6,0.5-1,1-1h15.3c0.6,0,1,0.5,1,1v7.3
	C729.5,64.8,729,65.3,728.5,65.3z"/>
<line class="st8" x1="706.6" y1="85.4" x2="719.4" y2="85.4"/>
<line class="st8" x1="707.7" y1="88.9" x2="715.1" y2="88.9"/>
<line class="st38" x1="620" y1="126.5" x2="632.8" y2="126.5"/>
<line class="st38" x1="645.1" y1="86.3" x2="657.9" y2="86.3"/>
<line class="st38" x1="645.1" y1="112.2" x2="657.9" y2="112.2"/>
<line class="st38" x1="694.3" y1="107.5" x2="707.1" y2="107.5"/>
<line class="st38" x1="686.5" y1="114.1" x2="699.3" y2="114.1"/>
<line class="st38" x1="736.5" y1="125.2" x2="749.3" y2="125.2"/>
<line class="st38" x1="608.9" y1="117" x2="621.7" y2="117"/>
<line class="st38" x1="699.5" y1="132.1" x2="712.3" y2="132.1"/>
<path class="st21" d="M759.5,141.9h4c2.3,0,3.4-3.3,1.6-4.8l-89.4-74.6c-0.9-0.8-2.3-0.9-3.2-0.1l-89.6,74.5
	c-1.8,1.5-0.7,4.4,1.6,4.4l4.7,0.4L759.5,141.9z"/>
<path class="st2" d="M787,119.4h4.6c0.5,0,0.9-0.4,0.9-0.9c0-0.5-0.4-0.9-0.9-0.9H787c-0.5,0-0.9,0.4-0.9,0.9
	C786.1,119,786.5,119.4,787,119.4"/>
<path class="st2" d="M757.4,119.4h18.3c0.5,0,0.9-0.4,0.9-0.9c0-0.5-0.4-0.9-0.9-0.9h-18.3c-0.5,0-0.9,0.4-0.9,0.9
	C756.5,119,756.9,119.4,757.4,119.4"/>
<path class="st9" d="M542.2,272.9h-13.9c-1.8,0-3.2-1.4-3.2-3.2v-0.8c0-1.8,1.4-3.2,3.2-3.2h13.9c1.8,0,3.2,1.4,3.2,3.2v0.8
	C545.4,271.5,543.9,272.9,542.2,272.9z"/>
<path class="st8" d="M532.4,266.4v0.5c0,1.5,1.2,2.8,2.8,2.8l0,0c1.5,0,2.8-1.2,2.8-2.8v-0.5"/>
<path class="st0" d="M486,149.8c0,0.7-0.1,1.3-0.4,1.9l-0.1,0.2l-25.3,0c-0.3-0.7-0.4-1.4-0.4-2.2c0-3.5,3.1-6.4,7-6.4
	c0.2,0,0.3,0,0.5,0l0,0c1.1-2.6,3.8-4.5,7-4.5c3.6,0,6.6,2.3,7.3,5.5c0,0,0.3,0.1,0.3,0.1c0.8,0.2,1.5,0.6,2.1,1.1
	c0.7,0.5,1.2,1.2,1.5,2C485.8,148.3,486,149,486,149.8"/>
<circle class="st27" cx="185" cy="360" r="1.9"/>
<circle class="st27" cx="243.9" cy="358.1" r="1.2"/>
<circle class="st27" cx="125.9" cy="358.1" r="0.8"/>
<circle class="st27" cx="522.8" cy="359.1" r="1.9"/>
<circle class="st27" cx="43.3" cy="355.4" r="1"/>
<circle class="st27" cx="372.4" cy="359.4" r="1.3"/>
</svg>
