<?xml version="1.0" encoding="utf-8"?>
<!-- Generator: Adobe Illustrator 21.0.2, SVG Export Plug-In . SVG Version: 6.00 Build 0)  -->
<svg version="1.1" id="Layer_1" xmlns="http://www.w3.org/2000/svg" xmlns:xlink="http://www.w3.org/1999/xlink" x="0px" y="0px"
	 viewBox="0 0 500 500" style="enable-background:new 0 0 500 500;" xml:space="preserve">
<path d="M452.3,256.8c-10.3-10.3-27-10.3-37.3,0L275.4,396.4V38.1c0-14.6-11.8-26.4-26.4-26.4s-26.4,11.8-26.4,26.4v358.3
	L83.1,256.8c-10.3-10.3-27-10.3-37.3,0c-10.3,10.3-10.3,27,0,37.3l184.6,184.6l0.1,0.1c0.6,0.6,1.2,1.2,1.9,1.7l0,0
	c0.6,0.5,1.2,0.9,1.9,1.4c0.2,0.1,0.4,0.2,0.6,0.4c0.5,0.3,1,0.6,1.5,0.9c0.2,0.1,0.4,0.2,0.6,0.3c0.6,0.3,1.3,0.6,2,0.9l0,0
	c0.6,0.2,1.2,0.4,1.8,0.6c0.2,0.1,0.5,0.2,0.7,0.2c0.4,0.1,0.9,0.2,1.3,0.3c0.4,0.1,0.8,0.2,1.2,0.3c0.2,0,0.4,0.1,0.7,0.1
	c0.6,0.1,1.2,0.2,1.8,0.3c0.8,0.1,1.7,0.1,2.5,0.1c0.9,0,1.7,0,2.6-0.1c0.1,0,0.3,0,0.4-0.1c0.7-0.1,1.4-0.2,2.1-0.3
	c0.1,0,0.2,0,0.3-0.1c0.8-0.2,1.5-0.3,2.2-0.6l0,0c2.4-0.7,4.8-1.8,7-3.3c0.1-0.1,0.1-0.1,0.2-0.2c0.6-0.4,1.3-0.9,1.9-1.4
	c0.7-0.6,1.3-1.2,2-1.8l184.6-184.6C462.6,283.8,462.6,267.1,452.3,256.8z"/>
</svg>
