<?xml version="1.0" encoding="utf-8"?>
<!-- Generator: Adobe Illustrator 21.0.2, SVG Export Plug-In . SVG Version: 6.00 Build 0)  -->
<svg version="1.1" id="Layer_1" xmlns="http://www.w3.org/2000/svg" xmlns:xlink="http://www.w3.org/1999/xlink" x="0px" y="0px"
	 viewBox="0 0 500 500" style="enable-background:new 0 0 500 500;" xml:space="preserve">
<style type="text/css">
	.st0{fill:#8CC63F;}
</style>
<g>
	<path class="st0" d="M251.7,485c-3.8,0-9.9-1.3-18-12.5L107.1,301.6c-23.1-31.1-35.2-68.1-35.2-106.9C71.9,95.6,152.6,15,251.7,15
		s179.8,80.6,179.8,179.8c0,33.6-5.2,66.3-31.9,102.2L269.6,472.6C261.5,483.7,255.5,485,251.7,485z M251.7,39
		c-85.9,0-155.8,69.9-155.8,155.8c0,33.6,10.6,65.6,30.5,92.6l125.3,169.2l125.7-170.1c20.2-28,30.6-58.9,30.1-91.8
		C406.2,108.9,337.6,39,251.7,39z"/>
</g>
<g>
	<path class="st0" d="M265.7,99.9c-0.3,0-0.6-0.2-0.9-0.3c-27.1,42.7-54.1,85.2-81.6,128.4c18,0.5,35.1,0.9,52.7,1.4
		c-0.7,26-1.3,51.6-2,77.3c0.3,0.1,0.5,0.2,0.7,0.3c27.1-42.6,54.2-85.1,81.4-128.2c-17.8-0.5-34.9-0.9-52.3-1.4
		C264.3,151.4,265,125.6,265.7,99.9z"/>
</g>
</svg>
