<?xml version="1.0" encoding="utf-8"?>
<!-- Generator: Adobe Illustrator 21.0.2, SVG Export Plug-In . SVG Version: 6.00 Build 0)  -->
<svg version="1.1" id="Layer_1" xmlns="http://www.w3.org/2000/svg" xmlns:xlink="http://www.w3.org/1999/xlink" x="0px" y="0px"
	 viewBox="0 0 500 500" style="enable-background:new 0 0 500 500;" xml:space="preserve">
<g>
	<g>
		<path d="M314.7,484.9c-14,0-27.9-0.1-41.8-0.3c-13.4-0.1-26.7-0.3-40-0.3l-35,0.1c-23.5,0.1-47.1,0.2-70.5-0.2l0.5-29.3
			c-0.6-0.3,1.6-3.5,3.3-16.7c6.6-50.7,9.5-104.4,8.7-159.7c-0.4-26-1.6-53.3-3.6-81c-0.5-6.9-1.2-13.7-1.9-20.6
			c-1.7-17-3.4-34.6-2.5-52.5c1.2-22.8,7.2-42.6,17.7-58.6c16.4-25,41.7-41,75.4-47.4C275.7,8.7,322.6,28,350.5,70l-24.8,16.1
			c-21.4-32.2-55.9-46.3-95.1-38.9c-25.7,4.9-44.1,16.2-56.1,34.5c-7.7,11.7-12,26.6-13,44.3c-0.8,15.7,0.7,31.4,2.4,48.1
			c0.7,7.1,1.4,14.2,1.9,21.3c2.1,28.3,3.3,56.1,3.7,82.7c0.8,56.7-2.2,111.8-8.9,163.9c-0.6,4.8-1.5,9.2-2.5,13.2
			c13.2,0,26.4,0,39.6-0.1l35.1-0.1c13.4,0,26.9,0.1,40.3,0.3c28.1,0.3,56.3,0.5,84.5-0.3c25.9-0.8,37.4-13,41.2-43.4l29.4,3.6
			c-5.6,44.5-29,67.8-69.7,69.2C344,484.7,329.3,484.9,314.7,484.9z"/>
	</g>
	<g>
		<rect x="71.3" y="224.4" width="209.3" height="29.3"/>
	</g>
</g>
</svg>
