<?xml version="1.0" encoding="utf-8"?>
<!-- Generator: Adobe Illustrator 21.0.2, SVG Export Plug-In . SVG Version: 6.00 Build 0)  -->
<svg version="1.1" id="Layer_1" xmlns="http://www.w3.org/2000/svg" xmlns:xlink="http://www.w3.org/1999/xlink" x="0px" y="0px"
	 viewBox="0 0 500 500" style="enable-background:new 0 0 500 500;" xml:space="preserve">
<path d="M471.9,481.4c-25.9-79.2-93.2-136.5-174.8-152.6c68.2-19.3,118.2-82,118.2-156.2C415.4,83,342.5,10.2,253,10.2
	C163.5,10.2,90.7,83,90.7,172.5c0,73.3,48.8,135.4,115.6,155.5c-83.6,15.1-152.8,73.1-179,153.7c-1.2,3.7,0.8,7.7,4.6,8.9
	c0.7,0.2,1.5,0.3,2.2,0.3c3,0,5.8-1.9,6.7-4.9c28.7-88.4,112.6-147.8,208.9-147.8c96.1,0,180,59.3,208.8,147.5
	c1.2,3.7,5.2,5.7,8.9,4.5C471.1,489.1,473.1,485.1,471.9,481.4z M104.9,172.5c0-81.7,66.5-148.2,148.2-148.2s148.2,66.5,148.2,148.2
	S334.7,320.7,253,320.7S104.9,254.2,104.9,172.5z"/>
</svg>
