<?xml version="1.0" encoding="utf-8"?>
<!-- Generator: Adobe Illustrator 21.0.2, SVG Export Plug-In . SVG Version: 6.00 Build 0)  -->
<svg version="1.1" id="Layer_1" xmlns="http://www.w3.org/2000/svg" xmlns:xlink="http://www.w3.org/1999/xlink" x="0px" y="0px"
	 viewBox="0 0 165 33" width="130" height="26" style="enable-background:new 0 0 165 33;" xml:space="preserve">
<g>
	<circle style="fill:#FFFFFF;" cx="15.3" cy="16.4" r="11.6"/>
	<circle style="fill:#FFFFFF;" cx="15.3" cy="16.2" r="12.2"/>
	<polygon style="fill:#8FC043;" points="21,24.7 15.3,20.3 9.6,24.7 11.8,17.5 6.2,13.1 13,13.1 15.3,6.3 17.6,13.1 24.5,13.1
		18.8,17.5 	"/>
	<g>
		<path style="fill:#FFFFFF;" d="M33,7.4c0-0.6,0.5-1.1,1.1-1.1h7.3c2.4,0,4.3,0.7,5.6,2c1,1,1.5,2.3,1.5,3.9v0.1
			c0,3.2-2.2,5.1-5.2,5.7l4.9,6.3c0.2,0.3,0.4,0.5,0.4,0.8c0,0.6-0.6,1.1-1.1,1.1c-0.4,0-0.8-0.3-1-0.6L41,18.4h-5.6V25
			c0,0.6-0.5,1.1-1.1,1.1s-1.1-0.5-1.1-1.1V7.4H33z M41.3,16.3c2.9,0,5-1.5,5-4v-0.1c0-2.4-1.9-3.9-5-3.9h-6.1v8H41.3L41.3,16.3z"/>
		<path style="fill:#FFFFFF;" d="M53,24.8V7.4c0-0.6,0.5-1.1,1.1-1.1h12.2c0.6,0,1,0.4,1,1s-0.4,1-1,1H55.2V15H65c0.6,0,1,0.5,1,1
			c0,0.6-0.4,1-1,1h-9.8v6.9h11.2c0.6,0,1,0.4,1,1s-0.4,1-1,1H54.1C53.5,25.9,53,25.4,53,24.8z"/>
		<path style="fill:#FFFFFF;" d="M77.8,25.2L70.2,7.8c-0.1-0.2-0.1-0.3-0.1-0.5c0-0.6,0.5-1.1,1.1-1.1s1,0.4,1.1,0.8l6.8,16.3
			L86,6.9c0.2-0.4,0.6-0.8,1.1-0.8c0.6,0,1.1,0.5,1.1,1.1c0,0.2,0,0.3-0.1,0.4l-7.6,17.6c-0.3,0.6-0.6,0.9-1.3,0.9h-0.1
			C78.5,26.2,78,25.8,77.8,25.2z"/>
		<path style="fill:#FFFFFF;" d="M92.3,7.3c0-0.6,0.5-1.1,1.1-1.1s1.1,0.5,1.1,1.1V25c0,0.6-0.5,1.1-1.1,1.1s-1.1-0.5-1.1-1.1V7.3z"
			/>
		<path style="fill:#FFFFFF;" d="M100,24.8V7.4c0-0.6,0.5-1.1,1.1-1.1h12.2c0.6,0,1,0.4,1,1s-0.4,1-1,1h-11.1V15h9.8
			c0.6,0,1,0.5,1,1c0,0.6-0.4,1-1,1h-9.8v6.9h11.2c0.6,0,1,0.4,1,1s-0.4,1-1,1h-12.3C100.5,25.9,100,25.4,100,24.8z"/>
		<path style="fill:#FFFFFF;" d="M117.3,7.8c-0.1-0.2-0.1-0.3-0.1-0.5c0-0.6,0.5-1.1,1.1-1.1s1,0.4,1.1,0.9l5.4,15.6L130,7
			c0.2-0.5,0.5-0.9,1.1-0.9h0.1c0.6,0,0.9,0.4,1.1,0.9l5.1,15.6L142.9,7c0.2-0.5,0.5-0.9,1.1-0.9s1.1,0.5,1.1,1.1
			c0,0.2-0.1,0.4-0.1,0.5l-6.3,17.4c-0.2,0.6-0.6,1-1.1,1h-0.2c-0.6,0-1-0.4-1.1-1L131.2,10L126,25.2c-0.2,0.6-0.6,1-1.1,1h-0.2
			c-0.6,0-1-0.4-1.1-1L117.3,7.8z"/>
		<path style="fill:#FFFFFF;" d="M147.9,23.6c-0.3-0.2-0.4-0.5-0.4-0.8c0-0.6,0.5-1.1,1.1-1.1c0.3,0,0.5,0.1,0.7,0.3
			c1.9,1.6,3.7,2.3,6.2,2.3c2.6,0,4.4-1.4,4.4-3.3v-0.1c0-1.8-1-2.9-5.1-3.7c-4.5-1-6.6-2.4-6.6-5.7v-0.1c0-3.1,2.7-5.4,6.4-5.4
			c2.6,0,4.5,0.6,6.3,1.9c0.2,0.2,0.5,0.5,0.5,0.9c0,0.6-0.5,1.1-1.1,1.1c-0.3,0-0.4-0.1-0.6-0.2C158,8.5,156.4,8,154.6,8
			c-2.6,0-4.2,1.4-4.2,3.2v0.1c0,1.9,1,2.9,5.3,3.8c4.4,1,6.4,2.6,6.4,5.6v0.1c0,3.4-2.8,5.6-6.7,5.6
			C152.4,26.2,150.1,25.3,147.9,23.6z"/>
	</g>
</g>
</svg>
