<?xml version="1.0" encoding="utf-8"?>
<!-- Generator: Adobe Illustrator 21.0.2, SVG Export Plug-In . SVG Version: 6.00 Build 0)  -->
<svg version="1.1" id="Layer_1" xmlns="http://www.w3.org/2000/svg" xmlns:xlink="http://www.w3.org/1999/xlink" x="0px" y="0px"
	 viewBox="0 0 500 500" style="enable-background:new 0 0 500 500;" xml:space="preserve">
<g>
	<path d="M440.3,102.7h-84.8V80.8c0-34.1-27.8-61.9-61.9-61.9h-83.9c-34.1,0-61.9,27.8-61.9,61.9v21.9H63
		c-11,0-20,9-20,20s9,20,20,20h21.9v273.5c0,34.1,27.8,61.9,61.9,61.9h209.6c34.1,0,61.9-27.8,61.9-61.9V142.7h21.9c11,0,20-9,20-20
		S451.4,102.7,440.3,102.7z M187.8,80.8c0-12.1,9.8-21.9,21.9-21.9h83.9c12.1,0,21.9,9.8,21.9,21.9v21.9H187.8V80.8z M378.4,416.2
		c0,12.1-9.8,21.9-21.9,21.9H146.9c-12.1,0-21.9-9.8-21.9-21.9V142.7h253.5V416.2z"/>
	<path d="M194,207.5c-11,0-20,9-20,20v125.8c0,11,9,20,20,20s20-9,20-20V227.5C214,216.5,205.1,207.5,194,207.5z"/>
	<path d="M298.8,207.5c-11,0-20,9-20,20v125.8c0,11,9,20,20,20s20-9,20-20V227.5C318.8,216.5,309.9,207.5,298.8,207.5z"
		/>
</g>
</svg>
