<?xml version="1.0" encoding="utf-8"?>
<!-- Generator: Adobe Illustrator 21.0.2, SVG Export Plug-In . SVG Version: 6.00 Build 0)  -->
<svg version="1.1" id="Layer_1" xmlns="http://www.w3.org/2000/svg" xmlns:xlink="http://www.w3.org/1999/xlink" x="0px" y="0px"
	 viewBox="0 0 500 500" style="enable-background:new 0 0 500 500;" xml:space="preserve">
<g>
	<path d="M281,250.6L472.4,59.2c8.7-8.7,8.7-22.7,0-31.4s-22.7-8.7-31.4,0L249.7,219.2L58.3,27.9
		c-8.7-8.7-22.7-8.7-31.4,0s-8.7,22.7,0,31.4l191.4,191.4L26.9,442c-8.7,8.7-8.7,22.7,0,31.4c4.4,4.4,10,6.5,15.7,6.5
		s11.3-2.1,15.7-6.5l191.4-191.4l191.4,191.4c4.4,4.4,10,6.5,15.7,6.5c5.7,0,11.3-2.1,15.7-6.5c8.7-8.7,8.7-22.7,0-31.4L281,250.6z"
		/>
</g>
</svg>
