<?xml version="1.0" encoding="utf-8"?>
<!-- Generator: Adobe Illustrator 21.0.2, SVG Export Plug-In . SVG Version: 6.00 Build 0)  -->
<svg version="1.1" id="Layer_1" xmlns="http://www.w3.org/2000/svg" xmlns:xlink="http://www.w3.org/1999/xlink" x="0px" y="0px"
	 viewBox="0 0 500 500" style="enable-background:new 0 0 500 500;" xml:space="preserve">
<path d="M281.9,249L479.6,51.2c9-9,9-23.5,0-32.4s-23.5-9-32.4,0L249.5,216.5L51.7,18.8c-9-9-23.5-9-32.4,0s-9,23.5,0,32.4
	L217.1,249L19.3,446.7c-9,9-9,23.5,0,32.4c4.5,4.5,10.3,6.7,16.2,6.7c5.9,0,11.7-2.2,16.2-6.7l197.8-197.8l197.8,197.8
	c4.5,4.5,10.3,6.7,16.2,6.7c5.9,0,11.7-2.2,16.2-6.7c9-9,9-23.5,0-32.4L281.9,249z"/>
</svg>
