<?xml version="1.0" encoding="utf-8"?>
<!-- Generator: Adobe Illustrator 21.0.2, SVG Export Plug-In . SVG Version: 6.00 Build 0)  -->
<svg version="1.1" id="Layer_1" xmlns="http://www.w3.org/2000/svg" xmlns:xlink="http://www.w3.org/1999/xlink" x="0px" y="0px"
	 viewBox="0 0 500 500" style="enable-background:new 0 0 500 500;" xml:space="preserve">
<g>
	<path d="M388.9,248.2c-11,0-20,9-20,20v138.9c0,14.5-11.8,26.3-26.3,26.3H88c-14.5,0-26.3-11.8-26.3-26.3V152.5
		c0-14.5,11.8-26.3,26.3-26.3h138.9c11,0,20-9,20-20s-9-20-20-20H88c-36.6,0-66.3,29.7-66.3,66.3v254.6c0,36.6,29.7,66.3,66.3,66.3
		h254.6c36.6,0,66.3-29.7,66.3-66.3V268.2C408.9,257.2,399.9,248.2,388.9,248.2z"/>
	<path d="M478.3,36.6c0-0.6,0-1.3-0.1-1.9c0-0.3-0.1-0.6-0.1-0.9c0-0.3-0.1-0.7-0.2-1c-0.1-0.3-0.2-0.7-0.2-1
		c-0.1-0.3-0.1-0.6-0.2-0.9c-0.1-0.3-0.2-0.6-0.3-1c-0.1-0.3-0.2-0.6-0.3-0.9c-0.1-0.3-0.3-0.6-0.4-0.9c-0.1-0.3-0.3-0.6-0.4-0.9
		c-0.1-0.3-0.3-0.5-0.5-0.8c-0.2-0.3-0.3-0.6-0.5-0.9c-0.2-0.3-0.4-0.6-0.6-0.9c-0.2-0.2-0.3-0.5-0.5-0.7c-0.4-0.5-0.8-1-1.3-1.4
		c0,0,0,0,0-0.1c0,0,0,0,0,0c-0.5-0.5-0.9-0.9-1.4-1.3c-0.2-0.2-0.5-0.4-0.7-0.5c-0.3-0.2-0.6-0.4-0.8-0.6c-0.3-0.2-0.6-0.4-0.9-0.5
		c-0.3-0.2-0.5-0.3-0.8-0.5c-0.3-0.2-0.6-0.3-0.9-0.4c-0.3-0.1-0.6-0.3-0.9-0.4c-0.3-0.1-0.6-0.2-0.9-0.3c-0.3-0.1-0.6-0.2-0.9-0.3
		c-0.3-0.1-0.6-0.2-0.9-0.2c-0.3-0.1-0.7-0.2-1-0.2c-0.4-0.1-0.7-0.1-1.1-0.2c-0.3,0-0.6-0.1-0.9-0.1c-0.7-0.1-1.3-0.1-2-0.1H319.4
		c-11,0-20,9-20,20s9,20,20,20H410L189.6,277.2c-7.8,7.8-7.8,20.5,0,28.3c3.9,3.9,9,5.9,14.1,5.9s10.2-2,14.1-5.9L438.3,85v90.6
		c0,11,9,20,20,20s20-9,20-20L478.3,36.6C478.3,36.7,478.3,36.7,478.3,36.6z"/>
</g>
</svg>
