<?xml version="1.0" encoding="utf-8"?>
<!-- Generator: Adobe Illustrator 21.0.2, SVG Export Plug-In . SVG Version: 6.00 Build 0)  -->
<svg version="1.1" id="Layer_1" xmlns="http://www.w3.org/2000/svg" xmlns:xlink="http://www.w3.org/1999/xlink" x="0px" y="0px"
	 viewBox="0 0 500 500" style="enable-background:new 0 0 500 500;" xml:space="preserve">
<g>
	<g>
		<path d="M457.6,415.4H41.1c-14.3,0-25.9-11.6-25.9-25.9V106.9C15.2,92.6,26.8,81,41.1,81h417c7.2,0,14.1,3,18.9,8.3
			c4.5,4.9,6.8,11.5,6.4,18.2v282C483.5,403.8,471.9,415.4,457.6,415.4z M67.1,364.3h364.5V205.6H272.5c-9.7,0-18.5-5.8-23.2-15
			l-0.5-1l-18.5-56.7H67.1V364.3z M291.1,153.1h141.1v-20.2H285.4L291.1,153.1z"/>
	</g>
</g>
</svg>
