<?xml version="1.0" encoding="utf-8"?>
<!-- Generator: Adobe Illustrator 21.0.2, SVG Export Plug-In . SVG Version: 6.00 Build 0)  -->
<svg version="1.1" id="Layer_1" xmlns="http://www.w3.org/2000/svg" xmlns:xlink="http://www.w3.org/1999/xlink" x="0px" y="0px"
	 viewBox="0 0 500 500" style="enable-background:new 0 0 500 500;" xml:space="preserve">
<g>
	<path d="M421,9H78C40,9,9,40,9,78v343c0,38,31,69,69,69h343c38,0,69-31,69-69V78C490,40,459,9,421,9z M49,421V78
		c0-16,13-29,29-29h343c16,0,29,13,29,29v196.7l-88.4-88.4c-7.8-7.8-20.5-7.8-28.3,0L70.7,449.1C58.2,445.8,49,434.5,49,421z
		 M421,450H126.3l221.2-221.2L450,331.3V421C450,437,437,450,421,450z"/>
	<path d="M163.8,220.5c31.3,0,56.8-25.5,56.8-56.8S195,107,163.8,107S107,132.5,107,163.8S132.5,220.5,163.8,220.5z
		 M163.8,147c9.2,0,16.8,7.5,16.8,16.8s-7.5,16.8-16.8,16.8S147,173,147,163.8S154.5,147,163.8,147z"/>
</g>
</svg>
