<?xml version="1.0" encoding="utf-8"?>
<!-- Generator: Adobe Illustrator 21.0.2, SVG Export Plug-In . SVG Version: 6.00 Build 0)  -->
<svg version="1.1" id="Layer_1" xmlns="http://www.w3.org/2000/svg" xmlns:xlink="http://www.w3.org/1999/xlink" x="0px" y="0px"
	 viewBox="0 0 500 500" style="enable-background:new 0 0 500 500;" xml:space="preserve">
<g>
	<path d="M249,490.4c-9.7,0-18.6-4.6-24.4-12.6l-125.9-170C74.7,275.3,62,236.9,62,196.6c0-103.1,83.9-187,187-187
		c103.1,0,187,83.9,187,187c0,20.3-3.2,40.3-9.7,59.5c-4.9,14.6-11.6,28.5-19.9,41.4c-0.6,1.2-1.2,2.4-2.1,3.5l-6,8.1l-125,168.8
		C267.6,485.7,258.5,490.4,249,490.4z M256.9,454.1C256.9,454.1,256.9,454.1,256.9,454.1C256.9,454.1,256.9,454.1,256.9,454.1z
		 M249,49.6c-81,0-147,65.9-147,147c0,31.7,10,61.9,28.8,87.4L249,443.5l121.5-164c0.3-0.5,0.6-1.1,0.9-1.6
		c7.2-10.8,12.9-22.4,17-34.6c5-15,7.6-30.8,7.6-46.7C396,115.5,330,49.6,249,49.6z"/>
</g>
<g>
	<path d="M249,294.5c-54.8,0-99.4-44.6-99.4-99.4c0-54.8,44.6-99.4,99.4-99.4s99.4,44.6,99.4,99.4
		C348.4,249.9,303.8,294.5,249,294.5z M249,135.6c-32.8,0-59.4,26.7-59.4,59.4s26.7,59.4,59.4,59.4s59.4-26.7,59.4-59.4
		S281.8,135.6,249,135.6z"/>
</g>
</svg>
