<?xml version="1.0" encoding="utf-8"?>
<!-- Generator: Adobe Illustrator 19.0.0, SVG Export Plug-In . SVG Version: 6.00 Build 0)  -->
<svg version="1.1" id="Layer_1" xmlns="http://www.w3.org/2000/svg" xmlns:xlink="http://www.w3.org/1999/xlink" x="0px" y="0px"
	 viewBox="237 -238 500 500" style="enable-background:new 237 -238 500 500;" xml:space="preserve">
<g>
	<path d="M488.9,246.3l-11-12.4C471,225.6,315.3,34.1,315.3-55.4c0-93.7,77.2-170.9,173.7-170.9s173.7,77.2,173.7,170.9
		c0,91-155.7,281.2-162.6,289.4L488.9,246.3z M488.9-200.3c-79.9,0-146.1,64.8-146.1,143.3c0,62,96.5,197.1,146.1,259.1
		C537.1,140.1,635,5,635-57C635-135.5,568.8-200.3,488.9-200.3z"/>
</g>
<g>
	<path d="M488.9,34C435.1,34,391-8.7,391-62.5s44.1-96.5,97.9-96.5s97.9,42.7,97.9,96.5S542.7,34,488.9,34z M488.9-131.4
		c-38.6,0-70.3,30.3-70.3,68.9s31.7,69,70.3,69s70.3-30.3,70.3-68.9S527.5-131.4,488.9-131.4z"/>
</g>
</svg>
