<?xml version="1.0" encoding="utf-8"?>
<!-- Generator: Adobe Illustrator 21.0.2, SVG Export Plug-In . SVG Version: 6.00 Build 0)  -->
<svg version="1.1" id="Layer_1" xmlns="http://www.w3.org/2000/svg" xmlns:xlink="http://www.w3.org/1999/xlink" x="0px" y="0px"
	 viewBox="0 0 500 500" style="enable-background:new 0 0 500 500;" xml:space="preserve">
<g>
	<path d="M319.5,490.5c-14,0-28-0.1-41.9-0.3c-4.5,0-9-0.1-13.5-0.1c-8.7-0.1-17.6-0.2-26.4-0.2l-35,0.1
		c-13.7,0.1-27.6,0.1-41.1,0.1c-9.4,0-18.2-3.7-24.8-10.4c-6.5-6.6-10.1-15.3-10.1-24.6c-0.1-1.2,0.1-2.5,0.5-4
		c0.6-1.9,1.8-6,2.8-14c6.5-50.2,9.4-103.7,8.7-158.8c-0.1-6-0.2-12.4-0.4-19H90.7c-11.4,0-20.6-9.2-20.6-20.6S79.3,218,90.7,218
		h45.7c-0.4-7-0.9-13.9-1.3-20.5c-0.5-6.5-1.1-12.8-1.8-19.5l-0.1-0.9c-1.6-16.2-3.5-34.7-2.5-53.4c1.3-23.9,7.5-44.6,18.7-61.6
		c17.4-26.5,44.1-43.3,79.3-50c47.1-9,91.4,5.8,121.4,40.6c3.8,4.5,5.6,10.4,4.7,16.2c-0.8,5.8-4.1,10.9-9,14.1
		c-9,5.8-20.7,4.2-27.9-3.9c-20.2-23.1-49.1-32.4-81.4-26.4c-24,4.6-41.1,15-52.2,31.9c-7,10.7-11.1,24.6-12,41.3
		c-0.7,14.7,0.6,29.4,2.4,47.2c0.7,7,1.4,14.3,1.9,21.5c0.6,7.6,1.1,15.4,1.5,23.4h92.6c11.4,0,20.6,9.2,20.6,20.6
		s-9.2,20.6-20.6,20.6h-90.8c0.2,6.4,0.3,12.5,0.4,18.4c0.8,56.9-2.2,112.3-8.9,164.8c-0.2,1.6,0.3,3.2,1.4,4.5c1.1,1.3,2.7,2,4.4,2
		c8.3,0,17,0,25.3-0.1l35.2-0.1c13.5,0,27.1,0.1,40.4,0.3c27.1,0.3,55.9,0.5,84.2-0.3c19.3-0.6,28.3-7.5,33-25.2
		c2.9-10.7,12.8-17.5,23.6-16.4l0.8,0c5.5,0.7,10.5,3.7,13.6,8.3c3.1,4.5,4.2,10.2,2.8,15.5c-9.2,37.4-34.3,57.8-72.6,59.1
		C348.9,490.3,334.1,490.5,319.5,490.5z"/>
</g>
</svg>
