<?xml version="1.0" encoding="utf-8"?>
<!-- Generator: Adobe Illustrator 21.0.2, SVG Export Plug-In . SVG Version: 6.00 Build 0)  -->
<svg version="1.1" id="Layer_1" xmlns="http://www.w3.org/2000/svg" xmlns:xlink="http://www.w3.org/1999/xlink" x="0px" y="0px"
	 viewBox="0 0 500 500" style="enable-background:new 0 0 500 500;" xml:space="preserve">
<g>
	<path d="M476.6,120.9H22.4c-5.5,0-9.9-4.4-9.9-9.9s4.4-9.9,9.9-9.9h454.2c5.5,0,9.9,4.4,9.9,9.9S482,120.9,476.6,120.9z"/>
</g>
<g>
	<path d="M476.6,397.3H22.4c-5.5,0-9.9-4.4-9.9-9.9s4.4-9.9,9.9-9.9h454.2c5.5,0,9.9,4.4,9.9,9.9S482,397.3,476.6,397.3z"/>
</g>
<g>
	<path d="M476.6,259.1H22.4c-5.5,0-9.9-4.4-9.9-9.9c0-5.5,4.4-9.9,9.9-9.9h454.2c5.5,0,9.9,4.4,9.9,9.9
		C486.5,254.7,482,259.1,476.6,259.1z"/>
</g>
</svg>
