<?xml version="1.0" encoding="utf-8"?>
<!-- Generator: Adobe Illustrator 21.0.2, SVG Export Plug-In . SVG Version: 6.00 Build 0)  -->
<svg version="1.1" id="Layer_1" xmlns="http://www.w3.org/2000/svg" xmlns:xlink="http://www.w3.org/1999/xlink" x="0px" y="0px"
	 viewBox="0 0 500 500" style="enable-background:new 0 0 500 500;" xml:space="preserve">
<g>
	<g>
		<g>
			<path d="M456.6,140.3H42.5c-16.4,0-29.7-13.4-29.7-29.9s13.3-29.9,29.7-29.9h414.1c16.4,0,29.7,13.4,29.7,29.9
				S473,140.3,456.6,140.3z"/>
		</g>
	</g>
	<g>
		<g>
			<path d="M456.6,416.7H42.5c-16.4,0-29.7-13.4-29.7-29.9s13.3-29.9,29.7-29.9h414.1c16.4,0,29.7,13.4,29.7,29.9
				S473,416.7,456.6,416.7z"/>
		</g>
	</g>
	<g>
		<g>
			<path d="M456.6,278.5H42.5c-16.4,0-29.7-13.4-29.7-29.9c0-16.5,13.3-29.9,29.7-29.9h414.1
				c16.4,0,29.7,13.4,29.7,29.9C486.3,265.1,473,278.5,456.6,278.5z"/>
		</g>
	</g>
</g>
</svg>
