<?xml version="1.0" encoding="utf-8"?>
<!-- Generator: Adobe Illustrator 21.0.2, SVG Export Plug-In . SVG Version: 6.00 Build 0)  -->
<svg version="1.1" id="Layer_1" xmlns="http://www.w3.org/2000/svg" xmlns:xlink="http://www.w3.org/1999/xlink" x="0px" y="0px"
	 viewBox="0 0 500 500" style="enable-background:new 0 0 500 500;" xml:space="preserve">
<path d="M471.5,118.3l-89.5-89.5c-8.3-8.3-19.6-12.9-31.8-12.9c0,0-0.1,0-0.1,0c-13.5,0-26.9,5.8-36.7,15.7L62.9,282
	c-8.7,8.7-14.1,19.9-15.4,31.7L17.8,446.7c-2.3,10.4,0.6,20.9,8,28.2c5.6,5.6,13.2,8.5,21,8.5c2.5,0,5-0.3,7.5-0.9l136.6-32.9
	c11.1-1.5,21.7-6.8,30.1-15l247.8-247.8C488.4,167.2,489.6,136.4,471.5,118.3z M192,405.1c-2,2-4.6,3.3-6.9,3.5l-1.4,0.1L62.1,438.1
	l26.4-118.3l0.1-1.5c0.2-2.4,1.5-5.1,3.5-7.1l181.1-181.1l96.9,96.9L192,405.1z M439.5,157.6l-40.2,40.2l-96.9-96.9l40.2-40.2
	c2.2-2.2,5-3.5,7.5-3.5c0,0,0,0,0,0c0.8,0,1.9,0.1,2.6,0.8l89.5,89.5C443.5,148.8,443.5,153.6,439.5,157.6z"/>
</svg>
