<?xml version="1.0" encoding="utf-8"?>
<!-- Generator: Adobe Illustrator 21.0.2, SVG Export Plug-In . SVG Version: 6.00 Build 0)  -->
<svg version="1.1" id="Layer_1" xmlns="http://www.w3.org/2000/svg" xmlns:xlink="http://www.w3.org/1999/xlink" x="0px" y="0px"
	 viewBox="0 0 500 500" style="enable-background:new 0 0 500 500;" xml:space="preserve">
<g>
	<g>
		<path d="M43.4,493.9c-2,0-4-0.3-5.8-0.8l-0.4-0.1c-5.2-1.6-9.4-5.2-11.9-10c-2.5-4.8-2.9-10.3-1.3-15.5
			c22.3-68.6,75.8-122.1,143.8-146.3c-19.2-11.3-36.2-26.3-49.6-44.1c-22.3-29.5-34.1-64.7-34.1-101.8C84.1,82,160,6.1,253.2,6.1
			c45.1,0,87.6,17.6,119.6,49.6c31.9,32,49.5,74.4,49.5,119.5c0,37.5-12.1,73.1-34.9,102.8c-13.9,18.1-31.5,33.3-51.3,44.4
			c26.4,9.9,50.8,24.3,72,42.7c31.5,27.3,54.9,62.5,67.7,101.8l0,0c1.7,5.2,1.2,10.9-1.3,15.7c-2.5,4.8-6.7,8.2-11.8,9.8
			c-10.6,3.3-22-2.5-25.4-13c-25.8-79-101.1-132-187.3-132c-86.3,0-161.6,53.1-187.4,132.2C60.1,488.1,52.2,493.9,43.4,493.9z
			 M463,471.2C463,471.2,463,471.2,463,471.2C463,471.2,463,471.2,463,471.2z M253.3,46.6c-70.9,0-128.5,57.7-128.5,128.5
			c0,70.9,57.6,128.5,128.5,128.5c70.9,0,128.6-57.7,128.6-128.5C381.8,104.3,324.2,46.6,253.3,46.6z"/>
	</g>
</g>
</svg>
