<?xml version="1.0" encoding="utf-8"?>
<!-- Generator: Adobe Illustrator 21.0.2, SVG Export Plug-In . SVG Version: 6.00 Build 0)  -->
<svg version="1.1" id="Layer_1" xmlns="http://www.w3.org/2000/svg" xmlns:xlink="http://www.w3.org/1999/xlink" x="0px" y="0px"
	 viewBox="0 0 150 150" style="enable-background:new 0 0 150 150;" xml:space="preserve">
<path style="fill:#E6E6E6;" d="M68.9,98.7l7.6,14.9l3.4,20.9l7.8-7.8c8.9-8.9,12.4-22,9-34.2L68.9,98.7"/>
<path style="fill:#333333;" d="M79,137l-3.7-23l-8.2-16.2l30.5-6.7l0.3,1.1c3.5,12.5-0.1,26.1-9.3,35.4C88.6,127.6,79,137,79,137z
	 M70.7,99.6l7,13.9l3,18.6l6.2-6.2c8.3-8.3,11.7-20.5,9-31.9C95.9,93.9,70.7,99.6,70.7,99.6z"/>
<path style="fill:#E6E6E6;" d="M58.5,54.4c-12.2-3.4-25.3,0.1-34.2,9l-7.8,7.8l20.9,3.4l15.2,7.7"/>
<path style="fill:#333333;" d="M52.6,83.6c-0.2,0-0.3-0.1-0.5-0.2l-15-7.7L14,72l9.5-9.5c9.2-9.3,22.7-12.8,35.4-9.3
	c0.7,0.2,1,0.8,0.8,1.5c-0.2,0.7-0.8,1-1.5,0.8c-11.7-3.2-24.4,0.1-33,8.8L19,70.5l18.9,3.1l15.2,7.7c0.6,0.3,0.8,1,0.5,1.6
	C53.4,83.3,53,83.6,52.6,83.6L52.6,83.6z"/>
<path style="fill:none;" d="M52.2,98.7l-18.5,18.5"/>
<path style="fill:#333333;" d="M33.7,118.4c-0.3,0-0.6-0.1-0.8-0.3c-0.5-0.5-0.5-1.3,0-1.7l18.5-18.5c0.5-0.5,1.3-0.5,1.7,0
	c0.5,0.5,0.5,1.3,0,1.7l-18.5,18.5C34.3,118.3,34,118.4,33.7,118.4z"/>
<path style="fill:none;" d="M60.6,107l-9.3,9.3"/>
<path style="fill:#333333;" d="M51.4,117.5c-0.3,0-0.6-0.1-0.8-0.3c-0.5-0.5-0.5-1.3,0-1.7l9.3-9.3c0.5-0.5,1.3-0.5,1.7,0
	c0.4,0.5,0.5,1.3,0,1.7l-9.3,9.3C52,117.3,51.6,117.5,51.4,117.5z"/>
<path style="fill:none;" d="M43.6,90l-9.3,9.3"/>
<path style="fill:#333333;" d="M34.4,100.5c-0.3,0-0.6-0.1-0.8-0.3c-0.5-0.5-0.5-1.3,0-1.7l9.3-9.3c0.5-0.5,1.3-0.5,1.7,0
	c0.5,0.5,0.5,1.3,0,1.7l-9.3,9.3C35,100.3,34.6,100.5,34.4,100.5z"/>
<path style="fill:#8FC043;" d="M58.4,54.2l37.7-37.7l38.8,0.6v37.3L96.8,92.6l-27.9,6.1L52.6,82.4L58.4,54.2"/>
<path style="fill:#333333;" d="M68.9,99.9c-0.3,0-0.6-0.1-0.8-0.3L51.7,83.2c-0.3-0.3-0.4-0.7-0.3-1.1l5.8-28.2
	c0.1-0.3,0.2-0.4,0.3-0.6l37.7-37.7c0.3-0.3,0.5-0.3,0.8-0.3l38.7,0.7c0.7,0,1.2,0.5,1.2,1.2v37.3c0,0.3-0.2,0.6-0.3,0.8L97.5,93.4
	c-0.2,0.2-0.3,0.3-0.6,0.3L69.1,100C69.1,99.9,69,99.9,68.9,99.9z M53.8,82l15.5,15.5l26.9-6l37.6-37.6V18.2l-37-0.6L59.5,54.8
	L53.8,82z"/>
<g>
	<path style="fill:#E6E6E6;" d="M90.2,63.2C90.2,63.2,90.2,63.1,90.2,63.2c-5.7,1.2-11.3,2.4-16.9,3.7c1.4,1.5,2.8,2.9,4.1,4.4
		c-2.1,2-4.2,4-6.4,6.1v0.1c5.6-1.3,11.2-2.5,16.8-3.8c-1.4-1.4-2.8-2.9-4.1-4.3C86,67.2,88.1,65.2,90.2,63.2z"/>
	<path style="fill:#333333;" d="M71.1,78.6c-0.4,0-0.8-0.3-1.1-0.7c0-0.1-0.1-0.2-0.1-0.2c-0.3-0.5-0.1-0.9,0.3-1.3l5.5-5.2
		l-3.3-3.5c-0.3-0.3-0.4-0.8-0.3-1.2c0.1-0.4,0.5-0.8,0.9-0.8L89.9,62c0.6-0.2,1.2,0.2,1.3,0.7c0.3,0.5,0.2,1.1-0.3,1.4l-2.1,1.9
		c-1.2,1.1-2.3,2.2-3.5,3.3l3.3,3.5c0.3,0.3,0.4,0.8,0.3,1.2c-0.1,0.4-0.4,0.8-0.8,0.8l-15.7,3.5l-1.3,0.3
		C71.3,78.6,71.1,78.6,71.1,78.6z M75.6,67.7l2.7,2.8c0.4,0.5,0.4,1.3-0.1,1.7l-3.4,3.2c3.5-0.8,7.2-1.6,10.7-2.4L83,70.1
		c-0.4-0.5-0.4-1.3,0-1.7c1.1-1.1,2.3-2.2,3.4-3.2L75.6,67.7z"/>
</g>
<g>
	<circle style="fill:#E6E6E6;" cx="104.9" cy="46.4" r="12.4"/>
	<path style="fill:#333333;" d="M104.9,60c-7.5,0-13.6-6.1-13.6-13.6s6.1-13.6,13.6-13.6s13.6,6.1,13.6,13.6S112.4,60,104.9,60z
		 M104.9,35.2c-6.1,0-11.2,5.1-11.2,11.2s5.1,11.2,11.2,11.2s11.2-5.1,11.2-11.2S111.2,35.2,104.9,35.2z"/>
</g>
<g>
	<path style="fill:#333333;" d="M130.5,52.7c-0.7,0-1.2-0.5-1.2-1.2V36.9c0-0.7,0.5-1.2,1.2-1.2s1.2,0.5,1.2,1.2v14.6
		C131.7,52.2,131.2,52.7,130.5,52.7z"/>
</g>
<g>
	<path style="fill:#FFFFFF;" d="M101.3,51.3c-0.7,0-1.2-0.5-1.2-1.2v-5.8c0-0.7,0.5-1.2,1.2-1.2s1.2,0.5,1.2,1.2v5.8
		C102.5,50.7,102,51.3,101.3,51.3z"/>
</g>
<g>
	<path style="fill:#FFFFFF;" d="M105.7,55.6c-0.7,0-1.2-0.5-1.2-1.2V39.8c0-0.7,0.5-1.2,1.2-1.2s1.2,0.5,1.2,1.2v14.6
		C106.9,55,106.4,55.6,105.7,55.6z"/>
</g>
<g>
	<path style="fill:#333333;" d="M30.2,66.1c-0.3,0-0.7-0.2-0.9-0.4c-0.4-0.5-0.4-1.3,0.1-1.7c4.5-4,9.9-6.5,15.7-7.4
		c0.7-0.1,1.3,0.3,1.3,1c0.1,0.7-0.3,1.3-1,1.3C40.1,59.8,35,62.1,31,65.7C30.8,66,30.6,66.1,30.2,66.1z"/>
</g>
<path style="fill:none;" d="M0,0h150v150H0V0z"/>
</svg>
