<?xml version="1.0" encoding="utf-8"?>
<!-- Generator: Adobe Illustrator 21.0.2, SVG Export Plug-In . SVG Version: 6.00 Build 0)  -->
<svg version="1.1" id="Layer_1" xmlns="http://www.w3.org/2000/svg" xmlns:xlink="http://www.w3.org/1999/xlink" x="0px" y="0px"
	 viewBox="0 0 150 150" style="enable-background:new 0 0 150 150;" xml:space="preserve">
<path style="fill:#333333;" d="M77.5,136.3c-0.5,0-1-0.4-1-1V67c0-0.5,0.4-1,1-1s1,0.4,1,1v68.3C78.5,135.8,78,136.3,77.5,136.3z
	 M54.5,136.3c-0.5,0-1-0.4-1-1V67c0-0.5,0.4-1,1-1c0.5,0,1,0.4,1,1v68.2C55.5,135.8,55.1,136.3,54.5,136.3L54.5,136.3z"/>
<path style="fill:#333333;" d="M54.5,91c-0.3,0-0.5-0.1-0.7-0.3c-0.4-0.4-0.4-1,0-1.3l23-23c0.4-0.4,1-0.4,1.3,0
	c0.4,0.4,0.4,1,0,1.3l-22.9,23C55.1,90.9,54.8,91,54.5,91z M54.5,113.7c-0.3,0-0.5-0.1-0.7-0.3c-0.4-0.4-0.4-1,0-1.3l23-23
	c0.4-0.4,1-0.4,1.3,0s0.4,1,0,1.3l-23,23C55,113.6,54.8,113.7,54.5,113.7z"/>
<path style="fill:#333333;" d="M77.4,91c-0.3,0-0.5-0.1-0.7-0.3l-22.9-23c-0.4-0.4-0.4-1,0-1.3c0.4-0.4,1-0.4,1.3,0l23,23
	c0.4,0.4,0.4,1,0,1.3C78,90.9,77.7,91,77.4,91z M77.5,113.5c-0.3,0-0.5-0.1-0.7-0.3l-23-23c-0.4-0.4-0.4-1,0-1.3s1-0.4,1.3,0l23,23
	c0.4,0.4,0.4,1,0,1.3C78,113.4,77.7,113.5,77.5,113.5z"/>
<path style="fill:#333333;" d="M77.4,90.8H54.5c-0.5,0-1-0.4-1-1c0-0.5,0.4-1,1-1h22.9c0.5,0,1,0.4,1,1C78.4,90.4,78,90.8,77.4,90.8
	z M77.5,113.5H55.1c-0.5,0-1-0.4-1-1c0-0.5,0.4-1,1-1h22.4c0.5,0,1,0.4,1,1C78.5,113.1,78,113.5,77.5,113.5z M110.4,58
	c-0.3,0-0.5-0.1-0.7-0.3L86.8,34.8c-0.4-0.4-0.4-1,0-1.3c0.4-0.4,1-0.4,1.3,0l23,23c0.4,0.4,0.4,1,0,1.3C111,57.9,110.7,58,110.4,58
	z"/>
<path style="fill:#333333;" d="M87.5,57.9c-0.3,0-0.5-0.1-0.7-0.3c-0.4-0.4-0.4-1,0-1.3l23-23c0.4-0.4,1-0.4,1.3,0
	c0.4,0.4,0.4,1,0,1.3l-22.9,23C88,57.8,87.8,57.9,87.5,57.9z"/>
<path style="fill:#4D4D4D;" d="M110.4,57.9c-0.5,0-1-0.4-1-1V34c0-0.5,0.4-1,1-1c0.5,0,1,0.4,1,1v23C111.4,57.5,111,57.9,110.4,57.9
	z"/>
<path style="fill:#333333;" d="M133,58H87.9c-0.5,0-1-0.4-1-1c0-0.5,0.4-1,1-1h45c0.5,0,1,0.4,1,1C133.9,57.5,133.5,58,133,58z
	 M133,35H88c-0.5,0-1-0.4-1-1s0.4-1,1-1h45c0.5,0,1,0.4,1,1C133.9,34.5,133.5,35,133,35z"/>
<path style="fill:#333333;" d="M133.4,57.9c-0.3,0-0.5-0.1-0.7-0.3l-23-23c-0.4-0.4-0.4-1,0-1.3c0.4-0.4,1-0.4,1.3,0l23,23
	c0.4,0.4,0.4,1,0,1.3C133.9,57.8,133.7,57.9,133.4,57.9z"/>
<path style="fill:#333333;" d="M110.6,58c-0.3,0-0.5-0.1-0.7-0.3c-0.4-0.4-0.4-1,0-1.3l23-23c0.4-0.4,1-0.4,1.3,0
	c0.4,0.4,0.4,1,0,1.3l-23,23C111.1,57.9,110.9,58,110.6,58z"/>
<path style="fill:#333333;" d="M110.5,57.9c-0.5,0-1-0.4-1-1V34c0-0.5,0.4-1,1-1s1,0.4,1,1v23C111.5,57.4,111,57.9,110.5,57.9z
	 M44.9,58c-0.3,0-0.5-0.1-0.7-0.3l-22.9-23c-0.4-0.4-0.4-1,0-1.3c0.4-0.4,1-0.4,1.3,0l23,22.9c0.4,0.4,0.4,1,0,1.3
	C45.4,57.9,45.1,58,44.9,58z"/>
<path style="fill:#333333;" d="M22,57.9c-0.3,0-0.5-0.1-0.7-0.3c-0.4-0.4-0.4-1,0-1.3l23-23c0.4-0.4,1-0.4,1.3,0
	c0.4,0.4,0.4,1,0,1.3l-22.9,23C22.4,57.8,22.2,57.9,22,57.9z"/>
<path style="fill:#333333;" d="M46.8,57.9H22.3c-0.5,0-1-0.4-1-1c0-0.5,0.4-1,1-1h24.4c0.5,0,1,0.4,1,1
	C47.8,57.4,47.3,57.9,46.8,57.9z"/>
<path style="fill:#4D4D4D;" d="M46.8,34.9H22.4c-0.5,0-1-0.4-1-1s0.4-1,1-1h24.4c0.5,0,1,0.4,1,1S47.3,34.9,46.8,34.9z"/>
<path style="fill:#333333;" d="M121.5,62.1c-2.5,0-4.6-2-4.6-4.6c0-0.5,0.4-1,1-1c0.5,0,1,0.4,1,1c0,1.5,1.1,2.6,2.6,2.6
	s2.6-1.1,2.6-2.6c0-0.5,0.4-1,1-1c0.5,0,1,0.4,1,1C126,60.1,123.9,62.1,121.5,62.1L121.5,62.1z"/>
<path style="fill:#333333;" d="M121.7,76.8c-0.5,0-1-0.4-1-1V61.5c0-0.5,0.4-1,1-1c0.5,0,1,0.4,1,1v14.3
	C122.6,76.4,122.2,76.8,121.7,76.8z"/>
<path style="fill:#8CC63F;" d="M48,66.7h36.6c1.6,0,2.9-1.3,2.9-2.9V27.3c0-1.6-1.3-2.9-2.9-2.9H48c-1.6,0-2.9,1.3-2.9,2.9v36.5
	C45.1,65.3,46.5,66.7,48,66.7z"/>
<path style="fill:#333333;" d="M83.3,67.6h-34c-2.8,0-5.2-2.3-5.2-5.2v-34c0-2.8,2.3-5.2,5.2-5.2h34c2.8,0,5.2,2.3,5.2,5.2v34
	C88.5,65.3,86.1,67.6,83.3,67.6z M49.3,25.2c-1.8,0-3.2,1.5-3.2,3.2v34c0,1.8,1.5,3.2,3.2,3.2h34c1.8,0,3.2-1.5,3.2-3.2v-34
	c0-1.8-1.5-3.2-3.2-3.2C83.3,25.2,49.3,25.2,49.3,25.2z"/>
<circle style="fill:#E6E6E6;" cx="58.3" cy="40.1" r="8.1"/>
<path style="fill:#333333;" d="M58.3,49.1c-5,0-9-4-9-9s4-9,9-9s9,3.9,9,8.9C67.2,45,63.2,49.1,58.3,49.1z M58.3,33.1
	c-3.9,0-7.1,3.2-7.1,7.1s3.2,7.1,7.1,7.1s7.1-3.2,7.1-7.1S62.2,33.1,58.3,33.1z M60.2,54.9h-3.9c-0.5,0-1-0.4-1-1c0-0.5,0.4-1,1-1
	h3.9c0.5,0,1,0.4,1,1C61.2,54.6,60.8,54.9,60.2,54.9z M58.8,24c-0.5,0-1-0.4-1-1V12.9c0-0.5,0.4-1,1-1s1,0.4,1,1V23
	C59.8,23.6,59.4,24,58.8,24z"/>
<path style="fill:#FFFFFF;" d="M57.5,44.4c-0.3,0-0.5-0.1-0.7-0.3c-0.4-0.4-0.4-1,0-1.3l3.8-3.8c0.4-0.4,1-0.4,1.3,0
	c0.4,0.4,0.4,1,0,1.3l-3.8,3.8C58,44.2,57.8,44.4,57.5,44.4z M56.3,40.5c-0.3,0-0.5-0.1-0.7-0.3c-0.4-0.4-0.4-1,0-1.3l1.2-1.2
	c0.4-0.4,1-0.4,1.3,0c0.4,0.4,0.4,1,0,1.3l-1.2,1.2C56.7,40.4,56.5,40.5,56.3,40.5z"/>
<path style="fill:#333333;" d="M69,25.2c-0.2,0-0.4-0.1-0.5-0.2l-10.2-6.3c-0.4-0.3-0.6-0.9-0.3-1.3c0.3-0.4,0.9-0.6,1.3-0.3
	l10.2,6.3c0.4,0.3,0.6,0.9,0.3,1.3C69.6,25.2,69.3,25.2,69,25.2z"/>
<path style="fill:#4D4D4D;" d="M126.1,123.2V82.8l-9.9,1.9v38.4c0,0.3,0.2,0.4,0.4,0.4h9C126,123.5,126.1,123.4,126.1,123.2z"/>
<path style="fill:#333333;" d="M125.7,124.5h-9c-0.8,0-1.3-0.6-1.3-1.3V84l11.8-2.4v41.5C127.1,123.9,126.5,124.5,125.7,124.5
	L125.7,124.5z M117.2,122.6h8V84l-8,1.6C117.2,85.5,117.2,122.6,117.2,122.6z"/>
<path style="fill:#4D4D4D;" d="M125.4,79c-0.7-1.3-1.8-2.2-3.1-2.5s-2.6,0.2-3.8,1.1c-1.1,1-1.9,2.5-2.3,4c-0.4,1.7-0.2,3.3,0.5,4.7
	s1.8,2.2,3.1,2.5s2.6-0.2,3.8-1.1s1.9-2.5,2.3-4.1C126.3,82,126.1,80.4,125.4,79"/>
<path style="fill:#333333;" d="M120.7,90c-0.3,0-0.6,0-0.9-0.1c-1.6-0.3-2.9-1.4-3.7-3c-0.8-1.5-1-3.4-0.6-5.3s1.3-3.5,2.5-4.7
	c1.3-1.1,3-1.7,4.6-1.3c1.6,0.3,2.9,1.3,3.7,2.9c0.8,1.5,1,3.3,0.6,5.3c-0.4,1.8-1.3,3.5-2.5,4.7C123.2,89.5,122,90,120.7,90z
	 M121.7,77.5c-0.8,0-1.7,0.4-2.4,1c-1,0.9-1.7,2.1-1.9,3.5c-0.3,1.5-0.1,2.9,0.4,4c0.5,1.1,1.4,1.8,2.4,1.9c1,0.2,2-0.2,2.9-1
	c1-0.9,1.7-2.1,1.9-3.6c0.3-1.4,0.1-2.9-0.4-4c-0.5-1.1-1.4-1.8-2.4-1.9C122,77.5,121.8,77.5,121.7,77.5z"/>
<path style="fill:#B3B3B3;" d="M124.5,79.7c-0.5-1.1-1.4-1.8-2.4-1.9c-1-0.2-2,0.2-2.9,1c-0.9,0.8-1.5,2-1.8,3.3
	c-0.3,1.3-0.1,2.7,0.4,3.8c0.5,1.1,1.4,1.8,2.4,1.9c1,0.2,2-0.2,2.9-1.1c0.9-0.8,1.5-2,1.8-3.4C125.2,82.1,125.1,80.8,124.5,79.7"/>
<path style="fill:#333333;" d="M120.8,88.9c-0.3,0-0.4,0-0.7-0.1c-1.3-0.3-2.4-1.1-3.1-2.5c-0.6-1.2-0.8-2.8-0.5-4.4s1-2.9,2-3.9
	c1.1-1.1,2.5-1.5,3.7-1.2c1.3,0.3,2.4,1.1,3.1,2.5c0.6,1.2,0.8,2.8,0.5,4.3c-0.3,1.6-1,2.9-2,3.9C123,88.4,121.9,88.9,120.8,88.9z
	 M121.6,78.7c-0.6,0-1.2,0.3-1.8,0.8c-0.7,0.7-1.2,1.7-1.4,2.8c-0.2,1.1-0.1,2.3,0.4,3.2c0.4,0.8,1,1.3,1.7,1.4
	c0.7,0.1,1.4-0.2,2.1-0.8c0.7-0.7,1.2-1.7,1.5-2.9c0.2-1.1,0.1-2.3-0.4-3.2c-0.4-0.8-1-1.3-1.8-1.4
	C121.8,78.7,121.7,78.7,121.6,78.7z"/>
<path style="fill:#808080;" d="M116.3,89.8c0.4,0.1,0.9,0.3,1.2,0.6c0.4,0.4,0.7,1,0.7,1.6s-0.3,1.1-0.7,1.6
	c-0.4,0.3-0.7,0.5-1.1,0.6"/>
<path style="fill:#333333;" d="M116.6,95.1l-0.4-1.8c0.3-0.1,0.5-0.2,0.7-0.4c0.3-0.3,0.4-0.5,0.4-0.9s-0.2-0.6-0.4-0.9
	c-0.2-0.2-0.4-0.3-0.7-0.4l0.4-1.8c0.6,0.1,1.2,0.4,1.7,0.8c0.6,0.6,1,1.4,1,2.3s-0.4,1.7-1,2.3C117.7,94.7,117.2,94.9,116.6,95.1z"
	/>
<g>
	<path style="fill:#808080;" d="M126,89.7c-0.5,0.1-1,0.4-1.3,0.6c-0.5,0.4-0.8,1.1-0.8,1.8c0,0.6,0.3,1.2,0.8,1.8
		c0.4,0.4,0.8,0.5,1.2,0.6"/>
	<path style="fill:#333333;" d="M125.8,95.4c-0.6-0.2-1.2-0.4-1.7-0.9c-0.7-0.6-1.1-1.5-1.1-2.5c0-0.9,0.4-1.8,1.1-2.5
		c0.5-0.4,1.1-0.8,1.8-0.9l0.4,1.8c-0.4,0.1-0.6,0.2-0.9,0.4s-0.4,0.6-0.4,1.1c0,0.4,0.2,0.8,0.4,1.1c0.2,0.2,0.5,0.4,0.8,0.4
		L125.8,95.4L125.8,95.4z"/>
</g>
<g>
	<path style="fill:#8CC03F;" d="M123.5,87.9c-0.2,0-0.4-0.1-0.4-0.2c-0.3-0.3-0.3-0.6,0-0.9c0.9-0.9,1.6-2.1,1.8-3.4
		c0.3-1.4,0.1-2.7-0.4-3.8c-0.2-0.4,0-0.7,0.3-0.9c0.4-0.2,0.7,0,0.9,0.3c0.7,1.3,0.9,3,0.6,4.6s-1.1,3.2-2.2,4.1
		C123.9,87.9,123.7,87.9,123.5,87.9z"/>
</g>
<g>
	<path style="fill:#8CC03F;" d="M118,87.7c-0.2,0-0.4-0.1-0.5-0.3c-0.3-0.3-0.4-0.6-0.6-1c-0.7-1.3-0.9-3-0.6-4.7
		c0.3-1.2,0.7-2.4,1.4-3.2c0.2-0.3,0.6-0.4,0.9-0.1c0.3,0.2,0.4,0.6,0.1,0.9c-0.6,0.8-1,1.7-1.1,2.7c-0.3,1.4-0.1,2.7,0.4,3.9
		c0.2,0.3,0.3,0.5,0.4,0.7c0.2,0.3,0.2,0.7-0.1,0.9C118.2,87.6,118.1,87.7,118,87.7z"/>
</g>
<g>
	<path style="fill:#333333;" d="M54.5,136.5c-0.3,0-0.5-0.1-0.7-0.3c-0.4-0.4-0.4-1,0-1.3l23-23c0.4-0.4,1-0.4,1.3,0
		c0.4,0.4,0.4,1,0,1.3l-23,23C55,136.4,54.8,136.5,54.5,136.5z"/>
</g>
<g>
	<path style="fill:#333333;" d="M77.5,136.3c-0.3,0-0.5-0.1-0.7-0.3l-23-23c-0.4-0.4-0.4-1,0-1.3s1-0.4,1.3,0l23,23
		c0.4,0.4,0.4,1,0,1.3C78,136.3,77.7,136.3,77.5,136.3z"/>
</g>
<g>
	<path style="fill:#E6E6E6;" d="M83.9,137.4H47.6c-0.1,0-0.3-0.1-0.3-0.3v-3.8c0-1.3,1.1-2.3,2.3-2.3H82c1.2,0,2.2,1,2.2,2.2v3.9
		C84.2,137.3,84.1,137.4,83.9,137.4L83.9,137.4z"/>
	<path style="fill:#333333;" d="M83.7,138.4H47.7c-0.7,0-1.3-0.6-1.3-1.3v-2.6c0-2.4,1.9-4.3,4.3-4.3H81c2.3,0,4.1,1.8,4.1,4.1v2.7
		C85.2,137.7,84.5,138.4,83.7,138.4L83.7,138.4z M48.3,136.4h34.9v-2.2c0-1.2-1-2.2-2.2-2.2H50.8c-1.3,0-2.4,1.1-2.4,2.4L48.3,136.4
		C48.4,136.4,48.3,136.4,48.3,136.4z"/>
</g>
<path style="fill:none;" d="M0,0h150v150H0V0z"/>
</svg>
