<svg xmlns="http://www.w3.org/2000/svg" viewBox="0 0 150 150"><path d="M33.6 102.4l.1.6 3.4 21.5c.4 2.6 2.8 4.3 5.4 3.9 2.6-.4 4.3-2.8 3.9-5.4L43 101.6" fill="#e6e6e6"/><path d="M41.7 129.7c-2.9 0-5.4-2.1-5.9-5l-3.4-22.1c-.1-.7.4-1.3 1.1-1.4.7-.1 1.3.4 1.4 1.1l.1.6 3.4 21.4c.3 1.9 2.1 3.2 4 2.9.9-.1 1.7-.6 2.3-1.4.5-.8.8-1.7.6-2.6l-3.4-21.5c-.1-.7.4-1.3 1-1.4.7-.1 1.3.4 1.4 1l3.4 21.5c.2 1.6-.1 3.1-1.1 4.4-.9 1.3-2.3 2.1-3.9 2.4-.4.1-.7.1-1 .1z" fill="#333"/><path d="M44.9 47l-18.4 2.9C12 52.1 2.1 65.8 4.3 80.2c2.3 14.4 15.9 24.4 30.3 22.1 5-.8 10.1-1.6 15.1-2.4 9.9-1.5 20.2-.8 30.1.8 7.1 1.2 13.1 2.4 21.4 3.6L87.8 22.7l-20 14.8C61 42.4 53.1 45.7 44.9 47z" fill="#8fc043"/><path d="M101.2 105.6h-.2c-5.2-.8-9.5-1.5-13.7-2.3-2.5-.4-5-.9-7.7-1.3-11.4-1.9-21.1-2.2-29.7-.8l-15.1 2.4c-7.3 1.1-14.6-.6-20.6-5S4.3 87.7 3.1 80.4C.7 65.3 11.1 51 26.2 48.7l18.4-2.9c8.1-1.3 15.8-4.5 22.4-9.3l20.1-14.7c.3-.3.8-.3 1.2-.1.4.2.7.5.8.9l13.4 81.6c.1.4-.1.8-.3 1.1-.4.1-.7.3-1 .3zm-39.9-7.8c5.7 0 12 .6 18.8 1.7 2.7.4 5.2.9 7.7 1.3 3.7.7 7.5 1.3 11.9 2l-12.8-78-18.4 13.6c-6.9 5.1-15 8.4-23.4 9.7L26.7 51c-6.6 1-12.5 4.6-16.5 10.1S4.6 73.3 5.6 79.9s4.6 12.5 10.1 16.5 12.2 5.6 18.8 4.6l15.1-2.4c3.7-.5 7.6-.8 11.7-.8z" fill="#333"/><path fill="none" d="M26.4 49.9l7.2 52.5"/><path d="M33.6 103.7c-.6 0-1.1-.4-1.2-1.1L25.2 50c-.1-.7.4-1.3 1.1-1.4.7-.1 1.3.4 1.4 1.1l7.1 52.6c.1.7-.4 1.3-1.1 1.4h-.1z" fill="#333"/><path fill="none" d="M105.8 40.6l25.5-20.4"/><path d="M105.8 41.8c-.4 0-.7-.2-1-.5-.4-.5-.3-1.3.2-1.7l25.5-20.3c.5-.4 1.3-.3 1.7.2s.3 1.3-.2 1.7l-25.5 20.3c-.1.2-.4.3-.7.3z" fill="#333"/><path fill="none" d="M109.5 63.7l37.3-5.8"/><path d="M109.5 65c-.6 0-1.1-.4-1.2-1-.1-.7.4-1.3 1-1.4l37.3-5.8c.7-.1 1.3.4 1.4 1 .1.7-.4 1.3-1 1.4L109.7 65c-.1-.1-.2 0-.2 0z" fill="#333"/><path fill="none" d="M112.8 85.1l30.5 11.8"/><path d="M143.3 98.1c-.1 0-.3 0-.4-.1l-30.5-11.8c-.6-.2-1-1-.7-1.6.2-.6 1-.9 1.6-.7l30.5 11.8c.6.2 1 1 .7 1.6-.2.5-.7.8-1.2.8z" fill="#333"/><path d="M64.9 49.2C57 53 48.8 55 39.1 55" fill="#8fc043"/><path d="M39.1 56.2c-.7 0-1.2-.6-1.2-1.2s.6-1.2 1.2-1.2c9.2 0 17.2-1.8 25.3-5.7.6-.3 1.3 0 1.6.6.3.6 0 1.3-.6 1.6-8.3 4-16.7 5.9-26.3 5.9z" fill="#333"/><path d="M68.5 47.4c-.3.1-.5.3-.8.4" fill="#8fc043"/><path d="M67.7 49c-.4 0-.9-.2-1.1-.7-.3-.6-.1-1.3.5-1.7l.8-.4c.6-.3 1.3-.1 1.7.5.3.6.1 1.3-.5 1.7l-.8.4c-.2.2-.4.2-.6.2z" fill="#333"/><g><path d="M77.1 41.8c-2 1.4-3.9 2.6-5.8 3.8" fill="#8fc043"/><path d="M71.2 46.8c-.4 0-.8-.2-1.1-.6-.3-.6-.2-1.3.4-1.7 1.9-1.1 3.8-2.4 5.8-3.8.6-.4 1.3-.3 1.7.3.4.6.3 1.3-.3 1.7-2 1.4-4 2.7-5.9 3.9-.2.2-.4.2-.6.2z" fill="#333"/></g><g><ellipse transform="rotate(-8.996 94.709 63.387)" cx="94.7" cy="63.4" rx="5.2" ry="41.5" fill="#8fc043"/><path d="M101.2 105.6c-6.1 0-12.2-36.9-12.8-41.2-1.7-11-2.8-21.4-3.1-29.3-.4-11.7 1.1-13.6 2.8-13.8 1.7-.3 3.7 1 6.9 12.3 2.2 7.6 4.4 17.9 6.1 28.9 1.7 11 2.8 21.4 3.1 29.3.4 11.7-1.1 13.6-2.8 13.8h-.2zM88.4 23.9c-1.3 2.6-1.3 17.6 2.3 40.2 3.6 22.6 8.2 36.8 10.2 38.9 1.3-2.6 1.3-17.6-2.3-40.2-3.5-22.6-8.1-36.8-10.2-38.9z" fill="#333"/></g><g><path d="M88.7 56.2c3.7-.6 7.3 2.3 7.9 6.5s-1.8 8.1-5.5 8.7" fill="#e6e6e6"/><path d="M91.1 72.6c-.6 0-1.1-.4-1.2-1-.1-.7.4-1.3 1-1.4 3-.5 5.1-3.7 4.5-7.2-.6-3.5-3.5-6-6.5-5.5-.7.1-1.3-.4-1.4-1-.1-.7.4-1.3 1-1.4 4.4-.7 8.6 2.7 9.3 7.5.8 4.9-2.2 9.4-6.6 10.1 0-.1-.1-.1-.1-.1z" fill="#333"/></g><g><path d="M101.1 105.5c-6.1 0-12.2-36.9-12.8-41.2-1.7-11-2.8-21.4-3.1-29.3-.4-11.7 1.1-13.6 2.8-13.8h.2c6.1 0 12.2 36.9 12.8 41.2 1.7 11 2.8 21.4 3.1 29.3.4 11.7-1.1 13.6-2.8 13.8h-.2zM88.4 23.8c-1.3 2.6-1.3 17.6 2.3 40.2 3.6 22.6 8.2 36.8 10.2 38.9 1.3-2.6 1.3-17.6-2.3-40.2-3.6-22.6-8.1-36.9-10.2-38.9z" fill="#333"/></g><g><path d="M23 96.5c1.2.6 2.5 1 3.8 1.4" fill="#8fc043"/><path d="M26.7 99.1h-.3c-1.3-.4-2.7-.9-4-1.4-.6-.3-.9-1-.6-1.6s1-.9 1.6-.6c1.2.5 2.4 1 3.6 1.3.7.2 1 .9.9 1.5-.1.4-.6.8-1.2.8z" fill="#333"/></g><g><path d="M21.1 95.5c.6.3 1.2.6 1.9.9" fill="#8fc043"/><path d="M23 97.7c-.2 0-.3 0-.5-.1-.7-.3-1.3-.6-1.9-1-.6-.3-.8-1.1-.5-1.7s1.1-.8 1.7-.5l1.8.9c.6.3.9 1 .6 1.6-.3.5-.8.8-1.2.8z" fill="#333"/></g><g><path d="M12.6 88.1c2.3 3.1 5.2 5.6 8.5 7.4" fill="#8fc043"/><path d="M21.1 96.8c-.2 0-.4 0-.6-.2-3.5-1.9-6.6-4.6-8.9-7.8-.4-.5-.3-1.3.3-1.7.5-.4 1.3-.3 1.7.2 2.2 2.9 5 5.4 8.1 7.1.6.3.8 1.1.5 1.7-.3.4-.7.7-1.1.7z" fill="#333"/></g><g><path d="M89.1 59.2c1.5.1 3 .7 3.8 2.1" fill="#e6e6e6"/><path d="M92.9 62.5c-.4 0-.8-.2-1.1-.6-.5-.9-1.5-1.4-2.8-1.5-.7 0-1.2-.6-1.2-1.3s.6-1.2 1.3-1.2c2.1.1 3.8 1.1 4.8 2.7.3.6.1 1.3-.4 1.7-.2.2-.4.2-.6.2z" fill="#333"/></g><path fill="none" d="M0 0h150v150H0z"/></svg>