<?xml version="1.0" encoding="utf-8"?>
<!-- Generator: Adobe Illustrator 21.0.2, SVG Export Plug-In . SVG Version: 6.00 Build 0)  -->
<svg version="1.1" id="Layer_1" xmlns="http://www.w3.org/2000/svg" xmlns:xlink="http://www.w3.org/1999/xlink" x="0px" y="0px"
	 viewBox="0 0 150 150" style="enable-background:new 0 0 150 150;" xml:space="preserve">
<title>Home icon</title>
<path style="fill:#8CC63F;stroke:#333333;stroke-width:1.5;stroke-miterlimit:10;" d="M121,134.9V57.7l-89.1-0.2V135"/>
<path style="fill:#ECECEC;stroke:#333333;stroke-width:1.5;stroke-miterlimit:10;" d="M97.4,33.7v-7.1c0-1.8,1.9-2.4,4.1-2.4h6.9
	c2.2,0,4,1,4,2.8l-0.1,19.2 M67,135v-28.9c0-5.2,4.7-9.1,9.9-9.1H77c5-0.2,9.2,3.7,9.5,8.7V135"/>
<path style="fill:#E6E6E6;stroke:#333333;stroke-width:1.5;stroke-linecap:round;stroke-linejoin:round;" d="M109.6,85.2V66.5
	c0-0.3-0.2-0.4-0.4-0.4H85.7c-0.2,0-0.3,0.2-0.3,0.3v18.8 M67.9,85.2V66.4c0-0.2-0.1-0.3-0.3-0.3c-2.6,0.2-21.8,0.1-24,0
	c-0.1,0-0.2,0.1-0.3,0.2v19"/>
<path style="fill:none;stroke:#333333;stroke-width:1.5;" d="M69.7,118.9c0,0.4,0.3,0.8,0.8,0.8c0.4,0,0.8-0.3,0.8-0.8
	c0-0.4-0.3-0.8-0.8-0.8C70,118.1,69.7,118.4,69.7,118.9"/>
<path style="fill:#FFFFFF;stroke:#333333;stroke-width:1.5;" d="M71,105.1h11.3c0.8,0,1.4,0.6,1.4,1.4v7.8c0,0.8-0.6,1.4-1.4,1.4H71
	c-0.8,0-1.4-0.6-1.4-1.4v-7.8C69.7,105.7,70.3,105.1,71,105.1z"/>
<path style="fill:none;stroke:#333333;stroke-width:1.5;" d="M110.2,75.9H85.7 M68.2,75.4H43.9 M98,65.4v20.5 M55.6,65.4v20.5"/>
<path style="fill:#6F6F6E;stroke:#333333;stroke-width:1.5;stroke-miterlimit:10;" d="M110.5,85.7c0.1-0.8-0.5-1.4-1.2-1.4h-24
	c-0.8,0-1.3,0.7-1.3,1.4V86c-0.1,0.8,0.5,1.4,1.2,1.4h24c0.8,0,1.3-0.7,1.3-1.4V85.7z M68.5,85.7c0.1-0.8-0.5-1.4-1.2-1.4h-24
	c-0.8,0-1.3,0.7-1.3,1.4V86c-0.1,0.8,0.5,1.4,1.2,1.4h23.9c0.8,0,1.3-0.7,1.3-1.4L68.5,85.7L68.5,85.7z"/>
<path style="fill:#E6E6E6;stroke:#333333;stroke-width:1.5;stroke-miterlimit:10;" d="M55.4,121.5v-19.2c0-0.8-0.3-0.5-0.6-0.5H44
	c-0.3,0-0.7-0.3-0.7,0.5v19.2"/>
<path style="fill:none;stroke:#333333;stroke-width:1.5;" d="M55.4,111.7H43.9"/>
<path style="fill:#6F6F6E;stroke:#333333;stroke-width:1.5;stroke-miterlimit:10;" d="M42.8,121.7h12.7c0.6,0,1.1,0.5,1.1,1.1v1.1
	c0,0.6-0.5,1.1-1.1,1.1H42.8c-0.6,0-1.1-0.5-1.1-1.1v-1.1C41.7,122.2,42.3,121.7,42.8,121.7z"/>
<path style="fill:#CCCCCC;stroke:#333333;stroke-width:1.5;stroke-miterlimit:10;" d="M97.2,18.7h15.5c0.9,0,1.7,0.8,1.7,1.7v5.2
	c0,0.9-0.8,1.7-1.7,1.7H97.2c-0.9,0-1.7-0.8-1.7-1.7v-5.2C95.5,19.5,96.3,18.7,97.2,18.7z"/>
<path style="fill:#B3B3B3;stroke:#333333;stroke-width:1.5;stroke-miterlimit:10;" d="M101.7,13.7h6.5c0.7,0,1.3,0.6,1.3,1.3v2.3
	c0,0.7-0.6,1.3-1.3,1.3h-6.5c-0.7,0-1.3-0.6-1.3-1.3V15C100.3,14.2,100.9,13.7,101.7,13.7z"/>
<path style="fill:#ECECEC;stroke:#333333;stroke-width:1.5;stroke-miterlimit:10;" d="M121.6,58.9h2.1c0.8-0.1,1.4-0.8,1.3-1.6
	c0-0.3-0.2-0.7-0.4-0.8L77.4,17.1c-0.5-0.4-1.2-0.4-1.7,0L28.5,56.3c-0.6,0.4-0.7,1.3-0.2,1.9c0.3,0.3,0.6,0.5,1,0.5l2.5,0.3H121.6z
	"/>
<path style="fill:none;stroke:#333333;stroke-width:1.5;stroke-linecap:round;stroke-miterlimit:10;" d="M26,135h101.3"/>
<path style="fill:#E6E6E6;stroke:#333333;stroke-width:1.5;stroke-miterlimit:10;" d="M109.1,120.3v-19.1c0-0.8-0.3-0.5-0.6-0.5
	H97.9c-0.3,0-0.7-0.3-0.7,0.5v19.2"/>
<path style="fill:none;stroke:#333333;stroke-width:1.5;" d="M109.1,110.5H97.8"/>
<path style="fill:#6F6F6E;stroke:#333333;stroke-width:1.5;stroke-miterlimit:10;" d="M96.6,120.2h12.7c0.6,0,1.1,0.5,1.1,1.1v1.1
	c0,0.6-0.5,1.1-1.1,1.1H96.6c-0.6,0-1.1-0.5-1.1-1.1v-1.1C95.6,120.7,96,120.2,96.6,120.2z"/>
<path style="fill:none;stroke:#FFFFFF;stroke-width:1.5;stroke-linecap:round;stroke-miterlimit:10;" d="M52.2,78.7l-5,2.5
	 M106.1,105l-5,2.5 M106.1,70l-5,2.5 M52.2,115l-5,2.5"/>
<path style="fill:none;" d="M0,0h150v150H0V0z"/>
</svg>
