<svg xmlns="http://www.w3.org/2000/svg" viewBox="0 0 138 23" width="100" height="16"><path fill="#8cc63f" stroke="#8cc63f" stroke-linecap="round" stroke-linejoin="round" stroke-miterlimit="10" d="M15.8 8.1l6.7.9-4.8 4.8 1.2 6.6-6-3.1-6 3.2L8 13.9 3.1 9.2l6.7-1.1 2.9-6zM44.2 8.1l6.7.9-4.8 4.8 1.2 6.6-6-3.1-6 3.2 1.1-6.6-4.9-4.7 6.7-1.1 3-6zM72.6 8.1l6.7.9-4.8 4.8 1.2 6.6-6-3.1-6 3.2 1.1-6.6L60 9.2l6.6-1.1 3-6zM101.1 8.1l6.7.9-4.9 4.8 1.2 6.6-6-3.1-5.9 3.2 1.1-6.6-4.9-4.7 6.7-1.1 2.9-6zM129.1 8.1l6.7.9-4.9 4.8 1.2 6.6-6-3.1-5.9 3.2 1.1-6.6-4.9-4.7 6.7-1.1 2.9-6z"/></svg>