<svg xmlns="http://www.w3.org/2000/svg" viewBox="0 0 138 23" width="100" height="16"><path fill="#8cc63f" stroke="#8cc63f" stroke-linecap="round" stroke-linejoin="round" stroke-miterlimit="10" d="M15.8 8.1l6.7.9-4.8 4.8 1.2 6.6-6-3.1-6 3.2L8 13.9 3.1 9.2l6.7-1.1 2.9-6zM44.2 8.1l6.7.9-4.8 4.8 1.2 6.6-6-3.1-6 3.2 1.1-6.6-4.9-4.7 6.7-1.1 3-6zM72.6 8.1l6.7.9-4.8 4.8 1.2 6.6-6-3.1-6 3.2 1.1-6.6L60 9.2l6.6-1.1 3-6zM101.1 8.1l6.7.9-4.9 4.8 1.2 6.6-6-3.1-5.9 3.2 1.1-6.6-4.9-4.7 6.7-1.1 2.9-6z"/><path d="M129.7 19.4l-2.9-1.5h-.3l-5.5 3c-.2.1-.5-.1-.5-.3l1-6.2c0-.1 0-.2-.1-.3l-4.5-4.4c-.2-.2-.1-.5.2-.6l6.2-1c.1 0 .2-.1.2-.2l2.7-5.7c.1-.2.5-.2.6 0l2.9 5.8" fill="#8cc63f"/><path d="M129.7 8.1l6.4.9c.3 0 .4.4.2.6l-4.5 4.4c-.1.1-.1.2-.1.3l1.1 6.2c0 .3-.2.5-.5.3l-2.7-1.4" fill="#e6e6e6"/></svg>