<svg xmlns="http://www.w3.org/2000/svg" viewBox="0 0 500 500"><path d="M440.3 102.7h-84.8V80.8c0-34.1-27.8-61.9-61.9-61.9h-83.9c-34.1 0-61.9 27.8-61.9 61.9v21.9H63c-11 0-20 9-20 20s9 20 20 20h21.9v273.5c0 34.1 27.8 61.9 61.9 61.9h209.6c34.1 0 61.9-27.8 61.9-61.9V142.7h21.9c11 0 20-9 20-20s-8.8-20-19.9-20zM187.8 80.8c0-12.1 9.8-21.9 21.9-21.9h83.9c12.1 0 21.9 9.8 21.9 21.9v21.9H187.8V80.8zm190.6 335.4c0 12.1-9.8 21.9-21.9 21.9H146.9c-12.1 0-21.9-9.8-21.9-21.9V142.7h253.5v273.5z"/><path d="M194 207.5c-11 0-20 9-20 20v125.8c0 11 9 20 20 20s20-9 20-20V227.5c0-11-8.9-20-20-20zM298.8 207.5c-11 0-20 9-20 20v125.8c0 11 9 20 20 20s20-9 20-20V227.5c0-11-8.9-20-20-20z"/></svg>