<svg xmlns="http://www.w3.org/2000/svg" viewBox="0 0 500 500"><path d="M388.9 248.2c-11 0-20 9-20 20v138.9c0 14.5-11.8 26.3-26.3 26.3H88c-14.5 0-26.3-11.8-26.3-26.3V152.5c0-14.5 11.8-26.3 26.3-26.3h138.9c11 0 20-9 20-20s-9-20-20-20H88c-36.6 0-66.3 29.7-66.3 66.3v254.6c0 36.6 29.7 66.3 66.3 66.3h254.6c36.6 0 66.3-29.7 66.3-66.3V268.2c0-11-9-20-20-20z"/><path d="M478.3 36.6c0-.6 0-1.3-.1-1.9 0-.3-.1-.6-.1-.9 0-.3-.1-.7-.2-1-.1-.3-.2-.7-.2-1-.1-.3-.1-.6-.2-.9-.1-.3-.2-.6-.3-1l-.3-.9c-.1-.3-.3-.6-.4-.9-.1-.3-.3-.6-.4-.9-.1-.3-.3-.5-.5-.8-.2-.3-.3-.6-.5-.9l-.6-.9c-.2-.2-.3-.5-.5-.7-.4-.5-.8-1-1.3-1.4v-.1c-.5-.5-.9-.9-1.4-1.3-.2-.2-.5-.4-.7-.5-.3-.2-.6-.4-.8-.6-.3-.2-.6-.4-.9-.5-.3-.2-.5-.3-.8-.5-.3-.2-.6-.3-.9-.4-.3-.1-.6-.3-.9-.4l-.9-.3-.9-.3c-.3-.1-.6-.2-.9-.2-.3-.1-.7-.2-1-.2-.4-.1-.7-.1-1.1-.2-.3 0-.6-.1-.9-.1-.7-.1-1.3-.1-2-.1H319.4c-11 0-20 9-20 20s9 20 20 20H410L189.6 277.2c-7.8 7.8-7.8 20.5 0 28.3 3.9 3.9 9 5.9 14.1 5.9s10.2-2 14.1-5.9L438.3 85v90.6c0 11 9 20 20 20s20-9 20-20v-139c0 .1 0 .1 0 0z"/></svg>