<svg xmlns="http://www.w3.org/2000/svg" viewBox="0 0 500 500"><path d="M314.7 484.9c-14 0-27.9-.1-41.8-.3-13.4-.1-26.7-.3-40-.3l-35 .1c-23.5.1-47.1.2-70.5-.2l.5-29.3c-.6-.3 1.6-3.5 3.3-16.7 6.6-50.7 9.5-104.4 8.7-159.7-.4-26-1.6-53.3-3.6-81-.5-6.9-1.2-13.7-1.9-20.6-1.7-17-3.4-34.6-2.5-52.5 1.2-22.8 7.2-42.6 17.7-58.6 16.4-25 41.7-41 75.4-47.4C275.7 8.7 322.6 28 350.5 70l-24.8 16.1c-21.4-32.2-55.9-46.3-95.1-38.9-25.7 4.9-44.1 16.2-56.1 34.5-7.7 11.7-12 26.6-13 44.3-.8 15.7.7 31.4 2.4 48.1.7 7.1 1.4 14.2 1.9 21.3 2.1 28.3 3.3 56.1 3.7 82.7.8 56.7-2.2 111.8-8.9 163.9-.6 4.8-1.5 9.2-2.5 13.2 13.2 0 26.4 0 39.6-.1l35.1-.1c13.4 0 26.9.1 40.3.3 28.1.3 56.3.5 84.5-.3 25.9-.8 37.4-13 41.2-43.4l29.4 3.6c-5.6 44.5-29 67.8-69.7 69.2-14.5.3-29.2.5-43.8.5z"/><path d="M71.3 224.4h209.3v29.3H71.3z"/></svg>