<svg xmlns="http://www.w3.org/2000/svg" viewBox="237 -238 500 500"><path d="M702.9-176.3l-31.8-31.8c-25-25-68.2-25-93.1 0l-281.7 284c-2.3 2.3-2.3 4.5-4.5 6.8l-40.9 145.4c-2.3 4.5 0 11.4 4.5 13.6 2.3 2.3 6.8 4.5 11.4 4.5h4.5l145.4-40.9c2.3 0 4.5-2.3 6.8-4.5L702.9-80.9c13.6-13.6 20.4-29.5 20.4-47.7s-6.8-34.1-20.4-47.7zM403 175.8l-115.9 34.1L321.2 94l227.2-227.2 84.1 84.1L403 175.8zm279.4-277.1l-31.8 31.8-84.1-84.1 31.8-31.8c13.6-13.6 38.6-13.6 52.3 0l31.8 31.8c6.8 6.8 11.4 15.9 11.4 25s-4.6 20.5-11.4 27.3z"/></svg>