<svg xmlns="http://www.w3.org/2000/svg" viewBox="0 0 76 75"><path d="M57.4 37.2c0 10.6-8.6 19.3-19.3 19.3s-19.3-8.6-19.3-19.3c0-10.6 8.6-19.3 19.3-19.3s19.3 8.7 19.3 19.3" opacity=".3" fill="#8cc63f"/><g fill="none" stroke="#8cc63f" stroke-width="5" stroke-linecap="round" stroke-miterlimit="10"><path d="M44.4 3.2c12.4 2.3 22.4 11.1 26.4 22.7M3.7 39.7c-.1-.8-.1-1.6-.1-2.5 0-13 7.2-24.4 17.9-30.3M9.6 56.7c-1.6-2.4-3-4.9-3.9-7.7M38.1 71.8c-7.8 0-15.1-2.6-20.9-7M71.9 44.8C70.4 51.5 67 57.4 62.3 62"/></g></svg>