<?xml version="1.0" encoding="utf-8"?>
<!-- Generator: Adobe Illustrator 21.0.2, SVG Export Plug-In . SVG Version: 6.00 Build 0)  -->
<svg version="1.1" id="Layer_1" xmlns="http://www.w3.org/2000/svg" xmlns:xlink="http://www.w3.org/1999/xlink" x="0px" y="0px"
	 viewBox="0 0 150 150" style="enable-background:new 0 0 150 150;" xml:space="preserve">
<g>
	<g>
		<polyline style="fill:#E6E6E6;" points="90.9,39.9 106.6,94.8 43.4,94.8 59,39.9 		"/>
		<path style="fill:#333333;" d="M106.6,96H43.4c-0.4,0-0.7-0.2-0.9-0.5s-0.3-0.7-0.2-1l15.6-55c0.2-0.6,0.8-1,1.4-0.8
			c0.6,0.2,1,0.8,0.8,1.4L44.9,93.7H105L89.8,40.2c-0.2-0.6,0.2-1.2,0.8-1.4c0.6-0.2,1.2,0.2,1.4,0.8l15.6,55c0.1,0.3,0,0.7-0.2,1
			C107.2,95.8,106.9,96,106.6,96z"/>
	</g>
	<g>
		<path style="fill:#333333;" d="M98.4,89.3c-0.5,0-0.9-0.3-1.1-0.8L86.9,55.1c-0.2-0.6,0.1-1.2,0.8-1.4c0.6-0.2,1.2,0.2,1.4,0.8
			l10.4,33.4c0.2,0.6-0.1,1.2-0.8,1.4C98.6,89.3,98.5,89.3,98.4,89.3z"/>
	</g>
	<g>
		<path style="fill:#333333;" d="M51.6,89.3c-0.1,0-0.2,0-0.3,0c-0.6-0.2-1-0.8-0.8-1.4l9.7-33.4c0.2-0.6,0.8-1,1.4-0.8
			c0.6,0.2,1,0.8,0.8,1.4l-9.7,33.4C52.5,89,52.1,89.3,51.6,89.3z"/>
	</g>
	<g>
		<circle style="fill:#E6E6E6;" cx="75.3" cy="14.8" r="10.7"/>
		<path style="fill:#333333;" d="M75.3,26.7c-6.5,0-11.8-5.3-11.8-11.8C63.5,8.3,68.8,3,75.3,3s11.8,5.3,11.8,11.8
			C87.2,21.4,81.8,26.7,75.3,26.7z M75.3,5.3c-5.3,0-9.6,4.3-9.6,9.6s4.3,9.6,9.6,9.6c5.3,0,9.6-4.3,9.6-9.6S80.6,5.3,75.3,5.3z"/>
	</g>
	<g>
		<path style="fill:#E6E6E6;" d="M31.3,39.8h-6.7c-2.7,0-5-2.2-5-5l0,0c0-2.7,2.2-5,5-5h6.6"/>
		<path style="fill:#333333;" d="M31.3,41L31.3,41h-6.7c-3.4,0-6.1-2.8-6.1-6.1s2.8-6.1,6.1-6.1h6.6c0.6,0,1.1,0.5,1.1,1.1
			S31.8,31,31.2,31h-6.6c-2.1,0-3.9,1.7-3.9,3.9s1.7,3.9,3.9,3.9h6.7c0.6,0,1.1,0.5,1.1,1.1C32.5,40.4,32,41,31.3,41z"/>
	</g>
	<g>
		<path style="fill:#E6E6E6;" d="M118,39.8h7.9c2.7,0,5-2.2,5-5l0,0c0-2.7-2.2-5-5-5H118"/>
		<path style="fill:#333333;" d="M125.9,41H118c-0.6,0-1.1-0.5-1.1-1.1s0.5-1.1,1.1-1.1h7.9c2.1,0,3.9-1.7,3.9-3.9s-1.7-3.9-3.9-3.9
			H118c-0.6,0-1.1-0.5-1.1-1.1s0.5-1.1,1.1-1.1h7.9c3.4,0,6.1,2.8,6.1,6.1S129.3,41,125.9,41z"/>
	</g>
	<g>
		<path style="fill:#E6E6E6;" d="M79.2,111.6v11.3c0,3.2,2.6,5.9,5.9,5.9l0,0c3.2,0,5.9-2.6,5.9-5.9V111"/>
		<path style="fill:#333333;" d="M85.1,130c-3.9,0-7-3.1-7-7v-11.3c0-0.6,0.5-1.2,1.1-1.1c0.6,0,1.1,0.5,1.1,1.1V123
			c0,2.6,2.1,4.7,4.7,4.7s4.7-2.1,4.7-4.7v-11.9c0-0.6,0.5-1.1,1.1-1.1s1.1,0.5,1.1,1.1V123C92.1,126.8,89,130,85.1,130z"/>
	</g>
	<g>
		<path style="fill:#E6E6E6;" d="M58.9,111.8v11.4c0,3.2,2.6,5.9,5.9,5.9l0,0c3.2,0,5.9-2.6,5.9-5.9v-11.5"/>
		<path style="fill:#333333;" d="M64.7,130.2c-3.9,0-7-3.1-7-7v-11.4c0-0.6,0.5-1.1,1.1-1.1s1.1,0.5,1.1,1.1v11.4
			c0,2.6,2.1,4.7,4.7,4.7s4.7-2.1,4.7-4.7v-11.5c0-0.6,0.5-1.1,1.1-1.1l0,0c0.6,0,1.1,0.5,1.1,1.1v11.5
			C71.8,127,68.6,130.2,64.7,130.2z"/>
	</g>
	<g>
		<path style="fill:#333333;" d="M85.3,148c-0.6,0-1.1-0.5-1.1-1.1v-11.4c0-0.6,0.5-1.1,1.1-1.1s1.1,0.5,1.1,1.1v11.4
			C86.4,147.5,85.9,148,85.3,148z"/>
	</g>
	<g>
		<path style="fill:#333333;" d="M63.9,148c-0.6,0-1.1-0.5-1.1-1.1v-11.4c0-0.6,0.5-1.1,1.1-1.1s1.1,0.5,1.1,1.1v11.4
			C65,147.5,64.5,148,63.9,148z"/>
	</g>
	<g>
		<path style="fill:#8FC043;" d="M91,111.1V68.2V39.8h27v-10H31.2l0.1,10h27.6l-0.1,28.5v43.4l11.8-0.1L70.7,75
			c0-2.3,1.9-4.2,4.2-4.2c2.3,0,4.2,1.9,4.2,4.2l0.1,36.5h11.7L91,111.1z"/>
		<path style="fill:#333333;" d="M58.9,112.9c-0.3,0-0.6-0.1-0.8-0.3c-0.2-0.2-0.3-0.5-0.3-0.8V68.4V41H31.3c-0.6,0-1.1-0.5-1.1-1.1
			l-0.1-10c0-0.3,0.1-0.6,0.3-0.8c0.2-0.2,0.5-0.3,0.8-0.3H118c0.6,0,1.1,0.5,1.1,1.1v10c0,0.3-0.1,0.6-0.3,0.8
			c-0.2,0.2-0.5,0.3-0.8,0.3H92.1v70.1c0,0,0,0,0,0.1v0.6c0,0.6-0.5,1.1-1.1,1.1H79.2c-0.6,0-1.1-0.5-1.1-1.1L78,75.1
			c0-1.7-1.4-3.1-3.1-3.1s-3.1,1.4-3.1,3.1l-0.1,36.6c0,0.6-0.5,1.1-1.1,1.1L58.9,112.9L58.9,112.9z M91,111.1L91,111.1L91,111.1z
			 M32.5,38.7H59c0.3,0,0.6,0.1,0.8,0.3s0.3,0.5,0.3,0.8L60,68.4v42.2h9.5l0.1-35.5c0-2.9,2.4-5.3,5.3-5.3s5.3,2.4,5.3,5.3l0.1,35.4
			h9.5V39.8c0-0.6,0.5-1.1,1.1-1.1h25.9V31H32.4L32.5,38.7z"/>
	</g>
	<g>
		<path style="fill:#E6E6E6;" d="M83.8,29.8c0,2.4-3.8,4.3-8.6,4.3s-8.6-1.9-8.6-4.3"/>
		<path style="fill:#333333;" d="M75.3,35.2c-5.5,0-9.7-2.3-9.7-5.4c0-0.6,0.5-1.1,1.1-1.1s1.1,0.5,1.1,1.1c0,1.5,3.2,3.1,7.4,3.1
			s7.4-1.7,7.4-3.1c0-0.6,0.5-1.1,1.1-1.1s1.1,0.5,1.1,1.1C85,32.9,80.8,35.2,75.3,35.2z"/>
	</g>
	<g>
		<path style="fill:#E6E6E6;" d="M77.3,40.4C77.2,40.4,77.2,40.3,77.3,40.4c-3.1,4.8-6.2,9.5-9.3,14.4c2,0.1,3.9,0.1,5.9,0.2
			c-0.1,2.9-0.2,5.8-0.2,8.7h0.1c3-4.8,6.1-9.6,9.1-14.4c-2-0.1-3.9-0.1-5.9-0.2C77.1,46.2,77.2,43.3,77.3,40.4z"/>
		<path style="fill:#333333;" d="M73.8,64.8c-0.1,0-0.2,0-0.3-0.1c-0.1,0-0.2-0.1-0.2-0.1c-0.5-0.2-0.7-0.6-0.7-1.1l0.2-7.5
			c-1.6,0-3.1-0.1-4.8-0.1c-0.4,0-0.8-0.2-1-0.6c-0.2-0.4-0.2-0.8,0-1.2l9.2-14.4c0.3-0.5,0.9-0.7,1.4-0.5c0.5,0.1,0.8,0.6,0.8,1.1
			L78.3,43c0,1.6-0.1,3.2-0.1,4.9l4.7,0.1c0.4,0,0.8,0.2,1,0.6c0.2,0.4,0.2,0.8,0,1.1c-2.4,3.8-4.8,7.6-7.3,11.4l-1.9,3
			C74.5,64.6,74.2,64.8,73.8,64.8z M70,53.7c1.3,0,2.6,0.1,3.9,0.1c0.6,0,1.1,0.5,1.1,1.2l-0.1,4.7c2-3.1,4-6.2,5.9-9.3L77,50.2
			c-0.6,0-1.1-0.5-1.1-1.2c0-1.6,0.1-3.2,0.1-4.8L70,53.7z M77.2,40.3L77.2,40.3L77.2,40.3z"/>
	</g>
	<g>
		<line style="fill:none;" x1="63" y1="29.8" x2="87.2" y2="29.8"/>
		<path style="fill:#333333;" d="M87.2,31H63c-0.6,0-1.1-0.5-1.1-1.1s0.5-1.1,1.1-1.1h24.2c0.6,0,1.1,0.5,1.1,1.1S87.9,31,87.2,31z"
			/>
	</g>
	<g>
		<path style="fill:#E6E6E6;" d="M58.9,69.4H91v7.2l-3.7,0.2c-2.4,0.1-4.8,1-6.7,2.5l-0.3,0.2c-0.7,0.6-1.5,0.9-2.4,1.2L76.7,81
			c-1.4,0.3-2.8,0.3-4.1-0.1L72,80.7c-0.8-0.2-1.6-0.6-2.2-1.1l-0.1-0.1c-2-1.6-4.6-2.5-7.1-2.6L59,76.8L58.9,69.4L58.9,69.4z"/>
		<path style="fill:#333333;" d="M74.8,82.3c-0.9,0-1.7-0.1-2.5-0.4l-0.6-0.2c-1-0.3-1.8-0.7-2.6-1.3L69,80.3
			c-1.9-1.5-4.1-2.3-6.5-2.3l-3.6-0.1c-0.6,0-1.1-0.5-1.1-1.1v-7.4c0-0.6,0.5-1.1,1.1-1.1H91c0.6,0,1.1,0.5,1.1,1.1v7.2
			c0,0.6-0.5,1.1-1.1,1.1l-3.7,0.2c-2.2,0.1-4.3,0.9-6.1,2.3L81,80.4c-0.8,0.7-1.8,1.1-2.8,1.4L77,82.1
			C76.2,82.3,75.5,82.3,74.8,82.3z M60,75.7l2.5,0.1c2.9,0.1,5.6,1.1,7.8,2.8l0.1,0.1c0.5,0.4,1.2,0.7,1.8,0.9l0.6,0.2
			c1.2,0.3,2.4,0.4,3.5,0.1l1.2-0.3c0.7-0.2,1.4-0.5,2-0.9l0.3-0.2c2.1-1.6,4.7-2.6,7.3-2.7l2.6-0.1v-5H60V75.7z"/>
	</g>
</g>
<rect style="fill:none;" width="150" height="150"/>
</svg>
