<?xml version="1.0" encoding="utf-8"?>
<!-- Generator: Adobe Illustrator 21.0.2, SVG Export Plug-In . SVG Version: 6.00 Build 0)  -->
<svg version="1.1" id="Layer_1" xmlns="http://www.w3.org/2000/svg" xmlns:xlink="http://www.w3.org/1999/xlink" x="0px" y="0px"
	 viewBox="0 0 150 150" style="enable-background:new 0 0 150 150;" xml:space="preserve">
<g>
	<g>
		<path style="fill:#333333;" d="M74.4,144.6c-0.6,0-1.1-0.5-1.1-1.1V65.7c0-0.6,0.5-1.1,1.1-1.1s1.1,0.5,1.1,1.1v77.8
			C75.5,144.1,75,144.6,74.4,144.6z"/>
	</g>
	<g>
		<path style="fill:#333333;" d="M48.2,144.6c-0.6,0-1.1-0.5-1.1-1.1V65.7c0-0.6,0.5-1.1,1.1-1.1s1.1,0.5,1.1,1.1v77.7
			C49.3,144.1,48.8,144.6,48.2,144.6z"/>
	</g>
	<g>
		<path style="fill:#333333;" d="M48.2,93c-0.3,0-0.6-0.1-0.8-0.3c-0.4-0.4-0.4-1.1,0-1.5L73.6,65c0.4-0.4,1.1-0.4,1.5,0
			s0.4,1.1,0,1.5L49,92.7C48.8,92.9,48.5,93,48.2,93z"/>
	</g>
	<g>
		<path style="fill:#333333;" d="M48.2,118.9c-0.3,0-0.6-0.1-0.8-0.3c-0.4-0.4-0.4-1.1,0-1.5l26.2-26.2c0.4-0.4,1.1-0.4,1.5,0
			s0.4,1.1,0,1.5l-26.2,26.2C48.7,118.8,48.5,118.9,48.2,118.9z"/>
	</g>
	<g>
		<path style="fill:#333333;" d="M74.3,93c-0.3,0-0.6-0.1-0.8-0.3L47.4,66.5c-0.4-0.4-0.4-1.1,0-1.5s1.1-0.4,1.5,0l26.2,26.2
			c0.4,0.4,0.4,1.1,0,1.5C74.9,92.9,74.6,93,74.3,93z"/>
	</g>
	<g>
		<path style="fill:#333333;" d="M74.4,118.7c-0.3,0-0.6-0.1-0.8-0.3L47.4,92.2c-0.4-0.4-0.4-1.1,0-1.5s1.1-0.4,1.5,0l26.2,26.2
			c0.4,0.4,0.4,1.1,0,1.5C74.9,118.6,74.6,118.7,74.4,118.7z"/>
	</g>
	<g>
		<path style="fill:#333333;" d="M74.3,92.8H48.2c-0.6,0-1.1-0.5-1.1-1.1s0.5-1.1,1.1-1.1h26.1c0.6,0,1.1,0.5,1.1,1.1
			S74.9,92.8,74.3,92.8z"/>
	</g>
	<g>
		<path style="fill:#333333;" d="M74.4,118.7H48.9c-0.6,0-1.1-0.5-1.1-1.1s0.5-1.1,1.1-1.1h25.5c0.6,0,1.1,0.5,1.1,1.1
			S75,118.7,74.4,118.7z"/>
	</g>
	<g>
		<path style="fill:#333333;" d="M111.9,55.4c-0.3,0-0.6-0.1-0.8-0.3L85,29c-0.4-0.4-0.4-1.1,0-1.5s1.1-0.4,1.5,0l26.2,26.2
			c0.4,0.4,0.4,1.1,0,1.5C112.5,55.3,112.2,55.4,111.9,55.4z"/>
	</g>
	<g>
		<path style="fill:#333333;" d="M85.8,55.3c-0.3,0-0.6-0.1-0.8-0.3c-0.4-0.4-0.4-1.1,0-1.5l26.2-26.2c0.4-0.4,1.1-0.4,1.5,0
			s0.4,1.1,0,1.5L86.6,55C86.3,55.2,86.1,55.3,85.8,55.3z"/>
	</g>
	<g>
		<path style="fill:#4D4D4D;" d="M111.9,55.3c-0.6,0-1.1-0.5-1.1-1.1V28.1c0-0.6,0.5-1.1,1.1-1.1s1.1,0.5,1.1,1.1v26.2
			C113,54.9,112.5,55.3,111.9,55.3z"/>
	</g>
	<g>
		<path style="fill:#333333;" d="M137.6,55.4H86.2c-0.6,0-1.1-0.5-1.1-1.1s0.5-1.1,1.1-1.1h51.3c0.6,0,1.1,0.5,1.1,1.1
			S138.2,55.4,137.6,55.4z"/>
	</g>
	<g>
		<path style="fill:#333333;" d="M137.6,29.2H86.3c-0.6,0-1.1-0.5-1.1-1.1s0.5-1.1,1.1-1.1h51.3c0.6,0,1.1,0.5,1.1,1.1
			C138.6,28.7,138.2,29.2,137.6,29.2z"/>
	</g>
	<g>
		<path style="fill:#333333;" d="M138.1,55.3c-0.3,0-0.6-0.1-0.8-0.3l-26.2-26.2c-0.4-0.4-0.4-1.1,0-1.5s1.1-0.4,1.5,0l26.2,26.2
			c0.4,0.4,0.4,1.1,0,1.5C138.7,55.2,138.4,55.3,138.1,55.3z"/>
	</g>
	<g>
		<path style="fill:#333333;" d="M112.1,55.4c-0.3,0-0.6-0.1-0.8-0.3c-0.4-0.4-0.4-1.1,0-1.5l26.2-26.2c0.4-0.4,1.1-0.4,1.5,0
			s0.4,1.1,0,1.5l-26.2,26.2C112.7,55.3,112.4,55.4,112.1,55.4z"/>
	</g>
	<g>
		<path style="fill:#333333;" d="M112,55.3c-0.6,0-1.1-0.5-1.1-1.1V28.1c0-0.6,0.5-1.1,1.1-1.1s1.1,0.5,1.1,1.1v26.2
			C113.1,54.8,112.6,55.3,112,55.3z"/>
	</g>
	<g>
		<path style="fill:#333333;" d="M37.2,55.4c-0.3,0-0.6-0.1-0.8-0.3L10.3,28.9c-0.4-0.4-0.4-1.1,0-1.5s1.1-0.4,1.5,0L38,53.5
			c0.4,0.4,0.4,1.1,0,1.5C37.8,55.3,37.5,55.4,37.2,55.4z"/>
	</g>
	<g>
		<path style="fill:#333333;" d="M11.1,55.3c-0.3,0-0.6-0.1-0.8-0.3c-0.4-0.4-0.4-1.1,0-1.5l26.2-26.2c0.4-0.4,1.1-0.4,1.5,0
			s0.4,1.1,0,1.5L11.9,55C11.6,55.2,11.4,55.3,11.1,55.3z"/>
	</g>
	<g>
		<path style="fill:#333333;" d="M39.4,55.3H11.5c-0.6,0-1.1-0.5-1.1-1.1s0.5-1.1,1.1-1.1h27.8c0.6,0,1.1,0.5,1.1,1.1
			C40.5,54.8,40,55.3,39.4,55.3z"/>
	</g>
	<g>
		<path style="fill:#4D4D4D;" d="M39.4,29.1H11.6c-0.6,0-1.1-0.5-1.1-1.1s0.5-1.1,1.1-1.1h27.8c0.6,0,1.1,0.5,1.1,1.1
			S40,29.1,39.4,29.1z"/>
	</g>
	<g>
		<path style="fill:#333333;" d="M124.5,60.1c-2.9,0-5.2-2.3-5.2-5.2c0-0.6,0.5-1.1,1.1-1.1s1.1,0.5,1.1,1.1c0,1.7,1.3,3,3,3
			s3-1.3,3-3c0-0.6,0.5-1.1,1.1-1.1s1.1,0.5,1.1,1.1C129.6,57.8,127.3,60.1,124.5,60.1z"/>
	</g>
	<g>
		<path style="fill:#333333;" d="M124.7,76.8c-0.6,0-1.1-0.5-1.1-1.1V59.4c0-0.6,0.5-1.1,1.1-1.1s1.1,0.5,1.1,1.1v16.3
			C125.8,76.4,125.3,76.8,124.7,76.8z"/>
	</g>
	<g>
		<path style="fill:#8CC63F;" d="M40.8,65.3h41.7c1.8,0,3.3-1.5,3.3-3.3V20.4c0-1.8-1.5-3.3-3.3-3.3H40.8c-1.8,0-3.3,1.5-3.3,3.3V62
			C37.5,63.8,39,65.3,40.8,65.3z"/>
		<path style="fill:#333333;" d="M81,66.4H42.3c-3.2,0-5.9-2.6-5.9-5.9V21.8c0-3.2,2.6-5.9,5.9-5.9H81c3.2,0,5.9,2.6,5.9,5.9v38.7
			C86.9,63.8,84.2,66.4,81,66.4z M42.3,18.1c-2,0-3.7,1.7-3.7,3.7v38.7c0,2,1.7,3.7,3.7,3.7H81c2,0,3.7-1.7,3.7-3.7V21.8
			c0-2-1.7-3.7-3.7-3.7C81,18.1,42.3,18.1,42.3,18.1z"/>
	</g>
	<g>
		<circle style="fill:#E6E6E6;" cx="52.5" cy="35" r="9.2"/>
		<path style="fill:#333333;" d="M52.5,45.3c-5.7,0-10.2-4.6-10.2-10.2s4.6-10.2,10.2-10.2S62.7,29.4,62.7,35S58.1,45.3,52.5,45.3z
			 M52.5,27c-4.5,0-8.1,3.6-8.1,8.1s3.6,8.1,8.1,8.1s8.1-3.6,8.1-8.1S56.9,27,52.5,27z"/>
	</g>
	<g>
		<path style="fill:#333333;" d="M54.7,51.9h-4.4c-0.6,0-1.1-0.5-1.1-1.1s0.5-1.1,1.1-1.1h4.4c0.6,0,1.1,0.5,1.1,1.1
			C55.8,51.5,55.3,51.9,54.7,51.9z"/>
	</g>
	<g>
		<path style="fill:#333333;" d="M53.1,16.7c-0.6,0-1.1-0.5-1.1-1.1V4c0-0.6,0.5-1.1,1.1-1.1s1.1,0.5,1.1,1.1v11.6
			C54.2,16.2,53.7,16.7,53.1,16.7z"/>
	</g>
	<g>
		<path style="fill:#FFFFFF;" d="M51.6,39.9c-0.3,0-0.6-0.1-0.8-0.3c-0.4-0.4-0.4-1.1,0-1.5l4.3-4.3c0.4-0.4,1.1-0.4,1.5,0
			s0.4,1.1,0,1.5l-4.3,4.3C52.2,39.7,51.9,39.9,51.6,39.9z"/>
	</g>
	<g>
		<path style="fill:#FFFFFF;" d="M50.2,35.5c-0.3,0-0.6-0.1-0.8-0.3c-0.4-0.4-0.4-1.1,0-1.5l1.4-1.4c0.4-0.4,1.1-0.4,1.5,0
			c0.4,0.4,0.4,1.1,0,1.5l-1.4,1.4C50.7,35.4,50.5,35.5,50.2,35.5z"/>
	</g>
	<g>
		<path style="fill:#333333;" d="M64.7,18.1c-0.2,0-0.4-0.1-0.6-0.2l-11.6-7.2c-0.5-0.3-0.7-1-0.3-1.5c0.3-0.5,1-0.7,1.5-0.3
			l11.6,7.2c0.5,0.3,0.7,1,0.3,1.5C65.4,18,65,18.1,64.7,18.1z"/>
	</g>
	<g>
		<path style="fill:#4D4D4D;" d="M129.8,129.7v-46l-11.3,2.2v43.7c0,0.3,0.2,0.5,0.5,0.5h10.3C129.6,130.1,129.8,129.9,129.8,129.7z
			"/>
		<path style="fill:#333333;" d="M129.3,131.2H119c-0.9,0-1.5-0.7-1.5-1.5V85l13.4-2.7v47.3C130.9,130.5,130.2,131.2,129.3,131.2z
			 M119.6,129h9.1V85l-9.1,1.8V129z"/>
	</g>
	<g>
		<path style="fill:#4D4D4D;" d="M129,79.4c-0.8-1.5-2-2.5-3.5-2.8s-3,0.2-4.3,1.3c-1.3,1.1-2.2,2.8-2.6,4.6
			c-0.4,1.9-0.2,3.8,0.6,5.3c0.8,1.5,2,2.5,3.5,2.8s3-0.2,4.3-1.3c1.3-1.1,2.2-2.8,2.6-4.7C130,82.8,129.8,80.9,129,79.4"/>
		<path style="fill:#333333;" d="M123.6,91.9c-0.3,0-0.7,0-1-0.1c-1.8-0.3-3.3-1.6-4.2-3.4c-0.9-1.7-1.1-3.9-0.7-6s1.5-4,2.9-5.3
			c1.5-1.3,3.4-1.9,5.2-1.5c1.8,0.3,3.3,1.5,4.2,3.3c0.9,1.7,1.1,3.8,0.7,6c-0.4,2.1-1.5,4-2.9,5.3
			C126.5,91.3,125.1,91.9,123.6,91.9z M124.7,77.7c-0.9,0-1.9,0.4-2.7,1.1c-1.1,1-1.9,2.4-2.2,4c-0.3,1.7-0.1,3.3,0.5,4.6
			c0.6,1.2,1.6,2,2.7,2.2s2.3-0.2,3.3-1.1c1.1-1,1.9-2.4,2.2-4.1c0.3-1.6,0.1-3.3-0.5-4.6l0,0c-0.6-1.2-1.6-2-2.7-2.2
			C125.1,77.7,124.9,77.7,124.7,77.7z"/>
	</g>
	<g>
		<path style="fill:#B3B3B3;" d="M127.9,80.2c-0.6-1.2-1.6-2-2.7-2.2s-2.3,0.2-3.3,1.1s-1.7,2.3-2,3.8s-0.1,3.1,0.5,4.3
			c0.6,1.2,1.6,2,2.7,2.2s2.3-0.2,3.3-1.2c1-0.9,1.7-2.3,2-3.9C128.7,82.9,128.6,81.4,127.9,80.2"/>
		<path style="fill:#333333;" d="M123.7,90.6c-0.3,0-0.5,0-0.8-0.1c-1.5-0.3-2.7-1.3-3.5-2.8c-0.7-1.4-0.9-3.2-0.6-5
			s1.1-3.3,2.3-4.4c1.2-1.2,2.8-1.7,4.2-1.4c1.5,0.3,2.7,1.2,3.5,2.8l0,0c0.7,1.4,0.9,3.2,0.6,4.9c-0.3,1.8-1.1,3.3-2.3,4.5
			C126.2,90.1,125,90.6,123.7,90.6z M124.6,79c-0.7,0-1.4,0.3-2,0.9c-0.8,0.8-1.4,1.9-1.6,3.2c-0.2,1.3-0.1,2.6,0.4,3.6
			c0.5,0.9,1.1,1.5,1.9,1.6s1.6-0.2,2.4-0.9c0.8-0.8,1.4-1.9,1.7-3.3c0.2-1.3,0.1-2.6-0.4-3.6l0,0c-0.5-0.9-1.1-1.5-2-1.6
			C124.9,79,124.8,79,124.6,79z"/>
	</g>
	<g>
		<path style="fill:#808080;" d="M118.6,91.7c0.5,0.1,1,0.3,1.4,0.7c0.5,0.5,0.8,1.1,0.8,1.8c0,0.7-0.3,1.3-0.8,1.8
			c-0.4,0.3-0.8,0.6-1.3,0.7"/>
		<path style="fill:#333333;" d="M118.9,97.7l-0.5-2.1c0.3-0.1,0.6-0.2,0.8-0.4c0.3-0.3,0.4-0.6,0.4-1s-0.2-0.7-0.4-1
			c-0.2-0.2-0.5-0.3-0.8-0.4l0.4-2.1c0.7,0.1,1.4,0.5,1.9,0.9c0.7,0.7,1.1,1.6,1.1,2.6s-0.4,1.9-1.1,2.6
			C120.2,97.2,119.6,97.5,118.9,97.7z"/>
	</g>
	<g>
		<path style="fill:#808080;" d="M129.7,91.6c-0.6,0.1-1.1,0.4-1.5,0.7c-0.6,0.5-0.9,1.2-0.9,2c0,0.7,0.3,1.4,0.9,2
			c0.4,0.4,0.9,0.6,1.4,0.7"/>
		<path style="fill:#333333;" d="M129.4,98.1c-0.7-0.2-1.4-0.5-1.9-1c-0.8-0.7-1.2-1.7-1.2-2.8c0-1,0.4-2,1.2-2.8
			c0.6-0.5,1.3-0.9,2-1l0.4,2.1c-0.4,0.1-0.7,0.2-1,0.5s-0.5,0.7-0.5,1.2c0,0.4,0.2,0.9,0.5,1.2c0.2,0.2,0.6,0.4,0.9,0.5L129.4,98.1
			z"/>
	</g>
	<g>
		<path style="fill:#8CC03F;" d="M126.8,89.5c-0.2,0-0.4-0.1-0.5-0.2c-0.3-0.3-0.3-0.7,0-1c1-1,1.8-2.4,2-3.9
			c0.3-1.6,0.1-3.1-0.5-4.3c-0.2-0.4,0-0.8,0.3-1c0.4-0.2,0.8,0,1,0.3c0.8,1.5,1,3.4,0.7,5.2s-1.2,3.6-2.5,4.7
			C127.2,89.5,127,89.5,126.8,89.5z"/>
	</g>
	<g>
		<path style="fill:#8CC03F;" d="M120.5,89.3c-0.2,0-0.4-0.1-0.6-0.3c-0.3-0.3-0.5-0.7-0.7-1.1c-0.8-1.5-1-3.4-0.7-5.3
			c0.3-1.4,0.8-2.7,1.6-3.7c0.2-0.3,0.7-0.4,1-0.1c0.3,0.2,0.4,0.7,0.1,1c-0.7,0.9-1.1,1.9-1.3,3.1c-0.3,1.6-0.1,3.1,0.5,4.4
			c0.2,0.3,0.3,0.6,0.5,0.8c0.2,0.3,0.2,0.8-0.1,1C120.8,89.2,120.6,89.3,120.5,89.3z"/>
	</g>
	<g>
		<path style="fill:#333333;" d="M48.2,144.9c-0.3,0-0.6-0.1-0.8-0.3c-0.4-0.4-0.4-1.1,0-1.5l26.2-26.2c0.4-0.4,1.1-0.4,1.5,0
			s0.4,1.1,0,1.5l-26.2,26.2C48.7,144.8,48.5,144.9,48.2,144.9z"/>
	</g>
	<g>
		<path style="fill:#333333;" d="M74.4,144.7c-0.3,0-0.6-0.1-0.8-0.3l-26.2-26.2c-0.4-0.4-0.4-1.1,0-1.5s1.1-0.4,1.5,0l26.2,26.2
			c0.4,0.4,0.4,1.1,0,1.5C74.9,144.6,74.6,144.7,74.4,144.7z"/>
	</g>
	<g>
		<path style="fill:#E6E6E6;" d="M81.7,145.9H40.3c-0.1,0-0.3-0.1-0.3-0.3v-4.3c0-1.5,1.2-2.6,2.6-2.6h36.9c1.4,0,2.5,1.1,2.5,2.5
			v4.4C82,145.8,81.9,145.9,81.7,145.9z"/>
		<path style="fill:#333333;" d="M81.5,147H40.4c-0.8,0-1.5-0.7-1.5-1.5v-3c0-2.7,2.2-4.9,4.9-4.9h34.6c2.6,0,4.7,2.1,4.7,4.7v3.1
			C83.1,146.3,82.4,147,81.5,147z M41.1,144.8h39.8v-2.5c0-1.4-1.1-2.5-2.5-2.5H43.9c-1.5,0-2.7,1.2-2.7,2.7v2.3H41.1z"/>
	</g>
</g>
<rect style="fill:none;" width="150" height="150"/>
</svg>
