<?xml version="1.0" encoding="utf-8"?>
<!-- Generator: Adobe Illustrator 21.0.2, SVG Export Plug-In . SVG Version: 6.00 Build 0)  -->
<svg version="1.1" id="Layer_1" xmlns="http://www.w3.org/2000/svg" xmlns:xlink="http://www.w3.org/1999/xlink" x="0px" y="0px"
	 viewBox="0 0 124 124" style="enable-background:new 0 0 124 124;" xml:space="preserve">
<style type="text/css">
	.st0{fill:#8FC043;stroke:#333333;stroke-width:1.5;stroke-linecap:round;stroke-linejoin:round;stroke-miterlimit:10;}
	.st1{fill:#8CC63F;stroke:#333333;stroke-linecap:round;stroke-linejoin:round;stroke-miterlimit:10;}
	.st2{fill:none;stroke:#333333;stroke-width:1.5;stroke-linecap:round;stroke-linejoin:round;stroke-miterlimit:10;}
</style>
<g>
	<circle class="st0" cx="62.7" cy="61.5" r="38.5"/>
	<polyline class="st0" points="61.2,39.3 61.2,64.5 80.4,64.5 	"/>
	<circle class="st0" cx="61.9" cy="31.1" r="0.7"/>
	<circle class="st0" cx="33.8" cy="63.7" r="0.7"/>
	<circle class="st0" cx="61.9" cy="93.4" r="0.7"/>
	<circle class="st0" cx="93" cy="65.2" r="0.7"/>
</g>
<path class="st1" d="M62.5,71.9C62.5,71.9,62.5,71.9,62.5,71.9c-1.6,2.5-3.1,5.1-4.6,7.7c1,0,2,0.1,2.9,0.1c0,1.6-0.1,3.1-0.1,4.6
	c0,0,0,0,0,0c1.5-2.5,3-5.1,4.5-7.7c-1,0-1.9-0.1-2.9-0.1C62.4,75,62.4,73.5,62.5,71.9z"/>
<path class="st2" d="M18.7,48c4.2-13.5,14.4-24.5,27.7-29.5"/>
<path class="st2" d="M17,56c0.1-0.9,0.3-1.9,0.4-2.8"/>
<path class="st2" d="M34.9,98.1C24.2,90,17.2,77.3,16.7,62.9c0-0.9,0-1.9,0-2.8"/>
<path class="st2" d="M43.8,103.4c-1.7-0.8-3.4-1.7-5-2.6"/>
<path class="st2" d="M99.4,89.1c-8.1,10.8-20.8,17.9-35.3,18.3c-5.8,0.2-11.4-0.7-16.5-2.5"/>
<path class="st2" d="M107.7,70.9c-1,5-2.9,9.6-5.4,13.9"/>
<path class="st2" d="M101.7,37.3c4.1,6.6,6.6,14.4,6.8,22.8c0.1,2,0,3.9-0.2,5.8"/>
<path class="st2" d="M51.3,17c3.2-0.8,6.5-1.3,9.9-1.4c15.1-0.5,28.7,6.4,37.4,17.3"/>
<polyline class="st2" points="106.2,64.3 108.7,66.8 111.2,64.3 "/>
<polyline class="st2" points="19.2,61.8 16.7,59.3 14.2,61.8 "/>
</svg>
