<?xml version="1.0" encoding="utf-8"?>
<!-- Generator: Adobe Illustrator 21.0.2, SVG Export Plug-In . SVG Version: 6.00 Build 0)  -->
<svg version="1.1" id="Layer_1" xmlns="http://www.w3.org/2000/svg" xmlns:xlink="http://www.w3.org/1999/xlink" x="0px" y="0px"
	 viewBox="0 0 124 124" style="enable-background:new 0 0 124 124;" xml:space="preserve">
<style type="text/css">
	.st0{fill:#CCCCCC;stroke:#333333;stroke-width:1.5;stroke-linecap:round;stroke-linejoin:round;stroke-miterlimit:10;}
	.st1{fill:#F2F2F2;stroke:#333333;stroke-width:1.5;stroke-linecap:round;stroke-linejoin:round;stroke-miterlimit:10;}
	.st2{fill:#8CC63F;stroke:#333333;stroke-width:1.5;stroke-linecap:round;stroke-linejoin:round;stroke-miterlimit:10;}
	.st3{fill:#FFFFFF;stroke:#333333;stroke-width:1.5;stroke-linecap:round;stroke-linejoin:round;stroke-miterlimit:10;}
	.st4{fill:none;stroke:#333333;stroke-width:1.5;stroke-linecap:round;stroke-linejoin:round;stroke-miterlimit:10;}
</style>
<path class="st0" d="M111.8,37.3c0,0.7-0.6,1.3-1.4,1.3H15.8c-0.8,0-1.4-0.6-1.4-1.3v-1.8c0-0.7,0.6-1.3,1.4-1.3h94.5
	c0.8,0,1.4,0.6,1.4,1.3V37.3z"/>
<path class="st1" d="M64.8,55.4l2.4-3.8L67,43.7c3.4,0.4,6,4.2,6,8.7c0,4.2-2.2,7.7-5.2,8.6l-0.2,0v9.6h-9.2v-9.1V61c0,0,0,0,0,0
	c-0.8,0-1.5-0.4-2.1-0.8c-0.9-0.6-1.6-1.5-2.1-2.4c-0.5-0.8-0.8-1.6-1-2.5c-0.2-0.9-0.4-1.9-0.4-2.9c0-4.6,2.6-8.3,5.9-8.7v8
	l2.5,3.6L64.8,55.4z"/>
<path class="st1" d="M21.6,70.4V16.2c0-0.8,0.7-1.5,1.6-1.5H34c0.9,0,1.6,0.6,1.6,1.5v54.2"/>
<polyline class="st1" points="41.5,70.4 41.5,50.3 46.6,50.3 46.6,70.4 "/>
<path class="st2" d="M63,69.7"/>
<polygon class="st0" points="42.7,45.4 41.6,50.6 46.6,50.6 45.1,44.8 "/>
<polygon class="st2" points="43.3,42.5 42.7,45.4 45.1,44.6 44.6,42.5 "/>
<path class="st3" d="M30.1,19.4c0,0.7-0.5,1.2-1.2,1.2c-0.7,0-1.2-0.5-1.2-1.2c0-0.7,0.5-1.2,1.2-1.2C29.6,18.1,30.1,18.7,30.1,19.4
	"/>
<path class="st2" d="M22.4,24.6h4.2c0.1,0,0.1-0.1,0.1-0.1c0-0.1-0.1-0.1-0.1-0.1h-4.2c-0.1,0-0.1,0.1-0.1,0.1
	C22.3,24.5,22.3,24.6,22.4,24.6"/>
<path class="st2" d="M22.4,27h2.1c0.1,0,0.1-0.1,0.1-0.1c0-0.1-0.1-0.1-0.1-0.1h-2.1c-0.1,0-0.1,0.1-0.1,0.1
	C22.3,26.9,22.3,27,22.4,27"/>
<path class="st2" d="M22.4,29.4h4.2c0.1,0,0.1-0.1,0.1-0.1c0-0.1-0.1-0.1-0.1-0.1h-4.2c-0.1,0-0.1,0.1-0.1,0.1
	C22.3,29.3,22.3,29.4,22.4,29.4"/>
<path class="st2" d="M22.4,31.7h2.1c0.1,0,0.1-0.1,0.1-0.1c0-0.1-0.1-0.1-0.1-0.1h-2.1c-0.1,0-0.1,0.1-0.1,0.1
	C22.3,31.7,22.3,31.7,22.4,31.7"/>
<path class="st2" d="M22.4,34.1h4.2c0.1,0,0.1-0.1,0.1-0.1c0-0.1-0.1-0.1-0.1-0.1h-4.2c-0.1,0-0.1,0.1-0.1,0.1
	C22.3,34.1,22.3,34.1,22.4,34.1"/>
<path class="st2" d="M22.4,36.5h2.1c0.1,0,0.1-0.1,0.1-0.1c0-0.1-0.1-0.1-0.1-0.1h-2.1c-0.1,0-0.1,0.1-0.1,0.1
	C22.3,36.5,22.3,36.5,22.4,36.5"/>
<path class="st2" d="M22.4,38.9h4.2c0.1,0,0.1-0.1,0.1-0.1c0-0.1-0.1-0.1-0.1-0.1h-4.2c-0.1,0-0.1,0.1-0.1,0.1
	C22.3,38.9,22.3,38.9,22.4,38.9"/>
<path class="st2" d="M22.4,41.3h2.1c0.1,0,0.1-0.1,0.1-0.1c0-0.1-0.1-0.1-0.1-0.1h-2.1c-0.1,0-0.1,0.1-0.1,0.1
	C22.3,41.2,22.3,41.3,22.4,41.3"/>
<path class="st2" d="M22.4,43.7h4.2c0.1,0,0.1-0.1,0.1-0.1c0-0.1-0.1-0.1-0.1-0.1h-4.2c-0.1,0-0.1,0.1-0.1,0.1
	C22.3,43.6,22.3,43.7,22.4,43.7"/>
<path class="st2" d="M22.4,46.1h2.1c0.1,0,0.1-0.1,0.1-0.1c0-0.1-0.1-0.1-0.1-0.1h-2.1c-0.1,0-0.1,0.1-0.1,0.1
	C22.3,46,22.3,46.1,22.4,46.1"/>
<path class="st2" d="M22.4,48.5h4.2c0.1,0,0.1-0.1,0.1-0.1c0-0.1-0.1-0.1-0.1-0.1h-4.2c-0.1,0-0.1,0.1-0.1,0.1
	C22.3,48.4,22.3,48.5,22.4,48.5"/>
<path class="st2" d="M22.4,50.9h2.1c0.1,0,0.1-0.1,0.1-0.1c0-0.1-0.1-0.1-0.1-0.1h-2.1c-0.1,0-0.1,0.1-0.1,0.1
	C22.3,50.8,22.3,50.9,22.4,50.9"/>
<path class="st2" d="M22.4,53.3h4.2c0.1,0,0.1-0.1,0.1-0.1c0-0.1-0.1-0.1-0.1-0.1h-4.2c-0.1,0-0.1,0.1-0.1,0.1
	C22.3,53.2,22.3,53.3,22.4,53.3"/>
<path class="st2" d="M22.4,55.6h2.1c0.1,0,0.1-0.1,0.1-0.1c0-0.1-0.1-0.1-0.1-0.1h-2.1c-0.1,0-0.1,0.1-0.1,0.1
	C22.3,55.6,22.3,55.6,22.4,55.6"/>
<path class="st2" d="M22.4,58h4.2c0.1,0,0.1-0.1,0.1-0.1c0-0.1-0.1-0.1-0.1-0.1h-4.2c-0.1,0-0.1,0.1-0.1,0.1
	C22.3,58,22.3,58,22.4,58"/>
<path class="st2" d="M22.4,60.4h2.1c0.1,0,0.1-0.1,0.1-0.1c0-0.1-0.1-0.1-0.1-0.1h-2.1c-0.1,0-0.1,0.1-0.1,0.1
	C22.3,60.4,22.3,60.4,22.4,60.4"/>
<path class="st2" d="M22.4,63.1h4.2c0.1,0,0.1-0.1,0.1-0.1c0-0.1-0.1-0.1-0.1-0.1h-4.2c-0.1,0-0.1,0.1-0.1,0.1
	C22.3,63,22.3,63.1,22.4,63.1"/>
<path class="st2" d="M22.4,65.5h2.1c0.1,0,0.1-0.1,0.1-0.1c0-0.1-0.1-0.1-0.1-0.1h-2.1c-0.1,0-0.1,0.1-0.1,0.1
	C22.3,65.4,22.3,65.5,22.4,65.5"/>
<path class="st2" d="M22.4,67.9h4.2c0.1,0,0.1-0.1,0.1-0.1c0-0.1-0.1-0.1-0.1-0.1h-4.2c-0.1,0-0.1,0.1-0.1,0.1
	C22.3,67.8,22.3,67.9,22.4,67.9"/>
<polyline class="st1" points="94.9,70.4 94.9,56.4 97.6,56.4 97.6,70.4 "/>
<polygon class="st0" points="93.6,54.6 95,56.4 97.6,56.4 98.9,54.6 96.9,48.5 95.5,48.5 "/>
<path class="st0" d="M77.6,31.8v9.4c0.5-0.4,2.1-0.2,2.7,0v-9.4C79,32.5,77.9,32,77.6,31.8"/>
<polyline class="st0" points="81.6,70.4 81.6,41.8 89.3,41.8 89.3,70.4 "/>
<polyline class="st0" points="81.6,30.3 81.6,29 89.3,29 89.3,30.3 "/>
<rect x="75" y="31.2" class="st1" width="2.7" height="10.6"/>
<path class="st0" d="M90.8,31.1c0.2,0,3.3,0.2,3.6,0.2c1.4,0.1,2.6,0.4,3.6,1.2c2.9,2.2,3.3,6.4,3.5,9.3h-0.9
	c-0.2-0.8-1.4-4.8-4.6-5.1c-3.8-0.3-5.1,4.5-5.1,5.1C90.8,41.8,90.7,31.1,90.8,31.1"/>
<polygon class="st2" points="115.3,114.3 8.8,114.3 8.8,30.1 15.8,30.1 15.8,70 108.7,70 108.7,30.1 115.3,30.1 "/>
<rect x="80" y="31.2" class="st2" width="10.9" height="10.6"/>
<rect x="15.3" y="76.7" class="st2" width="93.8" height="30.7"/>
<circle class="st0" cx="20.7" cy="82.1" r="1.8"/>
<circle class="st0" cx="20.7" cy="102" r="1.8"/>
<circle class="st0" cx="103.6" cy="102" r="1.8"/>
<circle class="st0" cx="103.6" cy="82.1" r="1.8"/>
<line class="st4" x1="30.6" y1="86.6" x2="93.7" y2="86.6"/>
<line class="st4" x1="30.6" y1="97.5" x2="93.7" y2="97.5"/>
<line class="st4" x1="30.6" y1="92" x2="93.7" y2="92"/>
<g>
	<circle class="st1" cx="62.2" cy="92" r="10.8"/>
	<g>
		<path class="st1" d="M66.5,96.1c-0.1,0.6-0.3,1.4-1.4,1.4c-1,0-2.1,0-3.1,0c-0.9,0-1.8,0-2.6,0c0.4,0,0.4-0.5,0.5-0.7
			c0.2-1.4,0.2-2.7,0.2-4.1c0-0.7,0-1.4-0.1-2.1c0-0.6-0.1-1.2-0.1-1.8c0-0.5,0.1-0.9,0.4-1.3c0.4-0.6,1-0.9,1.7-1
			c1.1-0.2,2.1,0.2,2.8,1.2"/>
		<line class="st1" x1="57.9" y1="91.6" x2="63.1" y2="91.6"/>
	</g>
</g>
<line class="st4" x1="70.2" y1="84.8" x2="55.3" y2="99.7"/>
</svg>
