<?xml version="1.0" encoding="utf-8"?>
<!-- Generator: Adobe Illustrator 21.0.2, SVG Export Plug-In . SVG Version: 6.00 Build 0)  -->
<svg version="1.1" id="Layer_1" xmlns="http://www.w3.org/2000/svg" xmlns:xlink="http://www.w3.org/1999/xlink" x="0px" y="0px"
	 viewBox="0 0 124 124" style="enable-background:new 0 0 124 124;" xml:space="preserve">
<style type="text/css">
	.st0{fill:#E6E6E6;stroke:#333333;stroke-width:1.5;stroke-linecap:round;stroke-linejoin:round;stroke-miterlimit:10;}
	.st1{fill:#8FC043;stroke:#333333;stroke-width:1.5;stroke-linecap:round;stroke-linejoin:round;stroke-miterlimit:10;}
	.st2{fill:none;stroke:#333333;stroke-width:1.5;stroke-linecap:round;stroke-linejoin:round;stroke-miterlimit:10;}
	.st3{fill:none;stroke:#FFFFFF;stroke-width:1.5;stroke-linecap:round;stroke-linejoin:round;stroke-miterlimit:10;}
</style>
<path class="st0" d="M104.8,23.7c1,18.7,0.7,37.6-8.1,54.6c-7.2,13.9-18.1,25.8-32,33.6c-0.7,0.4-1.5,0.8-2.2,1.2c0,0,0,0,0,0
	c-0.7,0.8-10.5-6.4-11.5-7.1c-3.8-3-7.3-6.4-10.4-10.2C32,85.3,25,72,23.6,58.5c-1.2-11.5-1.2-23.2-1.2-34.8L63.8,10L104.8,23.7z"/>
<g>
	<path class="st1" d="M100.8,26c0.9,17.4,0.6,35-7.4,50.8c-6.6,13-16.5,24-29.2,31.3c-0.7,0.4-1.3,0.8-2,1.1c0,0,0,0,0,0
		c-0.6,0.7-9.6-5.9-10.5-6.6c-3.5-2.8-6.7-6-9.5-9.5C34.4,83.3,28,71,26.7,58.4c-1.1-10.7-1.1-21.6-1.1-32.4l37.8-12.8L100.8,26z"/>
	<polyline class="st2" points="43.4,61.7 56.4,74.8 84.9,40.8 	"/>
</g>
<line class="st3" x1="37.8" y1="25.8" x2="46.7" y2="23"/>
<line class="st3" x1="28.9" y1="28.7" x2="34.3" y2="26.9"/>
<path class="st3" d="M86.1,83.1C80,92,72,99.4,62.6,104.8"/>
<path class="st3" d="M91.3,74.6c-0.9,1.8-1.9,3.5-3,5.2"/>
</svg>
