<svg xmlns="http://www.w3.org/2000/svg" viewBox="0 0 150 150"><path d="M67.2 101.4l9 17.7 4 24.8 9.3-9.3c10.6-10.6 14.7-26.1 10.7-40.6l-33 7.4" fill="#e6e6e6"/><path d="M79.2 146.9l-4.4-27.3-9.7-19.2 36.2-8 .4 1.3c4.1 14.9-.1 31-11.1 42l-11.4 11.2zm-9.9-44.5l8.3 16.5 3.6 22.1 7.4-7.4c9.9-9.9 13.9-24.3 10.7-37.9l-30 6.7z" fill="#333"/><path d="M54.9 48.7c-14.5-4-30 .1-40.6 10.7L5 68.7l24.8 4 18 9.2" fill="#e6e6e6"/><path d="M47.8 83.4c-.2 0-.4-.1-.6-.2l-17.8-9.1L2 69.7l11.3-11.3c10.9-11 27-15.2 42-11.1.8.2 1.2 1 1 1.8s-1 1.2-1.8 1c-13.9-3.8-29 .1-39.2 10.4l-7.4 7.4 22.5 3.7 18 9.2c.7.4 1 1.2.6 1.9-.2.4-.7.7-1.2.7z" fill="#333"/><path fill="none" d="M47.4 101.3l-22 22"/><path d="M25.4 124.8c-.4 0-.7-.1-1-.4-.6-.6-.6-1.5 0-2l22-22c.6-.6 1.5-.6 2 0 .6.6.6 1.5 0 2l-22 22c-.3.2-.6.4-1 .4z" fill="#333"/><path fill="none" d="M57.4 111.2l-11 11.1"/><path d="M46.4 123.7c-.4 0-.7-.1-1-.4-.6-.6-.6-1.5 0-2l11-11c.6-.6 1.5-.6 2 0s.6 1.5 0 2l-11 11c-.3.2-.7.4-1 .4z" fill="#333"/><path fill="none" d="M37.2 91l-11 11.1"/><path d="M26.2 103.5c-.4 0-.7-.1-1-.4-.6-.6-.6-1.5 0-2l11-11c.6-.6 1.5-.6 2 0 .6.6.6 1.5 0 2l-11 11c-.3.2-.7.4-1 .4z" fill="#333"/><path fill="#8fc043" d="M54.7 48.5L99.5 3.7l46.1.7v44.3l-45.3 45.4-33.1 7.3L47.8 82l6.9-33.5"/><path d="M67.2 102.8c-.4 0-.7-.1-1-.4L46.8 83c-.3-.3-.5-.8-.4-1.3l6.9-33.5c.1-.3.2-.5.4-.7L98.5 2.7c.3-.3.6-.4 1-.4l46 .8c.8 0 1.4.6 1.4 1.4v44.3c0 .4-.2.7-.4 1l-45.3 45.3c-.2.2-.4.3-.7.4l-33 7.4c-.1-.1-.2-.1-.3-.1zM49.3 81.5l18.4 18.4 31.9-7.1 44.6-44.6V5.8l-44-.7L56 49.2l-6.7 32.3z" fill="#333"/><g><path d="M92.5 59.2s0-.1 0 0c-6.8 1.4-13.4 2.9-20.1 4.4 1.7 1.8 3.3 3.4 4.9 5.2-2.5 2.4-5 4.8-7.6 7.2v.1c6.7-1.5 13.3-3 20-4.5-1.7-1.7-3.3-3.4-4.9-5.1 2.7-2.5 5.2-4.9 7.7-7.3z" fill="#e6e6e6"/><path d="M69.8 77.5c-.5 0-1-.3-1.3-.8 0-.1-.1-.2-.1-.2-.3-.6-.1-1.1.4-1.5l6.5-6.2-3.9-4.1c-.4-.4-.5-.9-.3-1.4.1-.5.6-.9 1.1-1l20-4.5c.7-.2 1.4.2 1.6.8.3.6.2 1.3-.3 1.7L91 62.6c-1.4 1.3-2.7 2.6-4.1 3.9l3.9 4.1c.4.4.5.9.3 1.4-.1.5-.5.9-1 1l-18.6 4.2-1.5.3h-.2zm5.4-13l3.2 3.3c.5.6.5 1.5-.1 2l-4 3.8c4.2-.9 8.5-1.9 12.7-2.9l-3.1-3.3c-.5-.6-.5-1.5 0-2 1.3-1.3 2.7-2.6 4-3.8l-12.7 2.9zm17.3-5.4z" fill="#333"/></g><g><circle cx="110" cy="39.2" r="14.7" fill="#e6e6e6"/><path d="M110 55.4c-8.9 0-16.2-7.3-16.2-16.2S101.1 23 110 23s16.2 7.3 16.2 16.2-7.3 16.2-16.2 16.2zm0-29.5c-7.3 0-13.3 6-13.3 13.3s6 13.3 13.3 13.3 13.3-6 13.3-13.3-5.9-13.3-13.3-13.3z" fill="#333"/></g><g><path d="M140.4 46.7c-.8 0-1.4-.6-1.4-1.4V27.9c0-.8.6-1.4 1.4-1.4.8 0 1.4.6 1.4 1.4v17.3c0 .9-.6 1.5-1.4 1.5z" fill="#333"/></g><g><path d="M105.7 45c-.8 0-1.4-.6-1.4-1.4v-6.9c0-.8.6-1.4 1.4-1.4s1.4.6 1.4 1.4v6.9c0 .7-.6 1.4-1.4 1.4z" fill="#fff"/></g><g><path d="M110.9 50.2c-.8 0-1.4-.6-1.4-1.4V31.4c0-.8.6-1.4 1.4-1.4s1.4.6 1.4 1.4v17.3c0 .8-.6 1.5-1.4 1.5z" fill="#fff"/></g><g><path d="M21.3 62.6c-.4 0-.8-.2-1.1-.5-.5-.6-.5-1.5.1-2 5.3-4.7 11.7-7.7 18.7-8.8.8-.1 1.5.4 1.6 1.2s-.4 1.5-1.2 1.6c-6.4 1-12.4 3.8-17.2 8.1-.2.3-.5.4-.9.4z" fill="#333"/></g><path fill="none" d="M0 0h150v150H0z"/></svg>