<?xml version="1.0" encoding="utf-8"?>
<!-- Generator: Adobe Illustrator 21.0.2, SVG Export Plug-In . SVG Version: 6.00 Build 0)  -->
<svg version="1.1" id="Layer_1" xmlns="http://www.w3.org/2000/svg" xmlns:xlink="http://www.w3.org/1999/xlink" x="0px" y="0px"
	 viewBox="0 0 150 150" style="enable-background:new 0 0 150 150;" xml:space="preserve">
<path style="fill:#8CC63F;" d="M93.6,46.8H54.1c-1.1,0-2.1-1-2.1-2.1V30.7c0-1.1,1-2.1,2.1-2.1h39.6c1.1,0,2.1,1,2.1,2.1v14.1
	C95.8,45.9,94.9,46.8,93.6,46.8z"/>
<path style="fill:#333333;" d="M92.9,47.7H54.8c-2,0-3.7-1.7-3.7-3.7V31.4c0-2,1.7-3.7,3.7-3.7H93c2,0,3.7,1.7,3.7,3.7V44
	C96.6,46.1,95.1,47.7,92.9,47.7z M54.8,29.5c-1.1,0-1.9,0.9-1.9,1.9V44c0,1.1,0.9,1.9,1.9,1.9H93c1.1,0,1.9-0.9,1.9-1.9V31.4
	c0-1.1-0.9-1.9-1.9-1.9C93,29.5,54.8,29.5,54.8,29.5z"/>
<path style="fill:#FFFFFF;" d="M93.6,52.1H54.1c-1.1,0-2.1-1-2.1-2.1V36c0-1.1,1-2.1,2.1-2.1h39.6c1.1,0,2.1,1,2.1,2.1V50
	C95.8,51.2,94.9,52.1,93.6,52.1z"/>
<path style="fill:#333333;" d="M92.9,53H54.8c-2,0-3.7-1.7-3.7-3.7V36.7c0-2,1.7-3.7,3.7-3.7H93c2,0,3.7,1.7,3.7,3.7v12.6
	C96.6,51.3,95.1,53,92.9,53z M54.8,34.7c-1.1,0-1.9,0.9-1.9,1.9v12.6c0,1.1,0.9,1.9,1.9,1.9H93c1.1,0,1.9-0.9,1.9-1.9V36.7
	c0-1.1-0.9-1.9-1.9-1.9C93,34.7,54.8,34.7,54.8,34.7z"/>
<path style="fill:#8FC043;" d="M122.9,49.5h-9.1c-1.1,0-2.1-1-2.1-2.1v-7.6c0-1.1,1-2.1,2.1-2.1h9.1c1.1,0,2.1,1,2.1,2.1v7.6
	C125,48.5,124,49.5,122.9,49.5z"/>
<path style="fill:#333333;" d="M122.2,50.4h-7.7c-2,0-3.7-1.7-3.7-3.7v-6.1c0-2,1.7-3.7,3.7-3.7h7.7c2,0,3.7,1.7,3.7,3.7v6.1
	C125.9,48.7,124.2,50.4,122.2,50.4z M114.4,38.6c-1.1,0-1.9,0.9-1.9,1.9v6.1c0,1.1,0.9,1.9,1.9,1.9h7.7c1.1,0,1.9-0.9,1.9-1.9v-6.1
	c0-1.1-0.9-1.9-1.9-1.9C122.1,38.6,114.4,38.6,114.4,38.6z"/>
<path style="fill:#8FC043;" d="M36.6,49.5h-9.2c-1.1,0-2.1-1-2.1-2.1v-7.6c0-1.1,1-2.1,2.1-2.1h9.1c1.1,0,2.1,1,2.1,2.1v7.6
	C38.7,48.5,37.7,49.5,36.6,49.5z"/>
<path style="fill:#333333;" d="M35.9,50.4h-7.7c-2,0-3.7-1.7-3.7-3.7v-6.1c0-2,1.7-3.7,3.7-3.7h7.7c2,0,3.7,1.7,3.7,3.7v6.1
	C39.5,48.7,37.9,50.4,35.9,50.4z M28,38.6c-1.1,0-1.9,0.9-1.9,1.9v6.1c0,1.1,0.9,1.9,1.9,1.9h7.7c1.1,0,1.9-0.9,1.9-1.9v-6.1
	c0-1.1-0.9-1.9-1.9-1.9C35.8,38.6,28,38.6,28,38.6z"/>
<path style="fill:#E6E6E6;" d="M138.4,65.1v50.3c0,2.5-2,4.5-4.5,4.5H16.4c-2.5,0-4.5-2-4.5-4.5V65.1"/>
<path style="fill:#333333;" d="M133.9,120.8H16.4c-3,0-5.4-2.5-5.4-5.4V65.1c0-0.5,0.4-0.9,0.9-0.9c0.5,0,0.9,0.4,0.9,0.9v50.3
	c0,2,1.7,3.6,3.6,3.6h117.4c2,0,3.6-1.7,3.6-3.6V65.1c0-0.5,0.4-0.9,0.9-0.9c0.5,0,0.9,0.4,0.9,0.9v50.3
	C139.2,118.4,136.8,120.8,133.9,120.8L133.9,120.8z"/>
<g>
	<path style="fill:#8FC043;" d="M138.4,75.5L74,108.2L11.9,75.5v-28c0-2.5,2-4.5,4.5-4.5h117.4c2.5,0,4.5,2,4.5,4.5v16.2L138.4,75.5
		L138.4,75.5z"/>
	<path style="fill:#333333;" d="M74,109.1c-0.2,0-0.3,0-0.4-0.1L11.4,76.2c-0.3-0.1-0.4-0.4-0.4-0.7v-28c0-3,2.5-5.4,5.4-5.4h117.4
		c3,0,5.4,2.5,5.4,5.4v27.9c0,0.4-0.2,0.6-0.4,0.8l-64.4,32.8C74.2,109.1,74.1,109.1,74,109.1z M12.8,75L74,107.3l63.5-32.4V47.5
		c0-2-1.7-3.6-3.6-3.6H16.4c-2,0-3.6,1.7-3.6,3.6V75z"/>
</g>
<g>
	<path style="fill:#E6E6E6;" d="M75,54.8C75,54.8,74.9,54.8,75,54.8c-2.7,4.5-5.4,9-8.1,13.5c1.8,0.1,3.4,0.1,5.2,0.2
		C72,71.3,72,74,72,76.7H72c2.6-4.5,5.4-9,8-13.5c-1.8-0.1-3.4-0.1-5.2-0.2C74.9,60.3,74.9,57.6,75,54.8z"/>
	<path style="fill:#333333;" d="M72,77.6c-0.1,0-0.2,0-0.3-0.1c-0.1,0-0.1-0.1-0.2-0.1C71.2,77.3,71,77,71,76.6l0.2-7.3l-4.3-0.1
		c-0.4,0-0.6-0.2-0.7-0.4c-0.2-0.3-0.2-0.6,0-0.9l8-13.5c0.3-0.4,0.7-0.5,1.1-0.4c0.4,0.1,0.6,0.4,0.6,0.9l-0.1,2.5
		c0,1.6-0.1,3.2-0.1,4.7l4.3,0.1c0.4,0,0.6,0.2,0.7,0.4c0.2,0.3,0.2,0.6,0,0.9l-6.9,11.6l-1.1,1.9C72.6,77.4,72.3,77.6,72,77.6z
		 M68.4,67.6l3.7,0.1c0.5,0,0.9,0.4,0.9,0.9l-0.1,4.9c1.8-3.2,3.8-6.3,5.6-9.5l-3.7-0.1c-0.4,0-0.9-0.4-0.9-0.9c0-1.7,0.1-3.3,0.1-5
		L68.4,67.6z"/>
</g>
<g>
	<path style="fill:#8FC043;" d="M76.8,114.7H71c-1.1,0-2-0.9-2-2V101c0-1.1,0.9-2,2-2h5.8c1.1,0,2,0.9,2,2v11.7
		C78.8,113.8,77.8,114.7,76.8,114.7z"/>
	<path style="fill:#333333;" d="M76.1,115.5h-4.5c-1.9,0-3.5-1.6-3.5-3.5v-10.4c0-1.9,1.6-3.5,3.5-3.5h4.5c1.9,0,3.5,1.6,3.5,3.5
		V112C79.7,113.9,78.1,115.5,76.1,115.5z M71.7,99.9c-1,0-1.8,0.8-1.8,1.8V112c0,1,0.8,1.8,1.8,1.8h4.5c1,0,1.8-0.8,1.8-1.8v-10.4
		c0-1-0.8-1.8-1.8-1.8H71.7z"/>
</g>
<g>
	<path style="fill:none;" d="M73.9,109.5v5.2"/>
	<path style="fill:#333333;" d="M73.9,115.5c-0.5,0-0.9-0.4-0.9-0.9v-5.2c0-0.5,0.4-0.9,0.9-0.9s0.9,0.4,0.9,0.9v5.2
		C74.8,115.2,74.4,115.5,73.9,115.5z"/>
</g>
<path style="fill:none;" d="M0,0h150v150H0V0z"/>
</svg>
