<?xml version="1.0" encoding="utf-8"?>
<!-- Generator: Adobe Illustrator 21.0.2, SVG Export Plug-In . SVG Version: 6.00 Build 0)  -->
<svg version="1.1" id="Layer_1" xmlns="http://www.w3.org/2000/svg" xmlns:xlink="http://www.w3.org/1999/xlink" x="0px" y="0px"
	 viewBox="0 0 474 399" style="enable-background:new 0 0 474 399;" xml:space="preserve">
<line style="fill:none;stroke:#8CC63F;stroke-linecap:round;stroke-miterlimit:10;stroke-dasharray:3;" x1="113" y1="0" x2="113" y2="88"/>
<circle style="fill:#8CC63F;" cx="113" cy="92" r="3"/>
<line style="fill:none;stroke:#8CC63F;stroke-linecap:round;stroke-miterlimit:10;stroke-dasharray:3;" x1="161.8" y1="275" x2="162.5" y2="185"/>
<path style="fill:none;stroke:#8CC63F;stroke-linecap:round;stroke-miterlimit:10;stroke-dasharray:3;" d="M246.8,277.5h30.7
	c20.4,0,37,16.6,37,37l0,0l0,0c0,20.4-16.6,37-37,37h-79c-20.4,0-37-16.6-37-37l0.3-42.2"/>
<line style="fill:none;stroke:#8CC63F;stroke-linecap:round;stroke-miterlimit:10;stroke-dasharray:3;" x1="161.8" y1="277.5" x2="224.4" y2="277.5"/>
<path style="fill:none;stroke:#8CC63F;stroke-linecap:round;stroke-miterlimit:10;stroke-dasharray:3;" d="M113,318.6v-4.1
	c0-20.4,16.6-37,37-37l0,0h11.8"/>
<line style="fill:none;stroke:#8CC63F;stroke-linecap:round;stroke-miterlimit:10;stroke-dasharray:3;" x1="113" y1="398" x2="113" y2="318.6"/>
<circle style="fill:#FFFFFF;" cx="29" cy="144" r="3"/>
<circle style="fill:#8CC63F;" cx="315" cy="315" r="3"/>
<circle style="fill:#8CC63F;" cx="201" cy="352" r="3"/>
<circle style="fill:#8CC63F;" cx="113" cy="322" r="3"/>
<circle style="fill:#8CC63F;" cx="162" cy="278" r="3"/>
<path style="fill:none;stroke:#FFFFFF;stroke-linecap:round;stroke-miterlimit:10;stroke-dasharray:3;" d="M268.2,61.5h-23.7
	c-16.1,0-29.1,12.9-29.2,29l-0.2,24.4c0,16.1-13,29.1-29.1,29.1l-156.5,0.5"/>
<path style="fill:none;stroke:#FFFFFF;stroke-linecap:round;stroke-miterlimit:10;stroke-dasharray:3;" d="M473,193.5h-89.7
	c-16.1,0-29.2-13.1-29.2-29.2v-0.1l0.3-73.3c0.1-16.1-13-29.3-29.1-29.3h-0.1h-34.4"/>
<circle style="fill:#8CC63F;" cx="162.5" cy="182.5" r="3"/>
<path style="fill:none;stroke:#8CC63F;stroke-linecap:round;stroke-miterlimit:10;stroke-dasharray:3;" d="M473,141.5L312.9,141
	c-19.3,0-35,15.7-35,35v17.5c0,19.3-15.7,35-35,35H62.5"/>
<circle style="fill:#8CC63F;" cx="59.5" cy="228.5" r="3"/>
<path style="fill:none;stroke:#8CC63F;stroke-linecap:round;stroke-miterlimit:10;stroke-dasharray:3;" d="M280.1,65.4
	c1.5,21.6,16.8,38.6,35.4,38.6l157.5,0.5"/>
<line style="fill:none;stroke:#8CC63F;stroke-linecap:round;stroke-miterlimit:10;stroke-dasharray:3;" x1="280" y1="0" x2="280" y2="56.9"/>
<line style="fill:none;stroke:#FFFFFF;stroke-miterlimit:10;stroke-dasharray:3;" x1="416.5" y1="240.5" x2="358.5" y2="240.5"/>
<line style="fill:none;stroke:#FFFFFF;stroke-linecap:round;stroke-miterlimit:10;stroke-dasharray:3;" x1="472.5" y1="240.5" x2="416.5" y2="240.5"/>
<circle style="fill:#FFFFFF;" cx="355.5" cy="240.5" r="3"/>
<line style="fill:none;stroke:#8CC63F;stroke-linecap:round;stroke-miterlimit:10;stroke-dasharray:3;" x1="401" y1="0.5" x2="401" y2="41"/>
<circle style="fill:#8CC63F;" cx="401" cy="45" r="3"/>
<path style="fill:none;stroke:#8CC63F;stroke-linecap:round;stroke-miterlimit:10;stroke-dasharray:3;" d="M355.5,315.5v24
	c0,15,12,27.2,27,27.5l0,0c15,0.3,27,12.5,27,27.5v4"/>
<circle style="fill:#8CC63F;" cx="355.5" cy="312.5" r="3"/>
<circle style="fill:#FFFFFF;" cx="416.5" cy="240.5" r="3"/>
<path style="fill:none;stroke:#FFFFFF;stroke-linecap:round;stroke-miterlimit:10;stroke-dasharray:3;" d="M79.5,378.5h142
	c10.5,0,19,8.5,19,19l0,0l0,0"/>
<circle style="fill:#FFFFFF;" cx="74.5" cy="378.5" r="3"/>
<path style="fill:none;stroke:#FFFFFF;stroke-linecap:round;stroke-miterlimit:10;stroke-dasharray:3;" d="M77,19.5h80.3
	c9.5,0,17.2-7.7,17.2-17.2V0.5"/>
<circle style="fill:#FFFFFF;" cx="73.5" cy="19.5" r="3"/>
<path style="fill:none;stroke:#FFFFFF;stroke-miterlimit:10;" d="M402.6,53.8L402.6,53.8l-5.6,9.4l3.6,0.1c0,1.9-0.1,3.8-0.1,5.7
	h0.1c1.8-3.1,3.7-6.2,5.6-9.4l-3.6-0.1C402.5,57.5,402.5,55.7,402.6,53.8z"/>
<line style="fill:none;stroke:#FFFFFF;stroke-linecap:round;stroke-linejoin:round;" x1="439.5" y1="27.1" x2="439.5" y2="32.9"/>
<line style="fill:none;stroke:#FFFFFF;stroke-linecap:round;stroke-linejoin:round;" x1="442.4" y1="30" x2="436.6" y2="30"/>
<path style="fill:none;stroke:#FFFFFF;stroke-miterlimit:10;" d="M63.6,372.8c0-0.3-0.3-0.6-0.6-0.6h-1.8l2.4,2.4L63.6,372.8z"/>
<path style="fill:none;stroke:#FFFFFF;stroke-miterlimit:10;" d="M66.9,377.7l-1.8-1.8l0,0l-3.8-3.7l0,0l-1-1
	c-0.2-0.2-0.6-0.2-0.8,0l-6.4,6.4c-0.2,0.2-0.2,0.3-0.1,0.4s0.1,0.2,0.3,0.2h1.3v5.7c0,0.3,0.3,0.6,0.6,0.6h9.6
	c0.3,0,0.6-0.3,0.6-0.6v-5.7h1.3c0.2,0,0.3-0.1,0.3-0.2S67,377.9,66.9,377.7z"/>
<path style="fill:#FFFFFF;" d="M60.5,374.8L60.5,374.8l-2.9,4.6h1.9c0,0.9,0,1.9-0.1,2.8l0,0l2.9-4.6h-1.9
	C60.5,376.6,60.5,375.7,60.5,374.8z"/>
<path style="fill:none;stroke:#FFFFFF;stroke-miterlimit:10;" d="M53,226.4c0-3.1-2.5-5.7-5.7-5.7c-3.1,0-5.7,2.5-5.7,5.7
	c0,1.2,0.4,2.4,1.1,3.4l4.3,5.8c0.1,0.2,0.3,0.2,0.5,0.1l0.1-0.1l4.2-5.7l0.2-0.3l0,0C52.7,228.6,53,227.5,53,226.4L53,226.4z"/>
<path style="fill:#FFFFFF;" d="M48,223.2L48,223.2l-3,4.7l1.9,0.1c0,0.9,0,1.9-0.1,2.8l0,0l3-4.7l-1.9-0.1
	C47.9,225.1,47.9,224.1,48,223.2z"/>
<line style="fill:none;stroke:#FFFFFF;stroke-miterlimit:10;" x1="241.4" y1="281.2" x2="229.8" y2="281.2"/>
<path style="fill:none;stroke:#FFFFFF;stroke-miterlimit:10;" d="M226.8,281.2h-2.7c-0.2-0.2-0.2-0.6-0.1-0.8
	c0.2-0.3,0.2-0.5,0.2-0.8c-0.1-0.1-0.1-0.3-0.2-0.4v-0.1c-0.1-0.3,0-0.7,0.2-1c0.5-0.7,1.2-1.1,2-1.3c0.8-0.2,1.6-0.4,2.4-0.6
	c1.2-0.5,2.4-1.1,3.6-1.7c1.8-0.8,3.8-1.2,5.8-1.1c1.2,0,2.5,0.1,3.7,0.2l1.8,0.2l0.9,0.1c0.2,0,0.7,0.1,0.3,0.2l1.6,2.4
	c0.1,0.3,0.2,0.6,0.1,0.9c0.1,0.6,0.3,1.2,0.5,1.7c0.2,0.7,0,1.5-0.4,2.1h-2.3"/>
<path style="fill:none;stroke:#FFFFFF;stroke-miterlimit:10;" d="M228.3,282.6c1,0,1.8-0.8,1.8-1.8s-0.8-1.8-1.8-1.8
	s-1.8,0.8-1.8,1.8C226.4,281.8,227.3,282.6,228.3,282.6L228.3,282.6z"/>
<path style="fill:none;stroke:#FFFFFF;stroke-miterlimit:10;" d="M242.8,282.7c-1,0-1.8-0.8-1.8-1.8s0.8-1.8,1.8-1.8
	s1.8,0.8,1.8,1.8C244.6,281.9,243.8,282.7,242.8,282.7L242.8,282.7z"/>
<path style="fill:none;stroke:#FFFFFF;stroke-miterlimit:10;" d="M227.8,176.9c1.4,0.6,2.3,2.1,2.1,3.6c-0.2,2-1.9,3.5-4,3.3l0,0
	c-0.2,0-0.4-0.1-0.7-0.1l-0.3-0.1c-0.1,0-0.1-0.1-0.2-0.1c-0.1,0-0.2,0-0.2,0l-0.1,0.1l-0.3,0.1c-1.9,0.8-4,0-4.8-1.9
	c-0.7-1.6-0.2-3.4,1.2-4.4l0,0c0-0.3,0-0.6,0-0.9c0.2-2,2-3.5,4-3.3C226.3,173.4,227.7,174.9,227.8,176.9L227.8,176.9z"/>
<line style="fill:none;stroke:#FFFFFF;stroke-linecap:round;stroke-miterlimit:10;" x1="227" y1="181" x2="224.8" y2="182.2"/>
<polyline style="fill:none;stroke:#FFFFFF;stroke-linecap:round;stroke-miterlimit:10;" points="224.6,183.4 224.6,177.9 
	224.6,177.9 "/>
<line style="fill:none;stroke:#FFFFFF;stroke-linecap:round;stroke-miterlimit:10;" x1="224.6" y1="192" x2="224.6" y2="183.4"/>
<line style="fill:none;stroke:#FFFFFF;stroke-linecap:round;stroke-miterlimit:10;" x1="222" y1="180" x2="224.5" y2="181.1"/>
<path style="fill:none;stroke:#FFFFFF;stroke-miterlimit:10;" d="M243.8,176.9c1.4,0.6,2.3,2.1,2.1,3.6c-0.2,2-1.9,3.5-4,3.3l0,0
	c-0.2,0-0.4-0.1-0.7-0.1l-0.3-0.1c-0.1,0-0.1-0.1-0.2-0.1c-0.1,0-0.2,0-0.2,0l-0.1,0.1l-0.3,0.1c-1.9,0.8-4,0-4.8-1.9
	c-0.7-1.6-0.2-3.4,1.2-4.4l0,0c0-0.3,0-0.6,0-0.9c0.2-2,2-3.5,4-3.3C242.3,173.4,243.7,174.9,243.8,176.9L243.8,176.9z"/>
<line style="fill:none;stroke:#FFFFFF;stroke-linecap:round;stroke-miterlimit:10;" x1="243" y1="181" x2="240.8" y2="182.2"/>
<polyline style="fill:none;stroke:#FFFFFF;stroke-linecap:round;stroke-miterlimit:10;" points="240.6,183.4 240.6,177.9 
	240.6,177.9 "/>
<line style="fill:none;stroke:#FFFFFF;stroke-linecap:round;stroke-miterlimit:10;" x1="240.6" y1="192" x2="240.6" y2="183.4"/>
<line style="fill:none;stroke:#FFFFFF;stroke-linecap:round;stroke-miterlimit:10;" x1="238" y1="180" x2="240.5" y2="181.1"/>
<path style="fill:none;stroke:#FFFFFF;stroke-miterlimit:10;" d="M411.8,299.9c1.4,0.6,2.3,2.1,2.1,3.6c-0.2,2-1.9,3.5-4,3.3l0,0
	c-0.2,0-0.4-0.1-0.7-0.1l-0.3-0.1c-0.1,0-0.1-0.1-0.2-0.1s-0.2,0-0.2,0l-0.1,0.1l-0.3,0.1c-1.9,0.8-4,0-4.8-1.9
	c-0.7-1.6-0.2-3.4,1.2-4.4l0,0c0-0.3,0-0.6,0-0.9c0.2-2,2-3.5,4-3.3C410.3,296.4,411.7,297.9,411.8,299.9L411.8,299.9z"/>
<line style="fill:none;stroke:#FFFFFF;stroke-linecap:round;stroke-miterlimit:10;" x1="411" y1="304" x2="408.8" y2="305.2"/>
<polyline style="fill:none;stroke:#FFFFFF;stroke-linecap:round;stroke-miterlimit:10;" points="408.6,306.4 408.6,300.9 
	408.6,300.9 "/>
<line style="fill:none;stroke:#FFFFFF;stroke-linecap:round;stroke-miterlimit:10;" x1="408.6" y1="315" x2="408.6" y2="306.4"/>
<line style="fill:none;stroke:#FFFFFF;stroke-linecap:round;stroke-miterlimit:10;" x1="406" y1="303" x2="408.5" y2="304.1"/>
<path style="fill:none;stroke:#FFFFFF;stroke-miterlimit:10;" d="M427.8,299.9c1.4,0.6,2.3,2.1,2.1,3.6c-0.2,2-1.9,3.5-4,3.3l0,0
	c-0.2,0-0.4-0.1-0.7-0.1l-0.3-0.1c-0.1,0-0.1-0.1-0.2-0.1s-0.2,0-0.2,0l-0.1,0.1l-0.3,0.1c-1.9,0.8-4,0-4.8-1.9
	c-0.7-1.6-0.2-3.4,1.2-4.4l0,0c0-0.3,0-0.6,0-0.9c0.2-2,2-3.5,4-3.3C426.3,296.4,427.7,297.9,427.8,299.9L427.8,299.9z"/>
<line style="fill:none;stroke:#FFFFFF;stroke-linecap:round;stroke-miterlimit:10;" x1="427" y1="304" x2="424.8" y2="305.2"/>
<polyline style="fill:none;stroke:#FFFFFF;stroke-linecap:round;stroke-miterlimit:10;" points="424.6,306.4 424.6,300.9 
	424.6,300.9 "/>
<line style="fill:none;stroke:#FFFFFF;stroke-linecap:round;stroke-miterlimit:10;" x1="424.6" y1="315" x2="424.6" y2="306.4"/>
<line style="fill:none;stroke:#FFFFFF;stroke-linecap:round;stroke-miterlimit:10;" x1="422" y1="303" x2="424.5" y2="304.1"/>
<path style="fill:none;stroke:#FFFFFF;stroke-miterlimit:10;" d="M237.8,308.9c1.4,0.6,2.3,2.1,2.1,3.6c-0.2,2-1.9,3.5-4,3.3l0,0
	c-0.2,0-0.4-0.1-0.7-0.1l-0.3-0.1c-0.1,0-0.1-0.1-0.2-0.1c-0.1,0-0.2,0-0.2,0l-0.1,0.1l-0.3,0.1c-1.9,0.8-4,0-4.8-1.9
	c-0.7-1.6-0.2-3.4,1.2-4.4l0,0c0-0.3,0-0.6,0-0.9c0.2-2,2-3.5,4-3.3C236.3,305.4,237.7,306.9,237.8,308.9L237.8,308.9z"/>
<line style="fill:none;stroke:#FFFFFF;stroke-miterlimit:10;" x1="237" y1="313" x2="234.8" y2="314.2"/>
<polyline style="fill:none;stroke:#FFFFFF;stroke-miterlimit:10;" points="234.6,315.4 234.6,309.9 234.6,309.9 "/>
<line style="fill:none;stroke:#FFFFFF;stroke-miterlimit:10;" x1="234.6" y1="324" x2="234.6" y2="315.4"/>
<line style="fill:none;stroke:#FFFFFF;stroke-miterlimit:10;" x1="232" y1="312" x2="234.5" y2="313.1"/>
<path style="fill:none;stroke:#FFFFFF;stroke-miterlimit:10;" d="M165.8,59.9c1.4,0.6,2.3,2.1,2.1,3.6c-0.2,2-1.9,3.5-4,3.3l0,0
	c-0.2,0-0.4-0.1-0.7-0.2l-0.3-0.1c-0.1,0-0.1-0.1-0.2-0.1c-0.1,0-0.2,0-0.2,0l-0.1,0.1l-0.3,0.2c-1.9,0.8-4,0-4.8-1.9
	c-0.7-1.6-0.2-3.4,1.2-4.4l0,0c0-0.3,0-0.6,0-0.9c0.2-2,2-3.5,4-3.3C164.3,56.4,165.7,57.9,165.8,59.9L165.8,59.9z"/>
<line style="fill:none;stroke:#FFFFFF;stroke-linecap:round;stroke-miterlimit:10;" x1="165" y1="64" x2="162.8" y2="65.2"/>
<polyline style="fill:none;stroke:#FFFFFF;stroke-linecap:round;stroke-miterlimit:10;" points="162.6,66.4 162.6,60.9 162.6,60.9 
	"/>
<line style="fill:none;stroke:#FFFFFF;stroke-linecap:round;stroke-miterlimit:10;" x1="162.6" y1="75" x2="162.6" y2="66.4"/>
<line style="fill:none;stroke:#FFFFFF;stroke-linecap:round;stroke-miterlimit:10;" x1="160" y1="63" x2="162.5" y2="64.1"/>
<line style="fill:none;stroke:#FFFFFF;stroke-miterlimit:10;" x1="285.3" y1="65.2" x2="273.8" y2="65.2"/>
<path style="fill:none;stroke:#FFFFFF;stroke-miterlimit:10;" d="M270.7,65.2h-2.6c-0.2-0.2-0.2-0.6-0.1-0.8
	c0.2-0.3,0.2-0.5,0.2-0.8c-0.1-0.1-0.1-0.3-0.2-0.4v-0.1c-0.1-0.3,0-0.7,0.2-1c0.5-0.7,1.2-1.1,2-1.3s1.6-0.4,2.4-0.6
	c1.2-0.5,2.4-1.1,3.6-1.7c1.8-0.8,3.8-1.2,5.8-1.1c1.2,0,2.5,0.1,3.7,0.2l1.8,0.2l0.9,0.1c0.2,0,0.7,0.1,0.3,0.2l1.6,2.4
	c0.1,0.3,0.2,0.6,0.1,0.9c0.1,0.6,0.3,1.2,0.5,1.7c0.2,0.7,0,1.5-0.4,2.1h-2.3"/>
<path style="fill:none;stroke:#FFFFFF;stroke-miterlimit:10;" d="M272.3,66.6c1,0,1.8-0.8,1.8-1.8s-0.8-1.8-1.8-1.8
	s-1.8,0.8-1.8,1.8C270.4,65.8,271.3,66.6,272.3,66.6L272.3,66.6z"/>
<path style="fill:none;stroke:#FFFFFF;stroke-miterlimit:10;" d="M286.8,66.7c-1,0-1.8-0.8-1.8-1.8s0.8-1.8,1.8-1.8s1.8,0.8,1.8,1.8
	C288.6,65.9,287.8,66.7,286.8,66.7L286.8,66.7z"/>
<path style="fill:none;stroke:#FFFFFF;stroke-linecap:round;stroke-linejoin:round;" d="M65,17.4c0-3.1-2.5-5.7-5.7-5.7
	c-3.1,0-5.7,2.5-5.7,5.7c0,1.2,0.4,2.4,1.1,3.4l4.3,5.8c0.1,0.2,0.3,0.2,0.5,0.1l0.1-0.1l4.2-5.7l0.2-0.3l0,0
	C64.7,19.6,65,18.5,65,17.4L65,17.4z"/>
<path style="fill:#FFFFFF;" d="M60,14.2L60,14.2l-3,4.7h1.9c0,1,0,1.9-0.1,2.8l0,0l3-4.7h-1.9C59.9,16.1,59.9,15.1,60,14.2z"/>
<line style="fill:none;stroke:#FFFFFF;stroke-linecap:round;stroke-linejoin:round;" x1="337.5" y1="370.1" x2="337.5" y2="375.9"/>
<line style="fill:none;stroke:#FFFFFF;stroke-linecap:round;stroke-linejoin:round;" x1="340.4" y1="373" x2="334.6" y2="373"/>
<line style="fill:none;stroke:#FFFFFF;stroke-linecap:round;stroke-linejoin:round;" x1="95.5" y1="180.1" x2="95.5" y2="185.9"/>
<line style="fill:none;stroke:#FFFFFF;stroke-linecap:round;stroke-linejoin:round;" x1="98.4" y1="183" x2="92.6" y2="183"/>
<line style="fill:none;stroke:#FFFFFF;stroke-linecap:round;stroke-linejoin:round;" x1="318.5" y1="191.1" x2="318.5" y2="196.9"/>
<line style="fill:none;stroke:#FFFFFF;stroke-linecap:round;stroke-linejoin:round;" x1="321.4" y1="194" x2="315.6" y2="194"/>
<path style="fill:none;stroke:#FFFFFF;stroke-miterlimit:10;" d="M166.6,160.8c0-0.3-0.3-0.6-0.6-0.6h-1.8l2.4,2.4L166.6,160.8z"/>
<path style="fill:none;stroke:#FFFFFF;stroke-miterlimit:10;" d="M169.9,165.7l-1.8-1.8l0,0l-3.8-3.7l0,0l-1-1
	c-0.2-0.2-0.6-0.2-0.8,0l-6.4,6.4c-0.2,0.2-0.2,0.3-0.1,0.4s0.1,0.2,0.3,0.2h1.3v5.7c0,0.3,0.3,0.6,0.6,0.6h9.6
	c0.3,0,0.6-0.3,0.6-0.6v-5.7h1.3c0.2,0,0.3-0.1,0.3-0.2S170,165.9,169.9,165.7z"/>
<path style="fill:#FFFFFF;" d="M163.5,162.8L163.5,162.8l-2.9,4.6l1.9,0.1c0,0.9,0,1.9-0.1,2.8l0,0l2.9-4.6h-1.9
	C163.5,164.6,163.5,163.7,163.5,162.8z"/>
<path style="fill:none;stroke:#FFFFFF;stroke-miterlimit:10;" d="M109.3,104.5h-2.1c-0.5-0.1-1.1,0.2-1.2,0.8c0,0.1,0,0.3,0,0.4
	c0,2.3,0,4.5,0,6.8c-0.1,0.5,0.3,1.1,0.8,1.2c0.1,0,0.3,0,0.4,0h10.7c0.1,0,0.3,0,0.4,0c0.5-0.1,0.9-0.6,0.8-1.2c0-1.8,0-3.7,0-5.5
	c0-0.4,0-0.8,0-1.2c0.1-0.5-0.3-1.1-0.8-1.1c-0.1,0-0.2,0-0.3,0h-2.3c0-0.4,0-0.7,0-1c0.1-0.5-0.3-1.1-0.8-1.2c-0.1,0-0.3,0-0.4,0
	h-3.9c-0.6-0.1-1.1,0.3-1.2,0.9c0,0.1,0,0.2,0,0.3C109.3,103.8,109.3,104.2,109.3,104.5z"/>
<path style="fill:none;stroke:#FFFFFF;stroke-miterlimit:10;" d="M115,104.5c0-0.4,0-0.7,0-1.1s-0.2-0.5-0.5-0.5h-4
	c-0.3,0-0.5,0.1-0.5,0.4c0,0.4,0,0.8,0,1.2H115z"/>
<path style="fill:#FFFFFF;" d="M113.1,105.8L113.1,105.8l-2.5,3.9h1.6c0,0.8,0,1.6-0.1,2.4l0,0l2.5-3.9H113
	C113.1,107.3,113.1,106.6,113.1,105.8z"/>
<path style="fill:none;stroke:#FFFFFF;stroke-linecap:round;stroke-linejoin:round;" d="M361,294.4c0-3.1-2.5-5.7-5.7-5.7
	c-3.1,0-5.7,2.5-5.7,5.7c0,1.2,0.4,2.4,1.1,3.4l4.3,5.8c0.1,0.2,0.3,0.2,0.5,0.1l0.1-0.1l4.2-5.7l0.2-0.3l0,0
	C360.7,296.6,361,295.5,361,294.4L361,294.4z"/>
<path style="fill:#FFFFFF;" d="M356,291.2L356,291.2l-3,4.7h1.9c0,1,0,1.9-0.1,2.8l0,0l3-4.7h-1.9
	C355.9,293.1,355.9,292.1,356,291.2z"/>
<circle style="fill:#FFFFFF;" cx="416" cy="194" r="3"/>
<circle style="fill:#FFFFFF;" cx="354" cy="104" r="3"/>
<circle style="fill:#FFFFFF;" cx="215" cy="101" r="3"/>
<circle style="fill:#FFFFFF;" cx="163" cy="144" r="3"/>
<circle style="fill:#FFFFFF;" cx="113" cy="20" r="3"/>
<circle style="fill:#8CC63F;" cx="112" cy="229" r="3"/>
<circle style="fill:#8CC63F;" cx="162" cy="229" r="3"/>
<circle style="fill:#8CC63F;" cx="354" cy="141" r="3"/>
<circle style="fill:#FFFFFF;" cx="113" cy="144" r="3"/>
<path style="fill:none;stroke:#FFFFFF;stroke-miterlimit:10;" d="M14.6,137.8c0-0.3-0.3-0.6-0.6-0.6h-1.8l2.4,2.4V137.8z"/>
<path style="fill:none;stroke:#FFFFFF;stroke-miterlimit:10;" d="M17.9,142.7l-1.8-1.8l0,0l-3.8-3.7l0,0l-1-1
	c-0.2-0.2-0.6-0.2-0.8,0L4,142.7c-0.2,0.2-0.2,0.3-0.1,0.4c0.1,0.1,0.1,0.2,0.3,0.2h1.3v5.7c0,0.3,0.3,0.6,0.6,0.6h9.6
	c0.3,0,0.6-0.3,0.6-0.6v-5.7h1.3c0.2,0,0.3-0.1,0.3-0.2S18,142.9,17.9,142.7z"/>
<path style="fill:#FFFFFF;" d="M11.5,139.8L11.5,139.8l-2.9,4.6l1.9,0.1c0,0.9,0,1.9-0.1,2.8l0,0l2.9-4.6h-1.9
	C11.5,141.6,11.5,140.7,11.5,139.8z"/>
</svg>
