<?xml version="1.0" encoding="utf-8"?>
<!-- Generator: Adobe Illustrator 21.0.2, SVG Export Plug-In . SVG Version: 6.00 Build 0)  -->
<svg version="1.1" id="Layer_1" xmlns="http://www.w3.org/2000/svg" xmlns:xlink="http://www.w3.org/1999/xlink" x="0px" y="0px"
	 viewBox="0 0 90 90" style="enable-background:new 0 0 90 90;" xml:space="preserve">
<style type="text/css">
	.st0{fill:#8FC043;stroke:#333333;stroke-width:1.5;stroke-linecap:round;stroke-linejoin:round;stroke-miterlimit:10;}
	.st1{fill:#E6E6E6;stroke:#333333;stroke-width:1.5;stroke-linecap:round;stroke-linejoin:round;stroke-miterlimit:10;}
</style>
<path class="st0" d="M70.9,21.6c0.6,11.8,0.4,23.7-5.1,34.5c-4.5,8.8-11.4,16.3-20.2,21.2c-0.5,0.3-0.9,0.5-1.4,0.8l0,0
	c-0.4,0.5-6.6-4-7.3-4.5c-2.4-1.9-4.6-4.1-6.6-6.4c-5.4-6.6-9.9-15-10.8-23.5c-0.8-7.3-0.8-14.7-0.8-22L45,13L70.9,21.6z"/>
<g>
	<path class="st1" d="M68.3,23.7c0.5,10.5,0.4,21.2-4.6,30.8c-4.1,7.9-10.2,14.6-18.1,19c-0.4,0.2-0.8,0.5-1.3,0.7l0,0
		c-0.4,0.4-6-3.6-6.5-4c-2.2-1.7-4.1-3.6-5.9-5.8C27,58.5,23.1,51,22.3,43.3c-0.7-6.5-0.7-13.1-0.7-19.6L45.1,16L68.3,23.7z"/>
	<polyline class="st1" points="32.7,45.4 40.8,53.3 58.4,32.7 	"/>
</g>
</svg>
