<?xml version="1.0" encoding="utf-8"?>
<!-- Generator: Adobe Illustrator 21.0.2, SVG Export Plug-In . SVG Version: 6.00 Build 0)  -->
<svg version="1.1" id="Layer_1" xmlns="http://www.w3.org/2000/svg" xmlns:xlink="http://www.w3.org/1999/xlink" x="0px" y="0px"
	 viewBox="0 0 124 124" style="enable-background:new 0 0 124 124;" xml:space="preserve">
<style type="text/css">
	.st0{fill:#8FC043;stroke:#333333;stroke-width:1.5;stroke-linecap:round;stroke-linejoin:round;stroke-miterlimit:10;}
	.st1{fill:#E6E6E6;stroke:#333333;stroke-width:1.5;stroke-linecap:round;stroke-linejoin:round;stroke-miterlimit:10;}
	.st2{fill:#8CC63F;stroke:#333333;stroke-width:1.5;stroke-linecap:round;stroke-linejoin:round;stroke-miterlimit:10;}
	.st3{fill:none;stroke:#FFFFFF;stroke-width:1.5;stroke-linecap:round;stroke-linejoin:round;stroke-miterlimit:10;}
</style>
<polyline class="st0" points="58.5,80.6 72.2,115 78.9,103.7 92.5,108.1 79.9,76.4 "/>
<polyline class="st0" points="67.8,77.7 53.1,114.6 46.4,103.4 32.8,107.7 45.4,76 "/>
<circle class="st0" cx="63" cy="45" r="35.6"/>
<circle class="st1" cx="62.9" cy="45" r="32.4"/>
<path class="st2" d="M44.9,31.8l2.1,4.5c0,0,0,0,0.1,0l4.8,0.7c0.1,0,0.1,0.1,0,0.1l-3.5,3.5c0,0,0,0,0,0.1l0.8,5
	c0,0.1-0.1,0.1-0.1,0.1l-4.3-2.3c0,0,0,0-0.1,0l-4.3,2.3c-0.1,0-0.1,0-0.1-0.1l0.8-5c0,0,0-0.1,0-0.1l-3.5-3.5c0,0,0-0.1,0-0.1
	l4.8-0.7c0,0,0,0,0.1,0l2.1-4.5C44.8,31.8,44.8,31.8,44.9,31.8z"/>
<line class="st3" x1="77.8" y1="80.5" x2="82" y2="89.8"/>
<line class="st3" x1="46.7" y1="81.6" x2="38.4" y2="102.3"/>
<path class="st3" d="M76.8,19.6c8.1,4.1,13.9,11.9,15.3,21.2"/>
<path class="st2" d="M63.5,31.8l2.1,4.5c0,0,0,0,0.1,0l4.8,0.7c0.1,0,0.1,0.1,0,0.1l-3.5,3.5c0,0,0,0,0,0.1l0.8,5
	c0,0.1-0.1,0.1-0.1,0.1l-4.3-2.3c0,0,0,0-0.1,0l-4.3,2.3c-0.1,0-0.1,0-0.1-0.1l0.8-5c0,0,0-0.1,0-0.1l-3.5-3.5c0,0,0-0.1,0-0.1
	l4.8-0.7c0,0,0,0,0.1,0l2.1-4.5C63.4,31.8,63.5,31.8,63.5,31.8z"/>
<path class="st2" d="M54.2,49.1l2.1,4.5c0,0,0,0,0.1,0l4.8,0.7c0.1,0,0.1,0.1,0,0.1L57.8,58c0,0,0,0,0,0.1l0.8,5
	c0,0.1-0.1,0.1-0.1,0.1l-4.3-2.3c0,0,0,0-0.1,0l-4.3,2.3c-0.1,0-0.1,0-0.1-0.1l0.8-5c0,0,0-0.1,0-0.1L47,54.5c0,0,0-0.1,0-0.1
	l4.8-0.7c0,0,0,0,0.1,0l2.1-4.5C54.1,49,54.2,49,54.2,49.1z"/>
<path class="st2" d="M72.9,49.1l2.1,4.5c0,0,0,0,0.1,0l4.8,0.7c0.1,0,0.1,0.1,0,0.1L76.4,58c0,0,0,0,0,0.1l0.8,5
	c0,0.1-0.1,0.1-0.1,0.1l-4.3-2.3c0,0,0,0-0.1,0l-4.3,2.3c-0.1,0-0.1,0-0.1-0.1l0.8-5c0,0,0-0.1,0-0.1l-3.5-3.5c0,0,0-0.1,0-0.1
	l4.8-0.7c0,0,0,0,0.1,0l2.1-4.5C72.8,49,72.8,49,72.9,49.1z"/>
<path class="st2" d="M81.2,31.8l2.1,4.5c0,0,0,0,0.1,0l4.8,0.7c0.1,0,0.1,0.1,0,0.1l-3.5,3.5c0,0,0,0,0,0.1l0.8,5
	c0,0.1-0.1,0.1-0.1,0.1l-4.3-2.3c0,0,0,0-0.1,0l-4.3,2.3c-0.1,0-0.1,0-0.1-0.1l0.8-5c0,0,0-0.1,0-0.1L74,37.2c0,0,0-0.1,0-0.1
	l4.8-0.7c0,0,0,0,0.1,0l2.1-4.5C81,31.8,81.1,31.8,81.2,31.8z"/>
</svg>
