<svg xmlns="http://www.w3.org/2000/svg" viewBox="0 0 150 150"><path d="M96.1 43.5h-45c-1.3 0-2.4-1.1-2.4-2.4v-16c0-1.3 1.1-2.4 2.4-2.4h45.1c1.3 0 2.4 1.1 2.4 2.4v16c-.1 1.3-1.1 2.4-2.5 2.4z" fill="#8cc63f"/><path d="M95.3 44.5H51.9c-2.3 0-4.2-1.9-4.2-4.2V25.9c0-2.3 1.9-4.2 4.2-4.2h43.5c2.3 0 4.2 1.9 4.2 4.2v14.4c-.1 2.3-1.9 4.2-4.3 4.2zM51.9 23.7c-1.2 0-2.2 1-2.2 2.2v14.4c0 1.2 1 2.2 2.2 2.2h43.5c1.2 0 2.2-1 2.2-2.2V25.9c0-1.2-1-2.2-2.2-2.2H51.9z" fill="#333"/><path d="M96.1 49.5h-45c-1.3 0-2.4-1.1-2.4-2.4v-16c0-1.3 1.1-2.4 2.4-2.4h45.1c1.3 0 2.4 1.1 2.4 2.4v16c-.1 1.3-1.1 2.4-2.5 2.4z" fill="#fff"/><path d="M95.3 50.5H51.9c-2.3 0-4.2-1.9-4.2-4.2V31.9c0-2.3 1.9-4.2 4.2-4.2h43.5c2.3 0 4.2 1.9 4.2 4.2v14.4c-.1 2.3-1.9 4.2-4.3 4.2zM51.9 29.7c-1.2 0-2.2 1-2.2 2.2v14.4c0 1.2 1 2.2 2.2 2.2h43.5c1.2 0 2.2-1 2.2-2.2V31.9c0-1.2-1-2.2-2.2-2.2H51.9z" fill="#333"/><path d="M129.4 46.5H119c-1.3 0-2.4-1.1-2.4-2.4v-8.6c0-1.3 1.1-2.4 2.4-2.4h10.4c1.3 0 2.4 1.1 2.4 2.4v8.6c0 1.3-1.1 2.4-2.4 2.4z" fill="#8fc043"/><path d="M128.6 47.5h-8.8c-2.3 0-4.2-1.9-4.2-4.2v-7c0-2.3 1.9-4.2 4.2-4.2h8.8c2.3 0 4.2 1.9 4.2 4.2v7c0 2.3-1.9 4.2-4.2 4.2zm-8.9-13.4c-1.2 0-2.2 1-2.2 2.2v7c0 1.2 1 2.2 2.2 2.2h8.8c1.2 0 2.2-1 2.2-2.2v-7c0-1.2-1-2.2-2.2-2.2h-8.8z" fill="#333"/><path d="M31.1 46.5H20.6c-1.3 0-2.4-1.1-2.4-2.4v-8.6c0-1.3 1.1-2.4 2.4-2.4H31c1.3 0 2.4 1.1 2.4 2.4v8.6c.1 1.3-1 2.4-2.3 2.4z" fill="#8fc043"/><path d="M30.3 47.5h-8.8c-2.3 0-4.2-1.9-4.2-4.2v-7c0-2.3 1.9-4.2 4.2-4.2h8.8c2.3 0 4.2 1.9 4.2 4.2v7c0 2.3-1.9 4.2-4.2 4.2zm-8.9-13.4c-1.2 0-2.2 1-2.2 2.2v7c0 1.2 1 2.2 2.2 2.2h8.8c1.2 0 2.2-1 2.2-2.2v-7c0-1.2-1-2.2-2.2-2.2h-8.8z" fill="#333"/><path d="M147 64.3v57.3c0 2.8-2.3 5.1-5.1 5.1H8.1c-2.8 0-5.1-2.3-5.1-5.1V64.3" fill="#e6e6e6"/><path d="M141.9 127.7H8.1c-3.4 0-6.1-2.8-6.1-6.1V64.3c0-.6.4-1 1-1s1 .4 1 1v57.3c0 2.3 1.9 4.1 4.1 4.1h133.7c2.3 0 4.1-1.9 4.1-4.1V64.3c0-.6.4-1 1-1s1 .4 1 1v57.3c.1 3.4-2.7 6.1-6 6.1z" fill="#333"/><g><path d="M147 76.1l-73.3 37.3L3 76.1V44.2c0-2.8 2.3-5.1 5.1-5.1h133.7c2.8 0 5.1 2.3 5.1 5.1v18.5l.1 13.4z" fill="#8fc043"/><path d="M73.7 114.4c-.2 0-.3 0-.5-.1L2.5 76.9c-.3-.1-.5-.5-.5-.8V44.2c0-3.4 2.8-6.1 6.1-6.1h133.7c3.4 0 6.1 2.8 6.1 6.1V76c0 .4-.2.7-.5.9l-73.3 37.3c-.1.2-.3.2-.4.2zM4 75.5l69.7 36.8L146 75.4V44.2c0-2.3-1.9-4.1-4.1-4.1H8.1C5.8 40.1 4 42 4 44.2v31.3zm143 .6z" fill="#333"/></g><g><path d="M74.9 52.6s-.1 0 0 0c-3.1 5.1-6.2 10.2-9.2 15.4 2 .1 3.9.1 5.9.2-.1 3.1-.1 6.2-.2 9.3h.1c3-5.1 6.1-10.2 9.1-15.4-2-.1-3.9-.1-5.9-.2 0-3.1.1-6.2.2-9.3z" fill="#e6e6e6"/><path d="M71.4 78.5c-.1 0-.2 0-.3-.1-.1 0-.1-.1-.2-.1-.4-.1-.6-.5-.6-.9l.2-8.3-4.9-.1c-.4 0-.7-.2-.8-.5-.2-.3-.2-.7 0-1l9.1-15.4c.3-.4.8-.6 1.3-.4.4.1.7.5.7 1l-.1 2.9c0 1.8-.1 3.6-.1 5.4l4.9.1c.4 0 .7.2.8.5.2.3.2.7 0 1l-7.8 13.2-1.3 2.2c-.2.3-.5.5-.9.5zm-4-11.4l4.2.1c.6 0 1 .5 1 1l-.1 5.6c2.1-3.6 4.3-7.2 6.4-10.8l-4.2-.1c-.5 0-1-.5-1-1 0-1.9.1-3.8.1-5.7l-6.4 10.9zm7.4-14.5z" fill="#333"/></g><g><path d="M76.9 120.7h-6.6c-1.2 0-2.3-1-2.3-2.3v-13.3c0-1.2 1-2.3 2.3-2.3h6.6c1.2 0 2.3 1 2.3 2.3v13.3c0 1.3-1.1 2.3-2.3 2.3z" fill="#8fc043"/><path d="M76.1 121.7H71c-2.2 0-4-1.8-4-4v-11.8c0-2.2 1.8-4 4-4h5.1c2.2 0 4 1.8 4 4v11.8c.1 2.2-1.7 4-4 4zm-5-17.8c-1.1 0-2 .9-2 2v11.8c0 1.1.9 2 2 2h5.1c1.1 0 2-.9 2-2v-11.8c0-1.1-.9-2-2-2h-5.1z" fill="#333"/></g><g><path fill="none" d="M73.6 114.8v5.9"/><path d="M73.6 121.7c-.6 0-1-.4-1-1v-5.9c0-.6.4-1 1-1s1 .4 1 1v5.9c0 .6-.4 1-1 1z" fill="#333"/></g></svg>