<svg xmlns="http://www.w3.org/2000/svg" viewBox="0 0 150 150"><path d="M74.4 144.6c-.6 0-1.1-.5-1.1-1.1V65.7c0-.6.5-1.1 1.1-1.1s1.1.5 1.1 1.1v77.8c0 .6-.5 1.1-1.1 1.1zM48.2 144.6c-.6 0-1.1-.5-1.1-1.1V65.7c0-.6.5-1.1 1.1-1.1s1.1.5 1.1 1.1v77.7c0 .7-.5 1.2-1.1 1.2z" fill="#333"/><path d="M48.2 93c-.3 0-.6-.1-.8-.3-.4-.4-.4-1.1 0-1.5L73.6 65c.4-.4 1.1-.4 1.5 0s.4 1.1 0 1.5L49 92.7c-.2.2-.5.3-.8.3zM48.2 118.9c-.3 0-.6-.1-.8-.3-.4-.4-.4-1.1 0-1.5l26.2-26.2c.4-.4 1.1-.4 1.5 0s.4 1.1 0 1.5l-26.2 26.2c-.2.2-.4.3-.7.3z" fill="#333"/><path d="M74.3 93c-.3 0-.6-.1-.8-.3L47.4 66.5c-.4-.4-.4-1.1 0-1.5s1.1-.4 1.5 0l26.2 26.2c.4.4.4 1.1 0 1.5-.2.2-.5.3-.8.3zM74.4 118.7c-.3 0-.6-.1-.8-.3L47.4 92.2c-.4-.4-.4-1.1 0-1.5s1.1-.4 1.5 0l26.2 26.2c.4.4.4 1.1 0 1.5-.2.2-.5.3-.7.3z" fill="#333"/><path d="M74.3 92.8H48.2c-.6 0-1.1-.5-1.1-1.1s.5-1.1 1.1-1.1h26.1c.6 0 1.1.5 1.1 1.1s-.5 1.1-1.1 1.1zM74.4 118.7H48.9c-.6 0-1.1-.5-1.1-1.1s.5-1.1 1.1-1.1h25.5c.6 0 1.1.5 1.1 1.1s-.5 1.1-1.1 1.1zM111.9 55.4c-.3 0-.6-.1-.8-.3L85 29c-.4-.4-.4-1.1 0-1.5s1.1-.4 1.5 0l26.2 26.2c.4.4.4 1.1 0 1.5-.2.1-.5.2-.8.2z" fill="#333"/><path d="M85.8 55.3c-.3 0-.6-.1-.8-.3-.4-.4-.4-1.1 0-1.5l26.2-26.2c.4-.4 1.1-.4 1.5 0s.4 1.1 0 1.5L86.6 55c-.3.2-.5.3-.8.3z" fill="#333"/><path d="M111.9 55.3c-.6 0-1.1-.5-1.1-1.1V28.1c0-.6.5-1.1 1.1-1.1s1.1.5 1.1 1.1v26.2c0 .6-.5 1-1.1 1z" fill="#4d4d4d"/><path d="M137.6 55.4H86.2c-.6 0-1.1-.5-1.1-1.1s.5-1.1 1.1-1.1h51.3c.6 0 1.1.5 1.1 1.1s-.4 1.1-1 1.1zM137.6 29.2H86.3c-.6 0-1.1-.5-1.1-1.1s.5-1.1 1.1-1.1h51.3c.6 0 1.1.5 1.1 1.1-.1.6-.5 1.1-1.1 1.1z" fill="#333"/><path d="M138.1 55.3c-.3 0-.6-.1-.8-.3l-26.2-26.2c-.4-.4-.4-1.1 0-1.5s1.1-.4 1.5 0l26.2 26.2c.4.4.4 1.1 0 1.5-.1.2-.4.3-.7.3z" fill="#333"/><path d="M112.1 55.4c-.3 0-.6-.1-.8-.3-.4-.4-.4-1.1 0-1.5l26.2-26.2c.4-.4 1.1-.4 1.5 0s.4 1.1 0 1.5l-26.2 26.2c-.1.2-.4.3-.7.3z" fill="#333"/><path d="M112 55.3c-.6 0-1.1-.5-1.1-1.1V28.1c0-.6.5-1.1 1.1-1.1s1.1.5 1.1 1.1v26.2c0 .5-.5 1-1.1 1zM37.2 55.4c-.3 0-.6-.1-.8-.3L10.3 28.9c-.4-.4-.4-1.1 0-1.5s1.1-.4 1.5 0L38 53.5c.4.4.4 1.1 0 1.5-.2.3-.5.4-.8.4z" fill="#333"/><path d="M11.1 55.3c-.3 0-.6-.1-.8-.3-.4-.4-.4-1.1 0-1.5l26.2-26.2c.4-.4 1.1-.4 1.5 0s.4 1.1 0 1.5L11.9 55c-.3.2-.5.3-.8.3z" fill="#333"/><path d="M39.4 55.3H11.5c-.6 0-1.1-.5-1.1-1.1s.5-1.1 1.1-1.1h27.8c.6 0 1.1.5 1.1 1.1.1.6-.4 1.1-1 1.1z" fill="#333"/><path d="M39.4 29.1H11.6c-.6 0-1.1-.5-1.1-1.1s.5-1.1 1.1-1.1h27.8c.6 0 1.1.5 1.1 1.1s-.5 1.1-1.1 1.1z" fill="#4d4d4d"/><path d="M124.5 60.1c-2.9 0-5.2-2.3-5.2-5.2 0-.6.5-1.1 1.1-1.1s1.1.5 1.1 1.1c0 1.7 1.3 3 3 3s3-1.3 3-3c0-.6.5-1.1 1.1-1.1s1.1.5 1.1 1.1c-.1 2.9-2.4 5.2-5.2 5.2z" fill="#333"/><path d="M124.7 76.8c-.6 0-1.1-.5-1.1-1.1V59.4c0-.6.5-1.1 1.1-1.1s1.1.5 1.1 1.1v16.3c0 .7-.5 1.1-1.1 1.1z" fill="#333"/><path d="M40.8 65.3h41.7c1.8 0 3.3-1.5 3.3-3.3V20.4c0-1.8-1.5-3.3-3.3-3.3H40.8c-1.8 0-3.3 1.5-3.3 3.3V62c0 1.8 1.5 3.3 3.3 3.3z" fill="#8cc63f"/><path d="M81 66.4H42.3c-3.2 0-5.9-2.6-5.9-5.9V21.8c0-3.2 2.6-5.9 5.9-5.9H81c3.2 0 5.9 2.6 5.9 5.9v38.7c0 3.3-2.7 5.9-5.9 5.9zM42.3 18.1c-2 0-3.7 1.7-3.7 3.7v38.7c0 2 1.7 3.7 3.7 3.7H81c2 0 3.7-1.7 3.7-3.7V21.8c0-2-1.7-3.7-3.7-3.7H42.3z" fill="#333"/><circle cx="52.5" cy="35" r="9.2" fill="#e6e6e6"/><path d="M52.5 45.3c-5.7 0-10.2-4.6-10.2-10.2s4.6-10.2 10.2-10.2S62.7 29.4 62.7 35s-4.6 10.3-10.2 10.3zm0-18.3c-4.5 0-8.1 3.6-8.1 8.1s3.6 8.1 8.1 8.1 8.1-3.6 8.1-8.1-3.7-8.1-8.1-8.1zM54.7 51.9h-4.4c-.6 0-1.1-.5-1.1-1.1s.5-1.1 1.1-1.1h4.4c.6 0 1.1.5 1.1 1.1 0 .7-.5 1.1-1.1 1.1zM53.1 16.7c-.6 0-1.1-.5-1.1-1.1V4c0-.6.5-1.1 1.1-1.1s1.1.5 1.1 1.1v11.6c0 .6-.5 1.1-1.1 1.1z" fill="#333"/><path d="M51.6 39.9c-.3 0-.6-.1-.8-.3-.4-.4-.4-1.1 0-1.5l4.3-4.3c.4-.4 1.1-.4 1.5 0s.4 1.1 0 1.5l-4.3 4.3c-.1.1-.4.3-.7.3zM50.2 35.5c-.3 0-.6-.1-.8-.3-.4-.4-.4-1.1 0-1.5l1.4-1.4c.4-.4 1.1-.4 1.5 0 .4.4.4 1.1 0 1.5l-1.4 1.4c-.2.2-.4.3-.7.3z" fill="#fff"/><path d="M64.7 18.1c-.2 0-.4-.1-.6-.2l-11.6-7.2c-.5-.3-.7-1-.3-1.5.3-.5 1-.7 1.5-.3l11.6 7.2c.5.3.7 1 .3 1.5-.2.4-.6.5-.9.5z" fill="#333"/><path d="M129.8 129.7v-46l-11.3 2.2v43.7c0 .3.2.5.5.5h10.3c.3 0 .5-.2.5-.4z" fill="#4d4d4d"/><path d="M129.3 131.2H119c-.9 0-1.5-.7-1.5-1.5V85l13.4-2.7v47.3c0 .9-.7 1.6-1.6 1.6zm-9.7-2.2h9.1V85l-9.1 1.8V129z" fill="#333"/><path d="M129 79.4c-.8-1.5-2-2.5-3.5-2.8s-3 .2-4.3 1.3c-1.3 1.1-2.2 2.8-2.6 4.6-.4 1.9-.2 3.8.6 5.3s2 2.5 3.5 2.8 3-.2 4.3-1.3c1.3-1.1 2.2-2.8 2.6-4.7.4-1.8.2-3.7-.6-5.2" fill="#4d4d4d"/><path d="M123.6 91.9c-.3 0-.7 0-1-.1-1.8-.3-3.3-1.6-4.2-3.4-.9-1.7-1.1-3.9-.7-6s1.5-4 2.9-5.3c1.5-1.3 3.4-1.9 5.2-1.5 1.8.3 3.3 1.5 4.2 3.3.9 1.7 1.1 3.8.7 6-.4 2.1-1.5 4-2.9 5.3-1.3 1.1-2.7 1.7-4.2 1.7zm1.1-14.2c-.9 0-1.9.4-2.7 1.1-1.1 1-1.9 2.4-2.2 4-.3 1.7-.1 3.3.5 4.6.6 1.2 1.6 2 2.7 2.2s2.3-.2 3.3-1.1c1.1-1 1.9-2.4 2.2-4.1.3-1.6.1-3.3-.5-4.6-.6-1.2-1.6-2-2.7-2.2-.2.1-.4.1-.6.1z" fill="#333"/><path d="M127.9 80.2c-.6-1.2-1.6-2-2.7-2.2s-2.3.2-3.3 1.1-1.7 2.3-2 3.8-.1 3.1.5 4.3c.6 1.2 1.6 2 2.7 2.2s2.3-.2 3.3-1.2c1-.9 1.7-2.3 2-3.9.3-1.4.2-2.9-.5-4.1" fill="#b3b3b3"/><path d="M123.7 90.6c-.3 0-.5 0-.8-.1-1.5-.3-2.7-1.3-3.5-2.8-.7-1.4-.9-3.2-.6-5s1.1-3.3 2.3-4.4c1.2-1.2 2.8-1.7 4.2-1.4 1.5.3 2.7 1.2 3.5 2.8.7 1.4.9 3.2.6 4.9-.3 1.8-1.1 3.3-2.3 4.5-.9 1-2.1 1.5-3.4 1.5zm.9-11.6c-.7 0-1.4.3-2 .9-.8.8-1.4 1.9-1.6 3.2-.2 1.3-.1 2.6.4 3.6.5.9 1.1 1.5 1.9 1.6s1.6-.2 2.4-.9c.8-.8 1.4-1.9 1.7-3.3.2-1.3.1-2.6-.4-3.6-.5-.9-1.1-1.5-2-1.6-.1.1-.2.1-.4.1z" fill="#333"/><path d="M118.6 91.7c.5.1 1 .3 1.4.7.5.5.8 1.1.8 1.8s-.3 1.3-.8 1.8c-.4.3-.8.6-1.3.7" fill="gray"/><path d="M118.9 97.7l-.5-2.1c.3-.1.6-.2.8-.4.3-.3.4-.6.4-1s-.2-.7-.4-1c-.2-.2-.5-.3-.8-.4l.4-2.1c.7.1 1.4.5 1.9.9.7.7 1.1 1.6 1.1 2.6s-.4 1.9-1.1 2.6c-.5.4-1.1.7-1.8.9z" fill="#333"/><g><path d="M129.7 91.6c-.6.1-1.1.4-1.5.7-.6.5-.9 1.2-.9 2 0 .7.3 1.4.9 2 .4.4.9.6 1.4.7" fill="gray"/><path d="M129.4 98.1c-.7-.2-1.4-.5-1.9-1-.8-.7-1.2-1.7-1.2-2.8 0-1 .4-2 1.2-2.8.6-.5 1.3-.9 2-1l.4 2.1c-.4.1-.7.2-1 .5s-.5.7-.5 1.2c0 .4.2.9.5 1.2.2.2.6.4.9.5l-.4 2.1z" fill="#333"/></g><g><path d="M126.8 89.5c-.2 0-.4-.1-.5-.2-.3-.3-.3-.7 0-1 1-1 1.8-2.4 2-3.9.3-1.6.1-3.1-.5-4.3-.2-.4 0-.8.3-1 .4-.2.8 0 1 .3.8 1.5 1 3.4.7 5.2s-1.2 3.6-2.5 4.7c-.1.2-.3.2-.5.2z" fill="#8cc03f"/></g><g><path d="M120.5 89.3c-.2 0-.4-.1-.6-.3-.3-.3-.5-.7-.7-1.1-.8-1.5-1-3.4-.7-5.3.3-1.4.8-2.7 1.6-3.7.2-.3.7-.4 1-.1.3.2.4.7.1 1-.7.9-1.1 1.9-1.3 3.1-.3 1.6-.1 3.1.5 4.4.2.3.3.6.5.8.2.3.2.8-.1 1 0 .1-.2.2-.3.2z" fill="#8cc03f"/></g><g><path d="M48.2 144.9c-.3 0-.6-.1-.8-.3-.4-.4-.4-1.1 0-1.5l26.2-26.2c.4-.4 1.1-.4 1.5 0s.4 1.1 0 1.5l-26.2 26.2c-.2.2-.4.3-.7.3z" fill="#333"/></g><g><path d="M74.4 144.7c-.3 0-.6-.1-.8-.3l-26.2-26.2c-.4-.4-.4-1.1 0-1.5s1.1-.4 1.5 0l26.2 26.2c.4.4.4 1.1 0 1.5-.2.2-.5.3-.7.3z" fill="#333"/></g><g><path d="M81.7 145.9H40.3c-.1 0-.3-.1-.3-.3v-4.3c0-1.5 1.2-2.6 2.6-2.6h36.9c1.4 0 2.5 1.1 2.5 2.5v4.4c0 .2-.1.3-.3.3z" fill="#e6e6e6"/><path d="M81.5 147H40.4c-.8 0-1.5-.7-1.5-1.5v-3c0-2.7 2.2-4.9 4.9-4.9h34.6c2.6 0 4.7 2.1 4.7 4.7v3.1c0 .9-.7 1.6-1.6 1.6zm-40.4-2.2h39.8v-2.5c0-1.4-1.1-2.5-2.5-2.5H43.9c-1.5 0-2.7 1.2-2.7 2.7v2.3h-.1z" fill="#333"/></g></svg>