<svg xmlns="http://www.w3.org/2000/svg" viewBox="0 0 150 150"><path d="M35.7 91.3c-2-.1-3.9-.4-5.8-.9-.5-.1-.7-.6-.6-1 .1-.5.6-.7 1-.6 1.8.4 3.6.7 5.5.8.5 0 .8.4.8.9 0 .4-.4.8-.9.8zm5.7-.2c-.4 0-.8-.3-.8-.8-.1-.5.3-.9.7-.9 1.2-.1 2.4-.3 3.6-.6.6-.1 1.2-.3 1.9-.5.5-.1.9.1 1.1.6.1.5-.1.9-.6 1.1-.6.2-1.3.4-2 .5-1.3.2-2.5.5-3.9.6.1 0 0 0 0 0zm-16.7-2.6c-.1 0-.2 0-.3-.1-1.8-.8-3.5-1.8-5.1-2.9-.4-.3-.5-.8-.2-1.2.3-.4.8-.5 1.2-.2 1.5 1 3.1 2 4.8 2.7.4.2.6.7.4 1.1-.1.4-.4.6-.8.6zm27.6-.6c-.3 0-.6-.2-.8-.5-.2-.4 0-.9.4-1.1 1.6-.8 3.2-1.8 4.7-2.9.4-.3.9-.2 1.2.2.3.4.2.9-.2 1.2-1.5 1.2-3.2 2.2-4.9 3.1-.2-.1-.3 0-.4 0zm-36.9-5.8c-.2 0-.4-.1-.6-.2-1.4-1.4-2.7-2.9-3.8-4.4-.3-.4-.2-.9.2-1.2s.9-.2 1.2.2c1.1 1.5 2.3 2.9 3.6 4.2.3.3.3.9 0 1.2-.2.2-.4.2-.6.2zM61.3 81c-.2 0-.4-.1-.6-.2-.3-.3-.4-.9-.1-1.2 1.2-1.4 2.4-2.8 3.4-4.4.3-.4.8-.5 1.2-.3.4.3.5.8.3 1.2-1 1.6-2.2 3.2-3.5 4.6-.3.2-.5.3-.7.3zM8.9 72.9c-.3 0-.6-.2-.8-.5-.8-1.8-1.5-3.6-2-5.5-.1-.5.2-.9.6-1 .5-.1.9.2 1 .6.5 1.8 1.1 3.5 1.9 5.2.2.4 0 .9-.4 1.1-.1.1-.2.1-.3.1zm58.4-1.5c-.1 0-.2 0-.3-.1-.4-.2-.6-.7-.5-1.1.7-1.7 1.2-3.5 1.6-5.3.1-.5.6-.8 1-.7.5.1.8.5.7 1-.4 1.9-1 3.8-1.7 5.6-.1.4-.4.6-.8.6zm2.4-11s-.1 0 0 0c-.5 0-.9-.4-.9-.9v-.9c0-1.6-.1-3.1-.4-4.7-.1-.5.2-.9.7-1s.9.3 1 .7c.2 1.6.4 3.3.4 4.9v.9c0 .6-.4 1-.8 1zM68 49.2c-.4 0-.7-.2-.8-.6-.6-1.7-1.3-3.5-2.2-5.1-.2-.4-.1-.9.3-1.2.4-.2.9-.1 1.2.3.9 1.7 1.7 3.5 2.4 5.3.2.4-.1.9-.5 1.1-.3.1-.3.2-.4.2zM9.7 44.4c-.1 0-.3 0-.4-.1-.4-.2-.6-.7-.3-1.2.9-1.7 2-3.4 3.2-4.9.3-.4.8-.4 1.2-.1.4.3.4.8.1 1.2-1.1 1.4-2.2 3-3 4.6-.2.3-.5.5-.8.5zm52.8-5.1c-.2 0-.5-.1-.7-.3-1.2-1.4-2.5-2.8-3.9-3.9-.4-.3-.4-.8-.1-1.2.3-.4.8-.4 1.2-.1 1.5 1.3 2.9 2.7 4.1 4.2.3.4.2.9-.1 1.2-.1 0-.3.1-.5.1zm-45.8-3.8c-.2 0-.5-.1-.6-.3-.3-.4-.3-.9.1-1.2 1.5-1.3 3-2.4 4.7-3.4.4-.2.9-.1 1.2.3.2.4.1.9-.3 1.2-1.6 1-3.1 2.1-4.5 3.3-.2 0-.4.1-.6.1zm37.2-3.6c-.1 0-.3 0-.4-.1-1.6-.9-3.3-1.7-5-2.4-.4-.2-.7-.7-.5-1.1s.7-.7 1.1-.5c1.8.7 3.6 1.5 5.3 2.5.4.2.5.8.3 1.2-.3.3-.5.4-.8.4zm-27.5-2.2c-.3 0-.7-.2-.8-.6-.2-.4.1-.9.5-1.1 1.4-.5 2.8-.9 4.2-1.3.5-.1 1-.2 1.4-.3.5-.1.9.2 1 .7s-.2.9-.7 1-.9.2-1.4.3c-1.3.3-2.7.7-4 1.2 0 0-.1.1-.2.1zM43.2 28c-1.8-.3-3.6-.5-5.4-.5h-.3c-.5 0-.9-.4-.9-.8 0-.5.4-.9.8-.9h.3c1.9 0 3.7.2 5.6.5.5.1.8.5.7 1 0 .4-.4.7-.8.7z" fill="#333"/><path d="M38.6 31.7c-.3 0-.6-.2-.8-.4-.2-.4-.1-.9.3-1.2l4.9-2.7-2.7-4.9c-.2-.4-.1-.9.3-1.2.4-.2.9-.1 1.2.3l3.1 5.7c.2.4.1.9-.3 1.2L39 31.6c-.1.1-.2.1-.4.1z" fill="#333"/><path d="M5.8 60.5s0 .1 0 0c1.7-2.7 3.4-5.4 5.1-8.2-1.1 0-2.1-.1-3.2-.1.1-1.7.1-3.3.2-5-1.7 2.7-3.3 5.4-5 8.2 1.1 0 2.1.1 3.1.1-.1 1.7-.1 3.4-.2 5z" fill="#e6e6e6"/><path d="M5.9 61.4c-.1 0-.2 0-.3-.1-.3-.1-.6-.5-.6-.8v-1.7c0-.8.1-1.6.1-2.4l-2.3-.1c-.3 0-.6-.2-.7-.5s-.1-.6 0-.8l4.2-6.9.8-1.3c.2-.3.6-.5 1-.4 0 0 .1 0 .1.1.3.1.5.5.5.8l-.2 4.1 2.3.1c.3 0 .6.2.7.5.1.3.1.6 0 .8l-5 8.2c-.1.3-.4.4-.6.4zm-1.6-6.8l1.7.1c.5 0 .8.4.8.9 0 .6 0 1.2-.1 1.8l2.6-4.3-1.7-.1c-.5 0-.8-.4-.8-.9l.1-1.8c-.8 1.5-1.7 2.9-2.6 4.3zM113.9 126.6h-1.5c-.5 0-.8-.4-.8-.9s.5-.9.9-.8c1.8.1 3.7 0 5.5-.2.5-.1.9.3 1 .7.1.5-.3.9-.7 1-1.4.1-2.9.2-4.4.2zm-7-.8h-.2c-1.9-.4-3.8-1-5.6-1.8-.4-.2-.6-.7-.5-1.1.2-.4.7-.6 1.1-.5 1.7.7 3.5 1.3 5.3 1.7.5.1.7.6.6 1 0 .4-.3.7-.7.7zm16.8-.8c-.4 0-.7-.2-.8-.6-.1-.4.1-.9.6-1.1 1.8-.6 3.5-1.3 5.1-2.2.4-.2.9-.1 1.2.3.2.4.1.9-.3 1.2-1.7.9-3.5 1.7-5.4 2.3-.2.1-.3.1-.4.1zm-27.3-3.6c-.2 0-.3 0-.5-.1-1.6-1.1-3.2-2.3-4.6-3.6-.3-.3-.4-.9 0-1.2.3-.3.9-.4 1.2 0 1.3 1.3 2.8 2.4 4.3 3.4.4.3.5.8.2 1.2 0 .1-.3.3-.6.3zm37.3-1.7c-.3 0-.5-.1-.7-.3-.3-.4-.2-.9.1-1.2 1.4-1.1 2.8-2.4 4-3.8.3-.4.9-.4 1.2-.1.4.3.4.9.1 1.2-1.3 1.5-2.7 2.8-4.2 4-.1.1-.3.2-.5.2zm-45.5-6.1c-.3 0-.5-.1-.7-.3-1.2-1.6-2.2-3.2-3-5-.2-.4 0-.9.4-1.1s.9 0 1.1.4c.8 1.7 1.8 3.2 2.9 4.7.3.4.2.9-.2 1.2-.1 0-.3.1-.5.1zm-4.9-10.2c-.4 0-.7-.2-.8-.6-.5-1.9-.9-3.8-1.1-5.7 0-.5.3-.9.8-.9.5-.1.9.3.9.8.2 1.8.5 3.7 1 5.4.1.5-.1.9-.6 1.1-.1-.1-.2-.1-.2-.1zm62.5-9.5c-.5 0-.8-.4-.9-.8 0-1.9-.3-3.7-.6-5.5-.1-.5.2-.9.7-1s.9.2 1 .7c.4 1.9.6 3.8.7 5.8 0 .4-.4.7-.9.8zm-63.6-1.8c-.1 0-.1 0 0 0-.5 0-.9-.5-.9-.9.2-1.9.5-3.9 1-5.8.1-.5.6-.7 1-.6.5.1.7.6.6 1-.5 1.8-.8 3.6-.9 5.5 0 .5-.4.8-.8.8zm61.3-9.3c-.3 0-.7-.2-.8-.5-.7-1.7-1.5-3.4-2.5-4.9-.3-.4-.1-.9.3-1.2.4-.3.9-.1 1.2.3 1 1.6 1.9 3.4 2.7 5.2.2.4 0 .9-.5 1.1h-.4zm-58.4-1.6c-.1 0-.2 0-.4-.1-.4-.2-.6-.7-.4-1.1.8-1.8 1.8-3.5 2.9-5 .3-.4.8-.5 1.2-.2.4.3.5.8.2 1.2-1.1 1.5-2 3.1-2.8 4.8-.1.2-.4.4-.7.4zm52.4-8c-.2 0-.5-.1-.6-.3-1.2-1.4-2.6-2.6-4.1-3.7-.4-.3-.4-.8-.2-1.2.3-.4.8-.4 1.2-.2 1.5 1.2 3 2.5 4.3 3.9.3.3.3.9-.1 1.2-.1.2-.3.3-.5.3zm-45.9-1.3c-.2 0-.4-.1-.6-.3-.3-.3-.3-.9 0-1.2 1.4-1.4 2.9-2.6 4.5-3.7.4-.3.9-.2 1.2.2.3.4.2.9-.2 1.2-1.5 1-3 2.2-4.3 3.5-.2.3-.4.3-.6.3zm36.9-5.6c-.1 0-.3 0-.4-.1-1.6-.8-3.4-1.5-5.1-2.1-.5-.1-.7-.6-.6-1.1s.6-.7 1.1-.6c1.9.6 3.7 1.3 5.4 2.2.4.2.6.7.4 1.1-.2.5-.5.6-.8.6zm-27.5-.7c-.3 0-.6-.2-.8-.5-.2-.4 0-.9.4-1.1 1.8-.8 3.6-1.4 5.5-1.9.5-.1.9.2 1 .6.1.5-.2.9-.6 1-1.8.4-3.5 1-5.2 1.8-.1 0-.2.1-.3.1zm16.6-2.6c-1.9-.2-3.8-.3-5.6-.2-.5 0-.9-.3-.9-.8s.3-.9.8-.9c1.9-.1 3.9-.1 5.8.2.5.1.8.5.8.9-.1.5-.4.8-.9.8z" fill="#333"/><path d="M133.5 93.8H43.2c-2.4 0-4.4-2-4.4-4.4V47c0-2.4 2-4.4 4.4-4.4h90.3c2.4 0 4.4 2 4.4 4.4v42.5c-.1 2.4-2 4.3-4.4 4.3z" fill="#e6e6e6"/><path d="M132.9 94.7H43.8c-3.2 0-5.8-2.6-5.8-5.8V47.6c0-3.2 2.6-5.8 5.8-5.8h89.1c3.2 0 5.8 2.6 5.8 5.8v41.3c0 3.2-2.6 5.8-5.8 5.8zM43.8 43.5c-2.3 0-4.1 1.8-4.1 4.1v41.3c0 2.3 1.8 4.1 4.1 4.1h89.1c2.3 0 4.1-1.8 4.1-4.1V47.6c0-2.3-1.8-4.1-4.1-4.1H43.8z" fill="#333"/><path d="M131.6 90.4H45c-1.5 0-2.8-1.3-2.8-2.8V49.1c0-1.5 1.3-2.8 2.8-2.8h86.6c1.5 0 2.8 1.3 2.8 2.8v38.6c0 1.5-1.2 2.7-2.8 2.7z" fill="#8fc043"/><path d="M131.3 91.3H45.4c-2.2 0-4-1.8-4-4V49.4c0-2.2 1.8-4 4-4h85.9c2.2 0 4 1.8 4 4v37.8c0 2.3-1.8 4.1-4 4.1zM45.4 47.1c-1.3 0-2.3 1-2.3 2.3v37.8c0 1.3 1 2.3 2.3 2.3h85.9c1.3 0 2.3-1 2.3-2.3V49.4c0-1.3-1-2.3-2.3-2.3H45.4z" fill="#333"/><circle cx="87.7" cy="68.8" r="14.8" fill="#f2f2f2"/><path d="M87.7 84.5c-8.6 0-15.7-7-15.7-15.7s7-15.7 15.7-15.7 15.7 7 15.7 15.7-7 15.7-15.7 15.7zm0-29.6c-7.7 0-13.9 6.3-13.9 13.9s6.3 13.9 13.9 13.9 13.9-6.3 13.9-13.9-6.2-13.9-13.9-13.9z" fill="#333"/><path d="M89.9 76.5h-6c-.5 0-.8-.4-.8-.9 0-.4.2-.7.5-.8v-.3c.2-1.6.3-3.4.3-5.1 0-.9-.1-1.7-.1-2.6 0-.2 0-.4-.1-.7-.1-.6-.1-1.2-.1-1.8 0-.8.3-1.5.6-2.1.6-.9 1.5-1.5 2.7-1.7 1.8-.3 3.4.3 4.4 1.8.3.4.1.9-.2 1.2-.4.3-.9.1-1.2-.2-.6-.9-1.6-1.3-2.7-1.1-.7.1-1.2.4-1.6 1-.2.3-.3.7-.4 1.3 0 .5 0 1 .1 1.5 0 .2 0 .5.1.7.1.9.1 1.8.1 2.7 0 1.9-.1 3.7-.3 5.4h5.9c.6 0 .9-.2 1-1.1.1-.5.5-.8 1-.7.5.1.8.5.7 1-.3 2.1-1.6 2.5-2.6 2.6-.3-.1-.8-.1-1.3-.1z" fill="#333"/><path fill="none" d="M82.1 68.1h6.7"/><path d="M88.8 69h-6.7c-.5 0-.9-.4-.9-.9s.4-.9.9-.9h6.7c.5 0 .9.4.9.9s-.4.9-.9.9z" fill="#333"/><path d="M113 103H22.7c-2.4 0-4.4-2-4.4-4.4V56.1c0-2.4 2-4.4 4.4-4.4H113c2.4 0 4.4 2 4.4 4.4v42.5c-.1 2.4-2 4.4-4.4 4.4z" fill="#e6e6e6"/><path d="M112.4 103.8H23.3c-3.2 0-5.8-2.6-5.8-5.8V56.7c0-3.2 2.6-5.8 5.8-5.8h89.1c3.2 0 5.8 2.6 5.8 5.8V98c0 3.2-2.6 5.8-5.8 5.8zM23.3 52.6c-2.3 0-4.1 1.8-4.1 4.1V98c0 2.3 1.8 4.1 4.1 4.1h89.1c2.3 0 4.1-1.8 4.1-4.1V56.7c0-2.3-1.8-4.1-4.1-4.1H23.3z" fill="#333"/><g><path d="M111.1 99.5H24.5c-1.5 0-2.8-1.3-2.8-2.8V58.2c0-1.5 1.3-2.8 2.8-2.8h86.6c1.5 0 2.8 1.3 2.8 2.8v38.6c0 1.5-1.2 2.7-2.8 2.7z" fill="#8fc043"/><path d="M110.8 100.4H24.9c-2.2 0-4-1.8-4-4V58.5c0-2.2 1.8-4 4-4h85.9c2.2 0 4 1.8 4 4v37.8c0 2.3-1.8 4.1-4 4.1zM24.9 56.2c-1.3 0-2.3 1-2.3 2.3v37.8c0 1.3 1 2.3 2.3 2.3h85.9c1.3 0 2.3-1 2.3-2.3V58.5c0-1.3-1-2.3-2.3-2.3H24.9z" fill="#333"/></g><g><circle cx="67.3" cy="77.9" r="14.8" fill="#e6e6e6"/><path d="M67.3 93.6c-8.6 0-15.7-7-15.7-15.7s7-15.7 15.7-15.7c8.6 0 15.7 7 15.7 15.7s-7.1 15.7-15.7 15.7zm0-29.6c-7.7 0-13.9 6.3-13.9 13.9s6.3 13.9 13.9 13.9 13.9-6.3 13.9-13.9S74.9 64 67.3 64z" fill="#333"/></g><g><path d="M69.4 85.6h-6c-.5 0-.8-.4-.8-.9 0-.4.2-.7.5-.8v-.3c.2-1.6.3-3.4.3-5.1 0-.9-.1-1.7-.1-2.6 0-.2 0-.4-.1-.7-.1-.6-.1-1.2-.1-1.8 0-.8.3-1.5.6-2.1.6-.9 1.5-1.5 2.7-1.7 1.8-.3 3.4.3 4.4 1.8.3.4.1.9-.2 1.2-.4.3-.9.1-1.2-.2-.6-.9-1.6-1.3-2.7-1.1-.7.1-1.2.4-1.6 1-.2.3-.3.7-.4 1.3 0 .5 0 1 .1 1.5 0 .2 0 .5.1.7.1.9.1 1.8.1 2.7 0 1.9-.1 3.7-.3 5.4h5.9c.6 0 .9-.2 1-1.1.1-.5.5-.8 1-.7.5.1.8.5.7 1-.3 2.1-1.6 2.5-2.6 2.6-.3-.1-.8-.1-1.3-.1z" fill="#333"/><path fill="none" d="M61.6 77.2h6.8"/><path d="M68.4 78.1h-6.7c-.5 0-.9-.4-.9-.9s.4-.9.9-.9h6.7c.5 0 .9.4.9.9-.1.5-.5.9-.9.9z" fill="#333"/></g><g><path d="M102.3 129.4c-.4 0-.7-.3-.8-.6l-1.7-6.2c-.1-.5.1-.9.6-1l6.2-1.7c.5-.1.9.1 1 .6s-.1.9-.6 1l-5.4 1.5 1.5 5.4c.1.5-.1.9-.6 1h-.2z" fill="#333"/></g><g><path d="M96.9 86.7c-.5 0-.9-.4-.9-.9V69.9c0-.5.4-.9.9-.9s.9.4.9.9v15.9c-.1.5-.5.9-.9.9z" fill="#333"/></g><g><path d="M37.7 86.7c-.5 0-.9-.4-.9-.9V69.9c0-.5.4-.9.9-.9s.9.4.9.9v15.9c-.1.5-.5.9-.9.9z" fill="#333"/></g><g><path d="M144.9 99c-2.1 2.4-4.1 4.9-6.2 7.4 1.1.2 2.1.4 3.1.6-.3 1.6-.6 3.3-.9 4.9 2-2.5 4.1-4.9 6.1-7.4-1-.2-2.1-.4-3.1-.6.4-1.6.7-3.2 1-4.9z" fill="#e6e6e6"/><path d="M141 112.8c-.1 0-.3 0-.4-.1l-.1-.1c-.3-.2-.4-.5-.3-.8l.7-4.1-2.3-.4c-.3-.1-.5-.3-.6-.5-.1-.3-.1-.6.1-.8l6.1-7.4c.3-.3.7-.4 1.1-.2.3.2.5.5.4.9l-.3 1.5c-.2.8-.3 1.7-.5 2.6l2.3.4c.3.1.5.3.6.5.1.3.1.6-.1.8-1.9 2.3-3.7 4.5-5.6 6.8l-.5.6c-.1.2-.3.3-.6.3zm-.6-6.9l1.7.3c.5.1.8.5.7 1l-.3 1.8c1.1-1.3 2.1-2.6 3.2-3.8l-1.7-.3c-.5-.1-.8-.5-.7-1l.3-1.8-3.2 3.8zm4.5-6.9z" fill="#333"/></g></svg>