<svg xmlns="http://www.w3.org/2000/svg" viewBox="0 0 150 150"><path fill="#e6e6e6" d="M90.9 39.9l15.7 54.9H43.4L59 39.9"/><path d="M106.6 96H43.4c-.4 0-.7-.2-.9-.5s-.3-.7-.2-1l15.6-55c.2-.6.8-1 1.4-.8.6.2 1 .8.8 1.4L44.9 93.7H105L89.8 40.2c-.2-.6.2-1.2.8-1.4.6-.2 1.2.2 1.4.8l15.6 55c.1.3 0 .7-.2 1-.2.2-.5.4-.8.4z" fill="#333"/><path d="M98.4 89.3c-.5 0-.9-.3-1.1-.8L86.9 55.1c-.2-.6.1-1.2.8-1.4.6-.2 1.2.2 1.4.8l10.4 33.4c.2.6-.1 1.2-.8 1.4h-.3zM51.6 89.3h-.3c-.6-.2-1-.8-.8-1.4l9.7-33.4c.2-.6.8-1 1.4-.8.6.2 1 .8.8 1.4l-9.7 33.4c-.2.5-.6.8-1.1.8z" fill="#333"/><circle cx="75.3" cy="14.8" r="10.7" fill="#e6e6e6"/><path d="M75.3 26.7c-6.5 0-11.8-5.3-11.8-11.8C63.5 8.3 68.8 3 75.3 3s11.8 5.3 11.8 11.8c.1 6.6-5.3 11.9-11.8 11.9zm0-21.4c-5.3 0-9.6 4.3-9.6 9.6s4.3 9.6 9.6 9.6 9.6-4.3 9.6-9.6-4.3-9.6-9.6-9.6z" fill="#333"/><path d="M31.3 39.8h-6.7c-2.7 0-5-2.2-5-5 0-2.7 2.2-5 5-5h6.6" fill="#e6e6e6"/><path d="M31.3 41h-6.7c-3.4 0-6.1-2.8-6.1-6.1s2.8-6.1 6.1-6.1h6.6c.6 0 1.1.5 1.1 1.1s-.5 1.1-1.1 1.1h-6.6c-2.1 0-3.9 1.7-3.9 3.9s1.7 3.9 3.9 3.9h6.7c.6 0 1.1.5 1.1 1.1.1.5-.4 1.1-1.1 1.1z" fill="#333"/><path d="M118 39.8h7.9c2.7 0 5-2.2 5-5 0-2.7-2.2-5-5-5H118" fill="#e6e6e6"/><path d="M125.9 41H118c-.6 0-1.1-.5-1.1-1.1s.5-1.1 1.1-1.1h7.9c2.1 0 3.9-1.7 3.9-3.9s-1.7-3.9-3.9-3.9H118c-.6 0-1.1-.5-1.1-1.1s.5-1.1 1.1-1.1h7.9c3.4 0 6.1 2.8 6.1 6.1s-2.7 6.1-6.1 6.1z" fill="#333"/><path d="M79.2 111.6v11.3c0 3.2 2.6 5.9 5.9 5.9 3.2 0 5.9-2.6 5.9-5.9V111" fill="#e6e6e6"/><path d="M85.1 130c-3.9 0-7-3.1-7-7v-11.3c0-.6.5-1.2 1.1-1.1.6 0 1.1.5 1.1 1.1V123c0 2.6 2.1 4.7 4.7 4.7s4.7-2.1 4.7-4.7v-11.9c0-.6.5-1.1 1.1-1.1s1.1.5 1.1 1.1V123c.2 3.8-2.9 7-6.8 7z" fill="#333"/><path d="M58.9 111.8v11.4c0 3.2 2.6 5.9 5.9 5.9 3.2 0 5.9-2.6 5.9-5.9v-11.5" fill="#e6e6e6"/><path d="M64.7 130.2c-3.9 0-7-3.1-7-7v-11.4c0-.6.5-1.1 1.1-1.1s1.1.5 1.1 1.1v11.4c0 2.6 2.1 4.7 4.7 4.7s4.7-2.1 4.7-4.7v-11.5c0-.6.5-1.1 1.1-1.1.6 0 1.1.5 1.1 1.1v11.5c.3 3.8-2.9 7-6.8 7zM85.3 148c-.6 0-1.1-.5-1.1-1.1v-11.4c0-.6.5-1.1 1.1-1.1s1.1.5 1.1 1.1v11.4c0 .6-.5 1.1-1.1 1.1z" fill="#333"/><g><path d="M63.9 148c-.6 0-1.1-.5-1.1-1.1v-11.4c0-.6.5-1.1 1.1-1.1s1.1.5 1.1 1.1v11.4c0 .6-.5 1.1-1.1 1.1z" fill="#333"/></g><g><path d="M91 111.1V39.8h27v-10H31.2l.1 10h27.6l-.1 28.5v43.4l11.8-.1.1-36.6c0-2.3 1.9-4.2 4.2-4.2 2.3 0 4.2 1.9 4.2 4.2l.1 36.5h11.7l.1-.4z" fill="#8fc043"/><path d="M58.9 112.9c-.3 0-.6-.1-.8-.3-.2-.2-.3-.5-.3-.8V41H31.3c-.6 0-1.1-.5-1.1-1.1l-.1-10c0-.3.1-.6.3-.8.2-.2.5-.3.8-.3H118c.6 0 1.1.5 1.1 1.1v10c0 .3-.1.6-.3.8-.2.2-.5.3-.8.3H92.1V111.8c0 .6-.5 1.1-1.1 1.1H79.2c-.6 0-1.1-.5-1.1-1.1L78 75.1c0-1.7-1.4-3.1-3.1-3.1s-3.1 1.4-3.1 3.1l-.1 36.6c0 .6-.5 1.1-1.1 1.1l-11.7.1zm32.1-1.8zM32.5 38.7H59c.3 0 .6.1.8.3s.3.5.3.8L60 68.4v42.2h9.5l.1-35.5c0-2.9 2.4-5.3 5.3-5.3s5.3 2.4 5.3 5.3l.1 35.4h9.5V39.8c0-.6.5-1.1 1.1-1.1h25.9V31H32.4l.1 7.7z" fill="#333"/></g><g><path d="M83.8 29.8c0 2.4-3.8 4.3-8.6 4.3s-8.6-1.9-8.6-4.3" fill="#e6e6e6"/><path d="M75.3 35.2c-5.5 0-9.7-2.3-9.7-5.4 0-.6.5-1.1 1.1-1.1s1.1.5 1.1 1.1c0 1.5 3.2 3.1 7.4 3.1s7.4-1.7 7.4-3.1c0-.6.5-1.1 1.1-1.1s1.1.5 1.1 1.1c.2 3.1-4 5.4-9.5 5.4z" fill="#333"/></g><g><path d="M77.3 40.4c-.1 0-.1-.1 0 0-3.1 4.8-6.2 9.5-9.3 14.4 2 .1 3.9.1 5.9.2-.1 2.9-.2 5.8-.2 8.7h.1c3-4.8 6.1-9.6 9.1-14.4-2-.1-3.9-.1-5.9-.2l.3-8.7z" fill="#e6e6e6"/><path d="M73.8 64.8c-.1 0-.2 0-.3-.1-.1 0-.2-.1-.2-.1-.5-.2-.7-.6-.7-1.1l.2-7.5c-1.6 0-3.1-.1-4.8-.1-.4 0-.8-.2-1-.6-.2-.4-.2-.8 0-1.2l9.2-14.4c.3-.5.9-.7 1.4-.5.5.1.8.6.8 1.1l-.1 2.7c0 1.6-.1 3.2-.1 4.9l4.7.1c.4 0 .8.2 1 .6.2.4.2.8 0 1.1-2.4 3.8-4.8 7.6-7.3 11.4l-1.9 3c-.2.5-.5.7-.9.7zM70 53.7c1.3 0 2.6.1 3.9.1.6 0 1.1.5 1.1 1.2l-.1 4.7c2-3.1 4-6.2 5.9-9.3l-3.8-.2c-.6 0-1.1-.5-1.1-1.2 0-1.6.1-3.2.1-4.8l-6 9.5zm7.2-13.4z" fill="#333"/></g><g><path fill="none" d="M63 29.8h24.2"/><path d="M87.2 31H63c-.6 0-1.1-.5-1.1-1.1s.5-1.1 1.1-1.1h24.2c.6 0 1.1.5 1.1 1.1s-.4 1.1-1.1 1.1z" fill="#333"/></g><g><path d="M58.9 69.4H91v7.2l-3.7.2c-2.4.1-4.8 1-6.7 2.5l-.3.2c-.7.6-1.5.9-2.4 1.2l-1.2.3c-1.4.3-2.8.3-4.1-.1l-.6-.2c-.8-.2-1.6-.6-2.2-1.1l-.1-.1c-2-1.6-4.6-2.5-7.1-2.6l-3.6-.1v-7.4h-.1z" fill="#e6e6e6"/><path d="M74.8 82.3c-.9 0-1.7-.1-2.5-.4l-.6-.2c-1-.3-1.8-.7-2.6-1.3l-.1-.1c-1.9-1.5-4.1-2.3-6.5-2.3l-3.6-.1c-.6 0-1.1-.5-1.1-1.1v-7.4c0-.6.5-1.1 1.1-1.1H91c.6 0 1.1.5 1.1 1.1v7.2c0 .6-.5 1.1-1.1 1.1l-3.7.2c-2.2.1-4.3.9-6.1 2.3l-.2.2c-.8.7-1.8 1.1-2.8 1.4l-1.2.3c-.8.2-1.5.2-2.2.2zM60 75.7l2.5.1c2.9.1 5.6 1.1 7.8 2.8l.1.1c.5.4 1.2.7 1.8.9l.6.2c1.2.3 2.4.4 3.5.1l1.2-.3c.7-.2 1.4-.5 2-.9l.3-.2c2.1-1.6 4.7-2.6 7.3-2.7l2.6-.1v-5H60v5z" fill="#333"/></g></svg>