<svg id="Layer_1" data-name="Layer 1" xmlns="http://www.w3.org/2000/svg" viewBox="0 0 128 120"><defs><style>.cls-1{fill:#8cc63f;}.cls-1,.cls-10,.cls-2,.cls-3,.cls-4,.cls-5,.cls-6,.cls-7,.cls-8,.cls-9{stroke:#333;}.cls-1,.cls-10,.cls-11,.cls-2,.cls-6,.cls-7,.cls-8,.cls-9{stroke-miterlimit:10;}.cls-1,.cls-10,.cls-11,.cls-2,.cls-3,.cls-4,.cls-5,.cls-6,.cls-7,.cls-8,.cls-9{stroke-width:1.5px;}.cls-2{fill:#ececec;}.cls-3,.cls-7{fill:#e6e6e6;}.cls-10,.cls-11,.cls-3{stroke-linecap:round;}.cls-3{stroke-linejoin:round;}.cls-11,.cls-4{fill:none;}.cls-5{fill:#fff;}.cls-6{fill:#6f6f6e;}.cls-10,.cls-8{fill:#ccc;}.cls-9{fill:#b3b3b3;}.cls-11{stroke:#fff;}</style></defs><title>Home icon</title><polyline class="cls-1" points="95.89 104.93 95.89 43.19 24.66 43.08 24.66 43.69 24.66 105"/><path class="cls-2" d="M77.1,24V18.29c0-1.44,1.57-1.87,3.33-1.87h5.45c1.76,0,3.18.79,3.19,2.24L89,34"/><path class="cls-2" d="M52.78,105V81.87c0-4.22,3.7-7.26,7.92-7.26h.07a7.27,7.27,0,0,1,7.57,7.26V105"/><path class="cls-3" d="M86.84,65.21V50.28a.33.33,0,0,0-.33-.33c-2.38,0-16.65,0-18.8,0a.26.26,0,0,0-.26.26v15"/><path class="cls-3" d="M53.51,65.21V50.11a.22.22,0,0,0-.23-.22c-2.11.11-17.42.1-19.23,0a.16.16,0,0,0-.17.17V65.21"/><path class="cls-4" d="M54.91,92.11a.66.66,0,1,0,.66-.66.66.66,0,0,0-.66.66"/><rect class="cls-5" x="54.93" y="81.1" width="11.25" height="8.38" rx="1.08" ry="1.08"/><line class="cls-4" x1="87.32" y1="57.8" x2="67.68" y2="57.8"/><line class="cls-4" x1="53.75" y1="57.33" x2="34.36" y2="57.33"/><line class="cls-4" x1="77.5" y1="49.41" x2="77.5" y2="65.75"/><line class="cls-4" x1="43.69" y1="49.4" x2="43.69" y2="65.75"/><path class="cls-6" d="M87.56,65.64a1.05,1.05,0,0,0-1-1.12H67.46a1.05,1.05,0,0,0-1,1.12v.24a1.05,1.05,0,0,0,1,1.12H86.58a1.05,1.05,0,0,0,1-1.12Z"/><path class="cls-6" d="M54,65.64a1.05,1.05,0,0,0-1-1.12H33.89a1.05,1.05,0,0,0-1,1.12v.24a1.05,1.05,0,0,0,1,1.12H53a1.05,1.05,0,0,0,1-1.12Z"/><path class="cls-7" d="M43.46,94.25V78.9c0-.62-.2-.43-.5-.43H34.44c-.29,0-.57-.19-.57.43V94.25"/><line class="cls-4" x1="43.46" y1="86.37" x2="34.36" y2="86.37"/><rect class="cls-6" x="32.6" y="94.4" width="11.85" height="2.6" rx="0.86" ry="0.86"/><rect class="cls-8" x="75.55" y="12.01" width="15.11" height="6.88" rx="1.36" ry="1.36"/><rect class="cls-9" x="79.43" y="8" width="7.32" height="3.94" rx="1.04" ry="1.04"/><path class="cls-2" d="M96.37,44.2h1.68a1.17,1.17,0,0,0,.68-2L61.07,10.73a1.06,1.06,0,0,0-1.35,0L22,42.05a1.05,1.05,0,0,0,.67,1.86l2,.17Z"/><line class="cls-10" x1="20" y1="105" x2="101" y2="105"/><path class="cls-7" d="M86.46,93.25V77.9c0-.62-.2-.43-.5-.43H77.44c-.29,0-.57-.19-.57.43V93.25"/><line class="cls-4" x1="86.46" y1="85.37" x2="77.36" y2="85.37"/><rect class="cls-6" x="75.6" y="93.19" width="11.85" height="2.6" rx="0.86" ry="0.86"/><line class="cls-11" x1="41" y1="60" x2="37" y2="62"/><line class="cls-11" x1="84" y1="81" x2="80" y2="83"/><line class="cls-11" x1="84" y1="53" x2="80" y2="55"/><line class="cls-11" x1="41" y1="89" x2="37" y2="91"/></svg>