<?xml version="1.0" encoding="utf-8"?>
<!-- Generator: Adobe Illustrator 21.0.2, SVG Export Plug-In . SVG Version: 6.00 Build 0)  -->
<svg version="1.1" id="Layer_1" xmlns="http://www.w3.org/2000/svg" xmlns:xlink="http://www.w3.org/1999/xlink" x="0px" y="0px"
	 viewBox="0 0 218 219" style="enable-background:new 0 0 218 219;" xml:space="preserve">
<style type="text/css">
	.st0{fill:none;stroke:#FFFFFF;stroke-width:2;stroke-linecap:round;stroke-miterlimit:10;}
	.st1{fill:#F2F2F2;}
	.st2{clip-path:url(#SVGID_2_);fill:#8CC63F;stroke:#333333;stroke-width:3;stroke-miterlimit:10;}
	.st3{clip-path:url(#SVGID_2_);}
	.st4{fill:none;stroke:#89BD49;stroke-width:3;stroke-linecap:round;stroke-miterlimit:10;}
	.st5{clip-path:url(#SVGID_2_);fill:none;stroke:#4D4D4D;stroke-width:3;stroke-linecap:round;stroke-miterlimit:10;}
	.st6{fill:#CCCCCC;stroke:#333333;stroke-width:3;stroke-miterlimit:10;}
	.st7{fill:none;stroke:#999999;stroke-width:3;stroke-linecap:round;stroke-miterlimit:10;}
	.st8{fill:#333333;}
	.st9{fill:#4D4D4D;}
	.st10{fill:#8CC03F;}
	.st11{clip-path:url(#SVGID_2_);fill:none;stroke:#333333;stroke-width:3;stroke-miterlimit:10;}
	
		.st12{clip-path:url(#SVGID_2_);fill:none;stroke:#333333;stroke-width:3;stroke-linecap:round;stroke-linejoin:round;stroke-miterlimit:10;}
	.st13{opacity:0.43;clip-path:url(#SVGID_2_);fill:#B1B1B1;stroke:#333333;stroke-width:3;stroke-linecap:round;}
	.st14{clip-path:url(#SVGID_2_);fill:#8CBF47;stroke:#333333;stroke-width:3;stroke-miterlimit:10;}
	.st15{clip-path:url(#SVGID_2_);fill:#FFFFFF;stroke:#333333;stroke-width:3;stroke-miterlimit:10;}
	.st16{clip-path:url(#SVGID_2_);fill:none;stroke:#333333;stroke-width:3;}
	.st17{fill:none;stroke:#333333;stroke-width:3;stroke-linecap:round;stroke-linejoin:round;}
	.st18{clip-path:url(#SVGID_2_);fill-rule:evenodd;clip-rule:evenodd;fill:#262529;stroke:#333333;stroke-width:3;}
	
		.st19{clip-path:url(#SVGID_2_);fill-rule:evenodd;clip-rule:evenodd;fill:#E6E6E6;stroke:#333333;stroke-width:3;stroke-linecap:round;stroke-linejoin:round;}
	
		.st20{clip-path:url(#SVGID_2_);fill-rule:evenodd;clip-rule:evenodd;fill:#8CC63F;stroke:#333333;stroke-width:3;stroke-linecap:round;stroke-linejoin:round;}
	
		.st21{clip-path:url(#SVGID_2_);fill-rule:evenodd;clip-rule:evenodd;fill:none;stroke:#333333;stroke-width:3;stroke-linecap:round;stroke-linejoin:round;}
	.st22{clip-path:url(#SVGID_2_);fill:#E6E6E6;stroke:#333333;stroke-width:3;stroke-miterlimit:10;}
	.st23{clip-path:url(#SVGID_2_);fill:#F8F8F8;stroke:#333333;stroke-width:3;stroke-miterlimit:10;}
	.st24{clip-path:url(#SVGID_2_);fill:none;stroke:#333333;stroke-width:3;stroke-linecap:round;}
	.st25{fill:none;stroke:#333333;stroke-width:3;stroke-linecap:round;stroke-miterlimit:10;}
	.st26{fill:#E7E6E6;}
	.st27{fill:none;stroke:#333333;stroke-width:3;stroke-linecap:round;stroke-linejoin:round;stroke-miterlimit:10;}
	.st28{fill:#F2F2F2;stroke:#E6E6E6;stroke-width:3;stroke-linecap:round;stroke-miterlimit:10;}
</style>
<line class="st0" x1="13.6" y1="52.2" x2="11.5" y2="52.2"/>
<line class="st0" x1="10.7" y1="47.1" x2="9.8" y2="48"/>
<line class="st0" x1="11.1" y1="57.8" x2="9.8" y2="56.4"/>
<g>
	<circle class="st1" cx="106.5" cy="108.5" r="104.5"/>
	<g>
		<defs>
			<circle id="SVGID_1_" cx="107.5" cy="107.5" r="104.5"/>
		</defs>
		<clipPath id="SVGID_2_">
			<use xlink:href="#SVGID_1_"  style="overflow:visible;"/>
		</clipPath>
		<polyline class="st2" points="108.3,185.3 108.3,-79 -177.6,-79.5 -177.6,-76.8 -177.6,185.6 		"/>
		<g class="st3">
			<g>
				<line class="st4" x1="-177.7" y1="66.3" x2="-21.1" y2="66"/>
				<line class="st4" x1="-177.7" y1="53.4" x2="-21.1" y2="53.1"/>
				<line class="st4" x1="-158.3" y1="65.7" x2="-158.3" y2="53.9"/>
				<line class="st4" x1="-138.4" y1="65.7" x2="-138.4" y2="53.9"/>
				<line class="st4" x1="-119.3" y1="65.7" x2="-119.3" y2="53.9"/>
				<line class="st4" x1="-99.4" y1="65.7" x2="-99.4" y2="53.9"/>
				<line class="st4" x1="-80" y1="65.7" x2="-80" y2="53.9"/>
				<line class="st4" x1="-60.1" y1="65.7" x2="-60.1" y2="53.9"/>
				<line class="st4" x1="-40.3" y1="65.7" x2="-40.3" y2="53.9"/>
				<line class="st4" x1="-177.5" y1="79.7" x2="-21.1" y2="79.4"/>
				<line class="st4" x1="-168.2" y1="79.2" x2="-168.2" y2="67.3"/>
				<line class="st4" x1="-148.3" y1="79.2" x2="-148.3" y2="67.3"/>
				<line class="st4" x1="-129.2" y1="79.2" x2="-129.2" y2="67.3"/>
				<line class="st4" x1="-109.3" y1="79.2" x2="-109.3" y2="67.3"/>
				<line class="st4" x1="-89.9" y1="79.2" x2="-89.9" y2="67.3"/>
				<line class="st4" x1="-70" y1="79.2" x2="-70" y2="67.3"/>
				<line class="st4" x1="-50.2" y1="79.2" x2="-50.2" y2="67.3"/>
				<line class="st4" x1="-29.6" y1="79.2" x2="-29.6" y2="67.3"/>
				<line class="st4" x1="-177.6" y1="93.2" x2="-21" y2="92.9"/>
				<line class="st4" x1="-158.2" y1="92.6" x2="-158.2" y2="80.8"/>
				<line class="st4" x1="-138.3" y1="92.6" x2="-138.3" y2="80.8"/>
				<line class="st4" x1="-119.1" y1="92.6" x2="-119.1" y2="80.8"/>
				<line class="st4" x1="-99.3" y1="92.6" x2="-99.3" y2="80.8"/>
				<line class="st4" x1="-79.9" y1="92.6" x2="-79.9" y2="80.8"/>
				<line class="st4" x1="-60" y1="92.6" x2="-60" y2="80.8"/>
				<line class="st4" x1="-40.2" y1="92.6" x2="-40.2" y2="80.8"/>
				<line class="st4" x1="-177.3" y1="106.6" x2="-21" y2="106.3"/>
				<line class="st4" x1="-168" y1="106" x2="-168" y2="94.2"/>
				<line class="st4" x1="-148.2" y1="106" x2="-148.2" y2="94.2"/>
				<line class="st4" x1="-129" y1="106" x2="-129" y2="94.2"/>
				<line class="st4" x1="-109.2" y1="106" x2="-109.2" y2="94.2"/>
				<line class="st4" x1="-89.8" y1="106" x2="-89.8" y2="94.2"/>
				<line class="st4" x1="-69.9" y1="106" x2="-69.9" y2="94.2"/>
				<line class="st4" x1="-50.1" y1="106" x2="-50.1" y2="94.2"/>
				<line class="st4" x1="-29.5" y1="106" x2="-29.5" y2="94.2"/>
				<line class="st4" x1="-176.9" y1="119.4" x2="-20.3" y2="119.1"/>
				<line class="st4" x1="-157.5" y1="118.8" x2="-157.5" y2="107"/>
				<line class="st4" x1="-137.6" y1="118.8" x2="-137.6" y2="107"/>
				<line class="st4" x1="-118.4" y1="118.8" x2="-118.4" y2="107"/>
				<line class="st4" x1="-98.6" y1="118.8" x2="-98.6" y2="107"/>
				<line class="st4" x1="-79.2" y1="118.8" x2="-79.2" y2="107"/>
				<line class="st4" x1="-59.3" y1="118.8" x2="-59.3" y2="107"/>
				<line class="st4" x1="-39.5" y1="118.8" x2="-39.5" y2="107"/>
				<line class="st4" x1="-176.6" y1="132.8" x2="-20.3" y2="132.5"/>
				<line class="st4" x1="-167.3" y1="132.2" x2="-167.3" y2="120.4"/>
				<line class="st4" x1="-147.5" y1="132.2" x2="-147.5" y2="120.4"/>
				<line class="st4" x1="-128.3" y1="132.2" x2="-128.3" y2="120.4"/>
				<line class="st4" x1="-108.5" y1="132.2" x2="-108.5" y2="120.4"/>
				<line class="st4" x1="-89.1" y1="132.2" x2="-89.1" y2="120.4"/>
				<line class="st4" x1="-69.2" y1="132.2" x2="-69.2" y2="120.4"/>
				<line class="st4" x1="-49.4" y1="132.2" x2="-49.4" y2="120.4"/>
				<line class="st4" x1="-28.8" y1="132.2" x2="-28.8" y2="120.4"/>
				<line class="st4" x1="-176.7" y1="146.3" x2="-20.1" y2="146"/>
				<line class="st4" x1="-157.3" y1="145.7" x2="-157.3" y2="133.9"/>
				<line class="st4" x1="-137.5" y1="145.7" x2="-137.5" y2="133.9"/>
				<line class="st4" x1="-118.3" y1="145.7" x2="-118.3" y2="133.9"/>
				<line class="st4" x1="-98.4" y1="145.7" x2="-98.4" y2="133.9"/>
				<line class="st4" x1="-79.1" y1="145.7" x2="-79.1" y2="133.9"/>
				<line class="st4" x1="-59.2" y1="145.7" x2="-59.2" y2="133.9"/>
				<line class="st4" x1="-39.3" y1="145.7" x2="-39.3" y2="133.9"/>
				<line class="st4" x1="-176.5" y1="159.7" x2="-20.2" y2="159.4"/>
				<line class="st4" x1="-167.2" y1="159.1" x2="-167.2" y2="147.3"/>
				<line class="st4" x1="-147.3" y1="159.1" x2="-147.3" y2="147.3"/>
				<line class="st4" x1="-128.2" y1="159.1" x2="-128.2" y2="147.3"/>
				<line class="st4" x1="-108.3" y1="159.1" x2="-108.3" y2="147.3"/>
				<line class="st4" x1="-88.9" y1="159.1" x2="-88.9" y2="147.3"/>
				<line class="st4" x1="-69.1" y1="159.1" x2="-69.1" y2="147.3"/>
				<line class="st4" x1="-49.2" y1="159.1" x2="-49.2" y2="147.3"/>
				<line class="st4" x1="-28.6" y1="159.1" x2="-28.6" y2="147.3"/>
				<line class="st4" x1="-176.9" y1="171.9" x2="-20.3" y2="171.6"/>
				<line class="st4" x1="-157.5" y1="171.4" x2="-157.5" y2="159.5"/>
				<line class="st4" x1="-137.6" y1="171.4" x2="-137.6" y2="159.5"/>
				<line class="st4" x1="-118.4" y1="171.4" x2="-118.4" y2="159.5"/>
				<line class="st4" x1="-98.6" y1="171.4" x2="-98.6" y2="159.5"/>
				<line class="st4" x1="-79.2" y1="171.4" x2="-79.2" y2="159.5"/>
				<line class="st4" x1="-59.3" y1="171.4" x2="-59.3" y2="159.5"/>
				<line class="st4" x1="-39.5" y1="171.4" x2="-39.5" y2="159.5"/>
				<line class="st4" x1="-176.6" y1="185.3" x2="-20.3" y2="185"/>
				<line class="st4" x1="-167.3" y1="184.8" x2="-167.3" y2="172.9"/>
				<line class="st4" x1="-147.5" y1="184.8" x2="-147.5" y2="172.9"/>
				<line class="st4" x1="-128.3" y1="184.8" x2="-128.3" y2="172.9"/>
				<line class="st4" x1="-108.5" y1="184.8" x2="-108.5" y2="172.9"/>
				<line class="st4" x1="-89.1" y1="184.8" x2="-89.1" y2="172.9"/>
				<line class="st4" x1="-69.2" y1="184.8" x2="-69.2" y2="172.9"/>
				<line class="st4" x1="-49.4" y1="184.8" x2="-49.4" y2="172.9"/>
				<line class="st4" x1="-28.8" y1="184.8" x2="-28.8" y2="172.9"/>
				<line class="st4" x1="-21.1" y1="66" x2="107.3" y2="65.7"/>
				<line class="st4" x1="-21.1" y1="53.1" x2="107.3" y2="52.8"/>
				<line class="st4" x1="0.6" y1="65.5" x2="0.6" y2="53.6"/>
				<line class="st4" x1="20.5" y1="65.5" x2="20.5" y2="53.6"/>
				<line class="st4" x1="39.7" y1="65.5" x2="39.7" y2="53.6"/>
				<line class="st4" x1="59.5" y1="65.5" x2="59.5" y2="53.6"/>
				<line class="st4" x1="78.9" y1="65.5" x2="78.9" y2="53.6"/>
				<line class="st4" x1="98.8" y1="65.5" x2="98.8" y2="53.6"/>
				<line class="st4" x1="-21.1" y1="79.4" x2="107.3" y2="79.1"/>
				<line class="st4" x1="-9.2" y1="78.9" x2="-9.2" y2="67.1"/>
				<line class="st4" x1="10.6" y1="78.9" x2="10.6" y2="67.1"/>
				<line class="st4" x1="29.8" y1="78.9" x2="29.8" y2="67.1"/>
				<line class="st4" x1="49.6" y1="78.9" x2="49.6" y2="67.1"/>
				<line class="st4" x1="69" y1="78.9" x2="69" y2="67.1"/>
				<line class="st4" x1="88.9" y1="78.9" x2="88.9" y2="67.1"/>
				<line class="st4" x1="-21" y1="92.9" x2="107.4" y2="92.6"/>
				<line class="st4" x1="0.8" y1="92.4" x2="0.8" y2="80.5"/>
				<line class="st4" x1="20.6" y1="92.4" x2="20.6" y2="80.5"/>
				<line class="st4" x1="39.8" y1="92.4" x2="39.8" y2="80.5"/>
				<line class="st4" x1="59.7" y1="92.4" x2="59.7" y2="80.5"/>
				<line class="st4" x1="79" y1="92.4" x2="79" y2="80.5"/>
				<line class="st4" x1="98.9" y1="92.4" x2="98.9" y2="80.5"/>
				<line class="st4" x1="-21" y1="106.3" x2="107.4" y2="106"/>
				<line class="st4" x1="-9.1" y1="105.8" x2="-9.1" y2="93.9"/>
				<line class="st4" x1="10.8" y1="105.8" x2="10.8" y2="93.9"/>
				<line class="st4" x1="29.9" y1="105.8" x2="29.9" y2="93.9"/>
				<line class="st4" x1="49.8" y1="105.8" x2="49.8" y2="93.9"/>
				<line class="st4" x1="69.2" y1="105.8" x2="69.2" y2="93.9"/>
				<line class="st4" x1="89" y1="105.8" x2="89" y2="93.9"/>
				<line class="st4" x1="-20.4" y1="119.1" x2="108" y2="118.8"/>
				<line class="st4" x1="1.5" y1="118.6" x2="1.5" y2="106.7"/>
				<line class="st4" x1="21.4" y1="118.6" x2="21.4" y2="106.7"/>
				<line class="st4" x1="40.5" y1="118.6" x2="40.5" y2="106.7"/>
				<line class="st4" x1="60.4" y1="118.6" x2="60.4" y2="106.7"/>
				<line class="st4" x1="79.7" y1="118.6" x2="79.7" y2="106.7"/>
				<line class="st4" x1="99.6" y1="118.6" x2="99.6" y2="106.7"/>
				<line class="st4" x1="-20.5" y1="132.5" x2="108" y2="132.2"/>
				<line class="st4" x1="-8.4" y1="132" x2="-8.4" y2="120.1"/>
				<line class="st4" x1="11.5" y1="132" x2="11.5" y2="120.1"/>
				<line class="st4" x1="30.6" y1="132" x2="30.6" y2="120.1"/>
				<line class="st4" x1="50.5" y1="132" x2="50.5" y2="120.1"/>
				<line class="st4" x1="69.9" y1="132" x2="69.9" y2="120.1"/>
				<line class="st4" x1="89.7" y1="132" x2="89.7" y2="120.1"/>
				<line class="st4" x1="-20.3" y1="146" x2="108.1" y2="145.7"/>
				<line class="st4" x1="1.6" y1="145.4" x2="1.6" y2="133.6"/>
				<line class="st4" x1="21.5" y1="145.4" x2="21.5" y2="133.6"/>
				<line class="st4" x1="40.6" y1="145.4" x2="40.6" y2="133.6"/>
				<line class="st4" x1="60.5" y1="145.4" x2="60.5" y2="133.6"/>
				<line class="st4" x1="79.9" y1="145.4" x2="79.9" y2="133.6"/>
				<line class="st4" x1="99.7" y1="145.4" x2="99.7" y2="133.6"/>
				<line class="st4" x1="-20.4" y1="159.4" x2="108.1" y2="159.1"/>
				<line class="st4" x1="-8.3" y1="158.9" x2="-8.3" y2="147"/>
				<line class="st4" x1="11.6" y1="158.9" x2="11.6" y2="147"/>
				<line class="st4" x1="30.7" y1="158.9" x2="30.7" y2="147"/>
				<line class="st4" x1="50.6" y1="158.9" x2="50.6" y2="147"/>
				<line class="st4" x1="70" y1="158.9" x2="70" y2="147"/>
				<line class="st4" x1="89.9" y1="158.9" x2="89.9" y2="147"/>
				<line class="st4" x1="-20.4" y1="171.6" x2="108" y2="171.3"/>
				<line class="st4" x1="1.5" y1="171.1" x2="1.5" y2="159.3"/>
				<line class="st4" x1="21.4" y1="171.1" x2="21.4" y2="159.3"/>
				<line class="st4" x1="40.5" y1="171.1" x2="40.5" y2="159.3"/>
				<line class="st4" x1="60.4" y1="171.1" x2="60.4" y2="159.3"/>
				<line class="st4" x1="79.7" y1="171.1" x2="79.7" y2="159.3"/>
				<line class="st4" x1="99.6" y1="171.1" x2="99.6" y2="159.3"/>
				<line class="st4" x1="-20.5" y1="185" x2="108" y2="184.7"/>
				<line class="st4" x1="-8.4" y1="184.5" x2="-8.4" y2="172.7"/>
				<line class="st4" x1="11.5" y1="184.5" x2="11.5" y2="172.7"/>
				<line class="st4" x1="30.6" y1="184.5" x2="30.6" y2="172.7"/>
				<line class="st4" x1="50.5" y1="184.5" x2="50.5" y2="172.7"/>
				<line class="st4" x1="69.9" y1="184.5" x2="69.9" y2="172.7"/>
				<line class="st4" x1="89.7" y1="184.5" x2="89.7" y2="172.7"/>
				<line class="st4" x1="-19.4" y1="65.3" x2="-19.4" y2="53.5"/>
				<line class="st4" x1="-19.3" y1="92.2" x2="-19.3" y2="80.4"/>
				<line class="st4" x1="-18.6" y1="118.4" x2="-18.6" y2="106.6"/>
				<line class="st4" x1="-18.5" y1="145.3" x2="-18.5" y2="133.4"/>
				<line class="st4" x1="-18.6" y1="170.9" x2="-18.6" y2="159.1"/>
			</g>
			<line class="st4" x1="-177.5" y1="-65.7" x2="-20.8" y2="-66"/>
			<line class="st4" x1="-177.5" y1="-78.6" x2="-20.9" y2="-78.9"/>
			<line class="st4" x1="-158" y1="-66.3" x2="-158" y2="-78.1"/>
			<line class="st4" x1="-138.2" y1="-66.3" x2="-138.2" y2="-78.1"/>
			<line class="st4" x1="-119" y1="-66.3" x2="-119" y2="-78.1"/>
			<line class="st4" x1="-99.2" y1="-66.3" x2="-99.2" y2="-78.1"/>
			<line class="st4" x1="-79.8" y1="-66.3" x2="-79.8" y2="-78.1"/>
			<line class="st4" x1="-59.9" y1="-66.3" x2="-59.9" y2="-78.1"/>
			<line class="st4" x1="-40.1" y1="-66.3" x2="-40.1" y2="-78.1"/>
			<line class="st4" x1="-177.2" y1="-52.3" x2="-20.9" y2="-52.6"/>
			<line class="st4" x1="-167.9" y1="-52.8" x2="-167.9" y2="-64.7"/>
			<line class="st4" x1="-148" y1="-52.8" x2="-148" y2="-64.7"/>
			<line class="st4" x1="-128.9" y1="-52.8" x2="-128.9" y2="-64.7"/>
			<line class="st4" x1="-109" y1="-52.8" x2="-109" y2="-64.7"/>
			<line class="st4" x1="-89.7" y1="-52.8" x2="-89.7" y2="-64.7"/>
			<line class="st4" x1="-69.8" y1="-52.8" x2="-69.8" y2="-64.7"/>
			<line class="st4" x1="-49.9" y1="-52.8" x2="-49.9" y2="-64.7"/>
			<line class="st4" x1="-29.4" y1="-52.8" x2="-29.4" y2="-64.7"/>
			<line class="st4" x1="-177.3" y1="-38.8" x2="-20.7" y2="-39.1"/>
			<line class="st4" x1="-157.9" y1="-39.4" x2="-157.9" y2="-51.2"/>
			<line class="st4" x1="-138" y1="-39.4" x2="-138" y2="-51.2"/>
			<line class="st4" x1="-118.9" y1="-39.4" x2="-118.9" y2="-51.2"/>
			<line class="st4" x1="-99" y1="-39.4" x2="-99" y2="-51.2"/>
			<line class="st4" x1="-79.6" y1="-39.4" x2="-79.6" y2="-51.2"/>
			<line class="st4" x1="-59.8" y1="-39.4" x2="-59.8" y2="-51.2"/>
			<line class="st4" x1="-39.9" y1="-39.4" x2="-39.9" y2="-51.2"/>
			<line class="st4" x1="-177.1" y1="-25.4" x2="-20.8" y2="-25.7"/>
			<line class="st4" x1="-167.8" y1="-26" x2="-167.8" y2="-37.8"/>
			<line class="st4" x1="-147.9" y1="-26" x2="-147.9" y2="-37.8"/>
			<line class="st4" x1="-128.8" y1="-26" x2="-128.8" y2="-37.8"/>
			<line class="st4" x1="-108.9" y1="-26" x2="-108.9" y2="-37.8"/>
			<line class="st4" x1="-89.5" y1="-26" x2="-89.5" y2="-37.8"/>
			<line class="st4" x1="-69.7" y1="-26" x2="-69.7" y2="-37.8"/>
			<line class="st4" x1="-49.8" y1="-26" x2="-49.8" y2="-37.8"/>
			<line class="st4" x1="-29.2" y1="-26" x2="-29.2" y2="-37.8"/>
			<line class="st4" x1="-176.6" y1="-12.6" x2="-20" y2="-12.9"/>
			<line class="st4" x1="-157.2" y1="-13.2" x2="-157.2" y2="-25"/>
			<line class="st4" x1="-137.3" y1="-13.2" x2="-137.3" y2="-25"/>
			<line class="st4" x1="-118.2" y1="-13.2" x2="-118.2" y2="-25"/>
			<line class="st4" x1="-98.3" y1="-13.2" x2="-98.3" y2="-25"/>
			<line class="st4" x1="-78.9" y1="-13.2" x2="-78.9" y2="-25"/>
			<line class="st4" x1="-59.1" y1="-13.2" x2="-59.1" y2="-25"/>
			<line class="st4" x1="-39.2" y1="-13.2" x2="-39.2" y2="-25"/>
			<line class="st4" x1="-176.4" y1="0.8" x2="-20.1" y2="0.5"/>
			<line class="st4" x1="-167.1" y1="0.2" x2="-167.1" y2="-11.6"/>
			<line class="st4" x1="-147.2" y1="0.2" x2="-147.2" y2="-11.6"/>
			<line class="st4" x1="-128.1" y1="0.2" x2="-128.1" y2="-11.6"/>
			<line class="st4" x1="-108.2" y1="0.2" x2="-108.2" y2="-11.6"/>
			<line class="st4" x1="-88.8" y1="0.2" x2="-88.8" y2="-11.6"/>
			<line class="st4" x1="-68.9" y1="0.2" x2="-68.9" y2="-11.6"/>
			<line class="st4" x1="-49.1" y1="0.2" x2="-49.1" y2="-11.6"/>
			<line class="st4" x1="-28.5" y1="0.2" x2="-28.5" y2="-11.6"/>
			<line class="st4" x1="-176.5" y1="14.3" x2="-19.9" y2="14"/>
			<line class="st4" x1="-157.1" y1="13.7" x2="-157.1" y2="1.9"/>
			<line class="st4" x1="-137.2" y1="13.7" x2="-137.2" y2="1.9"/>
			<line class="st4" x1="-118.1" y1="13.7" x2="-118.1" y2="1.9"/>
			<line class="st4" x1="-98.2" y1="13.7" x2="-98.2" y2="1.9"/>
			<line class="st4" x1="-78.8" y1="13.7" x2="-78.8" y2="1.9"/>
			<line class="st4" x1="-58.9" y1="13.7" x2="-58.9" y2="1.9"/>
			<line class="st4" x1="-39.1" y1="13.7" x2="-39.1" y2="1.9"/>
			<line class="st4" x1="-176.3" y1="27.7" x2="-19.9" y2="27.4"/>
			<line class="st4" x1="-167" y1="27.1" x2="-167" y2="15.3"/>
			<line class="st4" x1="-147.1" y1="27.1" x2="-147.1" y2="15.3"/>
			<line class="st4" x1="-128" y1="27.1" x2="-128" y2="15.3"/>
			<line class="st4" x1="-108.1" y1="27.1" x2="-108.1" y2="15.3"/>
			<line class="st4" x1="-88.7" y1="27.1" x2="-88.7" y2="15.3"/>
			<line class="st4" x1="-68.8" y1="27.1" x2="-68.8" y2="15.3"/>
			<line class="st4" x1="-49" y1="27.1" x2="-49" y2="15.3"/>
			<line class="st4" x1="-28.4" y1="27.1" x2="-28.4" y2="15.3"/>
			<line class="st4" x1="-176.6" y1="39.9" x2="-20" y2="39.6"/>
			<line class="st4" x1="-157.2" y1="39.4" x2="-157.2" y2="27.5"/>
			<line class="st4" x1="-137.3" y1="39.4" x2="-137.3" y2="27.5"/>
			<line class="st4" x1="-118.2" y1="39.4" x2="-118.2" y2="27.5"/>
			<line class="st4" x1="-98.3" y1="39.4" x2="-98.3" y2="27.5"/>
			<line class="st4" x1="-78.9" y1="39.4" x2="-78.9" y2="27.5"/>
			<line class="st4" x1="-59.1" y1="39.4" x2="-59.1" y2="27.5"/>
			<line class="st4" x1="-39.2" y1="39.4" x2="-39.2" y2="27.5"/>
			<line class="st4" x1="-167.1" y1="52.8" x2="-167.1" y2="40.9"/>
			<line class="st4" x1="-147.2" y1="52.8" x2="-147.2" y2="40.9"/>
			<line class="st4" x1="-128.1" y1="52.8" x2="-128.1" y2="40.9"/>
			<line class="st4" x1="-108.2" y1="52.8" x2="-108.2" y2="40.9"/>
			<line class="st4" x1="-88.8" y1="52.8" x2="-88.8" y2="40.9"/>
			<line class="st4" x1="-68.9" y1="52.8" x2="-68.9" y2="40.9"/>
			<line class="st4" x1="-49.1" y1="52.8" x2="-49.1" y2="40.9"/>
			<line class="st4" x1="-28.5" y1="52.8" x2="-28.5" y2="40.9"/>
			<line class="st4" x1="-20.8" y1="-66" x2="107.6" y2="-66.3"/>
			<line class="st4" x1="-20.9" y1="-78.9" x2="107.6" y2="-79.2"/>
			<line class="st4" x1="0.9" y1="-66.5" x2="0.9" y2="-78.4"/>
			<line class="st4" x1="20.8" y1="-66.5" x2="20.8" y2="-78.4"/>
			<line class="st4" x1="39.9" y1="-66.5" x2="39.9" y2="-78.4"/>
			<line class="st4" x1="59.8" y1="-66.5" x2="59.8" y2="-78.4"/>
			<line class="st4" x1="79.2" y1="-66.5" x2="79.2" y2="-78.4"/>
			<line class="st4" x1="99" y1="-66.5" x2="99" y2="-78.4"/>
			<line class="st4" x1="-20.9" y1="-52.6" x2="107.5" y2="-52.9"/>
			<line class="st4" x1="-9" y1="-53.1" x2="-9" y2="-64.9"/>
			<line class="st4" x1="10.9" y1="-53.1" x2="10.9" y2="-64.9"/>
			<line class="st4" x1="30" y1="-53.1" x2="30" y2="-64.9"/>
			<line class="st4" x1="49.9" y1="-53.1" x2="49.9" y2="-64.9"/>
			<line class="st4" x1="69.3" y1="-53.1" x2="69.3" y2="-64.9"/>
			<line class="st4" x1="89.2" y1="-53.1" x2="89.2" y2="-64.9"/>
			<line class="st4" x1="-20.7" y1="-39.1" x2="107.7" y2="-39.4"/>
			<line class="st4" x1="1" y1="-39.6" x2="1" y2="-51.5"/>
			<line class="st4" x1="20.9" y1="-39.6" x2="20.9" y2="-51.5"/>
			<line class="st4" x1="40" y1="-39.6" x2="40" y2="-51.5"/>
			<line class="st4" x1="59.9" y1="-39.6" x2="59.9" y2="-51.5"/>
			<line class="st4" x1="79.3" y1="-39.6" x2="79.3" y2="-51.5"/>
			<line class="st4" x1="99.2" y1="-39.6" x2="99.2" y2="-51.5"/>
			<line class="st4" x1="-20.8" y1="-25.7" x2="107.6" y2="-26"/>
			<line class="st4" x1="-8.9" y1="-26.2" x2="-8.9" y2="-38.1"/>
			<line class="st4" x1="11" y1="-26.2" x2="11" y2="-38.1"/>
			<line class="st4" x1="30.1" y1="-26.2" x2="30.1" y2="-38.1"/>
			<line class="st4" x1="50" y1="-26.2" x2="50" y2="-38.1"/>
			<line class="st4" x1="69.4" y1="-26.2" x2="69.4" y2="-38.1"/>
			<line class="st4" x1="89.3" y1="-26.2" x2="89.3" y2="-38.1"/>
			<line class="st4" x1="-20.2" y1="-12.9" x2="108.2" y2="-13.2"/>
			<line class="st4" x1="1.7" y1="-13.4" x2="1.7" y2="-25.3"/>
			<line class="st4" x1="21.6" y1="-13.4" x2="21.6" y2="-25.3"/>
			<line class="st4" x1="40.7" y1="-13.4" x2="40.7" y2="-25.3"/>
			<line class="st4" x1="60.6" y1="-13.4" x2="60.6" y2="-25.3"/>
			<line class="st4" x1="80" y1="-13.4" x2="80" y2="-25.3"/>
			<line class="st4" x1="99.9" y1="-13.4" x2="99.9" y2="-25.3"/>
			<line class="st4" x1="-20.2" y1="0.5" x2="108.2" y2="0.2"/>
			<line class="st4" x1="-8.2" y1="0" x2="-8.2" y2="-11.9"/>
			<line class="st4" x1="11.7" y1="0" x2="11.7" y2="-11.9"/>
			<line class="st4" x1="30.8" y1="0" x2="30.8" y2="-11.9"/>
			<line class="st4" x1="50.7" y1="0" x2="50.7" y2="-11.9"/>
			<line class="st4" x1="70.1" y1="0" x2="70.1" y2="-11.9"/>
			<line class="st4" x1="90" y1="0" x2="90" y2="-11.9"/>
			<line class="st4" x1="-20.1" y1="14" x2="108.3" y2="13.7"/>
			<line class="st4" x1="1.8" y1="13.4" x2="1.8" y2="1.6"/>
			<line class="st4" x1="21.7" y1="13.4" x2="21.7" y2="1.6"/>
			<line class="st4" x1="40.9" y1="13.4" x2="40.9" y2="1.6"/>
			<line class="st4" x1="60.7" y1="13.4" x2="60.7" y2="1.6"/>
			<line class="st4" x1="80.1" y1="13.4" x2="80.1" y2="1.6"/>
			<line class="st4" x1="100" y1="13.4" x2="100" y2="1.6"/>
			<line class="st4" x1="-20.1" y1="27.4" x2="108.3" y2="27.1"/>
			<line class="st4" x1="-8" y1="26.9" x2="-8" y2="15"/>
			<line class="st4" x1="11.8" y1="26.9" x2="11.8" y2="15"/>
			<line class="st4" x1="31" y1="26.9" x2="31" y2="15"/>
			<line class="st4" x1="50.8" y1="26.9" x2="50.8" y2="15"/>
			<line class="st4" x1="70.2" y1="26.9" x2="70.2" y2="15"/>
			<line class="st4" x1="90.1" y1="26.9" x2="90.1" y2="15"/>
			<line class="st4" x1="-20.2" y1="39.6" x2="108.2" y2="39.3"/>
			<line class="st4" x1="1.7" y1="39.1" x2="1.7" y2="27.2"/>
			<line class="st4" x1="21.6" y1="39.1" x2="21.6" y2="27.2"/>
			<line class="st4" x1="40.7" y1="39.1" x2="40.7" y2="27.2"/>
			<line class="st4" x1="60.6" y1="39.1" x2="60.6" y2="27.2"/>
			<line class="st4" x1="80" y1="39.1" x2="80" y2="27.2"/>
			<line class="st4" x1="99.9" y1="39.1" x2="99.9" y2="27.2"/>
			<line class="st4" x1="-8.2" y1="52.5" x2="-8.2" y2="40.7"/>
			<line class="st4" x1="11.7" y1="52.5" x2="11.7" y2="40.7"/>
			<line class="st4" x1="30.8" y1="52.5" x2="30.8" y2="40.7"/>
			<line class="st4" x1="50.7" y1="52.5" x2="50.7" y2="40.7"/>
			<line class="st4" x1="70.1" y1="52.5" x2="70.1" y2="40.7"/>
			<line class="st4" x1="90" y1="52.5" x2="90" y2="40.7"/>
			<line class="st4" x1="-19.2" y1="-66.7" x2="-19.2" y2="-78.5"/>
			<line class="st4" x1="-19" y1="-39.8" x2="-19" y2="-51.6"/>
			<line class="st4" x1="-18.3" y1="-13.6" x2="-18.3" y2="-25.4"/>
			<line class="st4" x1="-18.2" y1="13.3" x2="-18.2" y2="1.4"/>
			<line class="st4" x1="-18.3" y1="38.9" x2="-18.3" y2="27.1"/>
		</g>
		<path class="st5" d="M62.4,113.2"/>
		<g class="st3">
			<circle class="st6" cx="61.7" cy="100.9" r="23.9"/>
			<path class="st7" d="M53.8,115.8c-5.3-2.8-8.9-8.4-8.9-14.9c0-6.4,3.5-11.9,8.7-14.8"/>
			<path class="st7" d="M69.6,86c5.3,2.8,8.9,8.4,8.9,14.9c0,6.5-3.6,12.1-8.9,14.9"/>
			<path class="st8" d="M69.7,122.4l0,1.1c-2.8,0.9-5.3,1.4-8.1,1.3c-2.6,0-5.4-0.5-7.9-1.4l0-1.1l0-2v-6.9l0-6.8
				c-1.1-1.6-1.8-3.5-1.8-5.6c0-2.1,0.7-4,1.8-5.6l0-0.5l0-16.3c2.8-0.9,5.3-1.4,8.1-1.4c2.6,0,5.4,0.5,7.9,1.3v16.3l0,0.3
				c1.2,1.6,2,3.7,2,5.9c0,2.2-0.7,4.3-2,5.9l0,0.7v12.8"/>
			<circle class="st9" cx="61.7" cy="100.9" r="6.6"/>
			<circle class="st10" cx="61.7" cy="116.1" r="1.7"/>
		</g>
		<polyline class="st11" points="108.3,185.9 108.3,-78.4 -177.6,-78.9 -177.6,-76.2 -177.6,186.2 		"/>
		<line class="st12" x1="233.5" y1="186.6" x2="-10.7" y2="186.6"/>
		<line class="st13" x1="154.3" y1="107.2" x2="133" y2="122.3"/>
		<line class="st13" x1="140.1" y1="105" x2="133.7" y2="109.8"/>
		<path class="st14" d="M225.9,68.8c-13.5,0.1-27,1-40.5,2.3c-7.5,0.7-15,1.6-22.4,2.5c-3.7,0.5-7.4,0.9-11.2,1.4
			c-2.2,0.3-8.2,0.8-3.4,3c3,1.4,6.5,0.4,9.5,1.8c5.6,2.7,0.4,9.6-2.3,12.4c-4.9,5.1-11.8,7.4-18.3,9.9c-2.9,1.1-6.1,2.6-8,5.2
			c-2.4,3.2-1.6,7.2-1.8,11c-0.2,7.4-4.5,14-6.2,21.1c-2.2,8.8-0.3,18.6,4.9,26c2.3,0.1,3.8,0.1,6.1,0.2c-1.7-10.2,3.4-21.4,12-27
			c8.6-5.6,21.6-5.9,30.2-0.2c8.6,5.6,13.9,17.2,12.2,27.3c14.1,0,28,0,41.8,0"/>
		<path class="st15" d="M226.3,77.4c-5.4,0-10.8,0.1-16.2,0.3c-6.2,0.2-12.5,0.6-18.7,1.1c-5.3,0.4-11.1,0.4-16,2.8
			c-1.1,0.3-1.8,1.6-2.3,2.5c-2.9,4.5-5.6,9.3-8.2,14c-0.9,1.6-1.4,3.3-0.5,4.9c2.6,4.6,8,5.8,12.9,5.9c4.1,0.1,8.3,0,12.5,0
			c9.4,0,18.8,0,28.2,0c3.5,0,7.1,0,10.6,0"/>
		<path class="st11" d="M155,79.1c-4.6,2.1-19.2,17.4-21.5,24.5"/>
		<circle class="st16" cx="154.3" cy="114.3" r="5"/>
		<g class="st3">
			<line class="st17" x1="186.2" y1="87.5" x2="193.8" y2="93.3"/>
			<line class="st17" x1="180" y1="88.4" x2="185.7" y2="92.9"/>
		</g>
		<path class="st18" d="M160,184.3c12.2,0,22.1-9.9,22.1-22.1c0-12.2-9.9-22.1-22.1-22.1c-12.2,0-22.1,9.9-22.1,22.1
			C137.9,174.4,147.8,184.3,160,184.3L160,184.3z"/>
		<path class="st19" d="M160,178.3c8.9,0,16.1-7.2,16.1-16.1c0-8.9-7.2-16.1-16.1-16.1c-8.9,0-16.1,7.2-16.1,16.1
			C144,171.1,151.1,178.3,160,178.3L160,178.3z"/>
		<path class="st20" d="M160,167.4c-2.8,0-5.1-2.3-5.1-5.1c0-2.8,2.3-5.1,5.1-5.1c2.8,0,5.1,2.3,5.1,5.1
			C165.2,165.1,162.9,167.4,160,167.4L160,167.4z"/>
		<path class="st20" d="M185.9,119.5c0.1,1.4,1.3,2.6,2.8,2.6h2.6c1.3,0,2.5-0.9,2.7-2.2l0-2.4c-0.2-1.4-1.4-2.4-2.8-2.4h-2.6
			c-1.2,0-2.2,0.8-2.6,1.8L185.9,119.5z"/>
		<path class="st21" d="M228.6,155.6l-22.2-0.2c-4.7,0-7.5-2.1-10.3-5.7c-8.9-11.7-27.8-34.7-31.7-46.6"/>
		<path class="st22" d="M132.6,105.9c-0.9-0.1-1.7,0.2-2.4,0.8c-0.3,0.3-0.6,0.7-0.9,1.1c-2.2,3.2-1.5,7.2-1.6,11c0,0.3,0,0.5,0,0.8
			c-0.1,1.9,1.4,3.4,3.1,3.1c3.8-0.6,4.5-8.4,4.7-11.6c0-0.9,0.1-1.8-0.2-2.7c-0.3-1.2-1.3-2.3-2.5-2.5L132.6,105.9z"/>
		<path class="st23" d="M133.1,116.7c0.9,0.2,1.4,1.1,1.1,2c-0.7,2.1-1.8,3.8-3.5,4.1c-1.7,0.2-3.3-1.3-3.1-3.1c0-0.3,0-0.5,0-0.8
			c0-0.6,0-1.2,0-1.8C129.7,116.5,131,116.2,133.1,116.7z"/>
		<path class="st24" d="M62.6,100.5c8.1,0,16.6,0,24.4,4.2c5,2.7,9.2,8.1,12.3,14.4c3,6.2,4.1,13.6,6.9,19.8
			c5.6,12.6,14.6,12.4,20.2,0.4c4.3-9.2,3.3-11.7,8.6-20.1c4.5-7.1,13.2-5.7,19.5-5.9"/>
	</g>
	<g>
		<path class="st25" d="M128.3,26.4c1.2,0.3,2.6,0.4,3.6,1c1.9,1.1,2.4,3.3,2.8,5.7c0.1,0.4,0.4,0.5,0.7,0.2c1.2-1,2.5-2.1,3.8-2.7
			c1.5-0.6,2.9-0.1,4.3,0.2"/>
		<path class="st25" d="M133.7,29.3c0.7,1.3,0.6,2.7,0.8,4.2c0.1,0.4,0.6,0.6,0.9,0.3c1.1-1,2.1-2.2,3.4-2.9"/>
	</g>
	<path class="st26" d="M178.2,44.7c3.1,0.8,5.4,3.6,5.4,7c0,0.3,0,0.5,0,0.8h-30.5c-0.1-3,2.2-4.1,2.2-4.1c-0.1-3.3,2.4-5.8,6.3-5.5
		h0.1c1.4-3.1,4.4-5.3,7.9-5.3C174,37.6,177.6,40.6,178.2,44.7"/>
	<circle class="st27" cx="108.5" cy="108.5" r="104.5"/>
	<g>
		<line class="st28" x1="131.9" y1="62.6" x2="144.6" y2="62.6"/>
		<line class="st28" x1="119.2" y1="62.6" x2="125.6" y2="62.6"/>
	</g>
</g>
</svg>
