<?xml version="1.0" encoding="utf-8"?>
<!-- Generator: Adobe Illustrator 21.0.2, SVG Export Plug-In . SVG Version: 6.00 Build 0)  -->
<svg version="1.1" id="Layer_1" xmlns="http://www.w3.org/2000/svg" xmlns:xlink="http://www.w3.org/1999/xlink" x="0px" y="0px"
	 viewBox="0 0 218 219" style="enable-background:new 0 0 218 219;" xml:space="preserve">
<style type="text/css">
	.st0{clip-path:url(#SVGID_2_);fill:#FFFFFF;stroke:#333333;stroke-width:3;stroke-linecap:round;stroke-miterlimit:10;}
	.st1{clip-path:url(#SVGID_2_);fill:#E6E6E6;stroke:#333333;stroke-width:3;stroke-linecap:round;stroke-miterlimit:10;}
	
		.st2{clip-path:url(#SVGID_2_);fill:#8CC63F;stroke:#333333;stroke-width:3;stroke-linecap:round;stroke-linejoin:round;stroke-miterlimit:10;}
	.st3{clip-path:url(#SVGID_2_);fill:#F2F2F2;stroke:#333333;stroke-width:3;stroke-linecap:round;stroke-miterlimit:10;}
	
		.st4{clip-path:url(#SVGID_2_);fill:#8FC043;stroke:#333333;stroke-width:3;stroke-linecap:round;stroke-linejoin:round;stroke-miterlimit:10;}
	.st5{clip-path:url(#SVGID_2_);fill:#8FC043;stroke:#333333;stroke-width:3;stroke-linejoin:round;stroke-miterlimit:10;}
	.st6{clip-path:url(#SVGID_2_);fill:none;stroke:#333333;stroke-width:3;stroke-linecap:round;stroke-miterlimit:10;}
	.st7{clip-path:url(#SVGID_2_);fill:#CCCCCC;stroke:#333333;stroke-width:3;stroke-linecap:round;stroke-miterlimit:10;}
	.st8{clip-path:url(#SVGID_2_);fill:#D7D7D8;}
	.st9{fill:none;stroke:#333333;stroke-width:3;stroke-linecap:round;stroke-linejoin:round;stroke-miterlimit:10;}
</style>
<g>
	<defs>
		<circle id="SVGID_1_" cx="109.9" cy="109" r="104.9"/>
	</defs>
	<use xlink:href="#SVGID_1_"  style="overflow:visible;fill:#F2F2F2;"/>
	<clipPath id="SVGID_2_">
		<use xlink:href="#SVGID_1_"  style="overflow:visible;"/>
	</clipPath>
	<path class="st0" d="M28.8,205c10.3-34.5,40.9-59.5,77-59.5c36.1,0,66.7,25,77,59.4"/>
	<path class="st1" d="M106.8,159.3L106.8,159.3c-9,0-16.4-7.4-16.4-16.4v-16.5c0-9,7.4-16.4,16.4-16.4h0c9,0,16.4,7.4,16.4,16.4
		v16.5C123.3,151.9,115.9,159.3,106.8,159.3z"/>
	<polyline class="st2" points="74,221 74,174.2 141.7,174.2 141.7,221 	"/>
	<circle class="st3" cx="85.3" cy="183.4" r="3.1"/>
	<circle class="st3" cx="128.4" cy="183.4" r="3.1"/>
	<polyline class="st4" points="130,150.3 130,174.2 141.7,174.2 141.7,155.7 	"/>
	<polyline class="st5" points="86.3,147.5 86.3,174.2 74,174.2 74,151.6 	"/>
	<path class="st6" d="M28.8,202.9c10.3-33.3,40.9-57.5,77-57.5c36.1,0,66.7,24.1,77,57.4"/>
	<path class="st7" d="M62.5,100.2c-5,0-9.1-4.1-9.1-9.1s4.1-9.1,9.1-9.1"/>
	<path class="st7" d="M151.8,81.9c5,0,9.1,4.1,9.1,9.1s-4.1,9.1-9.1,9.1"/>
	<path class="st1" d="M106.8,148.8L106.8,148.8c-24.4,0-44.4-20-44.4-44.4v-12c0-19.9,16.3-36.3,36.3-36.3h18.6
		c19,0,34.5,15.5,34.5,34.5v13.2C151.8,128.5,131.6,148.8,106.8,148.8z"/>
	<path class="st6" d="M121.8,126.4c-1.9,4.2-7.8,7.3-14.7,7.3c-7,0-12.8-3.1-14.7-7.3"/>
	<path class="st6" d="M123.3,94.3c0.6-1,2.6-1.8,4.9-1.8c2.3,0,4.3,0.8,4.9,1.8"/>
	<circle class="st6" cx="86" cy="100.1" r="1.7"/>
	<path class="st6" d="M130,100.1c0,0.9-0.8,1.7-1.7,1.7c-0.9,0-1.7-0.8-1.7-1.7c0-0.9,0.8-1.7,1.7-1.7
		C129.2,98.4,130,99.2,130,100.1"/>
	<path class="st6" d="M81.1,94.4c0.6-1,2.6-1.8,4.9-1.8c2.3,0,4.3,0.8,4.9,1.8"/>
	<circle class="st8" cx="134.5" cy="113.2" r="6.3"/>
	<circle class="st8" cx="79.7" cy="113.2" r="6.3"/>
	<line class="st0" x1="107.1" y1="97.5" x2="107.1" y2="111.3"/>
	<path class="st6" d="M112.5,112.9c-1.3,2.4-3.2,3.4-5.4,3.4c-2,0-4.5-0.9-5.4-3.4"/>
	<path class="st2" d="M61.7,64.4c0,0.8-0.1,1.6-0.1,2.4v15.2h2c7,0,12.7-6.8,12.7-15.2h27.3c17.4,0,33.7,0,33.7,0
		c0,8.4,5.7,15.2,12.7,15.2h2V66.7c0-0.8,0-1.6-0.1-2.4c-1.1-18.4-18-27.6-33.5-31.1c-1.6-0.4-0.4-6.6-2.1-6.8
		c-5.6-0.8-15.3,6.1-21,6.8c-1.4,0.2-0.8-7.1-2.1-6.8c-6.2,1.3-13.3,8.5-18.4,12.2C66.7,44.6,62.4,54,61.7,64.4z"/>
</g>
<circle class="st9" cx="109" cy="109.4" r="104.9"/>
</svg>
