<?xml version="1.0" encoding="utf-8"?>
<!-- Generator: Adobe Illustrator 21.0.2, SVG Export Plug-In . SVG Version: 6.00 Build 0)  -->
<svg version="1.1" id="Layer_1" xmlns="http://www.w3.org/2000/svg" xmlns:xlink="http://www.w3.org/1999/xlink" x="0px" y="0px"
	 viewBox="0 0 218 219" style="enable-background:new 0 0 218 219;" xml:space="preserve">
<style type="text/css">
	.st0{fill:#E6E6E6;}
	.st1{clip-path:url(#SVGID_2_);fill:#F2F2F2;stroke:#E6E6E6;stroke-width:3;stroke-miterlimit:10;}
	.st2{clip-path:url(#SVGID_2_);fill:#F2F2F2;stroke:#E6E6E6;stroke-width:3;stroke-linecap:round;stroke-miterlimit:10;}
	.st3{clip-path:url(#SVGID_2_);fill:none;stroke:#4D4D4D;stroke-width:3;stroke-linecap:round;stroke-miterlimit:10;}
	.st4{clip-path:url(#SVGID_2_);fill:#CCCCCC;stroke:#333333;stroke-width:3;stroke-miterlimit:10;}
	.st5{clip-path:url(#SVGID_2_);fill:none;stroke:#999999;stroke-width:3;stroke-linecap:round;stroke-miterlimit:10;}
	.st6{clip-path:url(#SVGID_2_);}
	.st7{clip-path:url(#SVGID_2_);fill:#333333;}
	.st8{clip-path:url(#SVGID_2_);fill:#8CC03F;}
	.st9{fill:none;stroke:#333333;stroke-width:3;stroke-linecap:round;stroke-linejoin:round;stroke-miterlimit:10;}
	.st10{fill:#8CC63F;stroke:#333333;stroke-width:3;stroke-linecap:round;stroke-linejoin:round;stroke-miterlimit:10;}
	.st11{fill:#F2F2F2;stroke:#333333;stroke-width:3;stroke-linecap:round;stroke-linejoin:round;stroke-miterlimit:10;}
	.st12{fill:#CCCCCC;stroke:#333333;stroke-width:3;stroke-linecap:round;stroke-linejoin:round;stroke-miterlimit:10;}
</style>
<g>
	<circle class="st0" cx="108.4" cy="108.8" r="106.2"/>
	<g>
		<g>
			<defs>
				<circle id="SVGID_1_" cx="108.3" cy="108.9" r="104.9"/>
			</defs>
			<clipPath id="SVGID_2_">
				<use xlink:href="#SVGID_1_"  style="overflow:visible;"/>
			</clipPath>
			<polyline class="st1" points="223.8,220.4 223.8,1.8 0.5,1.4 0.5,3.6 0.5,220.7 			"/>
			<line class="st2" x1="0.5" y1="22.2" x2="222.2" y2="21.8"/>
			<line class="st2" x1="0.5" y1="0.7" x2="222.2" y2="0.3"/>
			<line class="st2" x1="41.9" y1="21.3" x2="41.9" y2="1.7"/>
			<line class="st2" x1="77.7" y1="21.3" x2="77.7" y2="1.7"/>
			<line class="st2" x1="114.9" y1="21.3" x2="114.9" y2="1.7"/>
			<line class="st2" x1="151.1" y1="21.3" x2="151.1" y2="1.7"/>
			<line class="st2" x1="188.3" y1="21.3" x2="188.3" y2="1.7"/>
			<line class="st2" x1="0.5" y1="44.4" x2="222.1" y2="44"/>
			<line class="st2" x1="23.4" y1="43.6" x2="23.4" y2="23.9"/>
			<line class="st2" x1="59.2" y1="43.6" x2="59.2" y2="23.9"/>
			<line class="st2" x1="96.4" y1="43.6" x2="96.4" y2="23.9"/>
			<line class="st2" x1="132.6" y1="43.6" x2="132.6" y2="23.9"/>
			<line class="st2" x1="169.8" y1="43.6" x2="169.8" y2="23.9"/>
			<line class="st2" x1="0.7" y1="66.8" x2="222.4" y2="66.4"/>
			<line class="st2" x1="42.1" y1="65.9" x2="42.1" y2="46.3"/>
			<line class="st2" x1="77.9" y1="65.9" x2="77.9" y2="46.3"/>
			<line class="st2" x1="115.1" y1="65.9" x2="115.1" y2="46.3"/>
			<line class="st2" x1="151.4" y1="65.9" x2="151.4" y2="46.3"/>
			<line class="st2" x1="188.6" y1="65.9" x2="188.6" y2="46.3"/>
			<line class="st2" x1="0.6" y1="89" x2="222.3" y2="88.6"/>
			<line class="st2" x1="23.6" y1="88.2" x2="23.6" y2="68.5"/>
			<line class="st2" x1="59.4" y1="88.2" x2="59.4" y2="68.5"/>
			<line class="st2" x1="96.6" y1="88.2" x2="96.6" y2="68.5"/>
			<line class="st2" x1="132.9" y1="88.2" x2="132.9" y2="68.5"/>
			<line class="st2" x1="170.1" y1="88.2" x2="170.1" y2="68.5"/>
			<line class="st2" x1="1.7" y1="110.3" x2="223.3" y2="109.9"/>
			<line class="st2" x1="43.4" y1="109.4" x2="43.4" y2="89.8"/>
			<line class="st2" x1="79.2" y1="109.4" x2="79.2" y2="89.8"/>
			<line class="st2" x1="116.4" y1="109.4" x2="116.4" y2="89.8"/>
			<line class="st2" x1="152.7" y1="109.4" x2="152.7" y2="89.8"/>
			<line class="st2" x1="189.9" y1="109.4" x2="189.9" y2="89.8"/>
			<line class="st2" x1="1.6" y1="132.5" x2="223.3" y2="132.1"/>
			<line class="st2" x1="24.9" y1="131.7" x2="24.9" y2="112.1"/>
			<line class="st2" x1="60.7" y1="131.7" x2="60.7" y2="112.1"/>
			<line class="st2" x1="97.9" y1="131.7" x2="97.9" y2="112.1"/>
			<line class="st2" x1="134.2" y1="131.7" x2="134.2" y2="112.1"/>
			<line class="st2" x1="171.4" y1="131.7" x2="171.4" y2="112.1"/>
			<line class="st2" x1="1.8" y1="154.9" x2="223.5" y2="154.5"/>
			<line class="st2" x1="43.7" y1="154" x2="43.7" y2="134.4"/>
			<line class="st2" x1="79.5" y1="154" x2="79.5" y2="134.4"/>
			<line class="st2" x1="116.7" y1="154" x2="116.7" y2="134.4"/>
			<line class="st2" x1="152.9" y1="154" x2="152.9" y2="134.4"/>
			<line class="st2" x1="190.1" y1="154" x2="190.1" y2="134.4"/>
			<line class="st2" x1="1.8" y1="177.1" x2="223.5" y2="176.7"/>
			<line class="st2" x1="25.2" y1="176.3" x2="25.2" y2="156.7"/>
			<line class="st2" x1="61" y1="176.3" x2="61" y2="156.7"/>
			<line class="st2" x1="98.1" y1="176.3" x2="98.1" y2="156.7"/>
			<line class="st2" x1="134.4" y1="176.3" x2="134.4" y2="156.7"/>
			<line class="st2" x1="171.6" y1="176.3" x2="171.6" y2="156.7"/>
			<line class="st2" x1="1.7" y1="197.5" x2="223.3" y2="197"/>
			<line class="st2" x1="43.4" y1="196.6" x2="43.4" y2="177"/>
			<line class="st2" x1="79.2" y1="196.6" x2="79.2" y2="177"/>
			<line class="st2" x1="116.4" y1="196.6" x2="116.4" y2="177"/>
			<line class="st2" x1="152.7" y1="196.6" x2="152.7" y2="177"/>
			<line class="st2" x1="189.9" y1="196.6" x2="189.9" y2="177"/>
			<line class="st2" x1="1.6" y1="219.7" x2="223.3" y2="219.3"/>
			<line class="st2" x1="24.9" y1="218.9" x2="24.9" y2="199.2"/>
			<line class="st2" x1="60.7" y1="218.9" x2="60.7" y2="199.2"/>
			<line class="st2" x1="97.9" y1="218.9" x2="97.9" y2="199.2"/>
			<line class="st2" x1="134.2" y1="218.9" x2="134.2" y2="199.2"/>
			<line class="st2" x1="171.4" y1="218.9" x2="171.4" y2="199.2"/>
			<path class="st3" d="M227.9,82.9"/>
			<path class="st2" d="M112.6,100.5"/>
			<circle class="st4" cx="107.8" cy="107.6" r="39.6"/>
			<path class="st5" d="M94.6,132.3c-8.8-4.7-14.8-14-14.8-24.7c0-10.6,5.9-19.8,14.5-24.5"/>
			<path class="st5" d="M120.9,82.8c8.8,4.7,14.8,14,14.8,24.7c0,10.7-6,20-14.8,24.7"/>
			<path class="st6" d="M120.9,143.1l0,1.8c-4.6,1.5-8.8,2.3-13.5,2.2c-4.4,0-8.9-0.8-13.1-2.4l0-1.9l0-3.3v-11.5l0-11.2
				c-1.8-2.7-2.9-5.9-2.9-9.4c0-3.5,1.1-6.7,2.9-9.4l0-0.9l0-27c4.6-1.6,8.7-2.4,13.5-2.4c4.4,0,8.9,0.8,13.2,2.2v27l0,0.5
				c2,2.7,3.3,6.1,3.3,9.8c0,3.7-1.2,7.1-3.3,9.8l0,1.2v21.3"/>
			<circle class="st7" cx="107.8" cy="107.6" r="11"/>
			<circle class="st8" cx="107.8" cy="132.8" r="2.9"/>
			<g class="st6">
				<polyline class="st9" points="98.9,31.8 107.2,23.5 115.6,31.8 				"/>
				<line class="st9" x1="107.2" y1="23.5" x2="107.2" y2="50.5"/>
			</g>
			<g class="st6">
				<polyline class="st9" points="115.6,186.9 107.2,195.2 98.9,186.9 				"/>
				<line class="st9" x1="107.2" y1="195.2" x2="107.2" y2="168.2"/>
			</g>
			<g class="st6">
				<polyline class="st9" points="32,115.4 23.7,107.1 32,98.7 				"/>
				<line class="st9" x1="23.7" y1="107.1" x2="50.7" y2="107.1"/>
			</g>
			<g class="st6">
				<path class="st10" d="M161.4,174.7h-18.2c-1.6,0-2.8-1.3-2.8-2.8V43.2c0-1.6,1.3-2.8,2.8-2.8h18.2c1.6,0,2.8,1.3,2.8,2.8v128.6
					C164.2,173.4,162.9,174.7,161.4,174.7z"/>
				<g>
					<line class="st9" x1="158.9" y1="106.6" x2="161.7" y2="106.6"/>
					<line class="st9" x1="153.3" y1="113.9" x2="161.7" y2="113.9"/>
					<line class="st9" x1="158.9" y1="121.3" x2="161.7" y2="121.3"/>
					<line class="st9" x1="158.9" y1="121.3" x2="161.7" y2="121.3"/>
					<line class="st9" x1="153.3" y1="128.7" x2="161.7" y2="128.7"/>
					<line class="st9" x1="158.9" y1="136" x2="161.7" y2="136"/>
					<line class="st9" x1="158.9" y1="136" x2="161.7" y2="136"/>
					<line class="st9" x1="153.3" y1="143.4" x2="161.7" y2="143.4"/>
					<line class="st9" x1="158.9" y1="150.7" x2="161.7" y2="150.7"/>
					<line class="st9" x1="158.9" y1="150.7" x2="161.7" y2="150.7"/>
					<line class="st9" x1="153.3" y1="158.1" x2="161.7" y2="158.1"/>
					<line class="st9" x1="158.9" y1="165.5" x2="161.7" y2="165.5"/>
					<line class="st9" x1="158.9" y1="47.7" x2="161.7" y2="47.7"/>
					<line class="st9" x1="153.3" y1="55.1" x2="161.7" y2="55.1"/>
					<line class="st9" x1="158.9" y1="62.4" x2="161.7" y2="62.4"/>
					<line class="st9" x1="158.9" y1="62.4" x2="161.7" y2="62.4"/>
					<line class="st9" x1="153.3" y1="69.8" x2="161.7" y2="69.8"/>
					<line class="st9" x1="158.9" y1="77.1" x2="161.7" y2="77.1"/>
					<line class="st9" x1="158.9" y1="77.1" x2="161.7" y2="77.1"/>
					<line class="st9" x1="153.3" y1="84.5" x2="161.7" y2="84.5"/>
					<line class="st9" x1="158.9" y1="91.9" x2="161.7" y2="91.9"/>
					<line class="st9" x1="158.9" y1="91.9" x2="161.7" y2="91.9"/>
					<line class="st9" x1="153.3" y1="99.2" x2="161.7" y2="99.2"/>
					<line class="st9" x1="158.9" y1="106.6" x2="161.7" y2="106.6"/>
				</g>
			</g>
			<g class="st6">
				<path class="st10" d="M137.5,159.9h-5.4c-1.5,0-2.8-1.3-2.8-2.8v-89c0-1.1,0.9-2.1,2.1-2.1h7c1.1,0,2,0.9,2,2v89
					C140.3,158.7,139,159.9,137.5,159.9z"/>
				<polygon class="st11" points="129.3,69.8 134.8,55.1 140.3,69.8 				"/>
				<path class="st12" d="M139.1,152.6h-8.7c-0.7,0-1.2-0.5-1.2-1.2v-5c0-0.7,0.5-1.2,1.2-1.2h8.7c0.7,0,1.2,0.5,1.2,1.2v5
					C140.3,152.1,139.8,152.6,139.1,152.6z"/>
				<path class="st11" d="M138.7,159.9h-7.9c-0.9,0-1.6-0.7-1.6-1.6v-6.1c0-0.9,0.7-1.6,1.6-1.6h7.9c0.9,0,1.6,0.7,1.6,1.6v6.1
					C140.3,159.2,139.6,159.9,138.7,159.9z"/>
			</g>
		</g>
		<circle class="st9" cx="108.3" cy="108.9" r="104.9"/>
	</g>
</g>
</svg>
