<?xml version="1.0" encoding="utf-8"?>
<!-- Generator: Adobe Illustrator 21.0.2, SVG Export Plug-In . SVG Version: 6.00 Build 0)  -->
<svg version="1.1" id="Layer_1" xmlns="http://www.w3.org/2000/svg" xmlns:xlink="http://www.w3.org/1999/xlink" x="0px" y="0px"
	 viewBox="0 0 150 150" style="enable-background:new 0 0 150 150;" xml:space="preserve">
<style type="text/css">
	.st0{fill:#333333;}
	.st1{fill:#E6E6E6;}
	.st2{fill:#8FC043;}
	.st3{fill:#F2F2F2;}
</style>
<g>
	<g>
		<path class="st0" d="M35.7,91.3C35.7,91.3,35.7,91.3,35.7,91.3c-2-0.1-3.9-0.4-5.8-0.9c-0.5-0.1-0.7-0.6-0.6-1
			c0.1-0.5,0.6-0.7,1-0.6c1.8,0.4,3.6,0.7,5.5,0.8c0.5,0,0.8,0.4,0.8,0.9C36.6,90.9,36.2,91.3,35.7,91.3z M41.4,91.1
			c-0.4,0-0.8-0.3-0.8-0.8c-0.1-0.5,0.3-0.9,0.7-0.9c1.2-0.1,2.4-0.3,3.6-0.6c0.6-0.1,1.2-0.3,1.9-0.5c0.5-0.1,0.9,0.1,1.1,0.6
			c0.1,0.5-0.1,0.9-0.6,1.1c-0.6,0.2-1.3,0.4-2,0.5C44,90.7,42.8,91,41.4,91.1C41.5,91.1,41.4,91.1,41.4,91.1z M24.7,88.5
			c-0.1,0-0.2,0-0.3-0.1c-1.8-0.8-3.5-1.8-5.1-2.9c-0.4-0.3-0.5-0.8-0.2-1.2c0.3-0.4,0.8-0.5,1.2-0.2c1.5,1,3.1,2,4.8,2.7
			c0.4,0.2,0.6,0.7,0.4,1.1C25.4,88.3,25.1,88.5,24.7,88.5z M52.3,87.9c-0.3,0-0.6-0.2-0.8-0.5c-0.2-0.4,0-0.9,0.4-1.1
			c1.6-0.8,3.2-1.8,4.7-2.9c0.4-0.3,0.9-0.2,1.2,0.2c0.3,0.4,0.2,0.9-0.2,1.2c-1.5,1.2-3.2,2.2-4.9,3.1
			C52.5,87.8,52.4,87.9,52.3,87.9z M15.4,82.1c-0.2,0-0.4-0.1-0.6-0.2c-1.4-1.4-2.7-2.9-3.8-4.4c-0.3-0.4-0.2-0.9,0.2-1.2
			s0.9-0.2,1.2,0.2c1.1,1.5,2.3,2.9,3.6,4.2c0.3,0.3,0.3,0.9,0,1.2C15.8,82.1,15.6,82.1,15.4,82.1z M61.3,81c-0.2,0-0.4-0.1-0.6-0.2
			c-0.3-0.3-0.4-0.9-0.1-1.2c1.2-1.4,2.4-2.8,3.4-4.4c0.3-0.4,0.8-0.5,1.2-0.3c0.4,0.3,0.5,0.8,0.3,1.2c-1,1.6-2.2,3.2-3.5,4.6
			C61.7,80.9,61.5,81,61.3,81z M8.9,72.9c-0.3,0-0.6-0.2-0.8-0.5c-0.8-1.8-1.5-3.6-2-5.5c-0.1-0.5,0.2-0.9,0.6-1
			c0.5-0.1,0.9,0.2,1,0.6c0.5,1.8,1.1,3.5,1.9,5.2c0.2,0.4,0,0.9-0.4,1.1C9.1,72.9,9,72.9,8.9,72.9z M67.3,71.4
			c-0.1,0-0.2,0-0.3-0.1c-0.4-0.2-0.6-0.7-0.5-1.1c0.7-1.7,1.2-3.5,1.6-5.3c0.1-0.5,0.6-0.8,1-0.7c0.5,0.1,0.8,0.5,0.7,1
			c-0.4,1.9-1,3.8-1.7,5.6C68,71.2,67.7,71.4,67.3,71.4z M69.7,60.4C69.7,60.4,69.6,60.4,69.7,60.4c-0.5,0-0.9-0.4-0.9-0.9
			c0-0.3,0-0.6,0-0.9c0-1.6-0.1-3.1-0.4-4.7c-0.1-0.5,0.2-0.9,0.7-1c0.5-0.1,0.9,0.3,1,0.7c0.2,1.6,0.4,3.3,0.4,4.9
			c0,0.3,0,0.6,0,0.9C70.5,60,70.1,60.4,69.7,60.4z M68,49.2c-0.4,0-0.7-0.2-0.8-0.6c-0.6-1.7-1.3-3.5-2.2-5.1
			c-0.2-0.4-0.1-0.9,0.3-1.2c0.4-0.2,0.9-0.1,1.2,0.3c0.9,1.7,1.7,3.5,2.4,5.3c0.2,0.4-0.1,0.9-0.5,1.1C68.1,49.1,68.1,49.2,68,49.2
			z M9.7,44.4c-0.1,0-0.3,0-0.4-0.1c-0.4-0.2-0.6-0.7-0.3-1.2c0.9-1.7,2-3.4,3.2-4.9c0.3-0.4,0.8-0.4,1.2-0.1
			c0.4,0.3,0.4,0.8,0.1,1.2c-1.1,1.4-2.2,3-3,4.6C10.3,44.2,10,44.4,9.7,44.4z M62.5,39.3c-0.2,0-0.5-0.1-0.7-0.3
			c-1.2-1.4-2.5-2.8-3.9-3.9c-0.4-0.3-0.4-0.8-0.1-1.2c0.3-0.4,0.8-0.4,1.2-0.1c1.5,1.3,2.9,2.7,4.1,4.2c0.3,0.4,0.2,0.9-0.1,1.2
			C62.9,39.2,62.7,39.3,62.5,39.3z M16.7,35.5c-0.2,0-0.5-0.1-0.6-0.3c-0.3-0.4-0.3-0.9,0.1-1.2c1.5-1.3,3-2.4,4.7-3.4
			c0.4-0.2,0.9-0.1,1.2,0.3c0.2,0.4,0.1,0.9-0.3,1.2c-1.6,1-3.1,2.1-4.5,3.3C17.1,35.4,16.9,35.5,16.7,35.5z M53.9,31.9
			c-0.1,0-0.3,0-0.4-0.1c-1.6-0.9-3.3-1.7-5-2.4c-0.4-0.2-0.7-0.7-0.5-1.1c0.2-0.4,0.7-0.7,1.1-0.5c1.8,0.7,3.6,1.5,5.3,2.5
			c0.4,0.2,0.5,0.8,0.3,1.2C54.4,31.8,54.2,31.9,53.9,31.9z M26.4,29.7c-0.3,0-0.7-0.2-0.8-0.6c-0.2-0.4,0.1-0.9,0.5-1.1
			c1.4-0.5,2.8-0.9,4.2-1.3c0.5-0.1,1-0.2,1.4-0.3c0.5-0.1,0.9,0.2,1,0.7c0.1,0.5-0.2,0.9-0.7,1c-0.5,0.1-0.9,0.2-1.4,0.3
			c-1.3,0.3-2.7,0.7-4,1.2C26.6,29.6,26.5,29.7,26.4,29.7z M43.2,28c0,0-0.1,0-0.1,0c-1.7-0.3-3.5-0.5-5.3-0.5l-0.3,0c0,0,0,0,0,0
			c-0.5,0-0.9-0.4-0.9-0.8c0-0.5,0.4-0.9,0.8-0.9l0.3,0c1.9,0,3.7,0.2,5.6,0.5c0.5,0.1,0.8,0.5,0.7,1C44,27.7,43.6,28,43.2,28z"/>
	</g>
	<g>
		<path class="st0" d="M38.6,31.7c-0.3,0-0.6-0.2-0.8-0.4c-0.2-0.4-0.1-0.9,0.3-1.2l4.9-2.7l-2.7-4.9c-0.2-0.4-0.1-0.9,0.3-1.2
			c0.4-0.2,0.9-0.1,1.2,0.3l3.1,5.7c0.2,0.4,0.1,0.9-0.3,1.2L39,31.6C38.9,31.7,38.8,31.7,38.6,31.7z"/>
	</g>
	<g>
		<path class="st1" d="M5.8,60.5C5.8,60.5,5.8,60.6,5.8,60.5c1.7-2.7,3.4-5.4,5.1-8.2c-1.1,0-2.1-0.1-3.2-0.1c0.1-1.7,0.1-3.3,0.2-5
			c0,0,0,0,0,0c-1.7,2.7-3.3,5.4-5,8.2c1.1,0,2.1,0.1,3.1,0.1C5.9,57.2,5.9,58.9,5.8,60.5z"/>
		<path class="st0" d="M5.9,61.4c-0.1,0-0.2,0-0.3-0.1c-0.3-0.1-0.6-0.5-0.6-0.8L5,58.8c0-0.8,0.1-1.6,0.1-2.4l-2.3-0.1
			c-0.3,0-0.6-0.2-0.7-0.5C2,55.5,2,55.2,2.1,55c1.4-2.3,2.8-4.6,4.2-6.9l0.8-1.3c0.2-0.3,0.6-0.5,1-0.4c0,0,0.1,0,0.1,0.1
			c0.3,0.1,0.5,0.5,0.5,0.8l-0.2,4.1l2.3,0.1c0.3,0,0.6,0.2,0.7,0.5c0.1,0.3,0.1,0.6,0,0.8l-5,8.2C6.4,61.3,6.1,61.4,5.9,61.4z
			 M4.3,54.6L6,54.7c0.5,0,0.8,0.4,0.8,0.9c0,0.6,0,1.2-0.1,1.8l2.6-4.3l-1.7-0.1c-0.5,0-0.8-0.4-0.8-0.9l0.1-1.8
			C6.1,51.8,5.2,53.2,4.3,54.6z"/>
	</g>
	<g>
		<path class="st0" d="M113.9,126.6c-0.5,0-1,0-1.5,0c-0.5,0-0.8-0.4-0.8-0.9c0-0.5,0.5-0.9,0.9-0.8c1.8,0.1,3.7,0,5.5-0.2
			c0.5-0.1,0.9,0.3,1,0.7c0.1,0.5-0.3,0.9-0.7,1C116.9,126.5,115.4,126.6,113.9,126.6z M106.9,125.8c-0.1,0-0.1,0-0.2,0
			c-1.9-0.4-3.8-1-5.6-1.8c-0.4-0.2-0.6-0.7-0.5-1.1c0.2-0.4,0.7-0.6,1.1-0.5c1.7,0.7,3.5,1.3,5.3,1.7c0.5,0.1,0.7,0.6,0.6,1
			C107.6,125.5,107.3,125.8,106.9,125.8z M123.7,125c-0.4,0-0.7-0.2-0.8-0.6c-0.1-0.4,0.1-0.9,0.6-1.1c1.8-0.6,3.5-1.3,5.1-2.2
			c0.4-0.2,0.9-0.1,1.2,0.3c0.2,0.4,0.1,0.9-0.3,1.2c-1.7,0.9-3.5,1.7-5.4,2.3C123.9,125,123.8,125,123.7,125z M96.4,121.4
			c-0.2,0-0.3,0-0.5-0.1c-1.6-1.1-3.2-2.3-4.6-3.6c-0.3-0.3-0.4-0.9,0-1.2c0.3-0.3,0.9-0.4,1.2,0c1.3,1.3,2.8,2.4,4.3,3.4
			c0.4,0.3,0.5,0.8,0.2,1.2C97,121.2,96.7,121.4,96.4,121.4z M133.7,119.7c-0.3,0-0.5-0.1-0.7-0.3c-0.3-0.4-0.2-0.9,0.1-1.2
			c1.4-1.1,2.8-2.4,4-3.8c0.3-0.4,0.9-0.4,1.2-0.1c0.4,0.3,0.4,0.9,0.1,1.2c-1.3,1.5-2.7,2.8-4.2,4
			C134.1,119.6,133.9,119.7,133.7,119.7z M88.2,113.6c-0.3,0-0.5-0.1-0.7-0.3c-1.2-1.6-2.2-3.2-3-5c-0.2-0.4,0-0.9,0.4-1.1
			c0.4-0.2,0.9,0,1.1,0.4c0.8,1.7,1.8,3.2,2.9,4.7c0.3,0.4,0.2,0.9-0.2,1.2C88.6,113.5,88.4,113.6,88.2,113.6z M83.3,103.4
			c-0.4,0-0.7-0.2-0.8-0.6c-0.5-1.9-0.9-3.8-1.1-5.7c0-0.5,0.3-0.9,0.8-0.9c0.5-0.1,0.9,0.3,0.9,0.8c0.2,1.8,0.5,3.7,1,5.4
			c0.1,0.5-0.1,0.9-0.6,1.1C83.4,103.4,83.3,103.4,83.3,103.4z M145.8,93.9c-0.5,0-0.8-0.4-0.9-0.8c0-1.9-0.3-3.7-0.6-5.5
			c-0.1-0.5,0.2-0.9,0.7-1c0.5-0.1,0.9,0.2,1,0.7c0.4,1.9,0.6,3.8,0.7,5.8C146.7,93.5,146.3,93.8,145.8,93.9
			C145.8,93.9,145.8,93.9,145.8,93.9z M82.2,92.1C82.1,92.1,82.1,92.1,82.2,92.1c-0.5,0-0.9-0.5-0.9-0.9c0.2-1.9,0.5-3.9,1-5.8
			c0.1-0.5,0.6-0.7,1-0.6c0.5,0.1,0.7,0.6,0.6,1c-0.5,1.8-0.8,3.6-0.9,5.5C83,91.8,82.6,92.1,82.2,92.1z M143.5,82.8
			c-0.3,0-0.7-0.2-0.8-0.5c-0.7-1.7-1.5-3.4-2.5-4.9c-0.3-0.4-0.1-0.9,0.3-1.2c0.4-0.3,0.9-0.1,1.2,0.3c1,1.6,1.9,3.4,2.7,5.2
			c0.2,0.4,0,0.9-0.5,1.1C143.7,82.8,143.6,82.8,143.5,82.8z M85.1,81.2c-0.1,0-0.2,0-0.4-0.1c-0.4-0.2-0.6-0.7-0.4-1.1
			c0.8-1.8,1.8-3.5,2.9-5c0.3-0.4,0.8-0.5,1.2-0.2c0.4,0.3,0.5,0.8,0.2,1.2c-1.1,1.5-2,3.1-2.8,4.8C85.7,81,85.4,81.2,85.1,81.2z
			 M137.5,73.2c-0.2,0-0.5-0.1-0.6-0.3c-1.2-1.4-2.6-2.6-4.1-3.7c-0.4-0.3-0.4-0.8-0.2-1.2c0.3-0.4,0.8-0.4,1.2-0.2
			c1.5,1.2,3,2.5,4.3,3.9c0.3,0.3,0.3,0.9-0.1,1.2C137.9,73.1,137.7,73.2,137.5,73.2z M91.6,71.9c-0.2,0-0.4-0.1-0.6-0.3
			c-0.3-0.3-0.3-0.9,0-1.2c1.4-1.4,2.9-2.6,4.5-3.7c0.4-0.3,0.9-0.2,1.2,0.2c0.3,0.4,0.2,0.9-0.2,1.2c-1.5,1-3,2.2-4.3,3.5
			C92,71.9,91.8,71.9,91.6,71.9z M128.5,66.3c-0.1,0-0.3,0-0.4-0.1c-1.6-0.8-3.4-1.5-5.1-2.1c-0.5-0.1-0.7-0.6-0.6-1.1
			c0.1-0.5,0.6-0.7,1.1-0.6c1.9,0.6,3.7,1.3,5.4,2.2c0.4,0.2,0.6,0.7,0.4,1.1C129.1,66.2,128.8,66.3,128.5,66.3z M101,65.6
			c-0.3,0-0.6-0.2-0.8-0.5c-0.2-0.4,0-0.9,0.4-1.1c1.8-0.8,3.6-1.4,5.5-1.9c0.5-0.1,0.9,0.2,1,0.6c0.1,0.5-0.2,0.9-0.6,1
			c-1.8,0.4-3.5,1-5.2,1.8C101.2,65.5,101.1,65.6,101,65.6z M117.6,63C117.6,63,117.6,63,117.6,63c-1.9-0.2-3.8-0.3-5.6-0.2
			c-0.5,0-0.9-0.3-0.9-0.8c0-0.5,0.3-0.9,0.8-0.9c1.9-0.1,3.9-0.1,5.8,0.2c0.5,0.1,0.8,0.5,0.8,0.9C118.4,62.7,118.1,63,117.6,63z"
			/>
	</g>
	<g>
		<path class="st1" d="M133.5,93.8H43.2c-2.4,0-4.4-2-4.4-4.4V47c0-2.4,2-4.4,4.4-4.4h90.3c2.4,0,4.4,2,4.4,4.4v42.5
			C137.8,91.9,135.9,93.8,133.5,93.8z"/>
		<path class="st0" d="M132.9,94.7H43.8c-3.2,0-5.8-2.6-5.8-5.8V47.6c0-3.2,2.6-5.8,5.8-5.8h89.1c3.2,0,5.8,2.6,5.8,5.8v41.3
			C138.7,92.1,136.1,94.7,132.9,94.7z M43.8,43.5c-2.3,0-4.1,1.8-4.1,4.1v41.3c0,2.3,1.8,4.1,4.1,4.1h89.1c2.3,0,4.1-1.8,4.1-4.1
			V47.6c0-2.3-1.8-4.1-4.1-4.1H43.8z"/>
	</g>
	<g>
		<path class="st2" d="M131.6,90.4H45c-1.5,0-2.8-1.3-2.8-2.8V49.1c0-1.5,1.3-2.8,2.8-2.8h86.6c1.5,0,2.8,1.3,2.8,2.8v38.6
			C134.4,89.2,133.2,90.4,131.6,90.4z"/>
		<path class="st0" d="M131.3,91.3H45.4c-2.2,0-4-1.8-4-4V49.4c0-2.2,1.8-4,4-4h85.9c2.2,0,4,1.8,4,4v37.8
			C135.3,89.5,133.5,91.3,131.3,91.3z M45.4,47.1c-1.3,0-2.3,1-2.3,2.3v37.8c0,1.3,1,2.3,2.3,2.3h85.9c1.3,0,2.3-1,2.3-2.3V49.4
			c0-1.3-1-2.3-2.3-2.3H45.4z"/>
	</g>
	<g>
		<circle class="st3" cx="87.7" cy="68.8" r="14.8"/>
		<path class="st0" d="M87.7,84.5c-8.6,0-15.7-7-15.7-15.7s7-15.7,15.7-15.7s15.7,7,15.7,15.7S96.4,84.5,87.7,84.5z M87.7,54.9
			c-7.7,0-13.9,6.3-13.9,13.9s6.3,13.9,13.9,13.9s13.9-6.3,13.9-13.9S95.4,54.9,87.7,54.9z"/>
	</g>
	<g>
		<g>
			<path class="st0" d="M89.9,76.5c-0.4,0-0.9,0-1.3,0c-0.4,0-0.9,0-1.3,0l-1.1,0c-0.8,0-1.5,0-2.3,0c-0.5,0-0.8-0.4-0.8-0.9
				c0-0.4,0.2-0.7,0.5-0.8c0-0.1,0-0.1,0-0.3c0.2-1.6,0.3-3.4,0.3-5.1c0-0.9-0.1-1.7-0.1-2.6c0-0.2,0-0.4-0.1-0.7
				c-0.1-0.6-0.1-1.2-0.1-1.8c0-0.8,0.3-1.5,0.6-2.1c0.6-0.9,1.5-1.5,2.7-1.7c1.8-0.3,3.4,0.3,4.4,1.8c0.3,0.4,0.1,0.9-0.2,1.2
				c-0.4,0.3-0.9,0.1-1.2-0.2c-0.6-0.9-1.6-1.3-2.7-1.1c-0.7,0.1-1.2,0.4-1.6,1c-0.2,0.3-0.3,0.7-0.4,1.3c0,0.5,0,1,0.1,1.5
				c0,0.2,0,0.5,0.1,0.7c0.1,0.9,0.1,1.8,0.1,2.7c0,1.9-0.1,3.7-0.3,5.4c0,0,0,0,0,0c0.3,0,0.5,0,0.8,0l1.1,0c0.4,0,0.9,0,1.3,0
				c0.9,0,1.8,0,2.7,0c0.6,0,0.9-0.2,1-1.1c0.1-0.5,0.5-0.8,1-0.7c0.5,0.1,0.8,0.5,0.7,1c-0.3,2.1-1.6,2.5-2.6,2.6
				C90.9,76.5,90.4,76.5,89.9,76.5z"/>
		</g>
		<g>
			<line class="st2" x1="82.1" y1="68.1" x2="88.8" y2="68.1"/>
			<path class="st0" d="M88.8,69h-6.7c-0.5,0-0.9-0.4-0.9-0.9c0-0.5,0.4-0.9,0.9-0.9h6.7c0.5,0,0.9,0.4,0.9,0.9
				C89.7,68.6,89.3,69,88.8,69z"/>
		</g>
	</g>
	<g>
		<path class="st1" d="M113,103H22.7c-2.4,0-4.4-2-4.4-4.4V56.1c0-2.4,2-4.4,4.4-4.4H113c2.4,0,4.4,2,4.4,4.4v42.5
			C117.3,101,115.4,103,113,103z"/>
		<path class="st0" d="M112.4,103.8H23.3c-3.2,0-5.8-2.6-5.8-5.8V56.7c0-3.2,2.6-5.8,5.8-5.8h89.1c3.2,0,5.8,2.6,5.8,5.8V98
			C118.2,101.2,115.6,103.8,112.4,103.8z M23.3,52.6c-2.3,0-4.1,1.8-4.1,4.1V98c0,2.3,1.8,4.1,4.1,4.1h89.1c2.3,0,4.1-1.8,4.1-4.1
			V56.7c0-2.3-1.8-4.1-4.1-4.1H23.3z"/>
	</g>
	<g>
		<path class="st2" d="M111.1,99.5H24.5c-1.5,0-2.8-1.3-2.8-2.8V58.2c0-1.5,1.3-2.8,2.8-2.8h86.6c1.5,0,2.8,1.3,2.8,2.8v38.6
			C113.9,98.3,112.7,99.5,111.1,99.5z"/>
		<path class="st0" d="M110.8,100.4H24.9c-2.2,0-4-1.8-4-4V58.5c0-2.2,1.8-4,4-4h85.9c2.2,0,4,1.8,4,4v37.8
			C114.8,98.6,113,100.4,110.8,100.4z M24.9,56.2c-1.3,0-2.3,1-2.3,2.3v37.8c0,1.3,1,2.3,2.3,2.3h85.9c1.3,0,2.3-1,2.3-2.3V58.5
			c0-1.3-1-2.3-2.3-2.3H24.9z"/>
	</g>
	<g>
		<circle class="st1" cx="67.3" cy="77.9" r="14.8"/>
		<path class="st0" d="M67.3,93.6c-8.6,0-15.7-7-15.7-15.7s7-15.7,15.7-15.7c8.6,0,15.7,7,15.7,15.7S75.9,93.6,67.3,93.6z M67.3,64
			c-7.7,0-13.9,6.3-13.9,13.9s6.3,13.9,13.9,13.9s13.9-6.3,13.9-13.9S74.9,64,67.3,64z"/>
	</g>
	<g>
		<g>
			<path class="st0" d="M69.4,85.6c-0.4,0-0.9,0-1.3,0c-0.4,0-0.9,0-1.3,0l-1.1,0c-0.8,0-1.5,0-2.3,0c-0.5,0-0.8-0.4-0.8-0.9
				c0-0.4,0.2-0.7,0.5-0.8c0-0.1,0-0.1,0-0.3c0.2-1.6,0.3-3.4,0.3-5.1c0-0.9-0.1-1.7-0.1-2.6c0-0.2,0-0.4-0.1-0.7
				c-0.1-0.6-0.1-1.2-0.1-1.8c0-0.8,0.3-1.5,0.6-2.1c0.6-0.9,1.5-1.5,2.7-1.7c1.8-0.3,3.4,0.3,4.4,1.8c0.3,0.4,0.1,0.9-0.2,1.2
				c-0.4,0.3-0.9,0.1-1.2-0.2c-0.6-0.9-1.6-1.3-2.7-1.1c-0.7,0.1-1.2,0.4-1.6,1c-0.2,0.3-0.3,0.7-0.4,1.3c0,0.5,0,1,0.1,1.5
				c0,0.2,0,0.5,0.1,0.7c0.1,0.9,0.1,1.8,0.1,2.7c0,1.9-0.1,3.7-0.3,5.4c0,0,0,0,0,0c0.3,0,0.5,0,0.8,0l1.1,0c0.4,0,0.9,0,1.3,0
				c0.9,0,1.8,0,2.7,0c0.6,0,0.9-0.2,1-1.1c0.1-0.5,0.5-0.8,1-0.7c0.5,0.1,0.8,0.5,0.7,1c-0.3,2.1-1.6,2.5-2.6,2.6
				C70.4,85.6,69.9,85.6,69.4,85.6z"/>
		</g>
		<g>
			<line class="st2" x1="61.6" y1="77.2" x2="68.4" y2="77.2"/>
			<path class="st0" d="M68.4,78.1h-6.7c-0.5,0-0.9-0.4-0.9-0.9c0-0.5,0.4-0.9,0.9-0.9h6.7c0.5,0,0.9,0.4,0.9,0.9
				C69.2,77.7,68.8,78.1,68.4,78.1z"/>
		</g>
	</g>
	<g>
		<path class="st0" d="M102.3,129.4c-0.4,0-0.7-0.3-0.8-0.6l-1.7-6.2c-0.1-0.5,0.1-0.9,0.6-1l6.2-1.7c0.5-0.1,0.9,0.1,1,0.6
			c0.1,0.5-0.1,0.9-0.6,1l-5.4,1.5l1.5,5.4c0.1,0.5-0.1,0.9-0.6,1C102.4,129.4,102.3,129.4,102.3,129.4z"/>
	</g>
	<g>
		<path class="st0" d="M96.9,86.7c-0.5,0-0.9-0.4-0.9-0.9V69.9c0-0.5,0.4-0.9,0.9-0.9c0.5,0,0.9,0.4,0.9,0.9v15.9
			C97.7,86.3,97.3,86.7,96.9,86.7z"/>
	</g>
	<g>
		<path class="st0" d="M37.7,86.7c-0.5,0-0.9-0.4-0.9-0.9V69.9c0-0.5,0.4-0.9,0.9-0.9s0.9,0.4,0.9,0.9v15.9
			C38.5,86.3,38.1,86.7,37.7,86.7z"/>
	</g>
	<g>
		<path class="st1" d="M144.9,99C144.9,99,144.9,99,144.9,99c-2.1,2.4-4.1,4.9-6.2,7.4c1.1,0.2,2.1,0.4,3.1,0.6
			c-0.3,1.6-0.6,3.3-0.9,4.9c0,0,0,0,0,0c2-2.5,4.1-4.9,6.1-7.4c-1-0.2-2.1-0.4-3.1-0.6C144.3,102.3,144.6,100.7,144.9,99z"/>
		<path class="st0" d="M141,112.8c-0.1,0-0.3,0-0.4-0.1c0,0-0.1-0.1-0.1-0.1c-0.3-0.2-0.4-0.5-0.3-0.8l0.7-4.1l-2.3-0.4
			c-0.3-0.1-0.5-0.3-0.6-0.5c-0.1-0.3-0.1-0.6,0.1-0.8l6.1-7.4c0.3-0.3,0.7-0.4,1.1-0.2c0.3,0.2,0.5,0.5,0.4,0.9l-0.3,1.5
			c-0.2,0.8-0.3,1.7-0.5,2.6l2.3,0.4c0.3,0.1,0.5,0.3,0.6,0.5c0.1,0.3,0.1,0.6-0.1,0.8c-1.9,2.3-3.7,4.5-5.6,6.8l-0.5,0.6
			C141.5,112.7,141.3,112.8,141,112.8z M140.4,105.9l1.7,0.3c0.5,0.1,0.8,0.5,0.7,1l-0.3,1.8c1.1-1.3,2.1-2.6,3.2-3.8l-1.7-0.3
			c-0.5-0.1-0.8-0.5-0.7-1c0.1-0.6,0.2-1.2,0.3-1.8L140.4,105.9z M144.9,99L144.9,99L144.9,99z"/>
	</g>
</g>
</svg>
