<?xml version="1.0" encoding="utf-8"?>
<!-- Generator: Adobe Illustrator 21.0.2, SVG Export Plug-In . SVG Version: 6.00 Build 0)  -->
<svg version="1.1" id="Layer_2" xmlns="http://www.w3.org/2000/svg" xmlns:xlink="http://www.w3.org/1999/xlink" x="0px" y="0px"
	 viewBox="0 0 470 329" style="enable-background:new 0 0 470 329;" xml:space="preserve">
<style type="text/css">
	.st0{fill:#F2F2F2;stroke:#E6E6E6;stroke-width:1.5;stroke-miterlimit:10;}
	.st1{fill:#FFFFFF;stroke:#E6E6E6;stroke-width:1.5;stroke-miterlimit:10;}
	.st2{fill:#8CC63F;stroke:#333333;stroke-width:1.5;stroke-miterlimit:10;}
	.st3{fill:none;stroke:#F2F2F2;stroke-width:1.5;stroke-linecap:round;stroke-miterlimit:10;}
	.st4{fill:none;stroke:#89BD49;stroke-width:1.5;stroke-linecap:round;stroke-miterlimit:10;}
	.st5{fill:#F5F5F5;stroke:#333333;stroke-width:1.5;stroke-miterlimit:10;}
	.st6{fill:#E7E6E6;}
	.st7{fill:none;stroke:#4D4D4D;stroke-width:1.5;stroke-linecap:round;stroke-miterlimit:10;}
	.st8{fill:#E6E6E6;}
	.st9{fill:#808080;}
	.st10{fill:#B3B3B3;stroke:#333333;stroke-width:1.5;stroke-miterlimit:10;}
	.st11{fill:none;stroke:#FFFFFF;stroke-width:1.5;stroke-linecap:round;stroke-miterlimit:10;}
	.st12{fill:none;stroke:#FFFFFF;stroke-width:1.5;stroke-linecap:round;stroke-miterlimit:10;stroke-dasharray:9.749,11.6989;}
	.st13{fill:#8CBF43;stroke:#333333;stroke-width:1.5;stroke-linecap:round;stroke-miterlimit:10;}
	.st14{fill:none;stroke:#333333;stroke-width:1.5;stroke-linecap:round;stroke-miterlimit:10;}
	.st15{fill:#F8F8F8;stroke:#333333;stroke-width:1.5;stroke-miterlimit:10;}
	.st16{fill:#E5E5E5;stroke:#333333;stroke-width:1.5;stroke-miterlimit:10;}
	.st17{fill:#E6E6E6;stroke:#333333;stroke-width:1.5;stroke-miterlimit:10;}
	.st18{fill:#ECECEC;stroke:#333333;stroke-width:1.5;stroke-miterlimit:10;}
	.st19{fill:#CCCCCC;stroke:#333333;stroke-width:1.5;stroke-miterlimit:10;}
	.st20{fill:none;stroke:#333333;stroke-width:1.5;stroke-linecap:round;stroke-linejoin:round;stroke-miterlimit:10;}
	.st21{fill:none;stroke:#333333;stroke-width:1.5;stroke-miterlimit:10;}
	.st22{fill:#D9D9D9;stroke:#333333;stroke-width:1.5;stroke-miterlimit:10;}
	.st23{fill:none;stroke:#FFFFFF;stroke-width:1.5;stroke-linecap:round;stroke-linejoin:round;}
	.st24{fill:#4D4D4D;stroke:#333333;stroke-width:1.5;stroke-linecap:round;stroke-miterlimit:10;}
	.st25{fill:#808080;stroke:#333333;stroke-width:1.5;stroke-miterlimit:10;}
	.st26{fill:#CCCCCC;stroke:#333333;stroke-width:1.5;stroke-linecap:round;stroke-miterlimit:10;}
	.st27{fill:none;stroke:#8CC03F;stroke-width:1.5;stroke-linecap:round;stroke-miterlimit:10;}
	.st28{fill:#FFFFFF;stroke:#333333;stroke-width:1.5;stroke-miterlimit:10;}
	.st29{fill:#8CBF47;stroke:#333333;stroke-width:1.5;stroke-miterlimit:10;}
	.st30{fill:none;stroke:#333333;stroke-width:1.5;}
	.st31{fill:none;stroke:#333333;stroke-width:1.5;stroke-linecap:round;stroke-linejoin:round;}
	.st32{fill-rule:evenodd;clip-rule:evenodd;fill:#262529;stroke:#333333;stroke-width:1.5;}
	
		.st33{fill-rule:evenodd;clip-rule:evenodd;fill:#E6E6E6;stroke:#333333;stroke-width:1.5;stroke-linecap:round;stroke-linejoin:round;}
	
		.st34{fill-rule:evenodd;clip-rule:evenodd;fill:#8CC63F;stroke:#333333;stroke-width:1.5;stroke-linecap:round;stroke-linejoin:round;}
	
		.st35{fill-rule:evenodd;clip-rule:evenodd;fill:none;stroke:#333333;stroke-width:1.5;stroke-linecap:round;stroke-linejoin:round;}
	.st36{fill:none;stroke:#333333;stroke-width:1.5;stroke-linecap:round;}
	.st37{fill:#E6E6E6;stroke:#E6E6E6;stroke-width:1.5;stroke-miterlimit:10;}
	.st38{fill:none;stroke:#E6E6E6;stroke-width:1.5;stroke-linecap:round;stroke-miterlimit:10;}
</style>
<g>
	<polyline class="st0" points="216.4,262 216.4,133.7 393.2,133.7 393.7,262.5 289.7,262.5 	"/>
	<path class="st0" d="M270.7,125.8h127.2c2.1,0,3.7,1.7,3.7,3.7v0.1c0,2.1-1.7,3.7-3.7,3.7H270.7"/>
	<path class="st1" d="M267.3,142.2l110.9-0.1c2.1,0,3.8,1.7,3.8,3.8v32.3c0,2.1-1.7,3.8-3.8,3.8H266"/>
	<path class="st1" d="M297.4,246.8h80.8c2.1,0,3.8-1.7,3.8-3.8v-32.3c0-2.1-1.7-3.8-3.8-3.8l-76.7,0.3c-2.3,0-4.1,1.8-4.1,4.1V246.8
		z"/>
	<path class="st0" d="M295.7,191.1h98.2c2.1,0,3.6,1.8,3.6,3.9v0.3c0,2.1-1.5,3.4-3.6,3.4h-98.2"/>
	<polyline class="st2" points="322.8,185 322.8,262.9 81.6,262.9 81.6,185 	"/>
	<polyline class="st2" points="81.6,175.5 81.6,102.5 322.8,102.5 322.8,175.5 	"/>
	<g>
		<line class="st3" x1="372.6" y1="226.7" x2="359.8" y2="241.4"/>
		<line class="st3" x1="376.7" y1="233.6" x2="371.3" y2="239.6"/>
	</g>
	<g>
		<line class="st3" x1="340.1" y1="150.1" x2="333.9" y2="155.1"/>
		<line class="st3" x1="352" y1="150.1" x2="333.9" y2="164.3"/>
	</g>
	<g>
		<g>
			<g>
				<line class="st4" x1="200.5" y1="191.2" x2="267.3" y2="191"/>
				<line class="st4" x1="200.5" y1="183.4" x2="267.3" y2="183.3"/>
				<line class="st4" x1="208.8" y1="190.9" x2="208.8" y2="183.8"/>
				<line class="st4" x1="217.3" y1="190.9" x2="217.3" y2="183.8"/>
				<line class="st4" x1="225.4" y1="190.9" x2="225.4" y2="183.8"/>
				<line class="st4" x1="233.9" y1="190.9" x2="233.9" y2="183.8"/>
				<line class="st4" x1="242.2" y1="190.9" x2="242.2" y2="183.8"/>
				<line class="st4" x1="250.7" y1="190.9" x2="250.7" y2="183.8"/>
				<line class="st4" x1="259.1" y1="190.9" x2="259.1" y2="183.8"/>
				<line class="st4" x1="200.6" y1="199.2" x2="267.3" y2="199"/>
				<line class="st4" x1="204.6" y1="198.9" x2="204.6" y2="191.8"/>
				<line class="st4" x1="213" y1="198.9" x2="213" y2="191.8"/>
				<line class="st4" x1="221.2" y1="198.9" x2="221.2" y2="191.8"/>
				<line class="st4" x1="229.7" y1="198.9" x2="229.7" y2="191.8"/>
				<line class="st4" x1="238" y1="198.9" x2="238" y2="191.8"/>
				<line class="st4" x1="246.5" y1="198.9" x2="246.5" y2="191.8"/>
				<line class="st4" x1="254.9" y1="198.9" x2="254.9" y2="191.8"/>
				<line class="st4" x1="263.7" y1="198.9" x2="263.7" y2="191.8"/>
				<line class="st4" x1="200.5" y1="207.3" x2="267.4" y2="207.1"/>
				<line class="st4" x1="208.8" y1="207" x2="208.8" y2="199.9"/>
				<line class="st4" x1="217.3" y1="207" x2="217.3" y2="199.9"/>
				<line class="st4" x1="225.5" y1="207" x2="225.5" y2="199.9"/>
				<line class="st4" x1="234" y1="207" x2="234" y2="199.9"/>
				<line class="st4" x1="242.2" y1="207" x2="242.2" y2="199.9"/>
				<line class="st4" x1="250.7" y1="207" x2="250.7" y2="199.9"/>
				<line class="st4" x1="259.2" y1="207" x2="259.2" y2="199.9"/>
				<line class="st4" x1="200.7" y1="215.3" x2="267.4" y2="215.1"/>
				<line class="st4" x1="204.6" y1="215" x2="204.6" y2="207.9"/>
				<line class="st4" x1="213.1" y1="215" x2="213.1" y2="207.9"/>
				<line class="st4" x1="221.3" y1="215" x2="221.3" y2="207.9"/>
				<line class="st4" x1="229.8" y1="215" x2="229.8" y2="207.9"/>
				<line class="st4" x1="238" y1="215" x2="238" y2="207.9"/>
				<line class="st4" x1="246.5" y1="215" x2="246.5" y2="207.9"/>
				<line class="st4" x1="255" y1="215" x2="255" y2="207.9"/>
				<line class="st4" x1="263.8" y1="215" x2="263.8" y2="207.9"/>
				<line class="st4" x1="200.8" y1="223" x2="267.7" y2="222.8"/>
				<line class="st4" x1="209.1" y1="222.7" x2="209.1" y2="215.6"/>
				<line class="st4" x1="217.6" y1="222.7" x2="217.6" y2="215.6"/>
				<line class="st4" x1="225.8" y1="222.7" x2="225.8" y2="215.6"/>
				<line class="st4" x1="234.3" y1="222.7" x2="234.3" y2="215.6"/>
				<line class="st4" x1="242.5" y1="222.7" x2="242.5" y2="215.6"/>
				<line class="st4" x1="251" y1="222.7" x2="251" y2="215.6"/>
				<line class="st4" x1="259.5" y1="222.7" x2="259.5" y2="215.6"/>
				<line class="st4" x1="201" y1="231" x2="267.7" y2="230.9"/>
				<line class="st4" x1="204.9" y1="230.7" x2="204.9" y2="223.6"/>
				<line class="st4" x1="213.4" y1="230.7" x2="213.4" y2="223.6"/>
				<line class="st4" x1="221.6" y1="230.7" x2="221.6" y2="223.6"/>
				<line class="st4" x1="230.1" y1="230.7" x2="230.1" y2="223.6"/>
				<line class="st4" x1="238.3" y1="230.7" x2="238.3" y2="223.6"/>
				<line class="st4" x1="246.8" y1="230.7" x2="246.8" y2="223.6"/>
				<line class="st4" x1="255.3" y1="230.7" x2="255.3" y2="223.6"/>
				<line class="st4" x1="264.1" y1="230.7" x2="264.1" y2="223.6"/>
				<line class="st4" x1="200.9" y1="239.1" x2="267.8" y2="238.9"/>
				<line class="st4" x1="209.2" y1="238.8" x2="209.2" y2="231.7"/>
				<line class="st4" x1="217.7" y1="238.8" x2="217.7" y2="231.7"/>
				<line class="st4" x1="225.8" y1="238.8" x2="225.8" y2="231.7"/>
				<line class="st4" x1="234.3" y1="238.8" x2="234.3" y2="231.7"/>
				<line class="st4" x1="242.6" y1="238.8" x2="242.6" y2="231.7"/>
				<line class="st4" x1="251.1" y1="238.8" x2="251.1" y2="231.7"/>
				<line class="st4" x1="259.6" y1="238.8" x2="259.6" y2="231.7"/>
				<line class="st4" x1="201" y1="247.1" x2="267.7" y2="247"/>
				<line class="st4" x1="205" y1="246.8" x2="205" y2="239.7"/>
				<line class="st4" x1="213.5" y1="246.8" x2="213.5" y2="239.7"/>
				<line class="st4" x1="221.6" y1="246.8" x2="221.6" y2="239.7"/>
				<line class="st4" x1="230.1" y1="246.8" x2="230.1" y2="239.7"/>
				<line class="st4" x1="238.4" y1="246.8" x2="238.4" y2="239.7"/>
				<line class="st4" x1="246.9" y1="246.8" x2="246.9" y2="239.7"/>
				<line class="st4" x1="255.3" y1="246.8" x2="255.3" y2="239.7"/>
				<line class="st4" x1="264.1" y1="246.8" x2="264.1" y2="239.7"/>
				<line class="st4" x1="200.8" y1="254.5" x2="267.7" y2="254.3"/>
				<line class="st4" x1="209.1" y1="254.1" x2="209.1" y2="247.1"/>
				<line class="st4" x1="217.6" y1="254.1" x2="217.6" y2="247.1"/>
				<line class="st4" x1="225.8" y1="254.1" x2="225.8" y2="247.1"/>
				<line class="st4" x1="234.3" y1="254.1" x2="234.3" y2="247.1"/>
				<line class="st4" x1="242.5" y1="254.1" x2="242.5" y2="247.1"/>
				<line class="st4" x1="251" y1="254.1" x2="251" y2="247.1"/>
				<line class="st4" x1="259.5" y1="254.1" x2="259.5" y2="247.1"/>
				<line class="st4" x1="201" y1="262.5" x2="267.7" y2="262.3"/>
				<line class="st4" x1="204.9" y1="262.2" x2="204.9" y2="255.1"/>
				<line class="st4" x1="213.4" y1="262.2" x2="213.4" y2="255.1"/>
				<line class="st4" x1="221.6" y1="262.2" x2="221.6" y2="255.1"/>
				<line class="st4" x1="230.1" y1="262.2" x2="230.1" y2="255.1"/>
				<line class="st4" x1="238.3" y1="262.2" x2="238.3" y2="255.1"/>
				<line class="st4" x1="246.8" y1="262.2" x2="246.8" y2="255.1"/>
				<line class="st4" x1="255.3" y1="262.2" x2="255.3" y2="255.1"/>
				<line class="st4" x1="264.1" y1="262.2" x2="264.1" y2="255.1"/>
				<line class="st4" x1="267.3" y1="191" x2="322.2" y2="190.8"/>
				<line class="st4" x1="267.3" y1="183.3" x2="322.2" y2="183.1"/>
				<line class="st4" x1="276.6" y1="190.7" x2="276.6" y2="183.6"/>
				<line class="st4" x1="285.1" y1="190.7" x2="285.1" y2="183.6"/>
				<line class="st4" x1="293.3" y1="190.7" x2="293.3" y2="183.6"/>
				<line class="st4" x1="301.8" y1="190.7" x2="301.8" y2="183.6"/>
				<line class="st4" x1="310" y1="190.7" x2="310" y2="183.6"/>
				<line class="st4" x1="318.5" y1="190.7" x2="318.5" y2="183.6"/>
				<line class="st4" x1="267.3" y1="199" x2="322.1" y2="198.9"/>
				<line class="st4" x1="272.4" y1="198.7" x2="272.4" y2="191.6"/>
				<line class="st4" x1="280.9" y1="198.7" x2="280.9" y2="191.6"/>
				<line class="st4" x1="289.1" y1="198.7" x2="289.1" y2="191.6"/>
				<line class="st4" x1="297.5" y1="198.7" x2="297.5" y2="191.6"/>
				<line class="st4" x1="305.8" y1="198.7" x2="305.8" y2="191.6"/>
				<line class="st4" x1="314.3" y1="198.7" x2="314.3" y2="191.6"/>
				<line class="st4" x1="267.4" y1="207.1" x2="322.2" y2="207"/>
				<line class="st4" x1="276.7" y1="206.8" x2="276.7" y2="199.7"/>
				<line class="st4" x1="285.2" y1="206.8" x2="285.2" y2="199.7"/>
				<line class="st4" x1="293.3" y1="206.8" x2="293.3" y2="199.7"/>
				<line class="st4" x1="301.8" y1="206.8" x2="301.8" y2="199.7"/>
				<line class="st4" x1="310.1" y1="206.8" x2="310.1" y2="199.7"/>
				<line class="st4" x1="318.6" y1="206.8" x2="318.6" y2="199.7"/>
				<line class="st4" x1="267.4" y1="215.1" x2="322.2" y2="215"/>
				<line class="st4" x1="272.5" y1="214.8" x2="272.5" y2="207.7"/>
				<line class="st4" x1="280.9" y1="214.8" x2="280.9" y2="207.7"/>
				<line class="st4" x1="289.1" y1="214.8" x2="289.1" y2="207.7"/>
				<line class="st4" x1="297.6" y1="214.8" x2="297.6" y2="207.7"/>
				<line class="st4" x1="305.9" y1="214.8" x2="305.9" y2="207.7"/>
				<line class="st4" x1="314.3" y1="214.8" x2="314.3" y2="207.7"/>
				<line class="st4" x1="267.6" y1="222.8" x2="322.4" y2="222.7"/>
				<line class="st4" x1="277" y1="222.5" x2="277" y2="215.4"/>
				<line class="st4" x1="285.5" y1="222.5" x2="285.5" y2="215.4"/>
				<line class="st4" x1="293.6" y1="222.5" x2="293.6" y2="215.4"/>
				<line class="st4" x1="302.1" y1="222.5" x2="302.1" y2="215.4"/>
				<line class="st4" x1="310.4" y1="222.5" x2="310.4" y2="215.4"/>
				<line class="st4" x1="318.9" y1="222.5" x2="318.9" y2="215.4"/>
				<line class="st4" x1="267.6" y1="230.9" x2="322.4" y2="230.7"/>
				<line class="st4" x1="272.8" y1="230.6" x2="272.8" y2="223.5"/>
				<line class="st4" x1="281.2" y1="230.6" x2="281.2" y2="223.5"/>
				<line class="st4" x1="289.4" y1="230.6" x2="289.4" y2="223.5"/>
				<line class="st4" x1="297.9" y1="230.6" x2="297.9" y2="223.5"/>
				<line class="st4" x1="306.2" y1="230.6" x2="306.2" y2="223.5"/>
				<line class="st4" x1="314.6" y1="230.6" x2="314.6" y2="223.5"/>
				<line class="st4" x1="267.7" y1="238.9" x2="322.5" y2="238.8"/>
				<line class="st4" x1="277" y1="238.6" x2="277" y2="231.5"/>
				<line class="st4" x1="285.5" y1="238.6" x2="285.5" y2="231.5"/>
				<line class="st4" x1="293.7" y1="238.6" x2="293.7" y2="231.5"/>
				<line class="st4" x1="302.2" y1="238.6" x2="302.2" y2="231.5"/>
				<line class="st4" x1="310.4" y1="238.6" x2="310.4" y2="231.5"/>
				<line class="st4" x1="318.9" y1="238.6" x2="318.9" y2="231.5"/>
				<line class="st4" x1="267.7" y1="247" x2="322.5" y2="246.8"/>
				<line class="st4" x1="272.8" y1="246.7" x2="272.8" y2="239.6"/>
				<line class="st4" x1="281.3" y1="246.7" x2="281.3" y2="239.6"/>
				<line class="st4" x1="289.5" y1="246.7" x2="289.5" y2="239.6"/>
				<line class="st4" x1="297.9" y1="246.7" x2="297.9" y2="239.6"/>
				<line class="st4" x1="306.2" y1="246.7" x2="306.2" y2="239.6"/>
				<line class="st4" x1="314.7" y1="246.7" x2="314.7" y2="239.6"/>
				<line class="st4" x1="267.6" y1="254.3" x2="322.4" y2="254.1"/>
				<line class="st4" x1="277" y1="254" x2="277" y2="246.9"/>
				<line class="st4" x1="285.5" y1="254" x2="285.5" y2="246.9"/>
				<line class="st4" x1="293.6" y1="254" x2="293.6" y2="246.9"/>
				<line class="st4" x1="302.1" y1="254" x2="302.1" y2="246.9"/>
				<line class="st4" x1="310.4" y1="254" x2="310.4" y2="246.9"/>
				<line class="st4" x1="318.9" y1="254" x2="318.9" y2="246.9"/>
				<line class="st4" x1="267.6" y1="262.3" x2="322.4" y2="262.2"/>
				<line class="st4" x1="272.8" y1="262" x2="272.8" y2="254.9"/>
				<line class="st4" x1="281.2" y1="262" x2="281.2" y2="254.9"/>
				<line class="st4" x1="289.4" y1="262" x2="289.4" y2="254.9"/>
				<line class="st4" x1="297.9" y1="262" x2="297.9" y2="254.9"/>
				<line class="st4" x1="306.2" y1="262" x2="306.2" y2="254.9"/>
				<line class="st4" x1="314.6" y1="262" x2="314.6" y2="254.9"/>
				<line class="st4" x1="268.1" y1="190.6" x2="268.1" y2="183.5"/>
				<line class="st4" x1="268.1" y1="206.7" x2="268.1" y2="199.6"/>
				<line class="st4" x1="268.4" y1="222.4" x2="268.4" y2="215.3"/>
				<line class="st4" x1="268.5" y1="238.5" x2="268.5" y2="231.4"/>
				<line class="st4" x1="268.4" y1="253.9" x2="268.4" y2="246.8"/>
			</g>
			<line class="st4" x1="200.6" y1="112.1" x2="267.4" y2="111.9"/>
			<line class="st4" x1="200.6" y1="104.3" x2="267.4" y2="104.1"/>
			<line class="st4" x1="208.9" y1="111.7" x2="208.9" y2="104.6"/>
			<line class="st4" x1="217.4" y1="111.7" x2="217.4" y2="104.6"/>
			<line class="st4" x1="225.5" y1="111.7" x2="225.5" y2="104.6"/>
			<line class="st4" x1="234" y1="111.7" x2="234" y2="104.6"/>
			<line class="st4" x1="242.3" y1="111.7" x2="242.3" y2="104.6"/>
			<line class="st4" x1="250.8" y1="111.7" x2="250.8" y2="104.6"/>
			<line class="st4" x1="259.2" y1="111.7" x2="259.2" y2="104.6"/>
			<line class="st4" x1="200.7" y1="120.1" x2="267.4" y2="119.9"/>
			<line class="st4" x1="204.7" y1="119.8" x2="204.7" y2="112.7"/>
			<line class="st4" x1="213.2" y1="119.8" x2="213.2" y2="112.7"/>
			<line class="st4" x1="221.3" y1="119.8" x2="221.3" y2="112.7"/>
			<line class="st4" x1="229.8" y1="119.8" x2="229.8" y2="112.7"/>
			<line class="st4" x1="238.1" y1="119.8" x2="238.1" y2="112.7"/>
			<line class="st4" x1="246.6" y1="119.8" x2="246.6" y2="112.7"/>
			<line class="st4" x1="255" y1="119.8" x2="255" y2="112.7"/>
			<line class="st4" x1="263.8" y1="119.8" x2="263.8" y2="112.7"/>
			<line class="st4" x1="200.7" y1="128.2" x2="267.5" y2="128"/>
			<line class="st4" x1="208.9" y1="127.8" x2="208.9" y2="120.7"/>
			<line class="st4" x1="217.4" y1="127.8" x2="217.4" y2="120.7"/>
			<line class="st4" x1="225.6" y1="127.8" x2="225.6" y2="120.7"/>
			<line class="st4" x1="234.1" y1="127.8" x2="234.1" y2="120.7"/>
			<line class="st4" x1="242.4" y1="127.8" x2="242.4" y2="120.7"/>
			<line class="st4" x1="250.8" y1="127.8" x2="250.8" y2="120.7"/>
			<line class="st4" x1="259.3" y1="127.8" x2="259.3" y2="120.7"/>
			<line class="st4" x1="200.8" y1="136.2" x2="267.5" y2="136"/>
			<line class="st4" x1="204.7" y1="135.9" x2="204.7" y2="128.8"/>
			<line class="st4" x1="213.2" y1="135.9" x2="213.2" y2="128.8"/>
			<line class="st4" x1="221.4" y1="135.9" x2="221.4" y2="128.8"/>
			<line class="st4" x1="229.9" y1="135.9" x2="229.9" y2="128.8"/>
			<line class="st4" x1="238.1" y1="135.9" x2="238.1" y2="128.8"/>
			<line class="st4" x1="246.6" y1="135.9" x2="246.6" y2="128.8"/>
			<line class="st4" x1="255.1" y1="135.9" x2="255.1" y2="128.8"/>
			<line class="st4" x1="263.9" y1="135.9" x2="263.9" y2="128.8"/>
			<line class="st4" x1="201" y1="143.9" x2="267.8" y2="143.7"/>
			<line class="st4" x1="209.2" y1="143.6" x2="209.2" y2="136.5"/>
			<line class="st4" x1="217.7" y1="143.6" x2="217.7" y2="136.5"/>
			<line class="st4" x1="225.9" y1="143.6" x2="225.9" y2="136.5"/>
			<line class="st4" x1="234.4" y1="143.6" x2="234.4" y2="136.5"/>
			<line class="st4" x1="242.7" y1="143.6" x2="242.7" y2="136.5"/>
			<line class="st4" x1="251.1" y1="143.6" x2="251.1" y2="136.5"/>
			<line class="st4" x1="259.6" y1="143.6" x2="259.6" y2="136.5"/>
			<line class="st4" x1="201.1" y1="151.9" x2="267.8" y2="151.7"/>
			<line class="st4" x1="205" y1="151.6" x2="205" y2="144.5"/>
			<line class="st4" x1="213.5" y1="151.6" x2="213.5" y2="144.5"/>
			<line class="st4" x1="221.7" y1="151.6" x2="221.7" y2="144.5"/>
			<line class="st4" x1="230.2" y1="151.6" x2="230.2" y2="144.5"/>
			<line class="st4" x1="238.4" y1="151.6" x2="238.4" y2="144.5"/>
			<line class="st4" x1="246.9" y1="151.6" x2="246.9" y2="144.5"/>
			<line class="st4" x1="255.4" y1="151.6" x2="255.4" y2="144.5"/>
			<line class="st4" x1="264.2" y1="151.6" x2="264.2" y2="144.5"/>
			<line class="st4" x1="201" y1="160" x2="267.9" y2="159.8"/>
			<line class="st4" x1="209.3" y1="159.7" x2="209.3" y2="152.6"/>
			<line class="st4" x1="217.8" y1="159.7" x2="217.8" y2="152.6"/>
			<line class="st4" x1="225.9" y1="159.7" x2="225.9" y2="152.6"/>
			<line class="st4" x1="234.4" y1="159.7" x2="234.4" y2="152.6"/>
			<line class="st4" x1="242.7" y1="159.7" x2="242.7" y2="152.6"/>
			<line class="st4" x1="251.2" y1="159.7" x2="251.2" y2="152.6"/>
			<line class="st4" x1="259.7" y1="159.7" x2="259.7" y2="152.6"/>
			<line class="st4" x1="201.1" y1="168" x2="267.8" y2="167.8"/>
			<line class="st4" x1="205.1" y1="167.7" x2="205.1" y2="160.6"/>
			<line class="st4" x1="213.6" y1="167.7" x2="213.6" y2="160.6"/>
			<line class="st4" x1="221.7" y1="167.7" x2="221.7" y2="160.6"/>
			<line class="st4" x1="230.2" y1="167.7" x2="230.2" y2="160.6"/>
			<line class="st4" x1="238.5" y1="167.7" x2="238.5" y2="160.6"/>
			<line class="st4" x1="247" y1="167.7" x2="247" y2="160.6"/>
			<line class="st4" x1="255.4" y1="167.7" x2="255.4" y2="160.6"/>
			<line class="st4" x1="264.2" y1="167.7" x2="264.2" y2="160.6"/>
			<line class="st4" x1="201" y1="175.4" x2="267.8" y2="175.2"/>
			<line class="st4" x1="209.2" y1="175" x2="209.2" y2="167.9"/>
			<line class="st4" x1="217.7" y1="175" x2="217.7" y2="167.9"/>
			<line class="st4" x1="225.9" y1="175" x2="225.9" y2="167.9"/>
			<line class="st4" x1="234.4" y1="175" x2="234.4" y2="167.9"/>
			<line class="st4" x1="242.7" y1="175" x2="242.7" y2="167.9"/>
			<line class="st4" x1="251.1" y1="175" x2="251.1" y2="167.9"/>
			<line class="st4" x1="259.6" y1="175" x2="259.6" y2="167.9"/>
			<line class="st4" x1="205" y1="183.1" x2="205" y2="176"/>
			<line class="st4" x1="213.5" y1="183.1" x2="213.5" y2="176"/>
			<line class="st4" x1="221.7" y1="183.1" x2="221.7" y2="176"/>
			<line class="st4" x1="230.2" y1="183.1" x2="230.2" y2="176"/>
			<line class="st4" x1="238.4" y1="183.1" x2="238.4" y2="176"/>
			<line class="st4" x1="246.9" y1="183.1" x2="246.9" y2="176"/>
			<line class="st4" x1="255.4" y1="183.1" x2="255.4" y2="176"/>
			<line class="st4" x1="264.2" y1="183.1" x2="264.2" y2="176"/>
			<line class="st4" x1="267.4" y1="111.9" x2="322.3" y2="111.7"/>
			<line class="st4" x1="267.4" y1="104.1" x2="322.3" y2="104"/>
			<line class="st4" x1="276.7" y1="111.6" x2="276.7" y2="104.5"/>
			<line class="st4" x1="285.2" y1="111.6" x2="285.2" y2="104.5"/>
			<line class="st4" x1="293.4" y1="111.6" x2="293.4" y2="104.5"/>
			<line class="st4" x1="301.9" y1="111.6" x2="301.9" y2="104.5"/>
			<line class="st4" x1="310.1" y1="111.6" x2="310.1" y2="104.5"/>
			<line class="st4" x1="318.6" y1="111.6" x2="318.6" y2="104.5"/>
			<line class="st4" x1="267.4" y1="119.9" x2="322.2" y2="119.8"/>
			<line class="st4" x1="272.5" y1="119.6" x2="272.5" y2="112.5"/>
			<line class="st4" x1="281" y1="119.6" x2="281" y2="112.5"/>
			<line class="st4" x1="289.2" y1="119.6" x2="289.2" y2="112.5"/>
			<line class="st4" x1="297.6" y1="119.6" x2="297.6" y2="112.5"/>
			<line class="st4" x1="305.9" y1="119.6" x2="305.9" y2="112.5"/>
			<line class="st4" x1="314.4" y1="119.6" x2="314.4" y2="112.5"/>
			<line class="st4" x1="267.5" y1="128" x2="322.3" y2="127.8"/>
			<line class="st4" x1="276.8" y1="127.7" x2="276.8" y2="120.6"/>
			<line class="st4" x1="285.3" y1="127.7" x2="285.3" y2="120.6"/>
			<line class="st4" x1="293.4" y1="127.7" x2="293.4" y2="120.6"/>
			<line class="st4" x1="301.9" y1="127.7" x2="301.9" y2="120.6"/>
			<line class="st4" x1="310.2" y1="127.7" x2="310.2" y2="120.6"/>
			<line class="st4" x1="318.7" y1="127.7" x2="318.7" y2="120.6"/>
			<line class="st4" x1="267.5" y1="136" x2="322.3" y2="135.9"/>
			<line class="st4" x1="272.6" y1="135.7" x2="272.6" y2="128.6"/>
			<line class="st4" x1="281" y1="135.7" x2="281" y2="128.6"/>
			<line class="st4" x1="289.2" y1="135.7" x2="289.2" y2="128.6"/>
			<line class="st4" x1="297.7" y1="135.7" x2="297.7" y2="128.6"/>
			<line class="st4" x1="306" y1="135.7" x2="306" y2="128.6"/>
			<line class="st4" x1="314.5" y1="135.7" x2="314.5" y2="128.6"/>
			<line class="st4" x1="267.7" y1="143.7" x2="322.5" y2="143.6"/>
			<line class="st4" x1="277.1" y1="143.4" x2="277.1" y2="136.3"/>
			<line class="st4" x1="285.6" y1="143.4" x2="285.6" y2="136.3"/>
			<line class="st4" x1="293.7" y1="143.4" x2="293.7" y2="136.3"/>
			<line class="st4" x1="302.2" y1="143.4" x2="302.2" y2="136.3"/>
			<line class="st4" x1="310.5" y1="143.4" x2="310.5" y2="136.3"/>
			<line class="st4" x1="319" y1="143.4" x2="319" y2="136.3"/>
			<line class="st4" x1="267.7" y1="151.7" x2="322.5" y2="151.6"/>
			<line class="st4" x1="272.9" y1="151.4" x2="272.9" y2="144.3"/>
			<line class="st4" x1="281.3" y1="151.4" x2="281.3" y2="144.3"/>
			<line class="st4" x1="289.5" y1="151.4" x2="289.5" y2="144.3"/>
			<line class="st4" x1="298" y1="151.4" x2="298" y2="144.3"/>
			<line class="st4" x1="306.3" y1="151.4" x2="306.3" y2="144.3"/>
			<line class="st4" x1="314.8" y1="151.4" x2="314.8" y2="144.3"/>
			<line class="st4" x1="267.8" y1="159.8" x2="322.6" y2="159.7"/>
			<line class="st4" x1="277.1" y1="159.5" x2="277.1" y2="152.4"/>
			<line class="st4" x1="285.6" y1="159.5" x2="285.6" y2="152.4"/>
			<line class="st4" x1="293.8" y1="159.5" x2="293.8" y2="152.4"/>
			<line class="st4" x1="302.3" y1="159.5" x2="302.3" y2="152.4"/>
			<line class="st4" x1="310.5" y1="159.5" x2="310.5" y2="152.4"/>
			<line class="st4" x1="319" y1="159.5" x2="319" y2="152.4"/>
			<line class="st4" x1="267.8" y1="167.8" x2="322.6" y2="167.7"/>
			<line class="st4" x1="272.9" y1="167.5" x2="272.9" y2="160.4"/>
			<line class="st4" x1="281.4" y1="167.5" x2="281.4" y2="160.4"/>
			<line class="st4" x1="289.6" y1="167.5" x2="289.6" y2="160.4"/>
			<line class="st4" x1="298.1" y1="167.5" x2="298.1" y2="160.4"/>
			<line class="st4" x1="306.3" y1="167.5" x2="306.3" y2="160.4"/>
			<line class="st4" x1="314.8" y1="167.5" x2="314.8" y2="160.4"/>
			<line class="st4" x1="267.7" y1="175.2" x2="322.5" y2="175"/>
			<line class="st4" x1="277.1" y1="174.9" x2="277.1" y2="167.8"/>
			<line class="st4" x1="285.6" y1="174.9" x2="285.6" y2="167.8"/>
			<line class="st4" x1="293.7" y1="174.9" x2="293.7" y2="167.8"/>
			<line class="st4" x1="302.2" y1="174.9" x2="302.2" y2="167.8"/>
			<line class="st4" x1="310.5" y1="174.9" x2="310.5" y2="167.8"/>
			<line class="st4" x1="319" y1="174.9" x2="319" y2="167.8"/>
			<line class="st4" x1="272.9" y1="182.9" x2="272.9" y2="175.8"/>
			<line class="st4" x1="281.3" y1="182.9" x2="281.3" y2="175.8"/>
			<line class="st4" x1="289.5" y1="182.9" x2="289.5" y2="175.8"/>
			<line class="st4" x1="298" y1="182.9" x2="298" y2="175.8"/>
			<line class="st4" x1="306.3" y1="182.9" x2="306.3" y2="175.8"/>
			<line class="st4" x1="314.8" y1="182.9" x2="314.8" y2="175.8"/>
			<line class="st4" x1="268.2" y1="111.5" x2="268.2" y2="104.4"/>
			<line class="st4" x1="268.2" y1="127.6" x2="268.2" y2="120.5"/>
			<line class="st4" x1="268.5" y1="143.3" x2="268.5" y2="136.2"/>
			<line class="st4" x1="268.6" y1="159.4" x2="268.6" y2="152.3"/>
			<line class="st4" x1="268.5" y1="174.8" x2="268.5" y2="167.7"/>
		</g>
		<g>
			<g>
				<line class="st4" x1="81.7" y1="190.9" x2="148.6" y2="191"/>
				<line class="st4" x1="81.8" y1="183.1" x2="148.6" y2="183.3"/>
				<line class="st4" x1="90" y1="190.6" x2="90.1" y2="183.5"/>
				<line class="st4" x1="98.5" y1="190.6" x2="98.5" y2="183.5"/>
				<line class="st4" x1="106.7" y1="190.7" x2="106.7" y2="183.6"/>
				<line class="st4" x1="115.2" y1="190.7" x2="115.2" y2="183.6"/>
				<line class="st4" x1="123.4" y1="190.7" x2="123.5" y2="183.7"/>
				<line class="st4" x1="131.9" y1="190.8" x2="131.9" y2="183.7"/>
				<line class="st4" x1="140.4" y1="190.8" x2="140.4" y2="183.7"/>
				<line class="st4" x1="81.8" y1="198.9" x2="148.6" y2="199.1"/>
				<line class="st4" x1="85.8" y1="198.6" x2="85.8" y2="191.5"/>
				<line class="st4" x1="94.3" y1="198.6" x2="94.3" y2="191.5"/>
				<line class="st4" x1="102.4" y1="198.7" x2="102.5" y2="191.6"/>
				<line class="st4" x1="110.9" y1="198.7" x2="110.9" y2="191.6"/>
				<line class="st4" x1="119.2" y1="198.8" x2="119.2" y2="191.7"/>
				<line class="st4" x1="127.7" y1="198.8" x2="127.7" y2="191.7"/>
				<line class="st4" x1="136.2" y1="198.9" x2="136.2" y2="191.8"/>
				<line class="st4" x1="144.9" y1="198.9" x2="145" y2="191.8"/>
				<line class="st4" x1="81.8" y1="207" x2="148.6" y2="207.1"/>
				<line class="st4" x1="90" y1="206.7" x2="90.1" y2="199.6"/>
				<line class="st4" x1="98.5" y1="206.7" x2="98.6" y2="199.6"/>
				<line class="st4" x1="106.7" y1="206.8" x2="106.7" y2="199.7"/>
				<line class="st4" x1="115.2" y1="206.8" x2="115.2" y2="199.7"/>
				<line class="st4" x1="123.5" y1="206.9" x2="123.5" y2="199.8"/>
				<line class="st4" x1="131.9" y1="206.9" x2="132" y2="199.8"/>
				<line class="st4" x1="140.4" y1="206.9" x2="140.4" y2="199.8"/>
				<line class="st4" x1="81.8" y1="215" x2="148.6" y2="215.2"/>
				<line class="st4" x1="85.8" y1="214.7" x2="85.8" y2="207.6"/>
				<line class="st4" x1="94.3" y1="214.7" x2="94.3" y2="207.6"/>
				<line class="st4" x1="102.5" y1="214.8" x2="102.5" y2="207.7"/>
				<line class="st4" x1="110.9" y1="214.8" x2="111" y2="207.7"/>
				<line class="st4" x1="119.2" y1="214.9" x2="119.2" y2="207.8"/>
				<line class="st4" x1="127.7" y1="214.9" x2="127.7" y2="207.8"/>
				<line class="st4" x1="136.2" y1="215" x2="136.2" y2="207.9"/>
				<line class="st4" x1="145" y1="215" x2="145" y2="207.9"/>
				<line class="st4" x1="82" y1="222.7" x2="148.9" y2="222.9"/>
				<line class="st4" x1="90.3" y1="222.4" x2="90.3" y2="215.3"/>
				<line class="st4" x1="98.8" y1="222.4" x2="98.8" y2="215.3"/>
				<line class="st4" x1="107" y1="222.5" x2="107" y2="215.4"/>
				<line class="st4" x1="115.4" y1="222.5" x2="115.5" y2="215.4"/>
				<line class="st4" x1="123.7" y1="222.6" x2="123.7" y2="215.5"/>
				<line class="st4" x1="132.2" y1="222.6" x2="132.2" y2="215.5"/>
				<line class="st4" x1="140.7" y1="222.7" x2="140.7" y2="215.6"/>
				<line class="st4" x1="82.1" y1="230.7" x2="148.8" y2="230.9"/>
				<line class="st4" x1="86.1" y1="230.4" x2="86.1" y2="223.3"/>
				<line class="st4" x1="94.5" y1="230.5" x2="94.6" y2="223.4"/>
				<line class="st4" x1="102.7" y1="230.5" x2="102.7" y2="223.4"/>
				<line class="st4" x1="111.2" y1="230.5" x2="111.2" y2="223.4"/>
				<line class="st4" x1="119.5" y1="230.6" x2="119.5" y2="223.5"/>
				<line class="st4" x1="128" y1="230.6" x2="128" y2="223.5"/>
				<line class="st4" x1="136.4" y1="230.7" x2="136.4" y2="223.6"/>
				<line class="st4" x1="145.2" y1="230.7" x2="145.2" y2="223.6"/>
				<line class="st4" x1="82" y1="238.8" x2="148.9" y2="239"/>
				<line class="st4" x1="90.3" y1="238.5" x2="90.3" y2="231.4"/>
				<line class="st4" x1="98.8" y1="238.5" x2="98.8" y2="231.4"/>
				<line class="st4" x1="107" y1="238.6" x2="107" y2="231.5"/>
				<line class="st4" x1="115.5" y1="238.6" x2="115.5" y2="231.5"/>
				<line class="st4" x1="123.7" y1="238.7" x2="123.7" y2="231.6"/>
				<line class="st4" x1="132.2" y1="238.7" x2="132.2" y2="231.6"/>
				<line class="st4" x1="140.7" y1="238.8" x2="140.7" y2="231.7"/>
				<line class="st4" x1="82.1" y1="246.8" x2="148.8" y2="247"/>
				<line class="st4" x1="86.1" y1="246.5" x2="86.1" y2="239.4"/>
				<line class="st4" x1="94.6" y1="246.6" x2="94.6" y2="239.5"/>
				<line class="st4" x1="102.7" y1="246.6" x2="102.7" y2="239.5"/>
				<line class="st4" x1="111.2" y1="246.6" x2="111.2" y2="239.6"/>
				<line class="st4" x1="119.5" y1="246.7" x2="119.5" y2="239.6"/>
				<line class="st4" x1="128" y1="246.7" x2="128" y2="239.6"/>
				<line class="st4" x1="136.4" y1="246.8" x2="136.5" y2="239.7"/>
				<line class="st4" x1="145.2" y1="246.8" x2="145.2" y2="239.7"/>
				<line class="st4" x1="81.9" y1="254.2" x2="148.8" y2="254.3"/>
				<line class="st4" x1="90.2" y1="253.9" x2="90.2" y2="246.8"/>
				<line class="st4" x1="98.7" y1="253.9" x2="98.7" y2="246.8"/>
				<line class="st4" x1="106.9" y1="254" x2="106.9" y2="246.9"/>
				<line class="st4" x1="115.4" y1="254" x2="115.4" y2="246.9"/>
				<line class="st4" x1="123.6" y1="254" x2="123.7" y2="247"/>
				<line class="st4" x1="132.1" y1="254.1" x2="132.1" y2="247"/>
				<line class="st4" x1="140.6" y1="254.1" x2="140.6" y2="247"/>
				<line class="st4" x1="82" y1="262.2" x2="148.7" y2="262.4"/>
				<line class="st4" x1="86" y1="261.9" x2="86" y2="254.8"/>
				<line class="st4" x1="94.5" y1="261.9" x2="94.5" y2="254.8"/>
				<line class="st4" x1="102.6" y1="262" x2="102.6" y2="254.9"/>
				<line class="st4" x1="111.1" y1="262" x2="111.1" y2="254.9"/>
				<line class="st4" x1="119.4" y1="262.1" x2="119.4" y2="255"/>
				<line class="st4" x1="127.9" y1="262.1" x2="127.9" y2="255"/>
				<line class="st4" x1="136.3" y1="262.2" x2="136.4" y2="255.1"/>
				<line class="st4" x1="145.1" y1="262.2" x2="145.1" y2="255.1"/>
				<line class="st4" x1="148.6" y1="191" x2="203.4" y2="191.2"/>
				<line class="st4" x1="148.6" y1="183.3" x2="203.4" y2="183.4"/>
				<line class="st4" x1="157.9" y1="190.8" x2="157.9" y2="183.7"/>
				<line class="st4" x1="166.4" y1="190.8" x2="166.4" y2="183.7"/>
				<line class="st4" x1="174.5" y1="190.9" x2="174.5" y2="183.8"/>
				<line class="st4" x1="183" y1="190.9" x2="183" y2="183.8"/>
				<line class="st4" x1="191.3" y1="190.9" x2="191.3" y2="183.9"/>
				<line class="st4" x1="199.8" y1="191" x2="199.8" y2="183.9"/>
				<line class="st4" x1="148.6" y1="199.1" x2="203.4" y2="199.2"/>
				<line class="st4" x1="153.6" y1="198.8" x2="153.7" y2="191.7"/>
				<line class="st4" x1="162.1" y1="198.8" x2="162.1" y2="191.7"/>
				<line class="st4" x1="170.3" y1="198.9" x2="170.3" y2="191.8"/>
				<line class="st4" x1="178.8" y1="198.9" x2="178.8" y2="191.8"/>
				<line class="st4" x1="187" y1="199" x2="187.1" y2="191.9"/>
				<line class="st4" x1="195.5" y1="199" x2="195.5" y2="191.9"/>
				<line class="st4" x1="148.6" y1="207.1" x2="203.4" y2="207.3"/>
				<line class="st4" x1="157.9" y1="206.9" x2="157.9" y2="199.8"/>
				<line class="st4" x1="166.4" y1="206.9" x2="166.4" y2="199.8"/>
				<line class="st4" x1="174.5" y1="207" x2="174.6" y2="199.9"/>
				<line class="st4" x1="183" y1="207" x2="183" y2="199.9"/>
				<line class="st4" x1="191.3" y1="207.1" x2="191.3" y2="200"/>
				<line class="st4" x1="199.8" y1="207.1" x2="199.8" y2="200"/>
				<line class="st4" x1="148.6" y1="215.2" x2="203.4" y2="215.3"/>
				<line class="st4" x1="153.6" y1="214.9" x2="153.7" y2="207.8"/>
				<line class="st4" x1="162.1" y1="214.9" x2="162.1" y2="207.8"/>
				<line class="st4" x1="170.3" y1="215" x2="170.3" y2="207.9"/>
				<line class="st4" x1="178.8" y1="215" x2="178.8" y2="207.9"/>
				<line class="st4" x1="187.1" y1="215.1" x2="187.1" y2="208"/>
				<line class="st4" x1="195.5" y1="215.1" x2="195.6" y2="208"/>
				<line class="st4" x1="148.8" y1="222.9" x2="203.6" y2="223"/>
				<line class="st4" x1="158.1" y1="222.6" x2="158.2" y2="215.5"/>
				<line class="st4" x1="166.6" y1="222.6" x2="166.6" y2="215.5"/>
				<line class="st4" x1="174.8" y1="222.7" x2="174.8" y2="215.6"/>
				<line class="st4" x1="183.3" y1="222.7" x2="183.3" y2="215.6"/>
				<line class="st4" x1="191.6" y1="222.8" x2="191.6" y2="215.7"/>
				<line class="st4" x1="200" y1="222.8" x2="200.1" y2="215.7"/>
				<line class="st4" x1="148.8" y1="230.9" x2="203.6" y2="231"/>
				<line class="st4" x1="153.9" y1="230.6" x2="153.9" y2="223.5"/>
				<line class="st4" x1="162.4" y1="230.7" x2="162.4" y2="223.6"/>
				<line class="st4" x1="170.6" y1="230.7" x2="170.6" y2="223.6"/>
				<line class="st4" x1="179" y1="230.7" x2="179.1" y2="223.6"/>
				<line class="st4" x1="187.3" y1="230.8" x2="187.3" y2="223.7"/>
				<line class="st4" x1="195.8" y1="230.8" x2="195.8" y2="223.7"/>
				<line class="st4" x1="148.8" y1="239" x2="203.6" y2="239.1"/>
				<line class="st4" x1="158.2" y1="238.7" x2="158.2" y2="231.6"/>
				<line class="st4" x1="166.6" y1="238.7" x2="166.7" y2="231.6"/>
				<line class="st4" x1="174.8" y1="238.8" x2="174.8" y2="231.7"/>
				<line class="st4" x1="183.3" y1="238.8" x2="183.3" y2="231.7"/>
				<line class="st4" x1="191.6" y1="238.9" x2="191.6" y2="231.8"/>
				<line class="st4" x1="200.1" y1="238.9" x2="200.1" y2="231.8"/>
				<line class="st4" x1="148.8" y1="247" x2="203.6" y2="247.1"/>
				<line class="st4" x1="153.9" y1="246.7" x2="153.9" y2="239.6"/>
				<line class="st4" x1="162.4" y1="246.8" x2="162.4" y2="239.7"/>
				<line class="st4" x1="170.6" y1="246.8" x2="170.6" y2="239.7"/>
				<line class="st4" x1="179" y1="246.8" x2="179.1" y2="239.8"/>
				<line class="st4" x1="187.3" y1="246.9" x2="187.3" y2="239.8"/>
				<line class="st4" x1="195.8" y1="246.9" x2="195.8" y2="239.8"/>
				<line class="st4" x1="148.7" y1="254.3" x2="203.5" y2="254.5"/>
				<line class="st4" x1="158.1" y1="254.1" x2="158.1" y2="247"/>
				<line class="st4" x1="166.5" y1="254.1" x2="166.6" y2="247"/>
				<line class="st4" x1="174.7" y1="254.2" x2="174.7" y2="247.1"/>
				<line class="st4" x1="183.2" y1="254.2" x2="183.2" y2="247.1"/>
				<line class="st4" x1="191.5" y1="254.2" x2="191.5" y2="247.1"/>
				<line class="st4" x1="200" y1="254.3" x2="200" y2="247.2"/>
				<line class="st4" x1="148.7" y1="262.4" x2="203.5" y2="262.5"/>
				<line class="st4" x1="153.8" y1="262.1" x2="153.8" y2="255"/>
				<line class="st4" x1="162.3" y1="262.1" x2="162.3" y2="255"/>
				<line class="st4" x1="170.5" y1="262.2" x2="170.5" y2="255.1"/>
				<line class="st4" x1="179" y1="262.2" x2="179" y2="255.1"/>
				<line class="st4" x1="187.2" y1="262.3" x2="187.2" y2="255.2"/>
				<line class="st4" x1="195.7" y1="262.3" x2="195.7" y2="255.2"/>
				<line class="st4" x1="149.3" y1="190.6" x2="149.3" y2="183.5"/>
				<line class="st4" x1="149.3" y1="206.7" x2="149.3" y2="199.6"/>
				<line class="st4" x1="149.6" y1="222.5" x2="149.6" y2="215.4"/>
				<line class="st4" x1="149.6" y1="238.6" x2="149.6" y2="231.5"/>
				<line class="st4" x1="149.5" y1="253.9" x2="149.5" y2="246.8"/>
			</g>
			<line class="st4" x1="82.1" y1="111.8" x2="148.9" y2="111.9"/>
			<line class="st4" x1="82.1" y1="104" x2="148.9" y2="104.2"/>
			<line class="st4" x1="90.4" y1="111.5" x2="90.4" y2="104.4"/>
			<line class="st4" x1="98.8" y1="111.5" x2="98.9" y2="104.4"/>
			<line class="st4" x1="107" y1="111.5" x2="107" y2="104.5"/>
			<line class="st4" x1="115.5" y1="111.6" x2="115.5" y2="104.5"/>
			<line class="st4" x1="123.8" y1="111.6" x2="123.8" y2="104.5"/>
			<line class="st4" x1="132.2" y1="111.7" x2="132.3" y2="104.6"/>
			<line class="st4" x1="140.7" y1="111.7" x2="140.7" y2="104.6"/>
			<line class="st4" x1="82.1" y1="119.8" x2="148.9" y2="119.9"/>
			<line class="st4" x1="86.1" y1="119.5" x2="86.1" y2="112.4"/>
			<line class="st4" x1="94.6" y1="119.5" x2="94.6" y2="112.4"/>
			<line class="st4" x1="102.8" y1="119.6" x2="102.8" y2="112.5"/>
			<line class="st4" x1="111.2" y1="119.6" x2="111.3" y2="112.5"/>
			<line class="st4" x1="119.5" y1="119.7" x2="119.5" y2="112.6"/>
			<line class="st4" x1="128" y1="119.7" x2="128" y2="112.6"/>
			<line class="st4" x1="136.5" y1="119.7" x2="136.5" y2="112.6"/>
			<line class="st4" x1="145.3" y1="119.8" x2="145.3" y2="112.7"/>
			<line class="st4" x1="82.1" y1="127.9" x2="148.9" y2="128"/>
			<line class="st4" x1="90.4" y1="127.6" x2="90.4" y2="120.5"/>
			<line class="st4" x1="98.8" y1="127.6" x2="98.9" y2="120.5"/>
			<line class="st4" x1="107" y1="127.7" x2="107" y2="120.6"/>
			<line class="st4" x1="115.5" y1="127.7" x2="115.5" y2="120.6"/>
			<line class="st4" x1="123.8" y1="127.7" x2="123.8" y2="120.6"/>
			<line class="st4" x1="132.3" y1="127.8" x2="132.3" y2="120.7"/>
			<line class="st4" x1="140.7" y1="127.8" x2="140.7" y2="120.7"/>
			<line class="st4" x1="82.2" y1="135.9" x2="148.9" y2="136.1"/>
			<line class="st4" x1="86.1" y1="135.6" x2="86.1" y2="128.5"/>
			<line class="st4" x1="94.6" y1="135.6" x2="94.6" y2="128.5"/>
			<line class="st4" x1="102.8" y1="135.7" x2="102.8" y2="128.6"/>
			<line class="st4" x1="111.3" y1="135.7" x2="111.3" y2="128.6"/>
			<line class="st4" x1="119.5" y1="135.8" x2="119.6" y2="128.7"/>
			<line class="st4" x1="128" y1="135.8" x2="128" y2="128.7"/>
			<line class="st4" x1="136.5" y1="135.8" x2="136.5" y2="128.8"/>
			<line class="st4" x1="145.3" y1="135.9" x2="145.3" y2="128.8"/>
			<line class="st4" x1="82.3" y1="143.6" x2="149.2" y2="143.7"/>
			<line class="st4" x1="90.6" y1="143.3" x2="90.6" y2="136.2"/>
			<line class="st4" x1="99.1" y1="143.3" x2="99.1" y2="136.2"/>
			<line class="st4" x1="107.3" y1="143.4" x2="107.3" y2="136.3"/>
			<line class="st4" x1="115.8" y1="143.4" x2="115.8" y2="136.3"/>
			<line class="st4" x1="124" y1="143.5" x2="124.1" y2="136.4"/>
			<line class="st4" x1="132.5" y1="143.5" x2="132.5" y2="136.4"/>
			<line class="st4" x1="141" y1="143.5" x2="141" y2="136.5"/>
			<line class="st4" x1="82.4" y1="151.6" x2="149.1" y2="151.8"/>
			<line class="st4" x1="86.4" y1="151.3" x2="86.4" y2="144.2"/>
			<line class="st4" x1="94.9" y1="151.3" x2="94.9" y2="144.2"/>
			<line class="st4" x1="103" y1="151.4" x2="103.1" y2="144.3"/>
			<line class="st4" x1="111.5" y1="151.4" x2="111.5" y2="144.3"/>
			<line class="st4" x1="119.8" y1="151.5" x2="119.8" y2="144.4"/>
			<line class="st4" x1="128.3" y1="151.5" x2="128.3" y2="144.4"/>
			<line class="st4" x1="136.7" y1="151.6" x2="136.8" y2="144.5"/>
			<line class="st4" x1="145.5" y1="151.6" x2="145.5" y2="144.5"/>
			<line class="st4" x1="82.3" y1="159.7" x2="149.2" y2="159.8"/>
			<line class="st4" x1="90.6" y1="159.4" x2="90.7" y2="152.3"/>
			<line class="st4" x1="99.1" y1="159.4" x2="99.1" y2="152.3"/>
			<line class="st4" x1="107.3" y1="159.5" x2="107.3" y2="152.4"/>
			<line class="st4" x1="115.8" y1="159.5" x2="115.8" y2="152.4"/>
			<line class="st4" x1="124" y1="159.6" x2="124.1" y2="152.5"/>
			<line class="st4" x1="132.5" y1="159.6" x2="132.5" y2="152.5"/>
			<line class="st4" x1="141" y1="159.7" x2="141" y2="152.6"/>
			<line class="st4" x1="82.4" y1="167.7" x2="149.2" y2="167.9"/>
			<line class="st4" x1="86.4" y1="167.4" x2="86.4" y2="160.3"/>
			<line class="st4" x1="94.9" y1="167.4" x2="94.9" y2="160.4"/>
			<line class="st4" x1="103" y1="167.5" x2="103.1" y2="160.4"/>
			<line class="st4" x1="111.5" y1="167.5" x2="111.5" y2="160.4"/>
			<line class="st4" x1="119.8" y1="167.6" x2="119.8" y2="160.5"/>
			<line class="st4" x1="128.3" y1="167.6" x2="128.3" y2="160.5"/>
			<line class="st4" x1="136.8" y1="167.7" x2="136.8" y2="160.6"/>
			<line class="st4" x1="145.5" y1="167.7" x2="145.6" y2="160.6"/>
			<line class="st4" x1="82.2" y1="175.1" x2="149.1" y2="175.2"/>
			<line class="st4" x1="90.5" y1="174.8" x2="90.6" y2="167.7"/>
			<line class="st4" x1="99" y1="174.8" x2="99" y2="167.7"/>
			<line class="st4" x1="107.2" y1="174.8" x2="107.2" y2="167.7"/>
			<line class="st4" x1="115.7" y1="174.9" x2="115.7" y2="167.8"/>
			<line class="st4" x1="123.9" y1="174.9" x2="124" y2="167.8"/>
			<line class="st4" x1="132.4" y1="175" x2="132.5" y2="167.9"/>
			<line class="st4" x1="140.9" y1="175" x2="140.9" y2="167.9"/>
			<line class="st4" x1="86.3" y1="182.8" x2="86.3" y2="175.7"/>
			<line class="st4" x1="94.8" y1="182.8" x2="94.8" y2="175.7"/>
			<line class="st4" x1="102.9" y1="182.9" x2="103" y2="175.8"/>
			<line class="st4" x1="111.4" y1="182.9" x2="111.5" y2="175.8"/>
			<line class="st4" x1="119.7" y1="182.9" x2="119.7" y2="175.9"/>
			<line class="st4" x1="128.2" y1="183" x2="128.2" y2="175.9"/>
			<line class="st4" x1="136.7" y1="183" x2="136.7" y2="175.9"/>
			<line class="st4" x1="145.4" y1="183.1" x2="145.5" y2="176"/>
			<line class="st4" x1="148.9" y1="111.9" x2="203.7" y2="112.1"/>
			<line class="st4" x1="148.9" y1="104.2" x2="203.7" y2="104.3"/>
			<line class="st4" x1="158.2" y1="111.7" x2="158.2" y2="104.6"/>
			<line class="st4" x1="166.7" y1="111.7" x2="166.7" y2="104.6"/>
			<line class="st4" x1="174.8" y1="111.7" x2="174.9" y2="104.7"/>
			<line class="st4" x1="183.3" y1="111.8" x2="183.3" y2="104.7"/>
			<line class="st4" x1="191.6" y1="111.8" x2="191.6" y2="104.7"/>
			<line class="st4" x1="200.1" y1="111.9" x2="200.1" y2="104.8"/>
			<line class="st4" x1="148.9" y1="119.9" x2="203.7" y2="120.1"/>
			<line class="st4" x1="153.9" y1="119.7" x2="154" y2="112.6"/>
			<line class="st4" x1="162.4" y1="119.7" x2="162.5" y2="112.6"/>
			<line class="st4" x1="170.6" y1="119.8" x2="170.6" y2="112.7"/>
			<line class="st4" x1="179.1" y1="119.8" x2="179.1" y2="112.7"/>
			<line class="st4" x1="187.4" y1="119.9" x2="187.4" y2="112.8"/>
			<line class="st4" x1="195.8" y1="119.9" x2="195.9" y2="112.8"/>
			<line class="st4" x1="148.9" y1="128" x2="203.7" y2="128.2"/>
			<line class="st4" x1="158.2" y1="127.8" x2="158.2" y2="120.7"/>
			<line class="st4" x1="166.7" y1="127.8" x2="166.7" y2="120.7"/>
			<line class="st4" x1="174.9" y1="127.9" x2="174.9" y2="120.8"/>
			<line class="st4" x1="183.3" y1="127.9" x2="183.4" y2="120.8"/>
			<line class="st4" x1="191.6" y1="127.9" x2="191.6" y2="120.8"/>
			<line class="st4" x1="200.1" y1="128" x2="200.1" y2="120.9"/>
			<line class="st4" x1="148.9" y1="136.1" x2="203.7" y2="136.2"/>
			<line class="st4" x1="154" y1="135.8" x2="154" y2="128.7"/>
			<line class="st4" x1="162.4" y1="135.8" x2="162.5" y2="128.7"/>
			<line class="st4" x1="170.6" y1="135.9" x2="170.6" y2="128.8"/>
			<line class="st4" x1="179.1" y1="135.9" x2="179.1" y2="128.8"/>
			<line class="st4" x1="187.4" y1="136" x2="187.4" y2="128.9"/>
			<line class="st4" x1="195.9" y1="136" x2="195.9" y2="128.9"/>
			<line class="st4" x1="149.1" y1="143.7" x2="203.9" y2="143.9"/>
			<line class="st4" x1="158.5" y1="143.5" x2="158.5" y2="136.4"/>
			<line class="st4" x1="166.9" y1="143.5" x2="167" y2="136.4"/>
			<line class="st4" x1="175.1" y1="143.6" x2="175.1" y2="136.5"/>
			<line class="st4" x1="183.6" y1="143.6" x2="183.6" y2="136.5"/>
			<line class="st4" x1="191.9" y1="143.7" x2="191.9" y2="136.6"/>
			<line class="st4" x1="200.4" y1="143.7" x2="200.4" y2="136.6"/>
			<line class="st4" x1="149.1" y1="151.8" x2="203.9" y2="151.9"/>
			<line class="st4" x1="154.2" y1="151.5" x2="154.2" y2="144.4"/>
			<line class="st4" x1="162.7" y1="151.5" x2="162.7" y2="144.4"/>
			<line class="st4" x1="170.9" y1="151.6" x2="170.9" y2="144.5"/>
			<line class="st4" x1="179.4" y1="151.6" x2="179.4" y2="144.5"/>
			<line class="st4" x1="187.6" y1="151.7" x2="187.6" y2="144.6"/>
			<line class="st4" x1="196.1" y1="151.7" x2="196.1" y2="144.6"/>
			<line class="st4" x1="149.1" y1="159.8" x2="203.9" y2="160"/>
			<line class="st4" x1="158.5" y1="159.6" x2="158.5" y2="152.5"/>
			<line class="st4" x1="167" y1="159.6" x2="167" y2="152.5"/>
			<line class="st4" x1="175.1" y1="159.7" x2="175.1" y2="152.6"/>
			<line class="st4" x1="183.6" y1="159.7" x2="183.6" y2="152.6"/>
			<line class="st4" x1="191.9" y1="159.8" x2="191.9" y2="152.7"/>
			<line class="st4" x1="200.4" y1="159.8" x2="200.4" y2="152.7"/>
			<line class="st4" x1="149.1" y1="167.9" x2="203.9" y2="168"/>
			<line class="st4" x1="154.2" y1="167.6" x2="154.2" y2="160.5"/>
			<line class="st4" x1="162.7" y1="167.6" x2="162.7" y2="160.6"/>
			<line class="st4" x1="170.9" y1="167.7" x2="170.9" y2="160.6"/>
			<line class="st4" x1="179.4" y1="167.7" x2="179.4" y2="160.6"/>
			<line class="st4" x1="187.6" y1="167.8" x2="187.7" y2="160.7"/>
			<line class="st4" x1="196.1" y1="167.8" x2="196.1" y2="160.7"/>
			<line class="st4" x1="149" y1="175.2" x2="203.8" y2="175.3"/>
			<line class="st4" x1="158.4" y1="175" x2="158.4" y2="167.9"/>
			<line class="st4" x1="166.9" y1="175" x2="166.9" y2="167.9"/>
			<line class="st4" x1="175" y1="175" x2="175" y2="167.9"/>
			<line class="st4" x1="183.5" y1="175.1" x2="183.5" y2="168"/>
			<line class="st4" x1="191.8" y1="175.1" x2="191.8" y2="168"/>
			<line class="st4" x1="200.3" y1="175.2" x2="200.3" y2="168.1"/>
			<line class="st4" x1="154.1" y1="183" x2="154.2" y2="175.9"/>
			<line class="st4" x1="162.6" y1="183" x2="162.6" y2="175.9"/>
			<line class="st4" x1="170.8" y1="183.1" x2="170.8" y2="176"/>
			<line class="st4" x1="179.3" y1="183.1" x2="179.3" y2="176"/>
			<line class="st4" x1="187.5" y1="183.1" x2="187.6" y2="176.1"/>
			<line class="st4" x1="196" y1="183.2" x2="196" y2="176.1"/>
			<line class="st4" x1="149.6" y1="111.5" x2="149.6" y2="104.4"/>
			<line class="st4" x1="149.6" y1="127.6" x2="149.7" y2="120.5"/>
			<line class="st4" x1="149.9" y1="143.3" x2="149.9" y2="136.2"/>
			<line class="st4" x1="149.9" y1="159.4" x2="149.9" y2="152.4"/>
			<line class="st4" x1="149.8" y1="174.8" x2="149.8" y2="167.7"/>
		</g>
	</g>
	<path class="st5" d="M283,223.1l-3.2-13c-0.4-1.7-2-2.9-3.9-2.9h-44.4c-1.8,0-3.4,1.1-3.9,2.8l-3.7,13.4"/>
	<path class="st6" d="M158,24.9c0,0.8-0.1,1.5-0.4,2.3c0,0-0.1,0.3-0.1,0.3l-29.7,0c-0.3-0.8-0.5-1.7-0.5-2.6c0-4.1,3.7-7.5,8.2-7.5
		c0.2,0,0.4,0,0.5,0l0,0c1.2-3.1,4.4-5.2,8.2-5.2c4.2,0,7.8,2.7,8.6,6.4c0,0.1,0.3,0.1,0.4,0.1c0.9,0.2,1.7,0.7,2.4,1.3
		c0.8,0.6,1.4,1.4,1.8,2.3C157.8,23.1,158,24,158,24.9z"/>
	<g>
		<path class="st7" d="M20.9,7.8c0.9-0.3,1.8-0.7,2.8-0.8c1.7-0.1,2.9,0.7,4.1,1.7c0.2,0.1,0.5,0.1,0.6-0.1c0.4-0.9,0.8-1.8,1.5-2.5
			c0.8-0.8,1.9-1,2.9-1.3"/>
		<path class="st7" d="M25.6,7.3c1,0.4,1.5,1.1,2.2,1.7c0.2,0.2,0.6,0.1,0.7-0.2c0.3-0.8,0.5-1.7,1.1-2.5"/>
	</g>
	<g>
		<path class="st7" d="M396.5,37.2c0.7,0.2,1.5,0.2,2.1,0.6c1.1,0.6,1.4,1.9,1.6,3.3c0,0.2,0.2,0.3,0.4,0.1c0.7-0.6,1.4-1.2,2.2-1.5
			c0.9-0.4,1.7,0,2.4,0.1"/>
		<path class="st7" d="M399.6,38.8c0.4,0.8,0.3,1.6,0.5,2.4c0,0.3,0.3,0.3,0.5,0.2c0.6-0.5,1.2-1.3,1.9-1.7"/>
	</g>
	<g>
		<path class="st7" d="M46,20.9c0.8,0,1.8-0.2,2.6,0c1.5,0.4,2.2,1.7,2.9,3.1c0.1,0.2,0.4,0.2,0.5,0c0.6-0.8,1.2-1.7,2-2.3
			c0.9-0.6,1.9-0.5,2.8-0.6"/>
		<path class="st7" d="M50.1,21.8c0.7,0.7,0.9,1.6,1.3,2.5c0.1,0.3,0.5,0.3,0.6,0c0.5-0.8,0.9-1.7,1.7-2.4"/>
	</g>
	<path class="st6" d="M386.9,114.4c0,0.8-0.1,1.7-0.5,2.5l-0.1,0.3l-32.6,0c-0.4-0.9-0.6-1.8-0.6-2.9c0-4.5,4-8.2,9-8.2
		c0.2,0,0.4,0,0.6,0l0,0c1.4-3.4,4.9-5.7,9-5.7c4.7,0,8.5,3,9.4,7c0,0.1,0.3,0.1,0.4,0.1c1,0.2,1.9,0.8,2.7,1.4
		c0.9,0.7,1.6,1.6,2,2.6C386.7,112.4,386.9,113.4,386.9,114.4"/>
	<path class="st6" d="M397.1,115c0.9,0.2,1.6,1,1.6,2c0,0.1,0,0.2,0,0.2h-8.8c0-0.9,0.6-1.2,0.6-1.2c0-1,0.7-1.7,1.8-1.6h0
		c0.4-0.9,1.3-1.5,2.3-1.5C395.9,112.9,396.9,113.8,397.1,115"/>
	<path class="st6" d="M402.3,117.1h3.9c0.4,0,0.8-0.3,0.8-0.8c0-0.4-0.3-0.8-0.8-0.8h-3.9c-0.4,0-0.8,0.3-0.8,0.8
		C401.6,116.8,401.9,117.1,402.3,117.1"/>
	<path class="st6" d="M443.5,117.1h3.9c0.4,0,0.8-0.3,0.8-0.8c0-0.4-0.3-0.8-0.8-0.8h-3.9c-0.4,0-0.8,0.3-0.8,0.8
		C442.7,116.8,443,117.1,443.5,117.1"/>
	<path class="st6" d="M90.4,70.1c3.1,0.8,5.5,3.6,5.5,7c0,0.3,0,0.5,0,0.8l-30.6,0c-0.1-3,2.2-4.1,2.2-4.1c-0.1-3.3,2.4-5.9,6.3-5.6
		h0.1c1.4-3.1,4.4-5.3,8-5.3C86.1,63,89.7,66,90.4,70.1"/>
	<path class="st6" d="M58.5,74.9c1.2,0.3,2.1,1.4,2.1,2.7c0,0.1,0,0.2,0,0.3l-11.7,0c-0.1-1.1,0.8-1.6,0.8-1.6
		c0-1.3,0.9-2.2,2.4-2.1h0c0.5-1.2,1.7-2,3-2C56.9,72.2,58.3,73.3,58.5,74.9"/>
	<path class="st6" d="M99.7,78H114c0.4,0,0.7-0.3,0.7-0.7c0-0.4-0.3-0.7-0.7-0.7H99.7c-0.4,0-0.7,0.3-0.7,0.7
		C99,77.7,99.4,78,99.7,78"/>
	<path class="st6" d="M41.7,78.1h3.6c0.4,0,0.7-0.3,0.7-0.7c0-0.4-0.3-0.7-0.7-0.7h-3.6c-0.4,0-0.7,0.3-0.7,0.7
		C41,77.8,41.3,78.1,41.7,78.1"/>
	<path class="st6" d="M5,78h14.3c0.4,0,0.7-0.3,0.7-0.7c0-0.4-0.3-0.7-0.7-0.7H5c-0.4,0-0.7,0.3-0.7,0.7C4.3,77.6,4.7,78,5,78"/>
	<path class="st6" d="M302.1,160.9c1.1,0.3,1.9,1.2,1.9,2.4c0,0.1,0,0.2,0,0.3h-10.4c0-1,0.7-1.4,0.7-1.4c0-1.1,0.8-2,2.2-1.9h0
		c0.5-1,1.5-1.8,2.7-1.8C300.7,158.5,301.9,159.5,302.1,160.9"/>
	<path class="st6" d="M103,127.7h3.5c0.4,0,0.7-0.3,0.7-0.7c0-0.4-0.3-0.7-0.7-0.7H103c-0.4,0-0.7,0.3-0.7,0.7
		C102.3,127.4,102.6,127.7,103,127.7"/>
	<path class="st8" d="M303.6,37.5c-3,0.8-5.3,3.5-5.3,6.8c0,0.3,0,0.5,0,0.7l29.6,0c0.1-2.9-2.1-4-2.1-4c0.1-3.2-2.3-5.7-6.1-5.4
		h-0.1c-1.3-3-4.3-5.1-7.7-5.1C307.8,30.6,304.3,33.5,303.6,37.5"/>
	<path class="st8" d="M332.8,45.3h13.8c0.4,0,0.7-0.3,0.7-0.7c0-0.4-0.3-0.7-0.7-0.7h-13.8c-0.4,0-0.7,0.3-0.7,0.7
		C332.1,44.9,332.4,45.3,332.8,45.3"/>
	<path class="st8" d="M276.8,45.4h3.5c0.4,0,0.7-0.3,0.7-0.7c0-0.4-0.3-0.7-0.7-0.7h-3.5c-0.4,0-0.7,0.3-0.7,0.7
		C276.1,45.1,276.4,45.4,276.8,45.4"/>
	<path class="st8" d="M190.3,50.3h4.1c0.5,0,0.8-0.4,0.8-0.8c0-0.5-0.4-0.8-0.8-0.8h-4.1c-0.5,0-0.8,0.4-0.8,0.8
		C189.4,49.9,189.8,50.3,190.3,50.3"/>
	<path class="st8" d="M163.5,50.3H180c0.5,0,0.8-0.4,0.8-0.8c0-0.5-0.4-0.8-0.8-0.8h-16.6c-0.5,0-0.8,0.4-0.8,0.8
		C162.6,49.9,163,50.3,163.5,50.3"/>
	<path class="st8" d="M44.2,157.1h3c0.3,0,0.6-0.3,0.6-0.6s-0.3-0.6-0.6-0.6h-3c-0.3,0-0.6,0.3-0.6,0.6S43.8,157.1,44.2,157.1"/>
	<path class="st8" d="M28.8,157.1h11.9c0.3,0,0.6-0.3,0.6-0.6s-0.3-0.6-0.6-0.6H28.8c-0.3,0-0.6,0.3-0.6,0.6S28.5,157.1,28.8,157.1"
		/>
	<circle class="st9" cx="315.1" cy="277.2" r="1.8"/>
	<circle class="st9" cx="352.3" cy="277.2" r="0.9"/>
	<circle class="st9" cx="293.7" cy="275.4" r="0.9"/>
	<path class="st10" d="M452.4,280.6h-432c-4.7,0-8.6-3.9-8.6-8.6l0,0c0-4.7,3.9-8.6,8.6-8.6h432c4.7,0,8.6,3.9,8.6,8.6l0,0
		C461,276.7,457.1,280.6,452.4,280.6z"/>
	<g>
		<g>
			<line class="st11" x1="21.2" y1="272.4" x2="26.2" y2="272.4"/>
			<line class="st12" x1="37.9" y1="272.4" x2="439.5" y2="272.4"/>
			<line class="st11" x1="445.4" y1="272.4" x2="450.4" y2="272.4"/>
		</g>
	</g>
	<path class="st8" d="M293.5,117.1h3.7c0.4,0,0.7-0.3,0.7-0.7c0-0.4-0.3-0.7-0.7-0.7h-3.7c-0.4,0-0.7,0.3-0.7,0.7
		C292.7,116.7,293.1,117.1,293.5,117.1"/>
	<path class="st8" d="M269.2,117.1h15c0.4,0,0.7-0.3,0.7-0.7c0-0.4-0.3-0.7-0.7-0.7h-15c-0.4,0-0.7,0.3-0.7,0.7
		C268.5,116.7,268.8,117.1,269.2,117.1"/>
	<path class="st2" d="M65.6,191c5.8,2.5,9.3,8.3,8.7,14.9c-0.7,8.2-7.9,14.3-16.2,13.6c-0.9-0.1-1.8-0.3-2.7-0.6
		c-0.4-0.2-0.9-0.3-1.3-0.5c-0.3-0.1-0.6-0.3-0.9-0.4c-0.4-0.1-0.7,0-1,0.2c-0.2,0.1-0.4,0.2-0.6,0.3c-0.4,0.2-0.8,0.4-1.2,0.6
		c-0.8,0.4-1.7,0.7-2.6,0.9c-1.6,0.4-3.2,0.5-4.8,0.4c-8.2-0.7-14.3-7.9-13.6-16.2c0.4-4.5,2.7-8.4,6.1-10.8l0,0
		c-0.2-1.2-0.2-2.4-0.1-3.6c0.7-8.2,7.9-14.3,16.2-13.6c7.8,0.7,13.7,7.2,13.7,14.8L65.6,191z"/>
	<line class="st13" x1="59.9" y1="205.5" x2="52.9" y2="212.9"/>
	<line class="st13" x1="42.2" y1="200" x2="51.9" y2="206.9"/>
	<polyline class="st14" points="52.3,217.6 52.3,195.4 52.3,195.4 	"/>
	<line class="st13" x1="52.5" y1="262.4" x2="52.5" y2="217.8"/>
	<ellipse class="st15" cx="221.9" cy="204.5" rx="1.2" ry="1.3"/>
	<path class="st16" d="M303.2,164.3H99.5c-4.5,0-8.2-3.7-8.2-8.2v-33.5c0-4.5,3.7-8.2,8.2-8.2h203.7c4.5,0,8.2,3.7,8.2,8.2V156
		C311.5,160.6,307.8,164.3,303.2,164.3z"/>
	<path class="st16" d="M302.8,251.6H181.4c-4.5,0-8.2-3.7-8.2-8.2v-39.8c0-4.5,3.7-8.2,8.2-8.2h121.4c4.5,0,8.2,3.7,8.2,8.2v39.8
		C311,247.9,307.3,251.6,302.8,251.6z"/>
	<g>
		<line class="st11" x1="138.6" y1="124" x2="122.5" y2="137.1"/>
		<line class="st11" x1="153.9" y1="121.4" x2="106.8" y2="158.4"/>
		<line class="st11" x1="114.6" y1="144.1" x2="110.6" y2="147.4"/>
		<line class="st11" x1="119.7" y1="139.7" x2="117.4" y2="141.6"/>
	</g>
	<line class="st11" x1="296.3" y1="208.9" x2="263.8" y2="246"/>
	<line class="st11" x1="289.7" y1="228.3" x2="275.8" y2="243.4"/>
	<path class="st17" d="M168.7,215.3l-4.3-16.3c-0.5-2.1-2.7-3.6-5.3-3.6H99.6c-2.5,0-4.6,1.4-5.2,3.5l-5,16.8"/>
	<line class="st18" x1="107.3" y1="195.6" x2="105.4" y2="215.3"/>
	<line class="st18" x1="121.3" y1="195.6" x2="120.7" y2="215.3"/>
	<line class="st18" x1="135.3" y1="195.6" x2="136.2" y2="215.3"/>
	<line class="st18" x1="149.7" y1="195.6" x2="151.6" y2="215.3"/>
	<path class="st19" d="M91.1,218.3h77.1c0.3,0,0.4,0,0.4-0.1v-2.7c0-0.1-0.1,0.1-0.4,0.1H90c-0.3,0-0.6-0.2-0.6,0v2.7
		c0,0.1,0.3,0.1,0.5,0.1h1.8l0.2,43.6"/>
	<polyline class="st2" points="166.8,262.3 166.8,218.3 91.4,218.3 91.4,262.9 	"/>
	<line class="st18" x1="129.4" y1="218.3" x2="129.4" y2="262.3"/>
	<circle class="st20" cx="123.5" cy="240.5" r="1.9"/>
	<circle class="st20" cx="134.3" cy="240.5" r="1.9"/>
	<polyline class="st21" points="322.8,185 322.8,262.9 81.6,262.9 81.6,185 	"/>
	<polyline class="st21" points="81.6,178.1 81.6,105.1 322.8,105.1 322.8,178.1 	"/>
	<path class="st22" d="M325.9,185c2.2,0,4-2.3,4-4.9v-0.3c0-2.6-1.9-4.2-4-4.2H193H78.2c-2.4,0-4.2,1.6-4.2,4.2v0.3
		c0,2.6,1.8,4.9,4.2,4.9H193H325.9z"/>
	<path class="st22" d="M329.9,100.1c0,2.6-2,4.7-4.4,4.7H78.4c-2.4,0-4.4-2.1-4.4-4.7V100c0-2.6,2-4.7,4.4-4.7h247.2
		c2.4,0,4.4,2.1,4.4,4.7V100.1z"/>
	<circle class="st16" cx="108.8" cy="231.8" r="8.2"/>
	<circle class="st16" cx="148.7" cy="231.8" r="8.2"/>
	<g>
		<line class="st23" x1="104.9" y1="233.6" x2="107.8" y2="235.7"/>
		<line class="st23" x1="105.2" y1="230.8" x2="111.1" y2="234.7"/>
	</g>
	<g>
		<line class="st23" x1="146.7" y1="232.9" x2="149.7" y2="235"/>
		<line class="st23" x1="146.2" y1="228.8" x2="155.1" y2="235.7"/>
	</g>
	<circle class="st21" cx="148.7" cy="231.8" r="8.2"/>
	<g>
		<polygon class="st24" points="270.6,262.6 270.6,216.6 259.4,218.8 259.4,262.6 		"/>
		<path class="st24" d="M269.8,212.4c-0.8-1.5-2-2.5-3.4-2.8c-1.5-0.3-3,0.2-4.2,1.3c-1.3,1.1-2.2,2.7-2.5,4.6
			c-0.4,1.9-0.1,3.7,0.6,5.3c0.8,1.5,2,2.5,3.4,2.8c1.4,0.3,3-0.2,4.2-1.3c1.3-1.1,2.2-2.8,2.6-4.7
			C270.8,215.8,270.6,213.9,269.8,212.4"/>
		<path class="st10" d="M268.7,213.2c-0.6-1.2-1.6-2-2.7-2.2c-1.1-0.2-2.3,0.2-3.3,1.1c-1,0.9-1.7,2.3-1.9,3.8
			c-0.3,1.5-0.1,3,0.5,4.3c0.6,1.2,1.6,2,2.7,2.2c1.1,0.2,2.3-0.2,3.3-1.2c1-0.9,1.7-2.3,2-3.8C269.5,215.9,269.3,214.4,268.7,213.2
			"/>
		<path class="st25" d="M259.4,224.6c0.5,0.1,1,0.3,1.3,0.7c0.5,0.5,0.8,1.1,0.8,1.8c0,0.7-0.3,1.3-0.8,1.8
			c-0.4,0.3-0.8,0.6-1.3,0.7"/>
		<path class="st25" d="M270.5,224.5c-0.6,0.1-1.1,0.4-1.5,0.7c-0.6,0.5-0.9,1.2-0.9,1.9c0,0.7,0.3,1.4,0.9,2
			c0.4,0.4,0.9,0.6,1.4,0.7"/>
		<line class="st26" x1="270.6" y1="222.9" x2="270.6" y2="234.5"/>
		<line class="st26" x1="259.4" y1="234.5" x2="259.4" y2="223.1"/>
		<path class="st27" d="M267.6,221.7c1.1-1.1,1.9-2.6,2.2-4.3c0.3-1.7,0.1-3.4-0.6-4.7"/>
		<path class="st27" d="M261.6,212.4c-0.7,0.9-1.2,2.1-1.4,3.4c-0.3,1.7-0.1,3.4,0.6,4.8c0.2,0.3,0.4,0.7,0.6,0.9"/>
		<line class="st27" x1="265.2" y1="204.9" x2="265.2" y2="206.7"/>
		<line class="st27" x1="257.1" y1="214.8" x2="255.3" y2="214.8"/>
		<line class="st27" x1="275.1" y1="214.8" x2="273.4" y2="214.8"/>
		<line class="st27" x1="272.2" y1="207.8" x2="271" y2="209"/>
		<line class="st27" x1="259.5" y1="209" x2="258.2" y2="207.8"/>
		<line class="st27" x1="274.4" y1="211.1" x2="272.8" y2="211.7"/>
		<line class="st27" x1="262.2" y1="207.2" x2="261.6" y2="205.6"/>
		<line class="st27" x1="268.4" y1="207.3" x2="269.1" y2="205.7"/>
		<line class="st27" x1="257.9" y1="211.6" x2="256.3" y2="211"/>
		<line class="st27" x1="257.1" y1="218.6" x2="255.3" y2="218.6"/>
		<path class="st28" d="M295.2,221.3c1.2-3.7,8.6-12.3,11.2-12.8c0.3-0.1,6.2-0.1,6.2-0.1l-7.2,11.1l-4.6,3.3L295.2,221.3z"/>
		<line class="st27" x1="275.1" y1="218.6" x2="273.4" y2="218.6"/>
		<path class="st29" d="M434,240.7c0.1-0.2,0.2-0.3,0.2-0.5c0.9-2.1,0-4.5-1.3-6.4c-2.9-4.3-7.8-6.9-12.8-8.5
			c-5-1.6-10.2-2.3-15.2-3.9c-8-2.6-15-7.5-22.7-11c-11.4-5.1-24.1-7.1-36.6-7.2c-7.8-0.1-15.6,0.4-23.4,1.2
			c-3.9,0.4-7.8,0.8-11.7,1.3c-1.9,0.2-3.9,0.5-5.8,0.7c-1.2,0.2-4.3,0.4-1.8,1.6c1.5,0.7,3.4,0.2,4.9,0.9c2.9,1.4,0.2,5-1.2,6.5
			c-2.5,2.7-6.2,3.8-9.5,5.1c-1.5,0.6-3.2,1.4-4.2,2.7c-1.2,1.7-0.8,3.8-0.9,5.7c-0.1,3.8-2.3,7.3-3.2,11c-1.1,4.6-0.2,9.7,2.6,13.5
			c1.2,0,2,0.1,3.2,0.1c-0.9-5.3,1.8-11.1,6.3-14.1c4.5-2.9,11.2-3.1,15.7-0.1c4.5,2.9,7.2,8.9,6.3,14.2c23.7,0,46.4,0,70.1,0
			c-0.5-6.2,1.9-11.1,6.4-14.1s11.1-2.9,15.6,0c4.5,2.9,7.2,8.8,6.3,14.1c4.2,0,8.2,0,12.4,0c1.4-1.2,1-3.5,0.3-5.2
			c-0.7-1.7-1.7-3.5-1.2-5.3C433,242.2,433.6,241.5,434,240.7z"/>
		<path class="st28" d="M355.5,224.1h36.8c1.2,0,1.4-1.2,0.3-1.8c0,0-14.5-9.2-17.6-10.7c-6.4-3-13.5-3.5-20.5-3.8
			c-6.5-0.2-13-0.2-19.5,0c-3.2,0.1-6.5,0.3-9.7,0.6c-2.8,0.2-5.8,0.2-8.3,1.5c-0.5,0.2-0.9,0.8-1.2,1.3c-1.5,2.4-2.9,4.9-4.3,7.3
			c-0.5,0.8-0.7,1.7-0.3,2.5c1.3,2.4,4.2,3,6.7,3.1c2.2,0.1,4.3,0,6.5,0c4.9,0,9.8,0,14.7,0c2.7,0,5.3,0,8,0H355.5z"/>
		<circle class="st30" cx="306" cy="226.9" r="2.6"/>
		<g>
			<line class="st31" x1="322.6" y1="213" x2="326.6" y2="216"/>
			<line class="st31" x1="319.4" y1="213.4" x2="322.4" y2="215.8"/>
		</g>
		<path class="st32" d="M407.4,262.6c-6.4,0-11.5-5.1-11.5-11.5c0-6.4,5.1-11.5,11.5-11.5c6.4,0,11.5,5.1,11.5,11.5
			C418.9,257.5,413.7,262.6,407.4,262.6L407.4,262.6z"/>
		<path class="st33" d="M407.4,259.5c-4.6,0-8.4-3.7-8.4-8.4c0-4.6,3.7-8.4,8.4-8.4c4.6,0,8.4,3.7,8.4,8.4
			C415.8,255.8,412,259.5,407.4,259.5L407.4,259.5z"/>
		<path class="st34" d="M407.4,253.8c-1.5,0-2.7-1.2-2.7-2.7c0-1.5,1.2-2.7,2.7-2.7c1.5,0,2.7,1.2,2.7,2.7
			C410.1,252.6,408.9,253.8,407.4,253.8L407.4,253.8z"/>
		<path class="st32" d="M309,263.4c6.4,0,11.5-5.1,11.5-11.5c0-6.4-5.1-11.5-11.5-11.5c-6.4,0-11.5,5.1-11.5,11.5
			C297.5,258.2,302.6,263.4,309,263.4L309,263.4z"/>
		<path class="st33" d="M309,260.2c4.6,0,8.4-3.7,8.4-8.4c0-4.6-3.7-8.4-8.4-8.4c-4.6,0-8.4,3.7-8.4,8.4
			C300.6,256.5,304.4,260.2,309,260.2L309,260.2z"/>
		<path class="st34" d="M309,254.6c-1.5,0-2.7-1.2-2.7-2.7c0-1.5,1.2-2.7,2.7-2.7c1.5,0,2.7,1.2,2.7,2.7
			C311.7,253.4,310.5,254.6,309,254.6L309,254.6z"/>
		<path class="st33" d="M428.5,244.7c-1,0.3-1.3,1.1-1.1,1.8c0,0.1,0.1,0.2,0.2,0.3c0,0.1,0.1,0.2,0.2,0.2c0.1,0,0.2,0,0.3-0.1
			c0.3-0.2,0.4-0.4,0.6-0.6c0.1-0.1,0.1-0.2,0.2-0.3c0.1-0.2,0.3-0.5,0.3-0.8c0-0.2,0.1-0.4-0.1-0.6
			C429,244.6,428.7,244.7,428.5,244.7z"/>
		<path class="st35" d="M429.3,242.7c-3.6-1.5-5.7,4.5-1.5,6.5"/>
		<path class="st34" d="M362.2,230.5c-0.1-0.7-0.7-1.2-1.5-1.2h-1.4c-0.6,0-1.2,0.4-1.4,1l-0.1,1.4c0.1,0.7,0.7,1.3,1.5,1.3h1.4
			c0.7,0,1.3-0.5,1.4-1.1L362.2,230.5z"/>
		<path class="st34" d="M322.5,229.6c0.1,0.7,0.7,1.3,1.5,1.3h1.4c0.7,0,1.3-0.5,1.4-1.1l0-1.3c-0.1-0.7-0.7-1.2-1.5-1.2h-1.4
			c-0.6,0-1.2,0.4-1.4,1L322.5,229.6z"/>
		<path class="st33" d="M399.8,219.3l6.9,6.9c0.9,0.8,1.9,1.4,3.2,1.6c7,1.7,14.2,4.8,21.4,6.7c0.3,0.1,0.5,0.1,0.2-0.3
			c-4.1-4.4-8.8-7.3-14-8.6c-3.9-1-8.7-1.1-12.4-1.1"/>
		<path class="st35" d="M425.4,232.8c-4.7-1.8-8.6-4.2-10.3-7.6"/>
		<g>
			<line class="st31" x1="354.2" y1="218.5" x2="357.1" y2="220.6"/>
			<line class="st31" x1="353.6" y1="214.4" x2="362.5" y2="221.3"/>
		</g>
		<path class="st34" d="M379.9,221.2c0.3-1.3,1.8-2.3,3.1-1.9c2.3,0.8,3.8,2.1,4.6,3.9c0.1,0.2,0,0.3-0.1,0.4
			c-1.4,1.3-2.8,1.5-5.3,1.3C380.9,224.8,379.6,222.5,379.9,221.2L379.9,221.2z"/>
		<path class="st35" d="M387.6,224.7c0.4,0.6,1.1,1.3,1.6,2.2c1.6,2.5,1.2,10.8-0.5,19.9c-0.2,1.2-1.2,2-2.4,2l-53.1-0.5
			c-2.5,0-3.9-1.1-5.3-3c-4.6-6.1-14.5-18.1-16.5-24.3"/>
		<path class="st35" d="M350.9,248.2c1.1-8.2,1.5-16.5,0-26l-2.4-14.4"/>
		<path class="st17" d="M294.7,222.6c-0.5-0.1-0.9,0.1-1.2,0.4c-0.2,0.2-0.3,0.4-0.5,0.6c-1.2,1.7-0.8,3.8-0.8,5.7
			c0,0.1,0,0.3,0,0.4c-0.1,1,0.7,1.8,1.6,1.6c2-0.3,2.4-4.4,2.4-6c0-0.5,0-1-0.1-1.4C295.9,223.2,295.4,222.7,294.7,222.6
			L294.7,222.6z"/>
		<path class="st15" d="M295,228.1c0.5,0.1,0.7,0.6,0.6,1c-0.4,1.1-0.9,2-1.8,2.1c-0.9,0.1-1.7-0.7-1.6-1.6c0-0.1,0-0.3,0-0.4
			c0-0.3,0-0.6,0-0.9C293.2,228.1,293.9,227.9,295,228.1z"/>
		<g>
			<path class="st36" d="M273.4,227.1c1.9,0,3.9-0.2,5.7,1c2.4,1.6,2.8,4.8,3,7.5c0.2,2.8,0.4,5.8,1,8.6c0.3,1.3,0.5,2.6,1.3,3.7
				c0.7,1,1.8,1.4,2.9,0.5c1.2-1.1,1.2-2.9,1.4-4.4c0.3-2.4,0.5-4.8,1.2-7.1c0.7-2.5,1.8-5,3.5-7c1.9-2.2,4.3-3.1,7.1-3.3
				c1.8-0.1,3.5,0,5.3,0"/>
		</g>
		<path class="st17" d="M273.3,228h-2.5c-0.6,0-1-0.5-1-1v0c0-0.6,0.5-1,1-1h2.5c0.6,0,1,0.5,1,1v0C274.3,227.5,273.8,228,273.3,228
			z"/>
	</g>
	<line class="st11" x1="291.3" y1="120.1" x2="244.3" y2="157.1"/>
	<line class="st11" x1="288.4" y1="132" x2="261.6" y2="152.9"/>
	<circle class="st37" cx="165.4" cy="314.6" r="1.6"/>
	<circle class="st37" cx="129.8" cy="320.2" r="0.3"/>
	<circle class="st37" cx="213.6" cy="313" r="1"/>
	<ellipse class="st37" cx="237.5" cy="309.5" rx="1.1" ry="1.1"/>
	<circle class="st37" cx="241.1" cy="319.2" r="0.8"/>
	<circle class="st37" cx="116.8" cy="313" r="0.6"/>
	<line class="st38" x1="427.9" y1="299.7" x2="447.1" y2="299.7"/>
	<line class="st38" x1="418.3" y1="299.7" x2="423.6" y2="299.7"/>
	<line class="st38" x1="381.8" y1="299.7" x2="413.8" y2="299.7"/>
	<line class="st38" x1="297.8" y1="299.7" x2="376.6" y2="299.7"/>
	<line class="st38" x1="286.6" y1="299.7" x2="291.2" y2="299.7"/>
	<line class="st38" x1="216.4" y1="299.7" x2="279.5" y2="299.7"/>
	<circle class="st37" cx="442.5" cy="313.8" r="1.6"/>
	<circle class="st37" cx="81.9" cy="321" r="1"/>
	<circle class="st37" cx="49.1" cy="310.9" r="0.8"/>
	<circle class="st37" cx="374.7" cy="318.6" r="1.1"/>
	<circle class="st37" cx="394.2" cy="317.6" r="1.1"/>
	<circle class="st37" cx="319.1" cy="314.1" r="1.1"/>
	<line class="st38" x1="13" y1="291" x2="460.2" y2="290.6"/>
	<line class="st38" x1="193.2" y1="300" x2="212.4" y2="300"/>
	<line class="st38" x1="183.6" y1="300" x2="188.9" y2="300"/>
	<line class="st38" x1="147.1" y1="300" x2="179.1" y2="300"/>
	<line class="st38" x1="63.1" y1="300" x2="141.9" y2="300"/>
	<line class="st38" x1="51.9" y1="300" x2="56.5" y2="300"/>
	<line class="st38" x1="19" y1="300" x2="72" y2="300"/>
</g>
</svg>
