<?xml version="1.0" encoding="utf-8"?>
<!-- Generator: Adobe Illustrator 21.0.2, SVG Export Plug-In . SVG Version: 6.00 Build 0)  -->
<svg version="1.1" id="Layer_1" xmlns="http://www.w3.org/2000/svg" xmlns:xlink="http://www.w3.org/1999/xlink" x="0px" y="0px"
	 viewBox="0 0 468 398" style="enable-background:new 0 0 468 398;" xml:space="preserve">
<style type="text/css">
	.st0{fill:none;stroke:#8CC63F;stroke-linecap:round;stroke-miterlimit:10;stroke-dasharray:3;}
	.st1{fill:#8CC63F;}
	.st2{fill:none;stroke:#8CC63F;stroke-miterlimit:10;stroke-dasharray:3;}
	.st3{fill:#333333;}
	.st4{fill:none;stroke:#333333;stroke-linecap:round;stroke-miterlimit:10;stroke-dasharray:3;}
	.st5{fill:none;stroke:#333333;stroke-miterlimit:10;stroke-dasharray:3;}
	.st6{fill:#8CBF47;stroke:#333333;stroke-linecap:round;stroke-linejoin:round;stroke-miterlimit:10;}
	.st7{fill:#8CBF47;stroke:#333333;stroke-miterlimit:10;}
	.st8{opacity:0.43;fill:#B1B1B1;stroke:#333333;stroke-linecap:round;}
	.st9{fill-rule:evenodd;clip-rule:evenodd;fill:#F2F2F2;stroke:#333333;}
	.st10{fill:#8CBF47;stroke:#333333;stroke-linecap:round;stroke-miterlimit:10;}
</style>
<line class="st0" x1="360.6" y1="0" x2="360.6" y2="88"/>
<circle class="st1" cx="360.6" cy="92" r="3"/>
<line class="st0" x1="311.8" y1="275" x2="311.1" y2="185"/>
<path class="st2" d="M311.9,277.5H196.1c-20.4,0-37,16.6-37,37v0c0,20.4,16.6,37,37,37h79c20.4,0,37-16.6,37-37l-0.3-42.2"/>
<path class="st2" d="M360.6,318.6v-4.1c0-20.4-16.6-37-37-37h-11.8"/>
<line class="st0" x1="360.6" y1="398" x2="360.6" y2="318.6"/>
<circle class="st3" cx="413.6" cy="144" r="3"/>
<circle class="st1" cx="158.6" cy="315" r="3"/>
<circle class="st1" cx="272.6" cy="352" r="3"/>
<circle class="st1" cx="360.6" cy="322" r="3"/>
<circle class="st1" cx="311.6" cy="278" r="3"/>
<path class="st4" d="M0.6,193.5h89.7c16.2,0,29.3-13.1,29.2-29.3l-0.3-73.3c-0.1-16.2,13-29.3,29.2-29.3h80.6
	c16.1,0,29.1,13,29.2,29l0.1,24.4c0.1,16.1,13.1,29,29.2,29l122.5-0.5"/>
<circle class="st1" cx="311.1" cy="182.5" r="3"/>
<path class="st0" d="M0.6,141.5l160.1-0.5c19.3,0,35,15.7,35,35v17.5c0,19.3,15.7,35,35,35h212.3"/>
<circle class="st1" cx="446.1" cy="228.5" r="3"/>
<path class="st0" d="M193.6,0v61.9c0,23.3-15.9,42.1-35.5,42.1L0.6,104.5"/>
<line class="st5" x1="57.1" y1="240.5" x2="115.1" y2="240.5"/>
<line class="st4" x1="1.1" y1="240.5" x2="57.1" y2="240.5"/>
<circle class="st3" cx="118.1" cy="240.5" r="3"/>
<line class="st0" x1="72.6" y1="-0.5" x2="72.6" y2="40"/>
<circle class="st1" cx="72.6" cy="44" r="3"/>
<path class="st0" d="M118.1,315.5v24c0,15-12,27.2-27,27.5h0c-15,0.3-27,12.5-27,27.5v4"/>
<circle class="st1" cx="118.1" cy="312.5" r="3"/>
<circle class="st3" cx="57.1" cy="240.5" r="3"/>
<circle class="st1" cx="194.1" cy="61.5" r="3"/>
<path class="st4" d="M394.1,378.5h-142c-10.5,0-19,8.5-19,19v0"/>
<circle class="st3" cx="399.1" cy="378.5" r="3"/>
<path class="st4" d="M396.6,19.5h-80.3c-9.5,0-17.2-7.7-17.2-17.2V0.5"/>
<circle class="st3" cx="400.1" cy="19.5" r="3"/>
<path class="st6" d="M73.3,53.8C73.3,53.8,73.2,53.7,73.3,53.8c-1.9,3.1-3.8,6.2-5.6,9.4c1.2,0,2.4,0.1,3.6,0.1
	c0,1.9-0.1,3.8-0.1,5.7c0,0,0,0,0.1,0c1.9-3.1,3.7-6.2,5.6-9.4c-1.2,0-2.4-0.1-3.6-0.1C73.2,57.5,73.2,55.6,73.3,53.8z"/>
<g>
	<line class="st6" x1="34.2" y1="27.1" x2="34.2" y2="32.9"/>
	<line class="st6" x1="31.3" y1="30" x2="37.1" y2="30"/>
</g>
<g>
	<path class="st7" d="M417.4,372.8c0-0.3-0.3-0.6-0.6-0.6H415l2.4,2.4V372.8z"/>
	<path class="st7" d="M420.6,377.7l-1.8-1.8l0,0l-3.8-3.7h0l-1-1c-0.2-0.2-0.6-0.2-0.8,0l-6.4,6.4c-0.2,0.2-0.1,0.3-0.1,0.4
		c0,0.1,0.1,0.2,0.3,0.2h1.3v5.7c0,0.3,0.3,0.6,0.6,0.6h3.1l0,0h3.3l0,0h3.2c0.3,0,0.6-0.3,0.6-0.6v-5.7h1.3c0.2,0,0.3-0.1,0.3-0.2
		C420.8,378,420.8,377.9,420.6,377.7z"/>
	<g>
		<path class="st3" d="M414.3,374.8C414.3,374.8,414.3,374.8,414.3,374.8c-1,1.5-2,3-3,4.6c0.6,0,1.3,0,1.9,0.1c0,0.9,0,1.9-0.1,2.8
			c0,0,0,0,0,0c1-1.5,1.9-3.1,2.9-4.6c-0.6,0-1.3,0-1.9,0C414.2,376.6,414.3,375.7,414.3,374.8z"/>
	</g>
</g>
<g>
	<path class="st7" d="M467,226.4c0-3.1-2.5-5.7-5.7-5.7s-5.7,2.5-5.7,5.7c0,1.2,0.4,2.4,1.1,3.4l4.3,5.8c0.1,0.1,0.2,0.2,0.3,0.2
		c0.1,0,0.2-0.1,0.3-0.2l4.3-5.7l0.2-0.3h0c0.3-0.4,0.5-0.9,0.7-1.3C466.9,227.6,467,227,467,226.4z"/>
	<g>
		<path class="st3" d="M462,223.2C461.9,223.2,461.9,223.2,462,223.2c-1,1.5-2,3.1-3,4.7c0.7,0,1.3,0,1.9,0.1c0,0.9,0,1.9-0.1,2.8
			c0,0,0,0,0,0c1-1.6,2-3.1,3-4.7c-0.6,0-1.3,0-1.9-0.1C461.9,225.1,461.9,224.1,462,223.2z"/>
	</g>
</g>
<g>
	<line class="st8" x1="229.4" y1="276.4" x2="227.7" y2="277.6"/>
	<path class="st7" d="M247.6,281.2c0.7,0,1.3,0,1.9,0c0.2-0.2,0.2-0.5,0.1-0.8c-0.1-0.3-0.3-0.6-0.2-0.8c0-0.1,0.1-0.3,0.2-0.4
		c0,0,0,0,0-0.1c0.1-0.3,0-0.7-0.2-1c-0.5-0.7-1.2-1.1-2-1.3s-1.6-0.4-2.4-0.6c-1.3-0.4-2.4-1.2-3.6-1.7c-1.8-0.8-3.8-1.1-5.8-1.1
		c-1.2,0-2.5,0.1-3.7,0.2c-0.6,0.1-1.2,0.1-1.8,0.2c-0.3,0-0.6,0.1-0.9,0.1c-0.2,0-0.7,0.1-0.3,0.2l-1.6,2.4
		c-0.2,0.3-0.1,0.6-0.1,0.9c0,0.6-0.4,1.1-0.5,1.7c-0.2,0.7,0,1.5,0.4,2.1c0.2,0,0.3,0,0.5,0L247.6,281.2z"/>
	<path class="st9" d="M245.4,282.6c-1,0-1.8-0.8-1.8-1.8c0-1,0.8-1.8,1.8-1.8s1.8,0.8,1.8,1.8C247.2,281.8,246.4,282.6,245.4,282.6
		L245.4,282.6z"/>
	<path class="st9" d="M230.9,282.7c1,0,1.8-0.8,1.8-1.8c0-1-0.8-1.8-1.8-1.8s-1.8,0.8-1.8,1.8C229.1,281.9,229.9,282.7,230.9,282.7
		L230.9,282.7z"/>
</g>
<g>
	<path class="st7" d="M245.8,176.9c-1.4,0.6-2.3,2-2.1,3.6c0.2,2,1.9,3.5,4,3.3c0.2,0,0.4-0.1,0.7-0.2c0.1,0,0.2-0.1,0.3-0.1
		c0.1,0,0.1-0.1,0.2-0.1c0.1,0,0.2,0,0.2,0c0,0,0.1,0.1,0.1,0.1c0.1,0.1,0.2,0.1,0.3,0.1c0.2,0.1,0.4,0.2,0.6,0.2
		c0.4,0.1,0.8,0.1,1.2,0.1c2-0.2,3.5-1.9,3.3-4c-0.1-1.1-0.7-2.1-1.5-2.7l0,0c0-0.3,0.1-0.6,0-0.9c-0.2-2-1.9-3.5-4-3.3
		C247.3,173.4,245.9,175,245.8,176.9L245.8,176.9z"/>
	<line class="st10" x1="246.6" y1="181" x2="248.9" y2="182.2"/>
	<polyline class="st10" points="249,183.4 249,177.9 249,177.9 	"/>
	<line class="st10" x1="249" y1="192" x2="249" y2="183.4"/>
	<line class="st10" x1="251.6" y1="180" x2="249.1" y2="181.1"/>
</g>
<g>
	<path class="st7" d="M229.8,176.9c-1.4,0.6-2.3,2-2.1,3.6c0.2,2,1.9,3.5,4,3.3c0.2,0,0.4-0.1,0.7-0.2c0.1,0,0.2-0.1,0.3-0.1
		c0.1,0,0.1-0.1,0.2-0.1c0.1,0,0.2,0,0.2,0c0,0,0.1,0.1,0.1,0.1c0.1,0.1,0.2,0.1,0.3,0.1c0.2,0.1,0.4,0.2,0.6,0.2
		c0.4,0.1,0.8,0.1,1.2,0.1c2-0.2,3.5-1.9,3.3-4c-0.1-1.1-0.7-2.1-1.5-2.7l0,0c0-0.3,0.1-0.6,0-0.9c-0.2-2-1.9-3.5-4-3.3
		C231.3,173.4,229.9,175,229.8,176.9L229.8,176.9z"/>
	<line class="st10" x1="230.6" y1="181" x2="232.9" y2="182.2"/>
	<polyline class="st10" points="233,183.4 233,177.9 233,177.9 	"/>
	<line class="st10" x1="233" y1="192" x2="233" y2="183.4"/>
	<line class="st10" x1="235.6" y1="180" x2="233.1" y2="181.1"/>
</g>
<g>
	<path class="st7" d="M61.8,299.9c-1.4,0.6-2.3,2-2.1,3.6c0.2,2,1.9,3.5,4,3.3c0.2,0,0.4-0.1,0.7-0.2c0.1,0,0.2-0.1,0.3-0.1
		c0.1,0,0.1-0.1,0.2-0.1c0.1,0,0.2,0,0.2,0c0,0,0.1,0.1,0.1,0.1c0.1,0.1,0.2,0.1,0.3,0.1c0.2,0.1,0.4,0.2,0.6,0.2
		c0.4,0.1,0.8,0.1,1.2,0.1c2-0.2,3.5-1.9,3.3-4c-0.1-1.1-0.7-2.1-1.5-2.7l0,0c0-0.3,0.1-0.6,0-0.9c-0.2-2-1.9-3.5-4-3.3
		C63.3,296.4,61.9,298,61.8,299.9L61.8,299.9z"/>
	<line class="st10" x1="62.6" y1="304" x2="64.9" y2="305.2"/>
	<polyline class="st10" points="65,306.4 65,300.9 65,300.9 	"/>
	<line class="st10" x1="65" y1="315" x2="65" y2="306.4"/>
	<line class="st10" x1="67.6" y1="303" x2="65.1" y2="304.1"/>
</g>
<g>
	<path class="st7" d="M45.8,299.9c-1.4,0.6-2.3,2-2.1,3.6c0.2,2,1.9,3.5,4,3.3c0.2,0,0.4-0.1,0.7-0.2c0.1,0,0.2-0.1,0.3-0.1
		c0.1,0,0.1-0.1,0.2-0.1c0.1,0,0.2,0,0.2,0c0,0,0.1,0.1,0.1,0.1c0.1,0.1,0.2,0.1,0.3,0.1c0.2,0.1,0.4,0.2,0.6,0.2
		c0.4,0.1,0.8,0.1,1.2,0.1c2-0.2,3.5-1.9,3.3-4c-0.1-1.1-0.7-2.1-1.5-2.7l0,0c0-0.3,0.1-0.6,0-0.9c-0.2-2-1.9-3.5-4-3.3
		C47.3,296.4,45.9,298,45.8,299.9L45.8,299.9z"/>
	<line class="st10" x1="46.6" y1="304" x2="48.9" y2="305.2"/>
	<polyline class="st10" points="49,306.4 49,300.9 49,300.9 	"/>
	<line class="st10" x1="49" y1="315" x2="49" y2="306.4"/>
	<line class="st10" x1="51.6" y1="303" x2="49.1" y2="304.1"/>
</g>
<g>
	<path class="st7" d="M235.8,308.9c-1.4,0.6-2.3,2-2.1,3.6c0.2,2,1.9,3.5,4,3.3c0.2,0,0.4-0.1,0.7-0.2c0.1,0,0.2-0.1,0.3-0.1
		c0.1,0,0.1-0.1,0.2-0.1c0.1,0,0.2,0,0.2,0c0,0,0.1,0.1,0.1,0.1c0.1,0.1,0.2,0.1,0.3,0.1c0.2,0.1,0.4,0.2,0.6,0.2
		c0.4,0.1,0.8,0.1,1.2,0.1c2-0.2,3.5-1.9,3.3-4c-0.1-1.1-0.7-2.1-1.5-2.7l0,0c0-0.3,0.1-0.6,0-0.9c-0.2-2-1.9-3.5-4-3.3
		C237.3,305.4,235.9,307,235.8,308.9L235.8,308.9z"/>
	<line class="st10" x1="236.6" y1="313" x2="238.9" y2="314.2"/>
	<polyline class="st10" points="239,315.4 239,309.9 239,309.9 	"/>
	<line class="st10" x1="239" y1="324" x2="239" y2="315.4"/>
	<line class="st10" x1="241.6" y1="312" x2="239.1" y2="313.1"/>
</g>
<g>
	<path class="st7" d="M307.8,59.9c-1.4,0.6-2.3,2-2.1,3.6c0.2,2,1.9,3.5,4,3.3c0.2,0,0.4-0.1,0.7-0.2c0.1,0,0.2-0.1,0.3-0.1
		c0.1,0,0.1-0.1,0.2-0.1c0.1,0,0.2,0,0.2,0c0,0,0.1,0.1,0.1,0.1c0.1,0.1,0.2,0.1,0.3,0.1c0.2,0.1,0.4,0.2,0.6,0.2
		c0.4,0.1,0.8,0.1,1.2,0.1c2-0.2,3.5-1.9,3.3-4c-0.1-1.1-0.7-2.1-1.5-2.7l0,0c0-0.3,0.1-0.6,0-0.9c-0.2-2-1.9-3.5-4-3.3
		C309.3,56.4,307.9,58,307.8,59.9L307.8,59.9z"/>
	<line class="st10" x1="308.6" y1="64" x2="310.9" y2="65.2"/>
	<polyline class="st10" points="311,66.4 311,60.9 311,60.9 	"/>
	<line class="st10" x1="311" y1="75" x2="311" y2="66.4"/>
	<line class="st10" x1="313.6" y1="63" x2="311.1" y2="64.1"/>
</g>
<g>
	<line class="st8" x1="185.4" y1="60.4" x2="183.7" y2="61.6"/>
	<path class="st7" d="M203.6,65.2c0.7,0,1.3,0,1.9,0c0.2-0.2,0.2-0.5,0.1-0.8c-0.1-0.3-0.3-0.6-0.2-0.8c0-0.1,0.1-0.3,0.2-0.4
		c0,0,0,0,0-0.1c0.1-0.3,0-0.7-0.2-1c-0.5-0.7-1.2-1.1-2-1.3s-1.6-0.4-2.4-0.6c-1.3-0.4-2.4-1.2-3.6-1.7c-1.8-0.8-3.8-1.1-5.8-1.1
		c-1.2,0-2.5,0.1-3.7,0.2c-0.6,0.1-1.2,0.1-1.8,0.2c-0.3,0-0.6,0.1-0.9,0.1c-0.2,0-0.7,0.1-0.3,0.2l-1.6,2.4
		c-0.2,0.3-0.1,0.6-0.1,0.9c0,0.6-0.4,1.1-0.5,1.7c-0.2,0.7,0,1.5,0.4,2.1c0.2,0,0.3,0,0.5,0L203.6,65.2z"/>
	<path class="st9" d="M201.4,66.6c-1,0-1.8-0.8-1.8-1.8c0-1,0.8-1.8,1.8-1.8s1.8,0.8,1.8,1.8C203.2,65.8,202.4,66.6,201.4,66.6
		L201.4,66.6z"/>
	<path class="st9" d="M186.9,66.7c1,0,1.8-0.8,1.8-1.8c0-1-0.8-1.8-1.8-1.8s-1.8,0.8-1.8,1.8C185.1,65.9,185.9,66.7,186.9,66.7
		L186.9,66.7z"/>
</g>
<g>
	<path class="st6" d="M420,17.4c0-3.1-2.5-5.7-5.7-5.7s-5.7,2.5-5.7,5.7c0,1.2,0.4,2.4,1.1,3.4l4.3,5.8c0.1,0.1,0.2,0.2,0.3,0.2
		c0.1,0,0.2-0.1,0.3-0.2l4.3-5.7l0.2-0.3h0c0.3-0.4,0.5-0.9,0.7-1.3C419.9,18.6,420,18,420,17.4z"/>
	<g>
		<path class="st3" d="M415,14.2C414.9,14.2,414.9,14.2,415,14.2c-1,1.5-2,3.1-3,4.7c0.7,0,1.3,0,1.9,0.1c0,0.9,0,1.9-0.1,2.8
			c0,0,0,0,0,0c1-1.6,2-3.1,3-4.7c-0.6,0-1.3,0-1.9-0.1C414.9,16.1,414.9,15.1,415,14.2z"/>
	</g>
</g>
<g>
	<line class="st6" x1="136.2" y1="370.1" x2="136.2" y2="375.9"/>
	<line class="st6" x1="133.3" y1="373" x2="139.1" y2="373"/>
</g>
<g>
	<line class="st6" x1="378.2" y1="180.1" x2="378.2" y2="185.9"/>
	<line class="st6" x1="375.3" y1="183" x2="381.1" y2="183"/>
</g>
<g>
	<line class="st6" x1="155.2" y1="191.1" x2="155.2" y2="196.9"/>
	<line class="st6" x1="152.3" y1="194" x2="158.1" y2="194"/>
</g>
<g>
	<path class="st7" d="M314.4,160.8c0-0.3-0.3-0.6-0.6-0.6H312l2.4,2.4V160.8z"/>
	<path class="st7" d="M317.6,165.7l-1.8-1.8l0,0l-3.8-3.7h0l-1-1c-0.2-0.2-0.6-0.2-0.8,0l-6.4,6.4c-0.2,0.2-0.1,0.3-0.1,0.4
		c0,0.1,0.1,0.2,0.3,0.2h1.3v5.7c0,0.3,0.3,0.6,0.6,0.6h3.1l0,0h3.3l0,0h3.2c0.3,0,0.6-0.3,0.6-0.6v-5.7h1.3c0.2,0,0.3-0.1,0.3-0.2
		C317.8,166,317.8,165.9,317.6,165.7z"/>
	<g>
		<path class="st3" d="M311.3,162.8C311.3,162.8,311.3,162.8,311.3,162.8c-1,1.5-2,3-3,4.6c0.6,0,1.3,0,1.9,0.1c0,0.9,0,1.9-0.1,2.8
			c0,0,0,0,0,0c1-1.5,1.9-3.1,2.9-4.6c-0.6,0-1.3,0-1.9,0C311.2,164.6,311.3,163.7,311.3,162.8z"/>
	</g>
</g>
<g>
	<path class="st7" d="M357.9,104.5c-0.7,0-1.4,0-2.1,0c-0.8,0-1.2,0.4-1.2,1.2c0,2.3,0,4.5,0,6.8c0,0.8,0.4,1.2,1.2,1.2
		c3.6,0,7.1,0,10.7,0c0.1,0,0.3,0,0.4,0c0.5-0.1,0.7-0.5,0.8-1.2c0-1.8,0-3.7,0-5.5c0-0.4,0-0.8,0-1.3c0-0.7-0.4-1.1-1.2-1.1
		c-0.5,0-1.1,0-1.6,0h-0.7c0-0.4,0-0.7,0-1c0-0.8-0.4-1.2-1.2-1.2c-1.3,0-2.6,0-3.9,0c-0.8,0-1.2,0.4-1.2,1.2
		C357.9,103.8,357.9,104.2,357.9,104.5z"/>
	<path class="st7" d="M363.6,104.5c0-0.4,0-0.7,0-1.1c0-0.4-0.2-0.5-0.5-0.5c-0.4,0-0.8,0-1.2,0c-0.9,0-1.9,0-2.8,0
		c-0.3,0-0.5,0.1-0.5,0.4c0,0.4,0,0.8,0,1.2H363.6z"/>
	<g>
		<path class="st3" d="M361.7,105.8C361.7,105.8,361.7,105.8,361.7,105.8c-0.9,1.3-1.7,2.6-2.5,3.9c0.6,0,1.1,0,1.6,0
			c0,0.8,0,1.6-0.1,2.4c0,0,0,0,0,0c0.8-1.3,1.7-2.6,2.5-3.9c-0.5,0-1.1,0-1.6,0C361.7,107.3,361.7,106.5,361.7,105.8z"/>
	</g>
</g>
<g>
	<path class="st6" d="M124,294.4c0-3.1-2.5-5.7-5.7-5.7s-5.7,2.5-5.7,5.7c0,1.2,0.4,2.4,1.1,3.4l4.3,5.8c0.1,0.1,0.2,0.2,0.3,0.2
		c0.1,0,0.2-0.1,0.3-0.2l4.3-5.7l0.2-0.3h0c0.3-0.4,0.5-0.9,0.7-1.3C123.9,295.6,124,295,124,294.4z"/>
	<g>
		<path class="st3" d="M119,291.2C118.9,291.2,118.9,291.2,119,291.2c-1,1.5-2,3.1-3,4.7c0.7,0,1.3,0,1.9,0.1c0,0.9,0,1.9-0.1,2.8
			c0,0,0,0,0,0c1-1.6,2-3.1,3-4.7c-0.6,0-1.3,0-1.9-0.1C118.9,293.1,118.9,292.1,119,291.2z"/>
	</g>
</g>
<circle class="st3" cx="57.6" cy="194" r="3"/>
<circle class="st3" cx="119.6" cy="104" r="3"/>
<circle class="st3" cx="258.6" cy="101" r="3"/>
<circle class="st3" cx="310.6" cy="144" r="3"/>
<circle class="st3" cx="360.6" cy="20" r="3"/>
<circle class="st1" cx="378.6" cy="228" r="3"/>
<circle class="st1" cx="311.6" cy="229" r="3"/>
<circle class="st1" cx="119.6" cy="141" r="3"/>
<circle class="st3" cx="360.6" cy="144" r="3"/>
<g>
	<path class="st7" d="M433.4,137.8c0-0.3-0.3-0.6-0.6-0.6H431l2.4,2.4V137.8z"/>
	<path class="st7" d="M436.6,142.7l-1.8-1.8l0,0l-3.8-3.7h0l-1-1c-0.2-0.2-0.6-0.2-0.8,0l-6.4,6.4c-0.2,0.2-0.1,0.3-0.1,0.4
		c0,0.1,0.1,0.2,0.3,0.2h1.3v5.7c0,0.3,0.3,0.6,0.6,0.6h3.1l0,0h3.3l0,0h3.2c0.3,0,0.6-0.3,0.6-0.6v-5.7h1.3c0.2,0,0.3-0.1,0.3-0.2
		C436.8,143,436.8,142.9,436.6,142.7z"/>
	<g>
		<path class="st3" d="M430.3,139.8C430.3,139.8,430.3,139.8,430.3,139.8c-1,1.5-2,3-3,4.6c0.6,0,1.3,0,1.9,0.1c0,0.9,0,1.9-0.1,2.8
			c0,0,0,0,0,0c1-1.5,1.9-3.1,2.9-4.6c-0.6,0-1.3,0-1.9,0C430.2,141.6,430.3,140.7,430.3,139.8z"/>
	</g>
</g>
<g>
	<line class="st6" x1="413.5" y1="59.1" x2="413.5" y2="64.9"/>
	<line class="st6" x1="416.4" y1="62" x2="410.6" y2="62"/>
</g>
<g>
	<line class="st6" x1="408.5" y1="301.1" x2="408.5" y2="306.9"/>
	<line class="st6" x1="411.4" y1="304" x2="405.6" y2="304"/>
</g>
</svg>
