<?xml version="1.0" encoding="utf-8"?>
<!-- Generator: Adobe Illustrator 21.0.2, SVG Export Plug-In . SVG Version: 6.00 Build 0)  -->
<svg version="1.1" id="Layer_1" xmlns="http://www.w3.org/2000/svg" xmlns:xlink="http://www.w3.org/1999/xlink" x="0px" y="0px"
	 viewBox="0 0 216 213" style="enable-background:new 0 0 216 213;" xml:space="preserve">
<style type="text/css">
	.st0{clip-path:url(#SVGID_2_);fill:#F8F8F8;}
	.st1{clip-path:url(#SVGID_2_);fill:none;stroke:#FFFFFF;stroke-width:1.5;stroke-linecap:round;stroke-miterlimit:10;}
	.st2{clip-path:url(#SVGID_2_);}
	.st3{fill:#CCCCCC;stroke:#E6E6E6;stroke-width:1.5;stroke-linecap:round;stroke-miterlimit:10;}
	.st4{clip-path:url(#SVGID_2_);fill:none;stroke:#333333;stroke-width:1.5;stroke-linecap:round;}
	.st5{clip-path:url(#SVGID_2_);fill:#B3B3B3;stroke:#333333;stroke-width:1.5;stroke-linecap:round;stroke-miterlimit:10;}
	.st6{clip-path:url(#SVGID_2_);fill:none;stroke:#8DC043;stroke-width:1.5;stroke-linecap:round;}
	.st7{clip-path:url(#SVGID_2_);fill:#F8F8F8;stroke:#333333;stroke-width:1.5;stroke-miterlimit:10;}
	.st8{opacity:0.76;clip-path:url(#SVGID_2_);}
	.st9{fill:#E6E6E6;stroke:#4D4D4D;stroke-linecap:round;stroke-miterlimit:10;}
	.st10{fill:#8CC63F;stroke:#4D4D4D;stroke-linecap:round;stroke-miterlimit:10;}
	.st11{fill:#FFFFFF;stroke:#FFFFFF;stroke-miterlimit:10;}
	.st12{fill:none;stroke:#FFFFFF;stroke-linecap:round;stroke-miterlimit:10;}
	.st13{fill:#FFFFFF;}
	.st14{clip-path:url(#SVGID_2_);fill-rule:evenodd;clip-rule:evenodd;fill:#262529;stroke:#333333;stroke-width:1.5;}
	
		.st15{clip-path:url(#SVGID_2_);fill-rule:evenodd;clip-rule:evenodd;fill:#E6E6E6;stroke:#333333;stroke-width:1.5;stroke-linecap:round;stroke-linejoin:round;}
	
		.st16{clip-path:url(#SVGID_2_);fill-rule:evenodd;clip-rule:evenodd;fill:#8CC63F;stroke:#333333;stroke-width:1.5;stroke-linecap:round;stroke-linejoin:round;}
	
		.st17{clip-path:url(#SVGID_2_);fill-rule:evenodd;clip-rule:evenodd;fill:none;stroke:#333333;stroke-width:1.5;stroke-linecap:round;stroke-linejoin:round;}
	.st18{clip-path:url(#SVGID_2_);fill:none;stroke:#333333;stroke-width:1.5;stroke-linecap:round;stroke-linejoin:round;}
	
		.st19{clip-path:url(#SVGID_2_);fill:#8FC043;stroke:#333333;stroke-width:1.5;stroke-linecap:round;stroke-linejoin:round;stroke-miterlimit:10;}
	
		.st20{clip-path:url(#SVGID_2_);fill:#E6E6E6;stroke:#333333;stroke-width:1.5;stroke-linecap:round;stroke-linejoin:round;stroke-miterlimit:10;}
	
		.st21{clip-path:url(#SVGID_2_);fill:none;stroke:#333333;stroke-width:1.5;stroke-linecap:round;stroke-linejoin:round;stroke-miterlimit:10;}
	.st22{clip-path:url(#SVGID_2_);fill:#F8F8F8;stroke:#333333;stroke-width:1.5;stroke-linecap:round;stroke-miterlimit:10;}
	.st23{clip-path:url(#SVGID_2_);fill:#E6E6E6;stroke:#333333;stroke-width:1.5;stroke-linecap:round;stroke-miterlimit:10;}
	.st24{clip-path:url(#SVGID_2_);fill:#FFFFFF;}
	.st25{clip-path:url(#SVGID_2_);fill:none;stroke:#4D4D4D;stroke-width:1.5;stroke-linecap:round;stroke-miterlimit:10;}
	.st26{fill:none;stroke:#FFFFFF;stroke-width:1.5;stroke-linecap:round;stroke-linejoin:round;}
	.st27{clip-path:url(#SVGID_2_);fill:#E6E6E6;}
	.st28{fill:#4E4D4D;}
	.st29{fill:none;stroke:#333333;stroke-width:3;stroke-linecap:round;stroke-linejoin:round;stroke-miterlimit:10;}
</style>
<g>
	<defs>
		<circle id="SVGID_1_" cx="109" cy="105.5" r="105"/>
	</defs>
	<use xlink:href="#SVGID_1_"  style="overflow:visible;opacity:0.74;fill:#F2F2F2;"/>
	<clipPath id="SVGID_2_">
		<use xlink:href="#SVGID_1_"  style="overflow:visible;opacity:0.74;"/>
	</clipPath>
	<rect x="-71.7" y="149.2" class="st0" width="345.2" height="79.7"/>
	<line class="st1" x1="-13.8" y1="158.7" x2="-30.1" y2="175"/>
	<line class="st1" x1="22.5" y1="158.7" x2="-28.6" y2="209.9"/>
	<line class="st1" x1="59.8" y1="158.7" x2="-32.3" y2="250.8"/>
	<line class="st1" x1="96.6" y1="158.7" x2="4.5" y2="250.8"/>
	<line class="st1" x1="135.1" y1="156.6" x2="42.9" y2="248.7"/>
	<line class="st1" x1="171.9" y1="156.6" x2="79.7" y2="248.7"/>
	<line class="st1" x1="244.7" y1="230.1" x2="228.4" y2="246.4"/>
	<line class="st1" x1="243.4" y1="195.9" x2="192.3" y2="247"/>
	<line class="st1" x1="209.2" y1="158.7" x2="117.1" y2="250.8"/>
	<line class="st1" x1="246" y1="158.7" x2="153.9" y2="250.8"/>
	<g class="st2">
		<g>
			<line class="st3" x1="-98.3" y1="71.3" x2="18" y2="71"/>
			<line class="st3" x1="-98.4" y1="62.8" x2="18" y2="62.5"/>
			<line class="st3" x1="-83.9" y1="70.9" x2="-83.9" y2="63.1"/>
			<line class="st3" x1="-69.2" y1="70.9" x2="-69.2" y2="63.1"/>
			<line class="st3" x1="-54.9" y1="70.9" x2="-54.9" y2="63.1"/>
			<line class="st3" x1="-40.2" y1="70.9" x2="-40.2" y2="63.1"/>
			<line class="st3" x1="-25.8" y1="70.9" x2="-25.8" y2="63.1"/>
			<line class="st3" x1="-11" y1="70.9" x2="-11" y2="63.1"/>
			<line class="st3" x1="3.7" y1="70.9" x2="3.7" y2="63.1"/>
			<line class="st3" x1="-98.2" y1="80.1" x2="17.9" y2="79.8"/>
			<line class="st3" x1="-91.3" y1="79.7" x2="-91.3" y2="71.9"/>
			<line class="st3" x1="-76.5" y1="79.7" x2="-76.5" y2="71.9"/>
			<line class="st3" x1="-62.3" y1="79.7" x2="-62.3" y2="71.9"/>
			<line class="st3" x1="-47.5" y1="79.7" x2="-47.5" y2="71.9"/>
			<line class="st3" x1="-33.1" y1="79.7" x2="-33.1" y2="71.9"/>
			<line class="st3" x1="-18.4" y1="79.7" x2="-18.4" y2="71.9"/>
			<line class="st3" x1="-3.6" y1="79.7" x2="-3.6" y2="71.9"/>
			<line class="st3" x1="11.7" y1="79.7" x2="11.7" y2="71.9"/>
			<line class="st3" x1="-98.2" y1="88.9" x2="18.1" y2="88.7"/>
			<line class="st3" x1="-83.8" y1="88.5" x2="-83.8" y2="80.8"/>
			<line class="st3" x1="-69.1" y1="88.5" x2="-69.1" y2="80.8"/>
			<line class="st3" x1="-54.9" y1="88.5" x2="-54.9" y2="80.8"/>
			<line class="st3" x1="-40.1" y1="88.5" x2="-40.1" y2="80.8"/>
			<line class="st3" x1="-25.7" y1="88.5" x2="-25.7" y2="80.8"/>
			<line class="st3" x1="-10.9" y1="88.5" x2="-10.9" y2="80.8"/>
			<line class="st3" x1="3.8" y1="88.5" x2="3.8" y2="80.8"/>
			<line class="st3" x1="-98.1" y1="97.7" x2="18" y2="97.5"/>
			<line class="st3" x1="-91.2" y1="97.3" x2="-91.2" y2="89.6"/>
			<line class="st3" x1="-76.4" y1="97.3" x2="-76.4" y2="89.6"/>
			<line class="st3" x1="-62.2" y1="97.3" x2="-62.2" y2="89.6"/>
			<line class="st3" x1="-47.4" y1="97.3" x2="-47.4" y2="89.6"/>
			<line class="st3" x1="-33" y1="97.3" x2="-33" y2="89.6"/>
			<line class="st3" x1="-18.3" y1="97.3" x2="-18.3" y2="89.6"/>
			<line class="st3" x1="-3.5" y1="97.3" x2="-3.5" y2="89.6"/>
			<line class="st3" x1="11.8" y1="97.3" x2="11.8" y2="89.6"/>
			<line class="st3" x1="-97.7" y1="106.1" x2="18.6" y2="105.9"/>
			<line class="st3" x1="-83.3" y1="105.8" x2="-83.3" y2="98"/>
			<line class="st3" x1="-68.5" y1="105.8" x2="-68.5" y2="98"/>
			<line class="st3" x1="-54.3" y1="105.8" x2="-54.3" y2="98"/>
			<line class="st3" x1="-39.6" y1="105.8" x2="-39.6" y2="98"/>
			<line class="st3" x1="-25.2" y1="105.8" x2="-25.2" y2="98"/>
			<line class="st3" x1="-10.4" y1="105.8" x2="-10.4" y2="98"/>
			<line class="st3" x1="4.3" y1="105.8" x2="4.3" y2="98"/>
			<line class="st3" x1="-97.5" y1="114.9" x2="18.6" y2="114.7"/>
			<line class="st3" x1="-90.6" y1="114.6" x2="-90.6" y2="106.8"/>
			<line class="st3" x1="-75.9" y1="114.6" x2="-75.9" y2="106.8"/>
			<line class="st3" x1="-61.7" y1="114.6" x2="-61.7" y2="106.8"/>
			<line class="st3" x1="-46.9" y1="114.6" x2="-46.9" y2="106.8"/>
			<line class="st3" x1="-32.5" y1="114.6" x2="-32.5" y2="106.8"/>
			<line class="st3" x1="-17.8" y1="114.6" x2="-17.8" y2="106.8"/>
			<line class="st3" x1="-3" y1="114.6" x2="-3" y2="106.8"/>
			<line class="st3" x1="12.3" y1="114.6" x2="12.3" y2="106.8"/>
			<line class="st3" x1="-97.6" y1="123.8" x2="18.7" y2="123.6"/>
			<line class="st3" x1="-83.2" y1="123.4" x2="-83.2" y2="115.6"/>
			<line class="st3" x1="-68.4" y1="123.4" x2="-68.4" y2="115.6"/>
			<line class="st3" x1="-54.2" y1="123.4" x2="-54.2" y2="115.6"/>
			<line class="st3" x1="-39.5" y1="123.4" x2="-39.5" y2="115.6"/>
			<line class="st3" x1="-25.1" y1="123.4" x2="-25.1" y2="115.6"/>
			<line class="st3" x1="-10.3" y1="123.4" x2="-10.3" y2="115.6"/>
			<line class="st3" x1="4.4" y1="123.4" x2="4.4" y2="115.6"/>
			<line class="st3" x1="-97.5" y1="132.6" x2="18.7" y2="132.4"/>
			<line class="st3" x1="-90.6" y1="132.2" x2="-90.6" y2="124.5"/>
			<line class="st3" x1="-75.8" y1="132.2" x2="-75.8" y2="124.5"/>
			<line class="st3" x1="-61.6" y1="132.2" x2="-61.6" y2="124.5"/>
			<line class="st3" x1="-46.8" y1="132.2" x2="-46.8" y2="124.5"/>
			<line class="st3" x1="-32.4" y1="132.2" x2="-32.4" y2="124.5"/>
			<line class="st3" x1="-17.7" y1="132.2" x2="-17.7" y2="124.5"/>
			<line class="st3" x1="-2.9" y1="132.2" x2="-2.9" y2="124.5"/>
			<line class="st3" x1="12.4" y1="132.2" x2="12.4" y2="124.5"/>
			<line class="st3" x1="-97.7" y1="140.7" x2="18.6" y2="140.4"/>
			<line class="st3" x1="-83.3" y1="140.3" x2="-83.3" y2="132.5"/>
			<line class="st3" x1="-68.5" y1="140.3" x2="-68.5" y2="132.5"/>
			<line class="st3" x1="-54.3" y1="140.3" x2="-54.3" y2="132.5"/>
			<line class="st3" x1="-39.6" y1="140.3" x2="-39.6" y2="132.5"/>
			<line class="st3" x1="-25.2" y1="140.3" x2="-25.2" y2="132.5"/>
			<line class="st3" x1="-10.4" y1="140.3" x2="-10.4" y2="132.5"/>
			<line class="st3" x1="4.3" y1="140.3" x2="4.3" y2="132.5"/>
			<line class="st3" x1="-97.5" y1="149.5" x2="18.6" y2="149.2"/>
			<line class="st3" x1="-90.6" y1="149.1" x2="-90.6" y2="141.3"/>
			<line class="st3" x1="-75.9" y1="149.1" x2="-75.9" y2="141.3"/>
			<line class="st3" x1="-61.7" y1="149.1" x2="-61.7" y2="141.3"/>
			<line class="st3" x1="-46.9" y1="149.1" x2="-46.9" y2="141.3"/>
			<line class="st3" x1="-32.5" y1="149.1" x2="-32.5" y2="141.3"/>
			<line class="st3" x1="-17.8" y1="149.1" x2="-17.8" y2="141.3"/>
			<line class="st3" x1="-3" y1="149.1" x2="-3" y2="141.3"/>
			<line class="st3" x1="12.3" y1="149.1" x2="12.3" y2="141.3"/>
			<line class="st3" x1="18" y1="71" x2="113.3" y2="70.9"/>
			<line class="st3" x1="18" y1="62.5" x2="113.3" y2="62.4"/>
			<line class="st3" x1="34.1" y1="70.7" x2="34.1" y2="62.9"/>
			<line class="st3" x1="48.9" y1="70.7" x2="48.9" y2="62.9"/>
			<line class="st3" x1="63.1" y1="70.7" x2="63.1" y2="62.9"/>
			<line class="st3" x1="77.9" y1="70.7" x2="77.9" y2="62.9"/>
			<line class="st3" x1="92.2" y1="70.7" x2="92.2" y2="62.9"/>
			<line class="st3" x1="107" y1="70.7" x2="107" y2="62.9"/>
			<line class="st3" x1="17.9" y1="79.8" x2="113.3" y2="79.7"/>
			<line class="st3" x1="26.8" y1="79.5" x2="26.8" y2="71.7"/>
			<line class="st3" x1="41.5" y1="79.5" x2="41.5" y2="71.7"/>
			<line class="st3" x1="55.7" y1="79.5" x2="55.7" y2="71.7"/>
			<line class="st3" x1="70.5" y1="79.5" x2="70.5" y2="71.7"/>
			<line class="st3" x1="84.9" y1="79.5" x2="84.9" y2="71.7"/>
			<line class="st3" x1="99.7" y1="79.5" x2="99.7" y2="71.7"/>
			<line class="st3" x1="18" y1="88.7" x2="113.4" y2="88.5"/>
			<line class="st3" x1="34.2" y1="88.4" x2="34.2" y2="80.6"/>
			<line class="st3" x1="49" y1="88.4" x2="49" y2="80.6"/>
			<line class="st3" x1="63.2" y1="88.4" x2="63.2" y2="80.6"/>
			<line class="st3" x1="77.9" y1="88.4" x2="77.9" y2="80.6"/>
			<line class="st3" x1="92.3" y1="88.4" x2="92.3" y2="80.6"/>
			<line class="st3" x1="107.1" y1="88.4" x2="107.1" y2="80.6"/>
			<line class="st3" x1="18" y1="97.5" x2="113.4" y2="97.3"/>
			<line class="st3" x1="26.9" y1="97.2" x2="26.9" y2="89.4"/>
			<line class="st3" x1="41.6" y1="97.2" x2="41.6" y2="89.4"/>
			<line class="st3" x1="55.8" y1="97.2" x2="55.8" y2="89.4"/>
			<line class="st3" x1="70.6" y1="97.2" x2="70.6" y2="89.4"/>
			<line class="st3" x1="85" y1="97.2" x2="85" y2="89.4"/>
			<line class="st3" x1="99.8" y1="97.2" x2="99.8" y2="89.4"/>
			<line class="st3" x1="18.5" y1="105.9" x2="113.8" y2="105.8"/>
			<line class="st3" x1="34.7" y1="105.6" x2="34.7" y2="97.8"/>
			<line class="st3" x1="49.5" y1="105.6" x2="49.5" y2="97.8"/>
			<line class="st3" x1="63.7" y1="105.6" x2="63.7" y2="97.8"/>
			<line class="st3" x1="78.5" y1="105.6" x2="78.5" y2="97.8"/>
			<line class="st3" x1="92.9" y1="105.6" x2="92.9" y2="97.8"/>
			<line class="st3" x1="107.6" y1="105.6" x2="107.6" y2="97.8"/>
			<line class="st3" x1="18.4" y1="114.7" x2="113.8" y2="114.6"/>
			<line class="st3" x1="27.4" y1="114.4" x2="27.4" y2="106.6"/>
			<line class="st3" x1="42.2" y1="114.4" x2="42.2" y2="106.6"/>
			<line class="st3" x1="56.4" y1="114.4" x2="56.4" y2="106.6"/>
			<line class="st3" x1="71.1" y1="114.4" x2="71.1" y2="106.6"/>
			<line class="st3" x1="85.5" y1="114.4" x2="85.5" y2="106.6"/>
			<line class="st3" x1="100.3" y1="114.4" x2="100.3" y2="106.6"/>
			<line class="st3" x1="18.5" y1="123.6" x2="113.9" y2="123.4"/>
			<line class="st3" x1="34.8" y1="123.3" x2="34.8" y2="115.5"/>
			<line class="st3" x1="49.6" y1="123.3" x2="49.6" y2="115.5"/>
			<line class="st3" x1="63.8" y1="123.3" x2="63.8" y2="115.5"/>
			<line class="st3" x1="78.6" y1="123.3" x2="78.6" y2="115.5"/>
			<line class="st3" x1="93" y1="123.3" x2="93" y2="115.5"/>
			<line class="st3" x1="107.7" y1="123.3" x2="107.7" y2="115.5"/>
			<line class="st3" x1="18.5" y1="132.4" x2="113.9" y2="132.2"/>
			<line class="st3" x1="27.5" y1="132.1" x2="27.5" y2="124.3"/>
			<line class="st3" x1="42.2" y1="132.1" x2="42.2" y2="124.3"/>
			<line class="st3" x1="56.5" y1="132.1" x2="56.5" y2="124.3"/>
			<line class="st3" x1="71.2" y1="132.1" x2="71.2" y2="124.3"/>
			<line class="st3" x1="85.6" y1="132.1" x2="85.6" y2="124.3"/>
			<line class="st3" x1="100.4" y1="132.1" x2="100.4" y2="124.3"/>
			<line class="st3" x1="18.5" y1="140.4" x2="113.8" y2="140.3"/>
			<line class="st3" x1="34.7" y1="140.1" x2="34.7" y2="132.3"/>
			<line class="st3" x1="49.5" y1="140.1" x2="49.5" y2="132.3"/>
			<line class="st3" x1="63.7" y1="140.1" x2="63.7" y2="132.3"/>
			<line class="st3" x1="78.5" y1="140.1" x2="78.5" y2="132.3"/>
			<line class="st3" x1="92.9" y1="140.1" x2="92.9" y2="132.3"/>
			<line class="st3" x1="107.6" y1="140.1" x2="107.6" y2="132.3"/>
			<line class="st3" x1="18.4" y1="149.2" x2="113.8" y2="149.1"/>
			<line class="st3" x1="27.4" y1="148.9" x2="27.4" y2="141.1"/>
			<line class="st3" x1="42.2" y1="148.9" x2="42.2" y2="141.1"/>
			<line class="st3" x1="56.4" y1="148.9" x2="56.4" y2="141.1"/>
			<line class="st3" x1="71.1" y1="148.9" x2="71.1" y2="141.1"/>
			<line class="st3" x1="85.5" y1="148.9" x2="85.5" y2="141.1"/>
			<line class="st3" x1="100.3" y1="148.9" x2="100.3" y2="141.1"/>
			<line class="st3" x1="19.2" y1="70.6" x2="19.2" y2="62.8"/>
			<line class="st3" x1="19.3" y1="88.3" x2="19.3" y2="80.5"/>
			<line class="st3" x1="19.8" y1="105.5" x2="19.8" y2="97.7"/>
			<line class="st3" x1="19.9" y1="123.1" x2="19.9" y2="115.4"/>
			<line class="st3" x1="19.8" y1="140" x2="19.8" y2="132.2"/>
		</g>
		<line class="st3" x1="-98.2" y1="-15.5" x2="18.2" y2="-15.7"/>
		<line class="st3" x1="-98.2" y1="-24" x2="18.1" y2="-24.2"/>
		<line class="st3" x1="-83.7" y1="-15.9" x2="-83.7" y2="-23.7"/>
		<line class="st3" x1="-69" y1="-15.9" x2="-69" y2="-23.7"/>
		<line class="st3" x1="-54.8" y1="-15.9" x2="-54.8" y2="-23.7"/>
		<line class="st3" x1="-40" y1="-15.9" x2="-40" y2="-23.7"/>
		<line class="st3" x1="-25.6" y1="-15.9" x2="-25.6" y2="-23.7"/>
		<line class="st3" x1="-10.8" y1="-15.9" x2="-10.8" y2="-23.7"/>
		<line class="st3" x1="3.9" y1="-15.9" x2="3.9" y2="-23.7"/>
		<line class="st3" x1="-98" y1="-6.7" x2="18.1" y2="-6.9"/>
		<line class="st3" x1="-91.1" y1="-7.1" x2="-91.1" y2="-14.8"/>
		<line class="st3" x1="-76.3" y1="-7.1" x2="-76.3" y2="-14.8"/>
		<line class="st3" x1="-62.1" y1="-7.1" x2="-62.1" y2="-14.8"/>
		<line class="st3" x1="-47.3" y1="-7.1" x2="-47.3" y2="-14.8"/>
		<line class="st3" x1="-32.9" y1="-7.1" x2="-32.9" y2="-14.8"/>
		<line class="st3" x1="-18.2" y1="-7.1" x2="-18.2" y2="-14.8"/>
		<line class="st3" x1="-3.5" y1="-7.1" x2="-3.5" y2="-14.8"/>
		<line class="st3" x1="11.8" y1="-7.1" x2="11.8" y2="-14.8"/>
		<line class="st3" x1="-98.1" y1="2.2" x2="18.3" y2="2"/>
		<line class="st3" x1="-83.6" y1="1.8" x2="-83.6" y2="-6"/>
		<line class="st3" x1="-68.9" y1="1.8" x2="-68.9" y2="-6"/>
		<line class="st3" x1="-54.7" y1="1.8" x2="-54.7" y2="-6"/>
		<line class="st3" x1="-39.9" y1="1.8" x2="-39.9" y2="-6"/>
		<line class="st3" x1="-25.5" y1="1.8" x2="-25.5" y2="-6"/>
		<line class="st3" x1="-10.7" y1="1.8" x2="-10.7" y2="-6"/>
		<line class="st3" x1="4" y1="1.8" x2="4" y2="-6"/>
		<line class="st3" x1="-97.9" y1="11" x2="18.2" y2="10.8"/>
		<line class="st3" x1="-91" y1="10.6" x2="-91" y2="2.8"/>
		<line class="st3" x1="-76.2" y1="10.6" x2="-76.2" y2="2.8"/>
		<line class="st3" x1="-62" y1="10.6" x2="-62" y2="2.8"/>
		<line class="st3" x1="-47.2" y1="10.6" x2="-47.2" y2="2.8"/>
		<line class="st3" x1="-32.9" y1="10.6" x2="-32.9" y2="2.8"/>
		<line class="st3" x1="-18.1" y1="10.6" x2="-18.1" y2="2.8"/>
		<line class="st3" x1="-3.4" y1="10.6" x2="-3.4" y2="2.8"/>
		<line class="st3" x1="11.9" y1="10.6" x2="11.9" y2="2.8"/>
		<line class="st3" x1="-97.5" y1="19.4" x2="18.8" y2="19.2"/>
		<line class="st3" x1="-83.1" y1="19" x2="-83.1" y2="11.2"/>
		<line class="st3" x1="-68.4" y1="19" x2="-68.4" y2="11.2"/>
		<line class="st3" x1="-54.1" y1="19" x2="-54.1" y2="11.2"/>
		<line class="st3" x1="-39.4" y1="19" x2="-39.4" y2="11.2"/>
		<line class="st3" x1="-25" y1="19" x2="-25" y2="11.2"/>
		<line class="st3" x1="-10.2" y1="19" x2="-10.2" y2="11.2"/>
		<line class="st3" x1="4.5" y1="19" x2="4.5" y2="11.2"/>
		<line class="st3" x1="-97.4" y1="28.2" x2="18.7" y2="28"/>
		<line class="st3" x1="-90.5" y1="27.8" x2="-90.5" y2="20"/>
		<line class="st3" x1="-75.7" y1="27.8" x2="-75.7" y2="20"/>
		<line class="st3" x1="-61.5" y1="27.8" x2="-61.5" y2="20"/>
		<line class="st3" x1="-46.7" y1="27.8" x2="-46.7" y2="20"/>
		<line class="st3" x1="-32.3" y1="27.8" x2="-32.3" y2="20"/>
		<line class="st3" x1="-17.6" y1="27.8" x2="-17.6" y2="20"/>
		<line class="st3" x1="-2.8" y1="27.8" x2="-2.8" y2="20"/>
		<line class="st3" x1="12.5" y1="27.8" x2="12.5" y2="20"/>
		<line class="st3" x1="-97.4" y1="37.1" x2="18.9" y2="36.8"/>
		<line class="st3" x1="-83" y1="36.7" x2="-83" y2="28.9"/>
		<line class="st3" x1="-68.3" y1="36.7" x2="-68.3" y2="28.9"/>
		<line class="st3" x1="-54.1" y1="36.7" x2="-54.1" y2="28.9"/>
		<line class="st3" x1="-39.3" y1="36.7" x2="-39.3" y2="28.9"/>
		<line class="st3" x1="-24.9" y1="36.7" x2="-24.9" y2="28.9"/>
		<line class="st3" x1="-10.1" y1="36.7" x2="-10.1" y2="28.9"/>
		<line class="st3" x1="4.6" y1="36.7" x2="4.6" y2="28.9"/>
		<line class="st3" x1="-97.3" y1="45.9" x2="18.8" y2="45.6"/>
		<line class="st3" x1="-90.4" y1="45.5" x2="-90.4" y2="37.7"/>
		<line class="st3" x1="-75.6" y1="45.5" x2="-75.6" y2="37.7"/>
		<line class="st3" x1="-61.4" y1="45.5" x2="-61.4" y2="37.7"/>
		<line class="st3" x1="-46.6" y1="45.5" x2="-46.6" y2="37.7"/>
		<line class="st3" x1="-32.2" y1="45.5" x2="-32.2" y2="37.7"/>
		<line class="st3" x1="-17.5" y1="45.5" x2="-17.5" y2="37.7"/>
		<line class="st3" x1="-2.7" y1="45.5" x2="-2.7" y2="37.7"/>
		<line class="st3" x1="12.6" y1="45.5" x2="12.6" y2="37.7"/>
		<line class="st3" x1="-97.5" y1="53.9" x2="18.8" y2="53.7"/>
		<line class="st3" x1="-83.1" y1="53.5" x2="-83.1" y2="45.7"/>
		<line class="st3" x1="-68.4" y1="53.5" x2="-68.4" y2="45.7"/>
		<line class="st3" x1="-54.1" y1="53.5" x2="-54.1" y2="45.7"/>
		<line class="st3" x1="-39.4" y1="53.5" x2="-39.4" y2="45.7"/>
		<line class="st3" x1="-25" y1="53.5" x2="-25" y2="45.7"/>
		<line class="st3" x1="-10.2" y1="53.5" x2="-10.2" y2="45.7"/>
		<line class="st3" x1="4.5" y1="53.5" x2="4.5" y2="45.7"/>
		<line class="st3" x1="-90.5" y1="62.3" x2="-90.5" y2="54.6"/>
		<line class="st3" x1="-75.7" y1="62.3" x2="-75.7" y2="54.6"/>
		<line class="st3" x1="-61.5" y1="62.3" x2="-61.5" y2="54.6"/>
		<line class="st3" x1="-46.7" y1="62.3" x2="-46.7" y2="54.6"/>
		<line class="st3" x1="-32.3" y1="62.3" x2="-32.3" y2="54.6"/>
		<line class="st3" x1="-17.6" y1="62.3" x2="-17.6" y2="54.6"/>
		<line class="st3" x1="-2.8" y1="62.3" x2="-2.8" y2="54.6"/>
		<line class="st3" x1="12.5" y1="62.3" x2="12.5" y2="54.6"/>
		<line class="st3" x1="18.2" y1="-15.7" x2="113.5" y2="-15.9"/>
		<line class="st3" x1="18.1" y1="-24.2" x2="113.5" y2="-24.4"/>
		<line class="st3" x1="34.3" y1="-16" x2="34.3" y2="-23.8"/>
		<line class="st3" x1="49.1" y1="-16" x2="49.1" y2="-23.8"/>
		<line class="st3" x1="63.3" y1="-16" x2="63.3" y2="-23.8"/>
		<line class="st3" x1="78" y1="-16" x2="78" y2="-23.8"/>
		<line class="st3" x1="92.4" y1="-16" x2="92.4" y2="-23.8"/>
		<line class="st3" x1="107.2" y1="-16" x2="107.2" y2="-23.8"/>
		<line class="st3" x1="18.1" y1="-6.9" x2="113.5" y2="-7.1"/>
		<line class="st3" x1="27" y1="-7.2" x2="27" y2="-15"/>
		<line class="st3" x1="41.7" y1="-7.2" x2="41.7" y2="-15"/>
		<line class="st3" x1="55.9" y1="-7.2" x2="55.9" y2="-15"/>
		<line class="st3" x1="70.7" y1="-7.2" x2="70.7" y2="-15"/>
		<line class="st3" x1="85.1" y1="-7.2" x2="85.1" y2="-15"/>
		<line class="st3" x1="99.9" y1="-7.2" x2="99.9" y2="-15"/>
		<line class="st3" x1="18.2" y1="2" x2="113.6" y2="1.8"/>
		<line class="st3" x1="34.4" y1="1.6" x2="34.4" y2="-6.2"/>
		<line class="st3" x1="49.2" y1="1.6" x2="49.2" y2="-6.2"/>
		<line class="st3" x1="63.4" y1="1.6" x2="63.4" y2="-6.2"/>
		<line class="st3" x1="78.1" y1="1.6" x2="78.1" y2="-6.2"/>
		<line class="st3" x1="92.5" y1="1.6" x2="92.5" y2="-6.2"/>
		<line class="st3" x1="107.3" y1="1.6" x2="107.3" y2="-6.2"/>
		<line class="st3" x1="18.2" y1="10.8" x2="113.6" y2="10.6"/>
		<line class="st3" x1="27.1" y1="10.4" x2="27.1" y2="2.6"/>
		<line class="st3" x1="41.8" y1="10.4" x2="41.8" y2="2.6"/>
		<line class="st3" x1="56" y1="10.4" x2="56" y2="2.6"/>
		<line class="st3" x1="70.8" y1="10.4" x2="70.8" y2="2.6"/>
		<line class="st3" x1="85.2" y1="10.4" x2="85.2" y2="2.6"/>
		<line class="st3" x1="99.9" y1="10.4" x2="99.9" y2="2.6"/>
		<line class="st3" x1="18.7" y1="19.2" x2="114" y2="19"/>
		<line class="st3" x1="34.9" y1="18.8" x2="34.9" y2="11.1"/>
		<line class="st3" x1="49.7" y1="18.8" x2="49.7" y2="11.1"/>
		<line class="st3" x1="63.9" y1="18.8" x2="63.9" y2="11.1"/>
		<line class="st3" x1="78.7" y1="18.8" x2="78.7" y2="11.1"/>
		<line class="st3" x1="93" y1="18.8" x2="93" y2="11.1"/>
		<line class="st3" x1="107.8" y1="18.8" x2="107.8" y2="11.1"/>
		<line class="st3" x1="18.6" y1="28" x2="114" y2="27.8"/>
		<line class="st3" x1="27.6" y1="27.7" x2="27.6" y2="19.9"/>
		<line class="st3" x1="42.3" y1="27.7" x2="42.3" y2="19.9"/>
		<line class="st3" x1="56.5" y1="27.7" x2="56.5" y2="19.9"/>
		<line class="st3" x1="71.3" y1="27.7" x2="71.3" y2="19.9"/>
		<line class="st3" x1="85.7" y1="27.7" x2="85.7" y2="19.9"/>
		<line class="st3" x1="100.5" y1="27.7" x2="100.5" y2="19.9"/>
		<line class="st3" x1="18.7" y1="36.8" x2="114.1" y2="36.7"/>
		<line class="st3" x1="35" y1="36.5" x2="35" y2="28.7"/>
		<line class="st3" x1="49.8" y1="36.5" x2="49.8" y2="28.7"/>
		<line class="st3" x1="64" y1="36.5" x2="64" y2="28.7"/>
		<line class="st3" x1="78.7" y1="36.5" x2="78.7" y2="28.7"/>
		<line class="st3" x1="93.1" y1="36.5" x2="93.1" y2="28.7"/>
		<line class="st3" x1="107.9" y1="36.5" x2="107.9" y2="28.7"/>
		<line class="st3" x1="18.7" y1="45.6" x2="114.1" y2="45.5"/>
		<line class="st3" x1="27.7" y1="45.3" x2="27.7" y2="37.5"/>
		<line class="st3" x1="42.4" y1="45.3" x2="42.4" y2="37.5"/>
		<line class="st3" x1="56.6" y1="45.3" x2="56.6" y2="37.5"/>
		<line class="st3" x1="71.4" y1="45.3" x2="71.4" y2="37.5"/>
		<line class="st3" x1="85.8" y1="45.3" x2="85.8" y2="37.5"/>
		<line class="st3" x1="100.6" y1="45.3" x2="100.6" y2="37.5"/>
		<line class="st3" x1="18.7" y1="53.7" x2="114" y2="53.5"/>
		<line class="st3" x1="34.9" y1="53.4" x2="34.9" y2="45.6"/>
		<line class="st3" x1="49.7" y1="53.4" x2="49.7" y2="45.6"/>
		<line class="st3" x1="63.9" y1="53.4" x2="63.9" y2="45.6"/>
		<line class="st3" x1="78.7" y1="53.4" x2="78.7" y2="45.6"/>
		<line class="st3" x1="93" y1="53.4" x2="93" y2="45.6"/>
		<line class="st3" x1="107.8" y1="53.4" x2="107.8" y2="45.6"/>
		<line class="st3" x1="27.6" y1="62.2" x2="27.6" y2="54.4"/>
		<line class="st3" x1="42.3" y1="62.2" x2="42.3" y2="54.4"/>
		<line class="st3" x1="56.5" y1="62.2" x2="56.5" y2="54.4"/>
		<line class="st3" x1="71.3" y1="62.2" x2="71.3" y2="54.4"/>
		<line class="st3" x1="85.7" y1="62.2" x2="85.7" y2="54.4"/>
		<line class="st3" x1="100.5" y1="62.2" x2="100.5" y2="54.4"/>
		<line class="st3" x1="19.4" y1="-16.2" x2="19.4" y2="-23.9"/>
		<line class="st3" x1="19.5" y1="1.5" x2="19.5" y2="-6.3"/>
		<line class="st3" x1="20" y1="18.7" x2="20" y2="11"/>
		<line class="st3" x1="20.1" y1="36.4" x2="20.1" y2="28.6"/>
		<line class="st3" x1="20" y1="53.3" x2="20" y2="45.5"/>
	</g>
	<line class="st4" x1="114.2" y1="-32.2" x2="114.2" y2="149.5"/>
	<path class="st5" d="M68.8,43.1H18.9c-1.9,0-3.4-1.6-3.4-3.4v0c0-1.9,1.6-3.4,3.4-3.4h49.9c1.9,0,3.4,1.6,3.4,3.4v0
		C72.2,41.6,70.7,43.1,68.8,43.1z"/>
	<line class="st6" x1="63.4" y1="99.5" x2="23.3" y2="99.5"/>
	<path class="st7" d="M63.7,123.2V76.8c0-1.3-0.5-1-1.8-1H25.2c-1.3,0-2.4-0.3-2.4,1v46.6"/>
	<path class="st5" d="M68.6,130.3H18.7c-1.9,0-3.4-1.6-3.4-3.4v0c0-1.9,1.6-3.4,3.4-3.4h49.9c1.9,0,3.4,1.6,3.4,3.4v0
		C72.1,128.8,70.5,130.3,68.6,130.3z"/>
	<g class="st8">
		<circle class="st9" cx="56.6" cy="93.4" r="11.1"/>
		<circle class="st10" cx="56.6" cy="93.4" r="9.7"/>
		<circle class="st11" cx="56.6" cy="85.4" r="0.3"/>
		<circle class="st11" cx="48.4" cy="93.4" r="0.3"/>
		<circle class="st11" cx="56.6" cy="101.9" r="0.3"/>
		<circle class="st11" cx="65" cy="93.4" r="0.3"/>
		<polyline class="st12" points="56.7,88 56.7,93.6 61,93.7 		"/>
		<path class="st13" d="M56.8,96.3C56.8,96.3,56.8,96.3,56.8,96.3c-0.3,0.5-0.7,1.1-1,1.6c0.2,0,0.4,0,0.7,0c0,0.3,0,0.6,0,1
			c0,0,0,0,0,0c0.3-0.5,0.7-1.1,1-1.6c-0.2,0-0.4,0-0.7,0C56.8,97,56.8,96.6,56.8,96.3z"/>
	</g>
	<path class="st14" d="M257,148.1c-7.3,0-13.2-5.9-13.2-13.2c0-7.3,5.9-13.2,13.2-13.2c7.3,0,13.2,5.9,13.2,13.2
		C270.2,142.2,264.3,148.1,257,148.1L257,148.1z"/>
	<path class="st14" d="M149.3,148.1c7.3,0,13.2-5.9,13.2-13.2c0-7.3-5.9-13.2-13.2-13.2c-7.3,0-13.2,5.9-13.2,13.2
		C136.1,142.2,142,148.1,149.3,148.1L149.3,148.1z"/>
	<path class="st15" d="M257,144.5c-5.3,0-9.6-4.3-9.6-9.6c0-5.3,4.3-9.6,9.6-9.6c5.3,0,9.6,4.3,9.6,9.6
		C266.6,140.2,262.3,144.5,257,144.5L257,144.5z"/>
	<path class="st16" d="M257,138c-1.7,0-3.1-1.4-3.1-3.1c0-1.7,1.4-3.1,3.1-3.1c1.7,0,3.1,1.4,3.1,3.1C260.1,136.6,258.7,138,257,138
		L257,138z"/>
	<path class="st16" d="M124.3,114.3l0.4-0.1c0.3-0.1,0.5-0.2,0.7-0.4c3.2-3,7.3-5.9,12.6-8.5c2.1-1.1,3.7-2.4,5.2-4.3l6.5-8.4
		l0.1-0.3c-2.5-0.1-7.5-0.1-9.6-0.5c-0.8-0.2-2.8-0.7-2-1.1c1.9-0.9,5-1.4,8.5-1.9c0.9-0.1,1.8,0.3,2.7,0.4c1.4,0.1,2.8,0.2,4.2,0.2
		c0.4,0,1.3,0.1,1.4-0.5c0-0.2,0-0.5-0.1-0.7c-0.2-0.4-0.5-0.6-0.8-0.9c-0.1-0.1,0-0.2,0.1-0.2c0.6,0,1.2,0.1,1.7,0.3
		c1.2,0.4,2.3,0.9,3.5,1.2c0.6,0.2,1.2,0.1,1.9,0c0.7-0.1,1.4-0.1,2.1-0.2c2.8-0.2,5.6-0.4,8.4-0.6c2.8-0.2,5.6-0.3,8.4-0.4
		c2.8-0.1,5.6-0.1,8.4-0.1c2.8,0,5.6,0,8.4,0.1c2.8,0.1,5.6,0.3,8.4,0.5c6.4,0.5,11.9,1.7,17.6,4.1c8.2,3.4,16.1,8.1,24.2,11.8
		c4.7,2.2,12.3,2.8,17.6,3.3c1.2,0.1,2.3,0.3,3.4,0.7c9.4,3.2,15.4,5.8,18.3,8.6c1.3,1.2,1.9,2.3,2.4,3.5c0.1,0.3,0.2,0.5,0.4,0.7
		c0.8,1,1.5,2,2.2,3c0.1,0.2,0.2,0.3,0.2,0.5l0,0.6c0,0.3-0.4,0-0.4,0.3c-0.3,2.7-1.2,5.4-2.8,7.9c-0.1,0.1,0,0.2,0.1,0.2
		c1.2,0.4,2.2,1,2.8,1.7c0.1,0.1-0.2,0.1-0.2,0.1c-0.1,0.4-0.1,0.8-0.3,1.1c-0.2,0.2-0.4,0.3-0.6,0.4c-0.2,0.1-0.5,0.2-0.7,0.4
		c-0.5,0.3-1.1,0.5-1.7,0.6c-0.6,0.1-1.1,0.1-1.7,0.1c-0.9,0.1-1.8,0.1-2.6,0.3c-1.7,0.2-3.5,0.4-5.2,0.6c-0.1,0-0.1,0-0.2,0
		c-1.7,0.2-3.5,0.3-5.2,0.4c-0.1,0-0.3,0-0.4,0c-0.2,0-0.3-0.1-0.3-0.3c0.2-1.2,0.3-2.5,0.3-3.8c0-8.4-5.2-15.5-15.2-15.5
		c-8.2,0-13.2,4.9-14.7,11.2c-0.6,2.7-0.8,5.6-0.8,8.5c0,0.3-0.2,0.5-0.5,0.5c-26.4-0.6-59.9-1.2-76.4-0.1c-0.2,0-0.4-0.2-0.4-0.4
		c0.7-9.8-4.2-19.4-14.6-19.5c-10.6-0.1-16.8,6.8-16,17.6c0,0.1-0.1,0.1-0.1,0.1c-3.2-0.5-6.3-1.5-9.6-2.2c-1.7-0.3-2.9-2.5-3.3-4
		c-0.2-0.6,0.9-0.6,0.7-1.2c-0.7-2.7-0.8-5.6-0.4-8.7c0-0.2,0.1-0.3,0.2-0.5C122.1,119.4,122.8,116.1,124.3,114.3"/>
	<path class="st15" d="M149.3,144.5c5.3,0,9.6-4.3,9.6-9.6c0-5.3-4.3-9.6-9.6-9.6c-5.3,0-9.6,4.3-9.6,9.6
		C139.7,140.2,144,144.5,149.3,144.5L149.3,144.5z"/>
	<path class="st15" d="M285.8,129.9c-1.2,0.4-1.7,1.9-1.4,3c0.1,0.2,0.1,0.4,0.2,0.6c0.1,0.1,0.1,0.3,0.3,0.4c0.1,0.1,0.3,0,0.4-0.1
		c0.3-0.3,0.6-0.7,0.8-1.1c0.1-0.2,0.2-0.3,0.2-0.5c0.2-0.4,0.3-0.9,0.4-1.3c0.1-0.3,0.1-0.7-0.1-0.9
		C286.4,129.8,286,129.8,285.8,129.9z"/>
	<path class="st17" d="M286.9,128.5c-4.2-1.7-6.6,5.2-1.8,7.5"/>
	<path class="st15" d="M252.1,105.5l4.3,3.8c1.1,1,2.2,1.6,3.6,1.9c8,1.9,16.3,5.5,24.5,7.7c0.3,0.1,0.6,0.1,0.2-0.3
		c-4.7-5.1-10.1-8.3-16-9.9c-4.5-1.2-9.9-0.9-14.2-1"/>
	<path class="st17" d="M277.9,116.8c-5.4-2.1-9.8-4.8-11.9-8.7"/>
	<path class="st16" d="M288.7,120.1c-1.2-0.3-2.5-0.7-3.7-1.3"/>
	<path class="st17" d="M236.5,108.6c0.5,0.7,1.2,1.5,1.8,2.5c1.8,2.9,1.3,12.4-0.6,22.9c-0.2,1.3-1.4,2.3-2.8,2.3l-61-0.6
		c-2.8,0-4.5-1.3-6.1-3.4c-5.3-7-12-16.6-14.3-23.7c-0.8-2.3-0.8-3.9,1.3-5.5l2.9-2.3l0,0"/>
	<path class="st16" d="M204,111.5c-0.1-0.8-0.8-1.4-1.7-1.4h-1.6c-0.7,0-1.3,0.5-1.6,1.1l-0.1,1.6c0.1,0.9,0.8,1.5,1.7,1.5h1.6
		c0.8,0,1.5-0.6,1.6-1.3L204,111.5z"/>
	<path class="st16" d="M160.3,110.4c0.1,0.9,0.8,1.5,1.7,1.5h1.6c0.8,0,1.5-0.6,1.6-1.3l0-1.5c-0.1-0.8-0.8-1.4-1.7-1.4h-1.6
		c-0.7,0-1.3,0.5-1.6,1.1L160.3,110.4z"/>
	<path class="st15" d="M136.1,103.7l-3.5,1c-0.6,0.2-1,0.4-1.4,0.9c-2,2.1-3.6,4.1-5,6.1"/>
	<path class="st15" d="M146.2,92.2c-0.5,0-1,0.2-1.3,0.6l-7.6,9.7c-0.4,0.6-0.9,1-1.5,1.4c-3.8,2.7-7.4,5.6-10.6,8.5
		c-0.4,0.3-0.6,0.7-0.9,1.2l-0.2,0.5c-0.1,0.1,0,0.2,0.2,0.2l0.4-0.1c0.3-0.1,0.5-0.2,0.7-0.4c3.2-3,7.3-5.9,12.6-8.5
		c2.1-1.1,3.7-2.4,5.2-4.3l6.5-8.4l0.1-0.3C148.7,92.3,147.6,92.2,146.2,92.2"/>
	<path class="st15" d="M229.4,108.3c5.3,0.2,10.8,0.4,16.3,0.7c0.3,0,0.4-0.3,0.3-0.6c-0.4-1.4-1.5-2.5-3-3.6
		c-5.4-3.5-13.4-7.6-19.3-10.2c-7.6-3.4-14.6-4.9-22.9-5.2c-15.5-0.4-30.6,0.7-45.8,2.3c-0.8,0.1-1.2,0.9-0.9,1.6c1,2,1.9,4.2,3,6.1
		c0.7,1.2,1.6,2,3,2.4c6.6,2.1,21.6,3.8,33.4,4.6c10.6,0.7,21.8,1.2,33.5,1.7L229.4,108.3z"/>
	<path class="st16" d="M227.6,106c0.3-1.5,2.1-2.7,3.6-2.2c2.7,0.9,4.4,2.4,5.3,4.4c0.1,0.2,0,0.4-0.1,0.5c-1.6,1.5-3.2,1.7-6.1,1.5
		C228.7,110.1,227.3,107.5,227.6,106L227.6,106z"/>
	<path class="st17" d="M193.5,135.8c1.2-9.4,1.8-19-0.1-29.8l-2.7-16.6"/>
	<path class="st16" d="M149.3,138c-1.7,0-3.1-1.4-3.1-3.1c0-1.7,1.4-3.1,3.1-3.1c1.7,0,3.1,1.4,3.1,3.1
		C152.3,136.6,151,138,149.3,138L149.3,138z"/>
	<line class="st18" x1="195.2" y1="101.3" x2="198.6" y2="103.7"/>
	<line class="st18" x1="194.6" y1="96.7" x2="204.8" y2="104.5"/>
	<line class="st18" x1="169.7" y1="92.7" x2="174.2" y2="96.2"/>
	<line class="st18" x1="166" y1="93.3" x2="169.4" y2="96"/>
	<circle class="st19" cx="93" cy="102.8" r="11.9"/>
	<circle class="st20" cx="93" cy="102.8" r="3.3"/>
	<path class="st19" d="M88.9,105.6c-0.6-0.8-0.9-1.8-0.9-2.8c0-1,0.3-2,0.9-2.8"/>
	<path class="st19" d="M96.9,99.8c0.6,0.8,1,1.8,1,2.9c0,1.1-0.4,2.1-1,2.9"/>
	<path class="st21" d="M88.9,110.2c-2.6-1.4-4.3-4.2-4.3-7.4c0-3.2,1.8-5.9,4.3-7.3"/>
	<path class="st21" d="M96.9,95.4c2.6,1.4,4.4,4.2,4.4,7.4c0,3.2-1.8,6-4.4,7.4"/>
	<line class="st19" x1="88.9" y1="100" x2="88.9" y2="91.6"/>
	<line class="st19" x1="88.9" y1="110.2" x2="88.9" y2="105.6"/>
	<line class="st19" x1="88.9" y1="113.9" x2="88.9" y2="110.2"/>
	<line class="st19" x1="96.9" y1="105.7" x2="96.9" y2="114"/>
	<line class="st19" x1="96.9" y1="91.6" x2="96.9" y2="99.8"/>
	<circle class="st20" cx="93" cy="110.3" r="1.7"/>
	<path class="st21" d="M93,103c1.7,0,10-0.3,13.3,0.4c8.8,1.9,7.7,5.3,14.7,7.8c3.8,1.4,16.8,0.7,22.2,0.7"/>
	<circle class="st21" cx="143.1" cy="112" r="3.6"/>
	<path class="st22" d="M63.4,35.4v-46.3c0-1.3-0.5-1-1.8-1H24.9c-1.3,0-2.4-0.3-2.4,1v46.6"/>
	<line class="st23" x1="42.9" y1="-12" x2="42.9" y2="36.2"/>
	<line class="st23" x1="22.6" y1="14.5" x2="62.9" y2="14.5"/>
	<line class="st23" x1="43.2" y1="76.3" x2="43.2" y2="123.4"/>
	<line class="st23" x1="23.5" y1="99.6" x2="63.8" y2="99.6"/>
	<rect x="64.4" y="82.3" class="st24" width="4.1" height="22.2"/>
	<path class="st25" d="M63.8,122.8V76.4c0-1.3-0.5-1-1.8-1H25.3c-1.3,0-2.4-0.3-2.4,1V123"/>
	<g class="st2">
		<line class="st26" x1="30.7" y1="80.3" x2="35.2" y2="83.8"/>
		<line class="st26" x1="27" y1="80.9" x2="30.4" y2="83.6"/>
	</g>
	<g class="st2">
		<line class="st26" x1="47.6" y1="117.5" x2="51" y2="119.9"/>
		<line class="st26" x1="47" y1="112.9" x2="57.2" y2="120.7"/>
	</g>
	<path class="st27" d="M222.6,15c0,0.1,0,0.3-0.1,0.4l0,0.1l-5.7,0c-0.1-0.2-0.1-0.3-0.1-0.5c0-0.8,0.7-1.4,1.6-1.4c0,0,0.1,0,0.1,0
		l0,0c0.2-0.6,0.9-1,1.6-1c0.8,0,1.5,0.5,1.7,1.2l0.1,0c0.2,0,0.3,0.1,0.5,0.2c0.2,0.1,0.3,0.3,0.4,0.5
		C222.6,14.7,222.6,14.8,222.6,15"/>
	<g class="st2">
		<path class="st28" d="M143.9,45.1c0.3-0.1,0.6-0.2,0.8-0.3c0.3-0.1,0.5-0.1,0.7-0.2c0.1,0,0.1,0,0.2,0c0.4,0,0.7,0.1,1,0.3
			c0.3,0.2,0.6,0.4,1,0.7l0,0l0,0c0.1,0.1,0.3,0.1,0.4,0.1c0.1,0,0.2,0,0.3-0.1c0.1-0.1,0.2-0.2,0.2-0.3c0.1-0.3,0.2-0.5,0.4-0.8
			c0.1-0.2,0.3-0.4,0.4-0.6c0.2-0.2,0.4-0.3,0.7-0.4c0.3-0.1,0.6-0.2,0.9-0.3c0.2-0.1,0.3-0.3,0.2-0.5c-0.1-0.2-0.3-0.3-0.5-0.2
			c-0.3,0.1-0.6,0.2-0.9,0.3c-0.3,0.1-0.7,0.3-0.9,0.6c-0.2,0.2-0.4,0.5-0.6,0.8c-0.1,0.3-0.3,0.6-0.4,0.8l0.2,0.1l-0.1-0.2
			c0,0-0.1,0-0.1,0.1l0.2,0.1l-0.1-0.2l0.1,0.2V45c0,0-0.1,0-0.1,0l0.1,0.2V45v0.2l0.1-0.1c0,0-0.1,0-0.1,0v0.2l0.1-0.1
			c-0.3-0.3-0.7-0.5-1.1-0.7c-0.4-0.2-0.9-0.4-1.4-0.4c-0.1,0-0.2,0-0.2,0c-0.3,0-0.6,0.1-0.9,0.2c-0.3,0.1-0.6,0.2-0.8,0.3
			c-0.2,0.1-0.3,0.3-0.3,0.5C143.4,45.1,143.6,45.2,143.9,45.1z"/>
		<path class="st28" d="M146.4,44.9c0.2,0.1,0.4,0.2,0.6,0.4c0.2,0.2,0.4,0.4,0.6,0.6c0.1,0.1,0.3,0.1,0.4,0.1c0.1,0,0.2,0,0.4-0.1
			c0.1-0.1,0.2-0.2,0.3-0.3c0.1-0.3,0.2-0.5,0.3-0.8c0.1-0.2,0.2-0.4,0.3-0.6c0.1-0.2,0.1-0.4-0.1-0.6c-0.2-0.1-0.4-0.1-0.6,0.1
			c-0.2,0.3-0.3,0.6-0.4,0.8c-0.1,0.3-0.2,0.5-0.3,0.7v0l0.2,0.1l-0.1-0.1c0,0-0.1,0-0.1,0.1l0.2,0.1l-0.1-0.1l0.1,0.1v-0.1
			c0,0,0,0-0.1,0l0.1,0.1v-0.1v0.1l0.1-0.1c0,0-0.1,0-0.1,0v0.1l0.1-0.1c-0.2-0.2-0.4-0.3-0.6-0.5c-0.2-0.2-0.5-0.4-0.8-0.5
			c-0.2-0.1-0.4,0-0.5,0.2C146,44.5,146.1,44.8,146.4,44.9"/>
		<path class="st28" d="M127.5,33.9c0.3,0.1,0.5,0.1,0.8,0.2c0.2,0.1,0.5,0.1,0.6,0.2c0.2,0.1,0.3,0.2,0.4,0.3
			c0.2,0.2,0.3,0.5,0.4,0.8c0.1,0.3,0.2,0.7,0.2,1c0,0.1,0.1,0.2,0.2,0.3c0.1,0.1,0.2,0.1,0.4,0.1c0.2,0,0.3-0.1,0.4-0.2l0,0l0,0
			c0.3-0.2,0.5-0.4,0.8-0.6c0.3-0.2,0.5-0.3,0.7-0.4c0.2-0.1,0.3-0.1,0.5-0.1c0.3,0,0.7,0.1,1.1,0.2c0.2,0,0.4-0.1,0.5-0.3
			c0-0.2-0.1-0.4-0.3-0.5c-0.3-0.1-0.8-0.2-1.2-0.2c-0.2,0-0.5,0-0.8,0.1c-0.3,0.1-0.6,0.3-0.9,0.5c-0.3,0.2-0.5,0.4-0.8,0.7v0
			l0.1,0.1V36c-0.1,0-0.1,0-0.1,0l0.1,0.1V36v0.2l0.2-0.2c0,0-0.1-0.1-0.2-0.1v0.2l0.2-0.2l-0.1,0.2l0.2,0c0,0,0-0.1-0.1-0.1
			l-0.1,0.2l0.2,0c-0.1-0.5-0.2-1-0.4-1.5c-0.1-0.2-0.2-0.5-0.4-0.7c-0.2-0.2-0.4-0.4-0.6-0.5c-0.3-0.2-0.6-0.2-0.9-0.3
			c-0.3-0.1-0.5-0.1-0.8-0.2c-0.2-0.1-0.4,0.1-0.5,0.3C127.1,33.6,127.3,33.8,127.5,33.9"/>
		<path class="st28" d="M129.5,34.9c0.1,0.2,0.2,0.5,0.2,0.7c0,0.3,0.1,0.6,0.1,0.9c0,0.1,0.1,0.3,0.2,0.4c0.1,0.1,0.3,0.1,0.4,0.1
			c0.2,0,0.3-0.1,0.4-0.2c0.2-0.2,0.5-0.5,0.7-0.7c0.2-0.2,0.4-0.4,0.6-0.5c0.2-0.1,0.3-0.3,0.2-0.5c-0.1-0.2-0.3-0.3-0.5-0.2
			c-0.3,0.2-0.6,0.4-0.8,0.6c-0.2,0.2-0.5,0.5-0.7,0.6l0.1,0.1v-0.2c0,0-0.1,0-0.1,0l0.1,0.1v-0.2v0.2l0.1-0.1c0,0-0.1,0-0.1,0v0.2
			l0.1-0.1l-0.1,0.1l0.2,0c0,0,0-0.1-0.1-0.1l-0.1,0.1l0.2,0c0-0.3-0.1-0.6-0.1-0.9c0-0.3-0.1-0.7-0.3-1c-0.1-0.2-0.3-0.3-0.5-0.2
			C129.4,34.4,129.4,34.7,129.5,34.9"/>
	</g>
	<path class="st27" d="M149.9,66.5c-1.3,0.3-2.2,1.5-2.2,2.8c0,0.1,0,0.2,0,0.3l12.2,0c0.1-1.2-0.9-1.6-0.9-1.6c0-1.3-1-2.3-2.5-2.2
		h0c-0.5-1.2-1.8-2.1-3.2-2.1C151.6,63.6,150.2,64.8,149.9,66.5"/>
	<path class="st27" d="M162.7,69.7h7.7c0.2,0,0.4-0.2,0.4-0.4c0-0.2-0.2-0.4-0.4-0.4h-7.7c-0.2,0-0.4,0.2-0.4,0.4
		C162.3,69.6,162.5,69.7,162.7,69.7"/>
	<path class="st27" d="M131.5,69.8h1.9c0.2,0,0.4-0.2,0.4-0.4c0-0.2-0.2-0.4-0.4-0.4h-1.9c-0.2,0-0.4,0.2-0.4,0.4
		C131.1,69.6,131.3,69.8,131.5,69.8"/>
	<path class="st27" d="M225.1,15.6h7.7c0.2,0,0.4-0.2,0.4-0.4c0-0.2-0.2-0.4-0.4-0.4h-7.7c-0.2,0-0.4,0.2-0.4,0.4
		C224.7,15.5,224.9,15.6,225.1,15.6"/>
	<path class="st27" d="M234.3,28.5h1.9c0.2,0,0.4-0.2,0.4-0.4c0-0.2-0.2-0.4-0.4-0.4h-1.9c-0.2,0-0.4,0.2-0.4,0.4
		C233.9,28.4,234.1,28.5,234.3,28.5"/>
	<path class="st27" d="M206.3,64h1.9c0.2,0,0.4-0.2,0.4-0.4c0-0.2-0.2-0.4-0.4-0.4h-1.9c-0.2,0-0.4,0.2-0.4,0.4
		C205.9,63.8,206.1,64,206.3,64"/>
	<path class="st27" d="M181.1,43h1.9c0.2,0,0.4-0.2,0.4-0.4c0-0.2-0.2-0.4-0.4-0.4h-1.9c-0.2,0-0.4,0.2-0.4,0.4
		C180.7,42.9,180.9,43,181.1,43"/>
	<path class="st27" d="M171.1,43h7.7c0.2,0,0.4-0.2,0.4-0.4c0-0.2-0.2-0.4-0.4-0.4h-7.7c-0.2,0-0.4,0.2-0.4,0.4
		C170.8,42.9,170.9,43,171.1,43"/>
	<line class="st4" x1="10.6" y1="149.4" x2="210.6" y2="149.4"/>
</g>
<g>
	<circle class="st29" cx="107.9" cy="106.1" r="104.8"/>
</g>
</svg>
