<?xml version="1.0" encoding="utf-8"?>
<!-- Generator: Adobe Illustrator 21.0.2, SVG Export Plug-In . SVG Version: 6.00 Build 0)  -->
<svg version="1.1" id="Layer_1" xmlns="http://www.w3.org/2000/svg" xmlns:xlink="http://www.w3.org/1999/xlink" x="0px" y="0px"
	 viewBox="0 0 216 213" style="enable-background:new 0 0 216 213;" xml:space="preserve">
<style type="text/css">
	.st0{clip-path:url(#SVGID_2_);fill:#F8F8F8;}
	.st1{clip-path:url(#SVGID_2_);fill:none;stroke:#FFFFFF;stroke-width:1.5;stroke-linecap:round;stroke-miterlimit:10;}
	.st2{clip-path:url(#SVGID_2_);fill:#E6E6E6;}
	.st3{clip-path:url(#SVGID_2_);fill:none;stroke:#333333;stroke-width:1.5;stroke-linecap:round;}
	.st4{clip-path:url(#SVGID_2_);fill:#CCCCCC;stroke:#CCCCCC;stroke-width:1.5;stroke-miterlimit:10;}
	.st5{clip-path:url(#SVGID_2_);fill:#FFFFFF;stroke:#FFFFFF;stroke-width:1.5;stroke-miterlimit:10;}
	.st6{clip-path:url(#SVGID_2_);fill:#FFFFFF;stroke:#FFFFFF;stroke-width:1.5;stroke-linecap:round;stroke-miterlimit:10;}
	.st7{clip-path:url(#SVGID_2_);fill:#CCCCCC;stroke:#CCCCCC;stroke-width:1.5;stroke-linecap:round;stroke-miterlimit:10;}
	.st8{clip-path:url(#SVGID_2_);fill:#262529;stroke:#333333;stroke-width:1.5;}
	.st9{clip-path:url(#SVGID_2_);fill:#E6E6E6;stroke:#333333;stroke-width:1.5;stroke-linecap:round;stroke-linejoin:round;}
	.st10{clip-path:url(#SVGID_2_);fill:none;stroke:#333333;stroke-width:1.5;stroke-linecap:round;stroke-linejoin:round;}
	.st11{clip-path:url(#SVGID_2_);fill:#8CC63F;stroke:#333333;stroke-width:1.5;stroke-linecap:round;stroke-linejoin:round;}
	
		.st12{clip-path:url(#SVGID_2_);fill-rule:evenodd;clip-rule:evenodd;fill:#E6E6E6;stroke:#333333;stroke-width:1.5;stroke-linecap:round;stroke-linejoin:round;}
	.st13{clip-path:url(#SVGID_2_);fill:#4D4D4D;stroke:#333333;stroke-width:1.5;stroke-linecap:round;stroke-miterlimit:10;}
	.st14{clip-path:url(#SVGID_2_);fill:#B3B3B3;stroke:#333333;stroke-width:1.5;stroke-miterlimit:10;}
	.st15{clip-path:url(#SVGID_2_);fill:#808080;stroke:#333333;stroke-width:1.5;stroke-miterlimit:10;}
	.st16{clip-path:url(#SVGID_2_);fill:#CCCCCC;stroke:#333333;stroke-width:1.5;stroke-linecap:round;stroke-miterlimit:10;}
	.st17{clip-path:url(#SVGID_2_);fill:none;stroke:#8CC03F;stroke-width:1.5;stroke-linecap:round;stroke-miterlimit:10;}
	.st18{clip-path:url(#SVGID_2_);fill:#E6E6E6;stroke:#333333;stroke-width:1.5;stroke-miterlimit:10;}
	.st19{clip-path:url(#SVGID_2_);}
	.st20{fill:#262529;stroke:#333333;stroke-width:1.5;}
	.st21{fill:#8CC63F;stroke:#333333;stroke-width:1.5;stroke-linecap:round;stroke-linejoin:round;}
	.st22{fill:none;stroke:#333333;stroke-width:1.5;stroke-linecap:round;}
	.st23{fill:none;stroke:#333333;stroke-width:1.5;}
	.st24{fill:#FFFFFF;stroke:#333333;stroke-width:1.5;}
	.st25{opacity:0.28;fill:none;stroke:#333333;stroke-width:1.5;stroke-linecap:round;}
	.st26{fill:#FFFFFF;stroke:#333333;stroke-width:1.5;stroke-linecap:round;stroke-linejoin:round;}
	.st27{fill:#DCDAD4;stroke:#333333;stroke-width:1.5;stroke-linecap:round;stroke-linejoin:round;}
	.st28{clip-path:url(#SVGID_2_);fill:#F8F8F8;stroke:#E6E6E6;stroke-width:1.5;stroke-linecap:round;stroke-miterlimit:10;}
	.st29{fill:#F8F8F8;stroke:#E6E6E6;stroke-width:1.5;stroke-linecap:round;stroke-miterlimit:10;}
	.st30{clip-path:url(#SVGID_2_);fill:#F8F8F8;stroke:#333333;stroke-width:1.5;stroke-miterlimit:10;}
	.st31{clip-path:url(#SVGID_2_);fill:#E5E5E5;stroke:#4E4D4D;stroke-width:1.5;stroke-miterlimit:10;}
	.st32{clip-path:url(#SVGID_2_);fill:#EBEBEB;stroke:#4E4D4D;stroke-width:1.5;stroke-miterlimit:10;}
	.st33{clip-path:url(#SVGID_2_);fill:#B0B0B0;stroke:#FFFFFF;stroke-width:1.5;}
	.st34{clip-path:url(#SVGID_2_);fill:none;stroke:#FFFFFF;stroke-width:1.5;stroke-miterlimit:10;}
	.st35{clip-path:url(#SVGID_2_);fill:none;stroke:#4E4D4D;stroke-width:1.5;stroke-miterlimit:10;}
	.st36{clip-path:url(#SVGID_2_);fill:#B0B0B0;stroke:#FFFFFF;stroke-width:1.5;stroke-linecap:round;}
	.st37{clip-path:url(#SVGID_2_);fill:none;stroke:#4D4D4D;stroke-width:1.5;stroke-miterlimit:10;}
	.st38{clip-path:url(#SVGID_2_);fill:#B1B1B1;stroke:#4D4D4D;stroke-width:1.5;stroke-miterlimit:10;}
	.st39{fill:none;stroke:#333333;stroke-width:3;stroke-linecap:round;stroke-linejoin:round;stroke-miterlimit:10;}
	.st40{fill:#E6E6E6;stroke:#333333;stroke-linecap:round;stroke-linejoin:round;stroke-miterlimit:10;}
	.st41{fill:#8CC63F;stroke:#333333;stroke-linecap:round;stroke-linejoin:round;stroke-miterlimit:10;}
</style>
<g>
	<defs>
		<circle id="SVGID_1_" cx="108.4" cy="106.1" r="104.6"/>
	</defs>
	<use xlink:href="#SVGID_1_"  style="overflow:visible;opacity:0.74;fill:#F8F8F8;"/>
	<clipPath id="SVGID_2_">
		<use xlink:href="#SVGID_1_"  style="overflow:visible;opacity:0.74;"/>
	</clipPath>
	<rect x="-82.7" y="160.6" class="st0" width="374.2" height="86.4"/>
	<line class="st1" x1="-14.1" y1="159.1" x2="-30.4" y2="175.4"/>
	<line class="st1" x1="19" y1="171.1" x2="-36.5" y2="226.6"/>
	<line class="st1" x1="243.6" y1="230.4" x2="227.4" y2="246.6"/>
	<line class="st1" x1="241.9" y1="205" x2="190.9" y2="256"/>
	<line class="st1" x1="261.3" y1="171.1" x2="161.4" y2="271"/>
	<path class="st2" d="M235.9,15.4c0,0.2,0,0.3-0.1,0.5l0,0.1l-6.2,0c-0.1-0.2-0.1-0.4-0.1-0.5c0-0.9,0.8-1.6,1.7-1.6
		c0,0,0.1,0,0.1,0l0,0c0.3-0.6,0.9-1.1,1.7-1.1c0.9,0,1.6,0.6,1.8,1.3l0.1,0c0.2,0,0.4,0.1,0.5,0.3c0.2,0.1,0.3,0.3,0.4,0.5
		C235.9,15,235.9,15.2,235.9,15.4"/>
	<path class="st2" d="M164.3,30.9c-1.5,0.4-2.6,1.7-2.6,3.3c0,0.1,0,0.2,0,0.4l14.5,0c0.1-1.4-1-1.9-1-1.9c0-1.6-1.1-2.8-3-2.6h0
		c-0.6-1.4-2.1-2.5-3.8-2.5C166.3,27.5,164.6,29,164.3,30.9"/>
	<path class="st2" d="M174.9,67.9c-1.4,0.3-2.4,1.6-2.4,3c0,0.1,0,0.2,0,0.3l13.3,0c0.1-1.3-1-1.8-1-1.8c0-1.4-1.1-2.5-2.7-2.4h0
		c-0.6-1.3-1.9-2.3-3.4-2.3C176.8,64.8,175.2,66.1,174.9,67.9"/>
	<path class="st2" d="M188.7,71.4h8.3c0.2,0,0.4-0.2,0.4-0.4c0-0.2-0.2-0.4-0.4-0.4h-8.3c-0.2,0-0.4,0.2-0.4,0.4
		C188.3,71.2,188.5,71.4,188.7,71.4"/>
	<path class="st2" d="M223.6,25.3h7.7c0.2,0,0.4-0.2,0.4-0.4c0-0.2-0.2-0.4-0.4-0.4h-7.7c-0.2,0-0.4,0.2-0.4,0.4
		C223.2,25.1,223.4,25.3,223.6,25.3"/>
	<path class="st2" d="M232.8,38.1h1.9c0.2,0,0.4-0.2,0.4-0.4c0-0.2-0.2-0.4-0.4-0.4h-1.9c-0.2,0-0.4,0.2-0.4,0.4
		C232.4,38,232.6,38.1,232.8,38.1"/>
	<path class="st2" d="M226.5,77.2h1.9c0.2,0,0.4-0.2,0.4-0.4c0-0.2-0.2-0.4-0.4-0.4h-1.9c-0.2,0-0.4,0.2-0.4,0.4
		C226.1,77,226.3,77.2,226.5,77.2"/>
	<path class="st2" d="M199.9,49.1h8.3c0.2,0,0.4-0.2,0.4-0.4c0-0.2-0.2-0.4-0.4-0.4h-8.3c-0.2,0-0.4,0.2-0.4,0.4
		C199.5,48.9,199.6,49.1,199.9,49.1"/>
	<path class="st2" d="M169.7,46.6h1.9c0.2,0,0.4-0.2,0.4-0.4c0-0.2-0.2-0.4-0.4-0.4h-1.9c-0.2,0-0.4,0.2-0.4,0.4
		C169.3,46.4,169.5,46.6,169.7,46.6"/>
	<path class="st2" d="M145.9,34.8h8.3c0.2,0,0.4-0.2,0.4-0.4c0-0.2-0.2-0.4-0.4-0.4h-8.3c-0.2,0-0.4,0.2-0.4,0.4
		C145.5,34.6,145.7,34.8,145.9,34.8"/>
	<line class="st3" x1="6.1" y1="161" x2="222.9" y2="161"/>
	<circle class="st4" cx="162.9" cy="183.6" r="0.6"/>
	<circle class="st4" cx="150.3" cy="195" r="0.4"/>
	<circle class="st5" cx="183.7" cy="181.1" r="0.7"/>
	<circle class="st5" cx="173.3" cy="195.5" r="0.6"/>
	<circle class="st4" cx="47.1" cy="184.9" r="1"/>
	<circle class="st4" cx="82.9" cy="186.2" r="0.6"/>
	<circle class="st4" cx="108.2" cy="182.3" r="0.6"/>
	<circle class="st4" cx="66.6" cy="191.8" r="0.4"/>
	<circle class="st4" cx="96" cy="195" r="0.7"/>
	<circle class="st4" cx="133" cy="186.7" r="0.6"/>
	<line class="st4" x1="155.8" y1="168.7" x2="295.5" y2="168.7"/>
	<line class="st6" x1="197.1" y1="172.8" x2="199.9" y2="172.8"/>
	<line class="st7" x1="154.7" y1="172.8" x2="192.9" y2="172.8"/>
	<line class="st4" x1="13.7" y1="168.9" x2="153.4" y2="168.9"/>
	<line class="st7" x1="140.6" y1="173" x2="152.2" y2="173"/>
	<line class="st7" x1="134.8" y1="173" x2="138" y2="173"/>
	<line class="st7" x1="112.7" y1="173" x2="132.1" y2="173"/>
	<line class="st7" x1="61.8" y1="173" x2="109.6" y2="173"/>
	<line class="st7" x1="55" y1="173" x2="57.8" y2="173"/>
	<line class="st7" x1="12.5" y1="173" x2="50.7" y2="173"/>
	<path class="st8" d="M287.6,139.5c-0.7-1.8-1.1-3.8-1.1-5.9c0-2.9,0.7-5.5,2.1-7.9c0.7-1.2,1.6-2.3,2.6-3.3
		c0.7-0.7,1.5-1.4,2.3-1.9c2.6-1.8,5.6-2.7,9-2.7c4.4,0,8.1,1.6,11.2,4.7c3.1,3.1,4.6,6.8,4.6,11.2c0,2.1-0.4,4-1.1,5.8"/>
	<path class="st8" d="M317.2,139.5c-0.8,2-2,3.8-3.6,5.4l-0.1,0.1c-3.1,3-6.8,4.5-11.1,4.5c-4.4,0-8.1-1.6-11.2-4.6
		c-1.6-1.6-2.8-3.4-3.6-5.3"/>
	<path class="st9" d="M311,125c2.4,2.4,3.6,5.3,3.6,8.7c0,3.4-1.2,6.3-3.6,8.7c-2.4,2.4-5.3,3.6-8.7,3.6c-3.4,0-6.3-1.2-8.7-3.6
		c-2.4-2.4-3.6-5.3-3.6-8.7c0-3.4,1.2-6.3,3.6-8.7c2.4-2.4,5.3-3.6,8.7-3.6C305.8,121.4,308.7,122.6,311,125L311,125z"/>
	<path class="st10" d="M301,133.6c0-0.4,0.1-0.7,0.4-1c0.3-0.3,0.6-0.4,1-0.4c0.4,0,0.7,0.1,1,0.4c0.3,0.3,0.4,0.6,0.4,1
		c0,0.4-0.1,0.7-0.4,1c-0.3,0.3-0.6,0.4-1,0.4c-0.4,0-0.7-0.1-1-0.4C301.1,134.4,301,134,301,133.6L301,133.6z"/>
	<line class="st11" x1="224.5" y1="92.7" x2="224.6" y2="93.4"/>
	<polyline class="st11" points="224.6,93.4 228,110 228,110.1 	"/>
	<line class="st11" x1="228.1" y1="110.9" x2="228" y2="110.1"/>
	<line class="st11" x1="237.1" y1="89.5" x2="239.5" y2="109"/>
	<line class="st11" x1="232.3" y1="111.2" x2="226.7" y2="92.7"/>
	<path class="st11" d="M271.5,102.8c-0.3-0.1-0.5-0.2-0.7-0.4c-0.3-0.3-0.4-0.7-0.4-1.1c-0.1-0.5-0.1-0.9,0-1.3l0.1-0.5
		c0.1-0.4,0.2-0.8,0.4-1.1c0.1-0.3,0.3-0.6,0.5-0.8c0.2-0.3,0.6-0.4,0.9-0.5c0.3-0.1,0.6-0.1,0.9-0.1l0.1,0c0.4,0,0.9,0.1,1.5,0.3
		c0.4,0.1,0.7,0.2,1,0.3l0.1,0c0.9,0.3,1.8,0.9,2.6,1.4c0.8,0.6,1.3,1.5,1.4,2.4c0,0.4,0,0.8-0.1,1.3l-0.2,0.7
		c-0.1,0.6-0.8,0.8-2,0.6c-0.4-0.1-0.8-0.1-1.1-0.2c-0.8-0.2-1.6-0.3-2.3-0.5c-0.7-0.1-1.3-0.3-2-0.4
		C271.8,102.9,271.6,102.9,271.5,102.8z"/>
	<polyline class="st11" points="280.6,105.1 281.7,110.8 281.7,110.9 	"/>
	<path class="st11" d="M281,133.5l0.5-7.5c0.4-5.7,0.5-10.8,0.2-15.1"/>
	<line class="st10" x1="305.8" y1="123.9" x2="306.1" y2="122.8"/>
	<line class="st10" x1="311.5" y1="126.7" x2="310.6" y2="127.4"/>
	<line class="st10" x1="308.9" y1="128.5" x2="310.6" y2="127.4"/>
	<path class="st10" d="M305.4,130.9c0.2-0.2,0.4-0.3,0.7-0.5l2.7-1.9"/>
	<polyline class="st10" points="304,129.9 304.3,129.1 304.3,129 305.2,125.9 	"/>
	<path class="st10" d="M300.7,129.9c0.4,1,0.9,1.6,1.6,1.7l0.1,0l0.1,0c0.7-0.1,1.2-0.7,1.6-1.7"/>
	<line class="st10" x1="305.2" y1="125.9" x2="305.8" y2="123.9"/>
	<line class="st10" x1="298.6" y1="122.8" x2="299" y2="123.9"/>
	<polyline class="st10" points="297.9,129.9 298.6,130.4 298.6,130.4 299.4,130.9 	"/>
	<line class="st10" x1="299.5" y1="125.9" x2="300.7" y2="129.9"/>
	<line class="st10" x1="294.2" y1="127.4" x2="293.2" y2="126.7"/>
	<line class="st10" x1="294.2" y1="127.4" x2="295.1" y2="128"/>
	<line class="st10" x1="299" y1="123.9" x2="299.5" y2="125.9"/>
	<line class="st10" x1="297.9" y1="129.9" x2="295.1" y2="128"/>
	<line class="st10" x1="290.9" y1="133.8" x2="292.1" y2="133.8"/>
	<line class="st10" x1="293.2" y1="133.9" x2="294.8" y2="133.9"/>
	<line class="st10" x1="294.8" y1="138.8" x2="295.5" y2="138.2"/>
	<line class="st10" x1="292.1" y1="133.8" x2="293.2" y2="133.9"/>
	<path class="st10" d="M296.6,134l0.8,0c0.3,0,0.6,0,0.9,0"/>
	<path class="st10" d="M298.3,134c1.1,0,1.8-0.4,2.1-1l0-0.1l0-0.1c0.1-0.7-0.2-1.3-1.1-2"/>
	<path class="st11" d="M301.4,132.6c0.3-0.3,0.6-0.4,1-0.4c0.4,0,0.7,0.1,1,0.4c0.3,0.3,0.4,0.6,0.4,1c0,0.4-0.1,0.7-0.4,1
		c-0.3,0.3-0.6,0.4-1,0.4c-0.4,0-0.7-0.1-1-0.4c-0.3-0.3-0.4-0.6-0.4-1C301,133.2,301.1,132.9,301.4,132.6L301.4,132.6z"/>
	<path class="st10" d="M301.5,137.6c0.3-1.1,0.2-1.8-0.3-2.3l0,0l-0.1,0c-0.6-0.3-1.4-0.2-2.3,0.4"/>
	<path class="st10" d="M300.1,141.6l1.1-3.1c0.1-0.3,0.2-0.6,0.3-0.8"/>
	<line class="st10" x1="297.2" y1="136.9" x2="297.5" y2="136.6"/>
	<polyline class="st10" points="298.8,135.6 298.1,136.2 298.1,136.2 297.5,136.6 	"/>
	<line class="st10" x1="299.4" y1="143.5" x2="300.1" y2="141.6"/>
	<line class="st10" x1="299" y1="144.6" x2="299.4" y2="143.5"/>
	<line class="st10" x1="293.9" y1="139.5" x2="293" y2="140.2"/>
	<line class="st10" x1="294.8" y1="133.9" x2="296.6" y2="134"/>
	<line class="st10" x1="294.8" y1="138.8" x2="293.9" y2="139.5"/>
	<line class="st10" x1="297.2" y1="136.9" x2="295.5" y2="138.2"/>
	<path class="st10" d="M305.4,130.9c-0.9,0.7-1.3,1.4-1.1,2l0,0.1l0,0.1c0.3,0.6,1,0.9,2.1,1"/>
	<path class="st10" d="M305.9,135.7c-0.9-0.6-1.7-0.8-2.3-0.5l-0.1,0l0,0c-0.5,0.5-0.6,1.2-0.3,2.3"/>
	<line class="st10" x1="310.6" y1="133.9" x2="312.7" y2="133.9"/>
	<polyline class="st10" points="306.4,134.1 307.3,134 307.3,134 310.6,133.9 	"/>
	<line class="st10" x1="311.8" y1="140.2" x2="310.9" y2="139.5"/>
	<line class="st10" x1="305.3" y1="143.5" x2="305.7" y2="144.6"/>
	<line class="st10" x1="304.6" y1="141.6" x2="305.3" y2="143.5"/>
	<line class="st10" x1="310.9" y1="139.5" x2="309.2" y2="138.2"/>
	<line class="st10" x1="309.2" y1="138.2" x2="305.9" y2="135.7"/>
	<line class="st10" x1="303.2" y1="137.6" x2="304.6" y2="141.6"/>
	<line class="st11" x1="280.8" y1="136.3" x2="280.9" y2="134.4"/>
	<line class="st11" x1="280.9" y1="134.4" x2="281" y2="133.5"/>
	<line class="st11" x1="280.6" y1="139.4" x2="280.8" y2="136.3"/>
	<path class="st11" d="M284.8,105.4c11.5,0.6,20.9,1.7,28.3,3.3c0.6,0.2,1.3,0.5,2,1"/>
	<path class="st9" d="M315,109.6l0.6,0.5c0.4,0.4,0.9,0.8,1.4,1.3c1.5,1.1,2.9,2,4.2,2.5l0.9,0.5l0.1,0.1l2.8,1.5l0.1,0
		c1.9-0.1,4,0,6.4,0.2c1.8,0.1,3.8,0.4,6,0.7c0.8,0.1,1.2-0.1,1.3-0.8l0.2-1.5l0-0.1c-0.7-0.2-1.5-0.4-2.3-0.6l-3.4-1.1
		c-0.6-0.2-1.2-0.4-1.8-0.6c-4-1.3-8-2-11.9-2.3L315,109.6"/>
	<path class="st11" d="M341.1,120.3c-0.2-0.1-0.6-0.3-0.9-0.4l-9.9-2.3c-2-0.3-3.5-0.7-4.5-1.1l-0.8-0.5"/>
	<path class="st11" d="M326.3,133.7c-0.1-0.2-0.1-0.4-0.1-0.7l0-0.3l0.4-9.9l0.1-2.9l5.9,2.5l0.4,0.2l1.1,0.5
		c1.5,0.5,2.1,1.3,1.8,2.2l-2.2,5.9c-0.4,1-0.9,1.8-1.6,2.3c-0.4,0.3-0.8,0.5-1.2,0.6c-1.8,0.3-3.1,0.4-3.9,0.2
		c-0.3-0.1-0.5-0.3-0.6-0.5L326.3,133.7z"/>
	<line class="st10" x1="312.7" y1="133.9" x2="313.8" y2="133.8"/>
	<path class="st11" d="M233.5,118.6c-0.1,0.7,0.2,1.3,0.8,1.7c0.5,0.3,1,0.5,1.7,0.6l1.1,0.2c0.4,0,0.7,0,1.1,0l0.7-0.1
		c0.3,0,0.6-0.1,0.8-0.2c0.8-0.2,1.4-1,1.3-1.8l0,0c0-0.6-0.4-1.2-0.9-1.4c-0.4-0.2-0.8-0.4-1.4-0.5c-0.1,0-0.1,0-0.2,0l-1.3-0.2
		c-0.1,0-0.2,0-0.3,0l-0.9,0c-0.4,0-0.8,0.1-1.2,0.2C234.1,117.2,233.6,117.9,233.5,118.6L233.5,118.6z"/>
	<path class="st11" d="M228.7,115.7c0.7,6.9,1,13.4,0.8,19.4c0,1.4-0.1,2.8-0.3,4.3"/>
	<line class="st11" x1="229.1" y1="139.4" x2="229" y2="140.8"/>
	<path class="st11" d="M229,140.8c-0.1,1-0.3,2-0.5,3"/>
	<path class="st11" d="M228.7,115.7c-0.2-1.6-0.4-3.1-0.6-4.7"/>
	<path class="st11" d="M280.8,98.2"/>
	<path class="st12" d="M331.8,126c-1.5,0.5-2.1,2.3-1.7,3.7c0.1,0.2,0.2,0.5,0.3,0.7c0.1,0.2,0.2,0.4,0.3,0.5c0.2,0.1,0.3,0,0.4-0.1
		c0.4-0.3,0.7-0.9,0.9-1.3c0.1-0.2,0.2-0.4,0.3-0.6c0.2-0.5,0.4-1.1,0.5-1.6c0.1-0.4,0.1-0.9-0.1-1.2
		C332.5,125.8,332.1,125.9,331.8,126z"/>
	<line class="st10" x1="234.3" y1="105.1" x2="238.5" y2="108.1"/>
	<line class="st10" x1="233.6" y1="99.3" x2="246.2" y2="109"/>
	<path class="st11" d="M334.5,114.8l-0.4,0.9c-0.8-0.1-1.7-0.2-2.6-0.2c-0.9,0-1.8-0.1-2.7,0l-0.3-2.2c-0.1-0.4-0.1-0.7,0.2-0.8
		c1,0.2,1.9,0.5,2.8,0.8c0.8,0.2,1.6,0.5,2.3,0.8C334.5,114.3,334.7,114.6,334.5,114.8L334.5,114.8z"/>
	<path class="st9" d="M329,115.4c0.9,0,1.7,0,2.6,0.1c0.9,0,1.5,0.1,2.4,0.2l0.2,0l0.4-0.9c0.2-0.3,0-0.6-0.7-0.8
		c-0.7-0.3-1.5-0.5-2.3-0.8c-0.9-0.3-1.8-0.5-2.8-0.8c-0.3,0.1-0.4,0.4-0.2,0.8l0.3,2.2L329,115.4z"/>
	<path class="st3" d="M117.4,113.3c3,0,6.3-0.3,9.2,1.3c2.2,1.2,3.7,3.7,4.5,6.8c0.1,0.5,0.2,1,0.3,1.5c0.6,3.6,0.5,7.3,1.1,10.9
		c0.5,2.8,1.4,5.9,3,7.7c1.6,1.8,3.8,1.9,5.6,0.6c2.1-1.4,3-4.5,3.5-7.5c0.5-2.8,0.7-5.7,1.4-8.4c1.6-6.2,4.8-11.5,9.6-12.7
		c3.9-1,10.3-0.8,14.3-0.8"/>
	<polygon class="st13" points="113.6,160.9 113.6,99.2 98.6,102.2 98.6,160.9 	"/>
	<path class="st13" d="M112.5,93.6c-1-2-2.7-3.3-4.6-3.7c-1.9-0.4-4,0.2-5.7,1.7c-1.7,1.5-2.9,3.7-3.4,6.2c-0.5,2.5-0.2,5,0.8,7.1
		c1,2,2.7,3.4,4.6,3.8c1.9,0.4,4-0.3,5.7-1.8c1.7-1.5,2.9-3.7,3.4-6.2C113.9,98.1,113.6,95.6,112.5,93.6"/>
	<path class="st14" d="M111.1,94.6c-0.8-1.6-2.1-2.6-3.6-2.9c-1.5-0.3-3.1,0.3-4.4,1.5c-1.3,1.2-2.3,3-2.6,5.1
		c-0.4,2-0.1,4.1,0.7,5.7c0.8,1.6,2.1,2.7,3.6,3c1.5,0.3,3.1-0.3,4.4-1.5c1.3-1.3,2.3-3.1,2.6-5.1C112.2,98.2,111.9,96.2,111.1,94.6
		"/>
	<path class="st15" d="M98.7,109.9c0.7,0.1,1.3,0.4,1.8,0.9c0.7,0.6,1,1.5,1,2.4c0,0.9-0.4,1.7-1,2.4c-0.5,0.4-1.1,0.8-1.7,0.9"/>
	<path class="st15" d="M113.5,109.8c-0.7,0.1-1.3,0.4-1.8,0.9c-0.7,0.6-1,1.5-1,2.4c0,0.9,0.4,1.7,1,2.4c0.5,0.4,1.1,0.8,1.7,0.9"/>
	<line class="st16" x1="113.6" y1="107.7" x2="113.6" y2="123.2"/>
	<line class="st16" x1="98.6" y1="123.2" x2="98.6" y2="108"/>
	<path class="st17" d="M109.6,106c1.5-1.4,2.6-3.5,3-5.8c0.4-2.3,0.1-4.5-0.8-6.3"/>
	<path class="st17" d="M101.6,93.5c-1,1.3-1.6,2.8-1.9,4.5c-0.4,2.3-0.1,4.6,0.8,6.4c0.2,0.5,0.5,0.9,0.8,1.3"/>
	<line class="st17" x1="106.1" y1="85.2" x2="106.1" y2="87.3"/>
	<line class="st17" x1="96.2" y1="97.2" x2="94.1" y2="97.2"/>
	<line class="st17" x1="118.2" y1="97.2" x2="116.1" y2="97.2"/>
	<line class="st17" x1="114.7" y1="88.7" x2="113.2" y2="90.2"/>
	<line class="st17" x1="99.1" y1="90.2" x2="97.6" y2="88.7"/>
	<line class="st17" x1="117.4" y1="92.7" x2="115.4" y2="93.5"/>
	<line class="st17" x1="102.5" y1="88" x2="101.7" y2="86"/>
	<line class="st17" x1="110.1" y1="88.1" x2="110.9" y2="86.1"/>
	<line class="st17" x1="97.2" y1="93.4" x2="95.2" y2="92.6"/>
	<line class="st17" x1="96.2" y1="101.9" x2="94.1" y2="101.9"/>
	<line class="st17" x1="118.2" y1="101.9" x2="116.1" y2="101.9"/>
	<path class="st18" d="M117.2,114.4h-3.4c-0.8,0-1.4-0.6-1.4-1.4l0,0c0-0.8,0.6-1.4,1.4-1.4h3.4c0.8,0,1.4,0.6,1.4,1.4l0,0
		C118.6,113.8,118,114.4,117.2,114.4z"/>
	<g class="st19">
		<path class="st20" d="M248.3,152.8v5.5c-0.1,1.7,0.8,2.5,2.9,2.6h8.7c2,0,3-0.9,2.9-2.6v-22.3"/>
		<path class="st20" d="M165,152.8v5.5c0.1,1.7-0.8,2.5-2.9,2.6h-8.7c-2,0-3-0.9-2.9-2.6v-22.3"/>
		<path class="st21" d="M151.8,146.9c0.1,1.1,0.3,2.2,0.6,3.2c0,0.1,0.1,0.3,0.3,0.4l17.6,2.3h0l1.8,0.2h69l1.8-0.2h0l17.6-2.3
			c0.1-0.1,0.2-0.2,0.3-0.4c0.3-1.1,0.5-2.1,0.6-3.2l1.3-10.9l0.4-5.4c0.4-5.1,0.6-10,0.6-14.7c0-0.8-0.1-1.4-0.2-1.9l-0.1-0.2
			l-3.1-7.1l-5.1-2.3l-1.4-4.1c-1.1-3.7-2.3-7.3-3.7-10.8l-2.6-6.7c-0.9-1.7-1.9-2.7-4.1-3.2l-0.5-0.1c-4.6-1-11.2-1.6-19.7-2
			l-13.4-0.4l-7.5,0L190,77.5c-8.5,0.4-15,1.1-19.7,2l-0.5,0.1c-2.2,0.5-3.2,1.5-4.1,3.2l-2.6,6.7c-1.4,3.5-2.6,7.1-3.7,10.8
			l-1.6,4.1l-5,2.2l-3.1,7.1l-0.1,0.2c-0.1,0.5-0.2,1.1-0.2,1.9c0,4.7,0.2,9.6,0.6,14.7l0.4,5.4L151.8,146.9z"/>
		<polyline class="st22" points="231.2,126.7 208.9,126.7 206.6,129.2 204.4,126.7 182.1,126.7 		"/>
		<path class="st22" d="M235.5,137.1c-2.2-0.1-4.4-0.2-6.6-0.4c-0.5-0.1-1-0.3-1.4-0.5h-41.7c-0.4,0.2-0.8,0.4-1.3,0.5
			c-2.1,0.5-4.4,0.3-6.5,0.4"/>
		<path class="st22" d="M229.2,125.7c-1.5-0.6-3.1-0.9-5-1.1l0,0c-4.9-0.8-10.8-1.3-17.6-1.3c-6.8,0.1-12.7,0.5-17.6,1.3l0,0
			c-1.9,0.2-3.5,0.6-5,1.1"/>
		<path class="st22" d="M184,125.7c-1.1,0.4-2.1,1-3,1.6c-3,2.1-4.5,4.4-4.5,6.7c0,0.5,0.1,1.1,0.3,1.6c0.5,1.3,1.7,2.5,3.5,3.5l0,0
			h0l0.9,0.5l1.1,0.2l3.1,0.4l6.1,0.4l2.1,0.1h26.4l2.1-0.1l7.6-0.6l2.4-0.4l0.1,0l0.9-0.5c0.8-0.4,1.4-0.9,2-1.4
			c0.7-0.7,1.2-1.4,1.5-2.1c0.2-0.5,0.3-1,0.3-1.6c0-2.3-1.5-4.6-4.5-6.7c-0.9-0.6-1.9-1.2-3.1-1.6"/>
		<path class="st22" d="M166.3,137.5c2.9,0.6,6.1,1,8.5,2.8c1.1,0.9,2,2.4,2.5,3.7c1.1,2.4-6,1.8-7.6,1.7l-0.3,0l-0.2,0l-0.5,0"/>
		<polyline class="st22" points="166.3,137.5 166.3,137.5 166.2,137.5 		"/>
		<path class="st22" d="M261.4,146.9c-0.9,0.4-4,0.7-9.1,1l-18.6,0.7l-8.8,0.2c-5.8,0.2-11.5,0.2-17.2,0.2c-7,0.1-13.4,0-19.2-0.2
			l-8.8-0.2l-14.1-0.5c-8-0.3-12.5-0.8-13.7-1.2"/>
		<path class="st22" d="M263.8,117.5c-1.5-1-3.3-1.6-5.5-1.8"/>
		<path class="st21" d="M268,102.7c-0.1,1.3-1.1,2-2.2,2.4c-1.3,0.6-2.8,0.8-4.2,1c-0.9,0.1-1.8,0.2-2.7,0.1c-0.7-0.1-1.4-0.3-2-0.6
			c-0.4-0.2-1.5-0.6-1.6-1.1c-0.2-1,0.1-1.9,0.4-2.8c0.2-0.9,0.3-1.9,0.7-2.7c0.4-0.9,1.4-1.3,2.8-1.1l6,0.8
			c1.2,0.3,1.9,0.7,2.1,1.3C267.6,100.7,268,101.8,268,102.7z"/>
		<path class="st23" d="M255,104.6c-11.4,2.5-19.4,9.5-25.8,21.1"/>
		<path class="st24" d="M244,82.8c0,0-0.1-0.1-0.1-0.1c-0.7-0.4-1.6-0.5-2.4-0.6c-23.2-1.7-46.6-1.6-69.9-0.1
			c-0.7,0-1.5,0.1-2.2,0.5c-0.8,0.5-1.3,1.4-1.7,2.2c-2.6,5.4-4.4,11.2-5.3,17.1c-0.1,0.5-0.1,1.1,0.2,1.4c0.3,0.3,0.7,0.3,1.1,0.3
			c27.5,0,54.9,0,82.4,0c3,0,5.2,0.1,4.4-3.6c-1.1-5.1-2.7-10.1-4.8-14.8C245.3,84.3,244.8,83.4,244,82.8z"/>
		<line class="st22" x1="166.2" y1="137.5" x2="162" y2="136.7"/>
		<line class="st22" x1="162.1" y1="139.5" x2="161.6" y2="136.6"/>
		<line class="st22" x1="163.1" y1="145.3" x2="163.7" y2="145.4"/>
		<line class="st22" x1="163.7" y1="145.4" x2="168.7" y2="145.7"/>
		<line class="st22" x1="163.1" y1="145.3" x2="162.6" y2="142.4"/>
		<path class="st22" d="M159,144.5c0.7,0.3,1.6,0.5,2.6,0.7"/>
		<line class="st22" x1="161.6" y1="145.2" x2="163.1" y2="145.3"/>
		<line class="st22" x1="158.7" y1="144.4" x2="159" y2="144.5"/>
		<line class="st22" x1="162.5" y1="141.9" x2="162.1" y2="140"/>
		<line class="st22" x1="162.5" y1="141.9" x2="162.6" y2="142.4"/>
		<line class="st22" x1="162.1" y1="139.5" x2="162.1" y2="140"/>
		<line class="st22" x1="160.1" y1="136.4" x2="155.9" y2="135.8"/>
		<line class="st22" x1="162" y1="136.7" x2="161.6" y2="136.6"/>
		<line class="st22" x1="161.6" y1="136.6" x2="160.1" y2="136.4"/>
		<path class="st22" d="M155.9,135.8c-0.3,0-0.5,0-0.6,0.1"/>
		<path class="st22" d="M155.3,135.9c-0.1,0.1-0.2,0.3-0.2,0.5v0.2c0,2.7,0.7,4.9,2,6.7c0.4,0.4,0.9,0.8,1.6,1.1"/>
		<path class="st22" d="M155,115.7c-2.2,0.2-4,0.9-5.5,1.9"/>
		<line class="st22" x1="184" y1="125.7" x2="180.8" y2="123"/>
		<path class="st21" d="M157.8,104.5c-2.2,2.2-4.8,1.6-6.2,1.5c-2.1-0.2-3.8-0.7-5.1-1.4c-0.8-0.4-1.3-1.1-1.3-1.9v-0.6
			c0.2-1.3,0.4-1.6,0.7-2.2c0.3-0.6,1-1,2.1-1.3l6-0.8c1.4-0.2,2.4,0.2,2.8,1.1c0.3,0.7,0.5,1.9,0.7,3.5l0,0.2L157.8,104.5z"/>
		<path class="st23" d="M184,125.7c-6.4-11.6-12.8-18.8-25.9-21.4"/>
		<path class="st22" d="M185.6,143.2c6.6,0.2,13.2,0.3,19.8,0.3c0.2,0,0.5,0,0.7,0c7.2,0,14.4-0.1,21.6-0.3c1.6-0.1,3.1-0.1,4.7-0.1
			c0.4,0,0.8,0,0.9,0.4c0.2,0.6-0.9,2.1-1.5,2.4c-0.3,0.2-0.6,0.2-1,0.2c-8.2,0.3-16.4,0.4-24.6,0.4c-7.8,0-15.6-0.1-23.5-0.3
			c-0.4,0-0.8,0-1.2-0.2c-0.9-0.3-1.4-1.2-1.8-2.1c-0.1-0.2-0.1-0.3-0.1-0.5c0.1-0.3,0.6-0.4,0.9-0.4
			C182.4,143.1,184,143.1,185.6,143.2z"/>
		<line class="st22" x1="244.5" y1="145.5" x2="244" y2="145.5"/>
		<polyline class="st22" points="247,137.3 247,137.3 246.9,137.3 		"/>
		<line class="st22" x1="251.2" y1="136.5" x2="247" y2="137.3"/>
		<line class="st22" x1="251.7" y1="136.4" x2="251.2" y2="139.3"/>
		<line class="st22" x1="249.6" y1="145.2" x2="250.2" y2="145.1"/>
		<line class="st22" x1="244.5" y1="145.5" x2="249.6" y2="145.2"/>
		<line class="st22" x1="250.7" y1="142.2" x2="250.2" y2="145.1"/>
		<path class="st22" d="M251.7,145c1-0.2,1.9-0.4,2.6-0.7"/>
		<line class="st22" x1="250.2" y1="145.1" x2="251.7" y2="145"/>
		<line class="st22" x1="254.3" y1="144.3" x2="254.6" y2="144.2"/>
		<line class="st22" x1="251.1" y1="139.8" x2="250.8" y2="141.7"/>
		<line class="st22" x1="250.7" y1="142.2" x2="250.8" y2="141.7"/>
		<line class="st22" x1="251.1" y1="139.8" x2="251.2" y2="139.3"/>
		<line class="st22" x1="257.4" y1="135.6" x2="253.1" y2="136.2"/>
		<line class="st22" x1="251.7" y1="136.4" x2="251.2" y2="136.5"/>
		<line class="st22" x1="253.1" y1="136.2" x2="251.7" y2="136.4"/>
		<path class="st22" d="M257.9,135.7c-0.1-0.1-0.3-0.1-0.6-0.1"/>
		<path class="st22" d="M254.6,144.2c0.7-0.3,1.2-0.7,1.6-1.1c1.4-1.8,2-4.1,2-6.7v-0.2c0-0.2-0.1-0.4-0.2-0.5"/>
		<line class="st25" x1="243.3" y1="96.8" x2="240.2" y2="99.9"/>
		<line class="st25" x1="242.4" y1="94" x2="236.7" y2="99.9"/>
		<line class="st25" x1="182" y1="84.7" x2="168.9" y2="98.2"/>
		<line class="st25" x1="184.2" y1="85.6" x2="174.9" y2="95.4"/>
		<path class="st22" d="M247.1,137.3l-3.6,0.7l-1.2,0.3l-1.8,0.7l-1,0.5c-0.9,0.6-1.6,1.2-2.3,2.1c-0.3,0.4-0.6,0.9-0.8,1.4
			c-0.2,0.6-0.4,1.3,0,1.8c0.7,1.1,2,1.1,3.2,1c1.7-0.2,3.4-0.3,5.1-0.5"/>
		<path class="st26" d="M167.7,123.9c-0.8,0-1.7,0-2.5,0.2l-1.4,0.4l-0.7,0.1c-1.5,0-3.2-0.4-5.2-1.2c-1.9-0.7-2.9-3.3-2.9-7.6
			l8.6,0.8c7.2,0.9,12.9,3.1,17.2,6.6l-0.9,0.5c-0.6,0.3-0.2,0.1-0.8,0.3c-2.9,1.2-5.8,1.4-8.5,0.7c-1-0.3-1.4-0.5-2.4-0.6
			L167.7,123.9z"/>
		<path class="st26" d="M245.6,123.9c0.8,0,1.7,0,2.5,0.2l1.4,0.4l0.7,0.1c1.5,0,3.2-0.4,5.2-1.2c1.9-0.7,2.9-3.3,2.9-7.6l-8.6,0.8
			c-7.2,0.9-12.9,3.1-17.2,6.6l0.9,0.5c0.6,0.3,0.2,0.1,0.8,0.3c2.9,1.2,5.8,1.4,8.5,0.7c1-0.3,1.4-0.5,2.4-0.6L245.6,123.9z"/>
		<path class="st27" d="M171.9,120.8c-0.1-0.1-0.3-0.2-0.5-0.2c-0.2,0-0.3,0.1-0.5,0.2c-0.1,0.1-0.2,0.3-0.2,0.5
			c0,0.2,0.1,0.3,0.2,0.5c0.1,0.1,0.3,0.2,0.5,0.2c0.2,0,0.4-0.1,0.5-0.2c0.1-0.1,0.2-0.3,0.2-0.5C172.1,121.1,172,121,171.9,120.8
			L171.9,120.8z"/>
		<path class="st27" d="M162.3,122.2c0.6,0,1-0.2,1.4-0.6c0.4-0.4,0.6-0.9,0.6-1.4c0-0.6-0.2-1-0.6-1.4c-0.4-0.4-0.9-0.6-1.4-0.6
			c-0.6,0-1,0.2-1.4,0.6c-0.4,0.4-0.6,0.9-0.6,1.4c0,0.6,0.2,1,0.6,1.4C161.3,122,161.8,122.2,162.3,122.2L162.3,122.2z"/>
		<path class="st27" d="M241.2,121c0.1-0.1,0.3-0.2,0.5-0.2c0.2,0,0.3,0.1,0.5,0.2c0.1,0.1,0.2,0.3,0.2,0.5c0,0.2-0.1,0.3-0.2,0.5
			c-0.1,0.1-0.3,0.2-0.5,0.2c-0.2,0-0.4-0.1-0.5-0.2c-0.1-0.1-0.2-0.3-0.2-0.5C241,121.3,241.1,121.1,241.2,121L241.2,121z"/>
		<path class="st27" d="M250.8,122.4c-0.6,0-1-0.2-1.4-0.6c-0.4-0.4-0.6-0.9-0.6-1.4c0-0.6,0.2-1,0.6-1.4c0.4-0.4,0.9-0.6,1.4-0.6
			c0.6,0,1,0.2,1.4,0.6c0.4,0.4,0.6,0.9,0.6,1.4c0,0.6-0.2,1-0.6,1.4C251.8,122.2,251.3,122.4,250.8,122.4L250.8,122.4z"/>
	</g>
	<rect x="-87.3" y="-79.3" class="st28" width="162.8" height="240.2"/>
	<g class="st19">
		<g>
			<line class="st29" x1="-86" y1="3.1" x2="2.5" y2="2.9"/>
			<line class="st29" x1="-86" y1="-4.2" x2="2.5" y2="-4.4"/>
			<line class="st29" x1="-75" y1="2.7" x2="-75" y2="-3.9"/>
			<line class="st29" x1="-63.8" y1="2.7" x2="-63.8" y2="-3.9"/>
			<line class="st29" x1="-53" y1="2.7" x2="-53" y2="-3.9"/>
			<line class="st29" x1="-41.7" y1="2.7" x2="-41.7" y2="-3.9"/>
			<line class="st29" x1="-30.8" y1="2.7" x2="-30.8" y2="-3.9"/>
			<line class="st29" x1="-19.6" y1="2.7" x2="-19.6" y2="-3.9"/>
			<line class="st29" x1="-8.4" y1="2.7" x2="-8.4" y2="-3.9"/>
			<line class="st29" x1="-85.8" y1="10.6" x2="2.5" y2="10.5"/>
			<line class="st29" x1="-80.6" y1="10.3" x2="-80.6" y2="3.6"/>
			<line class="st29" x1="-69.4" y1="10.3" x2="-69.4" y2="3.6"/>
			<line class="st29" x1="-58.6" y1="10.3" x2="-58.6" y2="3.6"/>
			<line class="st29" x1="-47.3" y1="10.3" x2="-47.3" y2="3.6"/>
			<line class="st29" x1="-36.4" y1="10.3" x2="-36.4" y2="3.6"/>
			<line class="st29" x1="-25.2" y1="10.3" x2="-25.2" y2="3.6"/>
			<line class="st29" x1="-14" y1="10.3" x2="-14" y2="3.6"/>
			<line class="st29" x1="-2.3" y1="10.3" x2="-2.3" y2="3.6"/>
			<line class="st29" x1="-85.9" y1="18.2" x2="2.6" y2="18.1"/>
			<line class="st29" x1="-74.9" y1="17.9" x2="-74.9" y2="11.2"/>
			<line class="st29" x1="-63.7" y1="17.9" x2="-63.7" y2="11.2"/>
			<line class="st29" x1="-52.9" y1="17.9" x2="-52.9" y2="11.2"/>
			<line class="st29" x1="-41.7" y1="17.9" x2="-41.7" y2="11.2"/>
			<line class="st29" x1="-30.7" y1="17.9" x2="-30.7" y2="11.2"/>
			<line class="st29" x1="-19.5" y1="17.9" x2="-19.5" y2="11.2"/>
			<line class="st29" x1="-8.3" y1="17.9" x2="-8.3" y2="11.2"/>
			<line class="st29" x1="-85.8" y1="25.8" x2="2.5" y2="25.6"/>
			<line class="st29" x1="-80.5" y1="25.5" x2="-80.5" y2="18.8"/>
			<line class="st29" x1="-69.3" y1="25.5" x2="-69.3" y2="18.8"/>
			<line class="st29" x1="-58.5" y1="25.5" x2="-58.5" y2="18.8"/>
			<line class="st29" x1="-47.3" y1="25.5" x2="-47.3" y2="18.8"/>
			<line class="st29" x1="-36.3" y1="25.5" x2="-36.3" y2="18.8"/>
			<line class="st29" x1="-25.1" y1="25.5" x2="-25.1" y2="18.8"/>
			<line class="st29" x1="-13.9" y1="25.5" x2="-13.9" y2="18.8"/>
			<line class="st29" x1="-2.2" y1="25.5" x2="-2.2" y2="18.8"/>
			<line class="st29" x1="-85.5" y1="33.1" x2="3" y2="32.9"/>
			<line class="st29" x1="-74.5" y1="32.7" x2="-74.5" y2="26"/>
			<line class="st29" x1="-63.3" y1="32.7" x2="-63.3" y2="26"/>
			<line class="st29" x1="-52.5" y1="32.7" x2="-52.5" y2="26"/>
			<line class="st29" x1="-41.3" y1="32.7" x2="-41.3" y2="26"/>
			<line class="st29" x1="-30.3" y1="32.7" x2="-30.3" y2="26"/>
			<line class="st29" x1="-19.1" y1="32.7" x2="-19.1" y2="26"/>
			<line class="st29" x1="-7.9" y1="32.7" x2="-7.9" y2="26"/>
			<line class="st29" x1="-85.4" y1="40.6" x2="2.9" y2="40.4"/>
			<line class="st29" x1="-80.1" y1="40.3" x2="-80.1" y2="33.6"/>
			<line class="st29" x1="-68.9" y1="40.3" x2="-68.9" y2="33.6"/>
			<line class="st29" x1="-58.1" y1="40.3" x2="-58.1" y2="33.6"/>
			<line class="st29" x1="-46.9" y1="40.3" x2="-46.9" y2="33.6"/>
			<line class="st29" x1="-35.9" y1="40.3" x2="-35.9" y2="33.6"/>
			<line class="st29" x1="-24.7" y1="40.3" x2="-24.7" y2="33.6"/>
			<line class="st29" x1="-13.5" y1="40.3" x2="-13.5" y2="33.6"/>
			<line class="st29" x1="-1.9" y1="40.3" x2="-1.9" y2="33.6"/>
			<line class="st29" x1="-85.4" y1="48.2" x2="3" y2="48.1"/>
			<line class="st29" x1="-74.5" y1="47.9" x2="-74.5" y2="41.2"/>
			<line class="st29" x1="-63.2" y1="47.9" x2="-63.2" y2="41.2"/>
			<line class="st29" x1="-52.4" y1="47.9" x2="-52.4" y2="41.2"/>
			<line class="st29" x1="-41.2" y1="47.9" x2="-41.2" y2="41.2"/>
			<line class="st29" x1="-30.3" y1="47.9" x2="-30.3" y2="41.2"/>
			<line class="st29" x1="-19" y1="47.9" x2="-19" y2="41.2"/>
			<line class="st29" x1="-7.8" y1="47.9" x2="-7.8" y2="41.2"/>
			<line class="st29" x1="-85.3" y1="55.8" x2="3" y2="55.6"/>
			<line class="st29" x1="-80" y1="55.5" x2="-80" y2="48.8"/>
			<line class="st29" x1="-68.8" y1="55.5" x2="-68.8" y2="48.8"/>
			<line class="st29" x1="-58" y1="55.5" x2="-58" y2="48.8"/>
			<line class="st29" x1="-46.8" y1="55.5" x2="-46.8" y2="48.8"/>
			<line class="st29" x1="-35.8" y1="55.5" x2="-35.8" y2="48.8"/>
			<line class="st29" x1="-24.6" y1="55.5" x2="-24.6" y2="48.8"/>
			<line class="st29" x1="-13.4" y1="55.5" x2="-13.4" y2="48.8"/>
			<line class="st29" x1="-1.8" y1="55.5" x2="-1.8" y2="48.8"/>
			<line class="st29" x1="-85.5" y1="62.7" x2="3" y2="62.5"/>
			<line class="st29" x1="-74.5" y1="62.4" x2="-74.5" y2="55.7"/>
			<line class="st29" x1="-63.3" y1="62.4" x2="-63.3" y2="55.7"/>
			<line class="st29" x1="-52.5" y1="62.4" x2="-52.5" y2="55.7"/>
			<line class="st29" x1="-41.3" y1="62.4" x2="-41.3" y2="55.7"/>
			<line class="st29" x1="-30.3" y1="62.4" x2="-30.3" y2="55.7"/>
			<line class="st29" x1="-19.1" y1="62.4" x2="-19.1" y2="55.7"/>
			<line class="st29" x1="-7.9" y1="62.4" x2="-7.9" y2="55.7"/>
			<line class="st29" x1="-85.4" y1="70.3" x2="2.9" y2="70.1"/>
			<line class="st29" x1="-80.1" y1="70" x2="-80.1" y2="63.3"/>
			<line class="st29" x1="-68.9" y1="70" x2="-68.9" y2="63.3"/>
			<line class="st29" x1="-58.1" y1="70" x2="-58.1" y2="63.3"/>
			<line class="st29" x1="-46.9" y1="70" x2="-46.9" y2="63.3"/>
			<line class="st29" x1="-35.9" y1="70" x2="-35.9" y2="63.3"/>
			<line class="st29" x1="-24.7" y1="70" x2="-24.7" y2="63.3"/>
			<line class="st29" x1="-13.5" y1="70" x2="-13.5" y2="63.3"/>
			<line class="st29" x1="-1.9" y1="70" x2="-1.9" y2="63.3"/>
			<line class="st29" x1="2.5" y1="2.9" x2="75" y2="2.7"/>
			<line class="st29" x1="2.5" y1="-4.4" x2="75" y2="-4.6"/>
			<line class="st29" x1="14.8" y1="2.6" x2="14.8" y2="-4.1"/>
			<line class="st29" x1="26" y1="2.6" x2="26" y2="-4.1"/>
			<line class="st29" x1="36.8" y1="2.6" x2="36.8" y2="-4.1"/>
			<line class="st29" x1="48" y1="2.6" x2="48" y2="-4.1"/>
			<line class="st29" x1="59" y1="2.6" x2="59" y2="-4.1"/>
			<line class="st29" x1="70.2" y1="2.6" x2="70.2" y2="-4.1"/>
			<line class="st29" x1="2.5" y1="10.5" x2="75" y2="10.3"/>
			<line class="st29" x1="9.2" y1="10.2" x2="9.2" y2="3.5"/>
			<line class="st29" x1="20.4" y1="10.2" x2="20.4" y2="3.5"/>
			<line class="st29" x1="31.2" y1="10.2" x2="31.2" y2="3.5"/>
			<line class="st29" x1="42.4" y1="10.2" x2="42.4" y2="3.5"/>
			<line class="st29" x1="53.4" y1="10.2" x2="53.4" y2="3.5"/>
			<line class="st29" x1="64.6" y1="10.2" x2="64.6" y2="3.5"/>
			<line class="st29" x1="2.5" y1="18.1" x2="75.1" y2="17.9"/>
			<line class="st29" x1="14.8" y1="17.8" x2="14.8" y2="11.1"/>
			<line class="st29" x1="26.1" y1="17.8" x2="26.1" y2="11.1"/>
			<line class="st29" x1="36.9" y1="17.8" x2="36.9" y2="11.1"/>
			<line class="st29" x1="48.1" y1="17.8" x2="48.1" y2="11.1"/>
			<line class="st29" x1="59" y1="17.8" x2="59" y2="11.1"/>
			<line class="st29" x1="70.3" y1="17.8" x2="70.3" y2="11.1"/>
			<line class="st29" x1="2.5" y1="25.6" x2="75" y2="25.5"/>
			<line class="st29" x1="9.2" y1="25.3" x2="9.2" y2="18.7"/>
			<line class="st29" x1="20.5" y1="25.3" x2="20.5" y2="18.7"/>
			<line class="st29" x1="31.3" y1="25.3" x2="31.3" y2="18.7"/>
			<line class="st29" x1="42.5" y1="25.3" x2="42.5" y2="18.7"/>
			<line class="st29" x1="53.5" y1="25.3" x2="53.5" y2="18.7"/>
			<line class="st29" x1="64.7" y1="25.3" x2="64.7" y2="18.7"/>
			<line class="st29" x1="2.9" y1="32.9" x2="75.4" y2="32.7"/>
			<line class="st29" x1="15.2" y1="32.6" x2="15.2" y2="25.9"/>
			<line class="st29" x1="26.5" y1="32.6" x2="26.5" y2="25.9"/>
			<line class="st29" x1="37.3" y1="32.6" x2="37.3" y2="25.9"/>
			<line class="st29" x1="48.5" y1="32.6" x2="48.5" y2="25.9"/>
			<line class="st29" x1="59.4" y1="32.6" x2="59.4" y2="25.9"/>
			<line class="st29" x1="70.7" y1="32.6" x2="70.7" y2="25.9"/>
			<line class="st29" x1="2.8" y1="40.4" x2="75.4" y2="40.3"/>
			<line class="st29" x1="9.6" y1="40.2" x2="9.6" y2="33.5"/>
			<line class="st29" x1="20.9" y1="40.2" x2="20.9" y2="33.5"/>
			<line class="st29" x1="31.7" y1="40.2" x2="31.7" y2="33.5"/>
			<line class="st29" x1="42.9" y1="40.2" x2="42.9" y2="33.5"/>
			<line class="st29" x1="53.8" y1="40.2" x2="53.8" y2="33.5"/>
			<line class="st29" x1="65.1" y1="40.2" x2="65.1" y2="33.5"/>
			<line class="st29" x1="2.9" y1="48.1" x2="75.4" y2="47.9"/>
			<line class="st29" x1="15.3" y1="47.8" x2="15.3" y2="41.1"/>
			<line class="st29" x1="26.5" y1="47.8" x2="26.5" y2="41.1"/>
			<line class="st29" x1="37.3" y1="47.8" x2="37.3" y2="41.1"/>
			<line class="st29" x1="48.6" y1="47.8" x2="48.6" y2="41.1"/>
			<line class="st29" x1="59.5" y1="47.8" x2="59.5" y2="41.1"/>
			<line class="st29" x1="70.7" y1="47.8" x2="70.7" y2="41.1"/>
			<line class="st29" x1="2.9" y1="55.6" x2="75.4" y2="55.5"/>
			<line class="st29" x1="9.7" y1="55.3" x2="9.7" y2="48.6"/>
			<line class="st29" x1="20.9" y1="55.3" x2="20.9" y2="48.6"/>
			<line class="st29" x1="31.7" y1="55.3" x2="31.7" y2="48.6"/>
			<line class="st29" x1="43" y1="55.3" x2="43" y2="48.6"/>
			<line class="st29" x1="53.9" y1="55.3" x2="53.9" y2="48.6"/>
			<line class="st29" x1="65.1" y1="55.3" x2="65.1" y2="48.6"/>
			<line class="st29" x1="2.9" y1="62.5" x2="75.4" y2="62.4"/>
			<line class="st29" x1="15.2" y1="62.2" x2="15.2" y2="55.6"/>
			<line class="st29" x1="26.5" y1="62.2" x2="26.5" y2="55.6"/>
			<line class="st29" x1="37.3" y1="62.2" x2="37.3" y2="55.6"/>
			<line class="st29" x1="48.5" y1="62.2" x2="48.5" y2="55.6"/>
			<line class="st29" x1="59.4" y1="62.2" x2="59.4" y2="55.6"/>
			<line class="st29" x1="70.7" y1="62.2" x2="70.7" y2="55.6"/>
			<line class="st29" x1="2.8" y1="70.1" x2="75.4" y2="70"/>
			<line class="st29" x1="9.6" y1="69.8" x2="9.6" y2="63.1"/>
			<line class="st29" x1="20.9" y1="69.8" x2="20.9" y2="63.1"/>
			<line class="st29" x1="31.7" y1="69.8" x2="31.7" y2="63.1"/>
			<line class="st29" x1="42.9" y1="69.8" x2="42.9" y2="63.1"/>
			<line class="st29" x1="53.8" y1="69.8" x2="53.8" y2="63.1"/>
			<line class="st29" x1="65.1" y1="69.8" x2="65.1" y2="63.1"/>
			<line class="st29" x1="3.4" y1="2.5" x2="3.4" y2="-4.2"/>
			<line class="st29" x1="3.5" y1="17.7" x2="3.5" y2="11"/>
			<line class="st29" x1="3.9" y1="32.5" x2="3.9" y2="25.8"/>
			<line class="st29" x1="4" y1="47.7" x2="4" y2="41"/>
			<line class="st29" x1="3.9" y1="62.2" x2="3.9" y2="55.5"/>
		</g>
		<line class="st29" x1="-85.8" y1="-71.5" x2="2.6" y2="-71.7"/>
		<line class="st29" x1="-85.8" y1="-78.8" x2="2.6" y2="-79"/>
		<line class="st29" x1="-74.9" y1="-71.8" x2="-74.9" y2="-78.5"/>
		<line class="st29" x1="-63.6" y1="-71.8" x2="-63.6" y2="-78.5"/>
		<line class="st29" x1="-52.8" y1="-71.8" x2="-52.8" y2="-78.5"/>
		<line class="st29" x1="-41.6" y1="-71.8" x2="-41.6" y2="-78.5"/>
		<line class="st29" x1="-30.7" y1="-71.8" x2="-30.7" y2="-78.5"/>
		<line class="st29" x1="-19.4" y1="-71.8" x2="-19.4" y2="-78.5"/>
		<line class="st29" x1="-8.2" y1="-71.8" x2="-8.2" y2="-78.5"/>
		<line class="st29" x1="-85.7" y1="-63.9" x2="2.6" y2="-64.1"/>
		<line class="st29" x1="-80.4" y1="-64.2" x2="-80.4" y2="-70.9"/>
		<line class="st29" x1="-69.2" y1="-64.2" x2="-69.2" y2="-70.9"/>
		<line class="st29" x1="-58.4" y1="-64.2" x2="-58.4" y2="-70.9"/>
		<line class="st29" x1="-47.2" y1="-64.2" x2="-47.2" y2="-70.9"/>
		<line class="st29" x1="-36.2" y1="-64.2" x2="-36.2" y2="-70.9"/>
		<line class="st29" x1="-25" y1="-64.2" x2="-25" y2="-70.9"/>
		<line class="st29" x1="-13.8" y1="-64.2" x2="-13.8" y2="-70.9"/>
		<line class="st29" x1="-2.2" y1="-64.2" x2="-2.2" y2="-70.9"/>
		<line class="st29" x1="-85.8" y1="-56.3" x2="2.7" y2="-56.5"/>
		<line class="st29" x1="-74.8" y1="-56.6" x2="-74.8" y2="-63.3"/>
		<line class="st29" x1="-63.6" y1="-56.6" x2="-63.6" y2="-63.3"/>
		<line class="st29" x1="-52.8" y1="-56.6" x2="-52.8" y2="-63.3"/>
		<line class="st29" x1="-41.5" y1="-56.6" x2="-41.5" y2="-63.3"/>
		<line class="st29" x1="-30.6" y1="-56.6" x2="-30.6" y2="-63.3"/>
		<line class="st29" x1="-19.4" y1="-56.6" x2="-19.4" y2="-63.3"/>
		<line class="st29" x1="-8.2" y1="-56.6" x2="-8.2" y2="-63.3"/>
		<line class="st29" x1="-85.6" y1="-48.7" x2="2.7" y2="-48.9"/>
		<line class="st29" x1="-80.4" y1="-49.1" x2="-80.4" y2="-55.7"/>
		<line class="st29" x1="-69.1" y1="-49.1" x2="-69.1" y2="-55.7"/>
		<line class="st29" x1="-58.3" y1="-49.1" x2="-58.3" y2="-55.7"/>
		<line class="st29" x1="-47.1" y1="-49.1" x2="-47.1" y2="-55.7"/>
		<line class="st29" x1="-36.2" y1="-49.1" x2="-36.2" y2="-55.7"/>
		<line class="st29" x1="-24.9" y1="-49.1" x2="-24.9" y2="-55.7"/>
		<line class="st29" x1="-13.7" y1="-49.1" x2="-13.7" y2="-55.7"/>
		<line class="st29" x1="-2.1" y1="-49.1" x2="-2.1" y2="-55.7"/>
		<line class="st29" x1="-85.4" y1="-41.5" x2="3.1" y2="-41.7"/>
		<line class="st29" x1="-74.4" y1="-41.8" x2="-74.4" y2="-48.5"/>
		<line class="st29" x1="-63.2" y1="-41.8" x2="-63.2" y2="-48.5"/>
		<line class="st29" x1="-52.4" y1="-41.8" x2="-52.4" y2="-48.5"/>
		<line class="st29" x1="-41.1" y1="-41.8" x2="-41.1" y2="-48.5"/>
		<line class="st29" x1="-30.2" y1="-41.8" x2="-30.2" y2="-48.5"/>
		<line class="st29" x1="-19" y1="-41.8" x2="-19" y2="-48.5"/>
		<line class="st29" x1="-7.8" y1="-41.8" x2="-7.8" y2="-48.5"/>
		<line class="st29" x1="-85.2" y1="-33.9" x2="3.1" y2="-34.1"/>
		<line class="st29" x1="-80" y1="-34.2" x2="-80" y2="-40.9"/>
		<line class="st29" x1="-68.7" y1="-34.2" x2="-68.7" y2="-40.9"/>
		<line class="st29" x1="-57.9" y1="-34.2" x2="-57.9" y2="-40.9"/>
		<line class="st29" x1="-46.7" y1="-34.2" x2="-46.7" y2="-40.9"/>
		<line class="st29" x1="-35.8" y1="-34.2" x2="-35.8" y2="-40.9"/>
		<line class="st29" x1="-24.5" y1="-34.2" x2="-24.5" y2="-40.9"/>
		<line class="st29" x1="-13.3" y1="-34.2" x2="-13.3" y2="-40.9"/>
		<line class="st29" x1="-1.7" y1="-34.2" x2="-1.7" y2="-40.9"/>
		<line class="st29" x1="-85.3" y1="-26.3" x2="3.2" y2="-26.5"/>
		<line class="st29" x1="-74.3" y1="-26.6" x2="-74.3" y2="-33.3"/>
		<line class="st29" x1="-63.1" y1="-26.6" x2="-63.1" y2="-33.3"/>
		<line class="st29" x1="-52.3" y1="-26.6" x2="-52.3" y2="-33.3"/>
		<line class="st29" x1="-41.1" y1="-26.6" x2="-41.1" y2="-33.3"/>
		<line class="st29" x1="-30.1" y1="-26.6" x2="-30.1" y2="-33.3"/>
		<line class="st29" x1="-18.9" y1="-26.6" x2="-18.9" y2="-33.3"/>
		<line class="st29" x1="-7.7" y1="-26.6" x2="-7.7" y2="-33.3"/>
		<line class="st29" x1="-85.1" y1="-18.8" x2="3.1" y2="-18.9"/>
		<line class="st29" x1="-79.9" y1="-19.1" x2="-79.9" y2="-25.8"/>
		<line class="st29" x1="-68.7" y1="-19.1" x2="-68.7" y2="-25.8"/>
		<line class="st29" x1="-57.9" y1="-19.1" x2="-57.9" y2="-25.8"/>
		<line class="st29" x1="-46.6" y1="-19.1" x2="-46.6" y2="-25.8"/>
		<line class="st29" x1="-35.7" y1="-19.1" x2="-35.7" y2="-25.8"/>
		<line class="st29" x1="-24.5" y1="-19.1" x2="-24.5" y2="-25.8"/>
		<line class="st29" x1="-13.3" y1="-19.1" x2="-13.3" y2="-25.8"/>
		<line class="st29" x1="-1.6" y1="-19.1" x2="-1.6" y2="-25.8"/>
		<line class="st29" x1="-85.4" y1="-11.8" x2="3.1" y2="-12"/>
		<line class="st29" x1="-74.4" y1="-12.2" x2="-74.4" y2="-18.8"/>
		<line class="st29" x1="-63.2" y1="-12.2" x2="-63.2" y2="-18.8"/>
		<line class="st29" x1="-52.4" y1="-12.2" x2="-52.4" y2="-18.8"/>
		<line class="st29" x1="-41.1" y1="-12.2" x2="-41.1" y2="-18.8"/>
		<line class="st29" x1="-30.2" y1="-12.2" x2="-30.2" y2="-18.8"/>
		<line class="st29" x1="-19" y1="-12.2" x2="-19" y2="-18.8"/>
		<line class="st29" x1="-7.8" y1="-12.2" x2="-7.8" y2="-18.8"/>
		<line class="st29" x1="-80" y1="-4.6" x2="-80" y2="-11.3"/>
		<line class="st29" x1="-68.7" y1="-4.6" x2="-68.7" y2="-11.3"/>
		<line class="st29" x1="-57.9" y1="-4.6" x2="-57.9" y2="-11.3"/>
		<line class="st29" x1="-46.7" y1="-4.6" x2="-46.7" y2="-11.3"/>
		<line class="st29" x1="-35.8" y1="-4.6" x2="-35.8" y2="-11.3"/>
		<line class="st29" x1="-24.5" y1="-4.6" x2="-24.5" y2="-11.3"/>
		<line class="st29" x1="-13.3" y1="-4.6" x2="-13.3" y2="-11.3"/>
		<line class="st29" x1="-1.7" y1="-4.6" x2="-1.7" y2="-11.3"/>
		<line class="st29" x1="2.6" y1="-71.7" x2="75.2" y2="-71.8"/>
		<line class="st29" x1="2.6" y1="-79" x2="75.1" y2="-79.1"/>
		<line class="st29" x1="14.9" y1="-72" x2="14.9" y2="-78.6"/>
		<line class="st29" x1="26.1" y1="-72" x2="26.1" y2="-78.6"/>
		<line class="st29" x1="36.9" y1="-72" x2="36.9" y2="-78.6"/>
		<line class="st29" x1="48.2" y1="-72" x2="48.2" y2="-78.6"/>
		<line class="st29" x1="59.1" y1="-72" x2="59.1" y2="-78.6"/>
		<line class="st29" x1="70.3" y1="-72" x2="70.3" y2="-78.6"/>
		<line class="st29" x1="2.6" y1="-64.1" x2="75.1" y2="-64.2"/>
		<line class="st29" x1="9.3" y1="-64.4" x2="9.3" y2="-71.1"/>
		<line class="st29" x1="20.5" y1="-64.4" x2="20.5" y2="-71.1"/>
		<line class="st29" x1="31.3" y1="-64.4" x2="31.3" y2="-71.1"/>
		<line class="st29" x1="42.6" y1="-64.4" x2="42.6" y2="-71.1"/>
		<line class="st29" x1="53.5" y1="-64.4" x2="53.5" y2="-71.1"/>
		<line class="st29" x1="64.7" y1="-64.4" x2="64.7" y2="-71.1"/>
		<line class="st29" x1="2.7" y1="-56.5" x2="75.2" y2="-56.6"/>
		<line class="st29" x1="15" y1="-56.8" x2="15" y2="-63.5"/>
		<line class="st29" x1="26.2" y1="-56.8" x2="26.2" y2="-63.5"/>
		<line class="st29" x1="37" y1="-56.8" x2="37" y2="-63.5"/>
		<line class="st29" x1="48.2" y1="-56.8" x2="48.2" y2="-63.5"/>
		<line class="st29" x1="59.2" y1="-56.8" x2="59.2" y2="-63.5"/>
		<line class="st29" x1="70.4" y1="-56.8" x2="70.4" y2="-63.5"/>
		<line class="st29" x1="2.7" y1="-48.9" x2="75.2" y2="-49.1"/>
		<line class="st29" x1="9.4" y1="-49.2" x2="9.4" y2="-55.9"/>
		<line class="st29" x1="20.6" y1="-49.2" x2="20.6" y2="-55.9"/>
		<line class="st29" x1="31.4" y1="-49.2" x2="31.4" y2="-55.9"/>
		<line class="st29" x1="42.6" y1="-49.2" x2="42.6" y2="-55.9"/>
		<line class="st29" x1="53.6" y1="-49.2" x2="53.6" y2="-55.9"/>
		<line class="st29" x1="64.8" y1="-49.2" x2="64.8" y2="-55.9"/>
		<line class="st29" x1="3" y1="-41.7" x2="75.5" y2="-41.8"/>
		<line class="st29" x1="15.4" y1="-42" x2="15.4" y2="-48.7"/>
		<line class="st29" x1="26.6" y1="-42" x2="26.6" y2="-48.7"/>
		<line class="st29" x1="37.4" y1="-42" x2="37.4" y2="-48.7"/>
		<line class="st29" x1="48.6" y1="-42" x2="48.6" y2="-48.7"/>
		<line class="st29" x1="59.6" y1="-42" x2="59.6" y2="-48.7"/>
		<line class="st29" x1="70.8" y1="-42" x2="70.8" y2="-48.7"/>
		<line class="st29" x1="3" y1="-34.1" x2="75.5" y2="-34.3"/>
		<line class="st29" x1="9.8" y1="-34.4" x2="9.8" y2="-41.1"/>
		<line class="st29" x1="21" y1="-34.4" x2="21" y2="-41.1"/>
		<line class="st29" x1="31.8" y1="-34.4" x2="31.8" y2="-41.1"/>
		<line class="st29" x1="43" y1="-34.4" x2="43" y2="-41.1"/>
		<line class="st29" x1="54" y1="-34.4" x2="54" y2="-41.1"/>
		<line class="st29" x1="65.2" y1="-34.4" x2="65.2" y2="-41.1"/>
		<line class="st29" x1="3.1" y1="-26.5" x2="75.6" y2="-26.6"/>
		<line class="st29" x1="15.4" y1="-26.8" x2="15.4" y2="-33.5"/>
		<line class="st29" x1="26.7" y1="-26.8" x2="26.7" y2="-33.5"/>
		<line class="st29" x1="37.5" y1="-26.8" x2="37.5" y2="-33.5"/>
		<line class="st29" x1="48.7" y1="-26.8" x2="48.7" y2="-33.5"/>
		<line class="st29" x1="59.6" y1="-26.8" x2="59.6" y2="-33.5"/>
		<line class="st29" x1="70.9" y1="-26.8" x2="70.9" y2="-33.5"/>
		<line class="st29" x1="3" y1="-18.9" x2="75.6" y2="-19.1"/>
		<line class="st29" x1="9.9" y1="-19.2" x2="9.9" y2="-25.9"/>
		<line class="st29" x1="21.1" y1="-19.2" x2="21.1" y2="-25.9"/>
		<line class="st29" x1="31.9" y1="-19.2" x2="31.9" y2="-25.9"/>
		<line class="st29" x1="43.1" y1="-19.2" x2="43.1" y2="-25.9"/>
		<line class="st29" x1="54.1" y1="-19.2" x2="54.1" y2="-25.9"/>
		<line class="st29" x1="65.3" y1="-19.2" x2="65.3" y2="-25.9"/>
		<line class="st29" x1="3" y1="-12" x2="75.5" y2="-12.2"/>
		<line class="st29" x1="15.4" y1="-12.3" x2="15.4" y2="-19"/>
		<line class="st29" x1="26.6" y1="-12.3" x2="26.6" y2="-19"/>
		<line class="st29" x1="37.4" y1="-12.3" x2="37.4" y2="-19"/>
		<line class="st29" x1="48.6" y1="-12.3" x2="48.6" y2="-19"/>
		<line class="st29" x1="59.6" y1="-12.3" x2="59.6" y2="-19"/>
		<line class="st29" x1="70.8" y1="-12.3" x2="70.8" y2="-19"/>
		<line class="st29" x1="9.8" y1="-4.7" x2="9.8" y2="-11.4"/>
		<line class="st29" x1="21" y1="-4.7" x2="21" y2="-11.4"/>
		<line class="st29" x1="31.8" y1="-4.7" x2="31.8" y2="-11.4"/>
		<line class="st29" x1="43" y1="-4.7" x2="43" y2="-11.4"/>
		<line class="st29" x1="54" y1="-4.7" x2="54" y2="-11.4"/>
		<line class="st29" x1="65.2" y1="-4.7" x2="65.2" y2="-11.4"/>
		<line class="st29" x1="3.6" y1="-72" x2="3.6" y2="-78.7"/>
		<line class="st29" x1="3.6" y1="-56.9" x2="3.6" y2="-63.6"/>
		<line class="st29" x1="4" y1="-42.1" x2="4" y2="-48.7"/>
		<line class="st29" x1="4.1" y1="-26.9" x2="4.1" y2="-33.6"/>
		<line class="st29" x1="4" y1="-12.4" x2="4" y2="-19.1"/>
	</g>
	<line class="st28" x1="-85.9" y1="152.4" x2="2.5" y2="152.3"/>
	<line class="st28" x1="-85.9" y1="145.1" x2="2.5" y2="145"/>
	<line class="st28" x1="-30.7" y1="152.1" x2="-30.7" y2="145.4"/>
	<line class="st28" x1="-19.5" y1="152.1" x2="-19.5" y2="145.4"/>
	<line class="st28" x1="-8.3" y1="152.1" x2="-8.3" y2="145.4"/>
	<line class="st28" x1="-25.1" y1="159.7" x2="-25.1" y2="153"/>
	<line class="st28" x1="-13.9" y1="159.7" x2="-13.9" y2="153"/>
	<line class="st28" x1="-2.3" y1="159.7" x2="-2.3" y2="153"/>
	<line class="st28" x1="2.5" y1="152.3" x2="75.1" y2="152.1"/>
	<line class="st28" x1="2.5" y1="145" x2="75" y2="144.8"/>
	<line class="st28" x1="14.8" y1="152" x2="14.8" y2="145.3"/>
	<line class="st28" x1="26" y1="152" x2="26" y2="145.3"/>
	<line class="st28" x1="36.8" y1="152" x2="36.8" y2="145.3"/>
	<line class="st28" x1="48.1" y1="152" x2="48.1" y2="145.3"/>
	<line class="st28" x1="59" y1="152" x2="59" y2="145.3"/>
	<line class="st28" x1="70.2" y1="152" x2="70.2" y2="145.3"/>
	<line class="st28" x1="9.2" y1="159.5" x2="9.2" y2="152.8"/>
	<line class="st28" x1="20.4" y1="159.5" x2="20.4" y2="152.8"/>
	<line class="st28" x1="31.3" y1="159.5" x2="31.3" y2="152.8"/>
	<line class="st28" x1="42.5" y1="159.5" x2="42.5" y2="152.8"/>
	<line class="st28" x1="53.4" y1="159.5" x2="53.4" y2="152.8"/>
	<line class="st28" x1="64.7" y1="159.5" x2="64.7" y2="152.8"/>
	<line class="st28" x1="3.5" y1="151.9" x2="3.5" y2="145.2"/>
	<line class="st28" x1="-85.8" y1="77.9" x2="2.7" y2="77.7"/>
	<line class="st28" x1="-85.8" y1="70.6" x2="2.7" y2="70.4"/>
	<line class="st28" x1="-30.6" y1="77.6" x2="-30.6" y2="70.9"/>
	<line class="st28" x1="-19.4" y1="77.6" x2="-19.4" y2="70.9"/>
	<line class="st28" x1="-8.2" y1="77.6" x2="-8.2" y2="70.9"/>
	<line class="st28" x1="-85.6" y1="85.4" x2="2.6" y2="85.3"/>
	<line class="st28" x1="-25" y1="85.1" x2="-25" y2="78.4"/>
	<line class="st28" x1="-13.8" y1="85.1" x2="-13.8" y2="78.4"/>
	<line class="st28" x1="-2.1" y1="85.1" x2="-2.1" y2="78.4"/>
	<line class="st28" x1="-85.7" y1="93.1" x2="2.7" y2="92.9"/>
	<line class="st28" x1="-30.5" y1="92.7" x2="-30.5" y2="86"/>
	<line class="st28" x1="-19.3" y1="92.7" x2="-19.3" y2="86"/>
	<line class="st28" x1="-8.1" y1="92.7" x2="-8.1" y2="86"/>
	<line class="st28" x1="-85.6" y1="100.6" x2="2.7" y2="100.4"/>
	<line class="st28" x1="-24.9" y1="100.3" x2="-24.9" y2="93.6"/>
	<line class="st28" x1="-13.7" y1="100.3" x2="-13.7" y2="93.6"/>
	<line class="st28" x1="-2.1" y1="100.3" x2="-2.1" y2="93.6"/>
	<line class="st28" x1="-85.3" y1="107.9" x2="3.1" y2="107.7"/>
	<line class="st28" x1="-30.1" y1="107.5" x2="-30.1" y2="100.9"/>
	<line class="st28" x1="-18.9" y1="107.5" x2="-18.9" y2="100.9"/>
	<line class="st28" x1="-7.7" y1="107.5" x2="-7.7" y2="100.9"/>
	<line class="st28" x1="-85.2" y1="115.4" x2="3.1" y2="115.2"/>
	<line class="st28" x1="-24.5" y1="115.1" x2="-24.5" y2="108.4"/>
	<line class="st28" x1="-13.3" y1="115.1" x2="-13.3" y2="108.4"/>
	<line class="st28" x1="-1.7" y1="115.1" x2="-1.7" y2="108.4"/>
	<line class="st28" x1="-85.2" y1="123" x2="3.2" y2="122.9"/>
	<line class="st28" x1="-30.1" y1="122.7" x2="-30.1" y2="116"/>
	<line class="st28" x1="-18.8" y1="122.7" x2="-18.8" y2="116"/>
	<line class="st28" x1="-7.6" y1="122.7" x2="-7.6" y2="116"/>
	<line class="st28" x1="-85.1" y1="130.6" x2="3.2" y2="130.4"/>
	<line class="st28" x1="-24.4" y1="130.3" x2="-24.4" y2="123.6"/>
	<line class="st28" x1="-13.2" y1="130.3" x2="-13.2" y2="123.6"/>
	<line class="st28" x1="-1.6" y1="130.3" x2="-1.6" y2="123.6"/>
	<line class="st28" x1="-85.3" y1="137.5" x2="3.1" y2="137.3"/>
	<line class="st28" x1="-30.1" y1="137.2" x2="-30.1" y2="130.5"/>
	<line class="st28" x1="-18.9" y1="137.2" x2="-18.9" y2="130.5"/>
	<line class="st28" x1="-7.7" y1="137.2" x2="-7.7" y2="130.5"/>
	<line class="st28" x1="-24.5" y1="144.8" x2="-24.5" y2="138.1"/>
	<line class="st28" x1="-13.3" y1="144.8" x2="-13.3" y2="138.1"/>
	<line class="st28" x1="-1.7" y1="144.8" x2="-1.7" y2="138.1"/>
	<line class="st28" x1="2.7" y1="77.7" x2="75.2" y2="77.6"/>
	<line class="st28" x1="2.7" y1="70.4" x2="75.2" y2="70.3"/>
	<line class="st28" x1="14.9" y1="77.4" x2="14.9" y2="70.7"/>
	<line class="st28" x1="26.2" y1="77.4" x2="26.2" y2="70.7"/>
	<line class="st28" x1="37" y1="77.4" x2="37" y2="70.7"/>
	<line class="st28" x1="48.2" y1="77.4" x2="48.2" y2="70.7"/>
	<line class="st28" x1="59.2" y1="77.4" x2="59.2" y2="70.7"/>
	<line class="st28" x1="70.4" y1="77.4" x2="70.4" y2="70.7"/>
	<line class="st28" x1="2.6" y1="85.3" x2="75.2" y2="85.1"/>
	<line class="st28" x1="9.4" y1="85" x2="9.4" y2="78.3"/>
	<line class="st28" x1="20.6" y1="85" x2="20.6" y2="78.3"/>
	<line class="st28" x1="31.4" y1="85" x2="31.4" y2="78.3"/>
	<line class="st28" x1="42.6" y1="85" x2="42.6" y2="78.3"/>
	<line class="st28" x1="53.6" y1="85" x2="53.6" y2="78.3"/>
	<line class="st28" x1="64.8" y1="85" x2="64.8" y2="78.3"/>
	<line class="st28" x1="2.7" y1="92.9" x2="75.3" y2="92.7"/>
	<line class="st28" x1="15" y1="92.6" x2="15" y2="85.9"/>
	<line class="st28" x1="26.2" y1="92.6" x2="26.2" y2="85.9"/>
	<line class="st28" x1="37" y1="92.6" x2="37" y2="85.9"/>
	<line class="st28" x1="48.3" y1="92.6" x2="48.3" y2="85.9"/>
	<line class="st28" x1="59.2" y1="92.6" x2="59.2" y2="85.9"/>
	<line class="st28" x1="70.4" y1="92.6" x2="70.4" y2="85.9"/>
	<line class="st28" x1="2.7" y1="100.4" x2="75.2" y2="100.3"/>
	<line class="st28" x1="9.4" y1="100.2" x2="9.4" y2="93.5"/>
	<line class="st28" x1="20.7" y1="100.2" x2="20.7" y2="93.5"/>
	<line class="st28" x1="31.5" y1="100.2" x2="31.5" y2="93.5"/>
	<line class="st28" x1="42.7" y1="100.2" x2="42.7" y2="93.5"/>
	<line class="st28" x1="53.6" y1="100.2" x2="53.6" y2="93.5"/>
	<line class="st28" x1="64.9" y1="100.2" x2="64.9" y2="93.5"/>
	<line class="st28" x1="3" y1="107.7" x2="75.6" y2="107.5"/>
	<line class="st28" x1="15.4" y1="107.4" x2="15.4" y2="100.7"/>
	<line class="st28" x1="26.6" y1="107.4" x2="26.6" y2="100.7"/>
	<line class="st28" x1="37.4" y1="107.4" x2="37.4" y2="100.7"/>
	<line class="st28" x1="48.7" y1="107.4" x2="48.7" y2="100.7"/>
	<line class="st28" x1="59.6" y1="107.4" x2="59.6" y2="100.7"/>
	<line class="st28" x1="70.8" y1="107.4" x2="70.8" y2="100.7"/>
	<line class="st28" x1="3" y1="115.2" x2="75.6" y2="115.1"/>
	<line class="st28" x1="9.8" y1="115" x2="9.8" y2="108.3"/>
	<line class="st28" x1="21.1" y1="115" x2="21.1" y2="108.3"/>
	<line class="st28" x1="31.9" y1="115" x2="31.9" y2="108.3"/>
	<line class="st28" x1="43.1" y1="115" x2="43.1" y2="108.3"/>
	<line class="st28" x1="54" y1="115" x2="54" y2="108.3"/>
	<line class="st28" x1="65.3" y1="115" x2="65.3" y2="108.3"/>
	<line class="st28" x1="3.1" y1="122.9" x2="75.6" y2="122.7"/>
	<line class="st28" x1="15.5" y1="122.6" x2="15.5" y2="115.9"/>
	<line class="st28" x1="26.7" y1="122.6" x2="26.7" y2="115.9"/>
	<line class="st28" x1="37.5" y1="122.6" x2="37.5" y2="115.9"/>
	<line class="st28" x1="48.7" y1="122.6" x2="48.7" y2="115.9"/>
	<line class="st28" x1="59.7" y1="122.6" x2="59.7" y2="115.9"/>
	<line class="st28" x1="70.9" y1="122.6" x2="70.9" y2="115.9"/>
	<line class="st28" x1="3.1" y1="130.4" x2="75.6" y2="130.3"/>
	<line class="st28" x1="9.9" y1="130.1" x2="9.9" y2="123.5"/>
	<line class="st28" x1="21.1" y1="130.1" x2="21.1" y2="123.5"/>
	<line class="st28" x1="31.9" y1="130.1" x2="31.9" y2="123.5"/>
	<line class="st28" x1="43.2" y1="130.1" x2="43.2" y2="123.5"/>
	<line class="st28" x1="54.1" y1="130.1" x2="54.1" y2="123.5"/>
	<line class="st28" x1="65.3" y1="130.1" x2="65.3" y2="123.5"/>
	<line class="st28" x1="3" y1="137.3" x2="75.6" y2="137.2"/>
	<line class="st28" x1="15.4" y1="137.1" x2="15.4" y2="130.4"/>
	<line class="st28" x1="26.6" y1="137.1" x2="26.6" y2="130.4"/>
	<line class="st28" x1="37.4" y1="137.1" x2="37.4" y2="130.4"/>
	<line class="st28" x1="48.7" y1="137.1" x2="48.7" y2="130.4"/>
	<line class="st28" x1="59.6" y1="137.1" x2="59.6" y2="130.4"/>
	<line class="st28" x1="70.8" y1="137.1" x2="70.8" y2="130.4"/>
	<line class="st28" x1="9.8" y1="144.6" x2="9.8" y2="137.9"/>
	<line class="st28" x1="21.1" y1="144.6" x2="21.1" y2="137.9"/>
	<line class="st28" x1="31.9" y1="144.6" x2="31.9" y2="137.9"/>
	<line class="st28" x1="43.1" y1="144.6" x2="43.1" y2="137.9"/>
	<line class="st28" x1="54" y1="144.6" x2="54" y2="137.9"/>
	<line class="st28" x1="65.3" y1="144.6" x2="65.3" y2="137.9"/>
	<line class="st28" x1="3.6" y1="77.3" x2="3.6" y2="70.6"/>
	<line class="st28" x1="3.7" y1="92.5" x2="3.7" y2="85.8"/>
	<line class="st28" x1="4.1" y1="107.3" x2="4.1" y2="100.6"/>
	<line class="st28" x1="4.2" y1="122.5" x2="4.2" y2="115.8"/>
	<line class="st28" x1="4.1" y1="137" x2="4.1" y2="130.3"/>
	<path class="st30" d="M33.9,89.1V54.7c0-1.9,1.4-2.7,3.2-2.7h23c1.9,0,3.9,0.8,3.9,2.7v34.5"/>
	<line class="st31" x1="49.2" y1="52" x2="49.2" y2="89.1"/>
	<line class="st31" x1="33.9" y1="64.2" x2="64.1" y2="64.2"/>
	<line class="st31" x1="33.9" y1="76.5" x2="64.1" y2="76.5"/>
	<path class="st32" d="M-32.2,160.9v-48.1c0-2.2,1.5-4.3,3.6-4.3h45.8c2.2,0,3.8,2.1,3.8,4.3v48.1"/>
	<path class="st33" d="M6.2,136h-24.5c-5.2,0-9.5-4.3-9.5-9.5v-4.1c0-5.2,4.3-9.5,9.5-9.5H6.2c5.2,0,9.5,4.3,9.5,9.5v4.1
		C15.7,131.7,11.5,136,6.2,136z"/>
	<line class="st34" x1="-6.1" y1="113.2" x2="-5.7" y2="160.5"/>
	<circle class="st35" cx="-0.7" cy="141.9" r="1.8"/>
	<circle class="st28" cx="-10.8" cy="141.9" r="1.8"/>
	<path class="st30" d="M57.5,153.8H38.3c-3.2,0-5.8-2.6-5.8-5.8v-32.6c0-3.2,2.6-5.8,5.8-5.8h19.2c3.2,0,5.8,2.6,5.8,5.8V148
		C63.3,151.2,60.7,153.8,57.5,153.8z"/>
	<line class="st36" x1="58.1" y1="139.7" x2="46.5" y2="147.9"/>
	<line class="st36" x1="59.2" y1="145.3" x2="55.7" y2="147.9"/>
	<path class="st30" d="M-20.7,89.1V54.7c0-1.9,1.1-2.7,2.9-2.7h23c1.9,0,4.2,0.8,4.2,2.7v34.5"/>
	<line class="st31" x1="-5.8" y1="52" x2="-5.8" y2="89.1"/>
	<line class="st31" x1="-20.7" y1="64.2" x2="9.4" y2="64.2"/>
	<line class="st31" x1="-20.7" y1="76.5" x2="9.4" y2="76.5"/>
	<path class="st35" d="M33.9,89.4V54.9c0-1.9,1.4-2.7,3.2-2.7h23c1.9,0,3.9,0.8,3.9,2.7v34.5"/>
	<path class="st35" d="M-20.7,89.4V54.9c0-1.9,1.1-2.7,2.9-2.7h23c1.9,0,4.2,0.8,4.2,2.7v34.5"/>
	<rect x="-87.3" y="-79.1" class="st37" width="162.8" height="240.2"/>
	<path class="st38" d="M64.2,91.8H33.7c-0.1,0-0.1-0.1-0.2-0.1c-1.4-0.2-1.3-3.4,0.1-3.4c0,0,0.1-0.2,0.1-0.2h30.6
		c0,0,0.1,0.1,0.1,0.1c1.4,0,1.5,3.2,0.1,3.4C64.4,91.6,64.3,91.8,64.2,91.8z"/>
	<path class="st38" d="M9.2,91.8h-30.6c-0.1,0-0.1-0.1-0.2-0.1c-1.4-0.2-1.3-3.4,0.1-3.4c0,0,0.1-0.2,0.1-0.2H9.2
		c0,0,0.1,0.1,0.1,0.1c1.4,0,1.5,3.2,0.1,3.4C9.4,91.6,9.3,91.8,9.2,91.8z"/>
	<path class="st30" d="M34.7,30.6V-3.9c0-1.9,1.4-2.7,3.2-2.7h23c1.9,0,3.9,0.8,3.9,2.7v34.5"/>
	<line class="st31" x1="49.9" y1="-6.6" x2="49.9" y2="30.6"/>
	<line class="st31" x1="34.7" y1="5.7" x2="64.8" y2="5.7"/>
	<line class="st31" x1="34.7" y1="18" x2="64.8" y2="18"/>
	<path class="st38" d="M65,33.2H34.4c-0.1,0-0.1-0.1-0.2-0.1c-1.4-0.2-1.3-3.4,0.1-3.4c0,0,0.1-0.2,0.1-0.2H65c0,0,0.1,0.1,0.1,0.1
		c1.4,0,1.5,3.2,0.1,3.4C65.1,33,65,33.2,65,33.2z"/>
</g>
<circle class="st39" cx="108" cy="106.2" r="104.9"/>
<path class="st40" d="M97.9,53.5C97.9,53.5,97.9,53.5,97.9,53.5c-1.1,1.7-2.2,3.4-3.3,5.2c0.7,0,1.4,0,2.1,0.1
	c0,1.1-0.1,2.1-0.1,3.1c0,0,0,0,0,0c1.1-1.7,2.2-3.4,3.3-5.2c-0.7,0-1.4,0-2.1-0.1C97.9,55.6,97.9,54.6,97.9,53.5z"/>
<path class="st40" d="M171.2,49.3C171.2,49.3,171.2,49.3,171.2,49.3c-1.1,1.7-2.2,3.4-3.3,5.2c0.7,0,1.4,0,2.1,0.1
	c0,1.1-0.1,2.1-0.1,3.1c0,0,0,0,0,0c1.1-1.7,2.2-3.4,3.3-5.2c-0.7,0-1.4,0-2.1-0.1C171.2,51.4,171.2,50.4,171.2,49.3z"/>
<path class="st41" d="M148.2,12.2C148.2,12.2,148.2,12.2,148.2,12.2c-1.1,1.7-2.2,3.4-3.3,5.2c0.7,0,1.4,0,2.1,0.1
	c0,1.1-0.1,2.1-0.1,3.1c0,0,0,0,0,0c1.1-1.7,2.2-3.4,3.3-5.2c-0.7,0-1.4,0-2.1-0.1C148.2,14.3,148.2,13.3,148.2,12.2z"/>
<path class="st41" d="M93.6,79.7C93.6,79.7,93.6,79.7,93.6,79.7c-1.1,1.7-2.2,3.4-3.3,5.2c0.7,0,1.4,0,2.1,0.1
	c0,1.1-0.1,2.1-0.1,3.1c0,0,0,0,0,0c1.1-1.7,2.2-3.4,3.3-5.2c-0.7,0-1.4,0-2.1-0.1C93.5,81.7,93.6,80.7,93.6,79.7z"/>
<path class="st41" d="M150.9,78.5C150.9,78.5,150.9,78.5,150.9,78.5c-1.1,1.7-2.2,3.4-3.3,5.2c0.7,0,1.4,0,2.1,0.1
	c0,1.1-0.1,2.1-0.1,3.1c0,0,0,0,0,0c1.1-1.7,2.2-3.4,3.3-5.2c-0.7,0-1.4,0-2.1-0.1C150.9,80.5,150.9,79.5,150.9,78.5z"/>
<path class="st41" d="M119.1,32.9C119.1,32.9,119.1,32.9,119.1,32.9c-1.1,1.7-2.2,3.4-3.3,5.2c0.7,0,1.4,0,2.1,0.1
	c0,1.1-0.1,2.1-0.1,3.1c0,0,0,0,0,0c1.1-1.7,2.2-3.4,3.3-5.2c-0.7,0-1.4,0-2.1-0.1C119,35,119.1,33.9,119.1,32.9z"/>
<circle class="st40" cx="121.1" cy="70.1" r="1.4"/>
<circle class="st41" cx="94.6" cy="32.9" r="1.4"/>
<circle class="st41" cx="139.1" cy="53.1" r="1.4"/>
<path class="st41" d="M106,8.1C106,8.1,106,8,106,8.1c-1.1,1.7-2.2,3.4-3.3,5.2c0.7,0,1.4,0,2.1,0.1c0,1.1-0.1,2.1-0.1,3.1
	c0,0,0,0,0,0c1.1-1.7,2.2-3.4,3.3-5.2c-0.7,0-1.4,0-2.1-0.1C105.9,10.1,106,9.1,106,8.1z"/>
</svg>
