<?xml version="1.0" encoding="utf-8"?>
<!-- Generator: Adobe Illustrator 21.0.2, SVG Export Plug-In . SVG Version: 6.00 Build 0)  -->
<svg version="1.1" id="Layer_1" xmlns="http://www.w3.org/2000/svg" xmlns:xlink="http://www.w3.org/1999/xlink" x="0px" y="0px"
	 viewBox="0 0 220 233" style="enable-background:new 0 0 220 233;" xml:space="preserve">
<style type="text/css">
	.st0{clip-path:url(#SVGID_2_);fill:#F8F8F8;}
	.st1{clip-path:url(#SVGID_2_);fill:none;stroke:#FFFFFF;stroke-width:1.5;stroke-linecap:round;stroke-miterlimit:10;}
	.st2{clip-path:url(#SVGID_2_);}
	.st3{fill:#CCCCCC;stroke:#E6E6E6;stroke-width:1.5;stroke-linecap:round;stroke-miterlimit:10;}
	.st4{clip-path:url(#SVGID_2_);fill:none;stroke:#333333;stroke-width:1.5;stroke-linecap:round;}
	.st5{clip-path:url(#SVGID_2_);fill:#B3B3B3;stroke:#333333;stroke-width:1.5;stroke-linecap:round;stroke-miterlimit:10;}
	.st6{clip-path:url(#SVGID_2_);fill:none;stroke:#8DC043;stroke-width:1.5;stroke-linecap:round;}
	.st7{clip-path:url(#SVGID_2_);fill:#F8F8F8;stroke:#333333;stroke-width:1.5;stroke-miterlimit:10;}
	.st8{opacity:0.76;clip-path:url(#SVGID_2_);}
	.st9{fill:#E6E6E6;stroke:#4D4D4D;stroke-linecap:round;stroke-miterlimit:10;}
	.st10{fill:#8CC63F;stroke:#4D4D4D;stroke-linecap:round;stroke-miterlimit:10;}
	.st11{fill:#FFFFFF;stroke:#FFFFFF;stroke-miterlimit:10;}
	.st12{fill:none;stroke:#FFFFFF;stroke-linecap:round;stroke-miterlimit:10;}
	.st13{fill:#FFFFFF;}
	.st14{clip-path:url(#SVGID_2_);fill-rule:evenodd;clip-rule:evenodd;fill:#262529;stroke:#333333;stroke-width:1.5;}
	
		.st15{clip-path:url(#SVGID_2_);fill-rule:evenodd;clip-rule:evenodd;fill:#E6E6E6;stroke:#333333;stroke-width:1.5;stroke-linecap:round;stroke-linejoin:round;}
	
		.st16{clip-path:url(#SVGID_2_);fill-rule:evenodd;clip-rule:evenodd;fill:#8CC63F;stroke:#333333;stroke-width:1.5;stroke-linecap:round;stroke-linejoin:round;}
	
		.st17{clip-path:url(#SVGID_2_);fill-rule:evenodd;clip-rule:evenodd;fill:none;stroke:#333333;stroke-width:1.5;stroke-linecap:round;stroke-linejoin:round;}
	.st18{clip-path:url(#SVGID_2_);fill:none;stroke:#333333;stroke-width:1.5;stroke-linecap:round;stroke-linejoin:round;}
	
		.st19{clip-path:url(#SVGID_2_);fill:#8FC043;stroke:#333333;stroke-width:1.5;stroke-linecap:round;stroke-linejoin:round;stroke-miterlimit:10;}
	
		.st20{clip-path:url(#SVGID_2_);fill:#E6E6E6;stroke:#333333;stroke-width:1.5;stroke-linecap:round;stroke-linejoin:round;stroke-miterlimit:10;}
	
		.st21{clip-path:url(#SVGID_2_);fill:none;stroke:#333333;stroke-width:1.5;stroke-linecap:round;stroke-linejoin:round;stroke-miterlimit:10;}
	.st22{clip-path:url(#SVGID_2_);fill:#F8F8F8;stroke:#333333;stroke-width:1.5;stroke-linecap:round;stroke-miterlimit:10;}
	.st23{clip-path:url(#SVGID_2_);fill:#E6E6E6;stroke:#333333;stroke-width:1.5;stroke-linecap:round;stroke-miterlimit:10;}
	.st24{clip-path:url(#SVGID_2_);fill:#FFFFFF;}
	.st25{clip-path:url(#SVGID_2_);fill:none;stroke:#4D4D4D;stroke-width:1.5;stroke-linecap:round;stroke-miterlimit:10;}
	.st26{fill:none;stroke:#FFFFFF;stroke-width:1.5;stroke-linecap:round;stroke-linejoin:round;}
	.st27{clip-path:url(#SVGID_2_);fill:#E6E6E6;}
	.st28{fill:#4E4D4D;}
	.st29{fill:#E6E6E6;}
	.st30{clip-path:url(#SVGID_4_);fill:#F8F8F8;}
	.st31{clip-path:url(#SVGID_4_);fill:none;stroke:#FFFFFF;stroke-width:1.5;stroke-linecap:round;stroke-miterlimit:10;}
	.st32{clip-path:url(#SVGID_4_);}
	.st33{clip-path:url(#SVGID_4_);fill:none;stroke:#333333;stroke-width:1.5;stroke-linecap:round;}
	.st34{clip-path:url(#SVGID_4_);fill:#B3B3B3;stroke:#333333;stroke-width:1.5;stroke-linecap:round;stroke-miterlimit:10;}
	.st35{clip-path:url(#SVGID_4_);fill:none;stroke:#8DC043;stroke-width:1.5;stroke-linecap:round;}
	.st36{clip-path:url(#SVGID_4_);fill:#F8F8F8;stroke:#333333;stroke-width:1.5;stroke-miterlimit:10;}
	.st37{opacity:0.76;clip-path:url(#SVGID_4_);}
	.st38{clip-path:url(#SVGID_4_);fill-rule:evenodd;clip-rule:evenodd;fill:#262529;stroke:#333333;stroke-width:1.5;}
	
		.st39{clip-path:url(#SVGID_4_);fill-rule:evenodd;clip-rule:evenodd;fill:#E6E6E6;stroke:#333333;stroke-width:1.5;stroke-linecap:round;stroke-linejoin:round;}
	
		.st40{clip-path:url(#SVGID_4_);fill-rule:evenodd;clip-rule:evenodd;fill:#8CC63F;stroke:#333333;stroke-width:1.5;stroke-linecap:round;stroke-linejoin:round;}
	
		.st41{clip-path:url(#SVGID_4_);fill-rule:evenodd;clip-rule:evenodd;fill:none;stroke:#333333;stroke-width:1.5;stroke-linecap:round;stroke-linejoin:round;}
	.st42{clip-path:url(#SVGID_4_);fill:none;stroke:#333333;stroke-width:1.5;stroke-linecap:round;stroke-linejoin:round;}
	
		.st43{clip-path:url(#SVGID_4_);fill:#8FC043;stroke:#333333;stroke-width:1.5;stroke-linecap:round;stroke-linejoin:round;stroke-miterlimit:10;}
	
		.st44{clip-path:url(#SVGID_4_);fill:#E6E6E6;stroke:#333333;stroke-width:1.5;stroke-linecap:round;stroke-linejoin:round;stroke-miterlimit:10;}
	
		.st45{clip-path:url(#SVGID_4_);fill:none;stroke:#333333;stroke-width:1.5;stroke-linecap:round;stroke-linejoin:round;stroke-miterlimit:10;}
	.st46{clip-path:url(#SVGID_4_);fill:#F8F8F8;stroke:#333333;stroke-width:1.5;stroke-linecap:round;stroke-miterlimit:10;}
	.st47{clip-path:url(#SVGID_4_);fill:#E6E6E6;stroke:#333333;stroke-width:1.5;stroke-linecap:round;stroke-miterlimit:10;}
	.st48{clip-path:url(#SVGID_4_);fill:#FFFFFF;}
	.st49{clip-path:url(#SVGID_4_);fill:none;stroke:#4D4D4D;stroke-width:1.5;stroke-linecap:round;stroke-miterlimit:10;}
	.st50{clip-path:url(#SVGID_4_);fill:#E6E6E6;}
</style>
<g>
	<defs>
		<circle id="SVGID_1_" cx="466.8" cy="778.3" r="108.7"/>
	</defs>
	<use xlink:href="#SVGID_1_"  style="overflow:visible;opacity:0.74;fill:#F2F2F2;"/>
	<clipPath id="SVGID_2_">
		<use xlink:href="#SVGID_1_"  style="overflow:visible;opacity:0.74;"/>
	</clipPath>
	<rect x="279.6" y="823.5" class="st0" width="357.7" height="82.6"/>
	<line class="st1" x1="339.5" y1="833.4" x2="322.6" y2="850.3"/>
	<line class="st1" x1="377.2" y1="833.4" x2="324.2" y2="886.4"/>
	<line class="st1" x1="415.9" y1="833.4" x2="320.4" y2="928.9"/>
	<line class="st1" x1="454" y1="833.4" x2="358.5" y2="928.9"/>
	<line class="st1" x1="493.8" y1="831.2" x2="398.3" y2="926.7"/>
	<line class="st1" x1="532" y1="831.2" x2="436.5" y2="926.7"/>
	<line class="st1" x1="607.4" y1="907.4" x2="590.5" y2="924.3"/>
	<line class="st1" x1="606.1" y1="871.9" x2="553.1" y2="924.9"/>
	<line class="st1" x1="570.7" y1="833.4" x2="475.2" y2="928.9"/>
	<line class="st1" x1="608.8" y1="833.4" x2="513.3" y2="928.9"/>
	<g class="st2">
		<g>
			<line class="st3" x1="252" y1="742.8" x2="372.5" y2="742.6"/>
			<line class="st3" x1="252" y1="734" x2="372.5" y2="733.8"/>
			<line class="st3" x1="266.9" y1="742.4" x2="266.9" y2="734.4"/>
			<line class="st3" x1="282.2" y1="742.4" x2="282.2" y2="734.4"/>
			<line class="st3" x1="296.9" y1="742.4" x2="296.9" y2="734.4"/>
			<line class="st3" x1="312.2" y1="742.4" x2="312.2" y2="734.4"/>
			<line class="st3" x1="327.1" y1="742.4" x2="327.1" y2="734.4"/>
			<line class="st3" x1="342.4" y1="742.4" x2="342.4" y2="734.4"/>
			<line class="st3" x1="357.7" y1="742.4" x2="357.7" y2="734.4"/>
			<line class="st3" x1="252.1" y1="751.9" x2="372.4" y2="751.7"/>
			<line class="st3" x1="259.3" y1="751.5" x2="259.3" y2="743.5"/>
			<line class="st3" x1="274.6" y1="751.5" x2="274.6" y2="743.5"/>
			<line class="st3" x1="289.3" y1="751.5" x2="289.3" y2="743.5"/>
			<line class="st3" x1="304.6" y1="751.5" x2="304.6" y2="743.5"/>
			<line class="st3" x1="319.5" y1="751.5" x2="319.5" y2="743.5"/>
			<line class="st3" x1="334.8" y1="751.5" x2="334.8" y2="743.5"/>
			<line class="st3" x1="350.1" y1="751.5" x2="350.1" y2="743.5"/>
			<line class="st3" x1="365.9" y1="751.5" x2="365.9" y2="743.5"/>
			<line class="st3" x1="252.1" y1="761.1" x2="372.6" y2="760.9"/>
			<line class="st3" x1="267" y1="760.7" x2="267" y2="752.7"/>
			<line class="st3" x1="282.3" y1="760.7" x2="282.3" y2="752.7"/>
			<line class="st3" x1="297" y1="760.7" x2="297" y2="752.7"/>
			<line class="st3" x1="312.3" y1="760.7" x2="312.3" y2="752.7"/>
			<line class="st3" x1="327.2" y1="760.7" x2="327.2" y2="752.7"/>
			<line class="st3" x1="342.5" y1="760.7" x2="342.5" y2="752.7"/>
			<line class="st3" x1="357.8" y1="760.7" x2="357.8" y2="752.7"/>
			<line class="st3" x1="252.2" y1="770.2" x2="372.5" y2="770"/>
			<line class="st3" x1="259.4" y1="769.8" x2="259.4" y2="761.8"/>
			<line class="st3" x1="274.7" y1="769.8" x2="274.7" y2="761.8"/>
			<line class="st3" x1="289.4" y1="769.8" x2="289.4" y2="761.8"/>
			<line class="st3" x1="304.7" y1="769.8" x2="304.7" y2="761.8"/>
			<line class="st3" x1="319.6" y1="769.8" x2="319.6" y2="761.8"/>
			<line class="st3" x1="334.9" y1="769.8" x2="334.9" y2="761.8"/>
			<line class="st3" x1="350.2" y1="769.8" x2="350.2" y2="761.8"/>
			<line class="st3" x1="366" y1="769.8" x2="366" y2="761.8"/>
			<line class="st3" x1="252.6" y1="779" x2="373.1" y2="778.7"/>
			<line class="st3" x1="267.5" y1="778.6" x2="267.5" y2="770.5"/>
			<line class="st3" x1="282.8" y1="778.6" x2="282.8" y2="770.5"/>
			<line class="st3" x1="297.6" y1="778.6" x2="297.6" y2="770.5"/>
			<line class="st3" x1="312.9" y1="778.6" x2="312.9" y2="770.5"/>
			<line class="st3" x1="327.8" y1="778.6" x2="327.8" y2="770.5"/>
			<line class="st3" x1="343.1" y1="778.6" x2="343.1" y2="770.5"/>
			<line class="st3" x1="358.3" y1="778.6" x2="358.3" y2="770.5"/>
			<line class="st3" x1="252.8" y1="788.1" x2="373.1" y2="787.9"/>
			<line class="st3" x1="259.9" y1="787.7" x2="259.9" y2="779.6"/>
			<line class="st3" x1="275.2" y1="787.7" x2="275.2" y2="779.6"/>
			<line class="st3" x1="290" y1="787.7" x2="290" y2="779.6"/>
			<line class="st3" x1="305.3" y1="787.7" x2="305.3" y2="779.6"/>
			<line class="st3" x1="320.2" y1="787.7" x2="320.2" y2="779.6"/>
			<line class="st3" x1="335.5" y1="787.7" x2="335.5" y2="779.6"/>
			<line class="st3" x1="350.7" y1="787.7" x2="350.7" y2="779.6"/>
			<line class="st3" x1="366.6" y1="787.7" x2="366.6" y2="779.6"/>
			<line class="st3" x1="252.7" y1="797.3" x2="373.2" y2="797"/>
			<line class="st3" x1="267.6" y1="796.9" x2="267.6" y2="788.8"/>
			<line class="st3" x1="282.9" y1="796.9" x2="282.9" y2="788.8"/>
			<line class="st3" x1="297.7" y1="796.9" x2="297.7" y2="788.8"/>
			<line class="st3" x1="313" y1="796.9" x2="313" y2="788.8"/>
			<line class="st3" x1="327.9" y1="796.9" x2="327.9" y2="788.8"/>
			<line class="st3" x1="343.2" y1="796.9" x2="343.2" y2="788.8"/>
			<line class="st3" x1="358.4" y1="796.9" x2="358.4" y2="788.8"/>
			<line class="st3" x1="252.9" y1="806.4" x2="373.2" y2="806.2"/>
			<line class="st3" x1="260" y1="806" x2="260" y2="797.9"/>
			<line class="st3" x1="275.3" y1="806" x2="275.3" y2="797.9"/>
			<line class="st3" x1="290.1" y1="806" x2="290.1" y2="797.9"/>
			<line class="st3" x1="305.3" y1="806" x2="305.3" y2="797.9"/>
			<line class="st3" x1="320.3" y1="806" x2="320.3" y2="797.9"/>
			<line class="st3" x1="335.6" y1="806" x2="335.6" y2="797.9"/>
			<line class="st3" x1="350.8" y1="806" x2="350.8" y2="797.9"/>
			<line class="st3" x1="366.7" y1="806" x2="366.7" y2="797.9"/>
			<line class="st3" x1="252.6" y1="814.7" x2="373.1" y2="814.5"/>
			<line class="st3" x1="267.5" y1="814.3" x2="267.5" y2="806.3"/>
			<line class="st3" x1="282.8" y1="814.3" x2="282.8" y2="806.3"/>
			<line class="st3" x1="297.6" y1="814.3" x2="297.6" y2="806.3"/>
			<line class="st3" x1="312.9" y1="814.3" x2="312.9" y2="806.3"/>
			<line class="st3" x1="327.8" y1="814.3" x2="327.8" y2="806.3"/>
			<line class="st3" x1="343.1" y1="814.3" x2="343.1" y2="806.3"/>
			<line class="st3" x1="358.3" y1="814.3" x2="358.3" y2="806.3"/>
			<line class="st3" x1="252.8" y1="823.8" x2="373.1" y2="823.6"/>
			<line class="st3" x1="259.9" y1="823.5" x2="259.9" y2="815.4"/>
			<line class="st3" x1="275.2" y1="823.5" x2="275.2" y2="815.4"/>
			<line class="st3" x1="290" y1="823.5" x2="290" y2="815.4"/>
			<line class="st3" x1="305.3" y1="823.5" x2="305.3" y2="815.4"/>
			<line class="st3" x1="320.2" y1="823.5" x2="320.2" y2="815.4"/>
			<line class="st3" x1="335.5" y1="823.5" x2="335.5" y2="815.4"/>
			<line class="st3" x1="350.7" y1="823.5" x2="350.7" y2="815.4"/>
			<line class="st3" x1="366.6" y1="823.5" x2="366.6" y2="815.4"/>
			<line class="st3" x1="372.5" y1="742.6" x2="471.3" y2="742.4"/>
			<line class="st3" x1="372.5" y1="733.8" x2="471.3" y2="733.6"/>
			<line class="st3" x1="389.2" y1="742.2" x2="389.2" y2="734.2"/>
			<line class="st3" x1="404.5" y1="742.2" x2="404.5" y2="734.2"/>
			<line class="st3" x1="419.2" y1="742.2" x2="419.2" y2="734.2"/>
			<line class="st3" x1="434.5" y1="742.2" x2="434.5" y2="734.2"/>
			<line class="st3" x1="449.4" y1="742.2" x2="449.4" y2="734.2"/>
			<line class="st3" x1="464.7" y1="742.2" x2="464.7" y2="734.2"/>
			<line class="st3" x1="372.5" y1="751.7" x2="471.3" y2="751.5"/>
			<line class="st3" x1="381.6" y1="751.4" x2="381.6" y2="743.3"/>
			<line class="st3" x1="396.9" y1="751.4" x2="396.9" y2="743.3"/>
			<line class="st3" x1="411.6" y1="751.4" x2="411.6" y2="743.3"/>
			<line class="st3" x1="426.9" y1="751.4" x2="426.9" y2="743.3"/>
			<line class="st3" x1="441.8" y1="751.4" x2="441.8" y2="743.3"/>
			<line class="st3" x1="457.1" y1="751.4" x2="457.1" y2="743.3"/>
			<line class="st3" x1="372.6" y1="760.9" x2="471.4" y2="760.7"/>
			<line class="st3" x1="389.3" y1="760.5" x2="389.3" y2="752.5"/>
			<line class="st3" x1="404.6" y1="760.5" x2="404.6" y2="752.5"/>
			<line class="st3" x1="419.3" y1="760.5" x2="419.3" y2="752.5"/>
			<line class="st3" x1="434.6" y1="760.5" x2="434.6" y2="752.5"/>
			<line class="st3" x1="449.5" y1="760.5" x2="449.5" y2="752.5"/>
			<line class="st3" x1="464.8" y1="760.5" x2="464.8" y2="752.5"/>
			<line class="st3" x1="372.5" y1="770" x2="471.4" y2="769.8"/>
			<line class="st3" x1="381.7" y1="769.7" x2="381.7" y2="761.6"/>
			<line class="st3" x1="397" y1="769.7" x2="397" y2="761.6"/>
			<line class="st3" x1="411.7" y1="769.7" x2="411.7" y2="761.6"/>
			<line class="st3" x1="427" y1="769.7" x2="427" y2="761.6"/>
			<line class="st3" x1="441.9" y1="769.7" x2="441.9" y2="761.6"/>
			<line class="st3" x1="457.2" y1="769.7" x2="457.2" y2="761.6"/>
			<line class="st3" x1="373" y1="778.7" x2="471.8" y2="778.6"/>
			<line class="st3" x1="389.8" y1="778.4" x2="389.8" y2="770.3"/>
			<line class="st3" x1="405.1" y1="778.4" x2="405.1" y2="770.3"/>
			<line class="st3" x1="419.9" y1="778.4" x2="419.9" y2="770.3"/>
			<line class="st3" x1="435.2" y1="778.4" x2="435.2" y2="770.3"/>
			<line class="st3" x1="450.1" y1="778.4" x2="450.1" y2="770.3"/>
			<line class="st3" x1="465.4" y1="778.4" x2="465.4" y2="770.3"/>
			<line class="st3" x1="373" y1="787.9" x2="471.8" y2="787.7"/>
			<line class="st3" x1="382.2" y1="787.5" x2="382.2" y2="779.5"/>
			<line class="st3" x1="397.5" y1="787.5" x2="397.5" y2="779.5"/>
			<line class="st3" x1="412.3" y1="787.5" x2="412.3" y2="779.5"/>
			<line class="st3" x1="427.6" y1="787.5" x2="427.6" y2="779.5"/>
			<line class="st3" x1="442.5" y1="787.5" x2="442.5" y2="779.5"/>
			<line class="st3" x1="457.8" y1="787.5" x2="457.8" y2="779.5"/>
			<line class="st3" x1="373.1" y1="797" x2="471.9" y2="796.9"/>
			<line class="st3" x1="389.9" y1="796.7" x2="389.9" y2="788.6"/>
			<line class="st3" x1="405.2" y1="796.7" x2="405.2" y2="788.6"/>
			<line class="st3" x1="420" y1="796.7" x2="420" y2="788.6"/>
			<line class="st3" x1="435.3" y1="796.7" x2="435.3" y2="788.6"/>
			<line class="st3" x1="450.2" y1="796.7" x2="450.2" y2="788.6"/>
			<line class="st3" x1="465.5" y1="796.7" x2="465.5" y2="788.6"/>
			<line class="st3" x1="373" y1="806.2" x2="471.9" y2="806"/>
			<line class="st3" x1="382.3" y1="805.8" x2="382.3" y2="797.8"/>
			<line class="st3" x1="397.6" y1="805.8" x2="397.6" y2="797.8"/>
			<line class="st3" x1="412.4" y1="805.8" x2="412.4" y2="797.8"/>
			<line class="st3" x1="427.6" y1="805.8" x2="427.6" y2="797.8"/>
			<line class="st3" x1="442.6" y1="805.8" x2="442.6" y2="797.8"/>
			<line class="st3" x1="457.9" y1="805.8" x2="457.9" y2="797.8"/>
			<line class="st3" x1="373" y1="814.5" x2="471.8" y2="814.3"/>
			<line class="st3" x1="389.8" y1="814.1" x2="389.8" y2="806.1"/>
			<line class="st3" x1="405.1" y1="814.1" x2="405.1" y2="806.1"/>
			<line class="st3" x1="419.9" y1="814.1" x2="419.9" y2="806.1"/>
			<line class="st3" x1="435.2" y1="814.1" x2="435.2" y2="806.1"/>
			<line class="st3" x1="450.1" y1="814.1" x2="450.1" y2="806.1"/>
			<line class="st3" x1="465.4" y1="814.1" x2="465.4" y2="806.1"/>
			<line class="st3" x1="373" y1="823.6" x2="471.8" y2="823.4"/>
			<line class="st3" x1="382.2" y1="823.3" x2="382.2" y2="815.2"/>
			<line class="st3" x1="397.5" y1="823.3" x2="397.5" y2="815.2"/>
			<line class="st3" x1="412.3" y1="823.3" x2="412.3" y2="815.2"/>
			<line class="st3" x1="427.6" y1="823.3" x2="427.6" y2="815.2"/>
			<line class="st3" x1="442.5" y1="823.3" x2="442.5" y2="815.2"/>
			<line class="st3" x1="457.8" y1="823.3" x2="457.8" y2="815.2"/>
			<line class="st3" x1="373.8" y1="742.1" x2="373.8" y2="734.1"/>
			<line class="st3" x1="373.9" y1="760.4" x2="373.9" y2="752.4"/>
			<line class="st3" x1="374.4" y1="778.3" x2="374.4" y2="770.2"/>
			<line class="st3" x1="374.5" y1="796.6" x2="374.5" y2="788.5"/>
			<line class="st3" x1="374.4" y1="814" x2="374.4" y2="806"/>
		</g>
		<line class="st3" x1="252.2" y1="652.9" x2="372.7" y2="652.7"/>
		<line class="st3" x1="252.1" y1="644.1" x2="372.7" y2="643.9"/>
		<line class="st3" x1="267.1" y1="652.5" x2="267.1" y2="644.5"/>
		<line class="st3" x1="282.4" y1="652.5" x2="282.4" y2="644.5"/>
		<line class="st3" x1="297.1" y1="652.5" x2="297.1" y2="644.5"/>
		<line class="st3" x1="312.4" y1="652.5" x2="312.4" y2="644.5"/>
		<line class="st3" x1="327.3" y1="652.5" x2="327.3" y2="644.5"/>
		<line class="st3" x1="342.6" y1="652.5" x2="342.6" y2="644.5"/>
		<line class="st3" x1="357.9" y1="652.5" x2="357.9" y2="644.5"/>
		<line class="st3" x1="252.3" y1="662" x2="372.6" y2="661.8"/>
		<line class="st3" x1="259.5" y1="661.7" x2="259.5" y2="653.6"/>
		<line class="st3" x1="274.8" y1="661.7" x2="274.8" y2="653.6"/>
		<line class="st3" x1="289.5" y1="661.7" x2="289.5" y2="653.6"/>
		<line class="st3" x1="304.8" y1="661.7" x2="304.8" y2="653.6"/>
		<line class="st3" x1="319.7" y1="661.7" x2="319.7" y2="653.6"/>
		<line class="st3" x1="335" y1="661.7" x2="335" y2="653.6"/>
		<line class="st3" x1="350.3" y1="661.7" x2="350.3" y2="653.6"/>
		<line class="st3" x1="366.1" y1="661.7" x2="366.1" y2="653.6"/>
		<line class="st3" x1="252.3" y1="671.2" x2="372.8" y2="671"/>
		<line class="st3" x1="267.2" y1="670.8" x2="267.2" y2="662.8"/>
		<line class="st3" x1="282.5" y1="670.8" x2="282.5" y2="662.8"/>
		<line class="st3" x1="297.2" y1="670.8" x2="297.2" y2="662.8"/>
		<line class="st3" x1="312.5" y1="670.8" x2="312.5" y2="662.8"/>
		<line class="st3" x1="327.4" y1="670.8" x2="327.4" y2="662.8"/>
		<line class="st3" x1="342.7" y1="670.8" x2="342.7" y2="662.8"/>
		<line class="st3" x1="358" y1="670.8" x2="358" y2="662.8"/>
		<line class="st3" x1="252.4" y1="680.3" x2="372.7" y2="680.1"/>
		<line class="st3" x1="259.6" y1="680" x2="259.6" y2="671.9"/>
		<line class="st3" x1="274.9" y1="680" x2="274.9" y2="671.9"/>
		<line class="st3" x1="289.6" y1="680" x2="289.6" y2="671.9"/>
		<line class="st3" x1="304.9" y1="680" x2="304.9" y2="671.9"/>
		<line class="st3" x1="319.8" y1="680" x2="319.8" y2="671.9"/>
		<line class="st3" x1="335.1" y1="680" x2="335.1" y2="671.9"/>
		<line class="st3" x1="350.4" y1="680" x2="350.4" y2="671.9"/>
		<line class="st3" x1="366.2" y1="680" x2="366.2" y2="671.9"/>
		<line class="st3" x1="252.8" y1="689.1" x2="373.3" y2="688.9"/>
		<line class="st3" x1="267.7" y1="688.7" x2="267.7" y2="680.6"/>
		<line class="st3" x1="283" y1="688.7" x2="283" y2="680.6"/>
		<line class="st3" x1="297.8" y1="688.7" x2="297.8" y2="680.6"/>
		<line class="st3" x1="313.1" y1="688.7" x2="313.1" y2="680.6"/>
		<line class="st3" x1="328" y1="688.7" x2="328" y2="680.6"/>
		<line class="st3" x1="343.3" y1="688.7" x2="343.3" y2="680.6"/>
		<line class="st3" x1="358.5" y1="688.7" x2="358.5" y2="680.6"/>
		<line class="st3" x1="253" y1="698.2" x2="373.3" y2="698"/>
		<line class="st3" x1="260.1" y1="697.8" x2="260.1" y2="689.8"/>
		<line class="st3" x1="275.4" y1="697.8" x2="275.4" y2="689.8"/>
		<line class="st3" x1="290.1" y1="697.8" x2="290.1" y2="689.8"/>
		<line class="st3" x1="305.4" y1="697.8" x2="305.4" y2="689.8"/>
		<line class="st3" x1="320.4" y1="697.8" x2="320.4" y2="689.8"/>
		<line class="st3" x1="335.7" y1="697.8" x2="335.7" y2="689.8"/>
		<line class="st3" x1="350.9" y1="697.8" x2="350.9" y2="689.8"/>
		<line class="st3" x1="366.8" y1="697.8" x2="366.8" y2="689.8"/>
		<line class="st3" x1="252.9" y1="707.4" x2="373.4" y2="707.2"/>
		<line class="st3" x1="267.8" y1="707" x2="267.8" y2="698.9"/>
		<line class="st3" x1="283.1" y1="707" x2="283.1" y2="698.9"/>
		<line class="st3" x1="297.9" y1="707" x2="297.9" y2="698.9"/>
		<line class="st3" x1="313.1" y1="707" x2="313.1" y2="698.9"/>
		<line class="st3" x1="328.1" y1="707" x2="328.1" y2="698.9"/>
		<line class="st3" x1="343.4" y1="707" x2="343.4" y2="698.9"/>
		<line class="st3" x1="358.6" y1="707" x2="358.6" y2="698.9"/>
		<line class="st3" x1="253.1" y1="716.5" x2="373.4" y2="716.3"/>
		<line class="st3" x1="260.2" y1="716.1" x2="260.2" y2="708.1"/>
		<line class="st3" x1="275.5" y1="716.1" x2="275.5" y2="708.1"/>
		<line class="st3" x1="290.2" y1="716.1" x2="290.2" y2="708.1"/>
		<line class="st3" x1="305.5" y1="716.1" x2="305.5" y2="708.1"/>
		<line class="st3" x1="320.5" y1="716.1" x2="320.5" y2="708.1"/>
		<line class="st3" x1="335.8" y1="716.1" x2="335.8" y2="708.1"/>
		<line class="st3" x1="351" y1="716.1" x2="351" y2="708.1"/>
		<line class="st3" x1="366.9" y1="716.1" x2="366.9" y2="708.1"/>
		<line class="st3" x1="252.8" y1="724.8" x2="373.3" y2="724.6"/>
		<line class="st3" x1="267.7" y1="724.4" x2="267.7" y2="716.4"/>
		<line class="st3" x1="283" y1="724.4" x2="283" y2="716.4"/>
		<line class="st3" x1="297.8" y1="724.4" x2="297.8" y2="716.4"/>
		<line class="st3" x1="313.1" y1="724.4" x2="313.1" y2="716.4"/>
		<line class="st3" x1="328" y1="724.4" x2="328" y2="716.4"/>
		<line class="st3" x1="343.3" y1="724.4" x2="343.3" y2="716.4"/>
		<line class="st3" x1="358.5" y1="724.4" x2="358.5" y2="716.4"/>
		<line class="st3" x1="260.1" y1="733.6" x2="260.1" y2="725.5"/>
		<line class="st3" x1="275.4" y1="733.6" x2="275.4" y2="725.5"/>
		<line class="st3" x1="290.1" y1="733.6" x2="290.1" y2="725.5"/>
		<line class="st3" x1="305.4" y1="733.6" x2="305.4" y2="725.5"/>
		<line class="st3" x1="320.4" y1="733.6" x2="320.4" y2="725.5"/>
		<line class="st3" x1="335.7" y1="733.6" x2="335.7" y2="725.5"/>
		<line class="st3" x1="350.9" y1="733.6" x2="350.9" y2="725.5"/>
		<line class="st3" x1="366.8" y1="733.6" x2="366.8" y2="725.5"/>
		<line class="st3" x1="372.7" y1="652.7" x2="471.5" y2="652.5"/>
		<line class="st3" x1="372.7" y1="643.9" x2="471.5" y2="643.7"/>
		<line class="st3" x1="389.4" y1="652.4" x2="389.4" y2="644.3"/>
		<line class="st3" x1="404.7" y1="652.4" x2="404.7" y2="644.3"/>
		<line class="st3" x1="419.4" y1="652.4" x2="419.4" y2="644.3"/>
		<line class="st3" x1="434.7" y1="652.4" x2="434.7" y2="644.3"/>
		<line class="st3" x1="449.6" y1="652.4" x2="449.6" y2="644.3"/>
		<line class="st3" x1="464.9" y1="652.4" x2="464.9" y2="644.3"/>
		<line class="st3" x1="372.6" y1="661.8" x2="471.5" y2="661.6"/>
		<line class="st3" x1="381.8" y1="661.5" x2="381.8" y2="653.4"/>
		<line class="st3" x1="397.1" y1="661.5" x2="397.1" y2="653.4"/>
		<line class="st3" x1="411.8" y1="661.5" x2="411.8" y2="653.4"/>
		<line class="st3" x1="427.1" y1="661.5" x2="427.1" y2="653.4"/>
		<line class="st3" x1="442" y1="661.5" x2="442" y2="653.4"/>
		<line class="st3" x1="457.3" y1="661.5" x2="457.3" y2="653.4"/>
		<line class="st3" x1="372.7" y1="671" x2="471.6" y2="670.8"/>
		<line class="st3" x1="389.5" y1="670.7" x2="389.5" y2="662.6"/>
		<line class="st3" x1="404.8" y1="670.7" x2="404.8" y2="662.6"/>
		<line class="st3" x1="419.5" y1="670.7" x2="419.5" y2="662.6"/>
		<line class="st3" x1="434.8" y1="670.7" x2="434.8" y2="662.6"/>
		<line class="st3" x1="449.7" y1="670.7" x2="449.7" y2="662.6"/>
		<line class="st3" x1="465" y1="670.7" x2="465" y2="662.6"/>
		<line class="st3" x1="372.7" y1="680.1" x2="471.5" y2="679.9"/>
		<line class="st3" x1="381.9" y1="679.8" x2="381.9" y2="671.7"/>
		<line class="st3" x1="397.2" y1="679.8" x2="397.2" y2="671.7"/>
		<line class="st3" x1="411.9" y1="679.8" x2="411.9" y2="671.7"/>
		<line class="st3" x1="427.2" y1="679.8" x2="427.2" y2="671.7"/>
		<line class="st3" x1="442.1" y1="679.8" x2="442.1" y2="671.7"/>
		<line class="st3" x1="457.4" y1="679.8" x2="457.4" y2="671.7"/>
		<line class="st3" x1="373.2" y1="688.9" x2="472" y2="688.7"/>
		<line class="st3" x1="390" y1="688.5" x2="390" y2="680.4"/>
		<line class="st3" x1="405.3" y1="688.5" x2="405.3" y2="680.4"/>
		<line class="st3" x1="420.1" y1="688.5" x2="420.1" y2="680.4"/>
		<line class="st3" x1="435.4" y1="688.5" x2="435.4" y2="680.4"/>
		<line class="st3" x1="450.3" y1="688.5" x2="450.3" y2="680.4"/>
		<line class="st3" x1="465.6" y1="688.5" x2="465.6" y2="680.4"/>
		<line class="st3" x1="373.2" y1="698" x2="472" y2="697.8"/>
		<line class="st3" x1="382.4" y1="697.6" x2="382.4" y2="689.6"/>
		<line class="st3" x1="397.7" y1="697.6" x2="397.7" y2="689.6"/>
		<line class="st3" x1="412.4" y1="697.6" x2="412.4" y2="689.6"/>
		<line class="st3" x1="427.7" y1="697.6" x2="427.7" y2="689.6"/>
		<line class="st3" x1="442.7" y1="697.6" x2="442.7" y2="689.6"/>
		<line class="st3" x1="458" y1="697.6" x2="458" y2="689.6"/>
		<line class="st3" x1="373.3" y1="707.2" x2="472.1" y2="707"/>
		<line class="st3" x1="390.1" y1="706.8" x2="390.1" y2="698.7"/>
		<line class="st3" x1="405.4" y1="706.8" x2="405.4" y2="698.7"/>
		<line class="st3" x1="420.2" y1="706.8" x2="420.2" y2="698.7"/>
		<line class="st3" x1="435.4" y1="706.8" x2="435.4" y2="698.7"/>
		<line class="st3" x1="450.4" y1="706.8" x2="450.4" y2="698.7"/>
		<line class="st3" x1="465.7" y1="706.8" x2="465.7" y2="698.7"/>
		<line class="st3" x1="373.2" y1="716.3" x2="472.1" y2="716.1"/>
		<line class="st3" x1="382.5" y1="715.9" x2="382.5" y2="707.9"/>
		<line class="st3" x1="397.8" y1="715.9" x2="397.8" y2="707.9"/>
		<line class="st3" x1="412.5" y1="715.9" x2="412.5" y2="707.9"/>
		<line class="st3" x1="427.8" y1="715.9" x2="427.8" y2="707.9"/>
		<line class="st3" x1="442.8" y1="715.9" x2="442.8" y2="707.9"/>
		<line class="st3" x1="458.1" y1="715.9" x2="458.1" y2="707.9"/>
		<line class="st3" x1="373.2" y1="724.6" x2="472" y2="724.4"/>
		<line class="st3" x1="390" y1="724.3" x2="390" y2="716.2"/>
		<line class="st3" x1="405.3" y1="724.3" x2="405.3" y2="716.2"/>
		<line class="st3" x1="420.1" y1="724.3" x2="420.1" y2="716.2"/>
		<line class="st3" x1="435.4" y1="724.3" x2="435.4" y2="716.2"/>
		<line class="st3" x1="450.3" y1="724.3" x2="450.3" y2="716.2"/>
		<line class="st3" x1="465.6" y1="724.3" x2="465.6" y2="716.2"/>
		<line class="st3" x1="382.4" y1="733.4" x2="382.4" y2="725.3"/>
		<line class="st3" x1="397.7" y1="733.4" x2="397.7" y2="725.3"/>
		<line class="st3" x1="412.4" y1="733.4" x2="412.4" y2="725.3"/>
		<line class="st3" x1="427.7" y1="733.4" x2="427.7" y2="725.3"/>
		<line class="st3" x1="442.7" y1="733.4" x2="442.7" y2="725.3"/>
		<line class="st3" x1="458" y1="733.4" x2="458" y2="725.3"/>
		<line class="st3" x1="374" y1="652.2" x2="374" y2="644.2"/>
		<line class="st3" x1="374.1" y1="670.5" x2="374.1" y2="662.5"/>
		<line class="st3" x1="374.6" y1="688.4" x2="374.6" y2="680.3"/>
		<line class="st3" x1="374.7" y1="706.7" x2="374.7" y2="698.6"/>
		<line class="st3" x1="374.6" y1="724.2" x2="374.6" y2="716.1"/>
	</g>
	<line class="st4" x1="472.2" y1="635.6" x2="472.2" y2="823.8"/>
	<path class="st5" d="M425.1,713.7h-51.7c-2,0-3.6-1.6-3.6-3.6l0,0c0-2,1.6-3.6,3.6-3.6h51.7c2,0,3.6,1.6,3.6,3.6l0,0
		C428.7,712.1,427.1,713.7,425.1,713.7z"/>
	<line class="st6" x1="419.6" y1="772.1" x2="378" y2="772.1"/>
	<path class="st7" d="M419.9,796.6v-48c0-1.3-0.5-1.1-1.8-1.1H380c-1.3,0-2.5-0.3-2.5,1.1v48.3"/>
	<path class="st5" d="M424.9,804h-51.7c-2,0-3.6-1.6-3.6-3.6l0,0c0-2,1.6-3.6,3.6-3.6h51.7c2,0,3.6,1.6,3.6,3.6l0,0
		C428.5,802.4,426.9,804,424.9,804z"/>
	<g class="st8">
		<circle class="st9" cx="412.6" cy="765.8" r="11.5"/>
		<circle class="st10" cx="412.6" cy="765.8" r="10"/>
		<circle class="st11" cx="412.6" cy="757.4" r="0.3"/>
		<circle class="st11" cx="404" cy="765.8" r="0.3"/>
		<circle class="st11" cx="412.6" cy="774.6" r="0.3"/>
		<circle class="st11" cx="421.2" cy="765.8" r="0.3"/>
		<polyline class="st12" points="412.6,760.1 412.6,766 417.1,766 		"/>
		<path class="st13" d="M412.8,768.8C412.8,768.8,412.8,768.8,412.8,768.8c-0.4,0.5-0.7,1.1-1.1,1.7c0.2,0,0.5,0,0.7,0
			c0,0.3,0,0.7,0,1c0,0,0,0,0,0c0.4-0.6,0.7-1.1,1.1-1.7c-0.2,0-0.5,0-0.7,0C412.7,769.5,412.8,769.1,412.8,768.8z"/>
	</g>
	<path class="st14" d="M620.1,822.5c-7.6,0-13.7-6.1-13.7-13.7c0-7.6,6.1-13.7,13.7-13.7s13.7,6.1,13.7,13.7
		C633.8,816.3,627.7,822.5,620.1,822.5L620.1,822.5z"/>
	<path class="st14" d="M508.5,822.4c7.6,0,13.7-6.1,13.7-13.7c0-7.6-6.1-13.7-13.7-13.7c-7.6,0-13.7,6.1-13.7,13.7
		C494.8,816.3,501,822.4,508.5,822.4L508.5,822.4z"/>
	<path class="st15" d="M620.1,818.7c-5.5,0-9.9-4.5-9.9-9.9c0-5.5,4.5-9.9,9.9-9.9c5.5,0,9.9,4.5,9.9,9.9
		C630.1,814.3,625.6,818.7,620.1,818.7L620.1,818.7z"/>
	<path class="st16" d="M620.1,811.9c-1.8,0-3.2-1.4-3.2-3.2c0-1.8,1.4-3.2,3.2-3.2c1.8,0,3.2,1.4,3.2,3.2
		C623.3,810.5,621.9,811.9,620.1,811.9L620.1,811.9z"/>
	<path class="st16" d="M482.6,787.4l0.4-0.1c0.3-0.1,0.5-0.2,0.7-0.4c3.3-3.1,7.6-6.1,13.1-8.8c2.2-1.1,3.9-2.5,5.4-4.4l6.7-8.7
		l0.1-0.3c-2.6-0.1-7.7-0.1-10-0.5c-0.8-0.2-2.9-0.7-2-1.1c2-0.9,5.2-1.5,8.8-1.9c1-0.1,1.9,0.3,2.8,0.4c1.5,0.1,2.9,0.2,4.4,0.2
		c0.4,0,1.4,0.1,1.4-0.6c0-0.2,0-0.5-0.1-0.7c-0.2-0.4-0.5-0.6-0.8-0.9c-0.1-0.1,0-0.2,0.1-0.2c0.6,0,1.2,0.1,1.8,0.3
		c1.2,0.4,2.4,0.9,3.6,1.2c0.7,0.2,1.3,0.1,1.9,0c0.7-0.1,1.4-0.1,2.2-0.2c2.9-0.2,5.8-0.4,8.7-0.6c2.9-0.2,5.8-0.3,8.7-0.4
		c2.9-0.1,5.8-0.1,8.7-0.2c2.9,0,5.8,0,8.7,0.1c2.9,0.1,5.8,0.3,8.7,0.5c6.6,0.5,12.3,1.8,18.3,4.2c8.5,3.6,16.7,8.3,25.1,12.2
		c4.9,2.3,12.8,2.9,18.2,3.5c1.3,0.1,2.3,0.4,3.5,0.8c9.7,3.3,15.9,6,19,8.9c1.3,1.3,2,2.3,2.5,3.6c0.1,0.3,0.2,0.5,0.4,0.7
		c0.8,1,1.5,2,2.2,3.1c0.1,0.2,0.2,0.4,0.2,0.6l0,0.6c0,0.3-0.4,0-0.4,0.3c-0.3,2.8-1.2,5.6-2.9,8.1c-0.1,0.1,0,0.2,0.1,0.2
		c1.2,0.4,2.3,1,2.9,1.7c0.1,0.1-0.2,0.1-0.2,0.1c-0.1,0.4-0.1,0.8-0.3,1.1c-0.2,0.2-0.4,0.3-0.6,0.4c-0.3,0.1-0.5,0.2-0.7,0.4
		c-0.6,0.3-1.1,0.5-1.8,0.6c-0.6,0.1-1.2,0.1-1.7,0.1c-0.9,0.1-1.8,0.1-2.7,0.3c-1.8,0.2-3.6,0.4-5.4,0.6c-0.1,0-0.1,0-0.2,0
		c-1.8,0.2-3.6,0.3-5.4,0.4c-0.1,0-0.3,0-0.4,0c-0.2,0-0.3-0.1-0.3-0.3c0.2-1.2,0.3-2.5,0.3-3.9c0-8.7-5.4-16.1-15.7-16.1
		c-8.5,0-13.7,5-15.2,11.6c-0.6,2.8-0.8,5.8-0.8,8.8c0,0.3-0.2,0.5-0.5,0.5c-27.3-0.6-62-1.3-79.2-0.1c-0.2,0-0.4-0.2-0.4-0.4
		c0.8-10.2-4.3-20.1-15.2-20.2c-11-0.1-17.4,7.1-16.6,18.2c0,0.1-0.1,0.2-0.2,0.1c-3.3-0.5-6.5-1.6-10-2.2c-1.8-0.4-3-2.5-3.4-4.1
		c-0.2-0.7,0.9-0.6,0.7-1.3c-0.7-2.8-0.8-5.8-0.4-9c0-0.2,0.1-0.4,0.2-0.5C480.4,792.6,481.1,789.3,482.6,787.4"/>
	<path class="st15" d="M508.5,818.7c5.5,0,9.9-4.5,9.9-9.9c0-5.5-4.5-9.9-9.9-9.9c-5.5,0-9.9,4.5-9.9,9.9
		C498.6,814.2,503,818.7,508.5,818.7L508.5,818.7z"/>
	<path class="st15" d="M650,803.6c-1.2,0.4-1.7,1.9-1.4,3.1c0.1,0.2,0.1,0.4,0.2,0.6c0.1,0.1,0.1,0.3,0.3,0.4c0.1,0.1,0.3,0,0.4-0.1
		c0.3-0.3,0.6-0.7,0.8-1.1c0.1-0.2,0.2-0.3,0.2-0.5c0.2-0.4,0.4-0.9,0.4-1.3c0.1-0.3,0.1-0.7-0.1-1
		C650.6,803.4,650.2,803.5,650,803.6z"/>
	<path class="st17" d="M651.1,802.1c-4.3-1.8-6.8,5.3-1.8,7.7"/>
	<path class="st15" d="M615.1,778.2l4.4,3.9c1.1,1,2.3,1.6,3.8,2c8.3,2,16.9,5.7,25.4,7.9c0.4,0.1,0.6,0.1,0.2-0.3
		c-4.9-5.3-10.5-8.6-16.6-10.2c-4.6-1.2-10.3-1-14.7-1"/>
	<path class="st17" d="M641.8,790c-5.6-2.2-10.2-5-12.3-9"/>
	<path class="st16" d="M653,793.4c-1.3-0.3-2.6-0.8-3.9-1.3"/>
	<path class="st17" d="M598.9,781.5c0.5,0.7,1.3,1.6,1.9,2.6c1.9,3,1.4,12.9-0.6,23.7c-0.3,1.4-1.4,2.4-2.9,2.4l-63.2-0.6
		c-2.9,0-4.7-1.3-6.4-3.5c-5.5-7.2-12.4-17.2-14.8-24.6c-0.8-2.4-0.8-4,1.3-5.7l3-2.4l0,0"/>
	<path class="st16" d="M565.2,784.5c-0.1-0.8-0.9-1.5-1.7-1.5h-1.6c-0.7,0-1.4,0.5-1.6,1.1l-0.1,1.6c0.1,0.9,0.8,1.6,1.7,1.6h1.6
		c0.8,0,1.5-0.6,1.7-1.4L565.2,784.5z"/>
	<path class="st16" d="M519.9,783.4c0.1,0.9,0.8,1.6,1.7,1.6h1.6c0.8,0,1.5-0.6,1.7-1.4l0-1.5c-0.1-0.8-0.9-1.5-1.7-1.5h-1.6
		c-0.7,0-1.4,0.5-1.6,1.1L519.9,783.4z"/>
	<path class="st15" d="M494.9,776.5l-3.6,1c-0.6,0.2-1.1,0.4-1.5,0.9c-2,2.1-3.8,4.2-5.2,6.3"/>
	<path class="st15" d="M505.3,764.5c-0.5,0-1,0.2-1.3,0.6l-7.8,10.1c-0.5,0.6-0.9,1-1.5,1.5c-4,2.8-7.6,5.8-11,8.8
		c-0.4,0.4-0.7,0.7-0.9,1.2l-0.3,0.5c-0.1,0.1,0,0.2,0.2,0.2l0.4-0.1c0.3-0.1,0.5-0.2,0.7-0.4c3.3-3.1,7.6-6.1,13.1-8.8
		c2.2-1.1,3.9-2.5,5.4-4.4l6.7-8.7l0.1-0.3C507.9,764.6,506.8,764.6,505.3,764.5"/>
	<path class="st15" d="M591.5,781.2c5.5,0.2,11.2,0.5,16.9,0.7c0.3,0,0.5-0.3,0.4-0.6c-0.5-1.4-1.5-2.6-3.1-3.7
		c-5.6-3.7-13.9-7.9-20-10.6c-7.9-3.5-15.2-5.1-23.8-5.3c-16-0.4-31.8,0.7-47.4,2.4c-0.8,0.1-1.2,0.9-0.9,1.6c1,2,2,4.4,3.1,6.3
		c0.7,1.3,1.7,2,3.1,2.5c6.8,2.2,22.3,3.9,34.6,4.8c11,0.8,22.6,1.3,34.7,1.8L591.5,781.2z"/>
	<path class="st16" d="M589.7,778.8c0.3-1.6,2.2-2.7,3.7-2.2c2.8,0.9,4.6,2.5,5.5,4.6c0.1,0.2,0,0.4-0.1,0.5
		c-1.6,1.5-3.4,1.8-6.3,1.5C590.8,783.1,589.3,780.4,589.7,778.8L589.7,778.8z"/>
	<path class="st17" d="M554.3,809.7c1.3-9.8,1.8-19.7-0.1-30.9l-2.8-17.2"/>
	<path class="st16" d="M508.5,812c-1.8,0-3.2-1.4-3.2-3.2c0-1.8,1.4-3.2,3.2-3.2c1.8,0,3.2,1.4,3.2,3.2
		C511.7,810.5,510.3,812,508.5,812L508.5,812z"/>
	<line class="st18" x1="556.1" y1="774" x2="559.6" y2="776.5"/>
	<line class="st18" x1="555.5" y1="769.2" x2="566" y2="777.3"/>
	<line class="st18" x1="529.6" y1="765.1" x2="534.3" y2="768.7"/>
	<line class="st18" x1="525.8" y1="765.6" x2="529.3" y2="768.4"/>
	<circle class="st19" cx="450.2" cy="775.5" r="12.3"/>
	<circle class="st20" cx="450.2" cy="775.5" r="3.4"/>
	<path class="st19" d="M446,778.4c-0.6-0.8-0.9-1.8-0.9-2.9c0-1.1,0.3-2.1,0.9-2.9"/>
	<path class="st19" d="M454.3,772.4c0.6,0.8,1,1.9,1,3c0,1.1-0.4,2.2-1,3"/>
	<path class="st21" d="M446,783.1c-2.7-1.5-4.5-4.3-4.5-7.7c0-3.3,1.8-6.1,4.5-7.6"/>
	<path class="st21" d="M454.3,767.8c2.7,1.5,4.6,4.3,4.6,7.7c0,3.3-1.9,6.2-4.6,7.7"/>
	<line class="st19" x1="446" y1="772.6" x2="446" y2="763.9"/>
	<line class="st19" x1="446" y1="783.1" x2="446" y2="778.4"/>
	<line class="st19" x1="446" y1="787" x2="446" y2="783.1"/>
	<line class="st19" x1="454.3" y1="778.5" x2="454.3" y2="787.1"/>
	<line class="st19" x1="454.3" y1="763.9" x2="454.3" y2="772.4"/>
	<circle class="st20" cx="450.2" cy="783.3" r="1.8"/>
	<path class="st21" d="M450.2,775.7c1.7,0,10.4-0.3,13.7,0.4c9.1,2,8,5.5,15.2,8.1c4,1.4,17.4,0.8,23,0.8"/>
	<circle class="st21" cx="502.1" cy="785.1" r="3.7"/>
	<path class="st22" d="M419.6,705.7v-48c0-1.3-0.5-1.1-1.8-1.1h-38.1c-1.3,0-2.5-0.3-2.5,1.1V706"/>
	<line class="st23" x1="398.3" y1="656.6" x2="398.3" y2="706.5"/>
	<line class="st23" x1="377.2" y1="684" x2="419" y2="684"/>
	<line class="st23" x1="398.7" y1="748" x2="398.7" y2="796.9"/>
	<line class="st23" x1="378.2" y1="772.2" x2="420" y2="772.2"/>
	<rect x="420.6" y="754.3" class="st24" width="4.3" height="23"/>
	<path class="st25" d="M420,796.2v-48c0-1.3-0.5-1.1-1.8-1.1H380c-1.3,0-2.5-0.3-2.5,1.1v48.3"/>
	<g class="st2">
		<line class="st26" x1="385.7" y1="752.2" x2="390.4" y2="755.8"/>
		<line class="st26" x1="381.8" y1="752.8" x2="385.4" y2="755.6"/>
	</g>
	<g class="st2">
		<line class="st26" x1="403.2" y1="790.7" x2="406.7" y2="793.2"/>
		<line class="st26" x1="402.5" y1="785.9" x2="413.1" y2="794.1"/>
	</g>
	<path class="st27" d="M584.5,684.5c0,0.2,0,0.3-0.1,0.5l0,0.1l-5.9,0c-0.1-0.2-0.1-0.3-0.1-0.5c0-0.8,0.7-1.5,1.6-1.5
		c0,0,0.1,0,0.1,0l0,0c0.2-0.6,0.9-1,1.6-1c0.8,0,1.6,0.5,1.7,1.3l0.1,0c0.2,0,0.4,0.1,0.5,0.3c0.2,0.1,0.3,0.3,0.4,0.5
		C584.5,684.2,584.5,684.4,584.5,684.5"/>
	<path class="st27" d="M548.8,709.8c-1.4,0.4-2.5,1.6-2.5,3.2c0,0.1,0,0.2,0,0.4l13.8,0c0.1-1.4-1-1.8-1-1.8c0-1.5-1.1-2.6-2.9-2.5
		h0c-0.6-1.4-2-2.4-3.6-2.4C550.7,706.6,549.1,708,548.8,709.8"/>
	<g class="st2">
		<path class="st28" d="M507.9,704.8c0.3-0.1,0.6-0.2,0.9-0.3c0.3-0.1,0.5-0.2,0.8-0.2c0.1,0,0.1,0,0.2,0c0.4,0,0.7,0.1,1,0.3
			c0.3,0.2,0.7,0.4,1,0.7l0,0l0,0c0.1,0.1,0.3,0.1,0.4,0.1c0.1,0,0.2,0,0.3-0.1c0.1-0.1,0.2-0.2,0.2-0.3c0.1-0.3,0.2-0.5,0.4-0.8
			c0.1-0.2,0.3-0.5,0.4-0.6c0.2-0.2,0.4-0.3,0.7-0.4c0.3-0.1,0.6-0.2,0.9-0.3c0.2-0.1,0.3-0.3,0.3-0.5c-0.1-0.2-0.3-0.3-0.5-0.3
			c-0.3,0.1-0.6,0.2-1,0.3c-0.3,0.1-0.7,0.3-1,0.6c-0.2,0.3-0.4,0.5-0.6,0.8c-0.2,0.3-0.3,0.6-0.4,0.8l0.2,0.1l-0.1-0.2
			c0,0-0.1,0-0.1,0.1l0.2,0.1l-0.1-0.2l0.1,0.2v-0.2c0,0-0.1,0-0.1,0l0.1,0.2v-0.2v0.2l0.1-0.1c0,0-0.1,0-0.1,0v0.2l0.1-0.1
			c-0.4-0.3-0.7-0.6-1.1-0.8c-0.4-0.2-0.9-0.4-1.4-0.4c-0.1,0-0.2,0-0.3,0c-0.3,0-0.7,0.1-1,0.2c-0.3,0.1-0.6,0.2-0.8,0.3
			c-0.2,0.1-0.3,0.3-0.3,0.5C507.5,704.7,507.7,704.8,507.9,704.8z"/>
		<path class="st28" d="M510.5,704.5c0.2,0.1,0.4,0.2,0.6,0.4c0.2,0.2,0.4,0.4,0.6,0.6c0.1,0.1,0.3,0.2,0.4,0.2c0.1,0,0.3,0,0.4-0.1
			c0.1-0.1,0.2-0.2,0.3-0.3c0.1-0.3,0.2-0.5,0.3-0.8c0.1-0.2,0.2-0.5,0.3-0.6c0.1-0.2,0.1-0.4-0.1-0.6c-0.2-0.1-0.4-0.1-0.6,0.1
			c-0.2,0.3-0.4,0.6-0.5,0.9c-0.1,0.3-0.2,0.5-0.3,0.8v0l0.2,0.1l-0.1-0.2c0,0-0.1,0-0.1,0.1l0.2,0.1l-0.1-0.2l0.1,0.1v-0.1
			c0,0,0,0-0.1,0l0.1,0.1v-0.1v0.1l0.1-0.1c0,0-0.1,0-0.1,0v0.1l0.1-0.1c-0.2-0.2-0.4-0.4-0.6-0.6c-0.2-0.2-0.5-0.4-0.8-0.5
			c-0.2-0.1-0.5,0-0.5,0.2C510.2,704.1,510.3,704.4,510.5,704.5"/>
		<path class="st28" d="M490.9,693.1c0.3,0.1,0.6,0.1,0.8,0.2c0.3,0.1,0.5,0.1,0.7,0.2c0.2,0.1,0.3,0.2,0.4,0.3
			c0.2,0.2,0.3,0.5,0.4,0.8c0.1,0.3,0.2,0.7,0.2,1.1c0,0.1,0.1,0.3,0.2,0.4c0.1,0.1,0.2,0.1,0.4,0.1c0.2,0,0.3-0.1,0.4-0.2l0,0l0,0
			c0.3-0.2,0.5-0.5,0.8-0.6c0.3-0.2,0.5-0.4,0.8-0.5c0.2-0.1,0.3-0.1,0.5-0.1c0.3,0,0.7,0.1,1.1,0.2c0.2,0,0.4-0.1,0.5-0.3
			c0-0.2-0.1-0.4-0.3-0.5c-0.4-0.1-0.8-0.2-1.3-0.2c-0.3,0-0.5,0-0.8,0.2c-0.3,0.1-0.7,0.3-0.9,0.6c-0.3,0.2-0.6,0.5-0.8,0.7v0
			l0.1,0.1v-0.2c-0.1,0-0.1,0-0.1,0l0.1,0.1v-0.2v0.3l0.2-0.2c0,0-0.1-0.1-0.2-0.1v0.3l0.2-0.2l-0.1,0.2l0.2,0c0,0,0-0.1-0.1-0.1
			l-0.1,0.2l0.2,0c-0.1-0.5-0.2-1.1-0.4-1.5c-0.1-0.2-0.2-0.5-0.4-0.7c-0.2-0.2-0.4-0.4-0.6-0.5c-0.3-0.2-0.6-0.2-0.9-0.3
			c-0.3-0.1-0.6-0.1-0.8-0.2c-0.2-0.1-0.4,0.1-0.5,0.3C490.6,692.8,490.7,693,490.9,693.1"/>
		<path class="st28" d="M493,694.1c0.1,0.2,0.2,0.5,0.2,0.8c0,0.3,0.1,0.6,0.1,1c0,0.2,0.1,0.3,0.2,0.4c0.1,0.1,0.3,0.2,0.4,0.2
			c0.2,0,0.3-0.1,0.4-0.2c0.3-0.2,0.5-0.5,0.7-0.7c0.2-0.2,0.5-0.4,0.7-0.5c0.2-0.1,0.3-0.4,0.2-0.6c-0.1-0.2-0.4-0.3-0.6-0.2
			c-0.3,0.2-0.6,0.4-0.9,0.7c-0.3,0.2-0.5,0.5-0.7,0.7l0.1,0.1v-0.2c0,0-0.1,0-0.1,0l0.1,0.1v-0.2v0.2l0.1-0.2c0,0-0.1,0-0.1,0v0.2
			l0.1-0.2l-0.1,0.1l0.2,0c0,0,0-0.1-0.1-0.1l-0.1,0.1l0.2,0c0-0.3-0.1-0.6-0.1-0.9c0-0.3-0.1-0.7-0.3-1c-0.1-0.2-0.4-0.3-0.6-0.2
			C493,693.6,492.9,693.9,493,694.1"/>
	</g>
	<path class="st27" d="M509.2,737.9c-1.3,0.3-2.3,1.5-2.3,2.9c0,0.1,0,0.2,0,0.3l12.7,0c0.1-1.2-0.9-1.7-0.9-1.7
		c0-1.4-1-2.4-2.6-2.3h0c-0.6-1.3-1.8-2.2-3.3-2.2C511,734.9,509.5,736.2,509.2,737.9"/>
	<path class="st27" d="M522.4,741.2h8c0.2,0,0.4-0.2,0.4-0.4s-0.2-0.4-0.4-0.4h-8c-0.2,0-0.4,0.2-0.4,0.4S522.2,741.2,522.4,741.2"
		/>
	<path class="st27" d="M490.1,741.3h2c0.2,0,0.4-0.2,0.4-0.4s-0.2-0.4-0.4-0.4h-2c-0.2,0-0.4,0.2-0.4,0.4S489.9,741.3,490.1,741.3"
		/>
	<path class="st27" d="M587.1,685.2h8c0.2,0,0.4-0.2,0.4-0.4s-0.2-0.4-0.4-0.4h-8c-0.2,0-0.4,0.2-0.4,0.4S586.9,685.2,587.1,685.2"
		/>
	<path class="st27" d="M596.6,698.5h2c0.2,0,0.4-0.2,0.4-0.4c0-0.2-0.2-0.4-0.4-0.4h-2c-0.2,0-0.4,0.2-0.4,0.4
		C596.2,698.4,596.4,698.5,596.6,698.5"/>
	<path class="st27" d="M567.6,735.3h2c0.2,0,0.4-0.2,0.4-0.4c0-0.2-0.2-0.4-0.4-0.4h-2c-0.2,0-0.4,0.2-0.4,0.4
		C567.2,735.1,567.4,735.3,567.6,735.3"/>
	<path class="st27" d="M541.5,713.6h2c0.2,0,0.4-0.2,0.4-0.4s-0.2-0.4-0.4-0.4h-2c-0.2,0-0.4,0.2-0.4,0.4S541.3,713.6,541.5,713.6"
		/>
	<path class="st27" d="M531.2,713.6h8c0.2,0,0.4-0.2,0.4-0.4s-0.2-0.4-0.4-0.4h-8c-0.2,0-0.4,0.2-0.4,0.4S531,713.6,531.2,713.6"/>
	<line class="st4" x1="364.8" y1="823.7" x2="572.1" y2="823.7"/>
</g>
<path class="st29" d="M548.1,709.8c-1.4,0.4-2.5,1.6-2.5,3.2c0,0.1,0,0.2,0,0.4l13.8,0c0.1-1.4-1-1.8-1-1.8c0-1.5-1.1-2.6-2.9-2.5h0
	c-0.6-1.4-2-2.4-3.6-2.4C550.1,706.6,548.4,707.9,548.1,709.8"/>
<path class="st29" d="M540.4,690.9c0,0.1,0,0.2-0.1,0.4l0,0l-4.6,0c-0.1-0.1-0.1-0.3-0.1-0.4c0-0.6,0.6-1.2,1.3-1.2c0,0,0.1,0,0.1,0
	l0,0c0.2-0.5,0.7-0.8,1.3-0.8c0.7,0,1.2,0.4,1.3,1l0.1,0c0.1,0,0.3,0.1,0.4,0.2c0.1,0.1,0.2,0.2,0.3,0.4
	C540.3,690.6,540.3,690.7,540.4,690.9"/>
<path class="st29" d="M533.5,691.3c0-1-0.7-1.9-1.6-2.2v0c-0.2-1.2-1.3-2.1-2.5-2.2l0,0c-0.6-0.9-1.7-1.4-2.9-1.4
	c-1.5,0-2.8,1.1-3.3,2.5h-0.2c-1.8,0-3.2,1.3-3.2,3.1c0,0.1,0,0.2,0,0.3L533.5,691.3z"/>
<path class="st29" d="M514.6,691.4h1.5c0.2,0,0.3-0.1,0.3-0.3s-0.1-0.3-0.3-0.3h-1.5c-0.2,0-0.3,0.1-0.3,0.3
	S514.4,691.4,514.6,691.4"/>
<path class="st29" d="M557.3,729.3h8c0.2,0,0.4-0.2,0.4-0.4c0-0.2-0.2-0.4-0.4-0.4h-8c-0.2,0-0.4,0.2-0.4,0.4
	C556.9,729.1,557.1,729.3,557.3,729.3"/>
<path class="st29" d="M562.1,713.3h2c0.2,0,0.4-0.2,0.4-0.4s-0.2-0.4-0.4-0.4h-2c-0.2,0-0.4,0.2-0.4,0.4S561.9,713.3,562.1,713.3"/>
<g>
	<defs>
		<circle id="SVGID_3_" cx="109.8" cy="124.3" r="108.7"/>
	</defs>
	<use xlink:href="#SVGID_3_"  style="overflow:visible;opacity:0.74;fill:#F2F2F2;"/>
	<clipPath id="SVGID_4_">
		<use xlink:href="#SVGID_3_"  style="overflow:visible;opacity:0.74;"/>
	</clipPath>
	<rect x="-77.4" y="169.5" class="st30" width="357.7" height="82.6"/>
	<line class="st31" x1="-17.5" y1="179.4" x2="-34.4" y2="196.3"/>
	<line class="st31" x1="20.2" y1="179.4" x2="-32.8" y2="232.4"/>
	<line class="st31" x1="58.9" y1="179.4" x2="-36.6" y2="274.9"/>
	<line class="st31" x1="97" y1="179.4" x2="1.5" y2="274.9"/>
	<line class="st31" x1="136.8" y1="177.2" x2="41.3" y2="272.7"/>
	<line class="st31" x1="175" y1="177.2" x2="79.5" y2="272.7"/>
	<line class="st31" x1="250.4" y1="253.4" x2="233.5" y2="270.3"/>
	<line class="st31" x1="249.1" y1="217.9" x2="196.1" y2="270.9"/>
	<line class="st31" x1="213.7" y1="179.4" x2="118.2" y2="274.9"/>
	<line class="st31" x1="251.8" y1="179.4" x2="156.3" y2="274.9"/>
	<g class="st32">
		<g>
			<line class="st3" x1="-105" y1="88.8" x2="15.5" y2="88.6"/>
			<line class="st3" x1="-105" y1="80" x2="15.5" y2="79.8"/>
			<line class="st3" x1="-90.1" y1="88.4" x2="-90.1" y2="80.4"/>
			<line class="st3" x1="-74.8" y1="88.4" x2="-74.8" y2="80.4"/>
			<line class="st3" x1="-60.1" y1="88.4" x2="-60.1" y2="80.4"/>
			<line class="st3" x1="-44.8" y1="88.4" x2="-44.8" y2="80.4"/>
			<line class="st3" x1="-29.9" y1="88.4" x2="-29.9" y2="80.4"/>
			<line class="st3" x1="-14.6" y1="88.4" x2="-14.6" y2="80.4"/>
			<line class="st3" x1="0.7" y1="88.4" x2="0.7" y2="80.4"/>
			<line class="st3" x1="-104.9" y1="97.9" x2="15.4" y2="97.7"/>
			<line class="st3" x1="-97.7" y1="97.5" x2="-97.7" y2="89.5"/>
			<line class="st3" x1="-82.4" y1="97.5" x2="-82.4" y2="89.5"/>
			<line class="st3" x1="-67.7" y1="97.5" x2="-67.7" y2="89.5"/>
			<line class="st3" x1="-52.4" y1="97.5" x2="-52.4" y2="89.5"/>
			<line class="st3" x1="-37.5" y1="97.5" x2="-37.5" y2="89.5"/>
			<line class="st3" x1="-22.2" y1="97.5" x2="-22.2" y2="89.5"/>
			<line class="st3" x1="-6.9" y1="97.5" x2="-6.9" y2="89.5"/>
			<line class="st3" x1="8.9" y1="97.5" x2="8.9" y2="89.5"/>
			<line class="st3" x1="-104.9" y1="107.1" x2="15.6" y2="106.9"/>
			<line class="st3" x1="-90" y1="106.7" x2="-90" y2="98.7"/>
			<line class="st3" x1="-74.7" y1="106.7" x2="-74.7" y2="98.7"/>
			<line class="st3" x1="-60" y1="106.7" x2="-60" y2="98.7"/>
			<line class="st3" x1="-44.7" y1="106.7" x2="-44.7" y2="98.7"/>
			<line class="st3" x1="-29.8" y1="106.7" x2="-29.8" y2="98.7"/>
			<line class="st3" x1="-14.5" y1="106.7" x2="-14.5" y2="98.7"/>
			<line class="st3" x1="0.8" y1="106.7" x2="0.8" y2="98.7"/>
			<line class="st3" x1="-104.8" y1="116.2" x2="15.5" y2="116"/>
			<line class="st3" x1="-97.6" y1="115.8" x2="-97.6" y2="107.8"/>
			<line class="st3" x1="-82.3" y1="115.8" x2="-82.3" y2="107.8"/>
			<line class="st3" x1="-67.6" y1="115.8" x2="-67.6" y2="107.8"/>
			<line class="st3" x1="-52.3" y1="115.8" x2="-52.3" y2="107.8"/>
			<line class="st3" x1="-37.4" y1="115.8" x2="-37.4" y2="107.8"/>
			<line class="st3" x1="-22.1" y1="115.8" x2="-22.1" y2="107.8"/>
			<line class="st3" x1="-6.8" y1="115.8" x2="-6.8" y2="107.8"/>
			<line class="st3" x1="9" y1="115.8" x2="9" y2="107.8"/>
			<line class="st3" x1="-104.4" y1="125" x2="16.1" y2="124.7"/>
			<line class="st3" x1="-89.5" y1="124.6" x2="-89.5" y2="116.5"/>
			<line class="st3" x1="-74.2" y1="124.6" x2="-74.2" y2="116.5"/>
			<line class="st3" x1="-59.4" y1="124.6" x2="-59.4" y2="116.5"/>
			<line class="st3" x1="-44.1" y1="124.6" x2="-44.1" y2="116.5"/>
			<line class="st3" x1="-29.2" y1="124.6" x2="-29.2" y2="116.5"/>
			<line class="st3" x1="-13.9" y1="124.6" x2="-13.9" y2="116.5"/>
			<line class="st3" x1="1.3" y1="124.6" x2="1.3" y2="116.5"/>
			<line class="st3" x1="-104.2" y1="134.1" x2="16.1" y2="133.9"/>
			<line class="st3" x1="-97.1" y1="133.7" x2="-97.1" y2="125.6"/>
			<line class="st3" x1="-81.8" y1="133.7" x2="-81.8" y2="125.6"/>
			<line class="st3" x1="-67" y1="133.7" x2="-67" y2="125.6"/>
			<line class="st3" x1="-51.7" y1="133.7" x2="-51.7" y2="125.6"/>
			<line class="st3" x1="-36.8" y1="133.7" x2="-36.8" y2="125.6"/>
			<line class="st3" x1="-21.5" y1="133.7" x2="-21.5" y2="125.6"/>
			<line class="st3" x1="-6.3" y1="133.7" x2="-6.3" y2="125.6"/>
			<line class="st3" x1="9.6" y1="133.7" x2="9.6" y2="125.6"/>
			<line class="st3" x1="-104.3" y1="143.3" x2="16.2" y2="143"/>
			<line class="st3" x1="-89.4" y1="142.9" x2="-89.4" y2="134.8"/>
			<line class="st3" x1="-74.1" y1="142.9" x2="-74.1" y2="134.8"/>
			<line class="st3" x1="-59.3" y1="142.9" x2="-59.3" y2="134.8"/>
			<line class="st3" x1="-44" y1="142.9" x2="-44" y2="134.8"/>
			<line class="st3" x1="-29.1" y1="142.9" x2="-29.1" y2="134.8"/>
			<line class="st3" x1="-13.8" y1="142.9" x2="-13.8" y2="134.8"/>
			<line class="st3" x1="1.4" y1="142.9" x2="1.4" y2="134.8"/>
			<line class="st3" x1="-104.1" y1="152.4" x2="16.2" y2="152.2"/>
			<line class="st3" x1="-97" y1="152" x2="-97" y2="143.9"/>
			<line class="st3" x1="-81.7" y1="152" x2="-81.7" y2="143.9"/>
			<line class="st3" x1="-66.9" y1="152" x2="-66.9" y2="143.9"/>
			<line class="st3" x1="-51.7" y1="152" x2="-51.7" y2="143.9"/>
			<line class="st3" x1="-36.7" y1="152" x2="-36.7" y2="143.9"/>
			<line class="st3" x1="-21.4" y1="152" x2="-21.4" y2="143.9"/>
			<line class="st3" x1="-6.2" y1="152" x2="-6.2" y2="143.9"/>
			<line class="st3" x1="9.7" y1="152" x2="9.7" y2="143.9"/>
			<line class="st3" x1="-104.4" y1="160.7" x2="16.1" y2="160.5"/>
			<line class="st3" x1="-89.5" y1="160.3" x2="-89.5" y2="152.3"/>
			<line class="st3" x1="-74.2" y1="160.3" x2="-74.2" y2="152.3"/>
			<line class="st3" x1="-59.4" y1="160.3" x2="-59.4" y2="152.3"/>
			<line class="st3" x1="-44.1" y1="160.3" x2="-44.1" y2="152.3"/>
			<line class="st3" x1="-29.2" y1="160.3" x2="-29.2" y2="152.3"/>
			<line class="st3" x1="-13.9" y1="160.3" x2="-13.9" y2="152.3"/>
			<line class="st3" x1="1.3" y1="160.3" x2="1.3" y2="152.3"/>
			<line class="st3" x1="-104.2" y1="169.8" x2="16.1" y2="169.6"/>
			<line class="st3" x1="-97.1" y1="169.5" x2="-97.1" y2="161.4"/>
			<line class="st3" x1="-81.8" y1="169.5" x2="-81.8" y2="161.4"/>
			<line class="st3" x1="-67" y1="169.5" x2="-67" y2="161.4"/>
			<line class="st3" x1="-51.7" y1="169.5" x2="-51.7" y2="161.4"/>
			<line class="st3" x1="-36.8" y1="169.5" x2="-36.8" y2="161.4"/>
			<line class="st3" x1="-21.5" y1="169.5" x2="-21.5" y2="161.4"/>
			<line class="st3" x1="-6.3" y1="169.5" x2="-6.3" y2="161.4"/>
			<line class="st3" x1="9.6" y1="169.5" x2="9.6" y2="161.4"/>
			<line class="st3" x1="15.5" y1="88.6" x2="114.3" y2="88.4"/>
			<line class="st3" x1="15.5" y1="79.8" x2="114.3" y2="79.6"/>
			<line class="st3" x1="32.2" y1="88.2" x2="32.2" y2="80.2"/>
			<line class="st3" x1="47.5" y1="88.2" x2="47.5" y2="80.2"/>
			<line class="st3" x1="62.2" y1="88.2" x2="62.2" y2="80.2"/>
			<line class="st3" x1="77.5" y1="88.2" x2="77.5" y2="80.2"/>
			<line class="st3" x1="92.4" y1="88.2" x2="92.4" y2="80.2"/>
			<line class="st3" x1="107.7" y1="88.2" x2="107.7" y2="80.2"/>
			<line class="st3" x1="15.5" y1="97.7" x2="114.3" y2="97.5"/>
			<line class="st3" x1="24.6" y1="97.4" x2="24.6" y2="89.3"/>
			<line class="st3" x1="39.9" y1="97.4" x2="39.9" y2="89.3"/>
			<line class="st3" x1="54.6" y1="97.4" x2="54.6" y2="89.3"/>
			<line class="st3" x1="69.9" y1="97.4" x2="69.9" y2="89.3"/>
			<line class="st3" x1="84.8" y1="97.4" x2="84.8" y2="89.3"/>
			<line class="st3" x1="100.1" y1="97.4" x2="100.1" y2="89.3"/>
			<line class="st3" x1="15.6" y1="106.9" x2="114.4" y2="106.7"/>
			<line class="st3" x1="32.3" y1="106.5" x2="32.3" y2="98.5"/>
			<line class="st3" x1="47.6" y1="106.5" x2="47.6" y2="98.5"/>
			<line class="st3" x1="62.3" y1="106.5" x2="62.3" y2="98.5"/>
			<line class="st3" x1="77.6" y1="106.5" x2="77.6" y2="98.5"/>
			<line class="st3" x1="92.5" y1="106.5" x2="92.5" y2="98.5"/>
			<line class="st3" x1="107.8" y1="106.5" x2="107.8" y2="98.5"/>
			<line class="st3" x1="15.5" y1="116" x2="114.4" y2="115.8"/>
			<line class="st3" x1="24.7" y1="115.7" x2="24.7" y2="107.6"/>
			<line class="st3" x1="40" y1="115.7" x2="40" y2="107.6"/>
			<line class="st3" x1="54.7" y1="115.7" x2="54.7" y2="107.6"/>
			<line class="st3" x1="70" y1="115.7" x2="70" y2="107.6"/>
			<line class="st3" x1="84.9" y1="115.7" x2="84.9" y2="107.6"/>
			<line class="st3" x1="100.2" y1="115.7" x2="100.2" y2="107.6"/>
			<line class="st3" x1="16" y1="124.7" x2="114.8" y2="124.6"/>
			<line class="st3" x1="32.8" y1="124.4" x2="32.8" y2="116.3"/>
			<line class="st3" x1="48.1" y1="124.4" x2="48.1" y2="116.3"/>
			<line class="st3" x1="62.9" y1="124.4" x2="62.9" y2="116.3"/>
			<line class="st3" x1="78.2" y1="124.4" x2="78.2" y2="116.3"/>
			<line class="st3" x1="93.1" y1="124.4" x2="93.1" y2="116.3"/>
			<line class="st3" x1="108.4" y1="124.4" x2="108.4" y2="116.3"/>
			<line class="st3" x1="16" y1="133.9" x2="114.8" y2="133.7"/>
			<line class="st3" x1="25.2" y1="133.5" x2="25.2" y2="125.5"/>
			<line class="st3" x1="40.5" y1="133.5" x2="40.5" y2="125.5"/>
			<line class="st3" x1="55.3" y1="133.5" x2="55.3" y2="125.5"/>
			<line class="st3" x1="70.6" y1="133.5" x2="70.6" y2="125.5"/>
			<line class="st3" x1="85.5" y1="133.5" x2="85.5" y2="125.5"/>
			<line class="st3" x1="100.8" y1="133.5" x2="100.8" y2="125.5"/>
			<line class="st3" x1="16.1" y1="143" x2="114.9" y2="142.9"/>
			<line class="st3" x1="32.9" y1="142.7" x2="32.9" y2="134.6"/>
			<line class="st3" x1="48.2" y1="142.7" x2="48.2" y2="134.6"/>
			<line class="st3" x1="63" y1="142.7" x2="63" y2="134.6"/>
			<line class="st3" x1="78.3" y1="142.7" x2="78.3" y2="134.6"/>
			<line class="st3" x1="93.2" y1="142.7" x2="93.2" y2="134.6"/>
			<line class="st3" x1="108.5" y1="142.7" x2="108.5" y2="134.6"/>
			<line class="st3" x1="16" y1="152.2" x2="114.9" y2="152"/>
			<line class="st3" x1="25.3" y1="151.8" x2="25.3" y2="143.8"/>
			<line class="st3" x1="40.6" y1="151.8" x2="40.6" y2="143.8"/>
			<line class="st3" x1="55.4" y1="151.8" x2="55.4" y2="143.8"/>
			<line class="st3" x1="70.6" y1="151.8" x2="70.6" y2="143.8"/>
			<line class="st3" x1="85.6" y1="151.8" x2="85.6" y2="143.8"/>
			<line class="st3" x1="100.9" y1="151.8" x2="100.9" y2="143.8"/>
			<line class="st3" x1="16" y1="160.5" x2="114.8" y2="160.3"/>
			<line class="st3" x1="32.8" y1="160.1" x2="32.8" y2="152.1"/>
			<line class="st3" x1="48.1" y1="160.1" x2="48.1" y2="152.1"/>
			<line class="st3" x1="62.9" y1="160.1" x2="62.9" y2="152.1"/>
			<line class="st3" x1="78.2" y1="160.1" x2="78.2" y2="152.1"/>
			<line class="st3" x1="93.1" y1="160.1" x2="93.1" y2="152.1"/>
			<line class="st3" x1="108.4" y1="160.1" x2="108.4" y2="152.1"/>
			<line class="st3" x1="16" y1="169.6" x2="114.8" y2="169.4"/>
			<line class="st3" x1="25.2" y1="169.3" x2="25.2" y2="161.2"/>
			<line class="st3" x1="40.5" y1="169.3" x2="40.5" y2="161.2"/>
			<line class="st3" x1="55.3" y1="169.3" x2="55.3" y2="161.2"/>
			<line class="st3" x1="70.6" y1="169.3" x2="70.6" y2="161.2"/>
			<line class="st3" x1="85.5" y1="169.3" x2="85.5" y2="161.2"/>
			<line class="st3" x1="100.8" y1="169.3" x2="100.8" y2="161.2"/>
			<line class="st3" x1="16.8" y1="88.1" x2="16.8" y2="80.1"/>
			<line class="st3" x1="16.9" y1="106.4" x2="16.9" y2="98.4"/>
			<line class="st3" x1="17.4" y1="124.3" x2="17.4" y2="116.2"/>
			<line class="st3" x1="17.5" y1="142.6" x2="17.5" y2="134.5"/>
			<line class="st3" x1="17.4" y1="160" x2="17.4" y2="152"/>
		</g>
		<line class="st3" x1="-104.8" y1="-1.1" x2="15.7" y2="-1.3"/>
		<line class="st3" x1="-104.9" y1="-9.9" x2="15.7" y2="-10.1"/>
		<line class="st3" x1="-89.9" y1="-1.5" x2="-89.9" y2="-9.5"/>
		<line class="st3" x1="-74.6" y1="-1.5" x2="-74.6" y2="-9.5"/>
		<line class="st3" x1="-59.9" y1="-1.5" x2="-59.9" y2="-9.5"/>
		<line class="st3" x1="-44.6" y1="-1.5" x2="-44.6" y2="-9.5"/>
		<line class="st3" x1="-29.7" y1="-1.5" x2="-29.7" y2="-9.5"/>
		<line class="st3" x1="-14.4" y1="-1.5" x2="-14.4" y2="-9.5"/>
		<line class="st3" x1="0.9" y1="-1.5" x2="0.9" y2="-9.5"/>
		<line class="st3" x1="-104.7" y1="8" x2="15.6" y2="7.8"/>
		<line class="st3" x1="-97.5" y1="7.7" x2="-97.5" y2="-0.4"/>
		<line class="st3" x1="-82.2" y1="7.7" x2="-82.2" y2="-0.4"/>
		<line class="st3" x1="-67.5" y1="7.7" x2="-67.5" y2="-0.4"/>
		<line class="st3" x1="-52.2" y1="7.7" x2="-52.2" y2="-0.4"/>
		<line class="st3" x1="-37.3" y1="7.7" x2="-37.3" y2="-0.4"/>
		<line class="st3" x1="-22" y1="7.7" x2="-22" y2="-0.4"/>
		<line class="st3" x1="-6.7" y1="7.7" x2="-6.7" y2="-0.4"/>
		<line class="st3" x1="9.1" y1="7.7" x2="9.1" y2="-0.4"/>
		<line class="st3" x1="-104.7" y1="17.2" x2="15.8" y2="17"/>
		<line class="st3" x1="-89.8" y1="16.8" x2="-89.8" y2="8.8"/>
		<line class="st3" x1="-74.5" y1="16.8" x2="-74.5" y2="8.8"/>
		<line class="st3" x1="-59.8" y1="16.8" x2="-59.8" y2="8.8"/>
		<line class="st3" x1="-44.5" y1="16.8" x2="-44.5" y2="8.8"/>
		<line class="st3" x1="-29.6" y1="16.8" x2="-29.6" y2="8.8"/>
		<line class="st3" x1="-14.3" y1="16.8" x2="-14.3" y2="8.8"/>
		<line class="st3" x1="1" y1="16.8" x2="1" y2="8.8"/>
		<line class="st3" x1="-104.6" y1="26.3" x2="15.7" y2="26.1"/>
		<line class="st3" x1="-97.4" y1="26" x2="-97.4" y2="17.9"/>
		<line class="st3" x1="-82.1" y1="26" x2="-82.1" y2="17.9"/>
		<line class="st3" x1="-67.4" y1="26" x2="-67.4" y2="17.9"/>
		<line class="st3" x1="-52.1" y1="26" x2="-52.1" y2="17.9"/>
		<line class="st3" x1="-37.2" y1="26" x2="-37.2" y2="17.9"/>
		<line class="st3" x1="-21.9" y1="26" x2="-21.9" y2="17.9"/>
		<line class="st3" x1="-6.6" y1="26" x2="-6.6" y2="17.9"/>
		<line class="st3" x1="9.2" y1="26" x2="9.2" y2="17.9"/>
		<line class="st3" x1="-104.2" y1="35.1" x2="16.3" y2="34.9"/>
		<line class="st3" x1="-89.3" y1="34.7" x2="-89.3" y2="26.6"/>
		<line class="st3" x1="-74" y1="34.7" x2="-74" y2="26.6"/>
		<line class="st3" x1="-59.2" y1="34.7" x2="-59.2" y2="26.6"/>
		<line class="st3" x1="-43.9" y1="34.7" x2="-43.9" y2="26.6"/>
		<line class="st3" x1="-29" y1="34.7" x2="-29" y2="26.6"/>
		<line class="st3" x1="-13.7" y1="34.7" x2="-13.7" y2="26.6"/>
		<line class="st3" x1="1.5" y1="34.7" x2="1.5" y2="26.6"/>
		<line class="st3" x1="-104" y1="44.2" x2="16.3" y2="44"/>
		<line class="st3" x1="-96.9" y1="43.8" x2="-96.9" y2="35.8"/>
		<line class="st3" x1="-81.6" y1="43.8" x2="-81.6" y2="35.8"/>
		<line class="st3" x1="-66.9" y1="43.8" x2="-66.9" y2="35.8"/>
		<line class="st3" x1="-51.6" y1="43.8" x2="-51.6" y2="35.8"/>
		<line class="st3" x1="-36.6" y1="43.8" x2="-36.6" y2="35.8"/>
		<line class="st3" x1="-21.3" y1="43.8" x2="-21.3" y2="35.8"/>
		<line class="st3" x1="-6.1" y1="43.8" x2="-6.1" y2="35.8"/>
		<line class="st3" x1="9.8" y1="43.8" x2="9.8" y2="35.8"/>
		<line class="st3" x1="-104.1" y1="53.4" x2="16.4" y2="53.2"/>
		<line class="st3" x1="-89.2" y1="53" x2="-89.2" y2="44.9"/>
		<line class="st3" x1="-73.9" y1="53" x2="-73.9" y2="44.9"/>
		<line class="st3" x1="-59.1" y1="53" x2="-59.1" y2="44.9"/>
		<line class="st3" x1="-43.9" y1="53" x2="-43.9" y2="44.9"/>
		<line class="st3" x1="-28.9" y1="53" x2="-28.9" y2="44.9"/>
		<line class="st3" x1="-13.6" y1="53" x2="-13.6" y2="44.9"/>
		<line class="st3" x1="1.6" y1="53" x2="1.6" y2="44.9"/>
		<line class="st3" x1="-103.9" y1="62.5" x2="16.4" y2="62.3"/>
		<line class="st3" x1="-96.8" y1="62.1" x2="-96.8" y2="54.1"/>
		<line class="st3" x1="-81.5" y1="62.1" x2="-81.5" y2="54.1"/>
		<line class="st3" x1="-66.8" y1="62.1" x2="-66.8" y2="54.1"/>
		<line class="st3" x1="-51.5" y1="62.1" x2="-51.5" y2="54.1"/>
		<line class="st3" x1="-36.5" y1="62.1" x2="-36.5" y2="54.1"/>
		<line class="st3" x1="-21.2" y1="62.1" x2="-21.2" y2="54.1"/>
		<line class="st3" x1="-6" y1="62.1" x2="-6" y2="54.1"/>
		<line class="st3" x1="9.9" y1="62.1" x2="9.9" y2="54.1"/>
		<line class="st3" x1="-104.2" y1="70.8" x2="16.3" y2="70.6"/>
		<line class="st3" x1="-89.3" y1="70.4" x2="-89.3" y2="62.4"/>
		<line class="st3" x1="-74" y1="70.4" x2="-74" y2="62.4"/>
		<line class="st3" x1="-59.2" y1="70.4" x2="-59.2" y2="62.4"/>
		<line class="st3" x1="-43.9" y1="70.4" x2="-43.9" y2="62.4"/>
		<line class="st3" x1="-29" y1="70.4" x2="-29" y2="62.4"/>
		<line class="st3" x1="-13.7" y1="70.4" x2="-13.7" y2="62.4"/>
		<line class="st3" x1="1.5" y1="70.4" x2="1.5" y2="62.4"/>
		<line class="st3" x1="-96.9" y1="79.6" x2="-96.9" y2="71.5"/>
		<line class="st3" x1="-81.6" y1="79.6" x2="-81.6" y2="71.5"/>
		<line class="st3" x1="-66.9" y1="79.6" x2="-66.9" y2="71.5"/>
		<line class="st3" x1="-51.6" y1="79.6" x2="-51.6" y2="71.5"/>
		<line class="st3" x1="-36.6" y1="79.6" x2="-36.6" y2="71.5"/>
		<line class="st3" x1="-21.3" y1="79.6" x2="-21.3" y2="71.5"/>
		<line class="st3" x1="-6.1" y1="79.6" x2="-6.1" y2="71.5"/>
		<line class="st3" x1="9.8" y1="79.6" x2="9.8" y2="71.5"/>
		<line class="st3" x1="15.7" y1="-1.3" x2="114.5" y2="-1.5"/>
		<line class="st3" x1="15.7" y1="-10.1" x2="114.5" y2="-10.3"/>
		<line class="st3" x1="32.4" y1="-1.6" x2="32.4" y2="-9.7"/>
		<line class="st3" x1="47.7" y1="-1.6" x2="47.7" y2="-9.7"/>
		<line class="st3" x1="62.4" y1="-1.6" x2="62.4" y2="-9.7"/>
		<line class="st3" x1="77.7" y1="-1.6" x2="77.7" y2="-9.7"/>
		<line class="st3" x1="92.6" y1="-1.6" x2="92.6" y2="-9.7"/>
		<line class="st3" x1="107.9" y1="-1.6" x2="107.9" y2="-9.7"/>
		<line class="st3" x1="15.6" y1="7.8" x2="114.5" y2="7.6"/>
		<line class="st3" x1="24.8" y1="7.5" x2="24.8" y2="-0.6"/>
		<line class="st3" x1="40.1" y1="7.5" x2="40.1" y2="-0.6"/>
		<line class="st3" x1="54.8" y1="7.5" x2="54.8" y2="-0.6"/>
		<line class="st3" x1="70.1" y1="7.5" x2="70.1" y2="-0.6"/>
		<line class="st3" x1="85" y1="7.5" x2="85" y2="-0.6"/>
		<line class="st3" x1="100.3" y1="7.5" x2="100.3" y2="-0.6"/>
		<line class="st3" x1="15.7" y1="17" x2="114.6" y2="16.8"/>
		<line class="st3" x1="32.5" y1="16.7" x2="32.5" y2="8.6"/>
		<line class="st3" x1="47.8" y1="16.7" x2="47.8" y2="8.6"/>
		<line class="st3" x1="62.5" y1="16.7" x2="62.5" y2="8.6"/>
		<line class="st3" x1="77.8" y1="16.7" x2="77.8" y2="8.6"/>
		<line class="st3" x1="92.7" y1="16.7" x2="92.7" y2="8.6"/>
		<line class="st3" x1="108" y1="16.7" x2="108" y2="8.6"/>
		<line class="st3" x1="15.7" y1="26.1" x2="114.5" y2="25.9"/>
		<line class="st3" x1="24.9" y1="25.8" x2="24.9" y2="17.7"/>
		<line class="st3" x1="40.2" y1="25.8" x2="40.2" y2="17.7"/>
		<line class="st3" x1="54.9" y1="25.8" x2="54.9" y2="17.7"/>
		<line class="st3" x1="70.2" y1="25.8" x2="70.2" y2="17.7"/>
		<line class="st3" x1="85.1" y1="25.8" x2="85.1" y2="17.7"/>
		<line class="st3" x1="100.4" y1="25.8" x2="100.4" y2="17.7"/>
		<line class="st3" x1="16.2" y1="34.9" x2="115" y2="34.7"/>
		<line class="st3" x1="33" y1="34.5" x2="33" y2="26.4"/>
		<line class="st3" x1="48.3" y1="34.5" x2="48.3" y2="26.4"/>
		<line class="st3" x1="63.1" y1="34.5" x2="63.1" y2="26.4"/>
		<line class="st3" x1="78.4" y1="34.5" x2="78.4" y2="26.4"/>
		<line class="st3" x1="93.3" y1="34.5" x2="93.3" y2="26.4"/>
		<line class="st3" x1="108.6" y1="34.5" x2="108.6" y2="26.4"/>
		<line class="st3" x1="16.2" y1="44" x2="115" y2="43.8"/>
		<line class="st3" x1="25.4" y1="43.6" x2="25.4" y2="35.6"/>
		<line class="st3" x1="40.7" y1="43.6" x2="40.7" y2="35.6"/>
		<line class="st3" x1="55.4" y1="43.6" x2="55.4" y2="35.6"/>
		<line class="st3" x1="70.7" y1="43.6" x2="70.7" y2="35.6"/>
		<line class="st3" x1="85.7" y1="43.6" x2="85.7" y2="35.6"/>
		<line class="st3" x1="101" y1="43.6" x2="101" y2="35.6"/>
		<line class="st3" x1="16.3" y1="53.2" x2="115.1" y2="53"/>
		<line class="st3" x1="33.1" y1="52.8" x2="33.1" y2="44.7"/>
		<line class="st3" x1="48.4" y1="52.8" x2="48.4" y2="44.7"/>
		<line class="st3" x1="63.2" y1="52.8" x2="63.2" y2="44.7"/>
		<line class="st3" x1="78.4" y1="52.8" x2="78.4" y2="44.7"/>
		<line class="st3" x1="93.4" y1="52.8" x2="93.4" y2="44.7"/>
		<line class="st3" x1="108.7" y1="52.8" x2="108.7" y2="44.7"/>
		<line class="st3" x1="16.2" y1="62.3" x2="115.1" y2="62.1"/>
		<line class="st3" x1="25.5" y1="61.9" x2="25.5" y2="53.9"/>
		<line class="st3" x1="40.8" y1="61.9" x2="40.8" y2="53.9"/>
		<line class="st3" x1="55.5" y1="61.9" x2="55.5" y2="53.9"/>
		<line class="st3" x1="70.8" y1="61.9" x2="70.8" y2="53.9"/>
		<line class="st3" x1="85.8" y1="61.9" x2="85.8" y2="53.9"/>
		<line class="st3" x1="101.1" y1="61.9" x2="101.1" y2="53.9"/>
		<line class="st3" x1="16.2" y1="70.6" x2="115" y2="70.4"/>
		<line class="st3" x1="33" y1="70.3" x2="33" y2="62.2"/>
		<line class="st3" x1="48.3" y1="70.3" x2="48.3" y2="62.2"/>
		<line class="st3" x1="63.1" y1="70.3" x2="63.1" y2="62.2"/>
		<line class="st3" x1="78.4" y1="70.3" x2="78.4" y2="62.2"/>
		<line class="st3" x1="93.3" y1="70.3" x2="93.3" y2="62.2"/>
		<line class="st3" x1="108.6" y1="70.3" x2="108.6" y2="62.2"/>
		<line class="st3" x1="25.4" y1="79.4" x2="25.4" y2="71.3"/>
		<line class="st3" x1="40.7" y1="79.4" x2="40.7" y2="71.3"/>
		<line class="st3" x1="55.4" y1="79.4" x2="55.4" y2="71.3"/>
		<line class="st3" x1="70.7" y1="79.4" x2="70.7" y2="71.3"/>
		<line class="st3" x1="85.7" y1="79.4" x2="85.7" y2="71.3"/>
		<line class="st3" x1="101" y1="79.4" x2="101" y2="71.3"/>
		<line class="st3" x1="17" y1="-1.8" x2="17" y2="-9.8"/>
		<line class="st3" x1="17.1" y1="16.5" x2="17.1" y2="8.5"/>
		<line class="st3" x1="17.6" y1="34.4" x2="17.6" y2="26.3"/>
		<line class="st3" x1="17.7" y1="52.7" x2="17.7" y2="44.6"/>
		<line class="st3" x1="17.6" y1="70.2" x2="17.6" y2="62.1"/>
	</g>
	<line class="st33" x1="115.2" y1="-18.4" x2="115.2" y2="169.8"/>
	<path class="st34" d="M68.1,59.7H16.4c-2,0-3.6-1.6-3.6-3.6v0c0-2,1.6-3.6,3.6-3.6h51.7c2,0,3.6,1.6,3.6,3.6v0
		C71.7,58.1,70.1,59.7,68.1,59.7z"/>
	<line class="st35" x1="62.6" y1="118.1" x2="21" y2="118.1"/>
	<path class="st36" d="M62.9,142.6v-48c0-1.3-0.5-1.1-1.8-1.1H23c-1.3,0-2.5-0.3-2.5,1.1v48.3"/>
	<path class="st34" d="M67.9,150H16.2c-2,0-3.6-1.6-3.6-3.6l0,0c0-2,1.6-3.6,3.6-3.6h51.7c2,0,3.6,1.6,3.6,3.6l0,0
		C71.5,148.4,69.9,150,67.9,150z"/>
	<g class="st37">
		<circle class="st9" cx="55.6" cy="111.8" r="11.5"/>
		<circle class="st10" cx="55.6" cy="111.8" r="10"/>
		<circle class="st11" cx="55.6" cy="103.4" r="0.3"/>
		<circle class="st11" cx="47" cy="111.8" r="0.3"/>
		<circle class="st11" cx="55.6" cy="120.6" r="0.3"/>
		<circle class="st11" cx="64.2" cy="111.8" r="0.3"/>
		<polyline class="st12" points="55.6,106.1 55.6,112 60.1,112 		"/>
		<path class="st13" d="M55.8,114.8C55.8,114.8,55.8,114.8,55.8,114.8c-0.4,0.5-0.7,1.1-1.1,1.7c0.2,0,0.5,0,0.7,0c0,0.3,0,0.7,0,1
			c0,0,0,0,0,0c0.4-0.6,0.7-1.1,1.1-1.7c-0.2,0-0.5,0-0.7,0C55.7,115.5,55.8,115.1,55.8,114.8z"/>
	</g>
	<path class="st38" d="M263.1,168.5c-7.6,0-13.7-6.1-13.7-13.7c0-7.6,6.1-13.7,13.7-13.7c7.6,0,13.7,6.1,13.7,13.7
		C276.8,162.3,270.7,168.5,263.1,168.5L263.1,168.5z"/>
	<path class="st38" d="M151.5,168.4c7.6,0,13.7-6.1,13.7-13.7c0-7.6-6.1-13.7-13.7-13.7c-7.6,0-13.7,6.1-13.7,13.7
		C137.8,162.3,144,168.4,151.5,168.4L151.5,168.4z"/>
	<path class="st39" d="M263.1,164.7c-5.5,0-9.9-4.5-9.9-9.9c0-5.5,4.5-9.9,9.9-9.9c5.5,0,9.9,4.5,9.9,9.9
		C273.1,160.3,268.6,164.7,263.1,164.7L263.1,164.7z"/>
	<path class="st40" d="M263.1,157.9c-1.8,0-3.2-1.4-3.2-3.2c0-1.8,1.4-3.2,3.2-3.2c1.8,0,3.2,1.4,3.2,3.2
		C266.3,156.5,264.9,157.9,263.1,157.9L263.1,157.9z"/>
	<path class="st40" d="M125.6,133.4l0.4-0.1c0.3-0.1,0.5-0.2,0.7-0.4c3.3-3.1,7.6-6.1,13.1-8.8c2.2-1.1,3.9-2.5,5.4-4.4l6.7-8.7
		l0.1-0.3c-2.6-0.1-7.7-0.1-10-0.5c-0.8-0.2-2.9-0.7-2-1.1c2-0.9,5.2-1.5,8.8-1.9c1-0.1,1.9,0.3,2.8,0.4c1.5,0.1,2.9,0.2,4.4,0.2
		c0.4,0,1.4,0.1,1.4-0.6c0-0.2,0-0.5-0.1-0.7c-0.2-0.4-0.5-0.6-0.8-0.9c-0.1-0.1,0-0.2,0.1-0.2c0.6,0,1.2,0.1,1.8,0.3
		c1.2,0.4,2.4,0.9,3.6,1.2c0.7,0.2,1.3,0.1,1.9,0c0.7-0.1,1.4-0.1,2.2-0.2c2.9-0.2,5.8-0.4,8.7-0.6c2.9-0.2,5.8-0.3,8.7-0.4
		c2.9-0.1,5.8-0.1,8.7-0.2c2.9,0,5.8,0,8.7,0.1c2.9,0.1,5.8,0.3,8.7,0.5c6.6,0.5,12.3,1.8,18.3,4.2c8.5,3.6,16.7,8.3,25.1,12.2
		c4.9,2.3,12.8,2.9,18.2,3.5c1.3,0.1,2.3,0.4,3.5,0.8c9.7,3.3,15.9,6,19,8.9c1.3,1.3,2,2.3,2.5,3.6c0.1,0.3,0.2,0.5,0.4,0.7
		c0.8,1,1.5,2,2.2,3.1c0.1,0.2,0.2,0.4,0.2,0.6l0,0.6c0,0.3-0.4,0-0.4,0.3c-0.3,2.8-1.2,5.6-2.9,8.1c-0.1,0.1,0,0.2,0.1,0.2
		c1.2,0.4,2.3,1,2.9,1.7c0.1,0.1-0.2,0.1-0.2,0.1c-0.1,0.4-0.1,0.8-0.3,1.1c-0.2,0.2-0.4,0.3-0.6,0.4c-0.3,0.1-0.5,0.2-0.7,0.4
		c-0.6,0.3-1.1,0.5-1.8,0.6c-0.6,0.1-1.2,0.1-1.7,0.1c-0.9,0.1-1.8,0.1-2.7,0.3c-1.8,0.2-3.6,0.4-5.4,0.6c-0.1,0-0.1,0-0.2,0
		c-1.8,0.2-3.6,0.3-5.4,0.4c-0.1,0-0.3,0-0.4,0c-0.2,0-0.3-0.1-0.3-0.3c0.2-1.2,0.3-2.5,0.3-3.9c0-8.7-5.4-16.1-15.7-16.1
		c-8.5,0-13.7,5-15.2,11.7c-0.6,2.8-0.8,5.8-0.8,8.8c0,0.3-0.2,0.5-0.5,0.5c-27.3-0.6-62-1.3-79.2-0.1c-0.2,0-0.4-0.2-0.4-0.4
		c0.8-10.2-4.3-20.1-15.2-20.2c-11-0.1-17.4,7.1-16.6,18.2c0,0.1-0.1,0.2-0.2,0.1c-3.3-0.5-6.5-1.6-10-2.2c-1.8-0.4-3-2.5-3.4-4.1
		c-0.2-0.7,0.9-0.6,0.7-1.3c-0.7-2.8-0.8-5.8-0.4-9c0-0.2,0.1-0.4,0.2-0.5C123.4,138.6,124.1,135.3,125.6,133.4"/>
	<path class="st39" d="M151.5,164.7c5.5,0,9.9-4.5,9.9-9.9c0-5.5-4.5-9.9-9.9-9.9c-5.5,0-9.9,4.5-9.9,9.9
		C141.6,160.2,146,164.7,151.5,164.7L151.5,164.7z"/>
	<path class="st39" d="M293,149.6c-1.2,0.4-1.7,1.9-1.4,3.1c0.1,0.2,0.1,0.4,0.2,0.6c0.1,0.1,0.1,0.3,0.3,0.4c0.1,0.1,0.3,0,0.4-0.1
		c0.3-0.3,0.6-0.7,0.8-1.1c0.1-0.2,0.2-0.3,0.2-0.5c0.2-0.4,0.4-0.9,0.4-1.3c0.1-0.3,0.1-0.7-0.1-1
		C293.6,149.4,293.2,149.5,293,149.6z"/>
	<path class="st41" d="M294.1,148.1c-4.3-1.8-6.8,5.3-1.8,7.7"/>
	<path class="st39" d="M258.1,124.2l4.4,3.9c1.1,1,2.3,1.6,3.8,2c8.3,2,16.9,5.7,25.4,7.9c0.4,0.1,0.6,0.1,0.2-0.3
		c-4.9-5.3-10.5-8.6-16.6-10.2c-4.6-1.2-10.3-1-14.7-1"/>
	<path class="st41" d="M284.8,136c-5.6-2.2-10.2-5-12.3-9"/>
	<path class="st40" d="M296,139.4c-1.3-0.3-2.6-0.8-3.9-1.3"/>
	<path class="st41" d="M241.9,127.5c0.5,0.7,1.3,1.6,1.9,2.6c1.9,3,1.4,12.9-0.6,23.7c-0.3,1.4-1.4,2.4-2.9,2.4l-63.2-0.6
		c-2.9,0-4.7-1.3-6.4-3.5c-5.5-7.2-12.4-17.2-14.8-24.6c-0.8-2.4-0.8-4,1.3-5.7l3-2.4l0,0"/>
	<path class="st40" d="M208.2,130.5c-0.1-0.8-0.9-1.5-1.7-1.5h-1.6c-0.7,0-1.4,0.5-1.6,1.1l-0.1,1.6c0.1,0.9,0.8,1.6,1.7,1.6h1.6
		c0.8,0,1.5-0.6,1.7-1.4L208.2,130.5z"/>
	<path class="st40" d="M162.9,129.4c0.1,0.9,0.8,1.6,1.7,1.6h1.6c0.8,0,1.5-0.6,1.7-1.4l0-1.5c-0.1-0.8-0.9-1.5-1.7-1.5h-1.6
		c-0.7,0-1.4,0.5-1.6,1.1L162.9,129.4z"/>
	<path class="st39" d="M137.9,122.5l-3.6,1c-0.6,0.2-1.1,0.4-1.5,0.9c-2,2.1-3.8,4.2-5.2,6.3"/>
	<path class="st39" d="M148.3,110.5c-0.5,0-1,0.2-1.3,0.6l-7.8,10.1c-0.5,0.6-0.9,1-1.5,1.5c-4,2.8-7.6,5.8-11,8.8
		c-0.4,0.4-0.7,0.7-0.9,1.2l-0.3,0.5c-0.1,0.1,0,0.2,0.2,0.2l0.4-0.1c0.3-0.1,0.5-0.2,0.7-0.4c3.3-3.1,7.6-6.1,13.1-8.8
		c2.2-1.1,3.9-2.5,5.4-4.4l6.7-8.7l0.1-0.3C150.9,110.6,149.8,110.6,148.3,110.5"/>
	<path class="st39" d="M234.5,127.2c5.5,0.2,11.2,0.5,16.9,0.7c0.3,0,0.5-0.3,0.4-0.6c-0.5-1.4-1.5-2.6-3.1-3.7
		c-5.6-3.7-13.9-7.9-20-10.6c-7.9-3.5-15.2-5.1-23.8-5.3c-16-0.4-31.8,0.7-47.4,2.4c-0.8,0.1-1.2,0.9-0.9,1.6c1,2,2,4.4,3.1,6.3
		c0.7,1.3,1.7,2,3.1,2.5c6.8,2.2,22.3,3.9,34.6,4.8c11,0.8,22.6,1.3,34.7,1.8L234.5,127.2z"/>
	<path class="st40" d="M232.7,124.8c0.3-1.6,2.2-2.7,3.7-2.2c2.8,0.9,4.6,2.5,5.5,4.6c0.1,0.2,0,0.4-0.1,0.5
		c-1.6,1.5-3.4,1.8-6.3,1.5C233.8,129.1,232.3,126.4,232.7,124.8L232.7,124.8z"/>
	<path class="st41" d="M197.3,155.7c1.3-9.8,1.8-19.7-0.1-30.9l-2.8-17.2"/>
	<path class="st40" d="M151.5,158c-1.8,0-3.2-1.4-3.2-3.2c0-1.8,1.4-3.2,3.2-3.2c1.8,0,3.2,1.4,3.2,3.2
		C154.7,156.5,153.3,158,151.5,158L151.5,158z"/>
	<line class="st42" x1="199.1" y1="120" x2="202.6" y2="122.5"/>
	<line class="st42" x1="198.5" y1="115.2" x2="209" y2="123.3"/>
	<line class="st42" x1="172.6" y1="111.1" x2="177.3" y2="114.7"/>
	<line class="st42" x1="168.8" y1="111.6" x2="172.3" y2="114.4"/>
	<circle class="st43" cx="93.2" cy="121.5" r="12.3"/>
	<circle class="st44" cx="93.2" cy="121.5" r="3.4"/>
	<path class="st43" d="M89,124.4c-0.6-0.8-0.9-1.8-0.9-2.9c0-1.1,0.3-2.1,0.9-2.9"/>
	<path class="st43" d="M97.3,118.4c0.6,0.8,1,1.9,1,3c0,1.1-0.4,2.2-1,3"/>
	<path class="st45" d="M89,129.1c-2.7-1.5-4.5-4.3-4.5-7.7c0-3.3,1.8-6.1,4.5-7.6"/>
	<path class="st45" d="M97.3,113.8c2.7,1.5,4.6,4.3,4.6,7.7c0,3.3-1.9,6.2-4.6,7.7"/>
	<line class="st43" x1="89" y1="118.6" x2="89" y2="109.9"/>
	<line class="st43" x1="89" y1="129.1" x2="89" y2="124.4"/>
	<line class="st43" x1="89" y1="133" x2="89" y2="129.1"/>
	<line class="st43" x1="97.3" y1="124.5" x2="97.3" y2="133.1"/>
	<line class="st43" x1="97.3" y1="109.9" x2="97.3" y2="118.4"/>
	<circle class="st44" cx="93.2" cy="129.3" r="1.8"/>
	<path class="st45" d="M93.2,121.7c1.7,0,10.4-0.3,13.7,0.4c9.1,2,8,5.5,15.2,8.1c4,1.4,17.4,0.8,23,0.8"/>
	<circle class="st45" cx="145.1" cy="131.1" r="3.7"/>
	<path class="st46" d="M62.6,51.7v-48c0-1.3-0.5-1.1-1.8-1.1H22.7c-1.3,0-2.5-0.3-2.5,1.1V52"/>
	<line class="st47" x1="41.3" y1="2.6" x2="41.3" y2="52.5"/>
	<line class="st47" x1="20.2" y1="30" x2="62" y2="30"/>
	<line class="st47" x1="41.7" y1="94" x2="41.7" y2="142.9"/>
	<line class="st47" x1="21.2" y1="118.2" x2="63" y2="118.2"/>
	<rect x="63.6" y="100.3" class="st48" width="4.3" height="23"/>
	<path class="st49" d="M63,142.2v-48c0-1.3-0.5-1.1-1.8-1.1H23c-1.3,0-2.5-0.3-2.5,1.1v48.3"/>
	<g class="st32">
		<line class="st26" x1="28.7" y1="98.2" x2="33.4" y2="101.8"/>
		<line class="st26" x1="24.8" y1="98.8" x2="28.4" y2="101.6"/>
	</g>
	<g class="st32">
		<line class="st26" x1="46.2" y1="136.7" x2="49.7" y2="139.2"/>
		<line class="st26" x1="45.5" y1="131.9" x2="56.1" y2="140.1"/>
	</g>
	<path class="st50" d="M227.5,30.5c0,0.2,0,0.3-0.1,0.5l0,0.1l-5.9,0c-0.1-0.2-0.1-0.3-0.1-0.5c0-0.8,0.7-1.5,1.6-1.5
		c0,0,0.1,0,0.1,0l0,0c0.2-0.6,0.9-1,1.6-1c0.8,0,1.6,0.5,1.7,1.3l0.1,0c0.2,0,0.4,0.1,0.5,0.3c0.2,0.1,0.3,0.3,0.4,0.5
		C227.5,30.2,227.5,30.4,227.5,30.5"/>
	<path class="st50" d="M191.8,55.8c-1.4,0.4-2.5,1.6-2.5,3.2c0,0.1,0,0.2,0,0.4l13.8,0c0.1-1.4-1-1.8-1-1.8c0-1.5-1.1-2.6-2.9-2.5h0
		c-0.6-1.4-2-2.4-3.6-2.4C193.7,52.6,192.1,54,191.8,55.8"/>
	<g class="st32">
		<path class="st28" d="M150.9,50.8c0.3-0.1,0.6-0.2,0.9-0.3c0.3-0.1,0.5-0.2,0.8-0.2c0.1,0,0.1,0,0.2,0c0.4,0,0.7,0.1,1,0.3
			c0.3,0.2,0.7,0.4,1,0.7l0,0l0,0c0.1,0.1,0.3,0.1,0.4,0.1c0.1,0,0.2,0,0.3-0.1c0.1-0.1,0.2-0.2,0.2-0.3c0.1-0.3,0.2-0.5,0.4-0.8
			c0.1-0.2,0.3-0.5,0.4-0.6c0.2-0.2,0.4-0.3,0.7-0.4c0.3-0.1,0.6-0.2,0.9-0.3c0.2-0.1,0.3-0.3,0.3-0.5c-0.1-0.2-0.3-0.3-0.5-0.3
			c-0.3,0.1-0.6,0.2-1,0.3c-0.3,0.1-0.7,0.3-1,0.6c-0.2,0.3-0.4,0.5-0.6,0.8c-0.2,0.3-0.3,0.6-0.4,0.8l0.2,0.1l-0.1-0.2
			c0,0-0.1,0-0.1,0.1l0.2,0.1l-0.1-0.2l0.1,0.2v-0.2c0,0-0.1,0-0.1,0l0.1,0.2v-0.2v0.2l0.1-0.1c0,0-0.1,0-0.1,0v0.2l0.1-0.1
			c-0.4-0.3-0.7-0.6-1.1-0.8c-0.4-0.2-0.9-0.4-1.4-0.4c-0.1,0-0.2,0-0.3,0c-0.3,0-0.7,0.1-1,0.2c-0.3,0.1-0.6,0.2-0.8,0.3
			c-0.2,0.1-0.3,0.3-0.3,0.5C150.5,50.7,150.7,50.8,150.9,50.8z"/>
		<path class="st28" d="M153.5,50.5c0.2,0.1,0.4,0.2,0.6,0.4c0.2,0.2,0.4,0.4,0.6,0.6c0.1,0.1,0.3,0.2,0.4,0.2c0.1,0,0.3,0,0.4-0.1
			c0.1-0.1,0.2-0.2,0.3-0.3c0.1-0.3,0.2-0.5,0.3-0.8c0.1-0.2,0.2-0.5,0.3-0.6c0.1-0.2,0.1-0.4-0.1-0.6c-0.2-0.1-0.4-0.1-0.6,0.1
			c-0.2,0.3-0.4,0.6-0.5,0.9c-0.1,0.3-0.2,0.5-0.3,0.8v0l0.2,0.1l-0.1-0.2c0,0-0.1,0-0.1,0.1l0.2,0.1l-0.1-0.2l0.1,0.1v-0.1
			c0,0,0,0-0.1,0l0.1,0.1v-0.1v0.1l0.1-0.1c0,0-0.1,0-0.1,0v0.1l0.1-0.1c-0.2-0.2-0.4-0.4-0.6-0.6c-0.2-0.2-0.5-0.4-0.8-0.5
			c-0.2-0.1-0.5,0-0.5,0.2C153.2,50.1,153.3,50.4,153.5,50.5"/>
		<path class="st28" d="M133.9,39.1c0.3,0.1,0.6,0.1,0.8,0.2c0.3,0.1,0.5,0.1,0.7,0.2c0.2,0.1,0.3,0.2,0.4,0.3
			c0.2,0.2,0.3,0.5,0.4,0.8c0.1,0.3,0.2,0.7,0.2,1.1c0,0.1,0.1,0.3,0.2,0.4c0.1,0.1,0.2,0.1,0.4,0.1c0.2,0,0.3-0.1,0.4-0.2l0,0l0,0
			c0.3-0.2,0.5-0.5,0.8-0.6c0.3-0.2,0.5-0.4,0.8-0.5c0.2-0.1,0.3-0.1,0.5-0.1c0.3,0,0.7,0.1,1.1,0.2c0.2,0,0.4-0.1,0.5-0.3
			c0-0.2-0.1-0.4-0.3-0.5c-0.4-0.1-0.8-0.2-1.3-0.2c-0.3,0-0.5,0-0.8,0.2c-0.3,0.1-0.7,0.3-0.9,0.6s-0.6,0.5-0.8,0.7v0l0.1,0.1v-0.2
			c-0.1,0-0.1,0-0.1,0l0.1,0.1v-0.2v0.3l0.2-0.2c0,0-0.1-0.1-0.2-0.1v0.3l0.2-0.2l-0.1,0.2l0.2,0c0,0,0-0.1-0.1-0.1l-0.1,0.2l0.2,0
			c-0.1-0.5-0.2-1.1-0.4-1.5c-0.1-0.2-0.2-0.5-0.4-0.7c-0.2-0.2-0.4-0.4-0.6-0.5c-0.3-0.2-0.6-0.2-0.9-0.3c-0.3-0.1-0.6-0.1-0.8-0.2
			c-0.2-0.1-0.4,0.1-0.5,0.3C133.6,38.8,133.7,39,133.9,39.1"/>
		<path class="st28" d="M136,40.1c0.1,0.2,0.2,0.5,0.2,0.8c0,0.3,0.1,0.6,0.1,1c0,0.2,0.1,0.3,0.2,0.4c0.1,0.1,0.3,0.2,0.4,0.2
			c0.2,0,0.3-0.1,0.4-0.2c0.3-0.2,0.5-0.5,0.7-0.7c0.2-0.2,0.5-0.4,0.7-0.5c0.2-0.1,0.3-0.4,0.2-0.6c-0.1-0.2-0.4-0.3-0.6-0.2
			c-0.3,0.2-0.6,0.4-0.9,0.7c-0.3,0.2-0.5,0.5-0.7,0.7l0.1,0.1v-0.2c0,0-0.1,0-0.1,0l0.1,0.1v-0.2v0.2l0.1-0.2c0,0-0.1,0-0.1,0v0.2
			l0.1-0.2l-0.1,0.1l0.2,0c0,0,0-0.1-0.1-0.1l-0.1,0.1l0.2,0c0-0.3-0.1-0.6-0.1-0.9c0-0.3-0.1-0.7-0.3-1c-0.1-0.2-0.4-0.3-0.6-0.2
			C136,39.6,135.9,39.9,136,40.1"/>
	</g>
	<path class="st50" d="M152.2,83.9c-1.3,0.3-2.3,1.5-2.3,2.9c0,0.1,0,0.2,0,0.3l12.7,0c0.1-1.2-0.9-1.7-0.9-1.7c0-1.4-1-2.4-2.6-2.3
		h0c-0.6-1.3-1.8-2.2-3.3-2.2C154,80.9,152.5,82.2,152.2,83.9"/>
	<path class="st50" d="M165.4,87.2h8c0.2,0,0.4-0.2,0.4-0.4c0-0.2-0.2-0.4-0.4-0.4h-8c-0.2,0-0.4,0.2-0.4,0.4
		C165,87,165.2,87.2,165.4,87.2"/>
	<path class="st50" d="M133.1,87.3h2c0.2,0,0.4-0.2,0.4-0.4c0-0.2-0.2-0.4-0.4-0.4h-2c-0.2,0-0.4,0.2-0.4,0.4
		C132.7,87.1,132.9,87.3,133.1,87.3"/>
	<path class="st50" d="M230.1,31.2h8c0.2,0,0.4-0.2,0.4-0.4c0-0.2-0.2-0.4-0.4-0.4h-8c-0.2,0-0.4,0.2-0.4,0.4
		C229.7,31,229.9,31.2,230.1,31.2"/>
	<path class="st50" d="M239.6,44.5h2c0.2,0,0.4-0.2,0.4-0.4c0-0.2-0.2-0.4-0.4-0.4h-2c-0.2,0-0.4,0.2-0.4,0.4
		C239.2,44.4,239.4,44.5,239.6,44.5"/>
	<path class="st50" d="M210.6,81.3h2c0.2,0,0.4-0.2,0.4-0.4c0-0.2-0.2-0.4-0.4-0.4h-2c-0.2,0-0.4,0.2-0.4,0.4
		C210.2,81.1,210.4,81.3,210.6,81.3"/>
	<path class="st50" d="M184.5,59.6h2c0.2,0,0.4-0.2,0.4-0.4c0-0.2-0.2-0.4-0.4-0.4h-2c-0.2,0-0.4,0.2-0.4,0.4
		C184.1,59.4,184.3,59.6,184.5,59.6"/>
	<path class="st50" d="M174.2,59.6h8c0.2,0,0.4-0.2,0.4-0.4c0-0.2-0.2-0.4-0.4-0.4h-8c-0.2,0-0.4,0.2-0.4,0.4
		C173.8,59.4,174,59.6,174.2,59.6"/>
	<line class="st33" x1="7.8" y1="169.7" x2="215.1" y2="169.7"/>
</g>
<path class="st29" d="M191.1,55.8c-1.4,0.4-2.5,1.6-2.5,3.2c0,0.1,0,0.2,0,0.4l13.8,0c0.1-1.4-1-1.8-1-1.8c0-1.5-1.1-2.6-2.9-2.5h0
	c-0.6-1.4-2-2.4-3.6-2.4C193.1,52.6,191.4,53.9,191.1,55.8"/>
<path class="st29" d="M183.4,36.9c0,0.1,0,0.2-0.1,0.4l0,0l-4.6,0c-0.1-0.1-0.1-0.3-0.1-0.4c0-0.6,0.6-1.2,1.3-1.2c0,0,0.1,0,0.1,0
	l0,0c0.2-0.5,0.7-0.8,1.3-0.8c0.7,0,1.2,0.4,1.3,1l0.1,0c0.1,0,0.3,0.1,0.4,0.2c0.1,0.1,0.2,0.2,0.3,0.4
	C183.3,36.6,183.3,36.7,183.4,36.9"/>
<path class="st29" d="M176.5,37.3c0-1-0.7-1.9-1.6-2.2v0c-0.2-1.2-1.3-2.1-2.5-2.2l0,0c-0.6-0.9-1.7-1.4-2.9-1.4
	c-1.5,0-2.8,1.1-3.3,2.5h-0.2c-1.8,0-3.2,1.3-3.2,3.1c0,0.1,0,0.2,0,0.3L176.5,37.3z"/>
<path class="st29" d="M157.6,37.4h1.5c0.2,0,0.3-0.1,0.3-0.3c0-0.2-0.1-0.3-0.3-0.3h-1.5c-0.2,0-0.3,0.1-0.3,0.3
	C157.3,37.2,157.4,37.4,157.6,37.4"/>
<path class="st29" d="M200.3,75.3h8c0.2,0,0.4-0.2,0.4-0.4c0-0.2-0.2-0.4-0.4-0.4h-8c-0.2,0-0.4,0.2-0.4,0.4
	C199.9,75.1,200.1,75.3,200.3,75.3"/>
<path class="st29" d="M205.1,59.3h2c0.2,0,0.4-0.2,0.4-0.4c0-0.2-0.2-0.4-0.4-0.4h-2c-0.2,0-0.4,0.2-0.4,0.4
	C204.7,59.1,204.9,59.3,205.1,59.3"/>
</svg>
