<?xml version="1.0" encoding="utf-8"?>
<!-- Generator: Adobe Illustrator 21.0.2, SVG Export Plug-In . SVG Version: 6.00 Build 0)  -->
<svg version="1.1" id="Layer_1" xmlns="http://www.w3.org/2000/svg" xmlns:xlink="http://www.w3.org/1999/xlink" x="0px" y="0px"
	 viewBox="0 0 607 501" style="enable-background:new 0 0 607 501;" xml:space="preserve">
<style type="text/css">
	.st0{fill:#FFFFFF;stroke:#FFFFFF;stroke-miterlimit:10;}
	.st1{fill:#8FC043;stroke:#E6E6E6;stroke-width:2;stroke-linecap:round;stroke-miterlimit:10;}
	.st2{fill:none;stroke:#333333;stroke-width:1.5;stroke-miterlimit:10;}
	.st3{fill:#F2F2F2;stroke:#83B642;stroke-width:2;stroke-linecap:round;stroke-miterlimit:10;}
	.st4{fill:#F2F2F2;stroke:#333333;stroke-width:2;stroke-miterlimit:10;}
	.st5{fill:#FFFFFF;stroke:#333333;stroke-width:2;stroke-miterlimit:10;}
	.st6{fill:#F2F2F2;stroke:#CCCCCC;stroke-width:2;}
	.st7{fill:#FFFFFF;stroke:#333333;stroke-width:2;}
	.st8{fill:#F2F2F2;stroke:#333333;stroke-width:2;}
	.st9{fill:none;stroke:#F2F2F2;stroke-width:2;stroke-linecap:round;stroke-miterlimit:10;}
	.st10{opacity:0.51;fill:#F2F2F2;stroke:#CCCCCC;stroke-width:5;stroke-linecap:round;stroke-miterlimit:10;}
	.st11{fill:none;stroke:#333333;stroke-width:1.5;stroke-linecap:round;stroke-linejoin:round;stroke-miterlimit:10;}
	.st12{fill:none;stroke:#4D4D4D;stroke-width:0.75;stroke-linecap:round;stroke-miterlimit:10;}
	.st13{fill:none;stroke:#4D4D4D;stroke-width:2;stroke-linecap:round;stroke-miterlimit:10;}
	.st14{fill:#CCCCCC;stroke:#333333;stroke-width:2;stroke-miterlimit:10;}
	.st15{fill:none;stroke:#999999;stroke-width:2;stroke-linecap:round;stroke-miterlimit:10;}
	.st16{fill:#333333;}
	.st17{fill:#8CC03F;}
	.st18{fill:#F2F2F2;stroke:#F2F2F2;stroke-miterlimit:10;}
	.st19{fill:#E6E6E6;stroke:#CCCCCC;stroke-width:0.75;stroke-miterlimit:10;}
	.st20{fill:#8FC043;stroke:#333333;stroke-width:1.5;}
	.st21{fill:none;stroke:#333333;stroke-width:1.5;stroke-linecap:round;stroke-miterlimit:10;}
	.st22{fill:none;stroke:#CCCCCC;stroke-width:5;stroke-linecap:round;stroke-miterlimit:10;}
	.st23{fill:none;stroke:#FFFFFF;stroke-width:1.5;stroke-linecap:round;stroke-miterlimit:10;}
	.st24{font-family:'GothamRounded-Light';}
	.st25{font-size:14px;}
	.st26{fill:#8FC043;stroke:#333333;}
	.st27{fill:#FFFFFF;}
	.st28{font-family:'GothamRounded-Medium';}
	.st29{font-size:16px;}
	.st30{fill:none;stroke:#333333;stroke-linecap:round;stroke-dasharray:4,6;}
</style>
<path class="st0" d="M524.1,25.7c0,1.3-0.2,2.6-0.7,3.8l-0.2,0.5l-49.8,0c-0.5-1.4-0.8-2.8-0.8-4.4c0-6.9,6.2-12.5,13.7-12.5
	c0.3,0,0.6,0,0.9,0l0,0c2.1-5.1,7.5-8.8,13.8-8.8c7.1,0,13.1,4.6,14.4,10.7c0,0.1,0.5,0.1,0.6,0.2c1.5,0.4,2.9,1.2,4.1,2.1
	c1.3,1.1,2.4,2.4,3,3.9C523.7,22.6,524.1,24.2,524.1,25.7"/>
<path class="st0" d="M539.7,26.5c1.4,0.4,2.4,1.6,2.4,3.1c0,0.1,0,0.2,0,0.3h-13.5c-0.1-1.3,1-1.8,1-1.8c0-1.5,1.1-2.6,2.8-2.4h0
	c0.6-1.4,1.9-2.3,3.5-2.3C537.8,23.4,539.4,24.7,539.7,26.5"/>
<path class="st0" d="M547.6,29.8h5.9c0.6,0,1.2-0.5,1.2-1.2c0-0.6-0.5-1.2-1.2-1.2h-5.9c-0.6,0-1.2,0.5-1.2,1.2
	C546.4,29.3,546.9,29.8,547.6,29.8"/>
<path class="st0" d="M473.1,264.7c0,1.2-0.2,2.3-0.7,3.4l-0.2,0.4l-45,0c-0.5-1.2-0.8-2.5-0.8-3.9c0-6.3,5.6-11.3,12.4-11.3
	c0.3,0,0.5,0,0.8,0l0,0c1.9-4.6,6.7-7.9,12.5-7.9c6.4,0,11.8,4.2,13,9.7c0,0.1,0.4,0.1,0.5,0.1c1.4,0.3,2.6,1.1,3.7,1.9
	c1.2,1,2.1,2.2,2.7,3.5C472.7,261.9,473.1,263.3,473.1,264.7"/>
<path class="st0" d="M106.5,283.8c1.6,0.4,2.8,1.9,2.8,3.6c0,0.1,0,0.3,0,0.4H93.4c-0.1-1.6,1.1-2.1,1.1-2.1c-0.1-1.7,1.3-3,3.3-2.9
	h0c0.7-1.6,2.3-2.7,4.1-2.7C104.2,280.1,106.1,281.6,106.5,283.8"/>
<path class="st0" d="M115.8,287.6h7c0.8,0,1.4-0.6,1.4-1.4c0-0.8-0.6-1.4-1.4-1.4h-7c-0.8,0-1.4,0.6-1.4,1.4
	C114.4,287,115,287.6,115.8,287.6"/>
<path class="st0" d="M414.2,268h5.4c0.6,0,1.1-0.5,1.1-1.1c0-0.6-0.5-1.1-1.1-1.1h-5.4c-0.6,0-1.1,0.5-1.1,1.1
	C413.1,267.5,413.6,268,414.2,268"/>
<path class="st0" d="M406.8,113.2c-4.6,1.2-8,5.4-8,10.4c0,0.4,0,0.8,0.1,1.1l45.2,0c0.2-4.4-3.3-6-3.3-6c0.1-4.9-3.6-8.6-9.4-8.2
	h-0.1c-2-4.5-6.5-7.8-11.7-7.8C413.1,102.6,407.8,107,406.8,113.2"/>
<path class="st0" d="M451.4,125h21.1c0.6,0,1-0.5,1-1c0-0.6-0.5-1-1-1h-21.1c-0.6,0-1,0.5-1,1C450.3,124.5,450.8,125,451.4,125"/>
<path class="st0" d="M365.7,125.1h5.3c0.6,0,1-0.5,1-1c0-0.6-0.5-1-1-1h-5.3c-0.6,0-1,0.5-1,1C364.7,124.7,365.1,125.1,365.7,125.1"
	/>
<path class="st0" d="M126.2,49.6c0,1.2-0.2,2.4-0.7,3.5c0,0-0.2,0.4-0.2,0.4l-45.4,0c-0.5-1.2-0.8-2.6-0.8-4
	c0-6.3,5.6-11.4,12.5-11.4c0.3,0,0.6,0,0.8,0l0,0c1.9-4.7,6.8-8,12.6-8c6.5,0,11.9,4.2,13.1,9.8c0,0.1,0.5,0.1,0.5,0.1
	c1.4,0.3,2.7,1.1,3.7,1.9c1.2,1,2.2,2.2,2.8,3.6C125.9,46.8,126.2,48.2,126.2,49.6z"/>
<path class="st0" d="M83.9,208c4.8,1.2,8.3,5.6,8.3,10.7c0,0.4,0,0.8-0.1,1.2l-46.8,0c-0.2-4.6,3.4-6.3,3.4-6.3
	c-0.1-5.1,3.7-8.9,9.7-8.5h0.1c2.1-4.7,6.8-8.1,12.2-8.1C77.4,197.1,82.9,201.7,83.9,208"/>
<path class="st0" d="M35.2,215.3c1.8,0.5,3.2,2.1,3.2,4.1c0,0.2,0,0.3,0,0.5l-17.9,0c-0.1-1.7,1.3-2.4,1.3-2.4
	c-0.1-1.9,1.4-3.4,3.7-3.3h0.1c0.8-1.8,2.6-3.1,4.6-3.1C32.7,211.2,34.8,212.9,35.2,215.3"/>
<path class="st0" d="M98.2,220.1h21.9c0.6,0,1.1-0.5,1.1-1.1c0-0.6-0.5-1.1-1.1-1.1H98.2c-0.6,0-1.1,0.5-1.1,1.1
	C97.1,219.6,97.6,220.1,98.2,220.1"/>
<path class="st0" d="M9.5,220.3H15c0.6,0,1.1-0.5,1.1-1.1c0-0.6-0.5-1.1-1.1-1.1H9.5c-0.6,0-1.1,0.5-1.1,1.1
	C8.4,219.8,8.9,220.3,9.5,220.3"/>
<path class="st0" d="M238.5,198.6h6.3c0.7,0,1.2-0.6,1.2-1.2c0-0.7-0.6-1.2-1.2-1.2h-6.3c-0.7,0-1.2,0.6-1.2,1.2
	C237.3,198.1,237.8,198.6,238.5,198.6"/>
<path class="st0" d="M197.6,198.6h25.3c0.7,0,1.2-0.6,1.2-1.2c0-0.7-0.6-1.2-1.2-1.2h-25.3c-0.7,0-1.2,0.6-1.2,1.2
	C196.3,198.1,196.9,198.6,197.6,198.6"/>
<polyline class="st1" points="185.9,498.1 185.9,309.2 390.1,308.9 390.1,310.8 390.1,498.3 "/>
<polyline class="st2" points="185.9,497.6 185.9,308.8 390.1,308.5 390.1,310.3 390.1,497.9 "/>
<g>
	<g>
		<line class="st3" x1="389.8" y1="412.6" x2="278.3" y2="412.4"/>
		<line class="st3" x1="389.8" y1="403.4" x2="278.4" y2="403.2"/>
		<line class="st3" x1="376" y1="412.2" x2="376" y2="403.8"/>
		<line class="st3" x1="361.8" y1="412.2" x2="361.8" y2="403.8"/>
		<line class="st3" x1="348.2" y1="412.2" x2="348.2" y2="403.8"/>
		<line class="st3" x1="334.1" y1="412.2" x2="334.1" y2="403.8"/>
		<line class="st3" x1="320.3" y1="412.2" x2="320.3" y2="403.8"/>
		<line class="st3" x1="306.1" y1="412.2" x2="306.1" y2="403.8"/>
		<line class="st3" x1="292" y1="412.2" x2="292" y2="403.8"/>
		<line class="st3" x1="389.6" y1="422.2" x2="278.4" y2="422"/>
		<line class="st3" x1="383" y1="421.8" x2="383" y2="413.3"/>
		<line class="st3" x1="368.9" y1="421.8" x2="368.9" y2="413.3"/>
		<line class="st3" x1="355.2" y1="421.8" x2="355.2" y2="413.3"/>
		<line class="st3" x1="341.1" y1="421.8" x2="341.1" y2="413.3"/>
		<line class="st3" x1="327.3" y1="421.8" x2="327.3" y2="413.3"/>
		<line class="st3" x1="313.2" y1="421.8" x2="313.2" y2="413.3"/>
		<line class="st3" x1="299" y1="421.8" x2="299" y2="413.3"/>
		<line class="st3" x1="284.4" y1="421.8" x2="284.4" y2="413.3"/>
		<line class="st3" x1="389.7" y1="431.8" x2="278.2" y2="431.6"/>
		<line class="st3" x1="375.9" y1="431.4" x2="375.9" y2="423"/>
		<line class="st3" x1="361.7" y1="431.4" x2="361.7" y2="423"/>
		<line class="st3" x1="348.1" y1="431.4" x2="348.1" y2="423"/>
		<line class="st3" x1="334" y1="431.4" x2="334" y2="423"/>
		<line class="st3" x1="320.2" y1="431.4" x2="320.2" y2="423"/>
		<line class="st3" x1="306" y1="431.4" x2="306" y2="423"/>
		<line class="st3" x1="291.9" y1="431.4" x2="291.9" y2="423"/>
		<line class="st3" x1="389.5" y1="441.4" x2="278.3" y2="441.2"/>
		<line class="st3" x1="382.9" y1="441" x2="382.9" y2="432.5"/>
		<line class="st3" x1="368.8" y1="441" x2="368.8" y2="432.5"/>
		<line class="st3" x1="355.2" y1="441" x2="355.2" y2="432.5"/>
		<line class="st3" x1="341" y1="441" x2="341" y2="432.5"/>
		<line class="st3" x1="327.2" y1="441" x2="327.2" y2="432.5"/>
		<line class="st3" x1="313.1" y1="441" x2="313.1" y2="432.5"/>
		<line class="st3" x1="299" y1="441" x2="299" y2="432.5"/>
		<line class="st3" x1="284.3" y1="441" x2="284.3" y2="432.5"/>
		<line class="st3" x1="389.2" y1="450.6" x2="277.7" y2="450.3"/>
		<line class="st3" x1="375.4" y1="450.2" x2="375.4" y2="441.7"/>
		<line class="st3" x1="361.2" y1="450.2" x2="361.2" y2="441.7"/>
		<line class="st3" x1="347.6" y1="450.2" x2="347.6" y2="441.7"/>
		<line class="st3" x1="333.5" y1="450.2" x2="333.5" y2="441.7"/>
		<line class="st3" x1="319.7" y1="450.2" x2="319.7" y2="441.7"/>
		<line class="st3" x1="305.5" y1="450.2" x2="305.5" y2="441.7"/>
		<line class="st3" x1="291.4" y1="450.2" x2="291.4" y2="441.7"/>
		<line class="st3" x1="389" y1="460.1" x2="277.8" y2="459.9"/>
		<line class="st3" x1="382.4" y1="459.7" x2="382.4" y2="451.3"/>
		<line class="st3" x1="368.3" y1="459.7" x2="368.3" y2="451.3"/>
		<line class="st3" x1="354.7" y1="459.7" x2="354.7" y2="451.3"/>
		<line class="st3" x1="340.5" y1="459.7" x2="340.5" y2="451.3"/>
		<line class="st3" x1="326.7" y1="459.7" x2="326.7" y2="451.3"/>
		<line class="st3" x1="312.6" y1="459.7" x2="312.6" y2="451.3"/>
		<line class="st3" x1="298.5" y1="459.7" x2="298.5" y2="451.3"/>
		<line class="st3" x1="283.8" y1="459.7" x2="283.8" y2="451.3"/>
		<line class="st3" x1="389.1" y1="469.8" x2="277.7" y2="469.5"/>
		<line class="st3" x1="375.3" y1="469.4" x2="375.3" y2="460.9"/>
		<line class="st3" x1="361.1" y1="469.4" x2="361.1" y2="460.9"/>
		<line class="st3" x1="347.5" y1="469.4" x2="347.5" y2="460.9"/>
		<line class="st3" x1="333.4" y1="469.4" x2="333.4" y2="460.9"/>
		<line class="st3" x1="319.6" y1="469.4" x2="319.6" y2="460.9"/>
		<line class="st3" x1="305.4" y1="469.4" x2="305.4" y2="460.9"/>
		<line class="st3" x1="291.3" y1="469.4" x2="291.3" y2="460.9"/>
		<line class="st3" x1="388.9" y1="479.3" x2="277.7" y2="479.1"/>
		<line class="st3" x1="382.3" y1="478.9" x2="382.3" y2="470.5"/>
		<line class="st3" x1="368.2" y1="478.9" x2="368.2" y2="470.5"/>
		<line class="st3" x1="354.6" y1="478.9" x2="354.6" y2="470.5"/>
		<line class="st3" x1="340.4" y1="478.9" x2="340.4" y2="470.5"/>
		<line class="st3" x1="326.6" y1="478.9" x2="326.6" y2="470.5"/>
		<line class="st3" x1="312.5" y1="478.9" x2="312.5" y2="470.5"/>
		<line class="st3" x1="298.4" y1="478.9" x2="298.4" y2="470.5"/>
		<line class="st3" x1="283.7" y1="478.9" x2="283.7" y2="470.5"/>
		<line class="st3" x1="389.2" y1="488.1" x2="277.7" y2="487.9"/>
		<line class="st3" x1="375.4" y1="487.7" x2="375.4" y2="479.2"/>
		<line class="st3" x1="361.2" y1="487.7" x2="361.2" y2="479.2"/>
		<line class="st3" x1="347.6" y1="487.7" x2="347.6" y2="479.2"/>
		<line class="st3" x1="333.5" y1="487.7" x2="333.5" y2="479.2"/>
		<line class="st3" x1="319.7" y1="487.7" x2="319.7" y2="479.2"/>
		<line class="st3" x1="305.5" y1="487.7" x2="305.5" y2="479.2"/>
		<line class="st3" x1="291.4" y1="487.7" x2="291.4" y2="479.2"/>
		<line class="st3" x1="389" y1="497.7" x2="277.8" y2="497.4"/>
		<line class="st3" x1="382.4" y1="497.3" x2="382.4" y2="488.8"/>
		<line class="st3" x1="368.3" y1="497.3" x2="368.3" y2="488.8"/>
		<line class="st3" x1="354.7" y1="497.3" x2="354.7" y2="488.8"/>
		<line class="st3" x1="340.5" y1="497.3" x2="340.5" y2="488.8"/>
		<line class="st3" x1="326.7" y1="497.3" x2="326.7" y2="488.8"/>
		<line class="st3" x1="312.6" y1="497.3" x2="312.6" y2="488.8"/>
		<line class="st3" x1="298.5" y1="497.3" x2="298.5" y2="488.8"/>
		<line class="st3" x1="283.8" y1="497.3" x2="283.8" y2="488.8"/>
		<line class="st3" x1="278.3" y1="412.4" x2="187" y2="412.2"/>
		<line class="st3" x1="278.3" y1="403.2" x2="187" y2="403"/>
		<line class="st3" x1="262.9" y1="403.6" x2="262.9" y2="412"/>
		<line class="st3" x1="248.7" y1="412" x2="248.7" y2="403.6"/>
		<line class="st3" x1="235.1" y1="412" x2="235.1" y2="403.6"/>
		<line class="st3" x1="221" y1="412" x2="221" y2="403.6"/>
		<line class="st3" x1="207.2" y1="412" x2="207.2" y2="403.6"/>
		<line class="st3" x1="193" y1="412" x2="193" y2="403.6"/>
		<line class="st3" x1="278.4" y1="422" x2="187" y2="421.8"/>
		<line class="st3" x1="269.9" y1="421.6" x2="269.9" y2="413.2"/>
		<line class="st3" x1="255.8" y1="421.6" x2="255.8" y2="413.2"/>
		<line class="st3" x1="242.1" y1="421.6" x2="242.1" y2="413.2"/>
		<line class="st3" x1="228" y1="421.6" x2="228" y2="413.2"/>
		<line class="st3" x1="214.2" y1="421.6" x2="214.2" y2="413.2"/>
		<line class="st3" x1="200.1" y1="421.6" x2="200.1" y2="413.2"/>
		<line class="st3" x1="278.3" y1="431.6" x2="186.9" y2="431.4"/>
		<line class="st3" x1="262.8" y1="431.2" x2="262.8" y2="422.8"/>
		<line class="st3" x1="248.6" y1="431.2" x2="248.6" y2="422.8"/>
		<line class="st3" x1="235" y1="431.2" x2="235" y2="422.8"/>
		<line class="st3" x1="220.9" y1="431.2" x2="220.9" y2="422.8"/>
		<line class="st3" x1="207.1" y1="431.2" x2="207.1" y2="422.8"/>
		<line class="st3" x1="192.9" y1="431.2" x2="192.9" y2="422.8"/>
		<line class="st3" x1="278.3" y1="441.2" x2="186.9" y2="441"/>
		<line class="st3" x1="269.8" y1="440.8" x2="269.8" y2="432.4"/>
		<line class="st3" x1="255.7" y1="440.8" x2="255.7" y2="432.4"/>
		<line class="st3" x1="242.1" y1="440.8" x2="242.1" y2="432.4"/>
		<line class="st3" x1="227.9" y1="440.8" x2="227.9" y2="432.4"/>
		<line class="st3" x1="214.1" y1="440.8" x2="214.1" y2="432.4"/>
		<line class="st3" x1="200" y1="440.8" x2="200" y2="432.4"/>
		<line class="st3" x1="277.9" y1="450.3" x2="186.5" y2="450.1"/>
		<line class="st3" x1="262.3" y1="450" x2="262.3" y2="441.5"/>
		<line class="st3" x1="248.1" y1="450" x2="248.1" y2="441.5"/>
		<line class="st3" x1="234.5" y1="450" x2="234.5" y2="441.5"/>
		<line class="st3" x1="220.4" y1="450" x2="220.4" y2="441.5"/>
		<line class="st3" x1="206.6" y1="450" x2="206.6" y2="441.5"/>
		<line class="st3" x1="192.4" y1="450" x2="192.4" y2="441.5"/>
		<line class="st3" x1="277.9" y1="459.9" x2="186.5" y2="459.7"/>
		<line class="st3" x1="269.3" y1="459.5" x2="269.3" y2="451.1"/>
		<line class="st3" x1="255.2" y1="459.5" x2="255.2" y2="451.1"/>
		<line class="st3" x1="241.6" y1="459.5" x2="241.6" y2="451.1"/>
		<line class="st3" x1="227.4" y1="459.5" x2="227.4" y2="451.1"/>
		<line class="st3" x1="213.6" y1="459.5" x2="213.6" y2="451.1"/>
		<line class="st3" x1="199.5" y1="459.5" x2="199.5" y2="451.1"/>
		<line class="st3" x1="277.8" y1="469.5" x2="186.4" y2="469.4"/>
		<line class="st3" x1="262.2" y1="469.2" x2="262.2" y2="460.7"/>
		<line class="st3" x1="248" y1="469.2" x2="248" y2="460.7"/>
		<line class="st3" x1="234.4" y1="469.2" x2="234.4" y2="460.7"/>
		<line class="st3" x1="220.3" y1="469.2" x2="220.3" y2="460.7"/>
		<line class="st3" x1="206.5" y1="460.7" x2="206.5" y2="469.2"/>
		<line class="st3" x1="192.3" y1="469.2" x2="192.3" y2="460.7"/>
		<line class="st3" x1="277.8" y1="479.1" x2="186.4" y2="478.9"/>
		<line class="st3" x1="269.2" y1="478.7" x2="269.2" y2="470.3"/>
		<line class="st3" x1="255.1" y1="478.7" x2="255.1" y2="470.3"/>
		<line class="st3" x1="241.5" y1="478.7" x2="241.5" y2="470.3"/>
		<line class="st3" x1="227.3" y1="478.7" x2="227.3" y2="470.3"/>
		<line class="st3" x1="213.5" y1="478.7" x2="213.5" y2="470.3"/>
		<line class="st3" x1="199.4" y1="478.7" x2="199.4" y2="470.3"/>
		<line class="st3" x1="277.9" y1="487.9" x2="186.5" y2="487.7"/>
		<line class="st3" x1="262.3" y1="487.5" x2="262.3" y2="479"/>
		<line class="st3" x1="248.1" y1="487.5" x2="248.1" y2="479"/>
		<line class="st3" x1="234.5" y1="487.5" x2="234.5" y2="479"/>
		<line class="st3" x1="220.4" y1="487.5" x2="220.4" y2="479"/>
		<line class="st3" x1="206.6" y1="487.5" x2="206.6" y2="479"/>
		<line class="st3" x1="192.4" y1="487.5" x2="192.4" y2="479"/>
		<line class="st3" x1="277.9" y1="497.4" x2="186.5" y2="497.2"/>
		<line class="st3" x1="269.3" y1="497.1" x2="269.3" y2="488.6"/>
		<line class="st3" x1="255.2" y1="497.1" x2="255.2" y2="488.6"/>
		<line class="st3" x1="241.6" y1="497.1" x2="241.6" y2="488.6"/>
		<line class="st3" x1="227.4" y1="497.1" x2="227.4" y2="488.6"/>
		<line class="st3" x1="213.6" y1="497.1" x2="213.6" y2="488.6"/>
		<line class="st3" x1="199.5" y1="497.1" x2="199.5" y2="488.6"/>
		<line class="st3" x1="277.1" y1="411.9" x2="277.1" y2="403.5"/>
		<line class="st3" x1="277.1" y1="431.1" x2="277.1" y2="422.7"/>
		<line class="st3" x1="276.6" y1="449.9" x2="276.6" y2="441.4"/>
		<line class="st3" x1="276.5" y1="469.1" x2="276.5" y2="460.6"/>
		<line class="st3" x1="276.6" y1="487.4" x2="276.6" y2="478.9"/>
	</g>
	<line class="st3" x1="389.6" y1="318.3" x2="278.2" y2="318.1"/>
	<line class="st3" x1="389.6" y1="309.1" x2="278.2" y2="308.8"/>
	<line class="st3" x1="375.8" y1="317.9" x2="375.8" y2="309.4"/>
	<line class="st3" x1="361.6" y1="317.9" x2="361.6" y2="309.4"/>
	<line class="st3" x1="348" y1="317.9" x2="348" y2="309.4"/>
	<line class="st3" x1="333.9" y1="317.9" x2="333.9" y2="309.4"/>
	<line class="st3" x1="320.1" y1="317.9" x2="320.1" y2="309.4"/>
	<line class="st3" x1="305.9" y1="317.9" x2="305.9" y2="309.4"/>
	<line class="st3" x1="291.8" y1="317.9" x2="291.8" y2="309.4"/>
	<line class="st3" x1="389.4" y1="327.9" x2="278.2" y2="327.7"/>
	<line class="st3" x1="382.8" y1="327.5" x2="382.8" y2="319"/>
	<line class="st3" x1="368.7" y1="327.5" x2="368.7" y2="319"/>
	<line class="st3" x1="355.1" y1="327.5" x2="355.1" y2="319"/>
	<line class="st3" x1="340.9" y1="327.5" x2="340.9" y2="319"/>
	<line class="st3" x1="327.1" y1="327.5" x2="327.1" y2="319"/>
	<line class="st3" x1="313" y1="327.5" x2="313" y2="319"/>
	<line class="st3" x1="298.9" y1="327.5" x2="298.9" y2="319"/>
	<line class="st3" x1="284.2" y1="327.5" x2="284.2" y2="319"/>
	<line class="st3" x1="389.5" y1="337.5" x2="278.1" y2="337.3"/>
	<line class="st3" x1="375.7" y1="337.1" x2="375.7" y2="328.6"/>
	<line class="st3" x1="361.6" y1="337.1" x2="361.6" y2="328.6"/>
	<line class="st3" x1="347.9" y1="337.1" x2="347.9" y2="328.6"/>
	<line class="st3" x1="333.8" y1="337.1" x2="333.8" y2="328.6"/>
	<line class="st3" x1="320" y1="337.1" x2="320" y2="328.6"/>
	<line class="st3" x1="305.9" y1="337.1" x2="305.9" y2="328.6"/>
	<line class="st3" x1="291.7" y1="337.1" x2="291.7" y2="328.6"/>
	<line class="st3" x1="389.3" y1="347.1" x2="278.1" y2="346.9"/>
	<line class="st3" x1="382.7" y1="346.7" x2="382.7" y2="338.2"/>
	<line class="st3" x1="368.6" y1="346.7" x2="368.6" y2="338.2"/>
	<line class="st3" x1="355" y1="346.7" x2="355" y2="338.2"/>
	<line class="st3" x1="340.8" y1="346.7" x2="340.8" y2="338.2"/>
	<line class="st3" x1="327" y1="346.7" x2="327" y2="338.2"/>
	<line class="st3" x1="312.9" y1="346.7" x2="312.9" y2="338.2"/>
	<line class="st3" x1="298.8" y1="346.7" x2="298.8" y2="338.2"/>
	<line class="st3" x1="284.1" y1="346.7" x2="284.1" y2="338.2"/>
	<line class="st3" x1="389" y1="356.2" x2="277.6" y2="356"/>
	<line class="st3" x1="375.2" y1="355.8" x2="375.2" y2="347.4"/>
	<line class="st3" x1="361.1" y1="355.8" x2="361.1" y2="347.4"/>
	<line class="st3" x1="347.4" y1="355.8" x2="347.4" y2="347.4"/>
	<line class="st3" x1="333.3" y1="355.8" x2="333.3" y2="347.4"/>
	<line class="st3" x1="319.5" y1="355.8" x2="319.5" y2="347.4"/>
	<line class="st3" x1="305.4" y1="355.8" x2="305.4" y2="347.4"/>
	<line class="st3" x1="291.2" y1="355.8" x2="291.2" y2="347.4"/>
	<line class="st3" x1="388.8" y1="365.8" x2="277.6" y2="365.6"/>
	<line class="st3" x1="382.2" y1="365.4" x2="382.2" y2="357"/>
	<line class="st3" x1="368.1" y1="365.4" x2="368.1" y2="357"/>
	<line class="st3" x1="354.5" y1="365.4" x2="354.5" y2="357"/>
	<line class="st3" x1="340.3" y1="365.4" x2="340.3" y2="357"/>
	<line class="st3" x1="326.5" y1="365.4" x2="326.5" y2="357"/>
	<line class="st3" x1="312.4" y1="365.4" x2="312.4" y2="357"/>
	<line class="st3" x1="298.3" y1="365.4" x2="298.3" y2="357"/>
	<line class="st3" x1="283.6" y1="365.4" x2="283.6" y2="357"/>
	<line class="st3" x1="388.9" y1="375.4" x2="277.5" y2="375.2"/>
	<line class="st3" x1="375.1" y1="375" x2="375.1" y2="366.6"/>
	<line class="st3" x1="361" y1="375" x2="361" y2="366.6"/>
	<line class="st3" x1="347.3" y1="375" x2="347.3" y2="366.6"/>
	<line class="st3" x1="333.2" y1="375" x2="333.2" y2="366.6"/>
	<line class="st3" x1="319.4" y1="375" x2="319.4" y2="366.6"/>
	<line class="st3" x1="305.3" y1="375" x2="305.3" y2="366.6"/>
	<line class="st3" x1="291.2" y1="375" x2="291.2" y2="366.6"/>
	<line class="st3" x1="388.8" y1="385" x2="277.5" y2="384.8"/>
	<line class="st3" x1="382.1" y1="384.6" x2="382.1" y2="376.2"/>
	<line class="st3" x1="368" y1="384.6" x2="368" y2="376.2"/>
	<line class="st3" x1="354.4" y1="384.6" x2="354.4" y2="376.2"/>
	<line class="st3" x1="340.2" y1="384.6" x2="340.2" y2="376.2"/>
	<line class="st3" x1="326.4" y1="384.6" x2="326.4" y2="376.2"/>
	<line class="st3" x1="312.3" y1="384.6" x2="312.3" y2="376.2"/>
	<line class="st3" x1="298.2" y1="384.6" x2="298.2" y2="376.2"/>
	<line class="st3" x1="283.5" y1="384.6" x2="283.5" y2="376.2"/>
	<line class="st3" x1="389" y1="393.8" x2="277.6" y2="393.5"/>
	<line class="st3" x1="375.2" y1="393.4" x2="375.2" y2="384.9"/>
	<line class="st3" x1="361.1" y1="393.4" x2="361.1" y2="384.9"/>
	<line class="st3" x1="347.4" y1="393.4" x2="347.4" y2="384.9"/>
	<line class="st3" x1="333.3" y1="393.4" x2="333.3" y2="384.9"/>
	<line class="st3" x1="319.5" y1="393.4" x2="319.5" y2="384.9"/>
	<line class="st3" x1="305.4" y1="393.4" x2="305.4" y2="384.9"/>
	<line class="st3" x1="291.2" y1="393.4" x2="291.2" y2="384.9"/>
	<line class="st3" x1="382.2" y1="402.9" x2="382.2" y2="394.5"/>
	<line class="st3" x1="368.1" y1="402.9" x2="368.1" y2="394.5"/>
	<line class="st3" x1="354.5" y1="402.9" x2="354.5" y2="394.5"/>
	<line class="st3" x1="340.3" y1="402.9" x2="340.3" y2="394.5"/>
	<line class="st3" x1="326.5" y1="402.9" x2="326.5" y2="394.5"/>
	<line class="st3" x1="312.4" y1="402.9" x2="312.4" y2="394.5"/>
	<line class="st3" x1="298.3" y1="402.9" x2="298.3" y2="394.5"/>
	<line class="st3" x1="283.6" y1="402.9" x2="283.6" y2="394.5"/>
	<line class="st3" x1="278.2" y1="318.1" x2="186.8" y2="317.9"/>
	<line class="st3" x1="278.2" y1="308.8" x2="186.8" y2="308.7"/>
	<line class="st3" x1="262.7" y1="317.7" x2="262.7" y2="309.3"/>
	<line class="st3" x1="248.5" y1="317.7" x2="248.5" y2="309.3"/>
	<line class="st3" x1="234.9" y1="317.7" x2="234.9" y2="309.3"/>
	<line class="st3" x1="220.8" y1="317.7" x2="220.8" y2="309.3"/>
	<line class="st3" x1="207" y1="317.7" x2="207" y2="309.3"/>
	<line class="st3" x1="192.8" y1="317.7" x2="192.8" y2="309.3"/>
	<line class="st3" x1="278.2" y1="327.7" x2="186.8" y2="327.5"/>
	<line class="st3" x1="269.7" y1="327.3" x2="269.7" y2="318.8"/>
	<line class="st3" x1="255.6" y1="327.3" x2="255.6" y2="318.8"/>
	<line class="st3" x1="242" y1="327.3" x2="242" y2="318.8"/>
	<line class="st3" x1="227.8" y1="327.3" x2="227.8" y2="318.8"/>
	<line class="st3" x1="214" y1="327.3" x2="214" y2="318.8"/>
	<line class="st3" x1="199.9" y1="327.3" x2="199.9" y2="318.8"/>
	<line class="st3" x1="278.1" y1="337.3" x2="186.7" y2="337.1"/>
	<line class="st3" x1="262.6" y1="336.9" x2="262.6" y2="328.5"/>
	<line class="st3" x1="248.5" y1="336.9" x2="248.5" y2="328.5"/>
	<line class="st3" x1="234.8" y1="336.9" x2="234.8" y2="328.5"/>
	<line class="st3" x1="220.7" y1="336.9" x2="220.7" y2="328.5"/>
	<line class="st3" x1="206.9" y1="336.9" x2="206.9" y2="328.5"/>
	<line class="st3" x1="192.8" y1="336.9" x2="192.8" y2="328.5"/>
	<line class="st3" x1="278.1" y1="346.9" x2="186.7" y2="346.7"/>
	<line class="st3" x1="269.6" y1="346.5" x2="269.6" y2="338"/>
	<line class="st3" x1="255.5" y1="346.5" x2="255.5" y2="338"/>
	<line class="st3" x1="241.9" y1="346.5" x2="241.9" y2="338"/>
	<line class="st3" x1="227.7" y1="346.5" x2="227.7" y2="338"/>
	<line class="st3" x1="213.9" y1="346.5" x2="213.9" y2="338"/>
	<line class="st3" x1="199.8" y1="346.5" x2="199.8" y2="338"/>
	<line class="st3" x1="277.7" y1="356" x2="186.3" y2="355.8"/>
	<line class="st3" x1="262.1" y1="355.6" x2="262.1" y2="347.2"/>
	<line class="st3" x1="248" y1="355.6" x2="248" y2="347.2"/>
	<line class="st3" x1="234.3" y1="355.6" x2="234.3" y2="347.2"/>
	<line class="st3" x1="220.2" y1="355.6" x2="220.2" y2="347.2"/>
	<line class="st3" x1="206.4" y1="355.6" x2="206.4" y2="347.2"/>
	<line class="st3" x1="192.3" y1="355.6" x2="192.3" y2="347.2"/>
	<line class="st3" x1="277.7" y1="365.6" x2="186.3" y2="365.4"/>
	<line class="st3" x1="269.1" y1="365.2" x2="269.1" y2="356.8"/>
	<line class="st3" x1="255" y1="365.2" x2="255" y2="356.8"/>
	<line class="st3" x1="241.4" y1="365.2" x2="241.4" y2="356.8"/>
	<line class="st3" x1="227.2" y1="365.2" x2="227.2" y2="356.8"/>
	<line class="st3" x1="213.4" y1="365.2" x2="213.4" y2="356.8"/>
	<line class="st3" x1="199.3" y1="365.2" x2="199.3" y2="356.8"/>
	<line class="st3" x1="277.6" y1="375.2" x2="186.2" y2="375"/>
	<line class="st3" x1="262" y1="374.8" x2="262" y2="366.4"/>
	<line class="st3" x1="247.9" y1="374.8" x2="247.9" y2="366.4"/>
	<line class="st3" x1="234.3" y1="374.8" x2="234.3" y2="366.4"/>
	<line class="st3" x1="220.1" y1="374.8" x2="220.1" y2="366.4"/>
	<line class="st3" x1="206.3" y1="374.8" x2="206.3" y2="366.4"/>
	<line class="st3" x1="192.2" y1="374.8" x2="192.2" y2="366.4"/>
	<line class="st3" x1="277.6" y1="384.8" x2="186.3" y2="384.6"/>
	<line class="st3" x1="269" y1="384.4" x2="269" y2="376"/>
	<line class="st3" x1="254.9" y1="384.4" x2="254.9" y2="376"/>
	<line class="st3" x1="241.3" y1="384.4" x2="241.3" y2="376"/>
	<line class="st3" x1="227.1" y1="384.4" x2="227.1" y2="376"/>
	<line class="st3" x1="213.3" y1="384.4" x2="213.3" y2="376"/>
	<line class="st3" x1="199.2" y1="384.4" x2="199.2" y2="376"/>
	<line class="st3" x1="277.7" y1="393.5" x2="186.3" y2="393.4"/>
	<line class="st3" x1="262.1" y1="393.2" x2="262.1" y2="384.7"/>
	<line class="st3" x1="248" y1="393.2" x2="248" y2="384.7"/>
	<line class="st3" x1="234.3" y1="393.2" x2="234.3" y2="384.7"/>
	<line class="st3" x1="220.2" y1="393.2" x2="220.2" y2="384.7"/>
	<line class="st3" x1="206.4" y1="393.2" x2="206.4" y2="384.7"/>
	<line class="st3" x1="192.3" y1="393.2" x2="192.3" y2="384.7"/>
	<line class="st3" x1="269.1" y1="402.8" x2="269.1" y2="394.3"/>
	<line class="st3" x1="255" y1="402.8" x2="255" y2="394.3"/>
	<line class="st3" x1="241.4" y1="402.8" x2="241.4" y2="394.3"/>
	<line class="st3" x1="227.2" y1="402.8" x2="227.2" y2="394.3"/>
	<line class="st3" x1="213.4" y1="402.8" x2="213.4" y2="394.3"/>
	<line class="st3" x1="199.3" y1="402.8" x2="199.3" y2="394.3"/>
	<line class="st3" x1="277" y1="317.6" x2="277" y2="309.1"/>
	<line class="st3" x1="276.9" y1="336.8" x2="276.9" y2="328.3"/>
	<line class="st3" x1="276.4" y1="355.5" x2="276.4" y2="347.1"/>
	<line class="st3" x1="276.3" y1="374.7" x2="276.3" y2="366.3"/>
	<line class="st3" x1="276.4" y1="393.1" x2="276.4" y2="384.6"/>
</g>
<path class="st4" d="M309.5,497.6v-66.4c0-12.1-10.6-20.8-22.7-20.8h-0.2c-12.1,0-21.7,8.7-21.7,20.8v66.4"/>
<path class="st5" d="M214.7,371.9v-43.8c0-1.8,0.6-1.5,2.4-1.5H267c1.7,0,3.3-0.4,3.3,1.5v43.8"/>
<path class="st5" d="M307.4,371.9v-44c0-1.8,1.2-1.2,2.9-1.2h50.1c1.7,0,3.3-0.6,3.3,1.2v44"/>
<path class="st6" d="M275.4,462.6c0,1-0.8,1.9-1.9,1.9c-1,0-1.9-0.8-1.9-1.9c0-1,0.8-1.9,1.9-1.9
	C274.6,460.7,275.4,461.5,275.4,462.6"/>
<path class="st7" d="M271.1,432c0-1.7,1.4-3.1,3.1-3.1h26.1c1.7,0,3.1,1.4,3.1,3.1v17.9c0,1.7-1.4,3.1-3.1,3.1h-26.1
	c-1.7,0-3.1-1.4-3.1-3.1V432z"/>
<line class="st8" x1="213.3" y1="350.7" x2="269.6" y2="350.7"/>
<line class="st8" x1="306.7" y1="349.3" x2="362.3" y2="349.3"/>
<line class="st8" x1="241.5" y1="326.6" x2="241.5" y2="373.5"/>
<line class="st8" x1="335.6" y1="326.6" x2="335.6" y2="373.5"/>
<path class="st4" d="M212.7,372.8c0-1.5,1.2-2.8,2.8-2.8h54.9c1.5,0,2.8,1.2,2.8,2.8v0.6c0,1.5-1.2,2.8-2.8,2.8h-54.9
	c-1.5,0-2.8-1.2-2.8-2.8V372.8z"/>
<path class="st4" d="M306,372.8c0-1.5,1.2-2.8,2.8-2.8h54.9c1.5,0,2.8,1.2,2.8,2.8v0.6c0,1.5-1.2,2.8-2.8,2.8h-54.9
	c-1.5,0-2.8-1.2-2.8-2.8V372.8z"/>
<path class="st5" d="M336.3,466.7v-44c0-1.8,0.6-1.2,1.4-1.2h24.4c0.8,0,1.6-0.6,1.6,1.2v44"/>
<line class="st8" x1="336.3" y1="444.1" x2="362.3" y2="444.1"/>
<path class="st4" d="M335.4,472.7h30.1c1.1,0,2-0.9,2-2v-2.3c0-1.1-0.9-2-2-2h-30.1c-1.1,0-2,0.9-2,2v2.3
	C333.4,471.8,334.3,472.7,335.4,472.7z"/>
<g>
	<line class="st9" x1="349.2" y1="336.3" x2="352.1" y2="338.6"/>
	<line class="st9" x1="343.9" y1="336.7" x2="352.3" y2="343.5"/>
</g>
<g>
	<line class="st9" x1="321.5" y1="355.7" x2="324.4" y2="358.1"/>
	<line class="st9" x1="316.2" y1="356.2" x2="324.6" y2="363"/>
</g>
<g>
	<line class="st9" x1="256.2" y1="357.6" x2="259.2" y2="359.9"/>
	<line class="st9" x1="250.9" y1="358.1" x2="259.3" y2="364.8"/>
</g>
<g>
	<line class="st9" x1="229" y1="336.3" x2="231.9" y2="338.6"/>
	<line class="st9" x1="223.7" y1="336.8" x2="232.1" y2="343.5"/>
</g>
<g>
	<line class="st9" x1="351.2" y1="428.9" x2="354.1" y2="431.3"/>
	<line class="st9" x1="345.9" y1="429.4" x2="354.3" y2="436.1"/>
</g>
<line class="st10" x1="256.9" y1="297" x2="241.5" y2="297"/>
<polygon class="st2" points="185.9,498.6 185.9,309.8 390.1,309.5 390.1,311.3 390.1,498.9 "/>
<line class="st11" x1="557.3" y1="499" x2="560.7" y2="499"/>
<line class="st11" x1="533.1" y1="499" x2="551.1" y2="499"/>
<line class="st11" x1="64" y1="499" x2="526" y2="499"/>
<line class="st11" x1="28.1" y1="499" x2="55.2" y2="499"/>
<line class="st11" x1="6.4" y1="499" x2="19.3" y2="499"/>
<path class="st12" d="M227.5,471.5v9.4c0,1.4-1.2,2.6-2.6,2.6h-32.4"/>
<g>
	<path class="st13" d="M224.5,449"/>
	<circle class="st14" cx="227.6" cy="454.4" r="17"/>
	<path class="st15" d="M233.3,465.1c3.8-2,6.4-6,6.4-10.6c0-4.6-2.5-8.5-6.3-10.6"/>
	<path class="st15" d="M221.9,443.8c-3.8,2-6.4,6-6.4,10.6c0,4.6,2.6,8.6,6.4,10.6"/>
	<path d="M221.9,469.7l0,0.8c2,0.7,3.8,1,5.8,1c1.9,0,3.8-0.4,5.7-1l0-0.8l0-1.4v-4.9l0-4.8c0.8-1.1,1.3-2.5,1.3-4
		c0-1.5-0.5-2.9-1.3-4l0-0.4l0-11.6c-2-0.7-3.8-1-5.8-1c-1.9,0-3.8,0.3-5.7,1V450l0,0.2c-0.9,1.2-1.4,2.6-1.4,4.2s0.5,3,1.4,4.2
		l0,0.5v9.2"/>
	<circle class="st16" cx="227.6" cy="454.4" r="4.7"/>
	<circle class="st17" cx="227.6" cy="465.3" r="1.2"/>
</g>
<line class="st12" x1="227" y1="475.5" x2="228" y2="475.5"/>
<line class="st12" x1="203.5" y1="483" x2="203.5" y2="484"/>
<line class="st12" x1="217.5" y1="483" x2="217.5" y2="484"/>
<path class="st18" d="M242.3,283.9h4.5c0.5,0,0.9-0.4,0.9-0.9s-0.4-0.9-0.9-0.9h-4.5c-0.5,0-0.9,0.4-0.9,0.9
	S241.8,283.9,242.3,283.9"/>
<path class="st18" d="M218.8,283.9H237c0.5,0,0.9-0.4,0.9-0.9s-0.4-0.9-0.9-0.9h-18.2c-0.5,0-0.9,0.4-0.9,0.9
	S218.3,283.9,218.8,283.9"/>
<path class="st19" d="M184.5,309.8h-4.8c-2.8,0-4.1-4-1.9-5.8l108-90.1c1.1-0.9,2.8-1.1,3.9-0.1l108.1,89.9c2.2,1.8,0.9,5.3-1.9,5.3
	l-5.7,0.5L184.5,309.8z"/>
<path class="st20" d="M324,242.3v-9.7c0-4.1,4.5-5.4,9.6-5.4h15.6c5,0,9.1,2.3,9.1,6.4l-0.1,37.4"/>
<path class="st4" d="M359.7,234.2h-37c-1.8,0-3.2-1.4-3.2-3.2v-13.4c0-1.8,1.4-3.2,3.2-3.2h37c1.8,0,3.2,1.4,3.2,3.2v13.4
	C362.8,232.8,361.4,234.2,359.7,234.2z"/>
<path class="st20" d="M350.6,214.3h-18.9c-0.6,0-1-0.5-1-1V204c0-0.6,0.5-1,1-1h18.9c0.6,0,1,0.5,1,1v9.2
	C351.6,213.8,351.1,214.3,350.6,214.3z"/>
<line class="st21" x1="324" y1="238.5" x2="339.4" y2="238.5"/>
<line class="st21" x1="324.3" y1="241.8" x2="333.3" y2="241.8"/>
<line class="st22" x1="352.9" y1="290.2" x2="337.4" y2="290.2"/>
<line class="st22" x1="275.6" y1="237.7" x2="260.1" y2="237.7"/>
<line class="st22" x1="322.6" y1="273" x2="307.1" y2="273"/>
<line class="st22" x1="263.2" y1="267.3" x2="247.8" y2="267.3"/>
<line class="st22" x1="272.6" y1="278.2" x2="257.1" y2="278.2"/>
<line class="st22" x1="213.2" y1="289.6" x2="197.8" y2="289.6"/>
<line class="st22" x1="366.3" y1="280.7" x2="350.9" y2="280.7"/>
<path class="st2" d="M184.5,309.8h-4.8c-2.8,0-4.1-4-1.9-5.8l108-90.1c1.1-0.9,2.8-1.1,3.9-0.1l108.1,89.9c2.2,1.8,0.9,5.3-1.9,5.3
	l-5.7,0.5L184.5,309.8z"/>
<path class="st23" d="M345.7,162.9l0.9,0.9c1.2,1.2,1.2,3.1,0.1,4.2l-1.2,1.3c-1.2,1.2-1.1,3.1,0.1,4.2l0.8,0.7
	c1.2,1.2,1.2,3.1,0.1,4.2l-1.2,1.3c-1.2,1.2-1.1,3.1,0.1,4.2l1.3,1.2c1.2,1.2,1.2,3.1,0.1,4.2l-1.5,1.6c-1,1.1-1.1,2.7-0.2,3.9
	l1.5,1.9"/>
<path class="st23" d="M336.7,163.1l0.9,0.9c1.2,1.2,1.2,3.1,0.1,4.2l-1.2,1.3c-1.2,1.2-1.1,3.1,0.1,4.2l0.8,0.7
	c1.2,1.2,1.2,3.1,0.1,4.2l-1.2,1.3c-1.2,1.2-1.1,3.1,0.1,4.2l1.3,1.2c1.2,1.2,1.2,3.1,0.1,4.2l-1.5,1.6c-1,1.1-1.1,2.7-0.2,3.9
	l1.5,1.9"/>
<circle class="st16" cx="487" cy="261" r="3"/>
<circle class="st16" cx="126" cy="123" r="3"/>
<circle class="st16" cx="75" cy="269" r="3"/>
<circle class="st16" cx="237" cy="484" r="3"/>
<path class="st0" d="M245.1,81.8c-1.6,0.4-2.8,1.9-2.8,3.6c0,0.1,0,0.3,0,0.4h15.9c0.1-1.6-1.1-2.1-1.1-2.1c0.1-1.7-1.3-3-3.3-2.9h0
	c-0.7-1.6-2.3-2.7-4.1-2.7C247.3,78.1,245.4,79.6,245.1,81.8"/>
<path class="st0" d="M235.7,85.6h-7c-0.8,0-1.4-0.6-1.4-1.4c0-0.8,0.6-1.4,1.4-1.4h7c0.8,0,1.4,0.6,1.4,1.4
	C237.1,85,236.5,85.6,235.7,85.6"/>
<path class="st0" d="M45.6,54.6c-0.7,0-1.2-0.6-1.2-1.2c0-0.7,0.6-1.2,1.2-1.2h6.9c0.7,0,1.2,0.6,1.2,1.2v0c0,0.7-0.6,1.2-1.2,1.2
	H45.6"/>
<path class="st0" d="M56.8,53.4c0,0.7,0.6,1.2,1.2,1.2h12.9c0.7,0,1.2-0.6,1.2-1.2c0-0.7-0.6-1.2-1.2-1.2H58
	C57.3,52.1,56.8,52.7,56.8,53.4L56.8,53.4z"/>
<circle class="st16" cx="202" cy="456" r="3"/>
<circle class="st16" cx="487" cy="96" r="3"/>
<circle class="st16" cx="186" cy="484" r="3"/>
<g>
	<text transform="matrix(1 0 0 1 46 34.4004)"><tspan x="0" y="0" class="st16 st24 st25">Install of POD Point on </tspan><tspan x="0" y="22" class="st16 st24 st25">a brick or plaster wall, </tspan><tspan x="0" y="44" class="st16 st24 st25">or other suitable </tspan><tspan x="0" y="66" class="st16 st24 st25">permanent structure.</tspan></text>
	<circle class="st26" cx="23.2" cy="27.8" r="11.2"/>
	<g>
		<text transform="matrix(1 0 0 1 19.832 34)" class="st27 st28 st29">1</text>
	</g>
</g>
<g>
	<text transform="matrix(1 0 0 1 41 182.4004)"><tspan x="0" y="0" class="st16 st24 st25">Up to 15 metres of cable, </tspan><tspan x="0" y="22" class="st16 st24 st25">run between the distribution </tspan><tspan x="0" y="44" class="st16 st24 st25">board/electricity meter and </tspan><tspan x="0" y="66" class="st16 st24 st25">the POD Point.</tspan></text>
	<circle class="st26" cx="18.2" cy="175.8" r="11.2"/>
	<g>
		<text transform="matrix(1 0 0 1 13.0962 181)" class="st27 st28 st29">2</text>
	</g>
</g>
<g>
	<text transform="matrix(1 0 0 1 407 175.4004)"><tspan x="0" y="0" class="st16 st24 st25">The cable clipped flush </tspan><tspan x="0" y="22" class="st16 st24 st25">to the wall at a height of </tspan><tspan x="0" y="44" class="st16 st24 st25">up to 6ft, running above </tspan><tspan x="0" y="66" class="st16 st24 st25">the ground.</tspan></text>
	<circle class="st26" cx="384.2" cy="168.8" r="11.2"/>
	<g>
		<text transform="matrix(1 0 0 1 378.5439 175)" class="st27 st28 st29">4</text>
	</g>
</g>
<g>
	<text transform="matrix(1 0 0 1 410 33.4004)"><tspan x="0" y="0" class="st16 st24 st25">Cable run through a </tspan><tspan x="0" y="22" class="st16 st24 st25">single wall of up to half </tspan><tspan x="0" y="44" class="st16 st24 st25">a metre thickness. </tspan></text>
	<circle class="st26" cx="387.2" cy="26.8" r="11.2"/>
	<g>
		<text transform="matrix(1 0 0 1 382.0562 33)" class="st27 st28 st29">3</text>
	</g>
</g>
<line class="st30" x1="486.5" y1="99.5" x2="486.5" y2="149.5"/>
<path class="st30" d="M486.5,264.5v192.8c0,15-12.2,27.2-27.2,27.2H239.5"/>
<line class="st30" x1="126" y1="158" x2="126" y2="126"/>
<path class="st30" d="M125.5,269.5V421c0,19.1,15.4,34.5,34.5,34.5h38.5"/>
<path class="st30" d="M74.5,272.5v180.2c0,17,13.8,30.8,30.8,30.8h80.2"/>
</svg>
