<?xml version="1.0" encoding="utf-8"?>
<!-- Generator: Adobe Illustrator 21.0.2, SVG Export Plug-In . SVG Version: 6.00 Build 0)  -->
<svg version="1.1" id="Layer_1" xmlns="http://www.w3.org/2000/svg" xmlns:xlink="http://www.w3.org/1999/xlink" x="0px" y="0px"
	 viewBox="0 0 891 417" style="enable-background:new 0 0 891 417;" xml:space="preserve">
<style type="text/css">
	.st0{fill:#FFFFFF;stroke:#FFFFFF;stroke-miterlimit:10;}
	.st1{fill:#8FC043;stroke:#E6E6E6;stroke-width:2;stroke-linecap:round;stroke-miterlimit:10;}
	.st2{fill:none;stroke:#333333;stroke-width:1.5;stroke-miterlimit:10;}
	.st3{fill:#F2F2F2;stroke:#83B642;stroke-width:2;stroke-linecap:round;stroke-miterlimit:10;}
	.st4{fill:#F2F2F2;stroke:#333333;stroke-width:2;stroke-miterlimit:10;}
	.st5{fill:#FFFFFF;stroke:#333333;stroke-width:2;stroke-miterlimit:10;}
	.st6{fill:#F2F2F2;stroke:#CCCCCC;stroke-width:2;}
	.st7{fill:#FFFFFF;stroke:#333333;stroke-width:2;}
	.st8{fill:#F2F2F2;stroke:#333333;stroke-width:2;}
	.st9{fill:none;stroke:#F2F2F2;stroke-width:2;stroke-linecap:round;stroke-miterlimit:10;}
	.st10{opacity:0.51;fill:#F2F2F2;stroke:#CCCCCC;stroke-width:5;stroke-linecap:round;stroke-miterlimit:10;}
	.st11{fill:none;stroke:#333333;stroke-width:1.5;stroke-linecap:round;stroke-linejoin:round;stroke-miterlimit:10;}
	.st12{fill:#333333;}
	.st13{font-family:'GothamRounded-Light';}
	.st14{font-size:14px;}
	.st15{fill:#8FC043;stroke:#333333;}
	.st16{fill:#FFFFFF;}
	.st17{font-family:'GothamRounded-Medium';}
	.st18{font-size:16px;}
	.st19{fill:none;stroke:#333333;stroke-linecap:round;stroke-dasharray:4,6;}
	.st20{fill:none;stroke:#4D4D4D;stroke-width:0.75;stroke-linecap:round;stroke-miterlimit:10;}
	.st21{fill:none;stroke:#4D4D4D;stroke-width:2;stroke-linecap:round;stroke-miterlimit:10;}
	.st22{fill:#CCCCCC;stroke:#333333;stroke-width:2;stroke-miterlimit:10;}
	.st23{fill:none;stroke:#999999;stroke-width:2;stroke-linecap:round;stroke-miterlimit:10;}
	.st24{fill:#8CC03F;}
	.st25{fill:#F2F2F2;stroke:#F2F2F2;stroke-miterlimit:10;}
	.st26{fill:#E6E6E6;stroke:#CCCCCC;stroke-width:0.75;stroke-miterlimit:10;}
	.st27{fill:#8FC043;stroke:#333333;stroke-width:1.5;}
	.st28{fill:none;stroke:#333333;stroke-width:1.5;stroke-linecap:round;stroke-miterlimit:10;}
	.st29{fill:none;stroke:#CCCCCC;stroke-width:5;stroke-linecap:round;stroke-miterlimit:10;}
	.st30{fill:none;stroke:#FFFFFF;stroke-width:1.5;stroke-linecap:round;stroke-miterlimit:10;}
</style>
<path class="st0" d="M847.1,24.7c0,1.3-0.2,2.6-0.7,3.8l-0.2,0.5l-49.8,0c-0.5-1.4-0.8-2.8-0.8-4.4c0-6.9,6.2-12.5,13.7-12.5
	c0.3,0,0.6,0,0.9,0l0,0c2.1-5.1,7.5-8.8,13.8-8.8c7.1,0,13.1,4.6,14.4,10.7c0,0.1,0.5,0.1,0.6,0.2c1.5,0.4,2.9,1.2,4.1,2.1
	c1.3,1.1,2.4,2.4,3,3.9C846.7,21.6,847.1,23.2,847.1,24.7"/>
<path class="st0" d="M862.7,25.5c1.4,0.4,2.4,1.6,2.4,3.1c0,0.1,0,0.2,0,0.3h-13.5c-0.1-1.3,1-1.8,1-1.8c0-1.5,1.1-2.6,2.8-2.4h0
	c0.6-1.4,1.9-2.3,3.5-2.3C860.8,22.4,862.4,23.7,862.7,25.5"/>
<path class="st0" d="M870.6,28.8h5.9c0.6,0,1.2-0.5,1.2-1.2c0-0.6-0.5-1.2-1.2-1.2h-5.9c-0.6,0-1.2,0.5-1.2,1.2
	C869.4,28.3,869.9,28.8,870.6,28.8"/>
<path class="st0" d="M612.1,180.7c0,1.2-0.2,2.3-0.7,3.4l-0.2,0.4l-45,0c-0.5-1.2-0.8-2.5-0.8-3.9c0-6.3,5.6-11.3,12.4-11.3
	c0.3,0,0.5,0,0.8,0l0,0c1.9-4.6,6.7-7.9,12.5-7.9c6.4,0,11.8,4.2,13,9.7c0,0.1,0.4,0.1,0.5,0.1c1.4,0.3,2.6,1.1,3.7,1.9
	c1.2,1,2.1,2.2,2.7,3.5C611.7,177.9,612.1,179.3,612.1,180.7"/>
<path class="st0" d="M808.5,218.8c1.6,0.4,2.8,1.9,2.8,3.6c0,0.1,0,0.3,0,0.4h-15.9c-0.1-1.6,1.1-2.1,1.1-2.1
	c-0.1-1.7,1.3-3,3.3-2.9h0c0.7-1.6,2.3-2.7,4.1-2.7C806.2,215.1,808.1,216.6,808.5,218.8"/>
<path class="st0" d="M817.8,222.6h7c0.8,0,1.4-0.6,1.4-1.4c0-0.8-0.6-1.4-1.4-1.4h-7c-0.8,0-1.4,0.6-1.4,1.4
	C816.4,222,817,222.6,817.8,222.6"/>
<path class="st0" d="M553.2,184h5.4c0.6,0,1.1-0.5,1.1-1.1c0-0.6-0.5-1.1-1.1-1.1h-5.4c-0.6,0-1.1,0.5-1.1,1.1
	C552.1,183.5,552.6,184,553.2,184"/>
<path class="st0" d="M604.8,63.2c-4.6,1.2-8,5.4-8,10.4c0,0.4,0,0.8,0.1,1.1l45.2,0c0.2-4.4-3.3-6-3.3-6c0.1-4.9-3.6-8.6-9.4-8.2
	h-0.1c-2-4.5-6.5-7.8-11.7-7.8C611.1,52.6,605.8,57,604.8,63.2"/>
<path class="st0" d="M649.4,75h21.1c0.6,0,1-0.5,1-1c0-0.6-0.5-1-1-1h-21.1c-0.6,0-1,0.5-1,1C648.3,74.5,648.8,75,649.4,75"/>
<path class="st0" d="M563.7,75.1h5.3c0.6,0,1-0.5,1-1c0-0.6-0.5-1-1-1h-5.3c-0.6,0-1,0.5-1,1C562.7,74.7,563.1,75.1,563.7,75.1"/>
<path class="st0" d="M286.2,54.6c0,1.2-0.2,2.4-0.7,3.5c0,0-0.2,0.4-0.2,0.4l-45.4,0c-0.5-1.2-0.8-2.6-0.8-4
	c0-6.3,5.6-11.4,12.5-11.4c0.3,0,0.6,0,0.8,0l0,0c1.9-4.7,6.8-8,12.6-8c6.5,0,11.9,4.2,13.1,9.8c0,0.1,0.5,0.1,0.5,0.1
	c1.4,0.3,2.7,1.1,3.7,1.9c1.2,1,2.2,2.2,2.8,3.6C285.9,51.8,286.2,53.2,286.2,54.6z"/>
<path class="st0" d="M88.9,196c4.8,1.2,8.3,5.6,8.3,10.7c0,0.4,0,0.8-0.1,1.2l-46.8,0c-0.2-4.6,3.4-6.3,3.4-6.3
	c-0.1-5.1,3.7-8.9,9.7-8.5h0.1c2.1-4.7,6.8-8.1,12.2-8.1C82.4,185.1,87.9,189.7,88.9,196"/>
<path class="st0" d="M40.2,203.3c1.8,0.5,3.2,2.1,3.2,4.1c0,0.2,0,0.3,0,0.5l-17.9,0c-0.1-1.7,1.3-2.4,1.3-2.4
	c-0.1-1.9,1.4-3.4,3.7-3.3h0.1c0.8-1.8,2.6-3.1,4.6-3.1C37.7,199.2,39.8,200.9,40.2,203.3"/>
<path class="st0" d="M103.2,208.1h21.9c0.6,0,1.1-0.5,1.1-1.1c0-0.6-0.5-1.1-1.1-1.1h-21.9c-0.6,0-1.1,0.5-1.1,1.1
	C102.1,207.6,102.6,208.1,103.2,208.1"/>
<path class="st0" d="M14.5,208.3H20c0.6,0,1.1-0.5,1.1-1.1c0-0.6-0.5-1.1-1.1-1.1h-5.5c-0.6,0-1.1,0.5-1.1,1.1
	C13.4,207.8,13.9,208.3,14.5,208.3"/>
<path class="st0" d="M377.5,114.6h6.3c0.7,0,1.2-0.6,1.2-1.2c0-0.7-0.6-1.2-1.2-1.2h-6.3c-0.7,0-1.2,0.6-1.2,1.2
	C376.3,114.1,376.8,114.6,377.5,114.6"/>
<path class="st0" d="M336.6,114.6h25.3c0.7,0,1.2-0.6,1.2-1.2c0-0.7-0.6-1.2-1.2-1.2h-25.3c-0.7,0-1.2,0.6-1.2,1.2
	C335.3,114.1,335.9,114.6,336.6,114.6"/>
<polyline class="st1" points="335.9,414.1 335.9,225.2 540.1,224.9 540.1,226.8 540.1,414.3 "/>
<polyline class="st2" points="335.9,413.6 335.9,224.8 540.1,224.5 540.1,226.3 540.1,413.9 "/>
<g>
	<g>
		<line class="st3" x1="539.8" y1="328.6" x2="428.3" y2="328.4"/>
		<line class="st3" x1="539.8" y1="319.4" x2="428.4" y2="319.2"/>
		<line class="st3" x1="526" y1="328.2" x2="526" y2="319.8"/>
		<line class="st3" x1="511.8" y1="328.2" x2="511.8" y2="319.8"/>
		<line class="st3" x1="498.2" y1="328.2" x2="498.2" y2="319.8"/>
		<line class="st3" x1="484.1" y1="328.2" x2="484.1" y2="319.8"/>
		<line class="st3" x1="470.3" y1="328.2" x2="470.3" y2="319.8"/>
		<line class="st3" x1="456.1" y1="328.2" x2="456.1" y2="319.8"/>
		<line class="st3" x1="442" y1="328.2" x2="442" y2="319.8"/>
		<line class="st3" x1="539.6" y1="338.2" x2="428.4" y2="338"/>
		<line class="st3" x1="533" y1="337.8" x2="533" y2="329.3"/>
		<line class="st3" x1="518.9" y1="337.8" x2="518.9" y2="329.3"/>
		<line class="st3" x1="505.2" y1="337.8" x2="505.2" y2="329.3"/>
		<line class="st3" x1="491.1" y1="337.8" x2="491.1" y2="329.3"/>
		<line class="st3" x1="477.3" y1="337.8" x2="477.3" y2="329.3"/>
		<line class="st3" x1="463.2" y1="337.8" x2="463.2" y2="329.3"/>
		<line class="st3" x1="449" y1="337.8" x2="449" y2="329.3"/>
		<line class="st3" x1="434.4" y1="337.8" x2="434.4" y2="329.3"/>
		<line class="st3" x1="539.7" y1="347.8" x2="428.2" y2="347.6"/>
		<line class="st3" x1="525.9" y1="347.4" x2="525.9" y2="339"/>
		<line class="st3" x1="511.7" y1="347.4" x2="511.7" y2="339"/>
		<line class="st3" x1="498.1" y1="347.4" x2="498.1" y2="339"/>
		<line class="st3" x1="484" y1="347.4" x2="484" y2="339"/>
		<line class="st3" x1="470.2" y1="347.4" x2="470.2" y2="339"/>
		<line class="st3" x1="456" y1="347.4" x2="456" y2="339"/>
		<line class="st3" x1="441.9" y1="347.4" x2="441.9" y2="339"/>
		<line class="st3" x1="539.5" y1="357.4" x2="428.3" y2="357.2"/>
		<line class="st3" x1="532.9" y1="357" x2="532.9" y2="348.5"/>
		<line class="st3" x1="518.8" y1="357" x2="518.8" y2="348.5"/>
		<line class="st3" x1="505.2" y1="357" x2="505.2" y2="348.5"/>
		<line class="st3" x1="491" y1="357" x2="491" y2="348.5"/>
		<line class="st3" x1="477.2" y1="357" x2="477.2" y2="348.5"/>
		<line class="st3" x1="463.1" y1="357" x2="463.1" y2="348.5"/>
		<line class="st3" x1="449" y1="357" x2="449" y2="348.5"/>
		<line class="st3" x1="434.3" y1="357" x2="434.3" y2="348.5"/>
		<line class="st3" x1="539.2" y1="366.6" x2="427.7" y2="366.3"/>
		<line class="st3" x1="525.4" y1="366.2" x2="525.4" y2="357.7"/>
		<line class="st3" x1="511.2" y1="366.2" x2="511.2" y2="357.7"/>
		<line class="st3" x1="497.6" y1="366.2" x2="497.6" y2="357.7"/>
		<line class="st3" x1="483.5" y1="366.2" x2="483.5" y2="357.7"/>
		<line class="st3" x1="469.7" y1="366.2" x2="469.7" y2="357.7"/>
		<line class="st3" x1="455.5" y1="366.2" x2="455.5" y2="357.7"/>
		<line class="st3" x1="441.4" y1="366.2" x2="441.4" y2="357.7"/>
		<line class="st3" x1="539" y1="376.1" x2="427.8" y2="375.9"/>
		<line class="st3" x1="532.4" y1="375.7" x2="532.4" y2="367.3"/>
		<line class="st3" x1="518.3" y1="375.7" x2="518.3" y2="367.3"/>
		<line class="st3" x1="504.7" y1="375.7" x2="504.7" y2="367.3"/>
		<line class="st3" x1="490.5" y1="375.7" x2="490.5" y2="367.3"/>
		<line class="st3" x1="476.7" y1="375.7" x2="476.7" y2="367.3"/>
		<line class="st3" x1="462.6" y1="375.7" x2="462.6" y2="367.3"/>
		<line class="st3" x1="448.5" y1="375.7" x2="448.5" y2="367.3"/>
		<line class="st3" x1="433.8" y1="375.7" x2="433.8" y2="367.3"/>
		<line class="st3" x1="539.1" y1="385.8" x2="427.7" y2="385.5"/>
		<line class="st3" x1="525.3" y1="385.4" x2="525.3" y2="376.9"/>
		<line class="st3" x1="511.1" y1="385.4" x2="511.1" y2="376.9"/>
		<line class="st3" x1="497.5" y1="385.4" x2="497.5" y2="376.9"/>
		<line class="st3" x1="483.4" y1="385.4" x2="483.4" y2="376.9"/>
		<line class="st3" x1="469.6" y1="385.4" x2="469.6" y2="376.9"/>
		<line class="st3" x1="455.4" y1="385.4" x2="455.4" y2="376.9"/>
		<line class="st3" x1="441.3" y1="385.4" x2="441.3" y2="376.9"/>
		<line class="st3" x1="538.9" y1="395.3" x2="427.7" y2="395.1"/>
		<line class="st3" x1="532.3" y1="394.9" x2="532.3" y2="386.5"/>
		<line class="st3" x1="518.2" y1="394.9" x2="518.2" y2="386.5"/>
		<line class="st3" x1="504.6" y1="394.9" x2="504.6" y2="386.5"/>
		<line class="st3" x1="490.4" y1="394.9" x2="490.4" y2="386.5"/>
		<line class="st3" x1="476.6" y1="394.9" x2="476.6" y2="386.5"/>
		<line class="st3" x1="462.5" y1="394.9" x2="462.5" y2="386.5"/>
		<line class="st3" x1="448.4" y1="394.9" x2="448.4" y2="386.5"/>
		<line class="st3" x1="433.7" y1="394.9" x2="433.7" y2="386.5"/>
		<line class="st3" x1="539.2" y1="404.1" x2="427.7" y2="403.9"/>
		<line class="st3" x1="525.4" y1="403.7" x2="525.4" y2="395.2"/>
		<line class="st3" x1="511.2" y1="403.7" x2="511.2" y2="395.2"/>
		<line class="st3" x1="497.6" y1="403.7" x2="497.6" y2="395.2"/>
		<line class="st3" x1="483.5" y1="403.7" x2="483.5" y2="395.2"/>
		<line class="st3" x1="469.7" y1="403.7" x2="469.7" y2="395.2"/>
		<line class="st3" x1="455.5" y1="403.7" x2="455.5" y2="395.2"/>
		<line class="st3" x1="441.4" y1="403.7" x2="441.4" y2="395.2"/>
		<line class="st3" x1="539" y1="413.7" x2="427.8" y2="413.4"/>
		<line class="st3" x1="532.4" y1="413.3" x2="532.4" y2="404.8"/>
		<line class="st3" x1="518.3" y1="413.3" x2="518.3" y2="404.8"/>
		<line class="st3" x1="504.7" y1="413.3" x2="504.7" y2="404.8"/>
		<line class="st3" x1="490.5" y1="413.3" x2="490.5" y2="404.8"/>
		<line class="st3" x1="476.7" y1="413.3" x2="476.7" y2="404.8"/>
		<line class="st3" x1="462.6" y1="413.3" x2="462.6" y2="404.8"/>
		<line class="st3" x1="448.5" y1="413.3" x2="448.5" y2="404.8"/>
		<line class="st3" x1="433.8" y1="413.3" x2="433.8" y2="404.8"/>
		<line class="st3" x1="428.3" y1="328.4" x2="337" y2="328.2"/>
		<line class="st3" x1="428.3" y1="319.2" x2="337" y2="319"/>
		<line class="st3" x1="412.9" y1="319.6" x2="412.9" y2="328"/>
		<line class="st3" x1="398.7" y1="328" x2="398.7" y2="319.6"/>
		<line class="st3" x1="385.1" y1="328" x2="385.1" y2="319.6"/>
		<line class="st3" x1="371" y1="328" x2="371" y2="319.6"/>
		<line class="st3" x1="357.2" y1="328" x2="357.2" y2="319.6"/>
		<line class="st3" x1="343" y1="328" x2="343" y2="319.6"/>
		<line class="st3" x1="428.4" y1="338" x2="337" y2="337.8"/>
		<line class="st3" x1="419.9" y1="337.6" x2="419.9" y2="329.2"/>
		<line class="st3" x1="405.8" y1="337.6" x2="405.8" y2="329.2"/>
		<line class="st3" x1="392.1" y1="337.6" x2="392.1" y2="329.2"/>
		<line class="st3" x1="378" y1="337.6" x2="378" y2="329.2"/>
		<line class="st3" x1="364.2" y1="337.6" x2="364.2" y2="329.2"/>
		<line class="st3" x1="350.1" y1="337.6" x2="350.1" y2="329.2"/>
		<line class="st3" x1="428.3" y1="347.6" x2="336.9" y2="347.4"/>
		<line class="st3" x1="412.8" y1="347.2" x2="412.8" y2="338.8"/>
		<line class="st3" x1="398.6" y1="347.2" x2="398.6" y2="338.8"/>
		<line class="st3" x1="385" y1="347.2" x2="385" y2="338.8"/>
		<line class="st3" x1="370.9" y1="347.2" x2="370.9" y2="338.8"/>
		<line class="st3" x1="357.1" y1="347.2" x2="357.1" y2="338.8"/>
		<line class="st3" x1="342.9" y1="347.2" x2="342.9" y2="338.8"/>
		<line class="st3" x1="428.3" y1="357.2" x2="336.9" y2="357"/>
		<line class="st3" x1="419.8" y1="356.8" x2="419.8" y2="348.4"/>
		<line class="st3" x1="405.7" y1="356.8" x2="405.7" y2="348.4"/>
		<line class="st3" x1="392.1" y1="356.8" x2="392.1" y2="348.4"/>
		<line class="st3" x1="377.9" y1="356.8" x2="377.9" y2="348.4"/>
		<line class="st3" x1="364.1" y1="356.8" x2="364.1" y2="348.4"/>
		<line class="st3" x1="350" y1="356.8" x2="350" y2="348.4"/>
		<line class="st3" x1="427.9" y1="366.3" x2="336.5" y2="366.1"/>
		<line class="st3" x1="412.3" y1="366" x2="412.3" y2="357.5"/>
		<line class="st3" x1="398.1" y1="366" x2="398.1" y2="357.5"/>
		<line class="st3" x1="384.5" y1="366" x2="384.5" y2="357.5"/>
		<line class="st3" x1="370.4" y1="366" x2="370.4" y2="357.5"/>
		<line class="st3" x1="356.6" y1="366" x2="356.6" y2="357.5"/>
		<line class="st3" x1="342.4" y1="366" x2="342.4" y2="357.5"/>
		<line class="st3" x1="427.9" y1="375.9" x2="336.5" y2="375.7"/>
		<line class="st3" x1="419.3" y1="375.5" x2="419.3" y2="367.1"/>
		<line class="st3" x1="405.2" y1="375.5" x2="405.2" y2="367.1"/>
		<line class="st3" x1="391.6" y1="375.5" x2="391.6" y2="367.1"/>
		<line class="st3" x1="377.4" y1="375.5" x2="377.4" y2="367.1"/>
		<line class="st3" x1="363.6" y1="375.5" x2="363.6" y2="367.1"/>
		<line class="st3" x1="349.5" y1="375.5" x2="349.5" y2="367.1"/>
		<line class="st3" x1="427.8" y1="385.5" x2="336.4" y2="385.4"/>
		<line class="st3" x1="412.2" y1="385.2" x2="412.2" y2="376.7"/>
		<line class="st3" x1="398" y1="385.2" x2="398" y2="376.7"/>
		<line class="st3" x1="384.4" y1="385.2" x2="384.4" y2="376.7"/>
		<line class="st3" x1="370.3" y1="385.2" x2="370.3" y2="376.7"/>
		<line class="st3" x1="356.5" y1="376.7" x2="356.5" y2="385.2"/>
		<line class="st3" x1="342.3" y1="385.2" x2="342.3" y2="376.7"/>
		<line class="st3" x1="427.8" y1="395.1" x2="336.4" y2="394.9"/>
		<line class="st3" x1="419.2" y1="394.7" x2="419.2" y2="386.3"/>
		<line class="st3" x1="405.1" y1="394.7" x2="405.1" y2="386.3"/>
		<line class="st3" x1="391.5" y1="394.7" x2="391.5" y2="386.3"/>
		<line class="st3" x1="377.3" y1="394.7" x2="377.3" y2="386.3"/>
		<line class="st3" x1="363.5" y1="394.7" x2="363.5" y2="386.3"/>
		<line class="st3" x1="349.4" y1="394.7" x2="349.4" y2="386.3"/>
		<line class="st3" x1="427.9" y1="403.9" x2="336.5" y2="403.7"/>
		<line class="st3" x1="412.3" y1="403.5" x2="412.3" y2="395"/>
		<line class="st3" x1="398.1" y1="403.5" x2="398.1" y2="395"/>
		<line class="st3" x1="384.5" y1="403.5" x2="384.5" y2="395"/>
		<line class="st3" x1="370.4" y1="403.5" x2="370.4" y2="395"/>
		<line class="st3" x1="356.6" y1="403.5" x2="356.6" y2="395"/>
		<line class="st3" x1="342.4" y1="403.5" x2="342.4" y2="395"/>
		<line class="st3" x1="427.9" y1="413.4" x2="336.5" y2="413.2"/>
		<line class="st3" x1="419.3" y1="413.1" x2="419.3" y2="404.6"/>
		<line class="st3" x1="405.2" y1="413.1" x2="405.2" y2="404.6"/>
		<line class="st3" x1="391.6" y1="413.1" x2="391.6" y2="404.6"/>
		<line class="st3" x1="377.4" y1="413.1" x2="377.4" y2="404.6"/>
		<line class="st3" x1="363.6" y1="413.1" x2="363.6" y2="404.6"/>
		<line class="st3" x1="349.5" y1="413.1" x2="349.5" y2="404.6"/>
		<line class="st3" x1="427.1" y1="327.9" x2="427.1" y2="319.5"/>
		<line class="st3" x1="427.1" y1="347.1" x2="427.1" y2="338.7"/>
		<line class="st3" x1="426.6" y1="365.9" x2="426.6" y2="357.4"/>
		<line class="st3" x1="426.5" y1="385.1" x2="426.5" y2="376.6"/>
		<line class="st3" x1="426.6" y1="403.4" x2="426.6" y2="394.9"/>
	</g>
	<line class="st3" x1="539.6" y1="234.3" x2="428.2" y2="234.1"/>
	<line class="st3" x1="539.6" y1="225.1" x2="428.2" y2="224.8"/>
	<line class="st3" x1="525.8" y1="233.9" x2="525.8" y2="225.4"/>
	<line class="st3" x1="511.6" y1="233.9" x2="511.6" y2="225.4"/>
	<line class="st3" x1="498" y1="233.9" x2="498" y2="225.4"/>
	<line class="st3" x1="483.9" y1="233.9" x2="483.9" y2="225.4"/>
	<line class="st3" x1="470.1" y1="233.9" x2="470.1" y2="225.4"/>
	<line class="st3" x1="455.9" y1="233.9" x2="455.9" y2="225.4"/>
	<line class="st3" x1="441.8" y1="233.9" x2="441.8" y2="225.4"/>
	<line class="st3" x1="539.4" y1="243.9" x2="428.2" y2="243.7"/>
	<line class="st3" x1="532.8" y1="243.5" x2="532.8" y2="235"/>
	<line class="st3" x1="518.7" y1="243.5" x2="518.7" y2="235"/>
	<line class="st3" x1="505.1" y1="243.5" x2="505.1" y2="235"/>
	<line class="st3" x1="490.9" y1="243.5" x2="490.9" y2="235"/>
	<line class="st3" x1="477.1" y1="243.5" x2="477.1" y2="235"/>
	<line class="st3" x1="463" y1="243.5" x2="463" y2="235"/>
	<line class="st3" x1="448.9" y1="243.5" x2="448.9" y2="235"/>
	<line class="st3" x1="434.2" y1="243.5" x2="434.2" y2="235"/>
	<line class="st3" x1="539.5" y1="253.5" x2="428.1" y2="253.3"/>
	<line class="st3" x1="525.7" y1="253.1" x2="525.7" y2="244.6"/>
	<line class="st3" x1="511.6" y1="253.1" x2="511.6" y2="244.6"/>
	<line class="st3" x1="497.9" y1="253.1" x2="497.9" y2="244.6"/>
	<line class="st3" x1="483.8" y1="253.1" x2="483.8" y2="244.6"/>
	<line class="st3" x1="470" y1="253.1" x2="470" y2="244.6"/>
	<line class="st3" x1="455.9" y1="253.1" x2="455.9" y2="244.6"/>
	<line class="st3" x1="441.7" y1="253.1" x2="441.7" y2="244.6"/>
	<line class="st3" x1="539.3" y1="263.1" x2="428.1" y2="262.9"/>
	<line class="st3" x1="532.7" y1="262.7" x2="532.7" y2="254.2"/>
	<line class="st3" x1="518.6" y1="262.7" x2="518.6" y2="254.2"/>
	<line class="st3" x1="505" y1="262.7" x2="505" y2="254.2"/>
	<line class="st3" x1="490.8" y1="262.7" x2="490.8" y2="254.2"/>
	<line class="st3" x1="477" y1="262.7" x2="477" y2="254.2"/>
	<line class="st3" x1="462.9" y1="262.7" x2="462.9" y2="254.2"/>
	<line class="st3" x1="448.8" y1="262.7" x2="448.8" y2="254.2"/>
	<line class="st3" x1="434.1" y1="262.7" x2="434.1" y2="254.2"/>
	<line class="st3" x1="539" y1="272.2" x2="427.6" y2="272"/>
	<line class="st3" x1="525.2" y1="271.8" x2="525.2" y2="263.4"/>
	<line class="st3" x1="511.1" y1="271.8" x2="511.1" y2="263.4"/>
	<line class="st3" x1="497.4" y1="271.8" x2="497.4" y2="263.4"/>
	<line class="st3" x1="483.3" y1="271.8" x2="483.3" y2="263.4"/>
	<line class="st3" x1="469.5" y1="271.8" x2="469.5" y2="263.4"/>
	<line class="st3" x1="455.4" y1="271.8" x2="455.4" y2="263.4"/>
	<line class="st3" x1="441.2" y1="271.8" x2="441.2" y2="263.4"/>
	<line class="st3" x1="538.8" y1="281.8" x2="427.6" y2="281.6"/>
	<line class="st3" x1="532.2" y1="281.4" x2="532.2" y2="273"/>
	<line class="st3" x1="518.1" y1="281.4" x2="518.1" y2="273"/>
	<line class="st3" x1="504.5" y1="281.4" x2="504.5" y2="273"/>
	<line class="st3" x1="490.3" y1="281.4" x2="490.3" y2="273"/>
	<line class="st3" x1="476.5" y1="281.4" x2="476.5" y2="273"/>
	<line class="st3" x1="462.4" y1="281.4" x2="462.4" y2="273"/>
	<line class="st3" x1="448.3" y1="281.4" x2="448.3" y2="273"/>
	<line class="st3" x1="433.6" y1="281.4" x2="433.6" y2="273"/>
	<line class="st3" x1="538.9" y1="291.4" x2="427.5" y2="291.2"/>
	<line class="st3" x1="525.1" y1="291" x2="525.1" y2="282.6"/>
	<line class="st3" x1="511" y1="291" x2="511" y2="282.6"/>
	<line class="st3" x1="497.3" y1="291" x2="497.3" y2="282.6"/>
	<line class="st3" x1="483.2" y1="291" x2="483.2" y2="282.6"/>
	<line class="st3" x1="469.4" y1="291" x2="469.4" y2="282.6"/>
	<line class="st3" x1="455.3" y1="291" x2="455.3" y2="282.6"/>
	<line class="st3" x1="441.2" y1="291" x2="441.2" y2="282.6"/>
	<line class="st3" x1="538.8" y1="301" x2="427.5" y2="300.8"/>
	<line class="st3" x1="532.1" y1="300.6" x2="532.1" y2="292.2"/>
	<line class="st3" x1="518" y1="300.6" x2="518" y2="292.2"/>
	<line class="st3" x1="504.4" y1="300.6" x2="504.4" y2="292.2"/>
	<line class="st3" x1="490.2" y1="300.6" x2="490.2" y2="292.2"/>
	<line class="st3" x1="476.4" y1="300.6" x2="476.4" y2="292.2"/>
	<line class="st3" x1="462.3" y1="300.6" x2="462.3" y2="292.2"/>
	<line class="st3" x1="448.2" y1="300.6" x2="448.2" y2="292.2"/>
	<line class="st3" x1="433.5" y1="300.6" x2="433.5" y2="292.2"/>
	<line class="st3" x1="539" y1="309.8" x2="427.6" y2="309.5"/>
	<line class="st3" x1="525.2" y1="309.4" x2="525.2" y2="300.9"/>
	<line class="st3" x1="511.1" y1="309.4" x2="511.1" y2="300.9"/>
	<line class="st3" x1="497.4" y1="309.4" x2="497.4" y2="300.9"/>
	<line class="st3" x1="483.3" y1="309.4" x2="483.3" y2="300.9"/>
	<line class="st3" x1="469.5" y1="309.4" x2="469.5" y2="300.9"/>
	<line class="st3" x1="455.4" y1="309.4" x2="455.4" y2="300.9"/>
	<line class="st3" x1="441.2" y1="309.4" x2="441.2" y2="300.9"/>
	<line class="st3" x1="532.2" y1="318.9" x2="532.2" y2="310.5"/>
	<line class="st3" x1="518.1" y1="318.9" x2="518.1" y2="310.5"/>
	<line class="st3" x1="504.5" y1="318.9" x2="504.5" y2="310.5"/>
	<line class="st3" x1="490.3" y1="318.9" x2="490.3" y2="310.5"/>
	<line class="st3" x1="476.5" y1="318.9" x2="476.5" y2="310.5"/>
	<line class="st3" x1="462.4" y1="318.9" x2="462.4" y2="310.5"/>
	<line class="st3" x1="448.3" y1="318.9" x2="448.3" y2="310.5"/>
	<line class="st3" x1="433.6" y1="318.9" x2="433.6" y2="310.5"/>
	<line class="st3" x1="428.2" y1="234.1" x2="336.8" y2="233.9"/>
	<line class="st3" x1="428.2" y1="224.8" x2="336.8" y2="224.7"/>
	<line class="st3" x1="412.7" y1="233.7" x2="412.7" y2="225.3"/>
	<line class="st3" x1="398.5" y1="233.7" x2="398.5" y2="225.3"/>
	<line class="st3" x1="384.9" y1="233.7" x2="384.9" y2="225.3"/>
	<line class="st3" x1="370.8" y1="233.7" x2="370.8" y2="225.3"/>
	<line class="st3" x1="357" y1="233.7" x2="357" y2="225.3"/>
	<line class="st3" x1="342.8" y1="233.7" x2="342.8" y2="225.3"/>
	<line class="st3" x1="428.2" y1="243.7" x2="336.8" y2="243.5"/>
	<line class="st3" x1="419.7" y1="243.3" x2="419.7" y2="234.8"/>
	<line class="st3" x1="405.6" y1="243.3" x2="405.6" y2="234.8"/>
	<line class="st3" x1="392" y1="243.3" x2="392" y2="234.8"/>
	<line class="st3" x1="377.8" y1="243.3" x2="377.8" y2="234.8"/>
	<line class="st3" x1="364" y1="243.3" x2="364" y2="234.8"/>
	<line class="st3" x1="349.9" y1="243.3" x2="349.9" y2="234.8"/>
	<line class="st3" x1="428.1" y1="253.3" x2="336.7" y2="253.1"/>
	<line class="st3" x1="412.6" y1="252.9" x2="412.6" y2="244.5"/>
	<line class="st3" x1="398.5" y1="252.9" x2="398.5" y2="244.5"/>
	<line class="st3" x1="384.8" y1="252.9" x2="384.8" y2="244.5"/>
	<line class="st3" x1="370.7" y1="252.9" x2="370.7" y2="244.5"/>
	<line class="st3" x1="356.9" y1="252.9" x2="356.9" y2="244.5"/>
	<line class="st3" x1="342.8" y1="252.9" x2="342.8" y2="244.5"/>
	<line class="st3" x1="428.1" y1="262.9" x2="336.7" y2="262.7"/>
	<line class="st3" x1="419.6" y1="262.5" x2="419.6" y2="254"/>
	<line class="st3" x1="405.5" y1="262.5" x2="405.5" y2="254"/>
	<line class="st3" x1="391.9" y1="262.5" x2="391.9" y2="254"/>
	<line class="st3" x1="377.7" y1="262.5" x2="377.7" y2="254"/>
	<line class="st3" x1="363.9" y1="262.5" x2="363.9" y2="254"/>
	<line class="st3" x1="349.8" y1="262.5" x2="349.8" y2="254"/>
	<line class="st3" x1="427.7" y1="272" x2="336.3" y2="271.8"/>
	<line class="st3" x1="412.1" y1="271.6" x2="412.1" y2="263.2"/>
	<line class="st3" x1="398" y1="271.6" x2="398" y2="263.2"/>
	<line class="st3" x1="384.3" y1="271.6" x2="384.3" y2="263.2"/>
	<line class="st3" x1="370.2" y1="271.6" x2="370.2" y2="263.2"/>
	<line class="st3" x1="356.4" y1="271.6" x2="356.4" y2="263.2"/>
	<line class="st3" x1="342.3" y1="271.6" x2="342.3" y2="263.2"/>
	<line class="st3" x1="427.7" y1="281.6" x2="336.3" y2="281.4"/>
	<line class="st3" x1="419.1" y1="281.2" x2="419.1" y2="272.8"/>
	<line class="st3" x1="405" y1="281.2" x2="405" y2="272.8"/>
	<line class="st3" x1="391.4" y1="281.2" x2="391.4" y2="272.8"/>
	<line class="st3" x1="377.2" y1="281.2" x2="377.2" y2="272.8"/>
	<line class="st3" x1="363.4" y1="281.2" x2="363.4" y2="272.8"/>
	<line class="st3" x1="349.3" y1="281.2" x2="349.3" y2="272.8"/>
	<line class="st3" x1="427.6" y1="291.2" x2="336.2" y2="291"/>
	<line class="st3" x1="412" y1="290.8" x2="412" y2="282.4"/>
	<line class="st3" x1="397.9" y1="290.8" x2="397.9" y2="282.4"/>
	<line class="st3" x1="384.3" y1="290.8" x2="384.3" y2="282.4"/>
	<line class="st3" x1="370.1" y1="290.8" x2="370.1" y2="282.4"/>
	<line class="st3" x1="356.3" y1="290.8" x2="356.3" y2="282.4"/>
	<line class="st3" x1="342.2" y1="290.8" x2="342.2" y2="282.4"/>
	<line class="st3" x1="427.6" y1="300.8" x2="336.3" y2="300.6"/>
	<line class="st3" x1="419" y1="300.4" x2="419" y2="292"/>
	<line class="st3" x1="404.9" y1="300.4" x2="404.9" y2="292"/>
	<line class="st3" x1="391.3" y1="300.4" x2="391.3" y2="292"/>
	<line class="st3" x1="377.1" y1="300.4" x2="377.1" y2="292"/>
	<line class="st3" x1="363.3" y1="300.4" x2="363.3" y2="292"/>
	<line class="st3" x1="349.2" y1="300.4" x2="349.2" y2="292"/>
	<line class="st3" x1="427.7" y1="309.5" x2="336.3" y2="309.4"/>
	<line class="st3" x1="412.1" y1="309.2" x2="412.1" y2="300.7"/>
	<line class="st3" x1="398" y1="309.2" x2="398" y2="300.7"/>
	<line class="st3" x1="384.3" y1="309.2" x2="384.3" y2="300.7"/>
	<line class="st3" x1="370.2" y1="309.2" x2="370.2" y2="300.7"/>
	<line class="st3" x1="356.4" y1="309.2" x2="356.4" y2="300.7"/>
	<line class="st3" x1="342.3" y1="309.2" x2="342.3" y2="300.7"/>
	<line class="st3" x1="419.1" y1="318.8" x2="419.1" y2="310.3"/>
	<line class="st3" x1="405" y1="318.8" x2="405" y2="310.3"/>
	<line class="st3" x1="391.4" y1="318.8" x2="391.4" y2="310.3"/>
	<line class="st3" x1="377.2" y1="318.8" x2="377.2" y2="310.3"/>
	<line class="st3" x1="363.4" y1="318.8" x2="363.4" y2="310.3"/>
	<line class="st3" x1="349.3" y1="318.8" x2="349.3" y2="310.3"/>
	<line class="st3" x1="427" y1="233.6" x2="427" y2="225.1"/>
	<line class="st3" x1="426.9" y1="252.8" x2="426.9" y2="244.3"/>
	<line class="st3" x1="426.4" y1="271.5" x2="426.4" y2="263.1"/>
	<line class="st3" x1="426.3" y1="290.7" x2="426.3" y2="282.3"/>
	<line class="st3" x1="426.4" y1="309.1" x2="426.4" y2="300.6"/>
</g>
<path class="st4" d="M459.5,413.6v-66.4c0-12.1-10.6-20.8-22.7-20.8h-0.2c-12.1,0-21.7,8.7-21.7,20.8v66.4"/>
<path class="st5" d="M364.7,287.9v-43.8c0-1.8,0.6-1.5,2.4-1.5H417c1.7,0,3.3-0.4,3.3,1.5v43.8"/>
<path class="st5" d="M457.4,287.9v-44c0-1.8,1.2-1.2,2.9-1.2h50.1c1.7,0,3.3-0.6,3.3,1.2v44"/>
<path class="st6" d="M425.4,378.6c0,1-0.8,1.9-1.9,1.9c-1,0-1.9-0.8-1.9-1.9c0-1,0.8-1.9,1.9-1.9
	C424.6,376.7,425.4,377.5,425.4,378.6"/>
<path class="st7" d="M421.1,348c0-1.7,1.4-3.1,3.1-3.1h26.1c1.7,0,3.1,1.4,3.1,3.1v17.9c0,1.7-1.4,3.1-3.1,3.1h-26.1
	c-1.7,0-3.1-1.4-3.1-3.1V348z"/>
<line class="st8" x1="363.3" y1="266.7" x2="419.6" y2="266.7"/>
<line class="st8" x1="456.7" y1="265.3" x2="512.3" y2="265.3"/>
<line class="st8" x1="391.5" y1="242.6" x2="391.5" y2="289.5"/>
<line class="st8" x1="485.6" y1="242.6" x2="485.6" y2="289.5"/>
<path class="st4" d="M362.7,288.8c0-1.5,1.2-2.8,2.8-2.8h54.9c1.5,0,2.8,1.2,2.8,2.8v0.6c0,1.5-1.2,2.8-2.8,2.8h-54.9
	c-1.5,0-2.8-1.2-2.8-2.8V288.8z"/>
<path class="st4" d="M456,288.8c0-1.5,1.2-2.8,2.8-2.8h54.9c1.5,0,2.8,1.2,2.8,2.8v0.6c0,1.5-1.2,2.8-2.8,2.8h-54.9
	c-1.5,0-2.8-1.2-2.8-2.8V288.8z"/>
<path class="st5" d="M486.3,382.7v-44c0-1.8,0.6-1.2,1.4-1.2h24.4c0.8,0,1.6-0.6,1.6,1.2v44"/>
<line class="st8" x1="486.3" y1="360.1" x2="512.3" y2="360.1"/>
<path class="st4" d="M485.4,388.7h30.1c1.1,0,2-0.9,2-2v-2.3c0-1.1-0.9-2-2-2h-30.1c-1.1,0-2,0.9-2,2v2.3
	C483.4,387.8,484.3,388.7,485.4,388.7z"/>
<g>
	<line class="st9" x1="499.2" y1="252.3" x2="502.1" y2="254.6"/>
	<line class="st9" x1="493.9" y1="252.7" x2="502.3" y2="259.5"/>
</g>
<g>
	<line class="st9" x1="471.5" y1="271.7" x2="474.4" y2="274.1"/>
	<line class="st9" x1="466.2" y1="272.2" x2="474.6" y2="279"/>
</g>
<g>
	<line class="st9" x1="406.2" y1="273.6" x2="409.2" y2="275.9"/>
	<line class="st9" x1="400.9" y1="274.1" x2="409.3" y2="280.8"/>
</g>
<g>
	<line class="st9" x1="379" y1="252.3" x2="381.9" y2="254.6"/>
	<line class="st9" x1="373.7" y1="252.8" x2="382.1" y2="259.5"/>
</g>
<g>
	<line class="st9" x1="501.2" y1="344.9" x2="504.1" y2="347.3"/>
	<line class="st9" x1="495.9" y1="345.4" x2="504.3" y2="352.1"/>
</g>
<line class="st10" x1="406.9" y1="213" x2="391.5" y2="213"/>
<polygon class="st2" points="335.9,414.6 335.9,225.8 540.1,225.5 540.1,227.3 540.1,414.9 "/>
<line class="st11" x1="862.3" y1="415" x2="865.7" y2="415"/>
<line class="st11" x1="838.1" y1="415" x2="856.1" y2="415"/>
<line class="st11" x1="67.5" y1="415" x2="830.9" y2="415"/>
<line class="st11" x1="33.1" y1="415" x2="60.2" y2="415"/>
<line class="st11" x1="12.4" y1="415" x2="25.3" y2="415"/>
<text transform="matrix(1 0 0 1 79 89.4004)"><tspan x="0" y="0" class="st12 st13 st14">Install of POD Point on </tspan><tspan x="0" y="22" class="st12 st13 st14">a brick or plaster wall, </tspan><tspan x="0" y="44" class="st12 st13 st14">or other suitable </tspan><tspan x="0" y="66" class="st12 st13 st14">permanent structure.</tspan></text>
<circle class="st15" cx="56.2" cy="82.8" r="11.2"/>
<g>
	<text transform="matrix(1 0 0 1 52.832 89)" class="st16 st17 st18">1</text>
</g>
<text transform="matrix(1 0 0 1 79 264.4004)"><tspan x="0" y="0" class="st12 st13 st14">Up to 15 metres of cable, </tspan><tspan x="0" y="22" class="st12 st13 st14">run between the distribution </tspan><tspan x="0" y="44" class="st12 st13 st14">board/electricity meter and </tspan><tspan x="0" y="66" class="st12 st13 st14">the POD Point.</tspan></text>
<circle class="st15" cx="56.2" cy="257.8" r="11.2"/>
<g>
	<text transform="matrix(1 0 0 1 51.0962 263)" class="st16 st17 st18">2</text>
</g>
<text transform="matrix(1 0 0 1 665 266.4004)"><tspan x="0" y="0" class="st12 st13 st14">The cable clipped flush </tspan><tspan x="0" y="22" class="st12 st13 st14">to the wall at a height of </tspan><tspan x="0" y="44" class="st12 st13 st14">up to 6ft, running above </tspan><tspan x="0" y="66" class="st12 st13 st14">the ground.</tspan></text>
<circle class="st15" cx="642.2" cy="259.8" r="11.2"/>
<g>
	<text transform="matrix(1 0 0 1 636.5439 266)" class="st16 st17 st18">4</text>
</g>
<text transform="matrix(1 0 0 1 665 88.4004)"><tspan x="0" y="0" class="st12 st13 st14">Cable run through a </tspan><tspan x="0" y="22" class="st12 st13 st14">single wall of up to half </tspan><tspan x="0" y="44" class="st12 st13 st14">a metre thickness. </tspan></text>
<circle class="st15" cx="642.2" cy="81.8" r="11.2"/>
<g>
	<text transform="matrix(1 0 0 1 637.0562 88)" class="st16 st17 st18">3</text>
</g>
<path class="st19" d="M151,176.5v35.4c0,9.4,7.6,17.1,17.1,17.1h120.9c9.4,0,17.1,7.6,17.1,17.1v106.9c0,9.4,7.6,17.1,17.1,17.1
	h32.4"/>
<path class="st19" d="M151.5,350.5v29.2c0,10.9,8.9,19.8,19.8,19.8h167.2"/>
<path class="st20" d="M377.5,387.5v9.4c0,1.4-1.2,2.6-2.6,2.6h-32.4"/>
<path class="st19" d="M732.5,151.5v40.6c0,11.2-9.1,20.4-20.4,20.4H603.9c-11.2,0-20.4,9.1-20.4,20.4v144.3
	c0,12.3-10,22.3-22.3,22.3H383.5"/>
<path class="st19" d="M732.5,353.5v24c0,12.1-9.8,22-22,22h-138"/>
<g>
	<path class="st21" d="M374.5,365"/>
	<circle class="st22" cx="377.6" cy="370.4" r="17"/>
	<path class="st23" d="M383.3,381.1c3.8-2,6.4-6,6.4-10.6c0-4.6-2.5-8.5-6.3-10.6"/>
	<path class="st23" d="M371.9,359.8c-3.8,2-6.4,6-6.4,10.6c0,4.6,2.6,8.6,6.4,10.6"/>
	<path d="M371.9,385.7l0,0.8c2,0.7,3.8,1,5.8,1c1.9,0,3.8-0.4,5.7-1l0-0.8l0-1.4v-4.9l0-4.8c0.8-1.1,1.3-2.5,1.3-4
		c0-1.5-0.5-2.9-1.3-4l0-0.4v-11.6c-2-0.7-3.8-1-5.8-1c-1.9,0-3.8,0.3-5.7,1V366l0,0.2c-0.9,1.2-1.4,2.6-1.4,4.2s0.5,3,1.4,4.2
		l0,0.5v9.2"/>
	<circle class="st12" cx="377.6" cy="370.4" r="4.7"/>
	<circle class="st24" cx="377.6" cy="381.3" r="1.2"/>
</g>
<line class="st20" x1="377" y1="391.5" x2="378" y2="391.5"/>
<line class="st20" x1="353.5" y1="399" x2="353.5" y2="400"/>
<line class="st20" x1="367.5" y1="399" x2="367.5" y2="400"/>
<path class="st25" d="M392.3,199.9h4.5c0.5,0,0.9-0.4,0.9-0.9c0-0.5-0.4-0.9-0.9-0.9h-4.5c-0.5,0-0.9,0.4-0.9,0.9
	C391.4,199.5,391.8,199.9,392.3,199.9"/>
<path class="st25" d="M368.8,199.9H387c0.5,0,0.9-0.4,0.9-0.9c0-0.5-0.4-0.9-0.9-0.9h-18.2c-0.5,0-0.9,0.4-0.9,0.9
	C367.9,199.5,368.3,199.9,368.8,199.9"/>
<path class="st26" d="M334.5,225.8h-4.8c-2.8,0-4.1-4-1.9-5.8l108-90.1c1.1-0.9,2.8-1.1,3.9-0.1l108.1,89.9c2.2,1.8,0.9,5.3-1.9,5.3
	l-5.7,0.5L334.5,225.8z"/>
<path class="st27" d="M474,158.3v-9.7c0-4.1,4.5-5.4,9.6-5.4h15.6c5,0,9.1,2.3,9.1,6.4l-0.1,37.4"/>
<path class="st4" d="M509.7,150.2h-37c-1.8,0-3.2-1.4-3.2-3.2v-13.4c0-1.8,1.4-3.2,3.2-3.2h37c1.8,0,3.2,1.4,3.2,3.2v13.4
	C512.8,148.8,511.4,150.2,509.7,150.2z"/>
<path class="st27" d="M500.6,130.3h-18.9c-0.6,0-1-0.5-1-1V120c0-0.6,0.5-1,1-1h18.9c0.6,0,1,0.5,1,1v9.2
	C501.6,129.8,501.1,130.3,500.6,130.3z"/>
<line class="st28" x1="474" y1="154.5" x2="489.4" y2="154.5"/>
<line class="st28" x1="474.3" y1="157.8" x2="483.3" y2="157.8"/>
<line class="st29" x1="502.9" y1="206.2" x2="487.4" y2="206.2"/>
<line class="st29" x1="425.6" y1="153.7" x2="410.1" y2="153.7"/>
<line class="st29" x1="472.6" y1="189" x2="457.1" y2="189"/>
<line class="st29" x1="413.2" y1="183.3" x2="397.8" y2="183.3"/>
<line class="st29" x1="422.6" y1="194.2" x2="407.1" y2="194.2"/>
<line class="st29" x1="363.2" y1="205.6" x2="347.8" y2="205.6"/>
<line class="st29" x1="516.3" y1="196.7" x2="500.9" y2="196.7"/>
<path class="st2" d="M334.5,225.8h-4.8c-2.8,0-4.1-4-1.9-5.8l108-90.1c1.1-0.9,2.8-1.1,3.9-0.1l108.1,89.9c2.2,1.8,0.9,5.3-1.9,5.3
	l-5.7,0.5L334.5,225.8z"/>
<path class="st30" d="M495.7,78.9l0.9,0.9c1.2,1.2,1.2,3.1,0.1,4.2l-1.2,1.3c-1.2,1.2-1.1,3.1,0.1,4.2l0.8,0.7
	c1.2,1.2,1.2,3.1,0.1,4.2l-1.2,1.3c-1.2,1.2-1.1,3.1,0.1,4.2l1.3,1.2c1.2,1.2,1.2,3.1,0.1,4.2l-1.5,1.6c-1,1.1-1.1,2.7-0.2,3.9
	l1.5,1.9"/>
<path class="st30" d="M486.7,79.1l0.9,0.9c1.2,1.2,1.2,3.1,0.1,4.2l-1.2,1.3c-1.2,1.2-1.1,3.1,0.1,4.2l0.8,0.7
	c1.2,1.2,1.2,3.1,0.1,4.2l-1.2,1.3c-1.2,1.2-1.1,3.1,0.1,4.2l1.3,1.2c1.2,1.2,1.2,3.1,0.1,4.2l-1.5,1.6c-1,1.1-1.1,2.7-0.2,3.9
	l1.5,1.9"/>
<circle class="st12" cx="732" cy="148" r="3"/>
<circle class="st12" cx="151" cy="173" r="3"/>
<circle class="st12" cx="152" cy="347" r="3"/>
<circle class="st12" cx="733" cy="350" r="3"/>
<path class="st0" d="M37.1,33.8c-1.6,0.4-2.8,1.9-2.8,3.6c0,0.1,0,0.3,0,0.4h15.9c0.1-1.6-1.1-2.1-1.1-2.1c0.1-1.7-1.3-3-3.3-2.9h0
	c-0.7-1.6-2.3-2.7-4.1-2.7C39.3,30.1,37.4,31.6,37.1,33.8"/>
<path class="st0" d="M27.7,37.6h-7c-0.8,0-1.4-0.6-1.4-1.4c0-0.8,0.6-1.4,1.4-1.4h7c0.8,0,1.4,0.6,1.4,1.4
	C29.1,37,28.5,37.6,27.7,37.6"/>
<path class="st0" d="M205.6,59.6c-0.7,0-1.2-0.6-1.2-1.2c0-0.7,0.6-1.2,1.2-1.2h6.9c0.7,0,1.2,0.6,1.2,1.2v0c0,0.7-0.6,1.2-1.2,1.2
	H205.6"/>
<path class="st0" d="M216.8,58.4c0,0.7,0.6,1.2,1.2,1.2h12.9c0.7,0,1.2-0.6,1.2-1.2c0-0.7-0.6-1.2-1.2-1.2H218
	C217.3,57.1,216.8,57.7,216.8,58.4L216.8,58.4z"/>
<circle class="st12" cx="353" cy="370" r="3"/>
<circle class="st12" cx="388" cy="399" r="3"/>
<circle class="st12" cx="336" cy="400" r="3"/>
</svg>
