<?xml version="1.0" encoding="utf-8"?>
<!-- Generator: Adobe Illustrator 21.0.2, SVG Export Plug-In . SVG Version: 6.00 Build 0)  -->
<svg version="1.1" id="Layer_1" xmlns="http://www.w3.org/2000/svg" xmlns:xlink="http://www.w3.org/1999/xlink" x="0px" y="0px"
	 viewBox="0 0 397 295" style="enable-background:new 0 0 397 295;" xml:space="preserve">
<style type="text/css">
	
		.st0{fill:none;stroke:#333333;stroke-width:1.5;stroke-linecap:round;stroke-linejoin:round;stroke-miterlimit:10;stroke-dasharray:5,6;}
	.st1{fill:#E6E6E6;stroke:#333333;stroke-width:1.5;stroke-linecap:round;stroke-linejoin:round;stroke-miterlimit:10;}
	.st2{fill:#8FC043;stroke:#333333;stroke-width:1.5;stroke-linecap:round;stroke-linejoin:round;stroke-miterlimit:10;}
	.st3{fill:#8CC63F;stroke:#333333;stroke-width:1.5;stroke-linecap:round;stroke-linejoin:round;stroke-miterlimit:10;}
	.st4{fill:none;stroke:#333333;stroke-width:1.5;stroke-linecap:round;stroke-linejoin:round;stroke-miterlimit:10;}
	.st5{fill:#F2F2F2;stroke:#000000;stroke-width:1.5;stroke-miterlimit:10;}
	.st6{fill:none;stroke:#333333;stroke-width:1.5;stroke-linecap:round;stroke-miterlimit:10;}
</style>
<ellipse transform="matrix(5.506931e-02 -0.9985 0.9985 5.506931e-02 36.304 360.0904)" class="st0" cx="208.4" cy="160.9" rx="127.5" ry="127.5"/>
<path class="st1" d="M291.8,194.1H162.6c-7.5,0-13.6-6.1-13.6-13.6V77c0-7.5,6.1-13.6,13.6-13.6h179.5c7.5,0,13.6,6.1,13.6,13.6
	v103.4c0,7.5-6.1,13.6-13.6,13.6h-9.9v25L291.8,194.1z"/>
<path class="st2" d="M342.7,188.3h-16.5l0.2,20l-31.2-20h-133c-3.7,0-6.6-3-6.6-6.7V76.8c0-3.7,3-6.7,6.6-6.7h180.6
	c3.7,0,6.6,3,6.6,6.7v104.8C349.4,185.3,346.4,188.3,342.7,188.3z"/>
<path class="st1" d="M229.1,248.8C229.1,248.8,229.1,248.8,229.1,248.8c-2,3.1-4,6.1-5.9,9.2c1.3,0,2.5,0.1,3.8,0.1
	c0,1.9-0.1,3.7-0.1,5.6c0,0,0,0,0.1,0c2-3.1,3.9-6.1,5.9-9.2c-1.3,0-2.5-0.1-3.8-0.1C229,252.5,229,250.7,229.1,248.8z"/>
<path class="st1" d="M195.8,26.4C195.8,26.4,195.8,26.4,195.8,26.4c-2,3.1-4,6.1-5.9,9.2c1.3,0,2.5,0.1,3.8,0.1
	c0,1.9-0.1,3.7-0.1,5.6c0,0,0,0,0.1,0c2-3.1,3.9-6.1,5.9-9.2c-1.3,0-2.5-0.1-3.8-0.1C195.7,30.1,195.8,28.3,195.8,26.4z"/>
<path class="st1" d="M127.6,88.1C127.5,88.1,127.5,88.1,127.6,88.1c-2,3.1-4,6.1-5.9,9.2c1.3,0,2.5,0.1,3.8,0.1
	c0,1.9-0.1,3.7-0.1,5.6c0,0,0,0,0.1,0c2-3.1,3.9-6.1,5.9-9.2c-1.3,0-2.5-0.1-3.8-0.1C127.5,91.8,127.5,90,127.6,88.1z"/>
<path class="st1" d="M253.7,5.9C253.7,5.9,253.6,5.9,253.7,5.9c-2,3.1-4,6.1-5.9,9.2c1.3,0,2.5,0.1,3.8,0.1c0,1.9-0.1,3.7-0.1,5.6
	c0,0,0,0,0.1,0c2-3.1,3.9-6.1,5.9-9.2c-1.3,0-2.5-0.1-3.8-0.1C253.6,9.6,253.6,7.8,253.7,5.9z"/>
<path class="st3" d="M153,270.1C153,270.1,152.9,270.1,153,270.1c-2,3.1-4,6.1-5.9,9.2c1.3,0,2.5,0.1,3.8,0.1c0,1.9-0.1,3.7-0.1,5.6
	c0,0,0,0,0.1,0c2-3.1,3.9-6.1,5.9-9.2c-1.3,0-2.5-0.1-3.8-0.1C152.9,273.8,152.9,272,153,270.1z"/>
<path class="st3" d="M81.7,34.9C81.7,34.9,81.7,34.9,81.7,34.9c-2,3.1-4,6.1-5.9,9.2c1.3,0,2.5,0.1,3.8,0.1c0,1.9-0.1,3.7-0.1,5.6
	c0,0,0,0,0.1,0c2-3.1,3.9-6.1,5.9-9.2c-1.3,0-2.5-0.1-3.8-0.1C81.6,38.6,81.7,36.7,81.7,34.9z"/>
<path class="st3" d="M317.4,267.3C317.4,267.3,317.3,267.3,317.4,267.3c-2,3.1-4,6.1-5.9,9.2c1.3,0,2.5,0.1,3.8,0.1
	c0,1.9-0.1,3.7-0.1,5.6c0,0,0,0,0.1,0c2-3.1,3.9-6.1,5.9-9.2c-1.3,0-2.5-0.1-3.8-0.1C317.3,271,317.3,269.1,317.4,267.3z"/>
<path class="st3" d="M271.3,215.7C271.3,215.7,271.3,215.6,271.3,215.7c-2,3.1-4,6.1-5.9,9.2c1.3,0,2.5,0.1,3.8,0.1
	c0,1.9-0.1,3.7-0.1,5.6c0,0,0,0,0.1,0c2-3.1,3.9-6.1,5.9-9.2c-1.3,0-2.5-0.1-3.8-0.1C271.2,219.4,271.3,217.5,271.3,215.7z"/>
<path class="st1" d="M383.3,125.4C383.3,125.4,383.3,125.4,383.3,125.4c-2.6,3.9-5.1,7.9-7.6,11.9c1.7,0,3.3,0.1,4.9,0.1
	c-0.1,2.4-0.1,4.8-0.2,7.2c0,0,0,0,0.1,0c2.5-3.9,5-7.9,7.5-11.9c-1.6,0-3.2-0.1-4.8-0.1C383.2,130.2,383.3,127.8,383.3,125.4z"/>
<path class="st3" d="M44.1,192.6C44,192.6,44,192.6,44.1,192.6c-2,3.1-4,6.1-5.9,9.2c1.3,0,2.5,0.1,3.8,0.1c0,1.9-0.1,3.7-0.1,5.6
	c0,0,0,0,0.1,0c2-3.1,3.9-6.1,5.9-9.2c-1.3,0-2.5-0.1-3.8-0.1C44,196.3,44,194.4,44.1,192.6z"/>
<line class="st4" x1="194.1" y1="99" x2="324" y2="98.7"/>
<line class="st4" x1="223.8" y1="128.7" x2="322.8" y2="129.2"/>
<line class="st4" x1="223.8" y1="158.4" x2="323.9" y2="158.7"/>
<path class="st1" d="M119.9,243.8l75.2-0.2c5.3,0,9.6-5.8,9.6-13v-98.4c0-7.1-4.3-13-9.6-13H68.2c-5.3,0-9.6,5.8-9.6,13v98.4
	c0,7.1,4.3,13,9.6,13l11.6,0.2v23.6L119.9,243.8z"/>
<path class="st2" d="M192.8,238.1h-75.9L85.6,256l0-17.9h-15c-3.1,0-5.6-2.5-5.6-5.6V131.3c0-3.1,2.5-5.6,5.6-5.6h122.3
	c3.1,0,5.6,2.5,5.6,5.6v101.1C198.4,235.5,195.9,238.1,192.8,238.1z"/>
<circle class="st5" cx="126.9" cy="219.8" r="3.9"/>
<path class="st5" d="M117.4,152.7c4-4,8.1-5.6,14.3-4.8c7.1,0.9,13.1,5.7,14.3,12.7c1.3,7.6-2.4,14.3-8.5,17.6
	c-4.8,2.5-13.3,9.8-13.3,19.8v8.3c0,1.6,1.3,2.8,2.8,2.8l0,0c1.5,0,2.7-1.2,2.7-2.7l0-6.4c0-7,3.9-13.5,10.1-16.7
	c7.6-4,12.5-12.3,11.5-21.7c-1.1-10.2-9.5-18.3-19.7-19.2c-7.6-0.7-14.5,2.6-18.9,8c-0.9,1.1-0.6,2.8,0.8,3.5l0,0
	C114.6,154.4,115.8,154.3,117.4,152.7z"/>
<line class="st6" x1="384.8" y1="208" x2="392" y2="208"/>
<line class="st6" x1="354" y1="208" x2="380.3" y2="208"/>
<line class="st6" x1="365.8" y1="99" x2="377" y2="99"/>
<line class="st6" x1="26" y1="170" x2="3" y2="170"/>
<line class="st6" x1="43" y1="170" x2="30" y2="170"/>
</svg>
