<?xml version="1.0" encoding="utf-8"?>
<!-- Generator: Adobe Illustrator 21.0.2, SVG Export Plug-In . SVG Version: 6.00 Build 0)  -->
<svg version="1.1" id="Layer_1" xmlns="http://www.w3.org/2000/svg" xmlns:xlink="http://www.w3.org/1999/xlink" x="0px" y="0px"
	 viewBox="0 0 439 340" style="enable-background:new 0 0 439 340;" xml:space="preserve">
<style type="text/css">
	.st0{fill:none;stroke:#FFFFFF;stroke-width:2;stroke-linecap:round;stroke-dasharray:10,10;}
	.st1{fill:#8CC63F;stroke:#333333;stroke-width:2;stroke-linecap:round;stroke-linejoin:round;}
	.st2{fill:#F2F2F2;stroke:#333333;stroke-width:2;stroke-linecap:round;stroke-linejoin:round;stroke-miterlimit:10;}
	.st3{fill:none;stroke:#333333;stroke-width:2;stroke-linecap:round;stroke-linejoin:round;}
	.st4{opacity:0.43;fill:#B1B1B1;stroke:#333333;stroke-width:1.5;}
	.st5{opacity:0.43;fill:#B1B1B1;stroke:#333333;stroke-width:1.5;stroke-linecap:round;}
	.st6{fill:#8CC63F;stroke:#333333;stroke-width:1.5;stroke-miterlimit:10;}
	.st7{fill:#FFFFFF;stroke:#333333;stroke-width:1.5;stroke-miterlimit:10;}
	.st8{fill:none;stroke:#333333;stroke-width:1.5;stroke-miterlimit:10;}
	.st9{fill:#3C3C3B;stroke:#333333;stroke-width:1.5;stroke-miterlimit:10;}
	.st10{fill:#E6E6E6;}
	.st11{fill:#333333;stroke:#333333;stroke-width:0.5;}
	.st12{fill:#8CC63F;stroke:#333333;}
	.st13{fill:#E6E6E6;stroke:#E6E6E6;stroke-width:0.5;}
	.st14{fill:#8CC63F;stroke:#333333;stroke-miterlimit:10;}
	.st15{fill:#8CC63F;stroke:#333333;stroke-linecap:round;stroke-linejoin:round;}
</style>
<ellipse class="st0" cx="227.5" cy="172.2" rx="119.6" ry="119.1"/>
<polyline class="st1" points="229.2,272.1 224,272 218.9,271.7 213.9,271.2 208.9,270.4 204,269.4 199.3,268.1 194.6,266.6 
	190,264.9 185.5,263 181.2,260.9 176.9,258.6 172.8,256.1 168.9,253.4 165,250.5 161.3,247.4 157.8,244.2 154.4,240.8 151.2,237.3 
	148.2,233.6 145.3,229.7 142.6,225.7 140.2,221.6 137.9,217.4 135.8,213 134,208.5 132.3,204 130.9,199.3 129.7,194.5 128.8,189.7 
	128.1,184.7 127.6,179.7 127.4,174.6 127.5,169.5 127.8,164.5 128.4,159.5 129.2,154.6 130.3,149.8 131.6,145.1 133.1,140.4 
	134.9,135.9 136.9,131.5 139,127.2 141.4,123 144,118.9 146.8,115 149.7,111.2 152.8,107.5 156.1,104 159.6,100.6 163.2,97.4 
	166.9,94.4 170.9,91.6 174.9,88.9 179.1,86.5 183.4,84.2 187.8,82.1 192.4,80.2 197,78.6 201.8,77.2 206.6,76 211.5,75 216.6,74.3 
	221.6,73.8 226.8,73.6 231.9,73.7 237.1,74 242.1,74.5 247,75.3 251.9,76.3 256.7,77.6 261.4,79 265.9,80.7 270.4,82.6 274.8,84.8 
	279,87.1 283.1,89.6 287.1,92.3 290.9,95.2 294.6,98.2 298.2,101.5 301.5,104.9 304.8,108.4 307.8,112.1 310.6,116 313.3,119.9 
	315.8,124.1 318.1,128.3 320.1,132.6 322,137.1 323.6,141.7 325,146.4 326.2,151.2 327.2,156 327.9,161 328.3,166 328.5,171.1 
	328.5,176.2 328.1,181.2 327.5,186.2 326.7,191.1 325.7,195.9 324.4,200.6 322.8,205.2 321,209.8 319.1,214.2 316.9,218.5 
	314.5,222.7 312,226.8 309.2,230.7 306.3,234.5 303.2,238.2 299.8,241.7 296.4,245.1 292.8,248.3 289,251.2 285.1,254.1 
	281.1,256.8 276.9,259.2 272.6,261.5 268.1,263.6 263.6,265.4 259,267.1 254.2,268.5 249.4,269.7 244.4,270.7 239.4,271.4 
	234.3,271.9 229.2,272.1 "/>
<polygon class="st2" points="230.7,234.9 230.3,236 230.2,240.6 229.2,242.8 225.7,244 224.2,247 224.3,251.3 227,253.4 
	231.2,255.9 235.7,260.4 238.7,263.9 241,264 241.3,266.5 240.1,269.1 240.5,270.9 240.8,271.1 251,269.1 260.8,266.1 270.3,262.2 
	281.4,256 291.3,248.8 291.5,245.8 293.2,241.5 296.3,237.1 298,234.5 295.5,232.6 294.1,232.4 290.8,233.8 284.3,235.3 279,236 
	274.7,231 267.8,231.1 262.7,230.2 256.8,227.7 252.2,228.8 245.7,228.9 243.2,230.1 238.5,228.5 235.3,229.9 232.6,232.1 
	231.1,233.7 228.7,233.2 225,232.8 221.8,230.5 221.2,229 222.2,226.2 222.4,223.8 220.2,222.3 216.8,221.4 213.1,221.4 
	212.7,219.7 213.9,217.5 214.4,213.7 212.2,212.4 209.3,213.4 208.1,215.4 206,216 203.2,215.1 199.5,212.1 199.1,208.1 
	199.6,204.6 202.7,200.4 206.8,199.5 209.3,199.9 211.1,200.9 212.9,200.6 214.8,199.6 218.1,199.9 221.3,201.2 223.5,204.5 
	225.3,207.1 227.2,206.4 226.6,203.3 225.4,200.8 226,197.6 227.5,195 231.3,192.2 233.7,190.2 233.8,186.5 235.4,182.3 
	237.3,179.5 238.6,179.1 239.4,177.2 241.3,174.2 243.1,173.3 244.8,174.3 246.2,172.7 249.1,171.1 251.2,169.9 250.4,167.9 
	247.5,168.4 246.1,168 245.9,165.8 244,165.3 242,166.9 239.9,167.9 239.7,166.9 241.8,164.7 245.3,162.9 247.5,162.7 250.4,161.4 
	251.3,159.3 250.3,156.5 247.3,153 242,149 238.9,148.6 237.1,148.3 235.3,146 230,143.7 228,144.3 228.1,147.7 228.3,152 
	229.7,153.5 228.6,155.3 228,159.1 227.5,162.4 225.3,160.5 223.7,158 223.5,155 220.9,153.9 217,153 215.6,150.8 215.9,146.3 
	218.3,142.7 221.9,139.1 225.2,136.7 226.7,134.7 225,132.8 222.6,133.6 220.1,132.9 219.7,130.3 219.4,128 217.7,128 217.1,131.4 
	215.6,132.8 214.2,131.8 214.1,127.7 213.1,125 211,123.8 209.2,121.1 206.3,121.3 204.5,122.9 206.7,124.8 207.1,127.2 
	209.7,129.1 209.3,131.7 201.4,125.5 197.3,121.9 195.1,118.8 195,116 194.2,112.3 192.4,111.5 189.1,111.6 187.7,112.4 186,112.1 
	184,112.3 183.3,114.2 182.5,115.6 178.8,114.9 176.4,116.5 175.1,119.3 174.3,121.7 172.2,121.3 170,119.6 170.8,122.1 
	174.2,123.7 177.9,125 181.1,126.7 182.3,130 182.5,133.7 181.2,139.2 179.5,145 179.2,149.5 179.2,152.1 179.8,154.8 177.5,157.6 
	175.4,161.2 173.3,165.9 172.4,171.6 171.7,179.7 172.5,182.6 174.2,188.1 175.4,192.4 177.2,197.5 179.6,200 181.6,200.8 
	179.6,198.4 178.6,195.5 177.9,192.2 177.3,189.2 178.9,188.8 179.7,191.2 181.1,196.8 184.1,202.9 185,206.2 184.2,208.4 
	186,211.1 189.5,212.8 194.9,217.6 198.2,219 203.3,220.6 209.2,223.1 212.2,225 214.9,227.5 217.2,232.4 221.5,234.1 224.3,235 
	227.4,234.6 "/>
<polygon class="st2" points="219.7,212.7 222,211.6 225.7,212.6 230.1,213.9 233.4,214.2 236.3,215.5 235.6,217.1 232.1,217.6 
	229.1,215.4 225.5,213.7 "/>
<polygon class="st2" points="237.3,216.5 237.2,218.1 239.7,219 242.1,219.4 246.2,218.7 243.4,217.2 243.6,216.2 242,215.6 "/>
<polygon class="st2" points="251.9,159 253.3,160.4 255.9,162.5 258.6,164.8 259.4,166.6 255.1,166.7 252.4,163.6 251.4,161.4 "/>
<polygon class="st2" points="233.5,143.1 231,142.3 227.8,141.8 230.9,139.4 231.1,136 229.7,133.9 225.9,132.8 223.4,131.6 
	220.8,128.3 222.9,126.3 225.9,127.1 229.6,129 233.2,130.9 234.6,134 235.8,134.9 238.7,136.3 240.5,139.4 239,141.2 238.4,143.8 
	236.1,144.2 "/>
<polygon class="st2" points="247.8,140.1 251.3,142.3 252.9,143.1 256.4,142.1 260.7,140.6 256.6,139.1 255.2,137 255.5,133.2 
	255.8,126.7 258.2,124.5 258.1,121 254.4,117.3 250.4,114.5 245.7,113 241.8,110.5 237.2,110.4 233.7,111.6 232,113.8 230,114 
	229.8,112.5 227.1,112.5 223.8,113.9 224.4,116.1 222.9,119.9 224.5,122.2 227.6,124.1 228.9,119.4 230.5,117.6 231.5,120.9 
	234.2,123.6 236.8,124.7 240.8,127.8 244.1,130.9 245,136.8 247.4,138.1 "/>
<polygon class="st2" points="261.1,123.9 261.5,127.2 262.7,129 264.9,129.9 267.6,126.7 268.7,122.8 266.3,121.1 263.8,121.9 
	262.6,123.5 "/>
<polygon class="st3" points="261.1,123.9 261.5,127.2 262.7,129 264.9,129.9 267.6,126.7 268.7,122.8 266.3,121.1 263.8,121.9 
	262.6,123.5 "/>
<polygon class="st2" points="303.3,107.6 304.7,111 304.5,114.3 305.3,117 308.1,118.8 307.9,120.9 305.6,121.7 304,121.6 
	301.9,122.6 306.2,124.5 305.6,126.3 301.7,126.3 302.1,128.5 303.1,131.2 303.2,134.4 305,137.3 306.4,140 308.6,142 307.6,143.3 
	307.2,144.7 306.5,147.7 304.2,149.5 300.4,147.2 300.2,145 298,143.1 298,140.4 299.9,138.3 299.7,135.4 296.1,134.5 294.4,134.5 
	293.2,132.6 293.5,128 290.9,123.2 288.4,121.5 287.5,118.4 286.9,114 283.7,109.3 282.9,105.8 280.3,104.9 277.6,103.4 276,102.4 
	275,103.4 276.4,105 274.1,106.8 276.2,107.3 278.6,109.1 281.2,111.6 284.3,113.3 281.2,114.7 280.3,116.7 277.5,116.2 
	274.2,114.5 271.6,110.2 269.6,108.6 265.1,106.4 261.7,104.6 259.4,101.3 262.1,99.7 266.9,98.9 266.3,96.7 264.4,96.1 263.8,97.3 
	260.4,97.4 261,95.2 258.9,94.3 257.5,92.3 253.5,89.8 247.6,85.8 246.4,86.4 245.3,87.8 242.8,88.7 241.2,87.9 238.2,87.4 
	234.3,87.6 232.4,88.8 228.3,89.5 224.6,89 222,88 221.6,86.1 217.7,85.9 216.1,87.4 212,87.6 208.3,88.5 208.3,90.6 206.4,91.8 
	202.3,92.3 200.7,93.5 201.3,95.5 199.6,96.5 194.7,97.2 194.3,98.9 194.2,101.1 192.6,102.1 189.9,104.9 188,106.9 185.5,108.9 
	182.3,109.6 183.1,108.4 184.6,106 184.2,104.6 181.7,104.7 180.3,102.7 179.1,100.8 181,98.6 183.1,96.8 184.9,96.6 186.5,93.6 
	186,90.3 188.4,89.2 191.6,87.6 191.8,83.9 190,82.3 188.3,81.7 197.4,78.5 205,76.3 212.5,74.9 221.8,73.8 230.1,73.6 239.8,74.3 
	251.8,76.3 263.6,79.9 271.6,83.3 279.9,87.7 286.9,92.3 293.5,97.2 299.2,102.6 303.1,106.7 "/>
<polygon class="st2" points="279.8,119.6 278.1,120.5 278.9,122.2 280.7,124.9 281.3,126.9 282.1,129.8 284.9,132.1 286.8,132.3 
	286,130.5 283.6,128.4 283.4,127.2 285.8,128.2 288.4,129.5 290.7,130.3 290.7,128.3 290.8,128.1 290.9,127.9 290.9,127.7 
	290.9,127.5 290.9,127.1 290.9,126.7 290.8,126.3 290.7,126 290.7,125.8 290.6,125.7 289.1,124.8 284.2,122.7 282,121.7 "/>
<path class="st4" d="M232.4,58.1h-7c-1.5,0-2.7-1.2-2.7-2.7v-1.2c0-1.5,1.2-2.7,2.7-2.7h7c1.5,0,2.7,1.2,2.7,2.7v1.2
	C235.1,56.9,233.9,58.1,232.4,58.1z"/>
<line class="st5" x1="213.9" y1="52.1" x2="210.6" y2="54.5"/>
<line class="st5" x1="211.7" y1="51.8" x2="210.7" y2="52.5"/>
<path class="st6" d="M252.3,57.3c0,0,0-0.1,0.1-0.1c0.3-0.6,0-1.4-0.4-1.9c-0.9-1.3-2.4-2.1-3.8-2.5c-1.5-0.5-3.1-0.7-4.5-1.2
	c-2.4-0.8-4.5-2.3-6.8-3.3c-3.4-1.5-7.2-2.1-11-2.2c-2.1,0-4.3,0.1-6.4,0.3c-1.2,0.1-2.4,0.3-3.6,0.4c-0.1,0-2.4,0.4-2.3,0.5
	c0.4,0.6,1.4,0.7,1.9,1.2c0.1,0.2,0.2,0.4,0.2,0.6c-0.1,0.6-0.9,1-1.4,1.2c-0.7,0.3-1.5,0.6-2.2,0.8c-0.8,0.2-1.7,0.5-2,1.2
	c-0.2,0.4-0.1,0.9-0.1,1.4c0,1.2-0.7,2.2-1,3.3c-0.3,1.4,0,2.9,0.8,4.1c0.4,0,0.6,0,1,0c-0.3-1.6,0.5-3.3,1.9-4.2s3.4-0.9,4.7,0
	c1.3,0.9,2.2,2.7,1.9,4.3c7.1,0,13.9,0,21,0c-0.2-1.9,0.6-3.3,1.9-4.2s3.3-0.9,4.7,0c1.3,0.9,2.1,2.6,1.9,4.2c1.3,0,2.4,0,3.7,0
	c0.4-0.4,0.3-1,0.1-1.6c-0.2-0.5-0.5-1.1-0.4-1.6C252,57.8,252.2,57.6,252.3,57.3z"/>
<path class="st7" d="M217,50.6c-0.8,0.9-1.4,1.3-1.4,1.3c-0.3,0.1-0.3,0.4,0,0.4h10.7c0.4,0,0.6-0.5,0.5-0.8l-0.9-3.3
	c-0.1-0.4-0.5-0.7-0.8-0.7c0,0-3.4-0.4-6.6,0.7C218.1,48.3,217.6,49.9,217,50.6z"/>
<path class="st7" d="M239.9,51.8c0.3,0.2,0.3,0.5-0.1,0.5h-11c-0.4,0-0.7-0.5-0.8-0.8l-0.8-3.3c-0.1-0.4,0.1-0.7,0.5-0.8
	c0,0,4-0.3,7,1.1C235.6,49.1,239.9,51.8,239.9,51.8z"/>
<path class="st8" d="M213.9,47.8c-0.7,0.3-2.8,2.7-3.2,3.8"/>
<circle class="st9" cx="244.3" cy="60.6" r="3.5"/>
<circle class="st9" cx="214.8" cy="60.6" r="3.5"/>
<circle class="st7" cx="244.3" cy="60.6" r="2.1"/>
<circle class="st7" cx="214.8" cy="60.6" r="2.1"/>
<path class="st4" d="M345.8,173v-7c0-1.5,1.2-2.7,2.7-2.7h1.2c1.5,0,2.7,1.2,2.7,2.7v7c0,1.5-1.2,2.7-2.7,2.7h-1.2
	C347,175.7,345.8,174.5,345.8,173z"/>
<line class="st5" x1="351.8" y1="154.5" x2="349.4" y2="151.2"/>
<line class="st5" x1="352.1" y1="152.3" x2="351.4" y2="151.3"/>
<path class="st6" d="M346.6,192.9c0,0,0.1,0,0.1,0.1c0.6,0.3,1.4,0,1.9-0.4c1.3-0.9,2.1-2.4,2.5-3.8c0.5-1.5,0.7-3.1,1.2-4.5
	c0.8-2.4,2.3-4.5,3.3-6.8c1.5-3.4,2.1-7.2,2.2-11c0-2.1-0.1-4.3-0.3-6.4c-0.1-1.2-0.3-2.4-0.4-3.6c0-0.1-0.4-2.4-0.5-2.3
	c-0.6,0.4-0.7,1.4-1.2,1.9c-0.2,0.1-0.4,0.2-0.6,0.2c-0.6-0.1-1-0.9-1.2-1.4c-0.3-0.7-0.6-1.5-0.8-2.2c-0.2-0.8-0.5-1.7-1.2-2
	c-0.4-0.2-0.9-0.1-1.4-0.1c-1.2,0-2.2-0.7-3.3-1c-1.4-0.3-2.9,0-4.1,0.8c0,0.4,0,0.6,0,1c1.6-0.3,3.3,0.5,4.2,1.9
	c0.9,1.3,0.9,3.4,0,4.7s-2.7,2.2-4.3,1.9c0,7.1,0,13.9,0,21c1.9-0.2,3.3,0.6,4.2,1.9c0.9,1.3,0.9,3.3,0,4.7
	c-0.9,1.3-2.6,2.1-4.2,1.9c0,1.3,0,2.4,0,3.7c0.4,0.4,1,0.3,1.6,0.1c0.5-0.2,1.1-0.5,1.6-0.4C346.1,192.6,346.3,192.8,346.6,192.9z"
	/>
<path class="st7" d="M353.3,157.5c-0.9-0.8-1.3-1.4-1.3-1.4c-0.1-0.3-0.4-0.3-0.4,0v10.7c0,0.4,0.5,0.6,0.8,0.5l3.3-0.9
	c0.4-0.1,0.7-0.5,0.7-0.8c0,0,0.4-3.4-0.7-6.6C355.6,158.6,354,158.1,353.3,157.5z"/>
<path class="st7" d="M352.1,180.5c-0.2,0.3-0.5,0.3-0.5-0.1v-11c0-0.4,0.5-0.7,0.8-0.8l3.3-0.8c0.4-0.1,0.7,0.1,0.8,0.5
	c0,0,0.3,4-1.1,7C354.8,176.1,352.1,180.5,352.1,180.5z"/>
<path class="st8" d="M356.1,154.4c-0.3-0.7-2.7-2.8-3.8-3.2"/>
<circle class="st9" cx="343.3" cy="184.9" r="3.5"/>
<circle class="st9" cx="343.3" cy="155.3" r="3.5"/>
<circle class="st7" cx="343.3" cy="184.9" r="2.1"/>
<circle class="st7" cx="343.3" cy="155.3" r="2.1"/>
<path class="st4" d="M227.1,287.6h7c1.5,0,2.7,1.2,2.7,2.7v1.2c0,1.5-1.2,2.7-2.7,2.7h-7c-1.5,0-2.7-1.2-2.7-2.7v-1.2
	C224.4,288.8,225.6,287.6,227.1,287.6z"/>
<line class="st5" x1="245.5" y1="293.6" x2="248.9" y2="291.2"/>
<line class="st5" x1="247.8" y1="293.9" x2="248.8" y2="293.2"/>
<path class="st6" d="M207.1,288.3c0,0,0,0.1-0.1,0.1c-0.3,0.6,0,1.4,0.4,1.9c0.9,1.3,2.4,2.1,3.8,2.5s3.1,0.7,4.5,1.2
	c2.4,0.8,4.5,2.3,6.8,3.3c3.4,1.5,7.2,2.1,11,2.2c2.1,0,4.3-0.1,6.4-0.3c1.2-0.1,2.4-0.3,3.6-0.4c0.1,0,2.4-0.4,2.3-0.5
	c-0.4-0.6-1.4-0.7-1.9-1.2c-0.1-0.2-0.2-0.4-0.2-0.6c0.1-0.6,0.9-1,1.4-1.2c0.7-0.3,1.5-0.6,2.2-0.8c0.8-0.2,1.7-0.5,2-1.2
	c0.2-0.4,0.1-0.9,0.1-1.4c0-1.2,0.7-2.2,1-3.3c0.3-1.4,0-2.9-0.8-4.1c-0.4,0-0.6,0-1,0c0.3,1.6-0.5,3.3-1.9,4.2s-3.4,0.9-4.7,0
	c-1.3-0.9-2.2-2.7-1.9-4.3c-7.1,0-13.9,0-21,0c0.2,1.9-0.6,3.3-1.9,4.2s-3.3,0.9-4.7,0c-1.3-0.9-2.1-2.6-1.9-4.2c-1.3,0-2.4,0-3.7,0
	c-0.4,0.4-0.3,1-0.1,1.6s0.5,1.1,0.4,1.6C207.4,287.9,207.3,288.1,207.1,288.3z"/>
<path class="st7" d="M242.5,295.1c0.8-0.9,1.4-1.3,1.4-1.3c0.3-0.1,0.3-0.4,0-0.4h-10.7c-0.4,0-0.6,0.5-0.5,0.8l0.9,3.3
	c0.1,0.4,0.5,0.7,0.8,0.7c0,0,3.4,0.4,6.6-0.7C241.4,297.3,241.9,295.8,242.5,295.1z"/>
<path class="st7" d="M219.5,293.8c-0.3-0.2-0.3-0.5,0.1-0.5h11c0.4,0,0.7,0.5,0.8,0.8l0.8,3.3c0.1,0.4-0.1,0.7-0.5,0.8
	c0,0-4,0.3-7-1.1C223.9,296.6,219.5,293.8,219.5,293.8z"/>
<path class="st8" d="M245.6,297.9c0.7-0.3,2.8-2.7,3.2-3.8"/>
<circle class="st9" cx="215.2" cy="285.1" r="3.5"/>
<circle class="st9" cx="244.7" cy="285.1" r="3.5"/>
<circle class="st7" cx="215.2" cy="285.1" r="2.1"/>
<circle class="st7" cx="244.7" cy="285.1" r="2.1"/>
<path class="st4" d="M110.1,169.3v7c0,1.5-1.2,2.7-2.7,2.7h-1.2c-1.5,0-2.7-1.2-2.7-2.7v-7c0-1.5,1.2-2.7,2.7-2.7h1.2
	C108.9,166.6,110.1,167.8,110.1,169.3z"/>
<line class="st5" x1="104.2" y1="187.8" x2="106.5" y2="191.1"/>
<line class="st5" x1="103.8" y1="190" x2="104.6" y2="191"/>
<path class="st6" d="M109.4,149.4c0,0-0.1,0-0.1-0.1c-0.6-0.3-1.4,0-1.9,0.4c-1.3,0.9-2.1,2.4-2.5,3.8s-0.7,3.1-1.2,4.5
	c-0.8,2.4-2.3,4.5-3.3,6.8c-1.5,3.4-2.1,7.2-2.2,11c0,2.1,0.1,4.3,0.3,6.4c0.1,1.2,0.3,2.4,0.4,3.6c0,0.1,0.4,2.4,0.5,2.3
	c0.6-0.4,0.7-1.4,1.2-1.9c0.2-0.1,0.4-0.2,0.6-0.2c0.6,0.1,1,0.9,1.2,1.4c0.3,0.7,0.6,1.5,0.8,2.2c0.2,0.8,0.5,1.7,1.2,2
	c0.4,0.2,0.9,0.1,1.4,0.1c1.2,0,2.2,0.7,3.3,1c1.4,0.3,2.9,0,4.1-0.8c0-0.4,0-0.6,0-1c-1.6,0.3-3.3-0.5-4.2-1.9
	c-0.9-1.3-0.9-3.4,0-4.7c0.9-1.3,2.7-2.2,4.3-1.9c0-7.1,0-13.9,0-21c-1.9,0.2-3.3-0.6-4.2-1.9c-0.9-1.3-0.9-3.3,0-4.7
	c0.9-1.3,2.6-2.1,4.2-1.9c0-1.3,0-2.4,0-3.7c-0.4-0.4-1-0.3-1.6-0.1c-0.5,0.2-1.1,0.5-1.6,0.4C109.9,149.7,109.7,149.5,109.4,149.4z
	"/>
<path class="st7" d="M102.7,184.8c0.9,0.8,1.3,1.4,1.3,1.4c0.1,0.3,0.4,0.3,0.4,0v-10.7c0-0.4-0.5-0.6-0.8-0.5l-3.3,0.9
	c-0.4,0.1-0.7,0.5-0.7,0.8c0,0-0.4,3.4,0.7,6.6C100.4,183.7,102,184.2,102.7,184.8z"/>
<path class="st7" d="M103.9,161.8c0.2-0.3,0.5-0.3,0.5,0.1v11c0,0.4-0.5,0.7-0.8,0.8l-3.3,0.8c-0.4,0.1-0.7-0.1-0.8-0.5
	c0,0-0.3-4,1.1-7C101.1,166.1,103.9,161.8,103.9,161.8z"/>
<path class="st8" d="M99.9,187.8c0.3,0.7,2.7,2.8,3.8,3.2"/>
<circle class="st9" cx="112.7" cy="157.4" r="3.5"/>
<circle class="st9" cx="112.7" cy="186.9" r="3.5"/>
<circle class="st7" cx="112.7" cy="157.4" r="2.1"/>
<circle class="st7" cx="112.7" cy="186.9" r="2.1"/>
<path class="st10" d="M420,95.1c0,0.2,0,0.3-0.1,0.5l0,0.1l-6.6,0c-0.1-0.2-0.1-0.4-0.1-0.6c0-0.9,0.8-1.7,1.8-1.7c0,0,0.1,0,0.1,0
	l0,0c0.3-0.7,1-1.2,1.8-1.2c0.9,0,1.7,0.6,1.9,1.4l0.1,0c0.2,0,0.4,0.2,0.5,0.3c0.2,0.1,0.3,0.3,0.4,0.5C420,94.7,420,94.9,420,95.1
	"/>
<path class="st10" d="M18.6,124.7c1.9,0.5,3.4,2.2,3.4,4.3c0,0.2,0,0.3,0,0.5l-18.9,0c-0.1-1.8,1.4-2.5,1.4-2.5
	c-0.1-2,1.5-3.6,3.9-3.4h0.1c0.8-1.9,2.7-3.3,4.9-3.3C15.9,120.3,18.2,122.1,18.6,124.7"/>
<path class="st10" d="M410.8,241.1c0.5-0.2,1-0.3,1.6-0.3c2.9,0,5.2,2.3,5.2,5.2c0,1.1-0.3,2.1-0.9,2.9l-21.8,0c0-0.2,0-0.4,0-0.6
	c0-2.1,1.1-3.9,2.7-5l0,0c0.3-3.6,3.3-6.4,6.9-6.4C407.3,237,409.7,238.7,410.8,241.1L410.8,241.1z"/>
<path class="st10" d="M215,24.3c0,0.3-0.1,0.6-0.2,0.9l-0.1,0.1l-12.3,0c-0.1-0.3-0.2-0.7-0.2-1.1c0-1.7,1.5-3.1,3.4-3.1
	c0.1,0,0.1,0,0.2,0l0,0c0.5-1.3,1.8-2.2,3.4-2.2c1.8,0,3.2,1.1,3.6,2.6l0.1,0c0.4,0.1,0.7,0.3,1,0.5c0.3,0.3,0.6,0.6,0.7,1
	C214.9,23.5,215,23.9,215,24.3"/>
<path class="st10" d="M54.6,16c1.4,0.4,2.4,1.6,2.4,3.1c0,0.1,0,0.2,0,0.3l-13.7,0c-0.1-1.3,1-1.8,1-1.8c0-1.5,1.1-2.6,2.8-2.5h0
	c0.6-1.4,2-2.4,3.6-2.4C52.7,12.8,54.3,14.1,54.6,16"/>
<path class="st10" d="M292.8,9.8c-1.9,0.5-3.4,2.2-3.4,4.3c0,0.2,0,0.3,0,0.5l18.9,0c0.1-1.8-1.4-2.5-1.4-2.5c0.1-2-1.5-3.6-3.9-3.4
	h-0.1c-0.8-1.9-2.7-3.3-4.9-3.3C295.5,5.4,293.3,7.2,292.8,9.8"/>
<path class="st10" d="M434.5,160.6c0.7,0.2,1.3,0.9,1.3,1.7c0,0.1,0,0.1,0,0.2l-7.2,0c0-0.7,0.5-1,0.5-1c0-0.8,0.6-1.4,1.5-1.3h0
	c0.3-0.7,1-1.2,1.9-1.2C433.5,158.9,434.3,159.6,434.5,160.6"/>
<path class="st10" d="M384.6,246.2c-1,0.3-1.7,1.1-1.7,2.2c0,0.1,0,0.2,0,0.2l9.5,0c0-0.9-0.7-1.3-0.7-1.3c0-1-0.8-1.8-2-1.7h0
	c-0.4-1-1.4-1.6-2.5-1.6C385.9,243.9,384.8,244.9,384.6,246.2"/>
<g>
	<path class="st11" d="M293.6,323.8c0.2-0.1,0.5-0.2,0.7-0.2c0.2-0.1,0.4-0.1,0.7-0.1c0.1,0,0.1,0,0.2,0c0.3,0,0.6,0.1,0.9,0.2
		c0.3,0.1,0.6,0.4,0.8,0.6c0.1,0.1,0.2,0.1,0.3,0.1c0.1,0,0.2,0,0.3-0.1c0.1-0.1,0.2-0.1,0.2-0.2c0.1-0.2,0.2-0.5,0.3-0.7
		c0.1-0.2,0.2-0.4,0.4-0.5c0.1-0.2,0.3-0.3,0.6-0.4c0.2-0.1,0.5-0.2,0.8-0.3c0.2-0.1,0.3-0.3,0.2-0.4c-0.1-0.2-0.3-0.3-0.4-0.2
		c-0.2,0.1-0.5,0.2-0.8,0.3c-0.3,0.1-0.6,0.3-0.8,0.5c-0.2,0.2-0.4,0.5-0.5,0.7c-0.1,0.2-0.2,0.5-0.3,0.7v0l0.1,0.1l-0.1-0.1
		c0,0,0,0-0.1,0.1l0.1,0.1l-0.1-0.1l0.1,0.1v-0.2c0,0-0.1,0-0.1,0l0.1,0.1v-0.2v0.2l0.1-0.1c0,0-0.1,0-0.1,0v0.2l0.1-0.1
		c-0.3-0.2-0.6-0.5-1-0.7c-0.3-0.2-0.7-0.3-1.2-0.3c-0.1,0-0.1,0-0.2,0c-0.3,0-0.6,0.1-0.8,0.2c-0.3,0.1-0.5,0.2-0.7,0.2
		c-0.2,0.1-0.3,0.2-0.2,0.4C293.2,323.7,293.4,323.8,293.6,323.8z"/>
	<path class="st11" d="M295.8,323.5c0.2,0.1,0.4,0.2,0.5,0.3c0.2,0.1,0.3,0.3,0.5,0.5c0.1,0.1,0.2,0.1,0.4,0.1c0.1,0,0.2,0,0.3-0.1
		c0.1-0.1,0.2-0.1,0.2-0.3c0.1-0.2,0.2-0.5,0.2-0.7c0.1-0.2,0.2-0.4,0.3-0.5c0.1-0.2,0.1-0.4-0.1-0.5c-0.2-0.1-0.4-0.1-0.5,0.1
		c-0.2,0.2-0.3,0.5-0.4,0.7c-0.1,0.2-0.1,0.5-0.2,0.6l0.1,0.1l-0.1-0.1c0,0,0,0-0.1,0.1l0.1,0.1l-0.1-0.1l0,0.1v-0.1c0,0,0,0,0,0
		l0,0.1v-0.1v0.1l0.1-0.1c0,0-0.1,0-0.1,0v0.1l0.1-0.1c-0.2-0.1-0.3-0.3-0.5-0.5c-0.2-0.2-0.4-0.3-0.7-0.5c-0.2-0.1-0.4,0-0.5,0.2
		C295.5,323.2,295.6,323.4,295.8,323.5"/>
	<path class="st11" d="M308.7,319.7c0.2,0.1,0.5,0.1,0.7,0.1c0.2,0,0.4,0.1,0.6,0.2c0.1,0.1,0.2,0.2,0.3,0.3
		c0.1,0.2,0.2,0.4,0.3,0.7c0.1,0.3,0.1,0.6,0.2,0.9c0,0.1,0.1,0.2,0.2,0.3c0.1,0.1,0.2,0.1,0.3,0.1c0.1,0,0.3-0.1,0.4-0.1
		c0.2-0.2,0.4-0.4,0.7-0.5c0.2-0.2,0.4-0.3,0.6-0.4c0.1-0.1,0.3-0.1,0.4-0.1c0.3,0,0.6,0.1,1,0.2c0.2,0,0.4-0.1,0.4-0.3
		c0-0.2-0.1-0.4-0.3-0.4c-0.3-0.1-0.7-0.2-1.1-0.2c-0.2,0-0.4,0-0.7,0.1c-0.3,0.1-0.6,0.3-0.8,0.5c-0.2,0.2-0.5,0.4-0.7,0.6l0.1,0.1
		v-0.1c-0.1,0-0.1,0-0.1,0l0.1,0.1v-0.1v0.2l0.1-0.2c0,0-0.1-0.1-0.1-0.1v0.2l0.1-0.2l-0.1,0.1l0.2,0c0,0,0-0.1-0.1-0.1l-0.1,0.1
		l0.2,0c-0.1-0.4-0.2-0.9-0.3-1.3c-0.1-0.2-0.2-0.4-0.3-0.6c-0.1-0.2-0.3-0.3-0.5-0.5c-0.2-0.1-0.5-0.2-0.7-0.3
		c-0.2-0.1-0.5-0.1-0.7-0.1c-0.2,0-0.4,0.1-0.4,0.3C308.4,319.5,308.5,319.7,308.7,319.7z"/>
	<path class="st11" d="M310.4,320.6c0.1,0.2,0.1,0.4,0.2,0.6c0,0.2,0,0.5,0.1,0.8l0,0l0,0c0,0.1,0.1,0.2,0.2,0.3
		c0.1,0.1,0.2,0.1,0.3,0.1c0.1,0,0.3-0.1,0.4-0.1c0.2-0.2,0.4-0.4,0.6-0.6c0.2-0.2,0.4-0.3,0.6-0.4c0.2-0.1,0.2-0.3,0.2-0.5
		c-0.1-0.2-0.3-0.2-0.5-0.2c-0.3,0.1-0.5,0.3-0.7,0.5c-0.2,0.2-0.4,0.4-0.6,0.6l0.1,0.1v-0.1c0,0-0.1,0-0.1,0l0.1,0.1v-0.1v0.2
		l0.1-0.1c0,0-0.1,0-0.1,0v0.2l0.1-0.1l-0.1,0.1l0.1,0c0,0,0-0.1-0.1-0.1l-0.1,0.1l0.1,0c0-0.2-0.1-0.5-0.1-0.8s-0.1-0.6-0.2-0.9
		c-0.1-0.2-0.3-0.2-0.5-0.2C310.4,320.2,310.4,320.4,310.4,320.6"/>
	<path class="st11" d="M301.8,331.4c0.3,0,0.6,0,0.8,0c0.1,0,0.3,0,0.4,0c0.1,0,0.3,0.1,0.4,0.2c0.2,0.1,0.3,0.3,0.5,0.5
		c0.1,0.2,0.3,0.5,0.4,0.7v0c0,0.1,0.1,0.1,0.2,0.2c0.1,0.1,0.2,0.1,0.3,0.1c0.2,0,0.3-0.1,0.4-0.2l0,0c0.2-0.2,0.3-0.4,0.5-0.6
		c0.2-0.2,0.3-0.4,0.5-0.5c0.2-0.1,0.3-0.2,0.6-0.2c0.2,0,0.5,0,0.7,0c0.2,0,0.3-0.2,0.3-0.4c0-0.2-0.2-0.3-0.4-0.3
		c-0.2,0-0.5,0-0.8,0c-0.3,0-0.6,0.1-0.9,0.3c-0.2,0.2-0.4,0.4-0.6,0.6c-0.2,0.2-0.3,0.5-0.5,0.7l0,0l0,0l0.1,0.1v-0.2
		c-0.1,0-0.1,0-0.1,0.1l0.1,0.1v-0.2v0.2l0.1-0.2c0,0-0.1,0-0.1,0v0.2l0.1-0.2l-0.1,0.1l0.2-0.1c0,0,0,0-0.1-0.1l-0.1,0.1l0.2-0.1
		c-0.2-0.4-0.4-0.7-0.7-1.1c-0.1-0.2-0.3-0.3-0.5-0.4c-0.2-0.1-0.4-0.2-0.6-0.3c-0.2,0-0.4-0.1-0.6-0.1c-0.3,0-0.6,0-0.9,0
		c-0.2,0-0.3,0.2-0.3,0.4S301.6,331.4,301.8,331.4"/>
	<path class="st11" d="M303.7,331.7c0.1,0.1,0.2,0.3,0.3,0.5c0.1,0.2,0.2,0.4,0.3,0.7c0,0.1,0.1,0.2,0.2,0.2
		c0.1,0.1,0.2,0.1,0.3,0.1c0.2,0,0.4-0.1,0.5-0.2l0,0c0.1-0.2,0.3-0.4,0.4-0.7c0.1-0.2,0.3-0.4,0.4-0.5c0.1-0.1,0.2-0.3,0-0.5
		c-0.1-0.1-0.3-0.2-0.5,0c-0.2,0.2-0.4,0.4-0.5,0.7c-0.1,0.2-0.3,0.5-0.4,0.6l0,0l0,0l0.1,0.1v-0.2c-0.1,0-0.1,0-0.1,0.1l0.1,0.1
		v-0.2v0.2l0.1-0.1c0,0-0.1,0-0.1,0v0.2l0.1-0.1l-0.1,0.1l0.1-0.1c0,0,0,0-0.1-0.1l-0.1,0.1l0.1-0.1c-0.1-0.2-0.2-0.4-0.3-0.7
		c-0.1-0.2-0.2-0.5-0.5-0.7c-0.1-0.1-0.4-0.1-0.5,0C303.5,331.4,303.5,331.6,303.7,331.7"/>
</g>
<path class="st10" d="M388.2,95.7c0-1.4-0.9-2.7-2.2-3.1v0c-0.4-1.7-1.8-3-3.6-3.2l0,0c-0.9-1.3-2.4-2-4.1-2c-2.2,0-4,1.5-4.7,3.6
	h-0.2c-2.5,0-4.6,1.9-4.6,4.4c0,0.2,0,0.2,0,0.4L388.2,95.7z"/>
<path class="st10" d="M75.1,229.8c0,0.5-0.1,1.1-0.3,1.6l-0.1,0.2l-21,0c-0.2-0.6-0.4-1.2-0.4-1.8c0-2.9,2.6-5.3,5.8-5.3
	c0.1,0,0.3,0,0.4,0l0,0c0.9-2.2,3.2-3.7,5.8-3.7c3,0,5.5,1.9,6.1,4.5c0,0,0.2,0.1,0.2,0.1c0.6,0.2,1.2,0.5,1.7,0.9
	c0.6,0.5,1,1,1.3,1.7C75,228.5,75.1,229.2,75.1,229.8"/>
<g>
	<line class="st12" x1="354.8" y1="28.8" x2="353.8" y2="30.4"/>
	<path class="st12" d="M354.5,28.7l-1,1.6c-0.1,0.1,0,0.3,0.1,0.4c0.1,0.1,0.3,0,0.4-0.1l1-1.6c0.1-0.1,0-0.3-0.1-0.4
		C354.8,28.5,354.6,28.5,354.5,28.7"/>
	<line class="st12" x1="341.8" y1="33.5" x2="340.1" y2="32.5"/>
	<path class="st12" d="M341.9,33.3l-1.6-1c-0.1-0.1-0.3,0-0.4,0.1c-0.1,0.1,0,0.3,0.1,0.4l1.6,1c0.1,0.1,0.3,0,0.4-0.1
		C342.1,33.5,342,33.3,341.9,33.3"/>
	<line class="st12" x1="358.5" y1="43.4" x2="356.9" y2="42.5"/>
	<path class="st12" d="M358.7,43.2l-1.6-1c-0.1-0.1-0.3,0-0.4,0.1c-0.1,0.1,0,0.3,0.1,0.4l1.6,1c0.1,0.1,0.3,0,0.4-0.1
		C358.8,43.4,358.8,43.3,358.7,43.2"/>
	<line class="st12" x1="344.9" y1="45.5" x2="343.9" y2="47.1"/>
	<path class="st12" d="M344.7,45.3l-1,1.6c-0.1,0.1,0,0.3,0.1,0.4c0.1,0.1,0.3,0,0.4-0.1l1-1.6c0.1-0.1,0-0.3-0.1-0.4
		C344.9,45.1,344.7,45.2,344.7,45.3"/>
	<line class="st12" x1="359.7" y1="35.3" x2="357.9" y2="35.8"/>
	<path class="st12" d="M359.6,35.1l-1.8,0.5c-0.1,0-0.2,0.2-0.2,0.3c0,0.1,0.2,0.2,0.3,0.2l1.8-0.5c0.1,0,0.2-0.2,0.2-0.3
		C359.9,35.1,359.8,35,359.6,35.1"/>
	<line class="st12" x1="347.2" y1="29.4" x2="346.7" y2="27.6"/>
	<path class="st12" d="M347.4,29.4l-0.5-1.8c0-0.1-0.2-0.2-0.3-0.2c-0.1,0-0.2,0.2-0.2,0.3l0.5,1.8c0,0.1,0.2,0.2,0.3,0.2
		C347.4,29.7,347.5,29.5,347.4,29.4"/>
	<line class="st12" x1="352" y1="48.3" x2="351.5" y2="46.5"/>
	<path class="st12" d="M352.2,48.3l-0.5-1.8c0-0.1-0.2-0.2-0.3-0.2c-0.1,0-0.2,0.2-0.2,0.3l0.5,1.8c0,0.1,0.2,0.2,0.3,0.2
		C352.2,48.6,352.3,48.4,352.2,48.3"/>
	<line class="st12" x1="340.9" y1="40.1" x2="339.1" y2="40.6"/>
	<path class="st12" d="M340.8,39.8l-1.8,0.5c-0.1,0-0.2,0.2-0.2,0.3c0,0.1,0.2,0.2,0.3,0.2l1.8-0.5c0.1,0,0.2-0.2,0.2-0.3
		C341.1,39.9,341,39.8,340.8,39.8"/>
	<line class="st12" x1="359.9" y1="39.6" x2="358.1" y2="39.3"/>
	<path class="st12" d="M360,39.3l-1.9-0.3c-0.1,0-0.3,0.1-0.3,0.2c0,0.1,0.1,0.3,0.2,0.3l1.9,0.3c0.1,0,0.3-0.1,0.3-0.2
		C360.2,39.5,360.1,39.3,360,39.3"/>
	<line class="st12" x1="350.7" y1="29.3" x2="351" y2="27.4"/>
	<path class="st12" d="M351,29.3l0.3-1.9c0-0.1-0.1-0.3-0.2-0.3c-0.1,0-0.3,0.1-0.3,0.2l-0.3,1.9c0,0.1,0.1,0.3,0.2,0.3
		C350.8,29.6,350.9,29.5,351,29.3"/>
	<line class="st12" x1="347.8" y1="48.6" x2="348.1" y2="46.7"/>
	<path class="st12" d="M348,48.6l0.3-1.9c0-0.1-0.1-0.3-0.2-0.3c-0.1,0-0.3,0.1-0.3,0.2l-0.3,1.9c0,0.1,0.1,0.3,0.2,0.3
		C347.9,48.9,348,48.7,348,48.6"/>
	<line class="st12" x1="340.8" y1="36.7" x2="338.9" y2="36.4"/>
	<path class="st12" d="M340.8,36.4l-1.9-0.3c-0.1,0-0.3,0.1-0.3,0.2c0,0.1,0.1,0.3,0.2,0.3l1.9,0.3c0.1,0,0.3-0.1,0.3-0.2
		C341.1,36.6,341,36.4,340.8,36.4"/>
	<line class="st12" x1="356.5" y1="32.8" x2="358" y2="31.7"/>
	<path class="st12" d="M356.6,33l1.5-1.1c0.1-0.1,0.1-0.3,0.1-0.4c-0.1-0.1-0.3-0.1-0.4-0.1l-1.5,1.1c-0.1,0.1-0.1,0.3-0.1,0.4
		C356.3,33.1,356.5,33.1,356.6,33"/>
	<line class="st12" x1="340.8" y1="44.3" x2="342.3" y2="43.2"/>
	<path class="st12" d="M341,44.6l1.5-1.1c0.1-0.1,0.1-0.3,0.1-0.4c-0.1-0.1-0.3-0.1-0.4-0.1l-1.5,1.1c-0.1,0.1-0.1,0.3-0.1,0.4
		C340.7,44.6,340.8,44.6,341,44.6"/>
	<line class="st12" x1="344.2" y1="31" x2="343.1" y2="29.5"/>
	<path class="st12" d="M344.5,30.8l-1.1-1.5c-0.1-0.1-0.3-0.1-0.4-0.1c-0.1,0.1-0.1,0.3-0.1,0.4l1.1,1.5c0.1,0.1,0.3,0.1,0.4,0.1
		C344.5,31.1,344.5,31,344.5,30.8"/>
	<line class="st12" x1="355.8" y1="46.5" x2="354.7" y2="45"/>
	<path class="st12" d="M356.1,46.3l-1.1-1.5c-0.1-0.1-0.3-0.1-0.4-0.1c-0.1,0.1-0.1,0.3-0.1,0.4l1.1,1.5c0.1,0.1,0.3,0.1,0.4,0.1
		S356.1,46.4,356.1,46.3"/>
	<path class="st12" d="M355.7,39.2c-0.7,3.4-4,5.7-7.5,5c-3.4-0.7-5.7-4-5-7.5c0.7-3.4,4-5.7,7.5-5
		C354.1,32.4,356.4,35.7,355.7,39.2"/>
	<path class="st12" d="M355.7,39.2l-0.3-0.1c-0.3,1.5-1.1,2.7-2.1,3.6c-1.1,0.9-2.4,1.4-3.8,1.4c-0.4,0-0.8,0-1.2-0.1
		c-1.5-0.3-2.7-1.1-3.6-2.1c-0.9-1.1-1.4-2.4-1.4-3.8c0-0.4,0-0.8,0.1-1.2c0.3-1.5,1.1-2.7,2.1-3.6c1.1-0.9,2.4-1.4,3.8-1.4
		c0.4,0,0.8,0,1.2,0.1c1.5,0.3,2.7,1.1,3.6,2.1c0.9,1.1,1.4,2.4,1.4,3.8c0,0.4,0,0.8-0.1,1.2L355.7,39.2l0.3,0.1
		c0.1-0.4,0.1-0.9,0.1-1.3c0-1.6-0.6-3-1.5-4.2c-0.9-1.2-2.3-2-3.9-2.3c-0.4-0.1-0.9-0.1-1.3-0.1c-1.6,0-3,0.6-4.2,1.5
		c-1.2,0.9-2,2.3-2.3,3.9c-0.1,0.4-0.1,0.9-0.1,1.3c0,1.6,0.6,3,1.5,4.2c0.9,1.2,2.3,2,3.9,2.3c0.4,0.1,0.9,0.1,1.3,0.1
		c1.6,0,3-0.6,4.2-1.5c1.2-0.9,2-2.3,2.3-3.9L355.7,39.2z"/>
</g>
<path class="st10" d="M46,226.4c0.3-0.1,0.7-0.2,1.1-0.2c1.9,0,3.5,1.6,3.5,3.5c0,0.7-0.2,1.4-0.6,1.9l-14.6,0c0-0.1,0-0.3,0-0.4
	c0-1.4,0.7-2.6,1.8-3.3v0c0.2-2.4,2.2-4.3,4.6-4.3C43.6,223.6,45.2,224.8,46,226.4L46,226.4z"/>
<g>
	<path class="st11" d="M425.7,21.3c0.3-0.1,0.6-0.2,0.9-0.3c0.3-0.1,0.6-0.2,0.9-0.2c0.1,0,0.1,0,0.2,0c0.4,0,0.8,0.1,1.1,0.3
		c0.4,0.2,0.7,0.5,1.1,0.8l0,0l0,0c0.1,0.1,0.3,0.2,0.4,0.2c0.1,0,0.3,0,0.4-0.1c0.1-0.1,0.2-0.2,0.3-0.3c0.1-0.3,0.3-0.6,0.4-0.9
		c0.1-0.3,0.3-0.5,0.5-0.7c0.2-0.2,0.4-0.3,0.7-0.5c0.3-0.1,0.7-0.2,1-0.3c0.2-0.1,0.4-0.3,0.3-0.6c-0.1-0.2-0.3-0.4-0.6-0.3
		c-0.3,0.1-0.7,0.2-1.1,0.4c-0.4,0.1-0.8,0.3-1.1,0.7c-0.3,0.3-0.5,0.6-0.6,0.9c-0.2,0.3-0.3,0.6-0.4,0.9l0.2,0.1l-0.1-0.2
		c0,0-0.1,0.1-0.1,0.1l0.2,0.1l-0.1-0.2l0.1,0.2v-0.2c0,0-0.1,0-0.1,0l0.1,0.2v-0.2v0.2l0.1-0.2c0,0-0.1,0-0.1,0v0.2l0.1-0.2
		c-0.4-0.3-0.8-0.6-1.3-0.9c-0.5-0.2-1-0.4-1.6-0.4c-0.1,0-0.2,0-0.3,0c-0.4,0-0.7,0.1-1.1,0.2c-0.3,0.1-0.6,0.2-0.9,0.3
		c-0.2,0.1-0.4,0.3-0.3,0.6C425.2,21.2,425.4,21.4,425.7,21.3z"/>
	<path class="st11" d="M428.5,20.9c0.3,0.1,0.5,0.3,0.7,0.4c0.2,0.2,0.4,0.4,0.7,0.6c0.1,0.1,0.3,0.2,0.5,0.2c0.1,0,0.3,0,0.4-0.1
		c0.1-0.1,0.2-0.2,0.3-0.4c0.1-0.3,0.2-0.6,0.3-0.9c0.1-0.3,0.2-0.5,0.4-0.7c0.2-0.2,0.1-0.5-0.1-0.6c-0.2-0.2-0.5-0.1-0.6,0.1
		c-0.2,0.3-0.4,0.6-0.5,1c-0.1,0.3-0.2,0.6-0.3,0.8v0l0.2,0.1l-0.1-0.2c0,0-0.1,0-0.1,0.1l0.2,0.1l-0.1-0.2l0.1,0.1v-0.1
		c0,0,0,0-0.1,0l0.1,0.1v-0.1v0.2l0.1-0.1c0,0-0.1,0-0.1,0v0.2l0.1-0.1c-0.2-0.2-0.4-0.4-0.7-0.6c-0.2-0.2-0.5-0.4-0.9-0.6
		c-0.2-0.1-0.5,0-0.6,0.2C428.2,20.6,428.3,20.8,428.5,20.9"/>
	<path class="st11" d="M406.8,8.3c0.3,0.1,0.6,0.1,0.9,0.2c0.3,0.1,0.5,0.1,0.7,0.2c0.2,0.1,0.3,0.2,0.4,0.4
		c0.2,0.2,0.3,0.5,0.4,0.9c0.1,0.4,0.2,0.8,0.3,1.2c0,0.1,0.1,0.3,0.2,0.4c0.1,0.1,0.3,0.2,0.4,0.2c0.2,0,0.3-0.1,0.5-0.2l0,0l0,0
		c0.3-0.2,0.6-0.5,0.9-0.7c0.3-0.2,0.6-0.4,0.8-0.5c0.2-0.1,0.4-0.1,0.5-0.1c0.4,0,0.8,0.1,1.3,0.2c0.3,0,0.5-0.1,0.5-0.4
		c0-0.3-0.1-0.5-0.4-0.5c-0.4-0.1-0.9-0.2-1.4-0.2c-0.3,0-0.6,0-0.9,0.2c-0.4,0.2-0.7,0.4-1.1,0.6c-0.3,0.2-0.6,0.5-0.9,0.7v0
		l0.1,0.2v-0.2c-0.1,0-0.1,0-0.1,0l0.1,0.2v-0.2v0.3l0.2-0.2c-0.1,0-0.1-0.1-0.2-0.1v0.3l0.2-0.2l-0.2,0.2l0.2,0c0,0,0-0.1-0.1-0.1
		l-0.2,0.2l0.2,0c-0.1-0.6-0.2-1.2-0.4-1.7c-0.1-0.3-0.3-0.5-0.4-0.8c-0.2-0.2-0.4-0.4-0.7-0.6c-0.3-0.2-0.7-0.3-1-0.3
		c-0.3-0.1-0.6-0.1-0.9-0.2c-0.2-0.1-0.5,0.1-0.6,0.3C406.4,8,406.6,8.3,406.8,8.3"/>
	<path class="st11" d="M409.1,9.5c0.1,0.3,0.2,0.5,0.2,0.8c0,0.3,0.1,0.7,0.1,1.1c0,0.2,0.1,0.3,0.2,0.4c0.1,0.1,0.3,0.2,0.5,0.2
		c0.2,0,0.4-0.1,0.5-0.2c0.3-0.2,0.5-0.5,0.8-0.8c0.3-0.2,0.5-0.4,0.7-0.6c0.2-0.1,0.3-0.4,0.2-0.6c-0.1-0.2-0.4-0.3-0.6-0.2
		c-0.4,0.2-0.7,0.5-1,0.7c-0.3,0.3-0.5,0.5-0.8,0.7l0.1,0.1v-0.2c-0.1,0-0.1,0-0.1,0l0.1,0.1v-0.2v0.2l0.1-0.2c0,0-0.1-0.1-0.1-0.1
		v0.2l0.1-0.2l-0.1,0.1l0.2,0c0,0,0-0.1-0.1-0.1l-0.1,0.1l0.2,0c-0.1-0.3-0.1-0.7-0.1-1c0-0.4-0.1-0.8-0.3-1.1
		c-0.1-0.2-0.4-0.3-0.6-0.2C409.1,9,409,9.2,409.1,9.5"/>
</g>
<path class="st10" d="M85.1,62.5c-1.9,0.5-3.4,2.2-3.4,4.3c0,0.2,0,0.3,0,0.5l18.9,0c0.1-1.8-1.4-2.5-1.4-2.5c0.1-2-1.5-3.6-3.9-3.4
	h-0.1c-0.8-1.9-2.7-3.3-4.9-3.3C87.7,58.1,85.5,59.9,85.1,62.5"/>
<path class="st13" d="M27.4,129.6h8.8c0.2,0,0.4-0.2,0.4-0.4c0-0.2-0.2-0.4-0.4-0.4h-8.8c-0.2,0-0.4,0.2-0.4,0.4
	C26.9,129.4,27.1,129.6,27.4,129.6"/>
<path class="st13" d="M419.4,248.9h2.2c0.2,0,0.4-0.2,0.4-0.4c0-0.2-0.2-0.4-0.4-0.4h-2.2c-0.2,0-0.4,0.2-0.4,0.4
	C418.9,248.7,419.1,248.9,419.4,248.9"/>
<path class="st13" d="M76.8,231.8h5.1c0.2,0,0.4-0.2,0.4-0.4c0-0.2-0.2-0.4-0.4-0.4h-5.1c-0.2,0-0.4,0.2-0.4,0.4
	C76.4,231.6,76.6,231.8,76.8,231.8"/>
<path class="st13" d="M30.4,231.8h2.2c0.2,0,0.4-0.2,0.4-0.4c0-0.2-0.2-0.4-0.4-0.4h-2.2c-0.2,0-0.4,0.2-0.4,0.4
	C30,231.6,30.2,231.8,30.4,231.8"/>
<path class="st13" d="M103.8,67.4h8.8c0.2,0,0.4-0.2,0.4-0.4c0-0.2-0.2-0.4-0.4-0.4h-8.8c-0.2,0-0.4,0.2-0.4,0.4
	C103.3,67.2,103.5,67.4,103.8,67.4"/>
<path class="st13" d="M67.9,67.5h2.2c0.2,0,0.4-0.2,0.4-0.4c0-0.2-0.2-0.4-0.4-0.4h-2.2c-0.2,0-0.4,0.2-0.4,0.4
	C67.5,67.3,67.7,67.5,67.9,67.5"/>
<path class="st13" d="M422.8,95.8h8.8c0.2,0,0.4-0.2,0.4-0.4s-0.2-0.4-0.4-0.4h-8.8c-0.2,0-0.4,0.2-0.4,0.4S422.6,95.8,422.8,95.8"
	/>
<path class="st13" d="M356.9,95.8h2.2c0.2,0,0.4-0.2,0.4-0.4c0-0.2-0.2-0.4-0.4-0.4h-2.2c-0.2,0-0.4,0.2-0.4,0.4
	C356.5,95.6,356.7,95.8,356.9,95.8"/>
<path class="st13" d="M167.4,37.6h2.2c0.2,0,0.4-0.2,0.4-0.4c0-0.2-0.2-0.4-0.4-0.4h-2.2c-0.2,0-0.4,0.2-0.4,0.4
	C166.9,37.4,167.1,37.6,167.4,37.6"/>
<path class="st13" d="M156,37.6h8.8c0.2,0,0.4-0.2,0.4-0.4c0-0.2-0.2-0.4-0.4-0.4H156c-0.2,0-0.4,0.2-0.4,0.4
	C155.5,37.4,155.7,37.6,156,37.6"/>
<path class="st13" d="M169.8,322.4h2.2c0.2,0,0.4-0.2,0.4-0.4c0-0.2-0.2-0.4-0.4-0.4h-2.2c-0.2,0-0.4,0.2-0.4,0.4
	C169.4,322.2,169.6,322.4,169.8,322.4"/>
<path class="st13" d="M158.4,322.4h8.8c0.2,0,0.4-0.2,0.4-0.4c0-0.2-0.2-0.4-0.4-0.4h-8.8c-0.2,0-0.4,0.2-0.4,0.4
	C158,322.2,158.2,322.4,158.4,322.4"/>
<path class="st13" d="M344.4,300h2.2c0.2,0,0.4-0.2,0.4-0.4s-0.2-0.4-0.4-0.4h-2.2c-0.2,0-0.4,0.2-0.4,0.4S344.2,300,344.4,300"/>
<path class="st13" d="M333,300h8.8c0.2,0,0.4-0.2,0.4-0.4s-0.2-0.4-0.4-0.4H333c-0.2,0-0.4,0.2-0.4,0.4S332.8,300,333,300"/>
<path class="st13" d="M284.1,14.8h2.2c0.2,0,0.4-0.2,0.4-0.4c0-0.2-0.2-0.4-0.4-0.4h-2.2c-0.2,0-0.4,0.2-0.4,0.4
	C283.7,14.6,283.9,14.8,284.1,14.8"/>
<path class="st13" d="M272.7,14.8h8.8c0.2,0,0.4-0.2,0.4-0.4c0-0.2-0.2-0.4-0.4-0.4h-8.8c-0.2,0-0.4,0.2-0.4,0.4
	C272.3,14.6,272.5,14.8,272.7,14.8"/>
<path class="st14" d="M94.3,308.1c0,6.1-4.9,11-11,11s-11-4.9-11-11c0-6.1,4.9-11,11-11S94.3,302,94.3,308.1"/>
<circle class="st15" cx="83.2" cy="308.1" r="11"/>
<path class="st14" d="M82.3,306.1c0,1.1-0.9,1.9-1.9,1.9c-1.1,0-1.9-0.9-1.9-1.9c0-1.1,0.9-1.9,1.9-1.9
	C81.5,304.2,82.3,305.1,82.3,306.1"/>
<circle class="st15" cx="80.4" cy="306.1" r="1.9"/>
<path class="st14" d="M92.2,305.2c0,0.5-0.4,1-1,1s-1-0.4-1-1c0-0.5,0.4-1,1-1S92.2,304.6,92.2,305.2"/>
<circle class="st15" cx="91.2" cy="305.2" r="1"/>
<path class="st14" d="M85.5,300.2c0,0.4-0.3,0.7-0.7,0.7s-0.7-0.3-0.7-0.7s0.3-0.7,0.7-0.7S85.5,299.8,85.5,300.2"/>
<circle class="st15" cx="84.8" cy="300.2" r="0.7"/>
<path class="st14" d="M86.5,310.5c0,0.5-0.4,0.8-0.8,0.8c-0.5,0-0.8-0.4-0.8-0.8s0.4-0.8,0.8-0.8C86.1,309.7,86.5,310.1,86.5,310.5"
	/>
<circle class="st15" cx="85.7" cy="310.5" r="0.8"/>
<path class="st14" d="M83.2,314.7c0,0.7-0.6,1.3-1.4,1.3c-0.8,0-1.4-0.6-1.4-1.3s0.6-1.3,1.4-1.3C82.6,313.4,83.2,314,83.2,314.7"/>
<ellipse class="st15" cx="81.8" cy="314.7" rx="1.4" ry="1.3"/>
<path class="st14" d="M76.9,304c0,0.4-0.4,0.8-0.8,0.8c-0.4,0-0.8-0.4-0.8-0.8c0-0.4,0.4-0.8,0.8-0.8
	C76.5,303.2,76.9,303.5,76.9,304"/>
<circle class="st15" cx="76.1" cy="304" r="0.8"/>
</svg>
