<?xml version="1.0" encoding="utf-8"?>
<!-- Generator: Adobe Illustrator 21.0.2, SVG Export Plug-In . SVG Version: 6.00 Build 0)  -->
<svg version="1.1" id="Layer_1" xmlns="http://www.w3.org/2000/svg" xmlns:xlink="http://www.w3.org/1999/xlink" x="0px" y="0px"
	 viewBox="0 0 227 256" style="enable-background:new 0 0 227 256;" xml:space="preserve">
<style type="text/css">
	.st0{fill:#FFFFFF;stroke:#E6E6E6;stroke-width:2.5;stroke-miterlimit:10;}
	.st1{fill:none;stroke:#E6E6E6;stroke-width:2;stroke-linecap:round;stroke-miterlimit:10;}
	.st2{fill:#FFFFFF;stroke:#CCCCCC;stroke-miterlimit:10;}
	.st3{fill:none;stroke:#CCCCCC;stroke-linecap:round;stroke-miterlimit:10;}
	.st4{fill-rule:evenodd;clip-rule:evenodd;fill:#FFFFFF;stroke:#CCCCCC;stroke-miterlimit:10;}
	.st5{fill-rule:evenodd;clip-rule:evenodd;fill:none;stroke:#CCCCCC;stroke-linecap:round;stroke-miterlimit:10;}
	.st6{fill-rule:evenodd;clip-rule:evenodd;fill:none;stroke:#CCCCCC;stroke-miterlimit:10;}
	.st7{fill:none;}
	.st8{fill:#CCCCCC;}
	.st9{font-family:'GothamRounded-Medium';}
	.st10{font-size:11.0276px;}
	.st11{fill:#FFFFFF;stroke:#333333;stroke-width:2.5;stroke-miterlimit:10;}
	.st12{fill:#FFFFFF;stroke:#333333;stroke-width:2.5;stroke-linecap:round;stroke-linejoin:round;stroke-miterlimit:10;}
</style>
<g>
	<path class="st0" d="M182.5,251.5H9.2c-3.1,0-5.7-2.6-5.7-5.7V7.7C3.5,4.6,6.1,2,9.2,2h173.3c3.1,0,5.7,2.6,5.7,5.7v238
		C188.2,248.9,185.6,251.5,182.5,251.5z"/>
	<line class="st1" x1="17.3" y1="225.3" x2="123" y2="225"/>
	<line class="st1" x1="17.3" y1="233.6" x2="69.7" y2="233.6"/>
	<line class="st1" x1="16.7" y1="186" x2="85.6" y2="186"/>
	<line class="st1" x1="18.7" y1="98.4" x2="60" y2="98.4"/>
	<line class="st1" x1="18.7" y1="76.4" x2="123" y2="77"/>
	<line class="st1" x1="18.7" y1="66.8" x2="167.2" y2="66.8"/>
	<path class="st2" d="M92.3,144.9c-1.5-2.2-11.8-5.5-14.4-6.4c-4.1-1.4-7.7-3.9-11.7-5.6c-5.9-2.6-12.4-3.6-18.8-3.7
		c-4,0-8,0.2-12,0.6c-2,0.2-4,0.4-6,0.7c-1,0.1-2,0.3-3,0.4c-0.6,0.1-2.2,0.2-0.9,0.8c0.8,0.4-6,7-6.5,7.6c-0.4,0.6-0.9,6.1-1,10.4
		c-0.1,2.4,1.1,4.6,1.6,5.3c0.6,0,1,0,1.6,0c-0.5-2.7,0.9-5.7,3.2-7.2c2.3-1.5,5.8-1.6,8.1-0.1c2.3,1.5,3.7,4.6,3.3,7.3
		c12.2,0,23.8,0,36,0c-0.3-3.2,1-5.7,3.3-7.2c2.3-1.5,5.7-1.5,8,0s3.7,4.5,3.2,7.2c2.2,0,4.2,0,6.3,0
		C93.3,154.5,92.9,145.9,92.3,144.9z"/>
	<path class="st2" d="M52.5,139.9h18.9c0.6,0,0.7-0.6,0.2-0.9c0,0-7.4-4.7-9-5.5c-3.3-1.6-6.9-1.8-10.5-1.9c-3.3-0.1-6.7-0.1-10,0
		c-1.7,0.1-3.3,0.2-5,0.3c-1.4,0.1-3,0.1-4.3,0.8c-0.3,0.1-0.5,0.4-0.6,0.7c-0.8,1.2-1.5,2.5-2.2,3.8c-0.2,0.4-0.4,0.9-0.1,1.3
		c0.7,1.2,2.1,1.5,3.4,1.6c1.1,0,2.2,0,3.3,0c2.5,0,5,0,7.5,0c1.4,0,2.7,0,4.1,0H52.5z"/>
	<circle class="st2" cx="27.1" cy="141.4" r="1.3"/>
	<g>
		<line class="st3" x1="35.6" y1="134.2" x2="37.7" y2="135.8"/>
		<line class="st3" x1="34" y1="134.5" x2="35.5" y2="135.7"/>
	</g>
	<path class="st4" d="M79.1,159.7c-3.3,0-5.9-2.6-5.9-5.9c0-3.3,2.6-5.9,5.9-5.9c3.3,0,5.9,2.6,5.9,5.9
		C85.1,157.1,82.4,159.7,79.1,159.7L79.1,159.7z"/>
	<path class="st4" d="M79.1,158.1c-2.4,0-4.3-1.9-4.3-4.3c0-2.4,1.9-4.3,4.3-4.3c2.4,0,4.3,1.9,4.3,4.3
		C83.4,156.2,81.5,158.1,79.1,158.1L79.1,158.1z"/>
	<path class="st4" d="M79.1,155.2c-0.8,0-1.4-0.6-1.4-1.4c0-0.8,0.6-1.4,1.4-1.4c0.8,0,1.4,0.6,1.4,1.4
		C80.5,154.6,79.9,155.2,79.1,155.2L79.1,155.2z"/>
	<path class="st4" d="M28.6,160.1c3.3,0,5.9-2.6,5.9-5.9c0-3.3-2.6-5.9-5.9-5.9c-3.3,0-5.9,2.6-5.9,5.9
		C22.7,157.5,25.4,160.1,28.6,160.1L28.6,160.1z"/>
	<path class="st4" d="M28.6,158.5c2.4,0,4.3-1.9,4.3-4.3c0-2.4-1.9-4.3-4.3-4.3c-2.4,0-4.3,1.9-4.3,4.3
		C24.3,156.6,26.3,158.5,28.6,158.5L28.6,158.5z"/>
	<path class="st4" d="M28.6,155.6c-0.8,0-1.4-0.6-1.4-1.4c0-0.8,0.6-1.4,1.4-1.4c0.8,0,1.4,0.6,1.4,1.4
		C30,155,29.4,155.6,28.6,155.6L28.6,155.6z"/>
	<path class="st4" d="M90,150.5c-0.5,0.1-0.7,0.6-0.6,0.9c0,0.1,0.1,0.1,0.1,0.2c0,0,0.1,0.1,0.1,0.1c0.1,0,0.1,0,0.1,0
		c0.1-0.1,0.2-0.2,0.3-0.3c0,0,0.1-0.1,0.1-0.1c0.1-0.1,0.1-0.3,0.2-0.4c0-0.1,0-0.2,0-0.3C90.2,150.5,90.1,150.5,90,150.5z"/>
	<path class="st5" d="M90.4,149.5c-1.9-0.8-2.9,2.3-0.8,3.3"/>
	<path class="st4" d="M55.9,143.2c-0.1-0.4-0.4-0.6-0.7-0.6h-0.7c-0.3,0-0.6,0.2-0.7,0.5l0,0.7c0,0.4,0.4,0.7,0.8,0.7h0.7
		c0.4,0,0.7-0.3,0.7-0.6L55.9,143.2z"/>
	<path class="st4" d="M35.5,142.8c0,0.4,0.4,0.7,0.8,0.7H37c0.4,0,0.7-0.3,0.7-0.6l0-0.6c-0.1-0.4-0.4-0.6-0.7-0.6h-0.7
		c-0.3,0-0.6,0.2-0.7,0.5L35.5,142.8z"/>
	<g>
		<line class="st3" x1="51.8" y1="137.1" x2="53.3" y2="138.1"/>
		<line class="st3" x1="51.6" y1="135" x2="56.1" y2="138.5"/>
	</g>
	<path class="st4" d="M65,138.5c0.1-0.7,0.9-1.2,1.6-1c1.2,0.4,2,1.1,2.4,2c0,0.1,0,0.2,0,0.2c-0.7,0.7-1.5,0.8-2.7,0.7
		C65.5,140.3,64.9,139.1,65,138.5L65,138.5z"/>
	<path class="st6" d="M69,140.3c0.2,0.3,0.5,0.7,0.8,1.1c0.8,1.3,0.6,5.5-0.3,10.2c-0.1,0.6-0.6,1-1.2,1L41,152.4
		c-1.3,0-2-0.6-2.7-1.5c-2.4-3.1-7.4-9.3-8.5-12.5"/>
	<path class="st6" d="M50.1,152.3c0.5-4.2,0.8-8.5,0-13.3l-1.2-7.4"/>
	<path class="st2" d="M92.5,145.5l-4.7-0.6c-0.8-0.1-1.4-0.5-1.8-1.2l0-0.1c-0.2-0.4-0.4-0.8-0.4-1.3v-1"/>
	<path class="st2" d="M71.5,139c5.3,2,10.8,2.6,16.3,3.2"/>
	<path class="st2" d="M19.2,145l-0.2,0c-0.4-0.1-0.7-0.4-0.6-0.9L19,140c0.1-0.4,0.4-0.7,0.9-0.6l0.2,0c0.4,0.1,0.7,0.4,0.6,0.9
		l-0.6,4.2C20,144.8,19.6,145.1,19.2,145z"/>
	<rect x="16.7" y="22" class="st7" width="161.2" height="11"/>
	<text transform="matrix(1 0 0 0.93 16.668 30.1035)" class="st8 st9 st10">Vehicle Order Confirmation</text>
	<line class="st1" x1="18.7" y1="47.5" x2="35.9" y2="47.5"/>
	<g>
		<path class="st11" d="M169.8,190.5L169.8,190.5c-26.6,0-48.3-21.6-48.3-48.2v0c0-26.6,21.6-48.2,48.2-48.2h0
			c26.6,0,48.2,21.6,48.2,48.2v0C218,168.9,196.4,190.5,169.8,190.5z"/>
	</g>
	<polyline class="st12" points="147.5,149.5 161,164.2 190.1,124.7 	"/>
</g>
</svg>
