<?xml version="1.0" encoding="utf-8"?>
<!-- Generator: Adobe Illustrator 21.0.2, SVG Export Plug-In . SVG Version: 6.00 Build 0)  -->
<svg version="1.1" id="Layer_1" xmlns="http://www.w3.org/2000/svg" xmlns:xlink="http://www.w3.org/1999/xlink" x="0px" y="0px"
	 viewBox="0 0 125 141" style="enable-background:new 0 0 125 141;" xml:space="preserve">
<style type="text/css">
	.st0{fill:#E6E6E6;stroke:#333333;stroke-width:1.5;stroke-linecap:round;stroke-miterlimit:10;}
	.st1{fill:none;stroke:#999999;stroke-width:1.5;stroke-linecap:round;stroke-miterlimit:10;}
	.st2{fill:#333333;}
	.st3{fill:#4D4D4D;}
	.st4{fill:#8CC03F;}
	.st5{fill:#E6E6E6;stroke:#333333;stroke-width:1.5;stroke-linecap:round;stroke-linejoin:round;stroke-miterlimit:10;}
	.st6{fill:none;stroke:#FFFFFF;stroke-width:1.5;stroke-linecap:round;stroke-linejoin:round;stroke-miterlimit:10;}
</style>
<g>
	<circle class="st0" cx="62.6" cy="99.3" r="36.2"/>
	<path class="st1" d="M50.6,121.9c-8.1-4.3-13.6-12.8-13.6-22.6c0-9.7,5.4-18.1,13.3-22.4"/>
	<path class="st1" d="M74.7,76.7c8.1,4.3,13.6,12.8,13.6,22.6c0,9.8-5.5,18.3-13.6,22.6"/>
	<path class="st2" d="M74.7,131.8l0,1.6c-4.2,1.4-8,2.1-12.3,2c-4,0-8.1-0.8-12-2.2l0-1.7l0-3v-10.5l0-10.3
		c-1.7-2.4-2.7-5.4-2.7-8.6c0-3.2,1-6.1,2.7-8.6l0-0.8l0-24.7c4.2-1.4,8-2.2,12.3-2.2c4,0,8.1,0.7,12,2v24.7l0,0.5
		c1.9,2.5,3,5.6,3,9c0,3.4-1.1,6.5-3,9l0,1.1v19.5"/>
	<circle class="st3" cx="62.6" cy="99.3" r="10.1"/>
	<circle class="st4" cx="62.6" cy="122.4" r="2.6"/>
	<path class="st5" d="M81.4,26.3c2,3.3,4.3,6.5,6,9.9c1.4,2.7,0.9,6.1-0.9,8.6c-1.8,2.5-5.5,3.5-8.4,1.8c-4-2.3-4.5-7.5-2.4-11
		L81.4,26.3z"/>
	<path class="st5" d="M40.3,32.9c2,3.3,4.3,6.5,6,9.9c1.4,2.7,0.9,6.1-0.9,8.6c-1.8,2.5-5.5,3.5-8.4,1.8c-4-2.3-4.5-7.5-2.4-11
		L40.3,32.9z"/>
	<path class="st5" d="M60.2,9c2,3.3,4.3,6.5,6,9.9c1.4,2.7,0.9,6.1-0.9,8.6c-1.8,2.5-5.5,3.5-8.4,1.8c-4-2.3-4.5-7.5-2.4-11L60.2,9z
		"/>
	<path class="st6" d="M41.9,42c0.7,1.6,1.5,3,1.5,4.8c0,1.4-0.6,2.1-1.5,3.2"/>
	<path class="st6" d="M61.8,18.1c0.7,1.6,1.5,3,1.5,4.8c0,1.4-0.6,2.1-1.5,3.2"/>
	<path class="st6" d="M83,35.3c0.7,1.6,1.5,3,1.5,4.8c0,1.4-0.6,2.1-1.5,3.2"/>
</g>
</svg>
