<?xml version="1.0" encoding="utf-8"?>
<!-- Generator: Adobe Illustrator 21.0.2, SVG Export Plug-In . SVG Version: 6.00 Build 0)  -->
<svg version="1.1" id="Layer_1" xmlns="http://www.w3.org/2000/svg" xmlns:xlink="http://www.w3.org/1999/xlink" x="0px" y="0px"
	 viewBox="0 0 138 23" width="100" height="16" style="enable-background:new 0 0 138 23;" xml:space="preserve">
<polygon style="fill:#8CC63F;stroke:#8CC63F;stroke-linecap:round;stroke-linejoin:round;stroke-miterlimit:10;" points="15.8,8.1
	22.5,9 17.7,13.8 18.9,20.4 12.9,17.3 6.9,20.5 8,13.9 3.1,9.2 9.8,8.1 12.7,2.1 "/>
<polygon style="fill:#8CC63F;stroke:#8CC63F;stroke-linecap:round;stroke-linejoin:round;stroke-miterlimit:10;" points="44.2,8.1
	50.9,9 46.1,13.8 47.3,20.4 41.3,17.3 35.3,20.5 36.4,13.9 31.5,9.2 38.2,8.1 41.2,2.1 "/>
<polygon style="fill:#8CC63F;stroke:#8CC63F;stroke-linecap:round;stroke-linejoin:round;stroke-miterlimit:10;" points="72.6,8.1
	79.3,9 74.5,13.8 75.7,20.4 69.7,17.3 63.7,20.5 64.8,13.9 60,9.2 66.6,8.1 69.6,2.1 "/>
<polygon style="fill:#8CC63F;stroke:#8CC63F;stroke-linecap:round;stroke-linejoin:round;stroke-miterlimit:10;" points="101.1,8.1
	107.8,9 102.9,13.8 104.1,20.4 98.1,17.3 92.2,20.5 93.3,13.9 88.4,9.2 95.1,8.1 98,2.1 "/>
<polygon style="fill:#8CC63F;stroke:#8CC63F;stroke-linecap:round;stroke-linejoin:round;stroke-miterlimit:10;" points="129.1,8.1
	135.8,9 130.9,13.8 132.1,20.4 126.1,17.3 120.2,20.5 121.3,13.9 116.4,9.2 123.1,8.1 126,2.1 "/>
</svg>
