<?xml version="1.0" encoding="utf-8"?>
<!-- Generator: Adobe Illustrator 21.0.2, SVG Export Plug-In . SVG Version: 6.00 Build 0)  -->
<svg version="1.1" id="Layer_1" xmlns="http://www.w3.org/2000/svg" xmlns:xlink="http://www.w3.org/1999/xlink" x="0px" y="0px"
	 viewBox="0 0 90 90" style="enable-background:new 0 0 90 90;" xml:space="preserve">
<style type="text/css">
	.st0{fill:#8FC043;stroke:#333333;stroke-width:1.5;stroke-linecap:round;stroke-linejoin:round;stroke-miterlimit:10;}
	.st1{fill:#E6E6E6;stroke:#333333;stroke-width:1.5;stroke-linecap:round;stroke-linejoin:round;stroke-miterlimit:10;}
	.st2{fill:none;stroke:#333333;stroke-width:1.5;stroke-linecap:round;stroke-linejoin:round;stroke-miterlimit:10;}
</style>
<g>
	<path class="st0" d="M20.2,76.7h-3c-0.9,0-1.7-0.8-1.7-1.7V56.5c0-0.9,0.8-1.7,1.7-1.7h2.9c0.9,0,1.7,0.8,1.7,1.7V75
		C21.9,75.9,21.1,76.7,20.2,76.7z"/>
	<path class="st1" d="M42,62.1c4.7,0.2,9.7,0,14.1-1.7c2.3-0.9,4.5-2.1,6.7-3.2c3-1.4,6-2.7,9.3-2.6c1,0,1.9,0.3,2.6,0.9
		c0.8,0.8,1,2,0.4,2.9s-1.6,1.4-2.5,1.9c-1.4,0.8-2.9,1.6-4.4,2.3c-4.5,2.2-8.9,4.6-13.4,6.6c-2.8,1.2-5.5,2-8.6,1.8
		c-5.4-0.3-10.6-1.9-16-1.9c-3.5,0-5.8,2.6-8.3,4.7V56.6c1.9-0.6,3.9-1.2,5.8-2c1.8-0.8,3.6-1.7,5.5-2.1c2.3-0.4,4.3,0.2,6.5,1.1
		c1.4,0.6,2.9,1.1,4.4,1.6c3.3,1,6.7,1.5,10.1,1.5c0.7,0,1.3,0,2,0.2c0.5,0.2,0.9,0.4,1.2,0.9c0.2,0.5,0.1,1.2-0.2,1.6
		c-0.2,0.3-0.5,0.5-0.8,0.7c-0.8,0.5-1.7,0.7-2.5,1"/>
	<g>
		<circle class="st1" cx="45.6" cy="28.4" r="15.4"/>
		<g>
			<path class="st1" d="M53.1,35.3c-0.1,1.1-0.5,2.4-2.4,2.5c-1.8,0.1-3.6,0-5.4,0c-1.5,0-3,0-4.6,0c0.6,0,0.7-0.8,0.8-1.3
				c0.3-2.4,0.4-4.7,0.4-7.1c0-1.2-0.1-2.4-0.2-3.6c-0.1-1-0.2-2.1-0.2-3.1c0-0.8,0.2-1.6,0.7-2.3c0.7-1.1,1.7-1.6,2.8-1.8
				c1.9-0.4,3.7,0.3,4.8,2"/>
			<line class="st2" x1="38.2" y1="27.7" x2="47.3" y2="27.7"/>
		</g>
	</g>
</g>
</svg>
