<svg xmlns="http://www.w3.org/2000/svg" viewBox="0 0 100.8 100.8"><path class="st0" d="m58.7 76h-4.4-4.3-3.6-7.6l0.1-3s0.2-0.4 0.4-1.8c0.7-5.4 1-11.2 0.9-17.2 0-2.8-0.2-5.7-0.4-8.7-0.1-0.7-0.1-1.5-0.2-2.2-0.2-1.8-0.4-3.7-0.3-5.6 0.1-2.4 0.8-4.5 1.9-6.3 1.7-2.7 4.4-4.4 8-5.1 5.4-1 10.3 1 13.2 5.5 0.5 0.7 0.3 1.6-0.4 2.1s-1.6 0.3-2.1-0.4c-2.3-3.5-6-5-10.1-4.2-2.7 0.5-4.7 1.8-6 3.7-0.8 1.3-1.3 2.9-1.4 4.8-0.1 1.7 0.1 3.4 0.3 5.2 0.1 0.8 0.1 1.5 0.2 2.3 0.2 3 0.3 6 0.4 8.9 0.1 6.1-0.2 12-0.9 17.6l-0.3 1.5h4.4 3.6 4.3c2.9 0 6 0.1 8.9 0 2.8-0.1 4-1.4 4.4-4.7 0.1-0.8 0.9-1.4 1.7-1.3s1.4 0.9 1.3 1.7c-0.6 4.7-3.1 7.2-7.3 7.4-1.6-0.2-3.2-0.2-4.7-0.2z"/><path class="st0" d="m55.1 51.2h-22.2c-0.8 0-1.5-0.7-1.5-1.5s0.7-1.5 1.5-1.5h22.2c0.8 0 1.5 0.7 1.5 1.5s-0.7 1.5-1.5 1.5z"/><path class="st0" d="m50.8 98.9c-26.6 0-48.2-21.6-48.2-48.2s21.7-48.2 48.2-48.2 48.2 21.6 48.2 48.2-21.6 48.2-48.2 48.2zm0-93.3c-24.8 0-45.1 20.2-45.1 45.1s20.3 45.1 45.1 45.1 45.2-20.2 45.2-45.1-20.3-45.1-45.2-45.1z"/></svg>
