<svg xmlns="http://www.w3.org/2000/svg" viewBox="0 0 100.8 100.8"><path class="st0" d="m65.6 80h-28.6c-3.9 0-7.1-3.2-7.1-7.1v-42.9c0-3.9 3.2-7.1 7.1-7.1h28.5c3.9 0 7.1 3.2 7.1 7.1v42.9c0 3.9-3.1 7.1-7 7.1zm-28.6-54c-2.2 0-4 1.8-4 4v42.9c0 2.2 1.8 4 4 4h28.5c2.2 0 4-1.8 4-4v-42.9c0-2.2-1.8-4-4-4h-28.5z"/><path class="st0" d="m64.9 53.5h-27.7c-0.4 0-0.8-0.3-0.8-0.8s0.3-0.8 0.8-0.8h27.7c0.4 0 0.8 0.3 0.8 0.8s-0.4 0.8-0.8 0.8z"/><path class="st0" d="m64.9 59.8h-27.7c-0.4 0-0.8-0.3-0.8-0.8s0.3-0.8 0.8-0.8h27.7c0.4 0 0.8 0.3 0.8 0.8s-0.4 0.8-0.8 0.8z"/><path class="st0" d="m64.9 66.1h-27.7c-0.4 0-0.8-0.3-0.8-0.8s0.3-0.8 0.8-0.8h27.7c0.4 0 0.8 0.3 0.8 0.8s-0.4 0.8-0.8 0.8z"/><path class="st0" d="m60.1 72.4h-18.1c-0.4 0-0.8-0.3-0.8-0.8s0.3-0.8 0.8-0.8h18.2c0.4 0 0.8 0.3 0.8 0.8s-0.5 0.8-0.9 0.8z"/><path class="st0" d="m51 41.6c-3.3 0-6-2.7-6-6s2.7-6 6-6 6 2.7 6 6-2.7 6-6 6zm0-10.6c-2.5 0-4.5 2-4.5 4.5s2 4.5 4.5 4.5 4.5-2 4.5-4.5-2-4.5-4.5-4.5z"/><path class="st0" d="m53.4 47.6l-2.6-6.5c-0.2-0.4 0-0.8 0.4-1s0.8 0 1 0.4l1.5 3.7 0.5-0.9 1.1 0.3-1.6-3.6c-0.2-0.4 0-0.8 0.4-1s0.8 0 1 0.4l2.7 6.7-3-0.9-1.4 2.4z"/><path class="st0" d="m48.2 47.6l-1.5-2.5-3 0.9 2.7-6.7c0.2-0.4 0.6-0.6 1-0.4s0.6 0.6 0.4 1l-1.5 3.7 1.1-0.3 0.5 0.9 1.5-3.7c0.2-0.4 0.6-0.6 1-0.4s0.6 0.6 0.4 1l-2.6 6.5z"/><path class="st0" d="m50.8 98.9c-26.6 0-48.2-21.6-48.2-48.2s21.7-48.2 48.2-48.2 48.2 21.6 48.2 48.2-21.6 48.2-48.2 48.2zm0-93.3c-24.8 0-45.1 20.2-45.1 45.1s20.3 45.1 45.1 45.1 45.2-20.2 45.2-45.1-20.3-45.1-45.2-45.1z"/></svg>
