<?xml version="1.0" encoding="utf-8"?>
<!-- Generator: Adobe Illustrator 21.0.2, SVG Export Plug-In . SVG Version: 6.00 Build 0)  -->
<svg version="1.1" id="Layer_1" xmlns="http://www.w3.org/2000/svg" xmlns:xlink="http://www.w3.org/1999/xlink" x="0px" y="0px"
	 viewBox="0 0 150 150" style="enable-background:new 0 0 150 150;" xml:space="preserve">
<g>
	<g>
		<path style="fill:#E6E6E6;" d="M33.6,102.4l0.1,0.6l3.4,21.5c0.4,2.6,2.8,4.3,5.4,3.9l0,0c2.6-0.4,4.3-2.8,3.9-5.4L43,101.6"/>
		<path style="fill:#333333;" d="M41.7,129.7c-2.9,0-5.4-2.1-5.9-5l-3.4-22.1c-0.1-0.7,0.4-1.3,1.1-1.4c0.7-0.1,1.3,0.4,1.4,1.1
			l0.1,0.6l3.4,21.4c0.3,1.9,2.1,3.2,4,2.9c0.9-0.1,1.7-0.6,2.3-1.4c0.5-0.8,0.8-1.7,0.6-2.6l-3.4-21.5c-0.1-0.7,0.4-1.3,1-1.4
			c0.7-0.1,1.3,0.4,1.4,1l3.4,21.5c0.2,1.6-0.1,3.1-1.1,4.4c-0.9,1.3-2.3,2.1-3.9,2.4C42.3,129.7,42,129.7,41.7,129.7z"/>
	</g>
	<g>
		<path style="fill:#8FC043;" d="M44.9,47l-18.4,2.9C12,52.1,2.1,65.8,4.3,80.2c2.3,14.4,15.9,24.4,30.3,22.1
			c5-0.8,10.1-1.6,15.1-2.4c9.9-1.5,20.2-0.8,30.1,0.8c7.1,1.2,13.1,2.4,21.4,3.6L87.8,22.7l-20,14.8C61,42.4,53.1,45.7,44.9,47z"/>
		<path style="fill:#333333;" d="M101.2,105.6c-0.1,0-0.1,0-0.2,0c-5.2-0.8-9.5-1.5-13.7-2.3c-2.5-0.4-5-0.9-7.7-1.3
			c-11.4-1.9-21.1-2.2-29.7-0.8l-15.1,2.4c-7.3,1.1-14.6-0.6-20.6-5S4.3,87.7,3.1,80.4c-2.4-15.1,8-29.4,23.1-31.7l18.4-2.9l0,0
			c8.1-1.3,15.8-4.5,22.4-9.3l20.1-14.7c0.3-0.3,0.8-0.3,1.2-0.1c0.4,0.2,0.7,0.5,0.8,0.9l13.4,81.6c0.1,0.4-0.1,0.8-0.3,1.1
			C101.8,105.4,101.5,105.6,101.2,105.6z M61.3,97.8c5.7,0,12,0.6,18.8,1.7c2.7,0.4,5.2,0.9,7.7,1.3c3.7,0.7,7.5,1.3,11.9,2
			l-12.8-78L68.5,38.4c-6.9,5.1-15,8.4-23.4,9.7L26.7,51c-6.6,1-12.5,4.6-16.5,10.1S4.6,73.3,5.6,79.9c1,6.6,4.6,12.5,10.1,16.5
			s12.2,5.6,18.8,4.6l15.1-2.4C53.3,98.1,57.2,97.8,61.3,97.8z"/>
	</g>
	<g>
		<line style="fill:none;" x1="26.4" y1="49.9" x2="33.6" y2="102.4"/>
		<path style="fill:#333333;" d="M33.6,103.7c-0.6,0-1.1-0.4-1.2-1.1L25.2,50c-0.1-0.7,0.4-1.3,1.1-1.4c0.7-0.1,1.3,0.4,1.4,1.1
			l7.1,52.6c0.1,0.7-0.4,1.3-1.1,1.4H33.6z"/>
	</g>
	<g>
		<line style="fill:none;" x1="105.8" y1="40.6" x2="131.3" y2="20.2"/>
		<path style="fill:#333333;" d="M105.8,41.8c-0.4,0-0.7-0.2-1-0.5c-0.4-0.5-0.3-1.3,0.2-1.7l25.5-20.3c0.5-0.4,1.3-0.3,1.7,0.2
			s0.3,1.3-0.2,1.7l-25.5,20.3C106.4,41.7,106.1,41.8,105.8,41.8z"/>
	</g>
	<g>
		<line style="fill:none;" x1="109.5" y1="63.7" x2="146.8" y2="57.9"/>
		<path style="fill:#333333;" d="M109.5,65c-0.6,0-1.1-0.4-1.2-1c-0.1-0.7,0.4-1.3,1-1.4l37.3-5.8c0.7-0.1,1.3,0.4,1.4,1
			c0.1,0.7-0.4,1.3-1,1.4L109.7,65C109.6,64.9,109.5,65,109.5,65z"/>
	</g>
	<g>
		<line style="fill:none;" x1="112.8" y1="85.1" x2="143.3" y2="96.9"/>
		<path style="fill:#333333;" d="M143.3,98.1c-0.1,0-0.3,0-0.4-0.1l-30.5-11.8c-0.6-0.2-1-1-0.7-1.6c0.2-0.6,1-0.9,1.6-0.7
			l30.5,11.8c0.6,0.2,1,1,0.7,1.6C144.3,97.8,143.8,98.1,143.3,98.1z"/>
	</g>
	<g>
		<path style="fill:#8FC043;" d="M64.9,49.2C57,53,48.8,55,39.1,55"/>
		<path style="fill:#333333;" d="M39.1,56.2c-0.7,0-1.2-0.6-1.2-1.2s0.6-1.2,1.2-1.2c9.2,0,17.2-1.8,25.3-5.7c0.6-0.3,1.3,0,1.6,0.6
			c0.3,0.6,0,1.3-0.6,1.6C57.1,54.3,48.7,56.2,39.1,56.2z"/>
	</g>
	<g>
		<path style="fill:#8FC043;" d="M68.5,47.4c-0.3,0.1-0.5,0.3-0.8,0.4"/>
		<path style="fill:#333333;" d="M67.7,49c-0.4,0-0.9-0.2-1.1-0.7c-0.3-0.6-0.1-1.3,0.5-1.7l0.8-0.4c0.6-0.3,1.3-0.1,1.7,0.5
			c0.3,0.6,0.1,1.3-0.5,1.7l-0.8,0.4C68.1,49,67.9,49,67.7,49z"/>
	</g>
	<g>
		<path style="fill:#8FC043;" d="M77.1,41.8c-2,1.4-3.9,2.6-5.8,3.8"/>
		<path style="fill:#333333;" d="M71.2,46.8c-0.4,0-0.8-0.2-1.1-0.6c-0.3-0.6-0.2-1.3,0.4-1.7c1.9-1.1,3.8-2.4,5.8-3.8
			c0.6-0.4,1.3-0.3,1.7,0.3c0.4,0.6,0.3,1.3-0.3,1.7c-2,1.4-4,2.7-5.9,3.9C71.6,46.8,71.4,46.8,71.2,46.8z"/>
	</g>
	<g>
		
			<ellipse transform="matrix(0.9877 -0.1565 0.1565 0.9877 -8.7563 15.6014)" style="fill:#8FC043;" cx="94.7" cy="63.4" rx="5.2" ry="41.5"/>
		<path style="fill:#333333;" d="M101.2,105.6c-6.1,0-12.2-36.9-12.8-41.2c-1.7-11-2.8-21.4-3.1-29.3c-0.4-11.7,1.1-13.6,2.8-13.8
			c1.7-0.3,3.7,1,6.9,12.3c2.2,7.6,4.4,17.9,6.1,28.9l0,0c1.7,11,2.8,21.4,3.1,29.3c0.4,11.7-1.1,13.6-2.8,13.8
			C101.3,105.6,101.2,105.6,101.2,105.6z M88.4,23.9c-1.3,2.6-1.3,17.6,2.3,40.2c3.6,22.6,8.2,36.8,10.2,38.9
			c1.3-2.6,1.3-17.6-2.3-40.2C95.1,40.2,90.5,26,88.4,23.9z"/>
	</g>
	<g>
		<path style="fill:#E6E6E6;" d="M88.7,56.2c3.7-0.6,7.3,2.3,7.9,6.5s-1.8,8.1-5.5,8.7"/>
		<path style="fill:#333333;" d="M91.1,72.6c-0.6,0-1.1-0.4-1.2-1c-0.1-0.7,0.4-1.3,1-1.4c3-0.5,5.1-3.7,4.5-7.2
			c-0.6-3.5-3.5-6-6.5-5.5c-0.7,0.1-1.3-0.4-1.4-1c-0.1-0.7,0.4-1.3,1-1.4c4.4-0.7,8.6,2.7,9.3,7.5c0.8,4.9-2.2,9.4-6.6,10.1
			C91.2,72.6,91.1,72.6,91.1,72.6z"/>
	</g>
	<g>
		<path style="fill:#333333;" d="M101.1,105.5c-6.1,0-12.2-36.9-12.8-41.2c-1.7-11-2.8-21.4-3.1-29.3c-0.4-11.7,1.1-13.6,2.8-13.8
			c0.1,0,0.2,0,0.2,0c6.1,0,12.2,36.9,12.8,41.2c1.7,11,2.8,21.4,3.1,29.3c0.4,11.7-1.1,13.6-2.8,13.8
			C101.3,105.5,101.2,105.5,101.1,105.5z M88.4,23.8c-1.3,2.6-1.3,17.6,2.3,40.2c3.6,22.6,8.2,36.8,10.2,38.9
			c1.3-2.6,1.3-17.6-2.3-40.2l0,0C95,40.1,90.5,25.8,88.4,23.8z"/>
	</g>
	<g>
		<path style="fill:#8FC043;" d="M23,96.5c1.2,0.6,2.5,1,3.8,1.4"/>
		<path style="fill:#333333;" d="M26.7,99.1c-0.1,0-0.2,0-0.3,0c-1.3-0.4-2.7-0.9-4-1.4c-0.6-0.3-0.9-1-0.6-1.6s1-0.9,1.6-0.6
			c1.2,0.5,2.4,1,3.6,1.3c0.7,0.2,1,0.9,0.9,1.5C27.8,98.7,27.3,99.1,26.7,99.1z"/>
	</g>
	<g>
		<path style="fill:#8FC043;" d="M21.1,95.5c0.6,0.3,1.2,0.6,1.9,0.9"/>
		<path style="fill:#333333;" d="M23,97.7c-0.2,0-0.3,0-0.5-0.1c-0.7-0.3-1.3-0.6-1.9-1c-0.6-0.3-0.8-1.1-0.5-1.7s1.1-0.8,1.7-0.5
			s1.2,0.6,1.8,0.9c0.6,0.3,0.9,1,0.6,1.6C23.9,97.4,23.4,97.7,23,97.7z"/>
	</g>
	<g>
		<path style="fill:#8FC043;" d="M12.6,88.1c2.3,3.1,5.2,5.6,8.5,7.4"/>
		<path style="fill:#333333;" d="M21.1,96.8c-0.2,0-0.4,0-0.6-0.2c-3.5-1.9-6.6-4.6-8.9-7.8c-0.4-0.5-0.3-1.3,0.3-1.7
			c0.5-0.4,1.3-0.3,1.7,0.2c2.2,2.9,5,5.4,8.1,7.1c0.6,0.3,0.8,1.1,0.5,1.7C21.9,96.5,21.5,96.8,21.1,96.8z"/>
	</g>
	<g>
		<path style="fill:#E6E6E6;" d="M89.1,59.2c1.5,0.1,3,0.7,3.8,2.1"/>
		<path style="fill:#333333;" d="M92.9,62.5c-0.4,0-0.8-0.2-1.1-0.6c-0.5-0.9-1.5-1.4-2.8-1.5c-0.7,0-1.2-0.6-1.2-1.3
			s0.6-1.2,1.3-1.2c2.1,0.1,3.8,1.1,4.8,2.7c0.3,0.6,0.1,1.3-0.4,1.7C93.3,62.5,93.1,62.5,92.9,62.5z"/>
	</g>
</g>
</svg>
