<?xml version="1.0" encoding="utf-8"?>
<!-- Generator: Adobe Illustrator 21.0.2, SVG Export Plug-In . SVG Version: 6.00 Build 0)  -->
<svg version="1.1" id="Layer_1" xmlns="http://www.w3.org/2000/svg" xmlns:xlink="http://www.w3.org/1999/xlink" x="0px" y="0px"
	 viewBox="0 0 150 150" style="enable-background:new 0 0 150 150;" xml:space="preserve">
<title>Home icon</title>
<polyline style="fill:#8CC63F;stroke:#333333;stroke-width:1.5;stroke-miterlimit:10;" points="127.2,145.9 127.2,54.7 21.9,54.5 
	21.9,55.4 21.9,146 "/>
<path style="fill:#ECECEC;stroke:#333333;stroke-width:1.5;stroke-miterlimit:10;" d="M99.4,26.3v-8.4c0-2.1,2.3-2.8,4.9-2.8h8.1
	c2.6,0,4.7,1.2,4.7,3.3L117,41.1"/>
<path style="fill:#ECECEC;stroke:#333333;stroke-width:1.5;stroke-miterlimit:10;" d="M63.4,146v-34.2c0-6.2,5.5-10.7,11.7-10.7h0.1
	c5.9-0.2,10.9,4.4,11.2,10.3c0,0.1,0,0.3,0,0.4V146"/>
<path style="fill:#E6E6E6;stroke:#333333;stroke-width:1.5;stroke-linecap:round;stroke-linejoin:round;" d="M113.8,87.2V65.1
	c0-0.3-0.2-0.5-0.5-0.5l0,0c-3.5,0-24.6,0-27.8,0c-0.2,0-0.4,0.2-0.4,0.4l0,0v22.2"/>
<path style="fill:#E6E6E6;stroke:#333333;stroke-width:1.5;stroke-linecap:round;stroke-linejoin:round;" d="M64.5,87.2V64.9
	c0-0.2-0.1-0.3-0.3-0.3c0,0,0,0,0,0c-3.1,0.2-25.7,0.1-28.4,0c-0.1,0-0.2,0.1-0.3,0.2c0,0,0,0,0,0v22.4"/>
<path style="fill:none;stroke:#333333;stroke-width:1.5;" d="M66.6,127c0,0.5,0.4,1,1,1c0.5,0,1-0.4,1-1c0-0.5-0.4-1-1-1
	C67,126,66.6,126.4,66.6,127L66.6,127"/>
<path style="fill:#FFFFFF;stroke:#333333;stroke-width:1.5;" d="M68.2,110.7h13.4c0.9,0,1.6,0.7,1.6,1.6v9.2c0,0.9-0.7,1.6-1.6,1.6
	H68.2c-0.9,0-1.6-0.7-1.6-1.6v-9.2C66.6,111.4,67.3,110.7,68.2,110.7z"/>
<line style="fill:none;stroke:#333333;stroke-width:1.5;" x1="114.5" y1="76.2" x2="85.5" y2="76.2"/>
<line style="fill:none;stroke:#333333;stroke-width:1.5;" x1="64.9" y1="75.6" x2="36.2" y2="75.6"/>
<line style="fill:none;stroke:#333333;stroke-width:1.5;" x1="100" y1="63.8" x2="100" y2="88"/>
<line style="fill:none;stroke:#333333;stroke-width:1.5;" x1="50" y1="63.8" x2="50" y2="88"/>
<path style="fill:#6F6F6E;stroke:#333333;stroke-width:1.5;stroke-miterlimit:10;" d="M114.8,87.8c0.1-0.9-0.6-1.6-1.4-1.7
	c0,0,0,0,0,0H85.1c-0.9,0-1.5,0.8-1.5,1.6c0,0,0,0,0,0v0.4c-0.1,0.9,0.6,1.6,1.4,1.7c0,0,0,0,0,0h28.3c0.9,0,1.5-0.8,1.5-1.6
	c0,0,0,0,0,0L114.8,87.8z"/>
<path style="fill:#6F6F6E;stroke:#333333;stroke-width:1.5;stroke-miterlimit:10;" d="M65.2,87.8c0.1-0.9-0.6-1.6-1.4-1.7
	c0,0,0,0,0,0H35.5c-0.9,0-1.5,0.8-1.5,1.6c0,0,0,0,0,0v0.4c-0.1,0.9,0.6,1.6,1.4,1.7c0,0,0,0,0,0h28.2c0.9,0,1.5-0.8,1.5-1.6
	c0,0,0,0,0,0V87.8z"/>
<path style="fill:#E6E6E6;stroke:#333333;stroke-width:1.5;stroke-miterlimit:10;" d="M49.7,130.1v-22.7c0-0.9-0.3-0.6-0.7-0.6H36.3
	c-0.4,0-0.8-0.3-0.8,0.6v22.7"/>
<line style="fill:none;stroke:#333333;stroke-width:1.5;" x1="49.7" y1="118.5" x2="36.2" y2="118.5"/>
<path style="fill:#6F6F6E;stroke:#333333;stroke-width:1.5;stroke-miterlimit:10;" d="M34.9,130.3h15c0.7,0,1.3,0.6,1.3,1.3v1.3
	c0,0.7-0.6,1.3-1.3,1.3h-15c-0.7,0-1.3-0.6-1.3-1.3v-1.3C33.6,130.9,34.2,130.3,34.9,130.3z"/>
<path style="fill:#CCCCCC;stroke:#333333;stroke-width:1.5;stroke-miterlimit:10;" d="M99.1,8.6h18.3c1.1,0,2,0.9,2,2v6.1
	c0,1.1-0.9,2-2,2H99.1c-1.1,0-2-0.9-2-2v-6.1C97.1,9.5,98,8.6,99.1,8.6z"/>
<path style="fill:#B3B3B3;stroke:#333333;stroke-width:1.5;stroke-miterlimit:10;" d="M104.4,2.7h7.7c0.8,0,1.5,0.7,1.5,1.5v2.7
	c0,0.8-0.7,1.5-1.5,1.5h-7.7c-0.8,0-1.5-0.7-1.5-1.5V4.2C102.8,3.3,103.5,2.7,104.4,2.7z"/>
<path style="fill:#ECECEC;stroke:#333333;stroke-width:1.5;stroke-miterlimit:10;" d="M127.9,56.1h2.5c0.9-0.1,1.6-1,1.5-1.9
	c0-0.4-0.2-0.8-0.5-1L75.7,6.7c-0.6-0.5-1.4-0.5-2,0L18,53c-0.7,0.5-0.8,1.5-0.2,2.2c0.3,0.4,0.7,0.6,1.2,0.6l3,0.3L127.9,56.1z"/>
<line style="fill:none;stroke:#333333;stroke-width:1.5;stroke-linecap:round;stroke-miterlimit:10;" x1="15" y1="146" x2="134.7" y2="146"/>
<path style="fill:#E6E6E6;stroke:#333333;stroke-width:1.5;stroke-miterlimit:10;" d="M113.2,128.6V106c0-0.9-0.3-0.6-0.7-0.6H99.9
	c-0.4,0-0.8-0.3-0.8,0.6v22.7"/>
<line style="fill:none;stroke:#333333;stroke-width:1.5;" x1="113.2" y1="117" x2="99.8" y2="117"/>
<path style="fill:#6F6F6E;stroke:#333333;stroke-width:1.5;stroke-miterlimit:10;" d="M98.4,128.5h15c0.7,0,1.3,0.6,1.3,1.3v1.3
	c0,0.7-0.6,1.3-1.3,1.3h-15c-0.7,0-1.3-0.6-1.3-1.3v-1.3C97.2,129.1,97.7,128.5,98.4,128.5z"/>
<line style="fill:none;stroke:#FFFFFF;stroke-width:1.5;stroke-linecap:round;stroke-miterlimit:10;" x1="46" y1="79.5" x2="40.1" y2="82.5"/>
<line style="fill:none;stroke:#FFFFFF;stroke-width:1.5;stroke-linecap:round;stroke-miterlimit:10;" x1="109.6" y1="110.5" x2="103.7" y2="113.5"/>
<line style="fill:none;stroke:#FFFFFF;stroke-width:1.5;stroke-linecap:round;stroke-miterlimit:10;" x1="109.6" y1="69.2" x2="103.7" y2="72.1"/>
<line style="fill:none;stroke:#FFFFFF;stroke-width:1.5;stroke-linecap:round;stroke-miterlimit:10;" x1="46" y1="122.4" x2="40.1" y2="125.3"/>
<rect style="fill:none;" width="150" height="150"/>
</svg>
