<?xml version="1.0" encoding="utf-8"?>
<!-- Generator: Adobe Illustrator 21.0.2, SVG Export Plug-In . SVG Version: 6.00 Build 0)  -->
<svg version="1.1" id="Layer_1" xmlns="http://www.w3.org/2000/svg" xmlns:xlink="http://www.w3.org/1999/xlink" x="0px" y="0px"
	 viewBox="0 0 150 150" style="enable-background:new 0 0 150 150;" xml:space="preserve">
<g>
	<g>
		<path style="fill:#8CC63F;" d="M96.1,43.5h-45c-1.3,0-2.4-1.1-2.4-2.4v-16c0-1.3,1.1-2.4,2.4-2.4h45.1c1.3,0,2.4,1.1,2.4,2.4v16
			C98.5,42.4,97.5,43.5,96.1,43.5z"/>
		<path style="fill:#333333;" d="M95.3,44.5H51.9c-2.3,0-4.2-1.9-4.2-4.2V25.9c0-2.3,1.9-4.2,4.2-4.2h43.5c2.3,0,4.2,1.9,4.2,4.2
			v14.4C99.5,42.6,97.7,44.5,95.3,44.5z M51.9,23.7c-1.2,0-2.2,1-2.2,2.2v14.4c0,1.2,1,2.2,2.2,2.2h43.5c1.2,0,2.2-1,2.2-2.2V25.9
			c0-1.2-1-2.2-2.2-2.2C95.4,23.7,51.9,23.7,51.9,23.7z"/>
	</g>
	<g>
		<path style="fill:#FFFFFF;" d="M96.1,49.5h-45c-1.3,0-2.4-1.1-2.4-2.4v-16c0-1.3,1.1-2.4,2.4-2.4h45.1c1.3,0,2.4,1.1,2.4,2.4v16
			C98.5,48.4,97.5,49.5,96.1,49.5z"/>
		<path style="fill:#333333;" d="M95.3,50.5H51.9c-2.3,0-4.2-1.9-4.2-4.2V31.9c0-2.3,1.9-4.2,4.2-4.2h43.5c2.3,0,4.2,1.9,4.2,4.2
			v14.4C99.5,48.6,97.7,50.5,95.3,50.5z M51.9,29.7c-1.2,0-2.2,1-2.2,2.2v14.4c0,1.2,1,2.2,2.2,2.2h43.5c1.2,0,2.2-1,2.2-2.2V31.9
			c0-1.2-1-2.2-2.2-2.2C95.4,29.7,51.9,29.7,51.9,29.7z"/>
	</g>
	<g>
		<path style="fill:#8FC043;" d="M129.4,46.5H119c-1.3,0-2.4-1.1-2.4-2.4v-8.6c0-1.3,1.1-2.4,2.4-2.4h10.4c1.3,0,2.4,1.1,2.4,2.4
			v8.6C131.8,45.4,130.7,46.5,129.4,46.5z"/>
		<path style="fill:#333333;" d="M128.6,47.5h-8.8c-2.3,0-4.2-1.9-4.2-4.2v-7c0-2.3,1.9-4.2,4.2-4.2h8.8c2.3,0,4.2,1.9,4.2,4.2v7
			C132.8,45.6,130.9,47.5,128.6,47.5z M119.7,34.1c-1.2,0-2.2,1-2.2,2.2v7c0,1.2,1,2.2,2.2,2.2h8.8c1.2,0,2.2-1,2.2-2.2v-7
			c0-1.2-1-2.2-2.2-2.2H119.7z"/>
	</g>
	<g>
		<path style="fill:#8FC043;" d="M31.1,46.5H20.6c-1.3,0-2.4-1.1-2.4-2.4v-8.6c0-1.3,1.1-2.4,2.4-2.4H31c1.3,0,2.4,1.1,2.4,2.4v8.6
			C33.5,45.4,32.4,46.5,31.1,46.5z"/>
		<path style="fill:#333333;" d="M30.3,47.5h-8.8c-2.3,0-4.2-1.9-4.2-4.2v-7c0-2.3,1.9-4.2,4.2-4.2h8.8c2.3,0,4.2,1.9,4.2,4.2v7
			C34.5,45.6,32.6,47.5,30.3,47.5z M21.4,34.1c-1.2,0-2.2,1-2.2,2.2v7c0,1.2,1,2.2,2.2,2.2h8.8c1.2,0,2.2-1,2.2-2.2v-7
			c0-1.2-1-2.2-2.2-2.2H21.4z"/>
	</g>
	<g>
		<path style="fill:#E6E6E6;" d="M147,64.3v57.3c0,2.8-2.3,5.1-5.1,5.1H8.1c-2.8,0-5.1-2.3-5.1-5.1V64.3"/>
		<path style="fill:#333333;" d="M141.9,127.7H8.1c-3.4,0-6.1-2.8-6.1-6.1V64.3c0-0.6,0.4-1,1-1s1,0.4,1,1v57.3
			c0,2.3,1.9,4.1,4.1,4.1h133.7c2.3,0,4.1-1.9,4.1-4.1V64.3c0-0.6,0.4-1,1-1s1,0.4,1,1v57.3C148,125,145.2,127.7,141.9,127.7z"/>
	</g>
	<g>
		<path style="fill:#8FC043;" d="M147,76.1l-73.3,37.3L3,76.1V62.7V44.2c0-2.8,2.3-5.1,5.1-5.1h133.7c2.8,0,5.1,2.3,5.1,5.1v18.5
			L147,76.1L147,76.1z"/>
		<path style="fill:#333333;" d="M73.7,114.4c-0.2,0-0.3,0-0.5-0.1L2.5,76.9C2.2,76.8,2,76.4,2,76.1V44.2c0-3.4,2.8-6.1,6.1-6.1
			h133.7c3.4,0,6.1,2.8,6.1,6.1V76c0,0.4-0.2,0.7-0.5,0.9l-73.3,37.3C74,114.4,73.8,114.4,73.7,114.4z M4,75.5l69.7,36.8L146,75.4
			V44.2c0-2.3-1.9-4.1-4.1-4.1H8.1C5.8,40.1,4,42,4,44.2C4,44.2,4,75.5,4,75.5z M147,76.1L147,76.1L147,76.1z"/>
	</g>
	<g>
		<path style="fill:#E6E6E6;" d="M74.9,52.6C74.9,52.6,74.8,52.6,74.9,52.6c-3.1,5.1-6.2,10.2-9.2,15.4c2,0.1,3.9,0.1,5.9,0.2
			c-0.1,3.1-0.1,6.2-0.2,9.3h0.1c3-5.1,6.1-10.2,9.1-15.4c-2-0.1-3.9-0.1-5.9-0.2C74.7,58.8,74.8,55.7,74.9,52.6z"/>
		<path style="fill:#333333;" d="M71.4,78.5c-0.1,0-0.2,0-0.3-0.1c-0.1,0-0.1-0.1-0.2-0.1c-0.4-0.1-0.6-0.5-0.6-0.9l0.2-8.3L65.6,69
			c-0.4,0-0.7-0.2-0.8-0.5c-0.2-0.3-0.2-0.7,0-1l9.1-15.4c0.3-0.4,0.8-0.6,1.3-0.4c0.4,0.1,0.7,0.5,0.7,1l-0.1,2.9
			c0,1.8-0.1,3.6-0.1,5.4l4.9,0.1c0.4,0,0.7,0.2,0.8,0.5c0.2,0.3,0.2,0.7,0,1c-2.6,4.4-5.2,8.8-7.8,13.2L72.3,78
			C72.1,78.3,71.8,78.5,71.4,78.5z M67.4,67.1l4.2,0.1c0.6,0,1,0.5,1,1l-0.1,5.6c2.1-3.6,4.3-7.2,6.4-10.8l-4.2-0.1
			c-0.5,0-1-0.5-1-1c0-1.9,0.1-3.8,0.1-5.7L67.4,67.1z M74.8,52.6L74.8,52.6L74.8,52.6z"/>
	</g>
	<g>
		<path style="fill:#8FC043;" d="M76.9,120.7h-6.6c-1.2,0-2.3-1-2.3-2.3v-13.3c0-1.2,1-2.3,2.3-2.3h6.6c1.2,0,2.3,1,2.3,2.3v13.3
			C79.2,119.7,78.1,120.7,76.9,120.7z"/>
		<path style="fill:#333333;" d="M76.1,121.7H71c-2.2,0-4-1.8-4-4v-11.8c0-2.2,1.8-4,4-4h5.1c2.2,0,4,1.8,4,4v11.8
			C80.2,119.9,78.4,121.7,76.1,121.7z M71.1,103.9c-1.1,0-2,0.9-2,2v11.8c0,1.1,0.9,2,2,2h5.1c1.1,0,2-0.9,2-2v-11.8
			c0-1.1-0.9-2-2-2H71.1z"/>
	</g>
	<g>
		<line style="fill:none;" x1="73.6" y1="114.8" x2="73.6" y2="120.7"/>
		<path style="fill:#333333;" d="M73.6,121.7c-0.6,0-1-0.4-1-1v-5.9c0-0.6,0.4-1,1-1s1,0.4,1,1v5.9
			C74.6,121.3,74.2,121.7,73.6,121.7z"/>
	</g>
</g>
</svg>
