<?xml version="1.0" encoding="utf-8"?>
<!-- Generator: Adobe Illustrator 21.0.2, SVG Export Plug-In . SVG Version: 6.00 Build 0)  -->
<svg version="1.1" id="Layer_1" xmlns="http://www.w3.org/2000/svg" xmlns:xlink="http://www.w3.org/1999/xlink" x="0px" y="0px"
	 viewBox="0 0 138 23" style="enable-background:new 0 0 138 23;" xml:space="preserve">
<style type="text/css">
	.st0{fill:#8CC63F;stroke:#8CC63F;stroke-linecap:round;stroke-linejoin:round;stroke-miterlimit:10;}
	.st1{fill:#8CC63F;}
	.st2{fill:#E6E6E6;}
</style>
<polygon class="st0" points="15.8,8.1 22.5,9 17.7,13.8 18.9,20.4 12.9,17.3 6.9,20.5 8,13.9 3.1,9.2 9.8,8.1 12.7,2.1 "/>
<polygon class="st0" points="44.2,8.1 50.9,9 46.1,13.8 47.3,20.4 41.3,17.3 35.3,20.5 36.4,13.9 31.5,9.2 38.2,8.1 41.2,2.1 "/>
<polygon class="st0" points="72.6,8.1 79.3,9 74.5,13.8 75.7,20.4 69.7,17.3 63.7,20.5 64.8,13.9 60,9.2 66.6,8.1 69.6,2.1 "/>
<polygon class="st0" points="101.1,8.1 107.8,9 102.9,13.8 104.1,20.4 98.1,17.3 92.2,20.5 93.3,13.9 88.4,9.2 95.1,8.1 98,2.1 "/>
<g>
	<path class="st1" d="M129.7,19.4l-2.9-1.5c-0.1,0-0.2,0-0.3,0l-5.5,3c-0.2,0.1-0.5-0.1-0.5-0.3l1-6.2c0-0.1,0-0.2-0.1-0.3l-4.5-4.4
		c-0.2-0.2-0.1-0.5,0.2-0.6l6.2-1c0.1,0,0.2-0.1,0.2-0.2l2.7-5.7c0.1-0.2,0.5-0.2,0.6,0l2.9,5.8"/>
	<path class="st2" d="M129.7,8.1l6.4,0.9c0.3,0,0.4,0.4,0.2,0.6l-4.5,4.4c-0.1,0.1-0.1,0.2-0.1,0.3l1.1,6.2c0,0.3-0.2,0.5-0.5,0.3
		l-2.7-1.4"/>
</g>
</svg>
