<svg xmlns="http://www.w3.org/2000/svg" viewBox="0 0 150 150"><title>Home icon</title><path d="M121 134.9V57.7l-89.1-.2V135" fill="#8cc63f" stroke="#333" stroke-width="1.5" stroke-miterlimit="10"/><path d="M97.4 33.7v-7.1c0-1.8 1.9-2.4 4.1-2.4h6.9c2.2 0 4 1 4 2.8l-.1 19.2M67 135v-28.9c0-5.2 4.7-9.1 9.9-9.1h.1c5-.2 9.2 3.7 9.5 8.7V135" fill="#ececec" stroke="#333" stroke-width="1.5" stroke-miterlimit="10"/><path d="M109.6 85.2V66.5c0-.3-.2-.4-.4-.4H85.7c-.2 0-.3.2-.3.3v18.8m-17.5 0V66.4c0-.2-.1-.3-.3-.3-2.6.2-21.8.1-24 0-.1 0-.2.1-.3.2v19" fill="#e6e6e6" stroke="#333" stroke-width="1.5" stroke-linecap="round" stroke-linejoin="round"/><path d="M69.7 118.9c0 .4.3.8.8.8.4 0 .8-.3.8-.8 0-.4-.3-.8-.8-.8s-.8.3-.8.8" fill="none" stroke="#333" stroke-width="1.5"/><path d="M71 105.1h11.3c.8 0 1.4.6 1.4 1.4v7.8c0 .8-.6 1.4-1.4 1.4H71c-.8 0-1.4-.6-1.4-1.4v-7.8c.1-.8.7-1.4 1.4-1.4z" fill="#fff" stroke="#333" stroke-width="1.5"/><path d="M110.2 75.9H85.7m-17.5-.5H43.9m54.1-10v20.5M55.6 65.4v20.5" fill="none" stroke="#333" stroke-width="1.5"/><path d="M110.5 85.7c.1-.8-.5-1.4-1.2-1.4h-24c-.8 0-1.3.7-1.3 1.4v.3c-.1.8.5 1.4 1.2 1.4h24c.8 0 1.3-.7 1.3-1.4v-.3zm-42 0c.1-.8-.5-1.4-1.2-1.4h-24c-.8 0-1.3.7-1.3 1.4v.3c-.1.8.5 1.4 1.2 1.4h23.9c.8 0 1.3-.7 1.3-1.4l.1-.3z" fill="#6f6f6e" stroke="#333" stroke-width="1.5" stroke-miterlimit="10"/><path d="M55.4 121.5v-19.2c0-.8-.3-.5-.6-.5H44c-.3 0-.7-.3-.7.5v19.2" fill="#e6e6e6" stroke="#333" stroke-width="1.5" stroke-miterlimit="10"/><path d="M55.4 111.7H43.9" fill="none" stroke="#333" stroke-width="1.5"/><path d="M42.8 121.7h12.7c.6 0 1.1.5 1.1 1.1v1.1c0 .6-.5 1.1-1.1 1.1H42.8c-.6 0-1.1-.5-1.1-1.1v-1.1c0-.6.6-1.1 1.1-1.1z" fill="#6f6f6e" stroke="#333" stroke-width="1.5" stroke-miterlimit="10"/><path d="M97.2 18.7h15.5c.9 0 1.7.8 1.7 1.7v5.2c0 .9-.8 1.7-1.7 1.7H97.2c-.9 0-1.7-.8-1.7-1.7v-5.2c0-.9.8-1.7 1.7-1.7z" fill="#ccc" stroke="#333" stroke-width="1.5" stroke-miterlimit="10"/><path d="M101.7 13.7h6.5c.7 0 1.3.6 1.3 1.3v2.3c0 .7-.6 1.3-1.3 1.3h-6.5c-.7 0-1.3-.6-1.3-1.3V15c-.1-.8.5-1.3 1.3-1.3z" fill="#b3b3b3" stroke="#333" stroke-width="1.5" stroke-miterlimit="10"/><path d="M121.6 58.9h2.1c.8-.1 1.4-.8 1.3-1.6 0-.3-.2-.7-.4-.8L77.4 17.1c-.5-.4-1.2-.4-1.7 0L28.5 56.3c-.6.4-.7 1.3-.2 1.9.3.3.6.5 1 .5l2.5.3h89.8z" fill="#ececec" stroke="#333" stroke-width="1.5" stroke-miterlimit="10"/><path d="M26 135h101.3" fill="none" stroke="#333" stroke-width="1.5" stroke-linecap="round" stroke-miterlimit="10"/><path d="M109.1 120.3v-19.1c0-.8-.3-.5-.6-.5H97.9c-.3 0-.7-.3-.7.5v19.2" fill="#e6e6e6" stroke="#333" stroke-width="1.5" stroke-miterlimit="10"/><path d="M109.1 110.5H97.8" fill="none" stroke="#333" stroke-width="1.5"/><path d="M96.6 120.2h12.7c.6 0 1.1.5 1.1 1.1v1.1c0 .6-.5 1.1-1.1 1.1H96.6c-.6 0-1.1-.5-1.1-1.1v-1.1c.1-.6.5-1.1 1.1-1.1z" fill="#6f6f6e" stroke="#333" stroke-width="1.5" stroke-miterlimit="10"/><path d="M52.2 78.7l-5 2.5m58.9 23.8l-5 2.5m5-37.5l-5 2.5M52.2 115l-5 2.5" fill="none" stroke="#fff" stroke-width="1.5" stroke-linecap="round" stroke-miterlimit="10"/><path d="M0 0h150v150H0V0z" fill="none"/></svg>