<svg xmlns="http://www.w3.org/2000/svg" viewBox="0 0 150 150"><path d="M77.5 136.3c-.5 0-1-.4-1-1V67c0-.5.4-1 1-1s1 .4 1 1v68.3c0 .5-.5 1-1 1zm-23 0c-.5 0-1-.4-1-1V67c0-.5.4-1 1-1 .5 0 1 .4 1 1v68.2c0 .6-.4 1.1-1 1.1z" fill="#333"/><path d="M54.5 91c-.3 0-.5-.1-.7-.3-.4-.4-.4-1 0-1.3l23-23c.4-.4 1-.4 1.3 0 .4.4.4 1 0 1.3l-22.9 23c-.1.2-.4.3-.7.3zm0 22.7c-.3 0-.5-.1-.7-.3-.4-.4-.4-1 0-1.3l23-23c.4-.4 1-.4 1.3 0s.4 1 0 1.3l-23 23c-.1.2-.3.3-.6.3z" fill="#333"/><path d="M77.4 91c-.3 0-.5-.1-.7-.3l-22.9-23c-.4-.4-.4-1 0-1.3.4-.4 1-.4 1.3 0l23 23c.4.4.4 1 0 1.3-.1.2-.4.3-.7.3zm.1 22.5c-.3 0-.5-.1-.7-.3l-23-23c-.4-.4-.4-1 0-1.3s1-.4 1.3 0l23 23c.4.4.4 1 0 1.3-.1.2-.4.3-.6.3z" fill="#333"/><path d="M77.4 90.8H54.5c-.5 0-1-.4-1-1 0-.5.4-1 1-1h22.9c.5 0 1 .4 1 1s-.4 1-1 1zm.1 22.7H55.1c-.5 0-1-.4-1-1 0-.5.4-1 1-1h22.4c.5 0 1 .4 1 1s-.5 1-1 1zM110.4 58c-.3 0-.5-.1-.7-.3L86.8 34.8c-.4-.4-.4-1 0-1.3.4-.4 1-.4 1.3 0l23 23c.4.4.4 1 0 1.3-.1.1-.4.2-.7.2z" fill="#333"/><path d="M87.5 57.9c-.3 0-.5-.1-.7-.3-.4-.4-.4-1 0-1.3l23-23c.4-.4 1-.4 1.3 0 .4.4.4 1 0 1.3l-22.9 23c-.2.2-.4.3-.7.3z" fill="#333"/><path d="M110.4 57.9c-.5 0-1-.4-1-1V34c0-.5.4-1 1-1 .5 0 1 .4 1 1v23c0 .5-.4.9-1 .9z" fill="#4d4d4d"/><path d="M133 58H87.9c-.5 0-1-.4-1-1 0-.5.4-1 1-1h45c.5 0 1 .4 1 1 0 .5-.4 1-.9 1zm0-23H88c-.5 0-1-.4-1-1s.4-1 1-1h45c.5 0 1 .4 1 1-.1.5-.5 1-1 1z" fill="#333"/><path d="M133.4 57.9c-.3 0-.5-.1-.7-.3l-23-23c-.4-.4-.4-1 0-1.3.4-.4 1-.4 1.3 0l23 23c.4.4.4 1 0 1.3-.1.2-.3.3-.6.3z" fill="#333"/><path d="M110.6 58c-.3 0-.5-.1-.7-.3-.4-.4-.4-1 0-1.3l23-23c.4-.4 1-.4 1.3 0 .4.4.4 1 0 1.3l-23 23c-.1.2-.3.3-.6.3z" fill="#333"/><path d="M110.5 57.9c-.5 0-1-.4-1-1V34c0-.5.4-1 1-1s1 .4 1 1v23c0 .4-.5.9-1 .9zm-65.6.1c-.3 0-.5-.1-.7-.3l-22.9-23c-.4-.4-.4-1 0-1.3.4-.4 1-.4 1.3 0l23 22.9c.4.4.4 1 0 1.3-.2.3-.5.4-.7.4z" fill="#333"/><path d="M22 57.9c-.3 0-.5-.1-.7-.3-.4-.4-.4-1 0-1.3l23-23c.4-.4 1-.4 1.3 0 .4.4.4 1 0 1.3l-22.9 23c-.3.2-.5.3-.7.3z" fill="#333"/><path d="M46.8 57.9H22.3c-.5 0-1-.4-1-1 0-.5.4-1 1-1h24.4c.5 0 1 .4 1 1 .1.5-.4 1-.9 1z" fill="#333"/><path d="M46.8 34.9H22.4c-.5 0-1-.4-1-1s.4-1 1-1h24.4c.5 0 1 .4 1 1s-.5 1-1 1z" fill="#4d4d4d"/><path d="M121.5 62.1c-2.5 0-4.6-2-4.6-4.6 0-.5.4-1 1-1 .5 0 1 .4 1 1 0 1.5 1.1 2.6 2.6 2.6s2.6-1.1 2.6-2.6c0-.5.4-1 1-1 .5 0 1 .4 1 1-.1 2.6-2.2 4.6-4.6 4.6z" fill="#333"/><path d="M121.7 76.8c-.5 0-1-.4-1-1V61.5c0-.5.4-1 1-1 .5 0 1 .4 1 1v14.3c-.1.6-.5 1-1 1z" fill="#333"/><path d="M48 66.7h36.6c1.6 0 2.9-1.3 2.9-2.9V27.3c0-1.6-1.3-2.9-2.9-2.9H48c-1.6 0-2.9 1.3-2.9 2.9v36.5c0 1.5 1.4 2.9 2.9 2.9z" fill="#8cc63f"/><path d="M83.3 67.6h-34c-2.8 0-5.2-2.3-5.2-5.2v-34c0-2.8 2.3-5.2 5.2-5.2h34c2.8 0 5.2 2.3 5.2 5.2v34c0 2.9-2.4 5.2-5.2 5.2zm-34-42.4c-1.8 0-3.2 1.5-3.2 3.2v34c0 1.8 1.5 3.2 3.2 3.2h34c1.8 0 3.2-1.5 3.2-3.2v-34c0-1.8-1.5-3.2-3.2-3.2h-34z" fill="#333"/><circle cx="58.3" cy="40.1" r="8.1" fill="#e6e6e6"/><path d="M58.3 49.1c-5 0-9-4-9-9s4-9 9-9 9 3.9 9 8.9c-.1 5-4.1 9.1-9 9.1zm0-16c-3.9 0-7.1 3.2-7.1 7.1s3.2 7.1 7.1 7.1 7.1-3.2 7.1-7.1-3.2-7.1-7.1-7.1zm1.9 21.8h-3.9c-.5 0-1-.4-1-1 0-.5.4-1 1-1h3.9c.5 0 1 .4 1 1 0 .7-.4 1-1 1zM58.8 24c-.5 0-1-.4-1-1V12.9c0-.5.4-1 1-1s1 .4 1 1V23c0 .6-.4 1-1 1z" fill="#333"/><path d="M57.5 44.4c-.3 0-.5-.1-.7-.3-.4-.4-.4-1 0-1.3l3.8-3.8c.4-.4 1-.4 1.3 0 .4.4.4 1 0 1.3l-3.8 3.8c-.1.1-.3.3-.6.3zm-1.2-3.9c-.3 0-.5-.1-.7-.3-.4-.4-.4-1 0-1.3l1.2-1.2c.4-.4 1-.4 1.3 0 .4.4.4 1 0 1.3l-1.2 1.2c-.2.2-.4.3-.6.3z" fill="#fff"/><path d="M69 25.2c-.2 0-.4-.1-.5-.2l-10.2-6.3c-.4-.3-.6-.9-.3-1.3s.9-.6 1.3-.3l10.2 6.3c.4.3.6.9.3 1.3-.2.5-.5.5-.8.5z" fill="#333"/><path d="M126.1 123.2V82.8l-9.9 1.9v38.4c0 .3.2.4.4.4h9c.4 0 .5-.1.5-.3z" fill="#4d4d4d"/><path d="M125.7 124.5h-9c-.8 0-1.3-.6-1.3-1.3V84l11.8-2.4v41.5c-.1.8-.7 1.4-1.5 1.4zm-8.5-1.9h8V84l-8 1.6v37z" fill="#333"/><path d="M125.4 79c-.7-1.3-1.8-2.2-3.1-2.5s-2.6.2-3.8 1.1c-1.1 1-1.9 2.5-2.3 4-.4 1.7-.2 3.3.5 4.7s1.8 2.2 3.1 2.5 2.6-.2 3.8-1.1 1.9-2.5 2.3-4.1c.4-1.6.2-3.2-.5-4.6" fill="#4d4d4d"/><path d="M120.7 90c-.3 0-.6 0-.9-.1-1.6-.3-2.9-1.4-3.7-3-.8-1.5-1-3.4-.6-5.3s1.3-3.5 2.5-4.7c1.3-1.1 3-1.7 4.6-1.3 1.6.3 2.9 1.3 3.7 2.9.8 1.5 1 3.3.6 5.3-.4 1.8-1.3 3.5-2.5 4.7-1.2 1-2.4 1.5-3.7 1.5zm1-12.5c-.8 0-1.7.4-2.4 1-1 .9-1.7 2.1-1.9 3.5-.3 1.5-.1 2.9.4 4s1.4 1.8 2.4 1.9c1 .2 2-.2 2.9-1 1-.9 1.7-2.1 1.9-3.6.3-1.4.1-2.9-.4-4s-1.4-1.8-2.4-1.9c-.2.1-.4.1-.5.1z" fill="#333"/><path d="M124.5 79.7c-.5-1.1-1.4-1.8-2.4-1.9-1-.2-2 .2-2.9 1-.9.8-1.5 2-1.8 3.3-.3 1.3-.1 2.7.4 3.8.5 1.1 1.4 1.8 2.4 1.9 1 .2 2-.2 2.9-1.1.9-.8 1.5-2 1.8-3.4.3-1.2.2-2.5-.4-3.6" fill="#b3b3b3"/><path d="M120.8 88.9c-.3 0-.4 0-.7-.1-1.3-.3-2.4-1.1-3.1-2.5-.6-1.2-.8-2.8-.5-4.4s1-2.9 2-3.9c1.1-1.1 2.5-1.5 3.7-1.2 1.3.3 2.4 1.1 3.1 2.5.6 1.2.8 2.8.5 4.3-.3 1.6-1 2.9-2 3.9-.8.9-1.9 1.4-3 1.4zm.8-10.2c-.6 0-1.2.3-1.8.8-.7.7-1.2 1.7-1.4 2.8-.2 1.1-.1 2.3.4 3.2.4.8 1 1.3 1.7 1.4.7.1 1.4-.2 2.1-.8.7-.7 1.2-1.7 1.5-2.9.2-1.1.1-2.3-.4-3.2-.4-.8-1-1.3-1.8-1.4-.1.1-.2.1-.3.1z" fill="#333"/><path d="M116.3 89.8c.4.1.9.3 1.2.6.4.4.7 1 .7 1.6s-.3 1.1-.7 1.6c-.4.3-.7.5-1.1.6" fill="gray"/><path d="M116.6 95.1l-.4-1.8c.3-.1.5-.2.7-.4.3-.3.4-.5.4-.9s-.2-.6-.4-.9c-.2-.2-.4-.3-.7-.4l.4-1.8c.6.1 1.2.4 1.7.8.6.6 1 1.4 1 2.3s-.4 1.7-1 2.3c-.6.4-1.1.6-1.7.8z" fill="#333"/><path d="M126 89.7c-.5.1-1 .4-1.3.6-.5.4-.8 1.1-.8 1.8 0 .6.3 1.2.8 1.8.4.4.8.5 1.2.6" fill="gray"/><path d="M125.8 95.4c-.6-.2-1.2-.4-1.7-.9-.7-.6-1.1-1.5-1.1-2.5 0-.9.4-1.8 1.1-2.5.5-.4 1.1-.8 1.8-.9l.4 1.8c-.4.1-.6.2-.9.4s-.4.6-.4 1.1c0 .4.2.8.4 1.1.2.2.5.4.8.4l-.4 2z" fill="#333"/><path d="M123.5 87.9c-.2 0-.4-.1-.4-.2-.3-.3-.3-.6 0-.9.9-.9 1.6-2.1 1.8-3.4.3-1.4.1-2.7-.4-3.8-.2-.4 0-.7.3-.9.4-.2.7 0 .9.3.7 1.3.9 3 .6 4.6s-1.1 3.2-2.2 4.1c-.2.2-.4.2-.6.2zM118 87.7c-.2 0-.4-.1-.5-.3-.3-.3-.4-.6-.6-1-.7-1.3-.9-3-.6-4.7.3-1.2.7-2.4 1.4-3.2.2-.3.6-.4.9-.1.3.2.4.6.1.9-.6.8-1 1.7-1.1 2.7-.3 1.4-.1 2.7.4 3.9.2.3.3.5.4.7.2.3.2.7-.1.9-.1.1-.2.2-.3.2z" fill="#8cc03f"/><path d="M54.5 136.5c-.3 0-.5-.1-.7-.3-.4-.4-.4-1 0-1.3l23-23c.4-.4 1-.4 1.3 0 .4.4.4 1 0 1.3l-23 23c-.1.2-.3.3-.6.3z" fill="#333"/><path d="M77.5 136.3c-.3 0-.5-.1-.7-.3l-23-23c-.4-.4-.4-1 0-1.3s1-.4 1.3 0l23 23c.4.4.4 1 0 1.3-.1.3-.4.3-.6.3z" fill="#333"/><path d="M83.9 137.4H47.6c-.1 0-.3-.1-.3-.3v-3.8c0-1.3 1.1-2.3 2.3-2.3H82c1.2 0 2.2 1 2.2 2.2v3.9c0 .2-.1.3-.3.3z" fill="#e6e6e6"/><path d="M83.7 138.4h-36c-.7 0-1.3-.6-1.3-1.3v-2.6c0-2.4 1.9-4.3 4.3-4.3H81c2.3 0 4.1 1.8 4.1 4.1v2.7c.1.7-.6 1.4-1.4 1.4zm-35.4-2h34.9v-2.2c0-1.2-1-2.2-2.2-2.2H50.8c-1.3 0-2.4 1.1-2.4 2.4l-.1 2c.1 0 0 0 0 0z" fill="#333"/><path d="M0 0h150v150H0V0z" fill="none"/></svg>