<svg xmlns="http://www.w3.org/2000/svg" viewBox="0 0 150 150"><path d="M93.6 46.8H54.1c-1.1 0-2.1-1-2.1-2.1v-14c0-1.1 1-2.1 2.1-2.1h39.6c1.1 0 2.1 1 2.1 2.1v14.1c0 1.1-.9 2-2.2 2z" fill="#8cc63f"/><path d="M92.9 47.7H54.8c-2 0-3.7-1.7-3.7-3.7V31.4c0-2 1.7-3.7 3.7-3.7H93c2 0 3.7 1.7 3.7 3.7V44c-.1 2.1-1.6 3.7-3.8 3.7zM54.8 29.5c-1.1 0-1.9.9-1.9 1.9V44c0 1.1.9 1.9 1.9 1.9H93c1.1 0 1.9-.9 1.9-1.9V31.4c0-1.1-.9-1.9-1.9-1.9H54.8z" fill="#333"/><path d="M93.6 52.1H54.1c-1.1 0-2.1-1-2.1-2.1V36c0-1.1 1-2.1 2.1-2.1h39.6c1.1 0 2.1 1 2.1 2.1v14c0 1.2-.9 2.1-2.2 2.1z" fill="#fff"/><path d="M92.9 53H54.8c-2 0-3.7-1.7-3.7-3.7V36.7c0-2 1.7-3.7 3.7-3.7H93c2 0 3.7 1.7 3.7 3.7v12.6c-.1 2-1.6 3.7-3.8 3.7zM54.8 34.7c-1.1 0-1.9.9-1.9 1.9v12.6c0 1.1.9 1.9 1.9 1.9H93c1.1 0 1.9-.9 1.9-1.9V36.7c0-1.1-.9-1.9-1.9-1.9 0-.1-38.2-.1-38.2-.1z" fill="#333"/><path d="M122.9 49.5h-9.1c-1.1 0-2.1-1-2.1-2.1v-7.6c0-1.1 1-2.1 2.1-2.1h9.1c1.1 0 2.1 1 2.1 2.1v7.6c0 1.1-1 2.1-2.1 2.1z" fill="#8fc043"/><path d="M122.2 50.4h-7.7c-2 0-3.7-1.7-3.7-3.7v-6.1c0-2 1.7-3.7 3.7-3.7h7.7c2 0 3.7 1.7 3.7 3.7v6.1c0 2-1.7 3.7-3.7 3.7zm-7.8-11.8c-1.1 0-1.9.9-1.9 1.9v6.1c0 1.1.9 1.9 1.9 1.9h7.7c1.1 0 1.9-.9 1.9-1.9v-6.1c0-1.1-.9-1.9-1.9-1.9h-7.7z" fill="#333"/><path d="M36.6 49.5h-9.2c-1.1 0-2.1-1-2.1-2.1v-7.6c0-1.1 1-2.1 2.1-2.1h9.1c1.1 0 2.1 1 2.1 2.1v7.6c.1 1.1-.9 2.1-2 2.1z" fill="#8fc043"/><path d="M35.9 50.4h-7.7c-2 0-3.7-1.7-3.7-3.7v-6.1c0-2 1.7-3.7 3.7-3.7h7.7c2 0 3.7 1.7 3.7 3.7v6.1c-.1 2-1.7 3.7-3.7 3.7zM28 38.6c-1.1 0-1.9.9-1.9 1.9v6.1c0 1.1.9 1.9 1.9 1.9h7.7c1.1 0 1.9-.9 1.9-1.9v-6.1c0-1.1-.9-1.9-1.9-1.9H28z" fill="#333"/><path d="M138.4 65.1v50.3c0 2.5-2 4.5-4.5 4.5H16.4c-2.5 0-4.5-2-4.5-4.5V65.1" fill="#e6e6e6"/><path d="M133.9 120.8H16.4c-3 0-5.4-2.5-5.4-5.4V65.1c0-.5.4-.9.9-.9s.9.4.9.9v50.3c0 2 1.7 3.6 3.6 3.6h117.4c2 0 3.6-1.7 3.6-3.6V65.1c0-.5.4-.9.9-.9s.9.4.9.9v50.3c0 3-2.4 5.4-5.3 5.4z" fill="#333"/><path d="M138.4 75.5L74 108.2 11.9 75.5v-28c0-2.5 2-4.5 4.5-4.5h117.4c2.5 0 4.5 2 4.5 4.5v16.2l.1 11.8z" fill="#8fc043"/><path d="M74 109.1c-.2 0-.3 0-.4-.1L11.4 76.2c-.3-.1-.4-.4-.4-.7v-28c0-3 2.5-5.4 5.4-5.4h117.4c3 0 5.4 2.5 5.4 5.4v27.9c0 .4-.2.6-.4.8L74.4 109c-.2.1-.3.1-.4.1zM12.8 75L74 107.3l63.5-32.4V47.5c0-2-1.7-3.6-3.6-3.6H16.4c-2 0-3.6 1.7-3.6 3.6V75z" fill="#333"/><path d="M75 54.8s-.1 0 0 0l-8.1 13.5c1.8.1 3.4.1 5.2.2-.1 2.8-.1 5.5-.1 8.2 2.6-4.5 5.4-9 8-13.5-1.8-.1-3.4-.1-5.2-.2.1-2.7.1-5.4.2-8.2z" fill="#e6e6e6"/><path d="M72 77.6c-.1 0-.2 0-.3-.1-.1 0-.1-.1-.2-.1-.3-.1-.5-.4-.5-.8l.2-7.3-4.3-.1c-.4 0-.6-.2-.7-.4-.2-.3-.2-.6 0-.9l8-13.5c.3-.4.7-.5 1.1-.4.4.1.6.4.6.9l-.1 2.5c0 1.6-.1 3.2-.1 4.7l4.3.1c.4 0 .6.2.7.4.2.3.2.6 0 .9l-6.9 11.6-1.1 1.9c-.1.4-.4.6-.7.6zm-3.6-10l3.7.1c.5 0 .9.4.9.9l-.1 4.9c1.8-3.2 3.8-6.3 5.6-9.5l-3.7-.1c-.4 0-.9-.4-.9-.9 0-1.7.1-3.3.1-5l-5.6 9.6z" fill="#333"/><path d="M76.8 114.7H71c-1.1 0-2-.9-2-2V101c0-1.1.9-2 2-2h5.8c1.1 0 2 .9 2 2v11.7c0 1.1-1 2-2 2z" fill="#8fc043"/><path d="M76.1 115.5h-4.5c-1.9 0-3.5-1.6-3.5-3.5v-10.4c0-1.9 1.6-3.5 3.5-3.5h4.5c1.9 0 3.5 1.6 3.5 3.5V112c.1 1.9-1.5 3.5-3.5 3.5zm-4.4-15.6c-1 0-1.8.8-1.8 1.8V112c0 1 .8 1.8 1.8 1.8h4.5c1 0 1.8-.8 1.8-1.8v-10.4c0-1-.8-1.8-1.8-1.8h-4.5z" fill="#333"/><g><path d="M73.9 109.5v5.2" fill="none"/><path d="M73.9 115.5c-.5 0-.9-.4-.9-.9v-5.2c0-.5.4-.9.9-.9s.9.4.9.9v5.2c0 .6-.4.9-.9.9z" fill="#333"/></g><path d="M0 0h150v150H0V0z" fill="none"/></svg>