<svg xmlns="http://www.w3.org/2000/svg" viewBox="0 0 474 399" width="500" height="421"><path fill="none" stroke="#8cc63f" stroke-linecap="round" stroke-miterlimit="10" stroke-dasharray="3" d="M113 0v88"/><circle cx="113" cy="92" r="3" fill="#8cc63f"/><path fill="none" stroke="#8cc63f" stroke-linecap="round" stroke-miterlimit="10" stroke-dasharray="3" d="M161.8 275l.7-90M246.8 277.5h30.7c20.4 0 37 16.6 37 37s-16.6 37-37 37h-79c-20.4 0-37-16.6-37-37l.3-42.2M161.8 277.5h62.6"/><path d="M113 318.6v-4.1c0-20.4 16.6-37 37-37h11.8M113 398v-79.4" fill="none" stroke="#8cc63f" stroke-linecap="round" stroke-miterlimit="10" stroke-dasharray="3"/><circle cx="29" cy="144" r="3" fill="#fff"/><circle cx="315" cy="315" r="3" fill="#8cc63f"/><circle cx="201" cy="352" r="3" fill="#8cc63f"/><circle cx="113" cy="322" r="3" fill="#8cc63f"/><circle cx="162" cy="278" r="3" fill="#8cc63f"/><path d="M268.2 61.5h-23.7c-16.1 0-29.1 12.9-29.2 29l-.2 24.4c0 16.1-13 29.1-29.1 29.1l-156.5.5M473 193.5h-89.7c-16.1 0-29.2-13.1-29.2-29.2v-.1l.3-73.3c.1-16.1-13-29.3-29.1-29.3h-34.5" fill="none" stroke="#fff" stroke-linecap="round" stroke-miterlimit="10" stroke-dasharray="3"/><circle cx="162.5" cy="182.5" r="3" fill="#8cc63f"/><path d="M473 141.5l-160.1-.5c-19.3 0-35 15.7-35 35v17.5c0 19.3-15.7 35-35 35H62.5" fill="none" stroke="#8cc63f" stroke-linecap="round" stroke-miterlimit="10" stroke-dasharray="3"/><circle cx="59.5" cy="228.5" r="3" fill="#8cc63f"/><path d="M280.1 65.4c1.5 21.6 16.8 38.6 35.4 38.6l157.5.5M280 0v56.9" fill="none" stroke="#8cc63f" stroke-linecap="round" stroke-miterlimit="10" stroke-dasharray="3"/><path fill="none" stroke="#fff" stroke-miterlimit="10" stroke-dasharray="3" d="M416.5 240.5h-58"/><path fill="none" stroke="#fff" stroke-linecap="round" stroke-miterlimit="10" stroke-dasharray="3" d="M472.5 240.5h-56"/><circle cx="355.5" cy="240.5" r="3" fill="#fff"/><path fill="none" stroke="#8cc63f" stroke-linecap="round" stroke-miterlimit="10" stroke-dasharray="3" d="M401 .5V41"/><circle cx="401" cy="45" r="3" fill="#8cc63f"/><path d="M355.5 315.5v24c0 15 12 27.2 27 27.5 15 .3 27 12.5 27 27.5v4" fill="none" stroke="#8cc63f" stroke-linecap="round" stroke-miterlimit="10" stroke-dasharray="3"/><circle cx="355.5" cy="312.5" r="3" fill="#8cc63f"/><circle cx="416.5" cy="240.5" r="3" fill="#fff"/><path d="M79.5 378.5h142c10.5 0 19 8.5 19 19" fill="none" stroke="#fff" stroke-linecap="round" stroke-miterlimit="10" stroke-dasharray="3"/><circle cx="74.5" cy="378.5" r="3" fill="#fff"/><path d="M77 19.5h80.3c9.5 0 17.2-7.7 17.2-17.2V.5" fill="none" stroke="#fff" stroke-linecap="round" stroke-miterlimit="10" stroke-dasharray="3"/><circle cx="73.5" cy="19.5" r="3" fill="#fff"/><path d="M402.6 53.8l-5.6 9.4 3.6.1c0 1.9-.1 3.8-.1 5.7h.1c1.8-3.1 3.7-6.2 5.6-9.4l-3.6-.1c-.1-2-.1-3.8 0-5.7z" fill="none" stroke="#fff" stroke-miterlimit="10"/><path fill="none" stroke="#fff" stroke-linecap="round" stroke-linejoin="round" d="M439.5 27.1v5.8M442.4 30h-5.8"/><path d="M63.6 372.8c0-.3-.3-.6-.6-.6h-1.8l2.4 2.4v-1.8z" fill="none" stroke="#fff" stroke-miterlimit="10"/><path d="M66.9 377.7l-1.8-1.8-3.8-3.7-1-1c-.2-.2-.6-.2-.8 0l-6.4 6.4c-.2.2-.2.3-.1.4s.1.2.3.2h1.3v5.7c0 .3.3.6.6.6h9.6c.3 0 .6-.3.6-.6v-5.7h1.3c.2 0 .3-.1.3-.2s0-.1-.1-.3z" fill="none" stroke="#fff" stroke-miterlimit="10"/><path d="M60.5 374.8l-2.9 4.6h1.9c0 .9 0 1.9-.1 2.8l2.9-4.6h-1.9c.1-1 .1-1.9.1-2.8z" fill="#fff"/><path d="M53 226.4c0-3.1-2.5-5.7-5.7-5.7-3.1 0-5.7 2.5-5.7 5.7 0 1.2.4 2.4 1.1 3.4l4.3 5.8c.1.2.3.2.5.1l.1-.1 4.2-5.7.2-.3c.7-1 1-2.1 1-3.2z" fill="none" stroke="#fff" stroke-miterlimit="10"/><path d="M48 223.2l-3 4.7 1.9.1c0 .9 0 1.9-.1 2.8l3-4.7-1.9-.1c0-.9 0-1.9.1-2.8z" fill="#fff"/><path fill="none" stroke="#fff" stroke-miterlimit="10" d="M241.4 281.2h-11.6M226.8 281.2h-2.7c-.2-.2-.2-.6-.1-.8.2-.3.2-.5.2-.8-.1-.1-.1-.3-.2-.4v-.1c-.1-.3 0-.7.2-1 .5-.7 1.2-1.1 2-1.3l2.4-.6c1.2-.5 2.4-1.1 3.6-1.7 1.8-.8 3.8-1.2 5.8-1.1 1.2 0 2.5.1 3.7.2l1.8.2.9.1c.2 0 .7.1.3.2l1.6 2.4c.1.3.2.6.1.9.1.6.3 1.2.5 1.7.2.7 0 1.5-.4 2.1h-2.3"/><path d="M228.3 282.6c1 0 1.8-.8 1.8-1.8s-.8-1.8-1.8-1.8-1.8.8-1.8 1.8c-.1 1 .8 1.8 1.8 1.8zM242.8 282.7c-1 0-1.8-.8-1.8-1.8s.8-1.8 1.8-1.8 1.8.8 1.8 1.8-.8 1.8-1.8 1.8zM227.8 176.9c1.4.6 2.3 2.1 2.1 3.6-.2 2-1.9 3.5-4 3.3-.2 0-.4-.1-.7-.1l-.3-.1c-.1 0-.1-.1-.2-.1h-.2l-.1.1-.3.1c-1.9.8-4 0-4.8-1.9-.7-1.6-.2-3.4 1.2-4.4v-.9c.2-2 2-3.5 4-3.3 1.8.2 3.2 1.7 3.3 3.7z" fill="none" stroke="#fff" stroke-miterlimit="10"/><path fill="none" stroke="#fff" stroke-linecap="round" stroke-miterlimit="10" d="M227 181l-2.2 1.2M224.6 183.4v-5.5M224.6 192v-8.6M222 180l2.5 1.1"/><path d="M243.8 176.9c1.4.6 2.3 2.1 2.1 3.6-.2 2-1.9 3.5-4 3.3-.2 0-.4-.1-.7-.1l-.3-.1c-.1 0-.1-.1-.2-.1h-.2l-.1.1-.3.1c-1.9.8-4 0-4.8-1.9-.7-1.6-.2-3.4 1.2-4.4v-.9c.2-2 2-3.5 4-3.3 1.8.2 3.2 1.7 3.3 3.7z" fill="none" stroke="#fff" stroke-miterlimit="10"/><path fill="none" stroke="#fff" stroke-linecap="round" stroke-miterlimit="10" d="M243 181l-2.2 1.2M240.6 183.4v-5.5M240.6 192v-8.6M238 180l2.5 1.1"/><path d="M411.8 299.9c1.4.6 2.3 2.1 2.1 3.6-.2 2-1.9 3.5-4 3.3-.2 0-.4-.1-.7-.1l-.3-.1c-.1 0-.1-.1-.2-.1h-.2l-.1.1-.3.1c-1.9.8-4 0-4.8-1.9-.7-1.6-.2-3.4 1.2-4.4v-.9c.2-2 2-3.5 4-3.3 1.8.2 3.2 1.7 3.3 3.7z" fill="none" stroke="#fff" stroke-miterlimit="10"/><path fill="none" stroke="#fff" stroke-linecap="round" stroke-miterlimit="10" d="M411 304l-2.2 1.2M408.6 306.4v-5.5M408.6 315v-8.6M406 303l2.5 1.1"/><path d="M427.8 299.9c1.4.6 2.3 2.1 2.1 3.6-.2 2-1.9 3.5-4 3.3-.2 0-.4-.1-.7-.1l-.3-.1c-.1 0-.1-.1-.2-.1h-.2l-.1.1-.3.1c-1.9.8-4 0-4.8-1.9-.7-1.6-.2-3.4 1.2-4.4v-.9c.2-2 2-3.5 4-3.3 1.8.2 3.2 1.7 3.3 3.7z" fill="none" stroke="#fff" stroke-miterlimit="10"/><path fill="none" stroke="#fff" stroke-linecap="round" stroke-miterlimit="10" d="M427 304l-2.2 1.2M424.6 306.4v-5.5M424.6 315v-8.6M422 303l2.5 1.1"/><path d="M237.8 308.9c1.4.6 2.3 2.1 2.1 3.6-.2 2-1.9 3.5-4 3.3-.2 0-.4-.1-.7-.1l-.3-.1c-.1 0-.1-.1-.2-.1h-.2l-.1.1-.3.1c-1.9.8-4 0-4.8-1.9-.7-1.6-.2-3.4 1.2-4.4v-.9c.2-2 2-3.5 4-3.3 1.8.2 3.2 1.7 3.3 3.7zM237 313l-2.2 1.2M234.6 315.4v-5.5M234.6 324v-8.6M232 312l2.5 1.1M165.8 59.9c1.4.6 2.3 2.1 2.1 3.6-.2 2-1.9 3.5-4 3.3-.2 0-.4-.1-.7-.2l-.3-.1c-.1 0-.1-.1-.2-.1h-.2l-.1.1-.3.2c-1.9.8-4 0-4.8-1.9-.7-1.6-.2-3.4 1.2-4.4v-.9c.2-2 2-3.5 4-3.3 1.8.2 3.2 1.7 3.3 3.7z" fill="none" stroke="#fff" stroke-miterlimit="10"/><path fill="none" stroke="#fff" stroke-linecap="round" stroke-miterlimit="10" d="M165 64l-2.2 1.2M162.6 66.4v-5.5M162.6 75v-8.6M160 63l2.5 1.1"/><path fill="none" stroke="#fff" stroke-miterlimit="10" d="M285.3 65.2h-11.5M270.7 65.2h-2.6c-.2-.2-.2-.6-.1-.8.2-.3.2-.5.2-.8-.1-.1-.1-.3-.2-.4v-.1c-.1-.3 0-.7.2-1 .5-.7 1.2-1.1 2-1.3l2.4-.6c1.2-.5 2.4-1.1 3.6-1.7 1.8-.8 3.8-1.2 5.8-1.1 1.2 0 2.5.1 3.7.2l1.8.2.9.1c.2 0 .7.1.3.2l1.6 2.4c.1.3.2.6.1.9.1.6.3 1.2.5 1.7.2.7 0 1.5-.4 2.1h-2.3"/><path d="M272.3 66.6c1 0 1.8-.8 1.8-1.8s-.8-1.8-1.8-1.8-1.8.8-1.8 1.8c-.1 1 .8 1.8 1.8 1.8zM286.8 66.7c-1 0-1.8-.8-1.8-1.8s.8-1.8 1.8-1.8 1.8.8 1.8 1.8-.8 1.8-1.8 1.8z" fill="none" stroke="#fff" stroke-miterlimit="10"/><path d="M65 17.4c0-3.1-2.5-5.7-5.7-5.7-3.1 0-5.7 2.5-5.7 5.7 0 1.2.4 2.4 1.1 3.4l4.3 5.8c.1.2.3.2.5.1l.1-.1 4.2-5.7.2-.3c.7-1 1-2.1 1-3.2z" fill="none" stroke="#fff" stroke-linecap="round" stroke-linejoin="round"/><path d="M60 14.2l-3 4.7h1.9c0 1 0 1.9-.1 2.8l3-4.7h-1.9c0-.9 0-1.9.1-2.8z" fill="#fff"/><path fill="none" stroke="#fff" stroke-linecap="round" stroke-linejoin="round" d="M337.5 370.1v5.8M340.4 373h-5.8M95.5 180.1v5.8M98.4 183h-5.8M318.5 191.1v5.8M321.4 194h-5.8"/><path d="M166.6 160.8c0-.3-.3-.6-.6-.6h-1.8l2.4 2.4v-1.8z" fill="none" stroke="#fff" stroke-miterlimit="10"/><path d="M169.9 165.7l-1.8-1.8-3.8-3.7-1-1c-.2-.2-.6-.2-.8 0l-6.4 6.4c-.2.2-.2.3-.1.4s.1.2.3.2h1.3v5.7c0 .3.3.6.6.6h9.6c.3 0 .6-.3.6-.6v-5.7h1.3c.2 0 .3-.1.3-.2s0-.1-.1-.3z" fill="none" stroke="#fff" stroke-miterlimit="10"/><path d="M163.5 162.8l-2.9 4.6 1.9.1c0 .9 0 1.9-.1 2.8l2.9-4.6h-1.9c.1-1.1.1-2 .1-2.9z" fill="#fff"/><path d="M109.3 104.5h-2.1c-.5-.1-1.1.2-1.2.8v7.2c-.1.5.3 1.1.8 1.2h11.5c.5-.1.9-.6.8-1.2V107v-1.2c.1-.5-.3-1.1-.8-1.1H115.7v-1c.1-.5-.3-1.1-.8-1.2h-4.3c-.6-.1-1.1.3-1.2.9v.3c-.1.1-.1.5-.1.8z" fill="none" stroke="#fff" stroke-miterlimit="10"/><path d="M115 104.5v-1.1c0-.4-.2-.5-.5-.5h-4c-.3 0-.5.1-.5.4v1.2h5z" fill="none" stroke="#fff" stroke-miterlimit="10"/><path d="M113.1 105.8l-2.5 3.9h1.6c0 .8 0 1.6-.1 2.4l2.5-3.9H113c.1-.9.1-1.6.1-2.4z" fill="#fff"/><path d="M361 294.4c0-3.1-2.5-5.7-5.7-5.7-3.1 0-5.7 2.5-5.7 5.7 0 1.2.4 2.4 1.1 3.4l4.3 5.8c.1.2.3.2.5.1l.1-.1 4.2-5.7.2-.3c.7-1 1-2.1 1-3.2z" fill="none" stroke="#fff" stroke-linecap="round" stroke-linejoin="round"/><path d="M356 291.2l-3 4.7h1.9c0 1 0 1.9-.1 2.8l3-4.7h-1.9c0-.9 0-1.9.1-2.8z" fill="#fff"/><circle cx="416" cy="194" r="3" fill="#fff"/><circle cx="354" cy="104" r="3" fill="#fff"/><circle cx="215" cy="101" r="3" fill="#fff"/><circle cx="163" cy="144" r="3" fill="#fff"/><circle cx="113" cy="20" r="3" fill="#fff"/><circle cx="112" cy="229" r="3" fill="#8cc63f"/><circle cx="162" cy="229" r="3" fill="#8cc63f"/><circle cx="354" cy="141" r="3" fill="#8cc63f"/><circle cx="113" cy="144" r="3" fill="#fff"/><path d="M14.6 137.8c0-.3-.3-.6-.6-.6h-1.8l2.4 2.4v-1.8z" fill="none" stroke="#fff" stroke-miterlimit="10"/><path d="M17.9 142.7l-1.8-1.8-3.8-3.7-1-1c-.2-.2-.6-.2-.8 0L4 142.7c-.2.2-.2.3-.1.4.1.1.1.2.3.2h1.3v5.7c0 .3.3.6.6.6h9.6c.3 0 .6-.3.6-.6v-5.7h1.3c.2 0 .3-.1.3-.2s.1-.2 0-.4z" fill="none" stroke="#fff" stroke-miterlimit="10"/><path d="M11.5 139.8l-2.9 4.6 1.9.1c0 .9 0 1.9-.1 2.8l2.9-4.6h-1.9c.1-1.1.1-2 .1-2.9z" fill="#fff"/></svg>