<?xml version="1.0" encoding="utf-8"?>
<!-- Generator: Adobe Illustrator 21.0.2, SVG Export Plug-In . SVG Version: 6.00 Build 0)  -->
<svg version="1.1" id="Layer_2" xmlns="http://www.w3.org/2000/svg" xmlns:xlink="http://www.w3.org/1999/xlink" x="0px" y="0px"
	 viewBox="0 0 90 90" style="enable-background:new 0 0 90 90;" xml:space="preserve">
<style type="text/css">
	.st0{fill:#CF142B;}
	.st1{fill:#01237D;}
</style>
<g>
	<path class="st0" d="M52.5,14.9c-2.3-0.5-4.7-0.8-7.1-0.8c-2.1,0-4.2,0.2-6.2,0.6v23.8h13.3V14.9z"/>
	<path class="st0" d="M45.4,76.3c2.4,0,4.8-0.3,7.1-0.8V51.9H39.2v23.8C41.2,76.1,43.3,76.3,45.4,76.3z"/>
	<path class="st0" d="M75.8,51.9c0.5-2.1,0.7-4.4,0.7-6.7s-0.3-4.5-0.7-6.7H52.5H39.2H15c-0.5,2.1-0.7,4.4-0.7,6.7s0.3,4.5,0.7,6.7
		h24.1h13.4H75.8z"/>
	<path class="st1" d="M34.5,16.1c-5.1,1.9-9.6,5.2-13.1,9.3L34.5,32V16.1z"/>
	<path class="st1" d="M34.5,74.3V58.4L21.4,65C24.9,69.2,29.4,72.4,34.5,74.3z"/>
	<path class="st1" d="M69.6,64.8L57,58.4v15.7C61.9,72.1,66.3,68.9,69.6,64.8z"/>
	<path class="st1" d="M57,16.3V32l12.6-6.4C66.3,21.5,61.9,18.3,57,16.3z"/>
	<path class="st0" d="M17.7,31c-0.5,0.9-0.9,1.8-1.3,2.8h6.8L17.7,31z"/>
	<path class="st0" d="M73.4,58.7c0.4-0.9,0.8-1.8,1.1-2.7H68L73.4,58.7z"/>
	<path class="st0" d="M68.1,33.8l5.1-2.5c-0.7-1.3-1.4-2.6-2.3-3.8l-12.4,6.3H68.1z"/>
	<path class="st0" d="M23.6,56l-6.1,3c0.7,1.3,1.4,2.6,2.3,3.9L33.2,56H23.6z"/>
</g>
</svg>
