<?xml version="1.0" encoding="utf-8"?>
<!-- Generator: Adobe Illustrator 21.0.2, SVG Export Plug-In . SVG Version: 6.00 Build 0)  -->
<svg version="1.1" id="Layer_1" xmlns="http://www.w3.org/2000/svg" xmlns:xlink="http://www.w3.org/1999/xlink" x="0px" y="0px"
	 viewBox="0 0 500 500" style="enable-background:new 0 0 500 500;" xml:space="preserve">
<g>
	<g>
		<path d="M159.4,228.9v54h89.4c-3.6,23.1-27,67.9-89.4,67.9c-53.9,0-97.6-44.6-97.6-99.4s43.9-99.4,97.6-99.4
			c30.5,0,51,13.1,62.9,24.3l42.6-41.1c-27.5-25.6-63-41.1-105.6-41.1C72.4,94,1.9,164.4,1.9,251.6s70.4,157.6,157.6,157.6
			c90.9,0,151.1-63.9,151.1-154c0-10.4-1.1-18.2-2.5-26.1L159.4,228.9L159.4,228.9L159.4,228.9z"/>
	</g>
	<polygon points="497,229 452.1,229 452.1,184 407,184 407,229 362,229 362,274 407,274 407,319.2 452.1,319.2 452.1,274 497,274 	
		"/>
</g>
</svg>
