<?xml version="1.0" encoding="utf-8"?>
<!-- Generator: Adobe Illustrator 19.0.0, SVG Export Plug-In . SVG Version: 6.00 Build 0)  -->
<svg version="1.1" id="Layer_1" xmlns="http://www.w3.org/2000/svg" xmlns:xlink="http://www.w3.org/1999/xlink" x="0px" y="0px"
	 viewBox="237 -238 500 500" style="enable-background:new 237 -238 500 500;" xml:space="preserve">
<g>
	<g>
		<path d="M404.4-8.8v49.5h82c-3.3,21.2-24.8,62.3-82,62.3c-49.4,0-89.5-40.9-89.5-91.2s40.3-91.2,89.5-91.2c28,0,46.8,12,57.7,22.3
			l39.1-37.7c-25.2-23.5-57.8-37.7-96.8-37.7C324.6-132.5,260-67.9,260,12s64.6,144.5,144.5,144.5c83.4,0,138.6-58.6,138.6-141.2
			c0-9.5-1-16.7-2.3-23.9L404.4-8.8L404.4-8.8L404.4-8.8z"/>
	</g>
	<polygon points="714,-8.7 672.8,-8.7 672.8,-50 631.5,-50 631.5,-8.7 590.2,-8.7 590.2,32.6 631.5,32.6 631.5,74 672.8,74 
		672.8,32.6 714,32.6 	"/>
</g>
</svg>
