<?xml version="1.0" encoding="utf-8"?>
<!-- Generator: Adobe Illustrator 21.0.2, SVG Export Plug-In . SVG Version: 6.00 Build 0)  -->
<svg version="1.1" id="Layer_1" xmlns="http://www.w3.org/2000/svg" xmlns:xlink="http://www.w3.org/1999/xlink" x="0px" y="0px"
	 viewBox="0 0 500 500" style="enable-background:new 0 0 500 500;" xml:space="preserve">
<path d="M67,126.3c-31.8,0-57.4-25.7-57.4-57.4c0-31.7,25.6-57.4,57.4-57.4c31.6,0,57.3,25.7,57.3,57.4
	C124.3,100.6,98.7,126.3,67,126.3z"/>
<rect x="17.5" y="169.8" width="99" height="318.3"/>
<path d="M488.1,488.2h-98.9V333.3c0-36.9-0.6-84.4-51.4-84.4c-51.5,0-59.3,40.2-59.3,81.8v157.5h-98.8V169.8h94.8v43.5h1.4
	c13.2-25,45.5-51.4,93.6-51.4c100.2,0,118.7,65.9,118.7,151.7V488.2z"/>
</svg>
