<?xml version="1.0" encoding="utf-8"?>
<!-- Generator: Adobe Illustrator 18.0.0, SVG Export Plug-In . SVG Version: 6.00 Build 0)  -->
<!DOCTYPE svg PUBLIC "-//W3C//DTD SVG 1.1//EN" "http://www.w3.org/Graphics/SVG/1.1/DTD/svg11.dtd">
<svg version="1.1" id="Layer_1" xmlns="http://www.w3.org/2000/svg" xmlns:xlink="http://www.w3.org/1999/xlink" x="0px" y="0px"
	 viewBox="0 0 500 500" enable-background="new 0 0 500 500" xml:space="preserve">
<path d="M499.3,94.1c-18.4,8.1-38.1,13.7-58.8,16.1c21.2-12.7,37.4-32.8,45-56.7c-19.8,11.7-41.7,20.3-65.1,24.9
	C401.7,58.5,375.1,46,345.6,46C289,46,243.1,91.9,243.1,148.5c0,8,0.9,15.8,2.7,23.3c-85.2-4.3-160.6-45.1-211.2-107
	C25.9,80,20.8,97.6,20.8,116.4c0,35.5,18.1,66.9,45.6,85.3c-16.8-0.5-32.6-5.1-46.4-12.8c0,0.4,0,0.9,0,1.3
	c0,49.6,35.3,91.1,82.2,100.5c-8.6,2.3-17.6,3.6-27,3.6c-6.6,0-13-0.6-19.3-1.8c13,40.7,50.9,70.3,95.7,71.2
	c-35,27.3-79.2,43.6-127.2,43.6c-8.3,0-16.4-0.5-24.4-1.4c45.3,29.1,99.2,46,157.1,46c188.5,0,291.5-156.1,291.5-291.5
	c0-4.4-0.1-8.9-0.3-13.3C468.2,132.7,485.6,114.7,499.3,94.1z"/>
</svg>
