<?xml version="1.0" encoding="utf-8"?>
<!-- Generator: Adobe Illustrator 19.0.0, SVG Export Plug-In . SVG Version: 6.00 Build 0)  -->
<svg version="1.1" id="Layer_1" xmlns="http://www.w3.org/2000/svg" xmlns:xlink="http://www.w3.org/1999/xlink" x="0px" y="0px"
	 viewBox="237 -238 500 500" style="enable-background:new 237 -238 500 500;" xml:space="preserve">
<g>
	<path d="M721.3-91.3c0,0-4.7-33.1-19.1-47.8c-18.4-19.1-38.8-19.2-48.2-20.4c-67.4-4.8-168.4-4.8-168.4-4.8h-0.2
		c0,0-101.1,0-168.4,4.8c-9.4,1.2-30,1.3-48.2,20.4c-14.4,14.6-19.1,47.8-19.1,47.8s-4.8,38.9-4.8,78v36.5c0,38.9,4.8,78,4.8,78
		s4.7,33.1,19.1,47.8c18.4,19.1,42.4,18.6,53.1,20.6c38.6,3.7,163.7,4.8,163.7,4.8s101.2-0.2,168.6-5c9.4-1.2,30-1.3,48.2-20.4
		c14.4-14.6,19.1-47.8,19.1-47.8s4.8-38.9,4.8-78v-36.5C726.2-52.4,721.3-91.3,721.3-91.3z M565.7,0.1L435.7,67.5v-0.1l-0.1,0.1
		V-67.8v-0.1L565.7,0.1L565.7,0.1L565.7,0.1z"/>
</g>
</svg>
